G75*
%MOIN*%
%OFA0B0*%
%FSLAX25Y25*%
%IPPOS*%
%LPD*%
%AMOC8*
5,1,8,0,0,1.08239X$1,22.5*
%
%ADD10C,0.00600*%
%ADD11C,0.02978*%
D10*
X0005600Y0005600D02*
X0005600Y0111173D01*
X0111173Y0111173D01*
X0111173Y0090854D01*
X0102724Y0078883D01*
X0102379Y0078539D01*
X0102235Y0078191D01*
X0102018Y0077884D01*
X0101911Y0077409D01*
X0101724Y0076958D01*
X0101724Y0076582D01*
X0101642Y0076215D01*
X0101724Y0075735D01*
X0101724Y0047849D01*
X0101649Y0047288D01*
X0101724Y0047001D01*
X0101724Y0046705D01*
X0101941Y0046182D01*
X0102086Y0045634D01*
X0102266Y0045398D01*
X0102379Y0045124D01*
X0102779Y0044724D01*
X0111173Y0033707D01*
X0111173Y0005600D01*
X0005600Y0005600D01*
X0005600Y0006088D02*
X0111173Y0006088D01*
X0111173Y0006687D02*
X0005600Y0006687D01*
X0005600Y0007285D02*
X0111173Y0007285D01*
X0111173Y0007884D02*
X0064295Y0007884D01*
X0064158Y0007827D02*
X0067547Y0009231D01*
X0070141Y0011825D01*
X0071545Y0015214D01*
X0071545Y0018882D01*
X0070141Y0022271D01*
X0067547Y0024865D01*
X0064158Y0026269D01*
X0060489Y0026269D01*
X0057100Y0024865D01*
X0054506Y0022271D01*
X0053102Y0018882D01*
X0053102Y0015214D01*
X0054506Y0011825D01*
X0057100Y0009231D01*
X0060489Y0007827D01*
X0064158Y0007827D01*
X0065740Y0008482D02*
X0111173Y0008482D01*
X0111173Y0009081D02*
X0067185Y0009081D01*
X0067996Y0009679D02*
X0111173Y0009679D01*
X0111173Y0010278D02*
X0068594Y0010278D01*
X0069193Y0010876D02*
X0111173Y0010876D01*
X0111173Y0011475D02*
X0069791Y0011475D01*
X0070244Y0012073D02*
X0111173Y0012073D01*
X0111173Y0012672D02*
X0070492Y0012672D01*
X0070740Y0013270D02*
X0111173Y0013270D01*
X0111173Y0013869D02*
X0070988Y0013869D01*
X0071236Y0014467D02*
X0111173Y0014467D01*
X0111173Y0015066D02*
X0071484Y0015066D01*
X0071545Y0015664D02*
X0111173Y0015664D01*
X0111173Y0016263D02*
X0071545Y0016263D01*
X0071545Y0016861D02*
X0111173Y0016861D01*
X0111173Y0017460D02*
X0071545Y0017460D01*
X0071545Y0018058D02*
X0111173Y0018058D01*
X0111173Y0018657D02*
X0071545Y0018657D01*
X0071390Y0019255D02*
X0111173Y0019255D01*
X0111173Y0019854D02*
X0071142Y0019854D01*
X0070895Y0020452D02*
X0093369Y0020452D01*
X0093910Y0019911D02*
X0092511Y0021310D01*
X0092511Y0023290D01*
X0093700Y0024479D01*
X0093700Y0048597D01*
X0095614Y0050511D01*
X0095110Y0050511D01*
X0093711Y0051910D01*
X0093711Y0053890D01*
X0094900Y0055079D01*
X0094900Y0090203D01*
X0093192Y0091911D01*
X0091510Y0091911D01*
X0090111Y0093310D01*
X0090111Y0095290D01*
X0091510Y0096689D01*
X0093490Y0096689D01*
X0094889Y0095290D01*
X0094889Y0093608D01*
X0097300Y0091197D01*
X0097300Y0055079D01*
X0098489Y0053890D01*
X0098489Y0053386D01*
X0099100Y0053997D01*
X0099100Y0104721D01*
X0097911Y0105910D01*
X0097911Y0107890D01*
X0099310Y0109289D01*
X0101290Y0109289D01*
X0102689Y0107890D01*
X0102689Y0105910D01*
X0101500Y0104721D01*
X0101500Y0053003D01*
X0100797Y0052300D01*
X0096100Y0047603D01*
X0096100Y0024479D01*
X0097289Y0023290D01*
X0097289Y0021310D01*
X0095890Y0019911D01*
X0093910Y0019911D01*
X0092771Y0021051D02*
X0070647Y0021051D01*
X0070399Y0021649D02*
X0092511Y0021649D01*
X0092511Y0022248D02*
X0070151Y0022248D01*
X0069566Y0022846D02*
X0092511Y0022846D01*
X0092666Y0023445D02*
X0068968Y0023445D01*
X0068369Y0024043D02*
X0093265Y0024043D01*
X0093700Y0024642D02*
X0067771Y0024642D01*
X0066642Y0025240D02*
X0093700Y0025240D01*
X0093700Y0025839D02*
X0065197Y0025839D01*
X0059451Y0025839D02*
X0005600Y0025839D01*
X0005600Y0026437D02*
X0093700Y0026437D01*
X0093700Y0027036D02*
X0005600Y0027036D01*
X0005600Y0027634D02*
X0093700Y0027634D01*
X0093700Y0028233D02*
X0005600Y0028233D01*
X0005600Y0028832D02*
X0093700Y0028832D01*
X0093700Y0029430D02*
X0005600Y0029430D01*
X0005600Y0030029D02*
X0093700Y0030029D01*
X0093700Y0030627D02*
X0005600Y0030627D01*
X0005600Y0031226D02*
X0093700Y0031226D01*
X0093700Y0031824D02*
X0005600Y0031824D01*
X0005600Y0032423D02*
X0093700Y0032423D01*
X0093700Y0033021D02*
X0005600Y0033021D01*
X0005600Y0033620D02*
X0093700Y0033620D01*
X0093700Y0034218D02*
X0005600Y0034218D01*
X0005600Y0034817D02*
X0093700Y0034817D01*
X0093700Y0035415D02*
X0005600Y0035415D01*
X0005600Y0036014D02*
X0093700Y0036014D01*
X0093700Y0036612D02*
X0005600Y0036612D01*
X0005600Y0037211D02*
X0093700Y0037211D01*
X0093700Y0037809D02*
X0005600Y0037809D01*
X0005600Y0038408D02*
X0093700Y0038408D01*
X0093700Y0039006D02*
X0005600Y0039006D01*
X0005600Y0039605D02*
X0093700Y0039605D01*
X0093700Y0040203D02*
X0005600Y0040203D01*
X0005600Y0040802D02*
X0093700Y0040802D01*
X0093700Y0041400D02*
X0066761Y0041400D01*
X0064885Y0040898D02*
X0069834Y0042224D01*
X0074271Y0044785D01*
X0077893Y0048408D01*
X0080455Y0052845D01*
X0081781Y0057793D01*
X0081781Y0062917D01*
X0080455Y0067865D01*
X0077893Y0072302D01*
X0074271Y0075925D01*
X0069834Y0078487D01*
X0064885Y0079813D01*
X0059762Y0079813D01*
X0054813Y0078487D01*
X0050376Y0075925D01*
X0046754Y0072302D01*
X0044192Y0067865D01*
X0042866Y0062917D01*
X0042866Y0057793D01*
X0044192Y0052845D01*
X0046754Y0048408D01*
X0050376Y0044785D01*
X0054813Y0042224D01*
X0059762Y0040898D01*
X0064885Y0040898D01*
X0068995Y0041999D02*
X0093700Y0041999D01*
X0093700Y0042597D02*
X0070481Y0042597D01*
X0071518Y0043196D02*
X0093700Y0043196D01*
X0093700Y0043794D02*
X0072554Y0043794D01*
X0073591Y0044393D02*
X0093700Y0044393D01*
X0093700Y0044991D02*
X0074477Y0044991D01*
X0075075Y0045590D02*
X0093700Y0045590D01*
X0093700Y0046188D02*
X0075674Y0046188D01*
X0076272Y0046787D02*
X0093700Y0046787D01*
X0093700Y0047385D02*
X0076871Y0047385D01*
X0077469Y0047984D02*
X0093700Y0047984D01*
X0093700Y0048582D02*
X0077994Y0048582D01*
X0078340Y0049181D02*
X0094284Y0049181D01*
X0094882Y0049779D02*
X0078685Y0049779D01*
X0079031Y0050378D02*
X0095481Y0050378D01*
X0094645Y0050976D02*
X0079376Y0050976D01*
X0079722Y0051575D02*
X0094047Y0051575D01*
X0093711Y0052173D02*
X0080067Y0052173D01*
X0080413Y0052772D02*
X0093711Y0052772D01*
X0093711Y0053370D02*
X0080596Y0053370D01*
X0080756Y0053969D02*
X0093790Y0053969D01*
X0094389Y0054568D02*
X0080917Y0054568D01*
X0081077Y0055166D02*
X0094900Y0055166D01*
X0094900Y0055765D02*
X0081237Y0055765D01*
X0081398Y0056363D02*
X0094900Y0056363D01*
X0094900Y0056962D02*
X0081558Y0056962D01*
X0081719Y0057560D02*
X0094900Y0057560D01*
X0094900Y0058159D02*
X0081781Y0058159D01*
X0081781Y0058757D02*
X0094900Y0058757D01*
X0094900Y0059356D02*
X0081781Y0059356D01*
X0081781Y0059954D02*
X0094900Y0059954D01*
X0094900Y0060553D02*
X0081781Y0060553D01*
X0081781Y0061151D02*
X0094900Y0061151D01*
X0094900Y0061750D02*
X0081781Y0061750D01*
X0081781Y0062348D02*
X0094900Y0062348D01*
X0094900Y0062947D02*
X0081773Y0062947D01*
X0081613Y0063545D02*
X0094900Y0063545D01*
X0094900Y0064144D02*
X0081452Y0064144D01*
X0081292Y0064742D02*
X0094900Y0064742D01*
X0094900Y0065341D02*
X0081132Y0065341D01*
X0080971Y0065939D02*
X0094900Y0065939D01*
X0094900Y0066538D02*
X0080811Y0066538D01*
X0080650Y0067136D02*
X0094900Y0067136D01*
X0094900Y0067735D02*
X0080490Y0067735D01*
X0080185Y0068333D02*
X0094900Y0068333D01*
X0094900Y0068932D02*
X0079839Y0068932D01*
X0079494Y0069530D02*
X0094900Y0069530D01*
X0094900Y0070129D02*
X0079148Y0070129D01*
X0078803Y0070727D02*
X0094900Y0070727D01*
X0094900Y0071326D02*
X0078457Y0071326D01*
X0078112Y0071924D02*
X0094900Y0071924D01*
X0094900Y0072523D02*
X0077673Y0072523D01*
X0077074Y0073121D02*
X0094900Y0073121D01*
X0094900Y0073720D02*
X0076476Y0073720D01*
X0075877Y0074318D02*
X0094900Y0074318D01*
X0094900Y0074917D02*
X0075279Y0074917D01*
X0074680Y0075515D02*
X0094900Y0075515D01*
X0094900Y0076114D02*
X0073944Y0076114D01*
X0072907Y0076712D02*
X0094900Y0076712D01*
X0094900Y0077311D02*
X0071870Y0077311D01*
X0070834Y0077909D02*
X0094900Y0077909D01*
X0094900Y0078508D02*
X0069754Y0078508D01*
X0067520Y0079106D02*
X0094900Y0079106D01*
X0094900Y0079705D02*
X0065287Y0079705D01*
X0059360Y0079705D02*
X0005600Y0079705D01*
X0005600Y0080303D02*
X0094900Y0080303D01*
X0094900Y0080902D02*
X0005600Y0080902D01*
X0005600Y0081501D02*
X0094900Y0081501D01*
X0094900Y0082099D02*
X0005600Y0082099D01*
X0005600Y0082698D02*
X0094900Y0082698D01*
X0094900Y0083296D02*
X0005600Y0083296D01*
X0005600Y0083895D02*
X0094900Y0083895D01*
X0094900Y0084493D02*
X0005600Y0084493D01*
X0005600Y0085092D02*
X0094900Y0085092D01*
X0094900Y0085690D02*
X0005600Y0085690D01*
X0005600Y0086289D02*
X0094900Y0086289D01*
X0094900Y0086887D02*
X0005600Y0086887D01*
X0005600Y0087486D02*
X0094900Y0087486D01*
X0094900Y0088084D02*
X0005600Y0088084D01*
X0005600Y0088683D02*
X0094900Y0088683D01*
X0094900Y0089281D02*
X0005600Y0089281D01*
X0005600Y0089880D02*
X0094900Y0089880D01*
X0094625Y0090478D02*
X0005600Y0090478D01*
X0005600Y0091077D02*
X0059107Y0091077D01*
X0060489Y0090504D02*
X0064158Y0090504D01*
X0067547Y0091908D01*
X0070141Y0094502D01*
X0071545Y0097891D01*
X0071545Y0101559D01*
X0070141Y0104949D01*
X0067547Y0107543D01*
X0064158Y0108946D01*
X0060489Y0108946D01*
X0057100Y0107543D01*
X0054506Y0104949D01*
X0053102Y0101559D01*
X0053102Y0097891D01*
X0054506Y0094502D01*
X0057100Y0091908D01*
X0060489Y0090504D01*
X0057662Y0091675D02*
X0005600Y0091675D01*
X0005600Y0092274D02*
X0056734Y0092274D01*
X0056136Y0092872D02*
X0005600Y0092872D01*
X0005600Y0093471D02*
X0055537Y0093471D01*
X0054939Y0094069D02*
X0005600Y0094069D01*
X0005600Y0094668D02*
X0054437Y0094668D01*
X0054190Y0095266D02*
X0005600Y0095266D01*
X0005600Y0095865D02*
X0053942Y0095865D01*
X0053694Y0096463D02*
X0005600Y0096463D01*
X0005600Y0097062D02*
X0053446Y0097062D01*
X0053198Y0097660D02*
X0005600Y0097660D01*
X0005600Y0098259D02*
X0053102Y0098259D01*
X0053102Y0098857D02*
X0005600Y0098857D01*
X0005600Y0099456D02*
X0053102Y0099456D01*
X0053102Y0100054D02*
X0005600Y0100054D01*
X0005600Y0100653D02*
X0053102Y0100653D01*
X0053102Y0101251D02*
X0005600Y0101251D01*
X0005600Y0101850D02*
X0053223Y0101850D01*
X0053471Y0102448D02*
X0005600Y0102448D01*
X0005600Y0103047D02*
X0053719Y0103047D01*
X0053966Y0103645D02*
X0005600Y0103645D01*
X0005600Y0104244D02*
X0054214Y0104244D01*
X0054462Y0104842D02*
X0005600Y0104842D01*
X0005600Y0105441D02*
X0054999Y0105441D01*
X0055597Y0106039D02*
X0005600Y0106039D01*
X0005600Y0106638D02*
X0056196Y0106638D01*
X0056794Y0107237D02*
X0005600Y0107237D01*
X0005600Y0107835D02*
X0057806Y0107835D01*
X0059251Y0108434D02*
X0005600Y0108434D01*
X0005600Y0109032D02*
X0099054Y0109032D01*
X0098455Y0108434D02*
X0065396Y0108434D01*
X0066841Y0107835D02*
X0097911Y0107835D01*
X0097911Y0107237D02*
X0067853Y0107237D01*
X0068452Y0106638D02*
X0097911Y0106638D01*
X0097911Y0106039D02*
X0069050Y0106039D01*
X0069649Y0105441D02*
X0098380Y0105441D01*
X0098979Y0104842D02*
X0070185Y0104842D01*
X0070433Y0104244D02*
X0099100Y0104244D01*
X0099100Y0103645D02*
X0070681Y0103645D01*
X0070929Y0103047D02*
X0099100Y0103047D01*
X0099100Y0102448D02*
X0071177Y0102448D01*
X0071425Y0101850D02*
X0099100Y0101850D01*
X0099100Y0101251D02*
X0071545Y0101251D01*
X0071545Y0100653D02*
X0099100Y0100653D01*
X0099100Y0100054D02*
X0071545Y0100054D01*
X0071545Y0099456D02*
X0099100Y0099456D01*
X0099100Y0098857D02*
X0071545Y0098857D01*
X0071545Y0098259D02*
X0099100Y0098259D01*
X0099100Y0097660D02*
X0071449Y0097660D01*
X0071201Y0097062D02*
X0099100Y0097062D01*
X0099100Y0096463D02*
X0093715Y0096463D01*
X0094314Y0095865D02*
X0099100Y0095865D01*
X0099100Y0095266D02*
X0094889Y0095266D01*
X0094889Y0094668D02*
X0099100Y0094668D01*
X0099100Y0094069D02*
X0094889Y0094069D01*
X0095026Y0093471D02*
X0099100Y0093471D01*
X0099100Y0092872D02*
X0095625Y0092872D01*
X0096223Y0092274D02*
X0099100Y0092274D01*
X0099100Y0091675D02*
X0096822Y0091675D01*
X0097300Y0091077D02*
X0099100Y0091077D01*
X0099100Y0090478D02*
X0097300Y0090478D01*
X0097300Y0089880D02*
X0099100Y0089880D01*
X0099100Y0089281D02*
X0097300Y0089281D01*
X0097300Y0088683D02*
X0099100Y0088683D01*
X0099100Y0088084D02*
X0097300Y0088084D01*
X0097300Y0087486D02*
X0099100Y0087486D01*
X0099100Y0086887D02*
X0097300Y0086887D01*
X0097300Y0086289D02*
X0099100Y0086289D01*
X0099100Y0085690D02*
X0097300Y0085690D01*
X0097300Y0085092D02*
X0099100Y0085092D01*
X0099100Y0084493D02*
X0097300Y0084493D01*
X0097300Y0083895D02*
X0099100Y0083895D01*
X0099100Y0083296D02*
X0097300Y0083296D01*
X0097300Y0082698D02*
X0099100Y0082698D01*
X0099100Y0082099D02*
X0097300Y0082099D01*
X0097300Y0081501D02*
X0099100Y0081501D01*
X0099100Y0080902D02*
X0097300Y0080902D01*
X0097300Y0080303D02*
X0099100Y0080303D01*
X0099100Y0079705D02*
X0097300Y0079705D01*
X0097300Y0079106D02*
X0099100Y0079106D01*
X0099100Y0078508D02*
X0097300Y0078508D01*
X0097300Y0077909D02*
X0099100Y0077909D01*
X0099100Y0077311D02*
X0097300Y0077311D01*
X0097300Y0076712D02*
X0099100Y0076712D01*
X0099100Y0076114D02*
X0097300Y0076114D01*
X0097300Y0075515D02*
X0099100Y0075515D01*
X0099100Y0074917D02*
X0097300Y0074917D01*
X0097300Y0074318D02*
X0099100Y0074318D01*
X0099100Y0073720D02*
X0097300Y0073720D01*
X0097300Y0073121D02*
X0099100Y0073121D01*
X0099100Y0072523D02*
X0097300Y0072523D01*
X0097300Y0071924D02*
X0099100Y0071924D01*
X0099100Y0071326D02*
X0097300Y0071326D01*
X0097300Y0070727D02*
X0099100Y0070727D01*
X0099100Y0070129D02*
X0097300Y0070129D01*
X0097300Y0069530D02*
X0099100Y0069530D01*
X0099100Y0068932D02*
X0097300Y0068932D01*
X0097300Y0068333D02*
X0099100Y0068333D01*
X0099100Y0067735D02*
X0097300Y0067735D01*
X0097300Y0067136D02*
X0099100Y0067136D01*
X0099100Y0066538D02*
X0097300Y0066538D01*
X0097300Y0065939D02*
X0099100Y0065939D01*
X0099100Y0065341D02*
X0097300Y0065341D01*
X0097300Y0064742D02*
X0099100Y0064742D01*
X0099100Y0064144D02*
X0097300Y0064144D01*
X0097300Y0063545D02*
X0099100Y0063545D01*
X0099100Y0062947D02*
X0097300Y0062947D01*
X0097300Y0062348D02*
X0099100Y0062348D01*
X0099100Y0061750D02*
X0097300Y0061750D01*
X0097300Y0061151D02*
X0099100Y0061151D01*
X0099100Y0060553D02*
X0097300Y0060553D01*
X0097300Y0059954D02*
X0099100Y0059954D01*
X0099100Y0059356D02*
X0097300Y0059356D01*
X0097300Y0058757D02*
X0099100Y0058757D01*
X0099100Y0058159D02*
X0097300Y0058159D01*
X0097300Y0057560D02*
X0099100Y0057560D01*
X0099100Y0056962D02*
X0097300Y0056962D01*
X0097300Y0056363D02*
X0099100Y0056363D01*
X0099100Y0055765D02*
X0097300Y0055765D01*
X0097300Y0055166D02*
X0099100Y0055166D01*
X0099100Y0054568D02*
X0097811Y0054568D01*
X0098410Y0053969D02*
X0099072Y0053969D01*
X0100300Y0053500D02*
X0100300Y0106900D01*
X0101546Y0109032D02*
X0111173Y0109032D01*
X0111173Y0108434D02*
X0102145Y0108434D01*
X0102689Y0107835D02*
X0111173Y0107835D01*
X0111173Y0107237D02*
X0102689Y0107237D01*
X0102689Y0106638D02*
X0111173Y0106638D01*
X0111173Y0106039D02*
X0102689Y0106039D01*
X0102219Y0105441D02*
X0111173Y0105441D01*
X0111173Y0104842D02*
X0101621Y0104842D01*
X0101500Y0104244D02*
X0111173Y0104244D01*
X0111173Y0103645D02*
X0101500Y0103645D01*
X0101500Y0103047D02*
X0111173Y0103047D01*
X0111173Y0102448D02*
X0101500Y0102448D01*
X0101500Y0101850D02*
X0111173Y0101850D01*
X0111173Y0101251D02*
X0101500Y0101251D01*
X0101500Y0100653D02*
X0111173Y0100653D01*
X0111173Y0100054D02*
X0101500Y0100054D01*
X0101500Y0099456D02*
X0111173Y0099456D01*
X0111173Y0098857D02*
X0101500Y0098857D01*
X0101500Y0098259D02*
X0111173Y0098259D01*
X0111173Y0097660D02*
X0101500Y0097660D01*
X0101500Y0097062D02*
X0111173Y0097062D01*
X0111173Y0096463D02*
X0101500Y0096463D01*
X0101500Y0095865D02*
X0111173Y0095865D01*
X0111173Y0095266D02*
X0101500Y0095266D01*
X0101500Y0094668D02*
X0111173Y0094668D01*
X0111173Y0094069D02*
X0101500Y0094069D01*
X0101500Y0093471D02*
X0111173Y0093471D01*
X0111173Y0092872D02*
X0101500Y0092872D01*
X0101500Y0092274D02*
X0111173Y0092274D01*
X0111173Y0091675D02*
X0101500Y0091675D01*
X0101500Y0091077D02*
X0111173Y0091077D01*
X0110908Y0090478D02*
X0101500Y0090478D01*
X0101500Y0089880D02*
X0110486Y0089880D01*
X0110063Y0089281D02*
X0101500Y0089281D01*
X0101500Y0088683D02*
X0109641Y0088683D01*
X0109218Y0088084D02*
X0101500Y0088084D01*
X0101500Y0087486D02*
X0108796Y0087486D01*
X0108373Y0086887D02*
X0101500Y0086887D01*
X0101500Y0086289D02*
X0107951Y0086289D01*
X0107528Y0085690D02*
X0101500Y0085690D01*
X0101500Y0085092D02*
X0107106Y0085092D01*
X0106683Y0084493D02*
X0101500Y0084493D01*
X0101500Y0083895D02*
X0106261Y0083895D01*
X0105838Y0083296D02*
X0101500Y0083296D01*
X0101500Y0082698D02*
X0105416Y0082698D01*
X0104993Y0082099D02*
X0101500Y0082099D01*
X0101500Y0081501D02*
X0104571Y0081501D01*
X0104148Y0080902D02*
X0101500Y0080902D01*
X0101500Y0080303D02*
X0103726Y0080303D01*
X0103304Y0079705D02*
X0101500Y0079705D01*
X0101500Y0079106D02*
X0102881Y0079106D01*
X0102366Y0078508D02*
X0101500Y0078508D01*
X0101500Y0077909D02*
X0102036Y0077909D01*
X0101870Y0077311D02*
X0101500Y0077311D01*
X0101500Y0076712D02*
X0101724Y0076712D01*
X0101659Y0076114D02*
X0101500Y0076114D01*
X0101500Y0075515D02*
X0101724Y0075515D01*
X0101724Y0074917D02*
X0101500Y0074917D01*
X0101500Y0074318D02*
X0101724Y0074318D01*
X0101724Y0073720D02*
X0101500Y0073720D01*
X0101500Y0073121D02*
X0101724Y0073121D01*
X0101724Y0072523D02*
X0101500Y0072523D01*
X0101500Y0071924D02*
X0101724Y0071924D01*
X0101724Y0071326D02*
X0101500Y0071326D01*
X0101500Y0070727D02*
X0101724Y0070727D01*
X0101724Y0070129D02*
X0101500Y0070129D01*
X0101500Y0069530D02*
X0101724Y0069530D01*
X0101724Y0068932D02*
X0101500Y0068932D01*
X0101500Y0068333D02*
X0101724Y0068333D01*
X0101724Y0067735D02*
X0101500Y0067735D01*
X0101500Y0067136D02*
X0101724Y0067136D01*
X0101724Y0066538D02*
X0101500Y0066538D01*
X0101500Y0065939D02*
X0101724Y0065939D01*
X0101724Y0065341D02*
X0101500Y0065341D01*
X0101500Y0064742D02*
X0101724Y0064742D01*
X0101724Y0064144D02*
X0101500Y0064144D01*
X0101500Y0063545D02*
X0101724Y0063545D01*
X0101724Y0062947D02*
X0101500Y0062947D01*
X0101500Y0062348D02*
X0101724Y0062348D01*
X0101724Y0061750D02*
X0101500Y0061750D01*
X0101500Y0061151D02*
X0101724Y0061151D01*
X0101724Y0060553D02*
X0101500Y0060553D01*
X0101500Y0059954D02*
X0101724Y0059954D01*
X0101724Y0059356D02*
X0101500Y0059356D01*
X0101500Y0058757D02*
X0101724Y0058757D01*
X0101724Y0058159D02*
X0101500Y0058159D01*
X0101500Y0057560D02*
X0101724Y0057560D01*
X0101724Y0056962D02*
X0101500Y0056962D01*
X0101500Y0056363D02*
X0101724Y0056363D01*
X0101724Y0055765D02*
X0101500Y0055765D01*
X0101500Y0055166D02*
X0101724Y0055166D01*
X0101724Y0054568D02*
X0101500Y0054568D01*
X0101500Y0053969D02*
X0101724Y0053969D01*
X0101724Y0053370D02*
X0101500Y0053370D01*
X0101724Y0052772D02*
X0101269Y0052772D01*
X0101724Y0052173D02*
X0100671Y0052173D01*
X0100072Y0051575D02*
X0101724Y0051575D01*
X0101724Y0050976D02*
X0099473Y0050976D01*
X0098875Y0050378D02*
X0101724Y0050378D01*
X0101724Y0049779D02*
X0098276Y0049779D01*
X0097678Y0049181D02*
X0101724Y0049181D01*
X0101724Y0048582D02*
X0097079Y0048582D01*
X0096481Y0047984D02*
X0101724Y0047984D01*
X0101662Y0047385D02*
X0096100Y0047385D01*
X0096100Y0046787D02*
X0101724Y0046787D01*
X0101938Y0046188D02*
X0096100Y0046188D01*
X0096100Y0045590D02*
X0102119Y0045590D01*
X0102512Y0044991D02*
X0096100Y0044991D01*
X0096100Y0044393D02*
X0103032Y0044393D01*
X0103488Y0043794D02*
X0096100Y0043794D01*
X0096100Y0043196D02*
X0103944Y0043196D01*
X0104400Y0042597D02*
X0096100Y0042597D01*
X0096100Y0041999D02*
X0104856Y0041999D01*
X0105312Y0041400D02*
X0096100Y0041400D01*
X0096100Y0040802D02*
X0105768Y0040802D01*
X0106224Y0040203D02*
X0096100Y0040203D01*
X0096100Y0039605D02*
X0106680Y0039605D01*
X0107136Y0039006D02*
X0096100Y0039006D01*
X0096100Y0038408D02*
X0107592Y0038408D01*
X0108048Y0037809D02*
X0096100Y0037809D01*
X0096100Y0037211D02*
X0108504Y0037211D01*
X0108960Y0036612D02*
X0096100Y0036612D01*
X0096100Y0036014D02*
X0109416Y0036014D01*
X0109872Y0035415D02*
X0096100Y0035415D01*
X0096100Y0034817D02*
X0110328Y0034817D01*
X0110784Y0034218D02*
X0096100Y0034218D01*
X0096100Y0033620D02*
X0111173Y0033620D01*
X0111173Y0033021D02*
X0096100Y0033021D01*
X0096100Y0032423D02*
X0111173Y0032423D01*
X0111173Y0031824D02*
X0096100Y0031824D01*
X0096100Y0031226D02*
X0111173Y0031226D01*
X0111173Y0030627D02*
X0096100Y0030627D01*
X0096100Y0030029D02*
X0111173Y0030029D01*
X0111173Y0029430D02*
X0096100Y0029430D01*
X0096100Y0028832D02*
X0111173Y0028832D01*
X0111173Y0028233D02*
X0096100Y0028233D01*
X0096100Y0027634D02*
X0111173Y0027634D01*
X0111173Y0027036D02*
X0096100Y0027036D01*
X0096100Y0026437D02*
X0111173Y0026437D01*
X0111173Y0025839D02*
X0096100Y0025839D01*
X0096100Y0025240D02*
X0111173Y0025240D01*
X0111173Y0024642D02*
X0096100Y0024642D01*
X0096535Y0024043D02*
X0111173Y0024043D01*
X0111173Y0023445D02*
X0097134Y0023445D01*
X0097289Y0022846D02*
X0111173Y0022846D01*
X0111173Y0022248D02*
X0097289Y0022248D01*
X0097289Y0021649D02*
X0111173Y0021649D01*
X0111173Y0021051D02*
X0097029Y0021051D01*
X0096431Y0020452D02*
X0111173Y0020452D01*
X0094900Y0022300D02*
X0094900Y0048100D01*
X0100300Y0053500D01*
X0096100Y0052900D02*
X0096100Y0090700D01*
X0092500Y0094300D01*
X0090686Y0095865D02*
X0070706Y0095865D01*
X0070954Y0096463D02*
X0091285Y0096463D01*
X0090111Y0095266D02*
X0070458Y0095266D01*
X0070210Y0094668D02*
X0090111Y0094668D01*
X0090111Y0094069D02*
X0069709Y0094069D01*
X0069110Y0093471D02*
X0090111Y0093471D01*
X0090100Y0093100D02*
X0090100Y0105700D01*
X0091300Y0106900D01*
X0090100Y0093100D02*
X0090700Y0092500D01*
X0090700Y0076300D01*
X0094026Y0091077D02*
X0065541Y0091077D01*
X0066986Y0091675D02*
X0093428Y0091675D01*
X0091148Y0092274D02*
X0067913Y0092274D01*
X0068511Y0092872D02*
X0090549Y0092872D01*
X0111173Y0109631D02*
X0005600Y0109631D01*
X0005600Y0110229D02*
X0111173Y0110229D01*
X0111173Y0110828D02*
X0005600Y0110828D01*
X0005600Y0079106D02*
X0057127Y0079106D01*
X0054893Y0078508D02*
X0005600Y0078508D01*
X0005600Y0077909D02*
X0053814Y0077909D01*
X0052777Y0077311D02*
X0005600Y0077311D01*
X0005600Y0076712D02*
X0051740Y0076712D01*
X0050704Y0076114D02*
X0005600Y0076114D01*
X0005600Y0075515D02*
X0049967Y0075515D01*
X0049368Y0074917D02*
X0005600Y0074917D01*
X0005600Y0074318D02*
X0048770Y0074318D01*
X0048171Y0073720D02*
X0005600Y0073720D01*
X0005600Y0073121D02*
X0047573Y0073121D01*
X0046974Y0072523D02*
X0005600Y0072523D01*
X0005600Y0071924D02*
X0046536Y0071924D01*
X0046190Y0071326D02*
X0005600Y0071326D01*
X0005600Y0070727D02*
X0045844Y0070727D01*
X0045499Y0070129D02*
X0005600Y0070129D01*
X0005600Y0069530D02*
X0015103Y0069530D01*
X0015214Y0069576D02*
X0011825Y0068173D01*
X0009231Y0065579D01*
X0007827Y0062189D01*
X0007827Y0058521D01*
X0009231Y0055132D01*
X0011825Y0052538D01*
X0015214Y0051134D01*
X0018882Y0051134D01*
X0022271Y0052538D01*
X0024865Y0055132D01*
X0026269Y0058521D01*
X0026269Y0062189D01*
X0024865Y0065579D01*
X0022271Y0068173D01*
X0018882Y0069576D01*
X0015214Y0069576D01*
X0013658Y0068932D02*
X0005600Y0068932D01*
X0005600Y0068333D02*
X0012213Y0068333D01*
X0011387Y0067735D02*
X0005600Y0067735D01*
X0005600Y0067136D02*
X0010788Y0067136D01*
X0010190Y0066538D02*
X0005600Y0066538D01*
X0005600Y0065939D02*
X0009591Y0065939D01*
X0009132Y0065341D02*
X0005600Y0065341D01*
X0005600Y0064742D02*
X0008884Y0064742D01*
X0008636Y0064144D02*
X0005600Y0064144D01*
X0005600Y0063545D02*
X0008388Y0063545D01*
X0008140Y0062947D02*
X0005600Y0062947D01*
X0005600Y0062348D02*
X0007893Y0062348D01*
X0007827Y0061750D02*
X0005600Y0061750D01*
X0005600Y0061151D02*
X0007827Y0061151D01*
X0007827Y0060553D02*
X0005600Y0060553D01*
X0005600Y0059954D02*
X0007827Y0059954D01*
X0007827Y0059356D02*
X0005600Y0059356D01*
X0005600Y0058757D02*
X0007827Y0058757D01*
X0007977Y0058159D02*
X0005600Y0058159D01*
X0005600Y0057560D02*
X0008225Y0057560D01*
X0008473Y0056962D02*
X0005600Y0056962D01*
X0005600Y0056363D02*
X0008721Y0056363D01*
X0008968Y0055765D02*
X0005600Y0055765D01*
X0005600Y0055166D02*
X0009216Y0055166D01*
X0009795Y0054568D02*
X0005600Y0054568D01*
X0005600Y0053969D02*
X0010393Y0053969D01*
X0010992Y0053370D02*
X0005600Y0053370D01*
X0005600Y0052772D02*
X0011590Y0052772D01*
X0012704Y0052173D02*
X0005600Y0052173D01*
X0005600Y0051575D02*
X0014149Y0051575D01*
X0019947Y0051575D02*
X0044925Y0051575D01*
X0044580Y0052173D02*
X0021392Y0052173D01*
X0022506Y0052772D02*
X0044234Y0052772D01*
X0044051Y0053370D02*
X0023104Y0053370D01*
X0023703Y0053969D02*
X0043891Y0053969D01*
X0043731Y0054568D02*
X0024301Y0054568D01*
X0024880Y0055166D02*
X0043570Y0055166D01*
X0043410Y0055765D02*
X0025128Y0055765D01*
X0025375Y0056363D02*
X0043249Y0056363D01*
X0043089Y0056962D02*
X0025623Y0056962D01*
X0025871Y0057560D02*
X0042929Y0057560D01*
X0042866Y0058159D02*
X0026119Y0058159D01*
X0026269Y0058757D02*
X0042866Y0058757D01*
X0042866Y0059356D02*
X0026269Y0059356D01*
X0026269Y0059954D02*
X0042866Y0059954D01*
X0042866Y0060553D02*
X0026269Y0060553D01*
X0026269Y0061151D02*
X0042866Y0061151D01*
X0042866Y0061750D02*
X0026269Y0061750D01*
X0026203Y0062348D02*
X0042866Y0062348D01*
X0042874Y0062947D02*
X0025956Y0062947D01*
X0025708Y0063545D02*
X0043035Y0063545D01*
X0043195Y0064144D02*
X0025460Y0064144D01*
X0025212Y0064742D02*
X0043355Y0064742D01*
X0043516Y0065341D02*
X0024964Y0065341D01*
X0024505Y0065939D02*
X0043676Y0065939D01*
X0043836Y0066538D02*
X0023906Y0066538D01*
X0023308Y0067136D02*
X0043997Y0067136D01*
X0044157Y0067735D02*
X0022709Y0067735D01*
X0021883Y0068333D02*
X0044462Y0068333D01*
X0044808Y0068932D02*
X0020438Y0068932D01*
X0018993Y0069530D02*
X0045153Y0069530D01*
X0045271Y0050976D02*
X0005600Y0050976D01*
X0005600Y0050378D02*
X0045616Y0050378D01*
X0045962Y0049779D02*
X0005600Y0049779D01*
X0005600Y0049181D02*
X0046307Y0049181D01*
X0046653Y0048582D02*
X0005600Y0048582D01*
X0005600Y0047984D02*
X0047178Y0047984D01*
X0047776Y0047385D02*
X0005600Y0047385D01*
X0005600Y0046787D02*
X0048375Y0046787D01*
X0048973Y0046188D02*
X0005600Y0046188D01*
X0005600Y0045590D02*
X0049572Y0045590D01*
X0050170Y0044991D02*
X0005600Y0044991D01*
X0005600Y0044393D02*
X0051056Y0044393D01*
X0052093Y0043794D02*
X0005600Y0043794D01*
X0005600Y0043196D02*
X0053129Y0043196D01*
X0054166Y0042597D02*
X0005600Y0042597D01*
X0005600Y0041999D02*
X0055653Y0041999D01*
X0057886Y0041400D02*
X0005600Y0041400D01*
X0005600Y0025240D02*
X0058006Y0025240D01*
X0056877Y0024642D02*
X0005600Y0024642D01*
X0005600Y0024043D02*
X0056278Y0024043D01*
X0055680Y0023445D02*
X0005600Y0023445D01*
X0005600Y0022846D02*
X0055081Y0022846D01*
X0054496Y0022248D02*
X0005600Y0022248D01*
X0005600Y0021649D02*
X0054249Y0021649D01*
X0054001Y0021051D02*
X0005600Y0021051D01*
X0005600Y0020452D02*
X0053753Y0020452D01*
X0053505Y0019854D02*
X0005600Y0019854D01*
X0005600Y0019255D02*
X0053257Y0019255D01*
X0053102Y0018657D02*
X0005600Y0018657D01*
X0005600Y0018058D02*
X0053102Y0018058D01*
X0053102Y0017460D02*
X0005600Y0017460D01*
X0005600Y0016861D02*
X0053102Y0016861D01*
X0053102Y0016263D02*
X0005600Y0016263D01*
X0005600Y0015664D02*
X0053102Y0015664D01*
X0053164Y0015066D02*
X0005600Y0015066D01*
X0005600Y0014467D02*
X0053412Y0014467D01*
X0053659Y0013869D02*
X0005600Y0013869D01*
X0005600Y0013270D02*
X0053907Y0013270D01*
X0054155Y0012672D02*
X0005600Y0012672D01*
X0005600Y0012073D02*
X0054403Y0012073D01*
X0054856Y0011475D02*
X0005600Y0011475D01*
X0005600Y0010876D02*
X0055455Y0010876D01*
X0056053Y0010278D02*
X0005600Y0010278D01*
X0005600Y0009679D02*
X0056652Y0009679D01*
X0057462Y0009081D02*
X0005600Y0009081D01*
X0005600Y0008482D02*
X0058907Y0008482D01*
X0060352Y0007884D02*
X0005600Y0007884D01*
D11*
X0090700Y0076300D03*
X0092500Y0094300D03*
X0091300Y0106900D03*
X0100300Y0106900D03*
X0096100Y0052900D03*
X0094900Y0022300D03*
M02*
