%
M48
M72
T01C0.01378
T02C0.13000
%
T01
X31900Y56380
X36122Y56380
X32604Y76783
X32604Y86632
X32604Y196385
X17126Y216788
X32604Y226637
X31900Y236487
X70379Y230161
X79038Y236487
X92405Y256890
X98737Y242115
X102255Y250558
X102255Y259000
X112808Y261111
X102255Y276589
X102255Y280810
X102255Y285031
X114918Y282217
X126879Y249151
X138839Y269554
X144467Y259704
X157427Y251579
X159945Y269554
X162759Y279403
X164166Y269554
X175423Y280810
X178941Y272368
X176127Y261815
X189494Y249854
X207083Y256186
X210600Y258297
X221857Y271664
X226078Y271664
X233817Y239301
X237335Y234376
X241556Y232969
X238742Y225934
X238742Y218898
X245777Y224527
X251406Y211159
X243667Y199199
X241556Y205531
X237335Y201310
X237335Y197089
X233114Y174575
X257738Y185128
X267587Y183018
X273919Y176686
X266180Y223120
X268994Y232969
X268291Y244226
X282362Y236487
X282362Y226637
X292915Y246337
X271105Y270961
X261959Y271664
X217636Y310359
X207083Y310359
X206379Y320209
X214822Y331465
X200751Y396895
X212007Y401116
X217636Y411669
X214822Y425740
X208490Y458807
X178941Y472174
X158538Y477802
X145874Y456696
X148688Y450364
X145874Y439811
X137432Y431369
X137432Y415891
X137432Y408152
X118436Y395488
X115622Y386342
X111401Y387045
X112808Y374381
X100848Y384231
X98033Y381417
X95219Y371567
X98737Y362421
X98737Y358200
X111401Y332169
X117029Y351165
X126879Y341315
X131803Y351868
X138135Y351165
X152427Y351579
X155724Y346943
X168388Y351165
X177534Y372974
X179644Y380713
X172609Y382120
X175423Y391267
X165573Y380713
X157131Y385638
X165573Y417298
X159945Y427147
X128286Y459510
X141653Y490466
X137427Y496579
X155724Y560117
X212007Y536900
X227485Y546750
X233114Y536196
X226782Y516497
X234521Y414483
X237335Y411669
X241556Y407448
X245777Y403227
X271105Y373678
X294322Y396895
X294322Y401116
X278140Y486245
X280955Y506648
X283065Y546750
X283065Y556599
X181051Y320912
X162056Y289956
X152910Y299806
X150096Y309656
X147281Y299806
X136728Y289956
X159945Y320209
X160649Y222416
X171905Y188646
X176127Y188646
X178941Y183018
X178941Y204124
X169091Y161208
X171905Y121809
X166981Y116181
X140246Y146433
X131954Y140476
X123923Y148508
X132507Y163319
X114918Y200606
X96626Y186535
X92405Y196385
X112808Y166133
X137427Y221579
X71718Y287720
X32604Y361718
X32604Y371567
X31900Y381417
X37529Y391267
X74113Y421519
X100848Y415891
X98737Y399006
X99440Y394081
X82427Y476579
X90294Y486245
X90294Y556599
X38936Y539714
X32604Y546750
X38936Y529865
X31900Y516497
X222561Y86632
X222561Y76783
X241556Y74672
X245777Y74672
X254923Y50752
X276733Y46530
X282362Y86632
X277437Y96482
X292915Y117588
X204972Y24720
X121250Y64119
X98737Y41606
T02
X16096Y14224
X287427Y14906
X287427Y606579
X17427Y606579
M30
