  0
SECTION
  2
HEADER
  9
$ACADVER
  1
AC1009
  9
$FILLMODE
 70
1
  9
$EXTMIN
 10
2.3030
 20
1.8980
 30
0.0000
  9
$EXTMAX
 10
78.5870
 20
159.5050
 30
0.0000
  0
ENDSEC
  0
SECTION
  2
TABLES
  0
TABLE
  2
LTYPE
 70
1
  0
LTYPE
  2
CONTINUOUS
 70
64
  3
Solid line
 72
65
 73
0
 40
0
  0
ENDTAB
  0
TABLE
  2
LAYER
 70
255
  0
LAYER
  2
1
 70
64
 62
12
  6
CONTINUOUS
  0
LAYER
  2
16
 70
64
 62
132
  6
CONTINUOUS
  0
LAYER
  2
17
 70
64
 62
110
  6
CONTINUOUS
  0
LAYER
  2
18
 70
64
 62
110
  6
CONTINUOUS
  0
LAYER
  2
19
 70
64
 62
53
  6
CONTINUOUS
  0
LAYER
  2
20
 70
64
 62
31
  6
CONTINUOUS
  0
LAYER
  2
21
 70
64
 62
253
  6
CONTINUOUS
  0
LAYER
  2
22
 70
64
 62
253
  6
CONTINUOUS
  0
LAYER
  2
23
 70
64
 62
53
  6
CONTINUOUS
  0
LAYER
  2
24
 70
64
 62
53
  6
CONTINUOUS
  0
LAYER
  2
25
 70
64
 62
253
  6
CONTINUOUS
  0
LAYER
  2
26
 70
64
 62
253
  6
CONTINUOUS
  0
LAYER
  2
27
 70
64
 62
253
  6
CONTINUOUS
  0
LAYER
  2
28
 70
64
 62
253
  6
CONTINUOUS
  0
LAYER
  2
39
 70
64
 62
12
  6
CONTINUOUS
  0
LAYER
  2
40
 70
64
 62
132
  6
CONTINUOUS
  0
LAYER
  2
41
 70
64
 62
12
  6
CONTINUOUS
  0
LAYER
  2
42
 70
64
 62
132
  6
CONTINUOUS
  0
LAYER
  2
43
 70
64
 62
110
  6
CONTINUOUS
  0
LAYER
  2
48
 70
64
 62
253
  6
CONTINUOUS
  0
LAYER
  2
49
 70
64
 62
253
  6
CONTINUOUS
  0
LAYER
  2
51
 70
64
 62
253
  6
CONTINUOUS
  0
LAYER
  2
52
 70
64
 62
253
  6
CONTINUOUS
  0
LAYER
  2
101
 70
64
 62
1
  6
CONTINUOUS
  0
LAYER
  2
102
 70
64
 62
253
  6
CONTINUOUS
  0
LAYER
  2
103
 70
64
 62
253
  6
CONTINUOUS
  0
LAYER
  2
104
 70
64
 62
41
  6
CONTINUOUS
  0
LAYER
  2
105
 70
64
 62
253
  6
CONTINUOUS
  0
LAYER
  2
106
 70
64
 62
253
  6
CONTINUOUS
  0
LAYER
  2
107
 70
64
 62
253
  6
CONTINUOUS
  0
LAYER
  2
108
 70
64
 62
3
  6
CONTINUOUS
  0
LAYER
  2
109
 70
64
 62
4
  6
CONTINUOUS
  0
LAYER
  2
110
 70
64
 62
253
  6
CONTINUOUS
  0
LAYER
  2
111
 70
64
 62
253
  6
CONTINUOUS
  0
LAYER
  2
112
 70
64
 62
253
  6
CONTINUOUS
  0
LAYER
  2
113
 70
64
 62
253
  6
CONTINUOUS
  0
LAYER
  2
115
 70
64
 62
253
  6
CONTINUOUS
  0
LAYER
  2
116
 70
64
 62
5
  6
CONTINUOUS
  0
LAYER
  2
118
 70
64
 62
253
  6
CONTINUOUS
  0
LAYER
  2
121
 70
64
 62
253
  6
CONTINUOUS
  0
LAYER
  2
122
 70
64
 62
253
  6
CONTINUOUS
  0
LAYER
  2
123
 70
64
 62
253
  6
CONTINUOUS
  0
LAYER
  2
124
 70
64
 62
253
  6
CONTINUOUS
  0
LAYER
  2
125
 70
64
 62
253
  6
CONTINUOUS
  0
LAYER
  2
126
 70
64
 62
253
  6
CONTINUOUS
  0
LAYER
  2
127
 70
64
 62
253
  6
CONTINUOUS
  0
LAYER
  2
128
 70
64
 62
253
  6
CONTINUOUS
  0
LAYER
  2
129
 70
64
 62
253
  6
CONTINUOUS
  0
LAYER
  2
131
 70
64
 62
253
  6
CONTINUOUS
  0
LAYER
  2
132
 70
64
 62
253
  6
CONTINUOUS
  0
LAYER
  2
144
 70
64
 62
253
  6
CONTINUOUS
  0
LAYER
  2
150
 70
64
 62
253
  6
CONTINUOUS
  0
LAYER
  2
151
 70
64
 62
253
  6
CONTINUOUS
  0
LAYER
  2
152
 70
64
 62
253
  6
CONTINUOUS
  0
LAYER
  2
153
 70
64
 62
253
  6
CONTINUOUS
  0
LAYER
  2
154
 70
64
 62
253
  6
CONTINUOUS
  0
LAYER
  2
155
 70
64
 62
253
  6
CONTINUOUS
  0
LAYER
  2
199
 70
64
 62
253
  6
CONTINUOUS
  0
LAYER
  2
200
 70
64
 62
132
  6
CONTINUOUS
  0
LAYER
  2
201
 70
64
 62
110
  6
CONTINUOUS
  0
LAYER
  2
202
 70
64
 62
140
  6
CONTINUOUS
  0
LAYER
  2
203
 70
64
 62
12
  6
CONTINUOUS
  0
LAYER
  2
204
 70
64
 62
40
  6
CONTINUOUS
  0
LAYER
  2
205
 70
64
 62
53
  6
CONTINUOUS
  0
LAYER
  2
206
 70
64
 62
253
  6
CONTINUOUS
  0
LAYER
  2
207
 70
64
 62
59
  6
CONTINUOUS
  0
LAYER
  2
208
 70
64
 62
5
  6
CONTINUOUS
  0
LAYER
  2
209
 70
64
 62
253
  6
CONTINUOUS
  0
LAYER
  2
210
 70
64
 62
253
  6
CONTINUOUS
  0
LAYER
  2
211
 70
64
 62
253
  6
CONTINUOUS
  0
LAYER
  2
212
 70
64
 62
253
  6
CONTINUOUS
  0
LAYER
  2
213
 70
64
 62
253
  6
CONTINUOUS
  0
LAYER
  2
214
 70
64
 62
253
  6
CONTINUOUS
  0
LAYER
  2
215
 70
64
 62
253
  6
CONTINUOUS
  0
LAYER
  2
216
 70
64
 62
253
  6
CONTINUOUS
  0
LAYER
  2
225
 70
64
 62
253
  6
CONTINUOUS
  0
LAYER
  2
226
 70
64
 62
253
  6
CONTINUOUS
  0
LAYER
  2
227
 70
64
 62
253
  6
CONTINUOUS
  0
LAYER
  2
228
 70
64
 62
253
  6
CONTINUOUS
  0
LAYER
  2
229
 70
64
 62
253
  6
CONTINUOUS
  0
LAYER
  2
230
 70
64
 62
253
  6
CONTINUOUS
  0
LAYER
  2
231
 70
64
 62
253
  6
CONTINUOUS
  0
LAYER
  2
248
 70
64
 62
253
  6
CONTINUOUS
  0
LAYER
  2
249
 70
64
 62
253
  6
CONTINUOUS
  0
LAYER
  2
254
 70
64
 62
253
  6
CONTINUOUS
  0
LAYER
  2
255
 70
64
 62
253
  6
CONTINUOUS
  0
ENDTAB
  0
ENDSEC
  0
SECTION
  2
BLOCKS
  0
BLOCK
  8
0
  2
RECT
 70
64
 10
0.0000
 20
0.0000
 30
0.0000
  3
RECT
  0
SOLID
  8
0
 10
-0.5000
 20
-0.5000
 30
0.0000
 11
0.5000
 21
-0.5000
 31
0.0000
 12
-0.5000
 22
0.5000
 32
0.0000
 13
0.5000
 23
0.5000
 33
0.0000
  0
ENDBLK
  8
0
  0
BLOCK
  8
0
  2
PIE
 70
64
 10
0.0000
 20
0.0000
 30
0.0000
  3
PIE
  0
POLYLINE
  8
0
 66
1
 10
0.0000
 20
0.0000
 30
0.0000
 40
0.5000
 41
0.5000
 70
0
  0
VERTEX
  8
0
 10
0.0000
 20
-0.2500
 30
0.0000
 42
1.0000
  0
VERTEX
  8
0
 10
0.0000
 20
0.2500
 30
0.0000
 42
1.0000
  0
VERTEX
  8
0
 10
0.0000
 20
-0.2500
 30
0.0000
  0
SEQEND
  8
0
  0
ENDBLK
  8
0
  0
BLOCK
  8
0
  2
OCTAGONP
 70
64
 10
0.0000
 20
0.0000
 30
0.0000
  3
OCTAGONP
  0
POLYLINE
  8
0
 66
1
 10
0.0000
 20
0.0000
 30
0.0000
 40
0.5000
 41
0.5000
 70
0
  0
VERTEX
  8
0
 10
-0.2500
 20
-0.1036
 30
0.0000
  0
VERTEX
  8
0
 10
-0.2500
 20
0.1036
 30
0.0000
  0
VERTEX
  8
0
 10
-0.1036
 20
0.2500
 30
0.0000
  0
VERTEX
  8
0
 10
0.1036
 20
0.2500
 30
0.0000
  0
VERTEX
  8
0
 10
0.2500
 20
0.1036
 30
0.0000
  0
VERTEX
  8
0
 10
0.2500
 20
-0.1036
 30
0.0000
  0
VERTEX
  8
0
 10
0.1036
 20
-0.2500
 30
0.0000
  0
VERTEX
  8
0
 10
-0.1036
 20
-0.2500
 30
0.0000
  0
VERTEX
  8
0
 10
-0.2500
 20
-0.1036
 30
0.0000
  0
VERTEX
  8
0
 10
-0.2500
 20
0.1036
 30
0.0000
  0
SEQEND
  8
0
  0
ENDBLK
  8
0
  0
BLOCK
  8
0
  2
SQUAREP
 70
64
 10
0.0000
 20
0.0000
 30
0.0000
  3
SQUAREP
  0
SOLID
  8
0
 10
-0.5000
 20
-0.5000
 30
0.0000
 11
0.5000
 21
-0.5000
 31
0.0000
 12
-0.5000
 22
0.5000
 32
0.0000
 13
0.5000
 23
0.5000
 33
0.0000
  0
ENDBLK
  8
0
  0
BLOCK
  8
0
  2
ROUNDP
 70
64
 10
0.0000
 20
0.0000
 30
0.0000
  3
ROUNDP
  0
POLYLINE
  8
0
 66
1
 10
0.0000
 20
0.0000
 30
0.0000
 40
0.5000
 41
0.5000
 70
0
  0
VERTEX
  8
0
 10
0.0000
 20
-0.2500
 30
0.0000
 42
1.0000
  0
VERTEX
  8
0
 10
0.0000
 20
0.2500
 30
0.0000
 42
1.0000
  0
VERTEX
  8
0
 10
0.0000
 20
-0.2500
 30
0.0000
  0
SEQEND
  8
0
  0
ENDBLK
  8
0
  0
BLOCK
  8
0
  2
ANNULUSP
 70
64
 10
0.0000
 20
0.0000
 30
0.0000
  3
ANNULUSP
  0
POLYLINE
  8
0
 66
1
 10
0.0000
 20
0.0000
 30
0.0000
 40
0.5000
 41
0.5000
 70
0
  0
VERTEX
  8
0
 10
0.0000
 20
-0.2500
 30
0.0000
 42
1.0000
  0
VERTEX
  8
0
 10
0.0000
 20
0.2500
 30
0.0000
 42
1.0000
  0
VERTEX
  8
0
 10
0.0000
 20
-0.2500
 30
0.0000
  0
SEQEND
  8
0
  0
ENDBLK
  8
0
  0
BLOCK
  8
0
  2
THERMALP
 70
64
 10
0.0000
 20
0.0000
 30
0.0000
  3
THERMALP
  0
POLYLINE
  8
0
 66
1
 10
0.0000
 20
0.0000
 30
0.0000
 40
0.1000
 41
0.1000
 70
0
  0
VERTEX
  8
0
 10
-0.2379
 20
0.4500
 30
0.0000
  0
VERTEX
  8
0
 10
0.2379
 20
0.4500
 30
0.0000
  0
SEQEND
  8
0
  0
POLYLINE
  8
0
 66
1
 10
0.0000
 20
0.0000
 30
0.0000
 40
0.0500
 41
0.0500
 70
0
  0
VERTEX
  8
0
 10
0.2379
 20
0.4250
 30
0.0000
 42
1.0000
  0
VERTEX
  8
0
 10
0.2379
 20
0.4750
 30
0.0000
  0
SEQEND
  8
0
  0
POLYLINE
  8
0
 66
1
 10
0.0000
 20
0.0000
 30
0.0000
 40
0.0500
 41
0.0500
 70
0
  0
VERTEX
  8
0
 10
-0.2379
 20
0.4750
 30
0.0000
 42
1.0000
  0
VERTEX
  8
0
 10
-0.2379
 20
0.4250
 30
0.0000
  0
SEQEND
  8
0
  0
POLYLINE
  8
0
 66
1
 10
0.0000
 20
0.0000
 30
0.0000
 40
0.1000
 41
0.1000
 70
0
  0
VERTEX
  8
0
 10
0.4500
 20
0.2379
 30
0.0000
  0
VERTEX
  8
0
 10
0.4500
 20
-0.2379
 30
0.0000
  0
SEQEND
  8
0
  0
POLYLINE
  8
0
 66
1
 10
0.0000
 20
0.0000
 30
0.0000
 40
0.0500
 41
0.0500
 70
0
  0
VERTEX
  8
0
 10
0.4250
 20
-0.2379
 30
0.0000
 42
1.0000
  0
VERTEX
  8
0
 10
0.4750
 20
-0.2379
 30
0.0000
  0
SEQEND
  8
0
  0
POLYLINE
  8
0
 66
1
 10
0.0000
 20
0.0000
 30
0.0000
 40
0.0500
 41
0.0500
 70
0
  0
VERTEX
  8
0
 10
0.4750
 20
0.2379
 30
0.0000
 42
1.0000
  0
VERTEX
  8
0
 10
0.4250
 20
0.2379
 30
0.0000
  0
SEQEND
  8
0
  0
POLYLINE
  8
0
 66
1
 10
0.0000
 20
0.0000
 30
0.0000
 40
0.1000
 41
0.1000
 70
0
  0
VERTEX
  8
0
 10
0.2379
 20
-0.4500
 30
0.0000
  0
VERTEX
  8
0
 10
-0.2379
 20
-0.4500
 30
0.0000
  0
SEQEND
  8
0
  0
POLYLINE
  8
0
 66
1
 10
0.0000
 20
0.0000
 30
0.0000
 40
0.0500
 41
0.0500
 70
0
  0
VERTEX
  8
0
 10
-0.2379
 20
-0.4250
 30
0.0000
 42
1.0000
  0
VERTEX
  8
0
 10
-0.2379
 20
-0.4750
 30
0.0000
  0
SEQEND
  8
0
  0
POLYLINE
  8
0
 66
1
 10
0.0000
 20
0.0000
 30
0.0000
 40
0.0500
 41
0.0500
 70
0
  0
VERTEX
  8
0
 10
0.2379
 20
-0.4750
 30
0.0000
 42
1.0000
  0
VERTEX
  8
0
 10
0.2379
 20
-0.4250
 30
0.0000
  0
SEQEND
  8
0
  0
POLYLINE
  8
0
 66
1
 10
0.0000
 20
0.0000
 30
0.0000
 40
0.1000
 41
0.1000
 70
0
  0
VERTEX
  8
0
 10
-0.4500
 20
-0.2379
 30
0.0000
  0
VERTEX
  8
0
 10
-0.4500
 20
0.2379
 30
0.0000
  0
SEQEND
  8
0
  0
POLYLINE
  8
0
 66
1
 10
0.0000
 20
0.0000
 30
0.0000
 40
0.0500
 41
0.0500
 70
0
  0
VERTEX
  8
0
 10
-0.4250
 20
0.2379
 30
0.0000
 42
1.0000
  0
VERTEX
  8
0
 10
-0.4750
 20
0.2379
 30
0.0000
  0
SEQEND
  8
0
  0
POLYLINE
  8
0
 66
1
 10
0.0000
 20
0.0000
 30
0.0000
 40
0.0500
 41
0.0500
 70
0
  0
VERTEX
  8
0
 10
-0.4750
 20
-0.2379
 30
0.0000
 42
1.0000
  0
VERTEX
  8
0
 10
-0.4250
 20
-0.2379
 30
0.0000
  0
SEQEND
  8
0
  0
ENDBLK
  8
0
  0
BLOCK
  8
0
  2
OCTAGONV
 70
64
 10
0.0000
 20
0.0000
 30
0.0000
  3
OCTAGONV
  0
POLYLINE
  8
0
 66
1
 10
0.0000
 20
0.0000
 30
0.0000
 40
0.5000
 41
0.5000
 70
0
  0
VERTEX
  8
0
 10
-0.2500
 20
-0.1036
 30
0.0000
  0
VERTEX
  8
0
 10
-0.2500
 20
0.1036
 30
0.0000
  0
VERTEX
  8
0
 10
-0.1036
 20
0.2500
 30
0.0000
  0
VERTEX
  8
0
 10
0.1036
 20
0.2500
 30
0.0000
  0
VERTEX
  8
0
 10
0.2500
 20
0.1036
 30
0.0000
  0
VERTEX
  8
0
 10
0.2500
 20
-0.1036
 30
0.0000
  0
VERTEX
  8
0
 10
0.1036
 20
-0.2500
 30
0.0000
  0
VERTEX
  8
0
 10
-0.1036
 20
-0.2500
 30
0.0000
  0
VERTEX
  8
0
 10
-0.2500
 20
-0.1036
 30
0.0000
  0
VERTEX
  8
0
 10
-0.2500
 20
0.1036
 30
0.0000
  0
SEQEND
  8
0
  0
ENDBLK
  8
0
  0
BLOCK
  8
0
  2
SQUAREV
 70
64
 10
0.0000
 20
0.0000
 30
0.0000
  3
SQUAREV
  0
SOLID
  8
0
 10
-0.5000
 20
-0.5000
 30
0.0000
 11
0.5000
 21
-0.5000
 31
0.0000
 12
-0.5000
 22
0.5000
 32
0.0000
 13
0.5000
 23
0.5000
 33
0.0000
  0
ENDBLK
  8
0
  0
BLOCK
  8
0
  2
ROUNDV
 70
64
 10
0.0000
 20
0.0000
 30
0.0000
  3
ROUNDV
  0
POLYLINE
  8
0
 66
1
 10
0.0000
 20
0.0000
 30
0.0000
 40
0.5000
 41
0.5000
 70
0
  0
VERTEX
  8
0
 10
0.0000
 20
-0.2500
 30
0.0000
 42
1.0000
  0
VERTEX
  8
0
 10
0.0000
 20
0.2500
 30
0.0000
 42
1.0000
  0
VERTEX
  8
0
 10
0.0000
 20
-0.2500
 30
0.0000
  0
SEQEND
  8
0
  0
ENDBLK
  8
0
  0
BLOCK
  8
0
  2
ANNULUSV
 70
64
 10
0.0000
 20
0.0000
 30
0.0000
  3
ANNULUSV
  0
POLYLINE
  8
0
 66
1
 10
0.0000
 20
0.0000
 30
0.0000
 40
0.5000
 41
0.5000
 70
0
  0
VERTEX
  8
0
 10
0.0000
 20
-0.2500
 30
0.0000
 42
1.0000
  0
VERTEX
  8
0
 10
0.0000
 20
0.2500
 30
0.0000
 42
1.0000
  0
VERTEX
  8
0
 10
0.0000
 20
-0.2500
 30
0.0000
  0
SEQEND
  8
0
  0
ENDBLK
  8
0
  0
BLOCK
  8
0
  2
THERMALV
 70
64
 10
0.0000
 20
0.0000
 30
0.0000
  3
THERMALV
  0
POLYLINE
  8
0
 66
1
 10
0.0000
 20
0.0000
 30
0.0000
 40
0.1000
 41
0.1000
 70
0
  0
VERTEX
  8
0
 10
-0.2379
 20
0.4500
 30
0.0000
  0
VERTEX
  8
0
 10
0.2379
 20
0.4500
 30
0.0000
  0
SEQEND
  8
0
  0
POLYLINE
  8
0
 66
1
 10
0.0000
 20
0.0000
 30
0.0000
 40
0.0500
 41
0.0500
 70
0
  0
VERTEX
  8
0
 10
0.2379
 20
0.4250
 30
0.0000
 42
1.0000
  0
VERTEX
  8
0
 10
0.2379
 20
0.4750
 30
0.0000
  0
SEQEND
  8
0
  0
POLYLINE
  8
0
 66
1
 10
0.0000
 20
0.0000
 30
0.0000
 40
0.0500
 41
0.0500
 70
0
  0
VERTEX
  8
0
 10
-0.2379
 20
0.4750
 30
0.0000
 42
1.0000
  0
VERTEX
  8
0
 10
-0.2379
 20
0.4250
 30
0.0000
  0
SEQEND
  8
0
  0
POLYLINE
  8
0
 66
1
 10
0.0000
 20
0.0000
 30
0.0000
 40
0.1000
 41
0.1000
 70
0
  0
VERTEX
  8
0
 10
0.4500
 20
0.2379
 30
0.0000
  0
VERTEX
  8
0
 10
0.4500
 20
-0.2379
 30
0.0000
  0
SEQEND
  8
0
  0
POLYLINE
  8
0
 66
1
 10
0.0000
 20
0.0000
 30
0.0000
 40
0.0500
 41
0.0500
 70
0
  0
VERTEX
  8
0
 10
0.4250
 20
-0.2379
 30
0.0000
 42
1.0000
  0
VERTEX
  8
0
 10
0.4750
 20
-0.2379
 30
0.0000
  0
SEQEND
  8
0
  0
POLYLINE
  8
0
 66
1
 10
0.0000
 20
0.0000
 30
0.0000
 40
0.0500
 41
0.0500
 70
0
  0
VERTEX
  8
0
 10
0.4750
 20
0.2379
 30
0.0000
 42
1.0000
  0
VERTEX
  8
0
 10
0.4250
 20
0.2379
 30
0.0000
  0
SEQEND
  8
0
  0
POLYLINE
  8
0
 66
1
 10
0.0000
 20
0.0000
 30
0.0000
 40
0.1000
 41
0.1000
 70
0
  0
VERTEX
  8
0
 10
0.2379
 20
-0.4500
 30
0.0000
  0
VERTEX
  8
0
 10
-0.2379
 20
-0.4500
 30
0.0000
  0
SEQEND
  8
0
  0
POLYLINE
  8
0
 66
1
 10
0.0000
 20
0.0000
 30
0.0000
 40
0.0500
 41
0.0500
 70
0
  0
VERTEX
  8
0
 10
-0.2379
 20
-0.4250
 30
0.0000
 42
1.0000
  0
VERTEX
  8
0
 10
-0.2379
 20
-0.4750
 30
0.0000
  0
SEQEND
  8
0
  0
POLYLINE
  8
0
 66
1
 10
0.0000
 20
0.0000
 30
0.0000
 40
0.0500
 41
0.0500
 70
0
  0
VERTEX
  8
0
 10
0.2379
 20
-0.4750
 30
0.0000
 42
1.0000
  0
VERTEX
  8
0
 10
0.2379
 20
-0.4250
 30
0.0000
  0
SEQEND
  8
0
  0
POLYLINE
  8
0
 66
1
 10
0.0000
 20
0.0000
 30
0.0000
 40
0.1000
 41
0.1000
 70
0
  0
VERTEX
  8
0
 10
-0.4500
 20
-0.2379
 30
0.0000
  0
VERTEX
  8
0
 10
-0.4500
 20
0.2379
 30
0.0000
  0
SEQEND
  8
0
  0
POLYLINE
  8
0
 66
1
 10
0.0000
 20
0.0000
 30
0.0000
 40
0.0500
 41
0.0500
 70
0
  0
VERTEX
  8
0
 10
-0.4250
 20
0.2379
 30
0.0000
 42
1.0000
  0
VERTEX
  8
0
 10
-0.4750
 20
0.2379
 30
0.0000
  0
SEQEND
  8
0
  0
POLYLINE
  8
0
 66
1
 10
0.0000
 20
0.0000
 30
0.0000
 40
0.0500
 41
0.0500
 70
0
  0
VERTEX
  8
0
 10
-0.4750
 20
-0.2379
 30
0.0000
 42
1.0000
  0
VERTEX
  8
0
 10
-0.4250
 20
-0.2379
 30
0.0000
  0
SEQEND
  8
0
  0
ENDBLK
  8
0
  0
ENDSEC
  0
SECTION
  2
ENTITIES
  0
LINE
  8
20
 10
2.3030
 20
1.8980
 30
0.0000
 11
78.4930
 21
1.8980
 31
0.0000
  0
LINE
  8
20
 10
78.4930
 20
1.8980
 30
0.0000
 11
78.5870
 21
159.5050
 31
0.0000
  0
LINE
  8
20
 10
78.5870
 20
159.5050
 30
0.0000
 11
2.3970
 21
159.5050
 31
0.0000
  0
LINE
  8
20
 10
2.3970
 20
159.5050
 30
0.0000
 11
2.3030
 21
1.8980
 31
0.0000
  0
LINE
  8
51
 10
5.5201
 20
2.4653
 30
0.0000
 11
5.5281
 21
2.4653
 31
0.0000
  0
ARC
  8
51
 10
5.5281
 20
2.4693
 30
0.0000
 40
0.0040
 50
270.0000
 51
0.0000
  0
LINE
  8
51
 10
5.5321
 20
2.4693
 30
0.0000
 11
5.5321
 21
2.4713
 31
0.0000
  0
ARC
  8
51
 10
5.5281
 20
2.4713
 30
0.0000
 40
0.0040
 50
0.0000
 51
90.0000
  0
LINE
  8
51
 10
5.5281
 20
2.4753
 30
0.0000
 11
5.5201
 21
2.4753
 31
0.0000
  0
ARC
  8
51
 10
5.5201
 20
2.4713
 30
0.0000
 40
0.0040
 50
90.0000
 51
180.0000
  0
LINE
  8
51
 10
5.5161
 20
2.4713
 30
0.0000
 11
5.5161
 21
2.4693
 31
0.0000
  0
ARC
  8
51
 10
5.5201
 20
2.4693
 30
0.0000
 40
0.0040
 50
180.0000
 51
270.0000
  0
LINE
  8
51
 10
5.4801
 20
2.4653
 30
0.0000
 11
5.4881
 21
2.4653
 31
0.0000
  0
ARC
  8
51
 10
5.4881
 20
2.4693
 30
0.0000
 40
0.0040
 50
270.0000
 51
0.0000
  0
LINE
  8
51
 10
5.4921
 20
2.4693
 30
0.0000
 11
5.4921
 21
2.4713
 31
0.0000
  0
ARC
  8
51
 10
5.4881
 20
2.4713
 30
0.0000
 40
0.0040
 50
0.0000
 51
90.0000
  0
LINE
  8
51
 10
5.4881
 20
2.4753
 30
0.0000
 11
5.4801
 21
2.4753
 31
0.0000
  0
ARC
  8
51
 10
5.4801
 20
2.4713
 30
0.0000
 40
0.0040
 50
90.0000
 51
180.0000
  0
LINE
  8
51
 10
5.4761
 20
2.4713
 30
0.0000
 11
5.4761
 21
2.4693
 31
0.0000
  0
ARC
  8
51
 10
5.4801
 20
2.4693
 30
0.0000
 40
0.0040
 50
180.0000
 51
270.0000
  0
LINE
  8
51
 10
5.4301
 20
2.5063
 30
0.0000
 11
5.5801
 21
2.5063
 31
0.0000
  0
LINE
  8
51
 10
5.5801
 20
2.5063
 30
0.0000
 11
5.5801
 21
2.4343
 31
0.0000
  0
LINE
  8
51
 10
5.5801
 20
2.4343
 30
0.0000
 11
5.4301
 21
2.4343
 31
0.0000
  0
LINE
  8
51
 10
5.4301
 20
2.4343
 30
0.0000
 11
5.4301
 21
2.5063
 31
0.0000
  0
POLYLINE
  8
51
 66
1
 10
0.0000
 20
0.0000
 30
0.0000
 40
0.0070
 41
0.0070
 70
0
  0
VERTEX
  8
51
 10
5.4441
 20
2.4868
 30
0.0000
 42
1.0000
  0
VERTEX
  8
51
 10
5.4441
 20
2.4938
 30
0.0000
 42
1.0000
  0
VERTEX
  8
51
 10
5.4441
 20
2.4868
 30
0.0000
  0
SEQEND
  8
0
  0
POLYLINE
  8
51
 66
1
 10
0.0000
 20
0.0000
 30
0.0000
 40
0.0070
 41
0.0070
 70
0
  0
VERTEX
  8
51
 10
5.4841
 20
2.4868
 30
0.0000
 42
1.0000
  0
VERTEX
  8
51
 10
5.4841
 20
2.4938
 30
0.0000
 42
1.0000
  0
VERTEX
  8
51
 10
5.4841
 20
2.4868
 30
0.0000
  0
SEQEND
  8
0
  0
POLYLINE
  8
51
 66
1
 10
0.0000
 20
0.0000
 30
0.0000
 40
0.0070
 41
0.0070
 70
0
  0
VERTEX
  8
51
 10
5.5241
 20
2.4868
 30
0.0000
 42
1.0000
  0
VERTEX
  8
51
 10
5.5241
 20
2.4938
 30
0.0000
 42
1.0000
  0
VERTEX
  8
51
 10
5.5241
 20
2.4868
 30
0.0000
  0
SEQEND
  8
0
  0
POLYLINE
  8
51
 66
1
 10
0.0000
 20
0.0000
 30
0.0000
 40
0.0070
 41
0.0070
 70
0
  0
VERTEX
  8
51
 10
5.5641
 20
2.4868
 30
0.0000
 42
1.0000
  0
VERTEX
  8
51
 10
5.5641
 20
2.4938
 30
0.0000
 42
1.0000
  0
VERTEX
  8
51
 10
5.5641
 20
2.4868
 30
0.0000
  0
SEQEND
  8
0
  0
POLYLINE
  8
51
 66
1
 10
0.0000
 20
0.0000
 30
0.0000
 40
0.0070
 41
0.0070
 70
0
  0
VERTEX
  8
51
 10
5.5641
 20
2.4468
 30
0.0000
 42
1.0000
  0
VERTEX
  8
51
 10
5.5641
 20
2.4538
 30
0.0000
 42
1.0000
  0
VERTEX
  8
51
 10
5.5641
 20
2.4468
 30
0.0000
  0
SEQEND
  8
0
  0
POLYLINE
  8
51
 66
1
 10
0.0000
 20
0.0000
 30
0.0000
 40
0.0070
 41
0.0070
 70
0
  0
VERTEX
  8
51
 10
5.5241
 20
2.4468
 30
0.0000
 42
1.0000
  0
VERTEX
  8
51
 10
5.5241
 20
2.4538
 30
0.0000
 42
1.0000
  0
VERTEX
  8
51
 10
5.5241
 20
2.4468
 30
0.0000
  0
SEQEND
  8
0
  0
POLYLINE
  8
51
 66
1
 10
0.0000
 20
0.0000
 30
0.0000
 40
0.0070
 41
0.0070
 70
0
  0
VERTEX
  8
51
 10
5.4841
 20
2.4468
 30
0.0000
 42
1.0000
  0
VERTEX
  8
51
 10
5.4841
 20
2.4538
 30
0.0000
 42
1.0000
  0
VERTEX
  8
51
 10
5.4841
 20
2.4468
 30
0.0000
  0
SEQEND
  8
0
  0
POLYLINE
  8
51
 66
1
 10
0.0000
 20
0.0000
 30
0.0000
 40
0.0070
 41
0.0070
 70
0
  0
VERTEX
  8
51
 10
5.4441
 20
2.4468
 30
0.0000
 42
1.0000
  0
VERTEX
  8
51
 10
5.4441
 20
2.4538
 30
0.0000
 42
1.0000
  0
VERTEX
  8
51
 10
5.4441
 20
2.4468
 30
0.0000
  0
SEQEND
  8
0
  0
POLYLINE
  8
51
 66
1
 10
0.0000
 20
0.0000
 30
0.0000
 40
0.0015
 41
0.0015
 70
0
  0
VERTEX
  8
51
 10
5.5641
 20
2.4695
 30
0.0000
 42
1.0000
  0
VERTEX
  8
51
 10
5.5641
 20
2.4710
 30
0.0000
 42
1.0000
  0
VERTEX
  8
51
 10
5.5641
 20
2.4695
 30
0.0000
  0
SEQEND
  8
0
  0
POLYLINE
  8
51
 66
1
 10
0.0000
 20
0.0000
 30
0.0000
 40
0.0015
 41
0.0015
 70
0
  0
VERTEX
  8
51
 10
5.5041
 20
2.4495
 30
0.0000
 42
1.0000
  0
VERTEX
  8
51
 10
5.5041
 20
2.4510
 30
0.0000
 42
1.0000
  0
VERTEX
  8
51
 10
5.5041
 20
2.4495
 30
0.0000
  0
SEQEND
  8
0
  0
POLYLINE
  8
51
 66
1
 10
0.0000
 20
0.0000
 30
0.0000
 40
0.0015
 41
0.0015
 70
0
  0
VERTEX
  8
51
 10
5.4441
 20
2.4695
 30
0.0000
 42
1.0000
  0
VERTEX
  8
51
 10
5.4441
 20
2.4710
 30
0.0000
 42
1.0000
  0
VERTEX
  8
51
 10
5.4441
 20
2.4695
 30
0.0000
  0
SEQEND
  8
0
  0
POINT
  8
23
 10
74.7870
 20
5.4300
 30
0.0000
  0
POLYLINE
  8
41
 66
1
 10
0.0000
 20
0.0000
 30
0.0000
 40
0.2032
 41
0.2032
 70
0
  0
VERTEX
  8
41
 10
74.7870
 20
3.5758
 30
0.0000
 42
1.0000
  0
VERTEX
  8
41
 10
74.7870
 20
7.2842
 30
0.0000
  0
SEQEND
  8
0
  0
POLYLINE
  8
41
 66
1
 10
0.0000
 20
0.0000
 30
0.0000
 40
0.1016
 41
0.1016
 70
0
  0
VERTEX
  8
41
 10
74.7870
 20
3.6266
 30
0.0000
 42
1.0000
  0
VERTEX
  8
41
 10
74.7870
 20
3.5250
 30
0.0000
  0
SEQEND
  8
0
  0
POLYLINE
  8
41
 66
1
 10
0.0000
 20
0.0000
 30
0.0000
 40
0.1016
 41
0.1016
 70
0
  0
VERTEX
  8
41
 10
74.7870
 20
7.3350
 30
0.0000
 42
1.0000
  0
VERTEX
  8
41
 10
74.7870
 20
7.2334
 30
0.0000
  0
SEQEND
  8
0
  0
POLYLINE
  8
41
 66
1
 10
0.0000
 20
0.0000
 30
0.0000
 40
0.2032
 41
0.2032
 70
0
  0
VERTEX
  8
41
 10
74.7870
 20
7.2842
 30
0.0000
 42
1.0000
  0
VERTEX
  8
41
 10
74.7870
 20
3.5758
 30
0.0000
  0
SEQEND
  8
0
  0
POLYLINE
  8
41
 66
1
 10
0.0000
 20
0.0000
 30
0.0000
 40
0.1016
 41
0.1016
 70
0
  0
VERTEX
  8
41
 10
74.7870
 20
7.2334
 30
0.0000
 42
1.0000
  0
VERTEX
  8
41
 10
74.7870
 20
7.3350
 30
0.0000
  0
SEQEND
  8
0
  0
POLYLINE
  8
41
 66
1
 10
0.0000
 20
0.0000
 30
0.0000
 40
0.1016
 41
0.1016
 70
0
  0
VERTEX
  8
41
 10
74.7870
 20
3.5250
 30
0.0000
 42
1.0000
  0
VERTEX
  8
41
 10
74.7870
 20
3.6266
 30
0.0000
  0
SEQEND
  8
0
  0
POLYLINE
  8
42
 66
1
 10
0.0000
 20
0.0000
 30
0.0000
 40
0.2032
 41
0.2032
 70
0
  0
VERTEX
  8
42
 10
74.7870
 20
3.5758
 30
0.0000
 42
1.0000
  0
VERTEX
  8
42
 10
74.7870
 20
7.2842
 30
0.0000
  0
SEQEND
  8
0
  0
POLYLINE
  8
42
 66
1
 10
0.0000
 20
0.0000
 30
0.0000
 40
0.1016
 41
0.1016
 70
0
  0
VERTEX
  8
42
 10
74.7870
 20
3.6266
 30
0.0000
 42
1.0000
  0
VERTEX
  8
42
 10
74.7870
 20
3.5250
 30
0.0000
  0
SEQEND
  8
0
  0
POLYLINE
  8
42
 66
1
 10
0.0000
 20
0.0000
 30
0.0000
 40
0.1016
 41
0.1016
 70
0
  0
VERTEX
  8
42
 10
74.7870
 20
7.3350
 30
0.0000
 42
1.0000
  0
VERTEX
  8
42
 10
74.7870
 20
7.2334
 30
0.0000
  0
SEQEND
  8
0
  0
POLYLINE
  8
42
 66
1
 10
0.0000
 20
0.0000
 30
0.0000
 40
0.2032
 41
0.2032
 70
0
  0
VERTEX
  8
42
 10
74.7870
 20
7.2842
 30
0.0000
 42
1.0000
  0
VERTEX
  8
42
 10
74.7870
 20
3.5758
 30
0.0000
  0
SEQEND
  8
0
  0
POLYLINE
  8
42
 66
1
 10
0.0000
 20
0.0000
 30
0.0000
 40
0.1016
 41
0.1016
 70
0
  0
VERTEX
  8
42
 10
74.7870
 20
7.2334
 30
0.0000
 42
1.0000
  0
VERTEX
  8
42
 10
74.7870
 20
7.3350
 30
0.0000
  0
SEQEND
  8
0
  0
POLYLINE
  8
42
 66
1
 10
0.0000
 20
0.0000
 30
0.0000
 40
0.1016
 41
0.1016
 70
0
  0
VERTEX
  8
42
 10
74.7870
 20
3.5250
 30
0.0000
 42
1.0000
  0
VERTEX
  8
42
 10
74.7870
 20
3.6266
 30
0.0000
  0
SEQEND
  8
0
  0
POLYLINE
  8
39
 66
1
 10
0.0000
 20
0.0000
 30
0.0000
 40
0.1270
 41
0.1270
 70
0
  0
VERTEX
  8
39
 10
74.7870
 20
2.6360
 30
0.0000
 42
1.0000
  0
VERTEX
  8
39
 10
74.7870
 20
8.2240
 30
0.0000
 42
1.0000
  0
VERTEX
  8
39
 10
74.7870
 20
2.6360
 30
0.0000
  0
SEQEND
  8
0
  0
CIRCLE
  8
20
 10
74.7870
 20
5.4300
 30
0.0000
 40
1.6510
  0
POINT
  8
23
 10
5.8690
 20
5.2570
 30
0.0000
  0
POLYLINE
  8
41
 66
1
 10
0.0000
 20
0.0000
 30
0.0000
 40
0.2032
 41
0.2032
 70
0
  0
VERTEX
  8
41
 10
5.8690
 20
3.4028
 30
0.0000
 42
1.0000
  0
VERTEX
  8
41
 10
5.8690
 20
7.1112
 30
0.0000
  0
SEQEND
  8
0
  0
POLYLINE
  8
41
 66
1
 10
0.0000
 20
0.0000
 30
0.0000
 40
0.1016
 41
0.1016
 70
0
  0
VERTEX
  8
41
 10
5.8690
 20
3.4536
 30
0.0000
 42
1.0000
  0
VERTEX
  8
41
 10
5.8690
 20
3.3520
 30
0.0000
  0
SEQEND
  8
0
  0
POLYLINE
  8
41
 66
1
 10
0.0000
 20
0.0000
 30
0.0000
 40
0.1016
 41
0.1016
 70
0
  0
VERTEX
  8
41
 10
5.8690
 20
7.1620
 30
0.0000
 42
1.0000
  0
VERTEX
  8
41
 10
5.8690
 20
7.0604
 30
0.0000
  0
SEQEND
  8
0
  0
POLYLINE
  8
41
 66
1
 10
0.0000
 20
0.0000
 30
0.0000
 40
0.2032
 41
0.2032
 70
0
  0
VERTEX
  8
41
 10
5.8690
 20
7.1112
 30
0.0000
 42
1.0000
  0
VERTEX
  8
41
 10
5.8690
 20
3.4028
 30
0.0000
  0
SEQEND
  8
0
  0
POLYLINE
  8
41
 66
1
 10
0.0000
 20
0.0000
 30
0.0000
 40
0.1016
 41
0.1016
 70
0
  0
VERTEX
  8
41
 10
5.8690
 20
7.0604
 30
0.0000
 42
1.0000
  0
VERTEX
  8
41
 10
5.8690
 20
7.1620
 30
0.0000
  0
SEQEND
  8
0
  0
POLYLINE
  8
41
 66
1
 10
0.0000
 20
0.0000
 30
0.0000
 40
0.1016
 41
0.1016
 70
0
  0
VERTEX
  8
41
 10
5.8690
 20
3.3520
 30
0.0000
 42
1.0000
  0
VERTEX
  8
41
 10
5.8690
 20
3.4536
 30
0.0000
  0
SEQEND
  8
0
  0
POLYLINE
  8
42
 66
1
 10
0.0000
 20
0.0000
 30
0.0000
 40
0.2032
 41
0.2032
 70
0
  0
VERTEX
  8
42
 10
5.8690
 20
3.4028
 30
0.0000
 42
1.0000
  0
VERTEX
  8
42
 10
5.8690
 20
7.1112
 30
0.0000
  0
SEQEND
  8
0
  0
POLYLINE
  8
42
 66
1
 10
0.0000
 20
0.0000
 30
0.0000
 40
0.1016
 41
0.1016
 70
0
  0
VERTEX
  8
42
 10
5.8690
 20
3.4536
 30
0.0000
 42
1.0000
  0
VERTEX
  8
42
 10
5.8690
 20
3.3520
 30
0.0000
  0
SEQEND
  8
0
  0
POLYLINE
  8
42
 66
1
 10
0.0000
 20
0.0000
 30
0.0000
 40
0.1016
 41
0.1016
 70
0
  0
VERTEX
  8
42
 10
5.8690
 20
7.1620
 30
0.0000
 42
1.0000
  0
VERTEX
  8
42
 10
5.8690
 20
7.0604
 30
0.0000
  0
SEQEND
  8
0
  0
POLYLINE
  8
42
 66
1
 10
0.0000
 20
0.0000
 30
0.0000
 40
0.2032
 41
0.2032
 70
0
  0
VERTEX
  8
42
 10
5.8690
 20
7.1112
 30
0.0000
 42
1.0000
  0
VERTEX
  8
42
 10
5.8690
 20
3.4028
 30
0.0000
  0
SEQEND
  8
0
  0
POLYLINE
  8
42
 66
1
 10
0.0000
 20
0.0000
 30
0.0000
 40
0.1016
 41
0.1016
 70
0
  0
VERTEX
  8
42
 10
5.8690
 20
7.0604
 30
0.0000
 42
1.0000
  0
VERTEX
  8
42
 10
5.8690
 20
7.1620
 30
0.0000
  0
SEQEND
  8
0
  0
POLYLINE
  8
42
 66
1
 10
0.0000
 20
0.0000
 30
0.0000
 40
0.1016
 41
0.1016
 70
0
  0
VERTEX
  8
42
 10
5.8690
 20
3.3520
 30
0.0000
 42
1.0000
  0
VERTEX
  8
42
 10
5.8690
 20
3.4536
 30
0.0000
  0
SEQEND
  8
0
  0
POLYLINE
  8
39
 66
1
 10
0.0000
 20
0.0000
 30
0.0000
 40
0.1270
 41
0.1270
 70
0
  0
VERTEX
  8
39
 10
5.8690
 20
2.4630
 30
0.0000
 42
1.0000
  0
VERTEX
  8
39
 10
5.8690
 20
8.0510
 30
0.0000
 42
1.0000
  0
VERTEX
  8
39
 10
5.8690
 20
2.4630
 30
0.0000
  0
SEQEND
  8
0
  0
CIRCLE
  8
20
 10
5.8690
 20
5.2570
 30
0.0000
 40
1.6510
  0
POINT
  8
23
 10
74.7870
 20
155.7150
 30
0.0000
  0
POLYLINE
  8
41
 66
1
 10
0.0000
 20
0.0000
 30
0.0000
 40
0.2032
 41
0.2032
 70
0
  0
VERTEX
  8
41
 10
74.7870
 20
153.8608
 30
0.0000
 42
1.0000
  0
VERTEX
  8
41
 10
74.7870
 20
157.5692
 30
0.0000
  0
SEQEND
  8
0
  0
POLYLINE
  8
41
 66
1
 10
0.0000
 20
0.0000
 30
0.0000
 40
0.1016
 41
0.1016
 70
0
  0
VERTEX
  8
41
 10
74.7870
 20
153.9116
 30
0.0000
 42
1.0000
  0
VERTEX
  8
41
 10
74.7870
 20
153.8100
 30
0.0000
  0
SEQEND
  8
0
  0
POLYLINE
  8
41
 66
1
 10
0.0000
 20
0.0000
 30
0.0000
 40
0.1016
 41
0.1016
 70
0
  0
VERTEX
  8
41
 10
74.7870
 20
157.6200
 30
0.0000
 42
1.0000
  0
VERTEX
  8
41
 10
74.7870
 20
157.5184
 30
0.0000
  0
SEQEND
  8
0
  0
POLYLINE
  8
41
 66
1
 10
0.0000
 20
0.0000
 30
0.0000
 40
0.2032
 41
0.2032
 70
0
  0
VERTEX
  8
41
 10
74.7870
 20
157.5692
 30
0.0000
 42
1.0000
  0
VERTEX
  8
41
 10
74.7870
 20
153.8608
 30
0.0000
  0
SEQEND
  8
0
  0
POLYLINE
  8
41
 66
1
 10
0.0000
 20
0.0000
 30
0.0000
 40
0.1016
 41
0.1016
 70
0
  0
VERTEX
  8
41
 10
74.7870
 20
157.5184
 30
0.0000
 42
1.0000
  0
VERTEX
  8
41
 10
74.7870
 20
157.6200
 30
0.0000
  0
SEQEND
  8
0
  0
POLYLINE
  8
41
 66
1
 10
0.0000
 20
0.0000
 30
0.0000
 40
0.1016
 41
0.1016
 70
0
  0
VERTEX
  8
41
 10
74.7870
 20
153.8100
 30
0.0000
 42
1.0000
  0
VERTEX
  8
41
 10
74.7870
 20
153.9116
 30
0.0000
  0
SEQEND
  8
0
  0
POLYLINE
  8
42
 66
1
 10
0.0000
 20
0.0000
 30
0.0000
 40
0.2032
 41
0.2032
 70
0
  0
VERTEX
  8
42
 10
74.7870
 20
153.8608
 30
0.0000
 42
1.0000
  0
VERTEX
  8
42
 10
74.7870
 20
157.5692
 30
0.0000
  0
SEQEND
  8
0
  0
POLYLINE
  8
42
 66
1
 10
0.0000
 20
0.0000
 30
0.0000
 40
0.1016
 41
0.1016
 70
0
  0
VERTEX
  8
42
 10
74.7870
 20
153.9116
 30
0.0000
 42
1.0000
  0
VERTEX
  8
42
 10
74.7870
 20
153.8100
 30
0.0000
  0
SEQEND
  8
0
  0
POLYLINE
  8
42
 66
1
 10
0.0000
 20
0.0000
 30
0.0000
 40
0.1016
 41
0.1016
 70
0
  0
VERTEX
  8
42
 10
74.7870
 20
157.6200
 30
0.0000
 42
1.0000
  0
VERTEX
  8
42
 10
74.7870
 20
157.5184
 30
0.0000
  0
SEQEND
  8
0
  0
POLYLINE
  8
42
 66
1
 10
0.0000
 20
0.0000
 30
0.0000
 40
0.2032
 41
0.2032
 70
0
  0
VERTEX
  8
42
 10
74.7870
 20
157.5692
 30
0.0000
 42
1.0000
  0
VERTEX
  8
42
 10
74.7870
 20
153.8608
 30
0.0000
  0
SEQEND
  8
0
  0
POLYLINE
  8
42
 66
1
 10
0.0000
 20
0.0000
 30
0.0000
 40
0.1016
 41
0.1016
 70
0
  0
VERTEX
  8
42
 10
74.7870
 20
157.5184
 30
0.0000
 42
1.0000
  0
VERTEX
  8
42
 10
74.7870
 20
157.6200
 30
0.0000
  0
SEQEND
  8
0
  0
POLYLINE
  8
42
 66
1
 10
0.0000
 20
0.0000
 30
0.0000
 40
0.1016
 41
0.1016
 70
0
  0
VERTEX
  8
42
 10
74.7870
 20
153.8100
 30
0.0000
 42
1.0000
  0
VERTEX
  8
42
 10
74.7870
 20
153.9116
 30
0.0000
  0
SEQEND
  8
0
  0
POLYLINE
  8
39
 66
1
 10
0.0000
 20
0.0000
 30
0.0000
 40
0.1270
 41
0.1270
 70
0
  0
VERTEX
  8
39
 10
74.7870
 20
152.9210
 30
0.0000
 42
1.0000
  0
VERTEX
  8
39
 10
74.7870
 20
158.5090
 30
0.0000
 42
1.0000
  0
VERTEX
  8
39
 10
74.7870
 20
152.9210
 30
0.0000
  0
SEQEND
  8
0
  0
CIRCLE
  8
20
 10
74.7870
 20
155.7150
 30
0.0000
 40
1.6510
  0
POINT
  8
23
 10
6.2070
 20
155.7150
 30
0.0000
  0
POLYLINE
  8
41
 66
1
 10
0.0000
 20
0.0000
 30
0.0000
 40
0.2032
 41
0.2032
 70
0
  0
VERTEX
  8
41
 10
6.2070
 20
153.8608
 30
0.0000
 42
1.0000
  0
VERTEX
  8
41
 10
6.2070
 20
157.5692
 30
0.0000
  0
SEQEND
  8
0
  0
POLYLINE
  8
41
 66
1
 10
0.0000
 20
0.0000
 30
0.0000
 40
0.1016
 41
0.1016
 70
0
  0
VERTEX
  8
41
 10
6.2070
 20
153.9116
 30
0.0000
 42
1.0000
  0
VERTEX
  8
41
 10
6.2070
 20
153.8100
 30
0.0000
  0
SEQEND
  8
0
  0
POLYLINE
  8
41
 66
1
 10
0.0000
 20
0.0000
 30
0.0000
 40
0.1016
 41
0.1016
 70
0
  0
VERTEX
  8
41
 10
6.2070
 20
157.6200
 30
0.0000
 42
1.0000
  0
VERTEX
  8
41
 10
6.2070
 20
157.5184
 30
0.0000
  0
SEQEND
  8
0
  0
POLYLINE
  8
41
 66
1
 10
0.0000
 20
0.0000
 30
0.0000
 40
0.2032
 41
0.2032
 70
0
  0
VERTEX
  8
41
 10
6.2070
 20
157.5692
 30
0.0000
 42
1.0000
  0
VERTEX
  8
41
 10
6.2070
 20
153.8608
 30
0.0000
  0
SEQEND
  8
0
  0
POLYLINE
  8
41
 66
1
 10
0.0000
 20
0.0000
 30
0.0000
 40
0.1016
 41
0.1016
 70
0
  0
VERTEX
  8
41
 10
6.2070
 20
157.5184
 30
0.0000
 42
1.0000
  0
VERTEX
  8
41
 10
6.2070
 20
157.6200
 30
0.0000
  0
SEQEND
  8
0
  0
POLYLINE
  8
41
 66
1
 10
0.0000
 20
0.0000
 30
0.0000
 40
0.1016
 41
0.1016
 70
0
  0
VERTEX
  8
41
 10
6.2070
 20
153.8100
 30
0.0000
 42
1.0000
  0
VERTEX
  8
41
 10
6.2070
 20
153.9116
 30
0.0000
  0
SEQEND
  8
0
  0
POLYLINE
  8
42
 66
1
 10
0.0000
 20
0.0000
 30
0.0000
 40
0.2032
 41
0.2032
 70
0
  0
VERTEX
  8
42
 10
6.2070
 20
153.8608
 30
0.0000
 42
1.0000
  0
VERTEX
  8
42
 10
6.2070
 20
157.5692
 30
0.0000
  0
SEQEND
  8
0
  0
POLYLINE
  8
42
 66
1
 10
0.0000
 20
0.0000
 30
0.0000
 40
0.1016
 41
0.1016
 70
0
  0
VERTEX
  8
42
 10
6.2070
 20
153.9116
 30
0.0000
 42
1.0000
  0
VERTEX
  8
42
 10
6.2070
 20
153.8100
 30
0.0000
  0
SEQEND
  8
0
  0
POLYLINE
  8
42
 66
1
 10
0.0000
 20
0.0000
 30
0.0000
 40
0.1016
 41
0.1016
 70
0
  0
VERTEX
  8
42
 10
6.2070
 20
157.6200
 30
0.0000
 42
1.0000
  0
VERTEX
  8
42
 10
6.2070
 20
157.5184
 30
0.0000
  0
SEQEND
  8
0
  0
POLYLINE
  8
42
 66
1
 10
0.0000
 20
0.0000
 30
0.0000
 40
0.2032
 41
0.2032
 70
0
  0
VERTEX
  8
42
 10
6.2070
 20
157.5692
 30
0.0000
 42
1.0000
  0
VERTEX
  8
42
 10
6.2070
 20
153.8608
 30
0.0000
  0
SEQEND
  8
0
  0
POLYLINE
  8
42
 66
1
 10
0.0000
 20
0.0000
 30
0.0000
 40
0.1016
 41
0.1016
 70
0
  0
VERTEX
  8
42
 10
6.2070
 20
157.5184
 30
0.0000
 42
1.0000
  0
VERTEX
  8
42
 10
6.2070
 20
157.6200
 30
0.0000
  0
SEQEND
  8
0
  0
POLYLINE
  8
42
 66
1
 10
0.0000
 20
0.0000
 30
0.0000
 40
0.1016
 41
0.1016
 70
0
  0
VERTEX
  8
42
 10
6.2070
 20
153.8100
 30
0.0000
 42
1.0000
  0
VERTEX
  8
42
 10
6.2070
 20
153.9116
 30
0.0000
  0
SEQEND
  8
0
  0
POLYLINE
  8
39
 66
1
 10
0.0000
 20
0.0000
 30
0.0000
 40
0.1270
 41
0.1270
 70
0
  0
VERTEX
  8
39
 10
6.2070
 20
152.9210
 30
0.0000
 42
1.0000
  0
VERTEX
  8
39
 10
6.2070
 20
158.5090
 30
0.0000
 42
1.0000
  0
VERTEX
  8
39
 10
6.2070
 20
152.9210
 30
0.0000
  0
SEQEND
  8
0
  0
CIRCLE
  8
20
 10
6.2070
 20
155.7150
 30
0.0000
 40
1.6510
  0
ENDSEC
  0
EOF
