G75*
%MOIN*%
%OFA0B0*%
%FSLAX25Y25*%
%IPPOS*%
%LPD*%
%AMOC8*
5,1,8,0,0,1.08239X$1,22.5*
%
%ADD10C,0.31115*%
%ADD11C,0.10643*%
%ADD12R,0.08674X0.05524*%
%ADD13R,0.06115X0.03162*%
%ADD14R,0.06706X0.04343*%
%ADD15R,0.07887X0.07099*%
%ADD16C,0.03778*%
D10*
X0062324Y0060355D03*
D11*
X0062324Y0099725D03*
X0017048Y0060355D03*
X0062324Y0017048D03*
D12*
X0084548Y0051300D03*
X0084548Y0073347D03*
D13*
X0099017Y0068229D03*
X0099017Y0064292D03*
X0099017Y0060355D03*
X0099017Y0056418D03*
D14*
X0009410Y0012402D03*
X0009410Y0025394D03*
X0028702Y0025394D03*
X0028702Y0012402D03*
X0087048Y0013977D03*
X0087048Y0026969D03*
X0106339Y0026969D03*
X0106339Y0013977D03*
X0029922Y0093702D03*
X0029922Y0106694D03*
X0010631Y0106694D03*
X0010631Y0093702D03*
X0086182Y0094056D03*
X0086182Y0107048D03*
X0105473Y0107048D03*
X0105473Y0094056D03*
D15*
X0076103Y0094213D03*
X0076103Y0105237D03*
X0043623Y0106221D03*
X0043623Y0095198D03*
X0044607Y0026497D03*
X0044607Y0015473D03*
X0077087Y0015473D03*
X0077087Y0026497D03*
D16*
X0094900Y0022300D03*
X0096100Y0052900D03*
X0090700Y0076300D03*
X0092500Y0094300D03*
X0091300Y0106900D03*
X0100300Y0106900D03*
M02*
