G75*
%MOIN*%
%OFA0B0*%
%FSLAX25Y25*%
%IPPOS*%
%LPD*%
%AMOC8*
5,1,8,0,0,1.08239X$1,22.5*
%
%ADD10C,0.00000*%
%ADD11R,0.07874X0.04724*%
%ADD12R,0.05315X0.02362*%
%ADD13R,0.05906X0.03543*%
%ADD14R,0.07087X0.06299*%
%ADD15C,0.00600*%
%ADD16C,0.02978*%
D10*
X0001300Y0001300D02*
X0001300Y0115473D01*
X0115473Y0115473D01*
X0115473Y0089489D01*
X0106024Y0076103D01*
X0106024Y0047560D01*
X0115473Y0035158D01*
X0115473Y0001300D01*
X0001300Y0001300D01*
X0012127Y0060355D02*
X0012129Y0060495D01*
X0012135Y0060635D01*
X0012145Y0060774D01*
X0012159Y0060913D01*
X0012177Y0061052D01*
X0012198Y0061190D01*
X0012224Y0061328D01*
X0012254Y0061465D01*
X0012287Y0061600D01*
X0012325Y0061735D01*
X0012366Y0061869D01*
X0012411Y0062002D01*
X0012459Y0062133D01*
X0012512Y0062262D01*
X0012568Y0062391D01*
X0012627Y0062517D01*
X0012691Y0062642D01*
X0012757Y0062765D01*
X0012828Y0062886D01*
X0012901Y0063005D01*
X0012978Y0063122D01*
X0013059Y0063236D01*
X0013142Y0063348D01*
X0013229Y0063458D01*
X0013319Y0063566D01*
X0013411Y0063670D01*
X0013507Y0063772D01*
X0013606Y0063872D01*
X0013707Y0063968D01*
X0013811Y0064062D01*
X0013918Y0064152D01*
X0014027Y0064239D01*
X0014139Y0064324D01*
X0014253Y0064405D01*
X0014369Y0064483D01*
X0014487Y0064557D01*
X0014608Y0064628D01*
X0014730Y0064696D01*
X0014855Y0064760D01*
X0014981Y0064821D01*
X0015108Y0064878D01*
X0015238Y0064931D01*
X0015369Y0064981D01*
X0015501Y0065026D01*
X0015634Y0065069D01*
X0015769Y0065107D01*
X0015904Y0065141D01*
X0016041Y0065172D01*
X0016178Y0065199D01*
X0016316Y0065221D01*
X0016455Y0065240D01*
X0016594Y0065255D01*
X0016733Y0065266D01*
X0016873Y0065273D01*
X0017013Y0065276D01*
X0017153Y0065275D01*
X0017293Y0065270D01*
X0017432Y0065261D01*
X0017572Y0065248D01*
X0017711Y0065231D01*
X0017849Y0065210D01*
X0017987Y0065186D01*
X0018124Y0065157D01*
X0018260Y0065125D01*
X0018395Y0065088D01*
X0018529Y0065048D01*
X0018662Y0065004D01*
X0018793Y0064956D01*
X0018923Y0064905D01*
X0019052Y0064850D01*
X0019179Y0064791D01*
X0019304Y0064728D01*
X0019427Y0064663D01*
X0019549Y0064593D01*
X0019668Y0064520D01*
X0019786Y0064444D01*
X0019901Y0064365D01*
X0020014Y0064282D01*
X0020124Y0064196D01*
X0020232Y0064107D01*
X0020337Y0064015D01*
X0020440Y0063920D01*
X0020540Y0063822D01*
X0020637Y0063722D01*
X0020731Y0063618D01*
X0020823Y0063512D01*
X0020911Y0063404D01*
X0020996Y0063293D01*
X0021078Y0063179D01*
X0021157Y0063063D01*
X0021232Y0062946D01*
X0021304Y0062826D01*
X0021372Y0062704D01*
X0021437Y0062580D01*
X0021499Y0062454D01*
X0021557Y0062327D01*
X0021611Y0062198D01*
X0021662Y0062067D01*
X0021708Y0061935D01*
X0021751Y0061802D01*
X0021791Y0061668D01*
X0021826Y0061533D01*
X0021858Y0061396D01*
X0021885Y0061259D01*
X0021909Y0061121D01*
X0021929Y0060983D01*
X0021945Y0060844D01*
X0021957Y0060704D01*
X0021965Y0060565D01*
X0021969Y0060425D01*
X0021969Y0060285D01*
X0021965Y0060145D01*
X0021957Y0060006D01*
X0021945Y0059866D01*
X0021929Y0059727D01*
X0021909Y0059589D01*
X0021885Y0059451D01*
X0021858Y0059314D01*
X0021826Y0059177D01*
X0021791Y0059042D01*
X0021751Y0058908D01*
X0021708Y0058775D01*
X0021662Y0058643D01*
X0021611Y0058512D01*
X0021557Y0058383D01*
X0021499Y0058256D01*
X0021437Y0058130D01*
X0021372Y0058006D01*
X0021304Y0057884D01*
X0021232Y0057764D01*
X0021157Y0057647D01*
X0021078Y0057531D01*
X0020996Y0057417D01*
X0020911Y0057306D01*
X0020823Y0057198D01*
X0020731Y0057092D01*
X0020637Y0056988D01*
X0020540Y0056888D01*
X0020440Y0056790D01*
X0020337Y0056695D01*
X0020232Y0056603D01*
X0020124Y0056514D01*
X0020014Y0056428D01*
X0019901Y0056345D01*
X0019786Y0056266D01*
X0019668Y0056190D01*
X0019549Y0056117D01*
X0019427Y0056047D01*
X0019304Y0055982D01*
X0019179Y0055919D01*
X0019052Y0055860D01*
X0018923Y0055805D01*
X0018793Y0055754D01*
X0018662Y0055706D01*
X0018529Y0055662D01*
X0018395Y0055622D01*
X0018260Y0055585D01*
X0018124Y0055553D01*
X0017987Y0055524D01*
X0017849Y0055500D01*
X0017711Y0055479D01*
X0017572Y0055462D01*
X0017432Y0055449D01*
X0017293Y0055440D01*
X0017153Y0055435D01*
X0017013Y0055434D01*
X0016873Y0055437D01*
X0016733Y0055444D01*
X0016594Y0055455D01*
X0016455Y0055470D01*
X0016316Y0055489D01*
X0016178Y0055511D01*
X0016041Y0055538D01*
X0015904Y0055569D01*
X0015769Y0055603D01*
X0015634Y0055641D01*
X0015501Y0055684D01*
X0015369Y0055729D01*
X0015238Y0055779D01*
X0015108Y0055832D01*
X0014981Y0055889D01*
X0014855Y0055950D01*
X0014730Y0056014D01*
X0014608Y0056082D01*
X0014487Y0056153D01*
X0014369Y0056227D01*
X0014253Y0056305D01*
X0014139Y0056386D01*
X0014027Y0056471D01*
X0013918Y0056558D01*
X0013811Y0056648D01*
X0013707Y0056742D01*
X0013606Y0056838D01*
X0013507Y0056938D01*
X0013411Y0057040D01*
X0013319Y0057144D01*
X0013229Y0057252D01*
X0013142Y0057362D01*
X0013059Y0057474D01*
X0012978Y0057588D01*
X0012901Y0057705D01*
X0012828Y0057824D01*
X0012757Y0057945D01*
X0012691Y0058068D01*
X0012627Y0058193D01*
X0012568Y0058319D01*
X0012512Y0058448D01*
X0012459Y0058577D01*
X0012411Y0058708D01*
X0012366Y0058841D01*
X0012325Y0058975D01*
X0012287Y0059110D01*
X0012254Y0059245D01*
X0012224Y0059382D01*
X0012198Y0059520D01*
X0012177Y0059658D01*
X0012159Y0059797D01*
X0012145Y0059936D01*
X0012135Y0060075D01*
X0012129Y0060215D01*
X0012127Y0060355D01*
X0047167Y0060355D02*
X0047172Y0060727D01*
X0047185Y0061099D01*
X0047208Y0061470D01*
X0047240Y0061841D01*
X0047281Y0062210D01*
X0047331Y0062579D01*
X0047390Y0062946D01*
X0047458Y0063312D01*
X0047535Y0063676D01*
X0047621Y0064038D01*
X0047716Y0064398D01*
X0047820Y0064755D01*
X0047932Y0065109D01*
X0048053Y0065461D01*
X0048183Y0065810D01*
X0048321Y0066155D01*
X0048467Y0066497D01*
X0048622Y0066835D01*
X0048785Y0067170D01*
X0048957Y0067500D01*
X0049136Y0067826D01*
X0049323Y0068147D01*
X0049519Y0068464D01*
X0049721Y0068776D01*
X0049932Y0069083D01*
X0050150Y0069384D01*
X0050375Y0069680D01*
X0050607Y0069970D01*
X0050847Y0070255D01*
X0051093Y0070534D01*
X0051347Y0070806D01*
X0051606Y0071073D01*
X0051873Y0071332D01*
X0052145Y0071586D01*
X0052424Y0071832D01*
X0052709Y0072072D01*
X0052999Y0072304D01*
X0053295Y0072529D01*
X0053596Y0072747D01*
X0053903Y0072958D01*
X0054215Y0073160D01*
X0054532Y0073356D01*
X0054853Y0073543D01*
X0055179Y0073722D01*
X0055509Y0073894D01*
X0055844Y0074057D01*
X0056182Y0074212D01*
X0056524Y0074358D01*
X0056869Y0074496D01*
X0057218Y0074626D01*
X0057570Y0074747D01*
X0057924Y0074859D01*
X0058281Y0074963D01*
X0058641Y0075058D01*
X0059003Y0075144D01*
X0059367Y0075221D01*
X0059733Y0075289D01*
X0060100Y0075348D01*
X0060469Y0075398D01*
X0060838Y0075439D01*
X0061209Y0075471D01*
X0061580Y0075494D01*
X0061952Y0075507D01*
X0062324Y0075512D01*
X0062696Y0075507D01*
X0063068Y0075494D01*
X0063439Y0075471D01*
X0063810Y0075439D01*
X0064179Y0075398D01*
X0064548Y0075348D01*
X0064915Y0075289D01*
X0065281Y0075221D01*
X0065645Y0075144D01*
X0066007Y0075058D01*
X0066367Y0074963D01*
X0066724Y0074859D01*
X0067078Y0074747D01*
X0067430Y0074626D01*
X0067779Y0074496D01*
X0068124Y0074358D01*
X0068466Y0074212D01*
X0068804Y0074057D01*
X0069139Y0073894D01*
X0069469Y0073722D01*
X0069795Y0073543D01*
X0070116Y0073356D01*
X0070433Y0073160D01*
X0070745Y0072958D01*
X0071052Y0072747D01*
X0071353Y0072529D01*
X0071649Y0072304D01*
X0071939Y0072072D01*
X0072224Y0071832D01*
X0072503Y0071586D01*
X0072775Y0071332D01*
X0073042Y0071073D01*
X0073301Y0070806D01*
X0073555Y0070534D01*
X0073801Y0070255D01*
X0074041Y0069970D01*
X0074273Y0069680D01*
X0074498Y0069384D01*
X0074716Y0069083D01*
X0074927Y0068776D01*
X0075129Y0068464D01*
X0075325Y0068147D01*
X0075512Y0067826D01*
X0075691Y0067500D01*
X0075863Y0067170D01*
X0076026Y0066835D01*
X0076181Y0066497D01*
X0076327Y0066155D01*
X0076465Y0065810D01*
X0076595Y0065461D01*
X0076716Y0065109D01*
X0076828Y0064755D01*
X0076932Y0064398D01*
X0077027Y0064038D01*
X0077113Y0063676D01*
X0077190Y0063312D01*
X0077258Y0062946D01*
X0077317Y0062579D01*
X0077367Y0062210D01*
X0077408Y0061841D01*
X0077440Y0061470D01*
X0077463Y0061099D01*
X0077476Y0060727D01*
X0077481Y0060355D01*
X0077476Y0059983D01*
X0077463Y0059611D01*
X0077440Y0059240D01*
X0077408Y0058869D01*
X0077367Y0058500D01*
X0077317Y0058131D01*
X0077258Y0057764D01*
X0077190Y0057398D01*
X0077113Y0057034D01*
X0077027Y0056672D01*
X0076932Y0056312D01*
X0076828Y0055955D01*
X0076716Y0055601D01*
X0076595Y0055249D01*
X0076465Y0054900D01*
X0076327Y0054555D01*
X0076181Y0054213D01*
X0076026Y0053875D01*
X0075863Y0053540D01*
X0075691Y0053210D01*
X0075512Y0052884D01*
X0075325Y0052563D01*
X0075129Y0052246D01*
X0074927Y0051934D01*
X0074716Y0051627D01*
X0074498Y0051326D01*
X0074273Y0051030D01*
X0074041Y0050740D01*
X0073801Y0050455D01*
X0073555Y0050176D01*
X0073301Y0049904D01*
X0073042Y0049637D01*
X0072775Y0049378D01*
X0072503Y0049124D01*
X0072224Y0048878D01*
X0071939Y0048638D01*
X0071649Y0048406D01*
X0071353Y0048181D01*
X0071052Y0047963D01*
X0070745Y0047752D01*
X0070433Y0047550D01*
X0070116Y0047354D01*
X0069795Y0047167D01*
X0069469Y0046988D01*
X0069139Y0046816D01*
X0068804Y0046653D01*
X0068466Y0046498D01*
X0068124Y0046352D01*
X0067779Y0046214D01*
X0067430Y0046084D01*
X0067078Y0045963D01*
X0066724Y0045851D01*
X0066367Y0045747D01*
X0066007Y0045652D01*
X0065645Y0045566D01*
X0065281Y0045489D01*
X0064915Y0045421D01*
X0064548Y0045362D01*
X0064179Y0045312D01*
X0063810Y0045271D01*
X0063439Y0045239D01*
X0063068Y0045216D01*
X0062696Y0045203D01*
X0062324Y0045198D01*
X0061952Y0045203D01*
X0061580Y0045216D01*
X0061209Y0045239D01*
X0060838Y0045271D01*
X0060469Y0045312D01*
X0060100Y0045362D01*
X0059733Y0045421D01*
X0059367Y0045489D01*
X0059003Y0045566D01*
X0058641Y0045652D01*
X0058281Y0045747D01*
X0057924Y0045851D01*
X0057570Y0045963D01*
X0057218Y0046084D01*
X0056869Y0046214D01*
X0056524Y0046352D01*
X0056182Y0046498D01*
X0055844Y0046653D01*
X0055509Y0046816D01*
X0055179Y0046988D01*
X0054853Y0047167D01*
X0054532Y0047354D01*
X0054215Y0047550D01*
X0053903Y0047752D01*
X0053596Y0047963D01*
X0053295Y0048181D01*
X0052999Y0048406D01*
X0052709Y0048638D01*
X0052424Y0048878D01*
X0052145Y0049124D01*
X0051873Y0049378D01*
X0051606Y0049637D01*
X0051347Y0049904D01*
X0051093Y0050176D01*
X0050847Y0050455D01*
X0050607Y0050740D01*
X0050375Y0051030D01*
X0050150Y0051326D01*
X0049932Y0051627D01*
X0049721Y0051934D01*
X0049519Y0052246D01*
X0049323Y0052563D01*
X0049136Y0052884D01*
X0048957Y0053210D01*
X0048785Y0053540D01*
X0048622Y0053875D01*
X0048467Y0054213D01*
X0048321Y0054555D01*
X0048183Y0054900D01*
X0048053Y0055249D01*
X0047932Y0055601D01*
X0047820Y0055955D01*
X0047716Y0056312D01*
X0047621Y0056672D01*
X0047535Y0057034D01*
X0047458Y0057398D01*
X0047390Y0057764D01*
X0047331Y0058131D01*
X0047281Y0058500D01*
X0047240Y0058869D01*
X0047208Y0059240D01*
X0047185Y0059611D01*
X0047172Y0059983D01*
X0047167Y0060355D01*
X0057403Y0099725D02*
X0057405Y0099865D01*
X0057411Y0100005D01*
X0057421Y0100144D01*
X0057435Y0100283D01*
X0057453Y0100422D01*
X0057474Y0100560D01*
X0057500Y0100698D01*
X0057530Y0100835D01*
X0057563Y0100970D01*
X0057601Y0101105D01*
X0057642Y0101239D01*
X0057687Y0101372D01*
X0057735Y0101503D01*
X0057788Y0101632D01*
X0057844Y0101761D01*
X0057903Y0101887D01*
X0057967Y0102012D01*
X0058033Y0102135D01*
X0058104Y0102256D01*
X0058177Y0102375D01*
X0058254Y0102492D01*
X0058335Y0102606D01*
X0058418Y0102718D01*
X0058505Y0102828D01*
X0058595Y0102936D01*
X0058687Y0103040D01*
X0058783Y0103142D01*
X0058882Y0103242D01*
X0058983Y0103338D01*
X0059087Y0103432D01*
X0059194Y0103522D01*
X0059303Y0103609D01*
X0059415Y0103694D01*
X0059529Y0103775D01*
X0059645Y0103853D01*
X0059763Y0103927D01*
X0059884Y0103998D01*
X0060006Y0104066D01*
X0060131Y0104130D01*
X0060257Y0104191D01*
X0060384Y0104248D01*
X0060514Y0104301D01*
X0060645Y0104351D01*
X0060777Y0104396D01*
X0060910Y0104439D01*
X0061045Y0104477D01*
X0061180Y0104511D01*
X0061317Y0104542D01*
X0061454Y0104569D01*
X0061592Y0104591D01*
X0061731Y0104610D01*
X0061870Y0104625D01*
X0062009Y0104636D01*
X0062149Y0104643D01*
X0062289Y0104646D01*
X0062429Y0104645D01*
X0062569Y0104640D01*
X0062708Y0104631D01*
X0062848Y0104618D01*
X0062987Y0104601D01*
X0063125Y0104580D01*
X0063263Y0104556D01*
X0063400Y0104527D01*
X0063536Y0104495D01*
X0063671Y0104458D01*
X0063805Y0104418D01*
X0063938Y0104374D01*
X0064069Y0104326D01*
X0064199Y0104275D01*
X0064328Y0104220D01*
X0064455Y0104161D01*
X0064580Y0104098D01*
X0064703Y0104033D01*
X0064825Y0103963D01*
X0064944Y0103890D01*
X0065062Y0103814D01*
X0065177Y0103735D01*
X0065290Y0103652D01*
X0065400Y0103566D01*
X0065508Y0103477D01*
X0065613Y0103385D01*
X0065716Y0103290D01*
X0065816Y0103192D01*
X0065913Y0103092D01*
X0066007Y0102988D01*
X0066099Y0102882D01*
X0066187Y0102774D01*
X0066272Y0102663D01*
X0066354Y0102549D01*
X0066433Y0102433D01*
X0066508Y0102316D01*
X0066580Y0102196D01*
X0066648Y0102074D01*
X0066713Y0101950D01*
X0066775Y0101824D01*
X0066833Y0101697D01*
X0066887Y0101568D01*
X0066938Y0101437D01*
X0066984Y0101305D01*
X0067027Y0101172D01*
X0067067Y0101038D01*
X0067102Y0100903D01*
X0067134Y0100766D01*
X0067161Y0100629D01*
X0067185Y0100491D01*
X0067205Y0100353D01*
X0067221Y0100214D01*
X0067233Y0100074D01*
X0067241Y0099935D01*
X0067245Y0099795D01*
X0067245Y0099655D01*
X0067241Y0099515D01*
X0067233Y0099376D01*
X0067221Y0099236D01*
X0067205Y0099097D01*
X0067185Y0098959D01*
X0067161Y0098821D01*
X0067134Y0098684D01*
X0067102Y0098547D01*
X0067067Y0098412D01*
X0067027Y0098278D01*
X0066984Y0098145D01*
X0066938Y0098013D01*
X0066887Y0097882D01*
X0066833Y0097753D01*
X0066775Y0097626D01*
X0066713Y0097500D01*
X0066648Y0097376D01*
X0066580Y0097254D01*
X0066508Y0097134D01*
X0066433Y0097017D01*
X0066354Y0096901D01*
X0066272Y0096787D01*
X0066187Y0096676D01*
X0066099Y0096568D01*
X0066007Y0096462D01*
X0065913Y0096358D01*
X0065816Y0096258D01*
X0065716Y0096160D01*
X0065613Y0096065D01*
X0065508Y0095973D01*
X0065400Y0095884D01*
X0065290Y0095798D01*
X0065177Y0095715D01*
X0065062Y0095636D01*
X0064944Y0095560D01*
X0064825Y0095487D01*
X0064703Y0095417D01*
X0064580Y0095352D01*
X0064455Y0095289D01*
X0064328Y0095230D01*
X0064199Y0095175D01*
X0064069Y0095124D01*
X0063938Y0095076D01*
X0063805Y0095032D01*
X0063671Y0094992D01*
X0063536Y0094955D01*
X0063400Y0094923D01*
X0063263Y0094894D01*
X0063125Y0094870D01*
X0062987Y0094849D01*
X0062848Y0094832D01*
X0062708Y0094819D01*
X0062569Y0094810D01*
X0062429Y0094805D01*
X0062289Y0094804D01*
X0062149Y0094807D01*
X0062009Y0094814D01*
X0061870Y0094825D01*
X0061731Y0094840D01*
X0061592Y0094859D01*
X0061454Y0094881D01*
X0061317Y0094908D01*
X0061180Y0094939D01*
X0061045Y0094973D01*
X0060910Y0095011D01*
X0060777Y0095054D01*
X0060645Y0095099D01*
X0060514Y0095149D01*
X0060384Y0095202D01*
X0060257Y0095259D01*
X0060131Y0095320D01*
X0060006Y0095384D01*
X0059884Y0095452D01*
X0059763Y0095523D01*
X0059645Y0095597D01*
X0059529Y0095675D01*
X0059415Y0095756D01*
X0059303Y0095841D01*
X0059194Y0095928D01*
X0059087Y0096018D01*
X0058983Y0096112D01*
X0058882Y0096208D01*
X0058783Y0096308D01*
X0058687Y0096410D01*
X0058595Y0096514D01*
X0058505Y0096622D01*
X0058418Y0096732D01*
X0058335Y0096844D01*
X0058254Y0096958D01*
X0058177Y0097075D01*
X0058104Y0097194D01*
X0058033Y0097315D01*
X0057967Y0097438D01*
X0057903Y0097563D01*
X0057844Y0097689D01*
X0057788Y0097818D01*
X0057735Y0097947D01*
X0057687Y0098078D01*
X0057642Y0098211D01*
X0057601Y0098345D01*
X0057563Y0098480D01*
X0057530Y0098615D01*
X0057500Y0098752D01*
X0057474Y0098890D01*
X0057453Y0099028D01*
X0057435Y0099167D01*
X0057421Y0099306D01*
X0057411Y0099445D01*
X0057405Y0099585D01*
X0057403Y0099725D01*
X0057403Y0017048D02*
X0057405Y0017188D01*
X0057411Y0017328D01*
X0057421Y0017467D01*
X0057435Y0017606D01*
X0057453Y0017745D01*
X0057474Y0017883D01*
X0057500Y0018021D01*
X0057530Y0018158D01*
X0057563Y0018293D01*
X0057601Y0018428D01*
X0057642Y0018562D01*
X0057687Y0018695D01*
X0057735Y0018826D01*
X0057788Y0018955D01*
X0057844Y0019084D01*
X0057903Y0019210D01*
X0057967Y0019335D01*
X0058033Y0019458D01*
X0058104Y0019579D01*
X0058177Y0019698D01*
X0058254Y0019815D01*
X0058335Y0019929D01*
X0058418Y0020041D01*
X0058505Y0020151D01*
X0058595Y0020259D01*
X0058687Y0020363D01*
X0058783Y0020465D01*
X0058882Y0020565D01*
X0058983Y0020661D01*
X0059087Y0020755D01*
X0059194Y0020845D01*
X0059303Y0020932D01*
X0059415Y0021017D01*
X0059529Y0021098D01*
X0059645Y0021176D01*
X0059763Y0021250D01*
X0059884Y0021321D01*
X0060006Y0021389D01*
X0060131Y0021453D01*
X0060257Y0021514D01*
X0060384Y0021571D01*
X0060514Y0021624D01*
X0060645Y0021674D01*
X0060777Y0021719D01*
X0060910Y0021762D01*
X0061045Y0021800D01*
X0061180Y0021834D01*
X0061317Y0021865D01*
X0061454Y0021892D01*
X0061592Y0021914D01*
X0061731Y0021933D01*
X0061870Y0021948D01*
X0062009Y0021959D01*
X0062149Y0021966D01*
X0062289Y0021969D01*
X0062429Y0021968D01*
X0062569Y0021963D01*
X0062708Y0021954D01*
X0062848Y0021941D01*
X0062987Y0021924D01*
X0063125Y0021903D01*
X0063263Y0021879D01*
X0063400Y0021850D01*
X0063536Y0021818D01*
X0063671Y0021781D01*
X0063805Y0021741D01*
X0063938Y0021697D01*
X0064069Y0021649D01*
X0064199Y0021598D01*
X0064328Y0021543D01*
X0064455Y0021484D01*
X0064580Y0021421D01*
X0064703Y0021356D01*
X0064825Y0021286D01*
X0064944Y0021213D01*
X0065062Y0021137D01*
X0065177Y0021058D01*
X0065290Y0020975D01*
X0065400Y0020889D01*
X0065508Y0020800D01*
X0065613Y0020708D01*
X0065716Y0020613D01*
X0065816Y0020515D01*
X0065913Y0020415D01*
X0066007Y0020311D01*
X0066099Y0020205D01*
X0066187Y0020097D01*
X0066272Y0019986D01*
X0066354Y0019872D01*
X0066433Y0019756D01*
X0066508Y0019639D01*
X0066580Y0019519D01*
X0066648Y0019397D01*
X0066713Y0019273D01*
X0066775Y0019147D01*
X0066833Y0019020D01*
X0066887Y0018891D01*
X0066938Y0018760D01*
X0066984Y0018628D01*
X0067027Y0018495D01*
X0067067Y0018361D01*
X0067102Y0018226D01*
X0067134Y0018089D01*
X0067161Y0017952D01*
X0067185Y0017814D01*
X0067205Y0017676D01*
X0067221Y0017537D01*
X0067233Y0017397D01*
X0067241Y0017258D01*
X0067245Y0017118D01*
X0067245Y0016978D01*
X0067241Y0016838D01*
X0067233Y0016699D01*
X0067221Y0016559D01*
X0067205Y0016420D01*
X0067185Y0016282D01*
X0067161Y0016144D01*
X0067134Y0016007D01*
X0067102Y0015870D01*
X0067067Y0015735D01*
X0067027Y0015601D01*
X0066984Y0015468D01*
X0066938Y0015336D01*
X0066887Y0015205D01*
X0066833Y0015076D01*
X0066775Y0014949D01*
X0066713Y0014823D01*
X0066648Y0014699D01*
X0066580Y0014577D01*
X0066508Y0014457D01*
X0066433Y0014340D01*
X0066354Y0014224D01*
X0066272Y0014110D01*
X0066187Y0013999D01*
X0066099Y0013891D01*
X0066007Y0013785D01*
X0065913Y0013681D01*
X0065816Y0013581D01*
X0065716Y0013483D01*
X0065613Y0013388D01*
X0065508Y0013296D01*
X0065400Y0013207D01*
X0065290Y0013121D01*
X0065177Y0013038D01*
X0065062Y0012959D01*
X0064944Y0012883D01*
X0064825Y0012810D01*
X0064703Y0012740D01*
X0064580Y0012675D01*
X0064455Y0012612D01*
X0064328Y0012553D01*
X0064199Y0012498D01*
X0064069Y0012447D01*
X0063938Y0012399D01*
X0063805Y0012355D01*
X0063671Y0012315D01*
X0063536Y0012278D01*
X0063400Y0012246D01*
X0063263Y0012217D01*
X0063125Y0012193D01*
X0062987Y0012172D01*
X0062848Y0012155D01*
X0062708Y0012142D01*
X0062569Y0012133D01*
X0062429Y0012128D01*
X0062289Y0012127D01*
X0062149Y0012130D01*
X0062009Y0012137D01*
X0061870Y0012148D01*
X0061731Y0012163D01*
X0061592Y0012182D01*
X0061454Y0012204D01*
X0061317Y0012231D01*
X0061180Y0012262D01*
X0061045Y0012296D01*
X0060910Y0012334D01*
X0060777Y0012377D01*
X0060645Y0012422D01*
X0060514Y0012472D01*
X0060384Y0012525D01*
X0060257Y0012582D01*
X0060131Y0012643D01*
X0060006Y0012707D01*
X0059884Y0012775D01*
X0059763Y0012846D01*
X0059645Y0012920D01*
X0059529Y0012998D01*
X0059415Y0013079D01*
X0059303Y0013164D01*
X0059194Y0013251D01*
X0059087Y0013341D01*
X0058983Y0013435D01*
X0058882Y0013531D01*
X0058783Y0013631D01*
X0058687Y0013733D01*
X0058595Y0013837D01*
X0058505Y0013945D01*
X0058418Y0014055D01*
X0058335Y0014167D01*
X0058254Y0014281D01*
X0058177Y0014398D01*
X0058104Y0014517D01*
X0058033Y0014638D01*
X0057967Y0014761D01*
X0057903Y0014886D01*
X0057844Y0015012D01*
X0057788Y0015141D01*
X0057735Y0015270D01*
X0057687Y0015401D01*
X0057642Y0015534D01*
X0057601Y0015668D01*
X0057563Y0015803D01*
X0057530Y0015938D01*
X0057500Y0016075D01*
X0057474Y0016213D01*
X0057453Y0016351D01*
X0057435Y0016490D01*
X0057421Y0016629D01*
X0057411Y0016768D01*
X0057405Y0016908D01*
X0057403Y0017048D01*
D11*
X0084548Y0051300D03*
X0084548Y0073347D03*
D12*
X0099017Y0068229D03*
X0099017Y0064292D03*
X0099017Y0060355D03*
X0099017Y0056418D03*
D13*
X0106339Y0026969D03*
X0106339Y0013977D03*
X0087048Y0013977D03*
X0087048Y0026969D03*
X0028702Y0025394D03*
X0028702Y0012402D03*
X0009410Y0012402D03*
X0009410Y0025394D03*
X0010631Y0093702D03*
X0010631Y0106694D03*
X0029922Y0106694D03*
X0029922Y0093702D03*
X0086182Y0094056D03*
X0086182Y0107048D03*
X0105473Y0107048D03*
X0105473Y0094056D03*
D14*
X0076103Y0094213D03*
X0076103Y0105237D03*
X0043623Y0106221D03*
X0043623Y0095198D03*
X0044607Y0026497D03*
X0044607Y0015473D03*
X0077087Y0015473D03*
X0077087Y0026497D03*
D15*
X0077500Y0026500D01*
X0086500Y0026500D01*
X0087048Y0026969D01*
X0087100Y0027100D01*
X0089500Y0029500D01*
X0089500Y0060100D01*
X0097300Y0067900D01*
X0098500Y0067900D01*
X0099017Y0068229D01*
X0098500Y0068500D01*
X0090700Y0076300D01*
X0089385Y0076082D02*
X0088858Y0076609D01*
X0080238Y0076609D01*
X0079711Y0076082D01*
X0079711Y0070612D01*
X0080238Y0070085D01*
X0088858Y0070085D01*
X0089385Y0070612D01*
X0089385Y0076082D01*
X0089353Y0076114D02*
X0101659Y0076114D01*
X0101642Y0076215D02*
X0101724Y0075735D01*
X0101724Y0070710D01*
X0099307Y0070710D01*
X0099307Y0068520D01*
X0098726Y0068520D01*
X0098726Y0070710D01*
X0096188Y0070710D01*
X0095857Y0070622D01*
X0095561Y0070450D01*
X0095319Y0070208D01*
X0095148Y0069912D01*
X0095059Y0069581D01*
X0095059Y0068520D01*
X0098726Y0068520D01*
X0098726Y0067939D01*
X0095059Y0067939D01*
X0095059Y0066877D01*
X0095148Y0066546D01*
X0095319Y0066250D01*
X0095561Y0066008D01*
X0095599Y0065986D01*
X0095459Y0065846D01*
X0095459Y0064156D01*
X0093203Y0061900D01*
X0092500Y0061197D01*
X0092500Y0027597D01*
X0091301Y0026398D01*
X0091301Y0026669D01*
X0087348Y0026669D01*
X0087348Y0023898D01*
X0088801Y0023898D01*
X0081803Y0016900D01*
X0081531Y0016900D01*
X0081531Y0018996D01*
X0081003Y0019523D01*
X0074774Y0019523D01*
X0066597Y0027700D01*
X0057803Y0027700D01*
X0057100Y0026997D01*
X0049050Y0018947D01*
X0049050Y0018996D01*
X0048523Y0019523D01*
X0042374Y0019523D01*
X0040900Y0020997D01*
X0040900Y0022047D01*
X0044307Y0022047D01*
X0044307Y0026197D01*
X0044907Y0026197D01*
X0044907Y0026797D01*
X0044307Y0026797D01*
X0044307Y0030946D01*
X0040900Y0030946D01*
X0040900Y0091148D01*
X0047539Y0091148D01*
X0048066Y0091675D01*
X0055628Y0091675D01*
X0056226Y0091077D02*
X0040900Y0091077D01*
X0040900Y0090478D02*
X0056825Y0090478D01*
X0057423Y0089880D02*
X0040900Y0089880D01*
X0040900Y0089281D02*
X0058022Y0089281D01*
X0057700Y0089603D02*
X0058403Y0088900D01*
X0072597Y0088900D01*
X0073861Y0090164D01*
X0078139Y0090164D01*
X0078203Y0090100D01*
X0093597Y0090100D01*
X0094300Y0090803D01*
X0095997Y0092500D01*
X0101620Y0092500D01*
X0101620Y0091911D01*
X0102148Y0091384D01*
X0108799Y0091384D01*
X0109326Y0091911D01*
X0109326Y0096200D01*
X0108799Y0096728D01*
X0102148Y0096728D01*
X0101620Y0096200D01*
X0101620Y0094900D01*
X0095003Y0094900D01*
X0094889Y0094786D01*
X0094889Y0095290D01*
X0093490Y0096689D01*
X0091510Y0096689D01*
X0090321Y0095500D01*
X0090035Y0095500D01*
X0090035Y0096200D01*
X0089507Y0096728D01*
X0082856Y0096728D01*
X0082329Y0096200D01*
X0082329Y0092500D01*
X0080546Y0092500D01*
X0080546Y0097736D01*
X0080019Y0098263D01*
X0072187Y0098263D01*
X0071660Y0097736D01*
X0071660Y0091357D01*
X0071603Y0091300D01*
X0066080Y0091300D01*
X0067547Y0091908D01*
X0070141Y0094502D01*
X0071545Y0097891D01*
X0071545Y0101264D01*
X0071762Y0101047D01*
X0072058Y0100876D01*
X0072389Y0100787D01*
X0075803Y0100787D01*
X0075803Y0104937D01*
X0071260Y0104937D01*
X0071260Y0102248D01*
X0070141Y0104949D01*
X0067547Y0107543D01*
X0064158Y0108946D01*
X0060489Y0108946D01*
X0057100Y0107543D01*
X0054506Y0104949D01*
X0053102Y0101559D01*
X0053102Y0097891D01*
X0053844Y0096100D01*
X0048066Y0096100D01*
X0048066Y0098720D01*
X0047539Y0099247D01*
X0039707Y0099247D01*
X0039180Y0098720D01*
X0039180Y0095500D01*
X0033775Y0095500D01*
X0033775Y0095846D01*
X0033248Y0096373D01*
X0026596Y0096373D01*
X0026069Y0095846D01*
X0026069Y0091557D01*
X0026596Y0091030D01*
X0033248Y0091030D01*
X0033775Y0091557D01*
X0033775Y0093100D01*
X0038500Y0093100D01*
X0038500Y0020003D01*
X0040164Y0018339D01*
X0040164Y0013900D01*
X0032554Y0013900D01*
X0032554Y0014547D01*
X0032027Y0015074D01*
X0025376Y0015074D01*
X0024849Y0014547D01*
X0024849Y0010258D01*
X0025376Y0009731D01*
X0032027Y0009731D01*
X0032554Y0010258D01*
X0032554Y0011500D01*
X0040615Y0011500D01*
X0040691Y0011424D01*
X0048523Y0011424D01*
X0049050Y0011951D01*
X0049050Y0015553D01*
X0053614Y0020117D01*
X0053102Y0018882D01*
X0053102Y0015214D01*
X0054506Y0011825D01*
X0057100Y0009231D01*
X0060489Y0007827D01*
X0064158Y0007827D01*
X0067547Y0009231D01*
X0070141Y0011825D01*
X0071545Y0015214D01*
X0071545Y0018882D01*
X0071208Y0019695D01*
X0072644Y0018259D01*
X0072644Y0011951D01*
X0073171Y0011424D01*
X0081003Y0011424D01*
X0081531Y0011951D01*
X0081531Y0014500D01*
X0082797Y0014500D01*
X0083195Y0014898D01*
X0083195Y0011833D01*
X0083722Y0011306D01*
X0090374Y0011306D01*
X0090901Y0011833D01*
X0090901Y0016122D01*
X0090660Y0016363D01*
X0094208Y0019911D01*
X0095890Y0019911D01*
X0097289Y0021310D01*
X0097289Y0021814D01*
X0102734Y0016369D01*
X0102487Y0016122D01*
X0102487Y0011833D01*
X0103014Y0011306D01*
X0109665Y0011306D01*
X0109973Y0011614D01*
X0109973Y0006800D01*
X0016710Y0006800D01*
X0013257Y0010252D01*
X0013263Y0010258D01*
X0013263Y0014547D01*
X0012736Y0015074D01*
X0006085Y0015074D01*
X0005600Y0014589D01*
X0005600Y0022642D01*
X0005659Y0022583D01*
X0005956Y0022411D01*
X0006286Y0022323D01*
X0009110Y0022323D01*
X0009110Y0025094D01*
X0009710Y0025094D01*
X0009710Y0022323D01*
X0012534Y0022323D01*
X0012865Y0022411D01*
X0013161Y0022583D01*
X0013403Y0022825D01*
X0013574Y0023121D01*
X0013663Y0023452D01*
X0013663Y0025095D01*
X0009710Y0025095D01*
X0009710Y0025694D01*
X0013663Y0025694D01*
X0013663Y0027337D01*
X0013574Y0027668D01*
X0013403Y0027964D01*
X0013161Y0028206D01*
X0012865Y0028378D01*
X0012534Y0028466D01*
X0009710Y0028466D01*
X0009710Y0025695D01*
X0009110Y0025695D01*
X0009110Y0028466D01*
X0006286Y0028466D01*
X0005956Y0028378D01*
X0005659Y0028206D01*
X0005600Y0028147D01*
X0005600Y0111173D01*
X0111173Y0111173D01*
X0111173Y0090854D01*
X0102724Y0078883D01*
X0102379Y0078539D01*
X0102235Y0078191D01*
X0102018Y0077884D01*
X0101911Y0077409D01*
X0101724Y0076958D01*
X0101724Y0076582D01*
X0101642Y0076215D01*
X0101724Y0076712D02*
X0072907Y0076712D01*
X0073944Y0076114D02*
X0079743Y0076114D01*
X0079711Y0075515D02*
X0074680Y0075515D01*
X0074271Y0075925D02*
X0069834Y0078487D01*
X0064885Y0079813D01*
X0059762Y0079813D01*
X0054813Y0078487D01*
X0050376Y0075925D01*
X0046754Y0072302D01*
X0044192Y0067865D01*
X0042866Y0062917D01*
X0042866Y0057793D01*
X0044192Y0052845D01*
X0046754Y0048408D01*
X0050376Y0044785D01*
X0054813Y0042224D01*
X0059762Y0040898D01*
X0064885Y0040898D01*
X0069834Y0042224D01*
X0074271Y0044785D01*
X0077893Y0048408D01*
X0079711Y0051556D01*
X0079711Y0048565D01*
X0080238Y0048038D01*
X0088858Y0048038D01*
X0089385Y0048565D01*
X0089385Y0054035D01*
X0088858Y0054562D01*
X0080915Y0054562D01*
X0081781Y0057793D01*
X0081781Y0062917D01*
X0080455Y0067865D01*
X0077893Y0072302D01*
X0074271Y0075925D01*
X0075279Y0074917D02*
X0079711Y0074917D01*
X0079711Y0074318D02*
X0075877Y0074318D01*
X0076476Y0073720D02*
X0079711Y0073720D01*
X0079711Y0073121D02*
X0077074Y0073121D01*
X0077673Y0072523D02*
X0079711Y0072523D01*
X0079711Y0071924D02*
X0078112Y0071924D01*
X0078457Y0071326D02*
X0079711Y0071326D01*
X0079711Y0070727D02*
X0078803Y0070727D01*
X0079148Y0070129D02*
X0080194Y0070129D01*
X0079494Y0069530D02*
X0095059Y0069530D01*
X0095059Y0068932D02*
X0079839Y0068932D01*
X0080185Y0068333D02*
X0098726Y0068333D01*
X0098726Y0068932D02*
X0099307Y0068932D01*
X0099307Y0069530D02*
X0098726Y0069530D01*
X0098726Y0070129D02*
X0099307Y0070129D01*
X0101724Y0070727D02*
X0089385Y0070727D01*
X0089385Y0071326D02*
X0101724Y0071326D01*
X0101724Y0071924D02*
X0089385Y0071924D01*
X0089385Y0072523D02*
X0101724Y0072523D01*
X0101724Y0073121D02*
X0089385Y0073121D01*
X0089385Y0073720D02*
X0101724Y0073720D01*
X0101724Y0074318D02*
X0089385Y0074318D01*
X0089385Y0074917D02*
X0101724Y0074917D01*
X0101724Y0075515D02*
X0089385Y0075515D01*
X0088902Y0070129D02*
X0095273Y0070129D01*
X0095059Y0067735D02*
X0080490Y0067735D01*
X0080650Y0067136D02*
X0095059Y0067136D01*
X0095153Y0066538D02*
X0080811Y0066538D01*
X0080971Y0065939D02*
X0095552Y0065939D01*
X0095459Y0065341D02*
X0081132Y0065341D01*
X0081292Y0064742D02*
X0095459Y0064742D01*
X0095447Y0064144D02*
X0081452Y0064144D01*
X0081613Y0063545D02*
X0094848Y0063545D01*
X0094250Y0062947D02*
X0081773Y0062947D01*
X0081781Y0062348D02*
X0093651Y0062348D01*
X0093053Y0061750D02*
X0081781Y0061750D01*
X0081781Y0061151D02*
X0092500Y0061151D01*
X0092500Y0060553D02*
X0081781Y0060553D01*
X0081781Y0059954D02*
X0092500Y0059954D01*
X0092500Y0059356D02*
X0081781Y0059356D01*
X0081781Y0058757D02*
X0092500Y0058757D01*
X0092500Y0058159D02*
X0081781Y0058159D01*
X0081719Y0057560D02*
X0092500Y0057560D01*
X0092500Y0056962D02*
X0081558Y0056962D01*
X0081398Y0056363D02*
X0092500Y0056363D01*
X0092500Y0055765D02*
X0081237Y0055765D01*
X0081077Y0055166D02*
X0092500Y0055166D01*
X0092500Y0054568D02*
X0080917Y0054568D01*
X0079711Y0050976D02*
X0079376Y0050976D01*
X0079711Y0050378D02*
X0079031Y0050378D01*
X0078685Y0049779D02*
X0079711Y0049779D01*
X0079711Y0049181D02*
X0078340Y0049181D01*
X0077994Y0048582D02*
X0079711Y0048582D01*
X0077469Y0047984D02*
X0092500Y0047984D01*
X0092500Y0048582D02*
X0089385Y0048582D01*
X0089385Y0049181D02*
X0092500Y0049181D01*
X0092500Y0049779D02*
X0089385Y0049779D01*
X0089385Y0050378D02*
X0092500Y0050378D01*
X0092500Y0050976D02*
X0089385Y0050976D01*
X0089385Y0051575D02*
X0092500Y0051575D01*
X0092500Y0052173D02*
X0089385Y0052173D01*
X0089385Y0052772D02*
X0092500Y0052772D01*
X0092500Y0053370D02*
X0089385Y0053370D01*
X0089385Y0053969D02*
X0092500Y0053969D01*
X0094900Y0054100D02*
X0096100Y0052900D01*
X0094900Y0054100D02*
X0094900Y0057700D01*
X0097300Y0060100D01*
X0098500Y0060100D01*
X0099017Y0060355D01*
X0098500Y0063700D02*
X0096700Y0063700D01*
X0093700Y0060700D01*
X0093700Y0027100D01*
X0082300Y0015700D01*
X0077500Y0015700D01*
X0077087Y0015473D01*
X0076900Y0015700D01*
X0066100Y0026500D01*
X0058300Y0026500D01*
X0047500Y0015700D01*
X0045100Y0015700D01*
X0044607Y0015473D01*
X0044500Y0015700D01*
X0039700Y0020500D01*
X0039700Y0094300D01*
X0030100Y0094300D01*
X0029922Y0093702D01*
X0026069Y0093471D02*
X0014483Y0093471D01*
X0014483Y0094069D02*
X0026069Y0094069D01*
X0026069Y0094668D02*
X0014483Y0094668D01*
X0014483Y0095266D02*
X0026069Y0095266D01*
X0026088Y0095865D02*
X0014465Y0095865D01*
X0014483Y0095846D02*
X0013956Y0096373D01*
X0007305Y0096373D01*
X0006778Y0095846D01*
X0006778Y0091557D01*
X0007305Y0091030D01*
X0009431Y0091030D01*
X0009431Y0085960D01*
X0031596Y0063795D01*
X0031596Y0029986D01*
X0029676Y0028066D01*
X0025376Y0028066D01*
X0024849Y0027539D01*
X0024849Y0023250D01*
X0025376Y0022723D01*
X0032027Y0022723D01*
X0032554Y0023250D01*
X0032554Y0027539D01*
X0032549Y0027545D01*
X0033996Y0028992D01*
X0033996Y0064789D01*
X0033293Y0065492D01*
X0011831Y0086955D01*
X0011831Y0091030D01*
X0013956Y0091030D01*
X0014483Y0091557D01*
X0014483Y0095846D01*
X0014483Y0092872D02*
X0026069Y0092872D01*
X0026069Y0092274D02*
X0014483Y0092274D01*
X0014483Y0091675D02*
X0026069Y0091675D01*
X0026550Y0091077D02*
X0014003Y0091077D01*
X0011831Y0090478D02*
X0038500Y0090478D01*
X0038500Y0089880D02*
X0011831Y0089880D01*
X0011831Y0089281D02*
X0038500Y0089281D01*
X0038500Y0088683D02*
X0011831Y0088683D01*
X0011831Y0088084D02*
X0038500Y0088084D01*
X0038500Y0087486D02*
X0011831Y0087486D01*
X0011898Y0086887D02*
X0038500Y0086887D01*
X0038500Y0086289D02*
X0012497Y0086289D01*
X0013095Y0085690D02*
X0038500Y0085690D01*
X0038500Y0085092D02*
X0013694Y0085092D01*
X0014292Y0084493D02*
X0038500Y0084493D01*
X0038500Y0083895D02*
X0014891Y0083895D01*
X0015489Y0083296D02*
X0038500Y0083296D01*
X0038500Y0082698D02*
X0016088Y0082698D01*
X0016686Y0082099D02*
X0038500Y0082099D01*
X0038500Y0081501D02*
X0017285Y0081501D01*
X0017883Y0080902D02*
X0038500Y0080902D01*
X0038500Y0080303D02*
X0018482Y0080303D01*
X0019080Y0079705D02*
X0038500Y0079705D01*
X0038500Y0079106D02*
X0019679Y0079106D01*
X0020277Y0078508D02*
X0038500Y0078508D01*
X0038500Y0077909D02*
X0020876Y0077909D01*
X0021474Y0077311D02*
X0038500Y0077311D01*
X0038500Y0076712D02*
X0022073Y0076712D01*
X0022671Y0076114D02*
X0038500Y0076114D01*
X0038500Y0075515D02*
X0023270Y0075515D01*
X0023868Y0074917D02*
X0038500Y0074917D01*
X0038500Y0074318D02*
X0024467Y0074318D01*
X0025065Y0073720D02*
X0038500Y0073720D01*
X0038500Y0073121D02*
X0025664Y0073121D01*
X0026262Y0072523D02*
X0038500Y0072523D01*
X0038500Y0071924D02*
X0026861Y0071924D01*
X0027459Y0071326D02*
X0038500Y0071326D01*
X0038500Y0070727D02*
X0028058Y0070727D01*
X0028656Y0070129D02*
X0038500Y0070129D01*
X0038500Y0069530D02*
X0029255Y0069530D01*
X0029853Y0068932D02*
X0038500Y0068932D01*
X0038500Y0068333D02*
X0030452Y0068333D01*
X0031050Y0067735D02*
X0038500Y0067735D01*
X0038500Y0067136D02*
X0031649Y0067136D01*
X0032247Y0066538D02*
X0038500Y0066538D01*
X0038500Y0065939D02*
X0032846Y0065939D01*
X0033445Y0065341D02*
X0038500Y0065341D01*
X0038500Y0064742D02*
X0033996Y0064742D01*
X0033996Y0064144D02*
X0038500Y0064144D01*
X0038500Y0063545D02*
X0033996Y0063545D01*
X0033996Y0062947D02*
X0038500Y0062947D01*
X0038500Y0062348D02*
X0033996Y0062348D01*
X0033996Y0061750D02*
X0038500Y0061750D01*
X0038500Y0061151D02*
X0033996Y0061151D01*
X0033996Y0060553D02*
X0038500Y0060553D01*
X0038500Y0059954D02*
X0033996Y0059954D01*
X0033996Y0059356D02*
X0038500Y0059356D01*
X0038500Y0058757D02*
X0033996Y0058757D01*
X0033996Y0058159D02*
X0038500Y0058159D01*
X0038500Y0057560D02*
X0033996Y0057560D01*
X0033996Y0056962D02*
X0038500Y0056962D01*
X0038500Y0056363D02*
X0033996Y0056363D01*
X0033996Y0055765D02*
X0038500Y0055765D01*
X0038500Y0055166D02*
X0033996Y0055166D01*
X0033996Y0054568D02*
X0038500Y0054568D01*
X0038500Y0053969D02*
X0033996Y0053969D01*
X0033996Y0053370D02*
X0038500Y0053370D01*
X0038500Y0052772D02*
X0033996Y0052772D01*
X0033996Y0052173D02*
X0038500Y0052173D01*
X0038500Y0051575D02*
X0033996Y0051575D01*
X0033996Y0050976D02*
X0038500Y0050976D01*
X0038500Y0050378D02*
X0033996Y0050378D01*
X0033996Y0049779D02*
X0038500Y0049779D01*
X0038500Y0049181D02*
X0033996Y0049181D01*
X0033996Y0048582D02*
X0038500Y0048582D01*
X0038500Y0047984D02*
X0033996Y0047984D01*
X0033996Y0047385D02*
X0038500Y0047385D01*
X0038500Y0046787D02*
X0033996Y0046787D01*
X0033996Y0046188D02*
X0038500Y0046188D01*
X0038500Y0045590D02*
X0033996Y0045590D01*
X0033996Y0044991D02*
X0038500Y0044991D01*
X0038500Y0044393D02*
X0033996Y0044393D01*
X0033996Y0043794D02*
X0038500Y0043794D01*
X0038500Y0043196D02*
X0033996Y0043196D01*
X0033996Y0042597D02*
X0038500Y0042597D01*
X0038500Y0041999D02*
X0033996Y0041999D01*
X0033996Y0041400D02*
X0038500Y0041400D01*
X0038500Y0040802D02*
X0033996Y0040802D01*
X0033996Y0040203D02*
X0038500Y0040203D01*
X0038500Y0039605D02*
X0033996Y0039605D01*
X0033996Y0039006D02*
X0038500Y0039006D01*
X0038500Y0038408D02*
X0033996Y0038408D01*
X0033996Y0037809D02*
X0038500Y0037809D01*
X0038500Y0037211D02*
X0033996Y0037211D01*
X0033996Y0036612D02*
X0038500Y0036612D01*
X0038500Y0036014D02*
X0033996Y0036014D01*
X0033996Y0035415D02*
X0038500Y0035415D01*
X0038500Y0034817D02*
X0033996Y0034817D01*
X0033996Y0034218D02*
X0038500Y0034218D01*
X0038500Y0033620D02*
X0033996Y0033620D01*
X0033996Y0033021D02*
X0038500Y0033021D01*
X0038500Y0032423D02*
X0033996Y0032423D01*
X0033996Y0031824D02*
X0038500Y0031824D01*
X0038500Y0031226D02*
X0033996Y0031226D01*
X0033996Y0030627D02*
X0038500Y0030627D01*
X0038500Y0030029D02*
X0033996Y0030029D01*
X0033996Y0029430D02*
X0038500Y0029430D01*
X0038500Y0028832D02*
X0033836Y0028832D01*
X0033237Y0028233D02*
X0038500Y0028233D01*
X0038500Y0027634D02*
X0032639Y0027634D01*
X0032554Y0027036D02*
X0038500Y0027036D01*
X0038500Y0026437D02*
X0032554Y0026437D01*
X0032554Y0025839D02*
X0038500Y0025839D01*
X0038500Y0025240D02*
X0032554Y0025240D01*
X0032554Y0024642D02*
X0038500Y0024642D01*
X0038500Y0024043D02*
X0032554Y0024043D01*
X0032554Y0023445D02*
X0038500Y0023445D01*
X0038500Y0022846D02*
X0032151Y0022846D01*
X0028702Y0025394D02*
X0032796Y0029489D01*
X0032796Y0064292D01*
X0010631Y0086457D01*
X0010631Y0093702D01*
X0009431Y0090478D02*
X0005600Y0090478D01*
X0005600Y0089880D02*
X0009431Y0089880D01*
X0009431Y0089281D02*
X0005600Y0089281D01*
X0005600Y0088683D02*
X0009431Y0088683D01*
X0009431Y0088084D02*
X0005600Y0088084D01*
X0005600Y0087486D02*
X0009431Y0087486D01*
X0009431Y0086887D02*
X0005600Y0086887D01*
X0005600Y0086289D02*
X0009431Y0086289D01*
X0009701Y0085690D02*
X0005600Y0085690D01*
X0005600Y0085092D02*
X0010300Y0085092D01*
X0010898Y0084493D02*
X0005600Y0084493D01*
X0005600Y0083895D02*
X0011497Y0083895D01*
X0012095Y0083296D02*
X0005600Y0083296D01*
X0005600Y0082698D02*
X0012694Y0082698D01*
X0013292Y0082099D02*
X0005600Y0082099D01*
X0005600Y0081501D02*
X0013891Y0081501D01*
X0014489Y0080902D02*
X0005600Y0080902D01*
X0005600Y0080303D02*
X0015088Y0080303D01*
X0015686Y0079705D02*
X0005600Y0079705D01*
X0005600Y0079106D02*
X0016285Y0079106D01*
X0016883Y0078508D02*
X0005600Y0078508D01*
X0005600Y0077909D02*
X0017482Y0077909D01*
X0018080Y0077311D02*
X0005600Y0077311D01*
X0005600Y0076712D02*
X0018679Y0076712D01*
X0019277Y0076114D02*
X0005600Y0076114D01*
X0005600Y0075515D02*
X0019876Y0075515D01*
X0020474Y0074917D02*
X0005600Y0074917D01*
X0005600Y0074318D02*
X0021073Y0074318D01*
X0021671Y0073720D02*
X0005600Y0073720D01*
X0005600Y0073121D02*
X0022270Y0073121D01*
X0022868Y0072523D02*
X0005600Y0072523D01*
X0005600Y0071924D02*
X0023467Y0071924D01*
X0024065Y0071326D02*
X0005600Y0071326D01*
X0005600Y0070727D02*
X0024664Y0070727D01*
X0025262Y0070129D02*
X0005600Y0070129D01*
X0005600Y0069530D02*
X0015103Y0069530D01*
X0015214Y0069576D02*
X0011825Y0068173D01*
X0009231Y0065579D01*
X0007827Y0062189D01*
X0007827Y0058521D01*
X0009231Y0055132D01*
X0011825Y0052538D01*
X0015214Y0051134D01*
X0018882Y0051134D01*
X0022271Y0052538D01*
X0024865Y0055132D01*
X0026269Y0058521D01*
X0026269Y0062189D01*
X0024865Y0065579D01*
X0022271Y0068173D01*
X0018882Y0069576D01*
X0015214Y0069576D01*
X0013658Y0068932D02*
X0005600Y0068932D01*
X0005600Y0068333D02*
X0012213Y0068333D01*
X0011387Y0067735D02*
X0005600Y0067735D01*
X0005600Y0067136D02*
X0010788Y0067136D01*
X0010190Y0066538D02*
X0005600Y0066538D01*
X0005600Y0065939D02*
X0009591Y0065939D01*
X0009132Y0065341D02*
X0005600Y0065341D01*
X0005600Y0064742D02*
X0008884Y0064742D01*
X0008636Y0064144D02*
X0005600Y0064144D01*
X0005600Y0063545D02*
X0008388Y0063545D01*
X0008140Y0062947D02*
X0005600Y0062947D01*
X0005600Y0062348D02*
X0007893Y0062348D01*
X0007827Y0061750D02*
X0005600Y0061750D01*
X0005600Y0061151D02*
X0007827Y0061151D01*
X0007827Y0060553D02*
X0005600Y0060553D01*
X0005600Y0059954D02*
X0007827Y0059954D01*
X0007827Y0059356D02*
X0005600Y0059356D01*
X0005600Y0058757D02*
X0007827Y0058757D01*
X0007977Y0058159D02*
X0005600Y0058159D01*
X0005600Y0057560D02*
X0008225Y0057560D01*
X0008473Y0056962D02*
X0005600Y0056962D01*
X0005600Y0056363D02*
X0008721Y0056363D01*
X0008968Y0055765D02*
X0005600Y0055765D01*
X0005600Y0055166D02*
X0009216Y0055166D01*
X0009100Y0055300D02*
X0006700Y0057700D01*
X0006700Y0102700D01*
X0010300Y0106300D01*
X0010631Y0106694D01*
X0010900Y0106900D01*
X0013900Y0109900D01*
X0033100Y0109900D01*
X0036700Y0106300D01*
X0043300Y0106300D01*
X0043623Y0106221D01*
X0043900Y0106300D01*
X0055300Y0106300D01*
X0058300Y0109300D01*
X0072100Y0109300D01*
X0075700Y0105700D01*
X0076103Y0105237D01*
X0076300Y0105700D01*
X0077500Y0106900D01*
X0085900Y0106900D01*
X0086182Y0107048D01*
X0086500Y0106900D01*
X0091300Y0106900D01*
X0090435Y0106748D02*
X0086482Y0106748D01*
X0086482Y0107348D01*
X0090435Y0107348D01*
X0090435Y0108991D01*
X0090346Y0109321D01*
X0090175Y0109618D01*
X0089933Y0109860D01*
X0089636Y0110031D01*
X0089306Y0110120D01*
X0086482Y0110120D01*
X0086482Y0107348D01*
X0085882Y0107348D01*
X0085882Y0110120D01*
X0083058Y0110120D01*
X0082727Y0110031D01*
X0082431Y0109860D01*
X0082189Y0109618D01*
X0082018Y0109321D01*
X0081929Y0108991D01*
X0081929Y0107348D01*
X0085882Y0107348D01*
X0085882Y0106748D01*
X0086482Y0106748D01*
X0086482Y0103976D01*
X0089306Y0103976D01*
X0089636Y0104065D01*
X0089933Y0104236D01*
X0090175Y0104478D01*
X0090346Y0104775D01*
X0090435Y0105105D01*
X0090435Y0106748D01*
X0090435Y0106638D02*
X0097911Y0106638D01*
X0097911Y0107237D02*
X0086482Y0107237D01*
X0086482Y0107835D02*
X0085882Y0107835D01*
X0085882Y0107237D02*
X0080946Y0107237D01*
X0080946Y0107835D02*
X0081929Y0107835D01*
X0081929Y0108434D02*
X0080946Y0108434D01*
X0080946Y0108558D02*
X0080858Y0108888D01*
X0080687Y0109185D01*
X0080445Y0109427D01*
X0080148Y0109598D01*
X0079818Y0109687D01*
X0076403Y0109687D01*
X0076403Y0105537D01*
X0075803Y0105537D01*
X0075803Y0104937D01*
X0076403Y0104937D01*
X0076403Y0100787D01*
X0079818Y0100787D01*
X0080148Y0100876D01*
X0080445Y0101047D01*
X0080687Y0101289D01*
X0080858Y0101586D01*
X0080946Y0101916D01*
X0080946Y0104937D01*
X0076403Y0104937D01*
X0076403Y0105537D01*
X0080946Y0105537D01*
X0080946Y0108558D01*
X0080775Y0109032D02*
X0081940Y0109032D01*
X0082202Y0109631D02*
X0080027Y0109631D01*
X0080946Y0106638D02*
X0081929Y0106638D01*
X0081929Y0106748D02*
X0081929Y0105105D01*
X0082018Y0104775D01*
X0082189Y0104478D01*
X0082431Y0104236D01*
X0082727Y0104065D01*
X0083058Y0103976D01*
X0085882Y0103976D01*
X0085882Y0106748D01*
X0081929Y0106748D01*
X0081929Y0106039D02*
X0080946Y0106039D01*
X0081929Y0105441D02*
X0076403Y0105441D01*
X0076403Y0106039D02*
X0075803Y0106039D01*
X0075803Y0105537D02*
X0075803Y0109687D01*
X0072389Y0109687D01*
X0072058Y0109598D01*
X0071762Y0109427D01*
X0071520Y0109185D01*
X0071348Y0108888D01*
X0071260Y0108558D01*
X0071260Y0105537D01*
X0075803Y0105537D01*
X0075803Y0105441D02*
X0069649Y0105441D01*
X0070185Y0104842D02*
X0071260Y0104842D01*
X0071260Y0104244D02*
X0070433Y0104244D01*
X0070681Y0103645D02*
X0071260Y0103645D01*
X0071260Y0103047D02*
X0070929Y0103047D01*
X0071177Y0102448D02*
X0071260Y0102448D01*
X0071545Y0101251D02*
X0071557Y0101251D01*
X0071545Y0100653D02*
X0111173Y0100653D01*
X0111173Y0101251D02*
X0080649Y0101251D01*
X0080929Y0101850D02*
X0111173Y0101850D01*
X0111173Y0102448D02*
X0080946Y0102448D01*
X0080946Y0103047D02*
X0111173Y0103047D01*
X0111173Y0103645D02*
X0080946Y0103645D01*
X0080946Y0104244D02*
X0082423Y0104244D01*
X0082000Y0104842D02*
X0080946Y0104842D01*
X0076403Y0104842D02*
X0075803Y0104842D01*
X0075803Y0104244D02*
X0076403Y0104244D01*
X0076403Y0103645D02*
X0075803Y0103645D01*
X0075803Y0103047D02*
X0076403Y0103047D01*
X0076403Y0102448D02*
X0075803Y0102448D01*
X0075803Y0101850D02*
X0076403Y0101850D01*
X0076403Y0101251D02*
X0075803Y0101251D01*
X0071545Y0100054D02*
X0111173Y0100054D01*
X0111173Y0099456D02*
X0071545Y0099456D01*
X0071545Y0098857D02*
X0111173Y0098857D01*
X0111173Y0098259D02*
X0080023Y0098259D01*
X0080546Y0097660D02*
X0111173Y0097660D01*
X0111173Y0097062D02*
X0080546Y0097062D01*
X0080546Y0096463D02*
X0082592Y0096463D01*
X0082329Y0095865D02*
X0080546Y0095865D01*
X0080546Y0095266D02*
X0082329Y0095266D01*
X0082329Y0094668D02*
X0080546Y0094668D01*
X0080546Y0094069D02*
X0082329Y0094069D01*
X0082329Y0093471D02*
X0080546Y0093471D01*
X0080546Y0092872D02*
X0082329Y0092872D01*
X0078700Y0091300D02*
X0076300Y0093700D01*
X0076103Y0094213D01*
X0075700Y0093700D01*
X0072100Y0090100D01*
X0058900Y0090100D01*
X0054100Y0094900D01*
X0043900Y0094900D01*
X0043623Y0095198D01*
X0043300Y0094900D01*
X0042700Y0094300D01*
X0039700Y0094300D01*
X0039180Y0095865D02*
X0033756Y0095865D01*
X0033775Y0092872D02*
X0038500Y0092872D01*
X0038500Y0092274D02*
X0033775Y0092274D01*
X0033775Y0091675D02*
X0038500Y0091675D01*
X0038500Y0091077D02*
X0033294Y0091077D01*
X0039180Y0096463D02*
X0005600Y0096463D01*
X0005600Y0095865D02*
X0006797Y0095865D01*
X0006778Y0095266D02*
X0005600Y0095266D01*
X0005600Y0094668D02*
X0006778Y0094668D01*
X0006778Y0094069D02*
X0005600Y0094069D01*
X0005600Y0093471D02*
X0006778Y0093471D01*
X0006778Y0092872D02*
X0005600Y0092872D01*
X0005600Y0092274D02*
X0006778Y0092274D01*
X0006778Y0091675D02*
X0005600Y0091675D01*
X0005600Y0091077D02*
X0007258Y0091077D01*
X0005600Y0097062D02*
X0039180Y0097062D01*
X0039180Y0097660D02*
X0005600Y0097660D01*
X0005600Y0098259D02*
X0039180Y0098259D01*
X0039317Y0098857D02*
X0005600Y0098857D01*
X0005600Y0099456D02*
X0053102Y0099456D01*
X0053102Y0100054D02*
X0005600Y0100054D01*
X0005600Y0100653D02*
X0053102Y0100653D01*
X0053102Y0101251D02*
X0005600Y0101251D01*
X0005600Y0101850D02*
X0039616Y0101850D01*
X0039578Y0101860D02*
X0039908Y0101772D01*
X0043323Y0101772D01*
X0043323Y0105921D01*
X0043923Y0105921D01*
X0043923Y0101772D01*
X0047337Y0101772D01*
X0047668Y0101860D01*
X0047964Y0102031D01*
X0048206Y0102273D01*
X0048378Y0102570D01*
X0048466Y0102900D01*
X0048466Y0105921D01*
X0043923Y0105921D01*
X0043923Y0106521D01*
X0048466Y0106521D01*
X0048466Y0109542D01*
X0048378Y0109873D01*
X0048206Y0110169D01*
X0047964Y0110411D01*
X0047668Y0110582D01*
X0047337Y0110671D01*
X0043923Y0110671D01*
X0043923Y0106521D01*
X0043323Y0106521D01*
X0043323Y0105921D01*
X0038780Y0105921D01*
X0038780Y0102900D01*
X0038868Y0102570D01*
X0039039Y0102273D01*
X0039281Y0102031D01*
X0039578Y0101860D01*
X0038938Y0102448D02*
X0005600Y0102448D01*
X0005600Y0103047D02*
X0038780Y0103047D01*
X0038780Y0103645D02*
X0013842Y0103645D01*
X0013755Y0103622D02*
X0014085Y0103711D01*
X0014382Y0103882D01*
X0014624Y0104124D01*
X0014795Y0104420D01*
X0014883Y0104751D01*
X0014883Y0106394D01*
X0010931Y0106394D01*
X0010931Y0106994D01*
X0010331Y0106994D01*
X0010331Y0109765D01*
X0007507Y0109765D01*
X0007176Y0109677D01*
X0006880Y0109506D01*
X0006638Y0109264D01*
X0006467Y0108967D01*
X0006378Y0108637D01*
X0006378Y0106994D01*
X0010331Y0106994D01*
X0010331Y0106394D01*
X0006378Y0106394D01*
X0006378Y0104751D01*
X0006467Y0104420D01*
X0006638Y0104124D01*
X0006880Y0103882D01*
X0007176Y0103711D01*
X0007507Y0103622D01*
X0010331Y0103622D01*
X0010331Y0106394D01*
X0010931Y0106394D01*
X0010931Y0103622D01*
X0013755Y0103622D01*
X0014693Y0104244D02*
X0026375Y0104244D01*
X0026596Y0104022D02*
X0033248Y0104022D01*
X0033775Y0104549D01*
X0033775Y0108838D01*
X0033248Y0109365D01*
X0026596Y0109365D01*
X0026069Y0108838D01*
X0026069Y0104549D01*
X0026596Y0104022D01*
X0026069Y0104842D02*
X0014883Y0104842D01*
X0014883Y0105441D02*
X0026069Y0105441D01*
X0026069Y0106039D02*
X0014883Y0106039D01*
X0014883Y0106994D02*
X0014883Y0108637D01*
X0014795Y0108967D01*
X0014624Y0109264D01*
X0014382Y0109506D01*
X0014085Y0109677D01*
X0013755Y0109765D01*
X0010931Y0109765D01*
X0010931Y0106994D01*
X0014883Y0106994D01*
X0014883Y0107237D02*
X0026069Y0107237D01*
X0026069Y0107835D02*
X0014883Y0107835D01*
X0014883Y0108434D02*
X0026069Y0108434D01*
X0026263Y0109032D02*
X0014757Y0109032D01*
X0014165Y0109631D02*
X0038803Y0109631D01*
X0038780Y0109542D02*
X0038780Y0106521D01*
X0043323Y0106521D01*
X0043323Y0110671D01*
X0039908Y0110671D01*
X0039578Y0110582D01*
X0039281Y0110411D01*
X0039039Y0110169D01*
X0038868Y0109873D01*
X0038780Y0109542D01*
X0038780Y0109032D02*
X0033581Y0109032D01*
X0033775Y0108434D02*
X0038780Y0108434D01*
X0038780Y0107835D02*
X0033775Y0107835D01*
X0033775Y0107237D02*
X0038780Y0107237D01*
X0038780Y0106638D02*
X0033775Y0106638D01*
X0033775Y0106039D02*
X0043323Y0106039D01*
X0043323Y0105441D02*
X0043923Y0105441D01*
X0043923Y0106039D02*
X0055597Y0106039D01*
X0054999Y0105441D02*
X0048466Y0105441D01*
X0048466Y0104842D02*
X0054462Y0104842D01*
X0054214Y0104244D02*
X0048466Y0104244D01*
X0048466Y0103645D02*
X0053966Y0103645D01*
X0053719Y0103047D02*
X0048466Y0103047D01*
X0048307Y0102448D02*
X0053471Y0102448D01*
X0053223Y0101850D02*
X0047629Y0101850D01*
X0047929Y0098857D02*
X0053102Y0098857D01*
X0053102Y0098259D02*
X0048066Y0098259D01*
X0048066Y0097660D02*
X0053198Y0097660D01*
X0053446Y0097062D02*
X0048066Y0097062D01*
X0048066Y0096463D02*
X0053694Y0096463D01*
X0053603Y0093700D02*
X0057700Y0089603D01*
X0055029Y0092274D02*
X0048066Y0092274D01*
X0048066Y0092872D02*
X0054431Y0092872D01*
X0053832Y0093471D02*
X0048066Y0093471D01*
X0048066Y0093700D02*
X0053603Y0093700D01*
X0048066Y0093700D02*
X0048066Y0091675D01*
X0040900Y0088683D02*
X0109641Y0088683D01*
X0110063Y0089281D02*
X0072978Y0089281D01*
X0073577Y0089880D02*
X0110486Y0089880D01*
X0110908Y0090478D02*
X0093975Y0090478D01*
X0094300Y0090803D02*
X0094300Y0090803D01*
X0094574Y0091077D02*
X0111173Y0091077D01*
X0111173Y0091675D02*
X0109090Y0091675D01*
X0109326Y0092274D02*
X0111173Y0092274D01*
X0111173Y0092872D02*
X0109326Y0092872D01*
X0109326Y0093471D02*
X0111173Y0093471D01*
X0111173Y0094069D02*
X0109326Y0094069D01*
X0109326Y0094668D02*
X0111173Y0094668D01*
X0111173Y0095266D02*
X0109326Y0095266D01*
X0109326Y0095865D02*
X0111173Y0095865D01*
X0111173Y0096463D02*
X0109063Y0096463D01*
X0105473Y0094056D02*
X0105100Y0093700D01*
X0095500Y0093700D01*
X0093100Y0091300D01*
X0078700Y0091300D01*
X0071660Y0091675D02*
X0066986Y0091675D01*
X0067913Y0092274D02*
X0071660Y0092274D01*
X0071660Y0092872D02*
X0068511Y0092872D01*
X0069110Y0093471D02*
X0071660Y0093471D01*
X0071660Y0094069D02*
X0069709Y0094069D01*
X0070210Y0094668D02*
X0071660Y0094668D01*
X0071660Y0095266D02*
X0070458Y0095266D01*
X0070706Y0095865D02*
X0071660Y0095865D01*
X0071660Y0096463D02*
X0070954Y0096463D01*
X0071201Y0097062D02*
X0071660Y0097062D01*
X0071660Y0097660D02*
X0071449Y0097660D01*
X0071545Y0098259D02*
X0072183Y0098259D01*
X0071260Y0106039D02*
X0069050Y0106039D01*
X0068452Y0106638D02*
X0071260Y0106638D01*
X0071260Y0107237D02*
X0067853Y0107237D01*
X0066841Y0107835D02*
X0071260Y0107835D01*
X0071260Y0108434D02*
X0065396Y0108434D01*
X0071431Y0109032D02*
X0048466Y0109032D01*
X0048466Y0108434D02*
X0059251Y0108434D01*
X0057806Y0107835D02*
X0048466Y0107835D01*
X0048466Y0107237D02*
X0056794Y0107237D01*
X0056196Y0106638D02*
X0048466Y0106638D01*
X0048442Y0109631D02*
X0072180Y0109631D01*
X0075803Y0109631D02*
X0076403Y0109631D01*
X0076403Y0109032D02*
X0075803Y0109032D01*
X0075803Y0108434D02*
X0076403Y0108434D01*
X0076403Y0107835D02*
X0075803Y0107835D01*
X0075803Y0107237D02*
X0076403Y0107237D01*
X0076403Y0106638D02*
X0075803Y0106638D01*
X0085882Y0106638D02*
X0086482Y0106638D01*
X0086482Y0106039D02*
X0085882Y0106039D01*
X0085882Y0105441D02*
X0086482Y0105441D01*
X0086482Y0104842D02*
X0085882Y0104842D01*
X0085882Y0104244D02*
X0086482Y0104244D01*
X0089941Y0104244D02*
X0111173Y0104244D01*
X0111173Y0104842D02*
X0109265Y0104842D01*
X0109326Y0104904D02*
X0109326Y0109192D01*
X0108799Y0109720D01*
X0102148Y0109720D01*
X0101620Y0109192D01*
X0101620Y0108958D01*
X0101290Y0109289D01*
X0099310Y0109289D01*
X0097911Y0107890D01*
X0097911Y0105910D01*
X0099310Y0104511D01*
X0101290Y0104511D01*
X0101651Y0104873D01*
X0102148Y0104376D01*
X0108799Y0104376D01*
X0109326Y0104904D01*
X0109326Y0105441D02*
X0111173Y0105441D01*
X0111173Y0106039D02*
X0109326Y0106039D01*
X0109326Y0106638D02*
X0111173Y0106638D01*
X0111173Y0107237D02*
X0109326Y0107237D01*
X0109326Y0107835D02*
X0111173Y0107835D01*
X0111173Y0108434D02*
X0109326Y0108434D01*
X0109326Y0109032D02*
X0111173Y0109032D01*
X0111173Y0109631D02*
X0108888Y0109631D01*
X0111173Y0110229D02*
X0048146Y0110229D01*
X0043923Y0110229D02*
X0043323Y0110229D01*
X0043323Y0109631D02*
X0043923Y0109631D01*
X0043923Y0109032D02*
X0043323Y0109032D01*
X0043323Y0108434D02*
X0043923Y0108434D01*
X0043923Y0107835D02*
X0043323Y0107835D01*
X0043323Y0107237D02*
X0043923Y0107237D01*
X0043923Y0106638D02*
X0043323Y0106638D01*
X0043323Y0104842D02*
X0043923Y0104842D01*
X0043923Y0104244D02*
X0043323Y0104244D01*
X0043323Y0103645D02*
X0043923Y0103645D01*
X0043923Y0103047D02*
X0043323Y0103047D01*
X0043323Y0102448D02*
X0043923Y0102448D01*
X0043923Y0101850D02*
X0043323Y0101850D01*
X0038780Y0104244D02*
X0033469Y0104244D01*
X0033775Y0104842D02*
X0038780Y0104842D01*
X0038780Y0105441D02*
X0033775Y0105441D01*
X0039099Y0110229D02*
X0005600Y0110229D01*
X0005600Y0109631D02*
X0007096Y0109631D01*
X0006504Y0109032D02*
X0005600Y0109032D01*
X0005600Y0108434D02*
X0006378Y0108434D01*
X0006378Y0107835D02*
X0005600Y0107835D01*
X0005600Y0107237D02*
X0006378Y0107237D01*
X0005600Y0106638D02*
X0010331Y0106638D01*
X0010331Y0107237D02*
X0010931Y0107237D01*
X0010931Y0107835D02*
X0010331Y0107835D01*
X0010331Y0108434D02*
X0010931Y0108434D01*
X0010931Y0109032D02*
X0010331Y0109032D01*
X0010331Y0109631D02*
X0010931Y0109631D01*
X0010931Y0106638D02*
X0026069Y0106638D01*
X0010931Y0106039D02*
X0010331Y0106039D01*
X0010331Y0105441D02*
X0010931Y0105441D01*
X0010931Y0104842D02*
X0010331Y0104842D01*
X0010331Y0104244D02*
X0010931Y0104244D01*
X0010931Y0103645D02*
X0010331Y0103645D01*
X0007420Y0103645D02*
X0005600Y0103645D01*
X0005600Y0104244D02*
X0006568Y0104244D01*
X0006378Y0104842D02*
X0005600Y0104842D01*
X0005600Y0105441D02*
X0006378Y0105441D01*
X0006378Y0106039D02*
X0005600Y0106039D01*
X0005600Y0110828D02*
X0111173Y0110828D01*
X0105473Y0107048D02*
X0105100Y0106900D01*
X0100300Y0106900D01*
X0098455Y0108434D02*
X0090435Y0108434D01*
X0090424Y0109032D02*
X0099054Y0109032D01*
X0097911Y0107835D02*
X0090435Y0107835D01*
X0090435Y0106039D02*
X0097911Y0106039D01*
X0098380Y0105441D02*
X0090435Y0105441D01*
X0090364Y0104842D02*
X0098979Y0104842D01*
X0101621Y0104842D02*
X0101682Y0104842D01*
X0101620Y0109032D02*
X0101546Y0109032D01*
X0102059Y0109631D02*
X0090162Y0109631D01*
X0086482Y0109631D02*
X0085882Y0109631D01*
X0085882Y0109032D02*
X0086482Y0109032D01*
X0086482Y0108434D02*
X0085882Y0108434D01*
X0089772Y0096463D02*
X0091285Y0096463D01*
X0090686Y0095865D02*
X0090035Y0095865D01*
X0092500Y0094300D02*
X0086500Y0094300D01*
X0086182Y0094056D01*
X0093715Y0096463D02*
X0101883Y0096463D01*
X0101620Y0095865D02*
X0094314Y0095865D01*
X0094889Y0095266D02*
X0101620Y0095266D01*
X0101620Y0092274D02*
X0095771Y0092274D01*
X0095172Y0091675D02*
X0101857Y0091675D01*
X0108373Y0086887D02*
X0040900Y0086887D01*
X0040900Y0086289D02*
X0107951Y0086289D01*
X0107528Y0085690D02*
X0040900Y0085690D01*
X0040900Y0085092D02*
X0107106Y0085092D01*
X0106683Y0084493D02*
X0040900Y0084493D01*
X0040900Y0083895D02*
X0106261Y0083895D01*
X0105838Y0083296D02*
X0040900Y0083296D01*
X0040900Y0082698D02*
X0105416Y0082698D01*
X0104993Y0082099D02*
X0040900Y0082099D01*
X0040900Y0081501D02*
X0104571Y0081501D01*
X0104148Y0080902D02*
X0040900Y0080902D01*
X0040900Y0080303D02*
X0103726Y0080303D01*
X0103304Y0079705D02*
X0065287Y0079705D01*
X0067520Y0079106D02*
X0102881Y0079106D01*
X0102366Y0078508D02*
X0069754Y0078508D01*
X0070834Y0077909D02*
X0102036Y0077909D01*
X0101870Y0077311D02*
X0071870Y0077311D01*
X0059360Y0079705D02*
X0040900Y0079705D01*
X0040900Y0079106D02*
X0057127Y0079106D01*
X0054893Y0078508D02*
X0040900Y0078508D01*
X0040900Y0077909D02*
X0053814Y0077909D01*
X0052777Y0077311D02*
X0040900Y0077311D01*
X0040900Y0076712D02*
X0051740Y0076712D01*
X0050704Y0076114D02*
X0040900Y0076114D01*
X0040900Y0075515D02*
X0049967Y0075515D01*
X0049368Y0074917D02*
X0040900Y0074917D01*
X0040900Y0074318D02*
X0048770Y0074318D01*
X0048171Y0073720D02*
X0040900Y0073720D01*
X0040900Y0073121D02*
X0047573Y0073121D01*
X0046974Y0072523D02*
X0040900Y0072523D01*
X0040900Y0071924D02*
X0046536Y0071924D01*
X0046190Y0071326D02*
X0040900Y0071326D01*
X0040900Y0070727D02*
X0045844Y0070727D01*
X0045499Y0070129D02*
X0040900Y0070129D01*
X0040900Y0069530D02*
X0045153Y0069530D01*
X0044808Y0068932D02*
X0040900Y0068932D01*
X0040900Y0068333D02*
X0044462Y0068333D01*
X0044157Y0067735D02*
X0040900Y0067735D01*
X0040900Y0067136D02*
X0043997Y0067136D01*
X0043836Y0066538D02*
X0040900Y0066538D01*
X0040900Y0065939D02*
X0043676Y0065939D01*
X0043516Y0065341D02*
X0040900Y0065341D01*
X0040900Y0064742D02*
X0043355Y0064742D01*
X0043195Y0064144D02*
X0040900Y0064144D01*
X0040900Y0063545D02*
X0043035Y0063545D01*
X0042874Y0062947D02*
X0040900Y0062947D01*
X0040900Y0062348D02*
X0042866Y0062348D01*
X0042866Y0061750D02*
X0040900Y0061750D01*
X0040900Y0061151D02*
X0042866Y0061151D01*
X0042866Y0060553D02*
X0040900Y0060553D01*
X0040900Y0059954D02*
X0042866Y0059954D01*
X0042866Y0059356D02*
X0040900Y0059356D01*
X0040900Y0058757D02*
X0042866Y0058757D01*
X0042866Y0058159D02*
X0040900Y0058159D01*
X0040900Y0057560D02*
X0042929Y0057560D01*
X0043089Y0056962D02*
X0040900Y0056962D01*
X0040900Y0056363D02*
X0043249Y0056363D01*
X0043410Y0055765D02*
X0040900Y0055765D01*
X0040900Y0055166D02*
X0043570Y0055166D01*
X0043731Y0054568D02*
X0040900Y0054568D01*
X0040900Y0053969D02*
X0043891Y0053969D01*
X0044051Y0053370D02*
X0040900Y0053370D01*
X0040900Y0052772D02*
X0044234Y0052772D01*
X0044580Y0052173D02*
X0040900Y0052173D01*
X0040900Y0051575D02*
X0044925Y0051575D01*
X0045271Y0050976D02*
X0040900Y0050976D01*
X0040900Y0050378D02*
X0045616Y0050378D01*
X0045962Y0049779D02*
X0040900Y0049779D01*
X0040900Y0049181D02*
X0046307Y0049181D01*
X0046653Y0048582D02*
X0040900Y0048582D01*
X0040900Y0047984D02*
X0047178Y0047984D01*
X0047776Y0047385D02*
X0040900Y0047385D01*
X0040900Y0046787D02*
X0048375Y0046787D01*
X0048973Y0046188D02*
X0040900Y0046188D01*
X0040900Y0045590D02*
X0049572Y0045590D01*
X0050170Y0044991D02*
X0040900Y0044991D01*
X0040900Y0044393D02*
X0051056Y0044393D01*
X0052093Y0043794D02*
X0040900Y0043794D01*
X0040900Y0043196D02*
X0053129Y0043196D01*
X0054166Y0042597D02*
X0040900Y0042597D01*
X0040900Y0041999D02*
X0055653Y0041999D01*
X0057886Y0041400D02*
X0040900Y0041400D01*
X0040900Y0040802D02*
X0092500Y0040802D01*
X0092500Y0041400D02*
X0066761Y0041400D01*
X0068995Y0041999D02*
X0092500Y0041999D01*
X0092500Y0042597D02*
X0070481Y0042597D01*
X0071518Y0043196D02*
X0092500Y0043196D01*
X0092500Y0043794D02*
X0072554Y0043794D01*
X0073591Y0044393D02*
X0092500Y0044393D01*
X0092500Y0044991D02*
X0074477Y0044991D01*
X0075075Y0045590D02*
X0092500Y0045590D01*
X0092500Y0046188D02*
X0075674Y0046188D01*
X0076272Y0046787D02*
X0092500Y0046787D01*
X0092500Y0047385D02*
X0076871Y0047385D01*
X0076787Y0030946D02*
X0073373Y0030946D01*
X0073042Y0030858D01*
X0072746Y0030687D01*
X0072504Y0030445D01*
X0072333Y0030148D01*
X0072244Y0029818D01*
X0072244Y0026797D01*
X0076787Y0026797D01*
X0076787Y0026197D01*
X0072244Y0026197D01*
X0072244Y0023176D01*
X0072333Y0022845D01*
X0072504Y0022549D01*
X0072746Y0022307D01*
X0073042Y0022136D01*
X0073373Y0022047D01*
X0076787Y0022047D01*
X0076787Y0026197D01*
X0077387Y0026197D01*
X0077387Y0022047D01*
X0080802Y0022047D01*
X0081132Y0022136D01*
X0081429Y0022307D01*
X0081671Y0022549D01*
X0081842Y0022845D01*
X0081931Y0023176D01*
X0081931Y0026197D01*
X0077387Y0026197D01*
X0077387Y0026797D01*
X0076787Y0026797D01*
X0076787Y0030946D01*
X0076787Y0030627D02*
X0077387Y0030627D01*
X0077387Y0030946D02*
X0077387Y0026797D01*
X0081931Y0026797D01*
X0081931Y0029818D01*
X0081842Y0030148D01*
X0081671Y0030445D01*
X0081429Y0030687D01*
X0081132Y0030858D01*
X0080802Y0030946D01*
X0077387Y0030946D01*
X0077387Y0030029D02*
X0076787Y0030029D01*
X0076787Y0029430D02*
X0077387Y0029430D01*
X0077387Y0028832D02*
X0076787Y0028832D01*
X0076787Y0028233D02*
X0077387Y0028233D01*
X0077387Y0027634D02*
X0076787Y0027634D01*
X0076787Y0027036D02*
X0077387Y0027036D01*
X0077387Y0026437D02*
X0082795Y0026437D01*
X0082795Y0026669D02*
X0082795Y0025026D01*
X0082884Y0024696D01*
X0083055Y0024399D01*
X0083297Y0024157D01*
X0083593Y0023986D01*
X0083924Y0023898D01*
X0086748Y0023898D01*
X0086748Y0026669D01*
X0087348Y0026669D01*
X0087348Y0027269D01*
X0091301Y0027269D01*
X0091301Y0028912D01*
X0091212Y0029243D01*
X0091041Y0029539D01*
X0090799Y0029781D01*
X0090503Y0029952D01*
X0090172Y0030041D01*
X0087348Y0030041D01*
X0087348Y0027269D01*
X0086748Y0027269D01*
X0086748Y0026669D01*
X0082795Y0026669D01*
X0082795Y0027269D02*
X0086748Y0027269D01*
X0086748Y0030041D01*
X0083924Y0030041D01*
X0083593Y0029952D01*
X0083297Y0029781D01*
X0083055Y0029539D01*
X0082884Y0029243D01*
X0082795Y0028912D01*
X0082795Y0027269D01*
X0082795Y0027634D02*
X0081931Y0027634D01*
X0081931Y0027036D02*
X0086748Y0027036D01*
X0086748Y0027634D02*
X0087348Y0027634D01*
X0087348Y0027036D02*
X0091939Y0027036D01*
X0092500Y0027634D02*
X0091301Y0027634D01*
X0091301Y0028233D02*
X0092500Y0028233D01*
X0092500Y0028832D02*
X0091301Y0028832D01*
X0091104Y0029430D02*
X0092500Y0029430D01*
X0092500Y0030029D02*
X0090218Y0030029D01*
X0092500Y0030627D02*
X0081489Y0030627D01*
X0081874Y0030029D02*
X0083878Y0030029D01*
X0082992Y0029430D02*
X0081931Y0029430D01*
X0081931Y0028832D02*
X0082795Y0028832D01*
X0082795Y0028233D02*
X0081931Y0028233D01*
X0081931Y0025839D02*
X0082795Y0025839D01*
X0082795Y0025240D02*
X0081931Y0025240D01*
X0081931Y0024642D02*
X0082915Y0024642D01*
X0083494Y0024043D02*
X0081931Y0024043D01*
X0081931Y0023445D02*
X0088348Y0023445D01*
X0087749Y0022846D02*
X0081842Y0022846D01*
X0081327Y0022248D02*
X0087151Y0022248D01*
X0086552Y0021649D02*
X0072648Y0021649D01*
X0072848Y0022248D02*
X0072049Y0022248D01*
X0072332Y0022846D02*
X0071451Y0022846D01*
X0070852Y0023445D02*
X0072244Y0023445D01*
X0072244Y0024043D02*
X0070254Y0024043D01*
X0069655Y0024642D02*
X0072244Y0024642D01*
X0072244Y0025240D02*
X0069057Y0025240D01*
X0068458Y0025839D02*
X0072244Y0025839D01*
X0072244Y0027036D02*
X0067261Y0027036D01*
X0066663Y0027634D02*
X0072244Y0027634D01*
X0072244Y0028233D02*
X0049450Y0028233D01*
X0049450Y0027634D02*
X0057737Y0027634D01*
X0057700Y0027700D02*
X0075700Y0027700D01*
X0076900Y0026500D01*
X0077087Y0026497D01*
X0076787Y0026437D02*
X0067860Y0026437D01*
X0072244Y0028832D02*
X0049450Y0028832D01*
X0049450Y0029430D02*
X0072244Y0029430D01*
X0072301Y0030029D02*
X0049394Y0030029D01*
X0049362Y0030148D02*
X0049191Y0030445D01*
X0048949Y0030687D01*
X0048652Y0030858D01*
X0048322Y0030946D01*
X0044907Y0030946D01*
X0044907Y0026797D01*
X0049450Y0026797D01*
X0049450Y0029818D01*
X0049362Y0030148D01*
X0049008Y0030627D02*
X0072686Y0030627D01*
X0076787Y0025839D02*
X0077387Y0025839D01*
X0077387Y0025240D02*
X0076787Y0025240D01*
X0076787Y0024642D02*
X0077387Y0024642D01*
X0077387Y0024043D02*
X0076787Y0024043D01*
X0076787Y0023445D02*
X0077387Y0023445D01*
X0077387Y0022846D02*
X0076787Y0022846D01*
X0076787Y0022248D02*
X0077387Y0022248D01*
X0074443Y0019854D02*
X0084757Y0019854D01*
X0085355Y0020452D02*
X0073845Y0020452D01*
X0073246Y0021051D02*
X0085954Y0021051D01*
X0084158Y0019255D02*
X0081271Y0019255D01*
X0081531Y0018657D02*
X0083560Y0018657D01*
X0082961Y0018058D02*
X0081531Y0018058D01*
X0081531Y0017460D02*
X0082363Y0017460D01*
X0081531Y0014467D02*
X0083195Y0014467D01*
X0083195Y0013869D02*
X0081531Y0013869D01*
X0081531Y0013270D02*
X0083195Y0013270D01*
X0083195Y0012672D02*
X0081531Y0012672D01*
X0081531Y0012073D02*
X0083195Y0012073D01*
X0083553Y0011475D02*
X0081055Y0011475D01*
X0087048Y0013977D02*
X0087100Y0014500D01*
X0094900Y0022300D01*
X0096431Y0020452D02*
X0098651Y0020452D01*
X0099249Y0019854D02*
X0094151Y0019854D01*
X0093552Y0019255D02*
X0099848Y0019255D01*
X0100446Y0018657D02*
X0092954Y0018657D01*
X0092355Y0018058D02*
X0101045Y0018058D01*
X0101643Y0017460D02*
X0091757Y0017460D01*
X0091158Y0016861D02*
X0102242Y0016861D01*
X0102628Y0016263D02*
X0090760Y0016263D01*
X0090901Y0015664D02*
X0102487Y0015664D01*
X0102487Y0015066D02*
X0090901Y0015066D01*
X0090901Y0014467D02*
X0102487Y0014467D01*
X0102487Y0013869D02*
X0090901Y0013869D01*
X0090901Y0013270D02*
X0102487Y0013270D01*
X0102487Y0012672D02*
X0090901Y0012672D01*
X0090901Y0012073D02*
X0102487Y0012073D01*
X0102845Y0011475D02*
X0090543Y0011475D01*
X0097029Y0021051D02*
X0098052Y0021051D01*
X0097454Y0021649D02*
X0097289Y0021649D01*
X0093700Y0027100D02*
X0106300Y0014500D01*
X0106339Y0013977D01*
X0109834Y0011475D02*
X0109973Y0011475D01*
X0109973Y0010876D02*
X0069193Y0010876D01*
X0069791Y0011475D02*
X0073120Y0011475D01*
X0072644Y0012073D02*
X0070244Y0012073D01*
X0070492Y0012672D02*
X0072644Y0012672D01*
X0072644Y0013270D02*
X0070740Y0013270D01*
X0070988Y0013869D02*
X0072644Y0013869D01*
X0072644Y0014467D02*
X0071236Y0014467D01*
X0071484Y0015066D02*
X0072644Y0015066D01*
X0072644Y0015664D02*
X0071545Y0015664D01*
X0071545Y0016263D02*
X0072644Y0016263D01*
X0072644Y0016861D02*
X0071545Y0016861D01*
X0071545Y0017460D02*
X0072644Y0017460D01*
X0072644Y0018058D02*
X0071545Y0018058D01*
X0071545Y0018657D02*
X0072246Y0018657D01*
X0071648Y0019255D02*
X0071390Y0019255D01*
X0068594Y0010278D02*
X0109973Y0010278D01*
X0109973Y0009679D02*
X0067996Y0009679D01*
X0067185Y0009081D02*
X0109973Y0009081D01*
X0109973Y0008482D02*
X0065740Y0008482D01*
X0064295Y0007884D02*
X0109973Y0007884D01*
X0109973Y0007285D02*
X0016225Y0007285D01*
X0015626Y0007884D02*
X0060352Y0007884D01*
X0058907Y0008482D02*
X0015027Y0008482D01*
X0014429Y0009081D02*
X0057462Y0009081D01*
X0056652Y0009679D02*
X0013830Y0009679D01*
X0013263Y0010278D02*
X0024849Y0010278D01*
X0024849Y0010876D02*
X0013263Y0010876D01*
X0013263Y0011475D02*
X0024849Y0011475D01*
X0024849Y0012073D02*
X0013263Y0012073D01*
X0013263Y0012672D02*
X0024849Y0012672D01*
X0024849Y0013270D02*
X0013263Y0013270D01*
X0013263Y0013869D02*
X0024849Y0013869D01*
X0024849Y0014467D02*
X0013263Y0014467D01*
X0012744Y0015066D02*
X0025368Y0015066D01*
X0028900Y0012700D02*
X0028702Y0012402D01*
X0028900Y0012700D02*
X0042100Y0012700D01*
X0044500Y0015100D01*
X0044607Y0015473D01*
X0042043Y0019854D02*
X0049957Y0019854D01*
X0050555Y0020452D02*
X0041445Y0020452D01*
X0040900Y0021051D02*
X0051154Y0021051D01*
X0051752Y0021649D02*
X0040900Y0021649D01*
X0038649Y0019854D02*
X0005600Y0019854D01*
X0005600Y0020452D02*
X0038500Y0020452D01*
X0038500Y0021051D02*
X0005600Y0021051D01*
X0005600Y0021649D02*
X0038500Y0021649D01*
X0038500Y0022248D02*
X0005600Y0022248D01*
X0005600Y0019255D02*
X0039248Y0019255D01*
X0039846Y0018657D02*
X0005600Y0018657D01*
X0005600Y0018058D02*
X0040164Y0018058D01*
X0040164Y0017460D02*
X0005600Y0017460D01*
X0005600Y0016861D02*
X0040164Y0016861D01*
X0040164Y0016263D02*
X0005600Y0016263D01*
X0005600Y0015664D02*
X0040164Y0015664D01*
X0040164Y0015066D02*
X0032035Y0015066D01*
X0032554Y0014467D02*
X0040164Y0014467D01*
X0040640Y0011475D02*
X0032554Y0011475D01*
X0032554Y0010876D02*
X0055455Y0010876D01*
X0056053Y0010278D02*
X0032554Y0010278D01*
X0044307Y0022248D02*
X0044907Y0022248D01*
X0044907Y0022047D02*
X0048322Y0022047D01*
X0048652Y0022136D01*
X0048949Y0022307D01*
X0049191Y0022549D01*
X0049362Y0022845D01*
X0049450Y0023176D01*
X0049450Y0026197D01*
X0044907Y0026197D01*
X0044907Y0022047D01*
X0044907Y0022846D02*
X0044307Y0022846D01*
X0044307Y0023445D02*
X0044907Y0023445D01*
X0044907Y0024043D02*
X0044307Y0024043D01*
X0044307Y0024642D02*
X0044907Y0024642D01*
X0044907Y0025240D02*
X0044307Y0025240D01*
X0044307Y0025839D02*
X0044907Y0025839D01*
X0044907Y0026437D02*
X0056540Y0026437D01*
X0056500Y0026500D02*
X0057700Y0027700D01*
X0057139Y0027036D02*
X0049450Y0027036D01*
X0049450Y0025839D02*
X0055942Y0025839D01*
X0055343Y0025240D02*
X0049450Y0025240D01*
X0049450Y0024642D02*
X0054745Y0024642D01*
X0054146Y0024043D02*
X0049450Y0024043D01*
X0049450Y0023445D02*
X0053548Y0023445D01*
X0052949Y0022846D02*
X0049362Y0022846D01*
X0048846Y0022248D02*
X0052351Y0022248D01*
X0053351Y0019854D02*
X0053505Y0019854D01*
X0053257Y0019255D02*
X0052752Y0019255D01*
X0053102Y0018657D02*
X0052154Y0018657D01*
X0051555Y0018058D02*
X0053102Y0018058D01*
X0053102Y0017460D02*
X0050957Y0017460D01*
X0050358Y0016861D02*
X0053102Y0016861D01*
X0053102Y0016263D02*
X0049760Y0016263D01*
X0049161Y0015664D02*
X0053102Y0015664D01*
X0053164Y0015066D02*
X0049050Y0015066D01*
X0049050Y0014467D02*
X0053412Y0014467D01*
X0053659Y0013869D02*
X0049050Y0013869D01*
X0049050Y0013270D02*
X0053907Y0013270D01*
X0054155Y0012672D02*
X0049050Y0012672D01*
X0049050Y0012073D02*
X0054403Y0012073D01*
X0054856Y0011475D02*
X0048574Y0011475D01*
X0048791Y0019255D02*
X0049358Y0019255D01*
X0045100Y0026500D02*
X0044607Y0026497D01*
X0045100Y0026500D02*
X0056500Y0026500D01*
X0044907Y0027036D02*
X0044307Y0027036D01*
X0044307Y0027634D02*
X0044907Y0027634D01*
X0044907Y0028233D02*
X0044307Y0028233D01*
X0044307Y0028832D02*
X0044907Y0028832D01*
X0044907Y0029430D02*
X0044307Y0029430D01*
X0044307Y0030029D02*
X0044907Y0030029D01*
X0044907Y0030627D02*
X0044307Y0030627D01*
X0040900Y0031226D02*
X0092500Y0031226D01*
X0092500Y0031824D02*
X0040900Y0031824D01*
X0040900Y0032423D02*
X0092500Y0032423D01*
X0092500Y0033021D02*
X0040900Y0033021D01*
X0040900Y0033620D02*
X0092500Y0033620D01*
X0092500Y0034218D02*
X0040900Y0034218D01*
X0040900Y0034817D02*
X0092500Y0034817D01*
X0092500Y0035415D02*
X0040900Y0035415D01*
X0040900Y0036014D02*
X0092500Y0036014D01*
X0092500Y0036612D02*
X0040900Y0036612D01*
X0040900Y0037211D02*
X0092500Y0037211D01*
X0092500Y0037809D02*
X0040900Y0037809D01*
X0040900Y0038408D02*
X0092500Y0038408D01*
X0092500Y0039006D02*
X0040900Y0039006D01*
X0040900Y0039605D02*
X0092500Y0039605D01*
X0092500Y0040203D02*
X0040900Y0040203D01*
X0031596Y0040203D02*
X0005600Y0040203D01*
X0005600Y0039605D02*
X0031596Y0039605D01*
X0031596Y0039006D02*
X0005600Y0039006D01*
X0005600Y0038408D02*
X0031596Y0038408D01*
X0031596Y0037809D02*
X0005600Y0037809D01*
X0005600Y0037211D02*
X0031596Y0037211D01*
X0031596Y0036612D02*
X0005600Y0036612D01*
X0005600Y0036014D02*
X0031596Y0036014D01*
X0031596Y0035415D02*
X0005600Y0035415D01*
X0005600Y0034817D02*
X0031596Y0034817D01*
X0031596Y0034218D02*
X0005600Y0034218D01*
X0005600Y0033620D02*
X0031596Y0033620D01*
X0031596Y0033021D02*
X0005600Y0033021D01*
X0005600Y0032423D02*
X0031596Y0032423D01*
X0031596Y0031824D02*
X0005600Y0031824D01*
X0005600Y0031226D02*
X0031596Y0031226D01*
X0031596Y0030627D02*
X0005600Y0030627D01*
X0005600Y0030029D02*
X0031596Y0030029D01*
X0031040Y0029430D02*
X0005600Y0029430D01*
X0005600Y0028832D02*
X0030442Y0028832D01*
X0029843Y0028233D02*
X0013115Y0028233D01*
X0013583Y0027634D02*
X0024944Y0027634D01*
X0024849Y0027036D02*
X0013663Y0027036D01*
X0013663Y0026437D02*
X0024849Y0026437D01*
X0024849Y0025839D02*
X0013663Y0025839D01*
X0013663Y0024642D02*
X0024849Y0024642D01*
X0024849Y0025240D02*
X0009710Y0025240D01*
X0009410Y0025394D02*
X0009100Y0025900D01*
X0009100Y0055300D01*
X0009795Y0054568D02*
X0005600Y0054568D01*
X0005600Y0053969D02*
X0010393Y0053969D01*
X0010992Y0053370D02*
X0005600Y0053370D01*
X0005600Y0052772D02*
X0011590Y0052772D01*
X0012704Y0052173D02*
X0005600Y0052173D01*
X0005600Y0051575D02*
X0014149Y0051575D01*
X0019947Y0051575D02*
X0031596Y0051575D01*
X0031596Y0052173D02*
X0021392Y0052173D01*
X0022506Y0052772D02*
X0031596Y0052772D01*
X0031596Y0053370D02*
X0023104Y0053370D01*
X0023703Y0053969D02*
X0031596Y0053969D01*
X0031596Y0054568D02*
X0024301Y0054568D01*
X0024880Y0055166D02*
X0031596Y0055166D01*
X0031596Y0055765D02*
X0025128Y0055765D01*
X0025375Y0056363D02*
X0031596Y0056363D01*
X0031596Y0056962D02*
X0025623Y0056962D01*
X0025871Y0057560D02*
X0031596Y0057560D01*
X0031596Y0058159D02*
X0026119Y0058159D01*
X0026269Y0058757D02*
X0031596Y0058757D01*
X0031596Y0059356D02*
X0026269Y0059356D01*
X0026269Y0059954D02*
X0031596Y0059954D01*
X0031596Y0060553D02*
X0026269Y0060553D01*
X0026269Y0061151D02*
X0031596Y0061151D01*
X0031596Y0061750D02*
X0026269Y0061750D01*
X0026203Y0062348D02*
X0031596Y0062348D01*
X0031596Y0062947D02*
X0025956Y0062947D01*
X0025708Y0063545D02*
X0031596Y0063545D01*
X0031247Y0064144D02*
X0025460Y0064144D01*
X0025212Y0064742D02*
X0030649Y0064742D01*
X0030050Y0065341D02*
X0024964Y0065341D01*
X0024505Y0065939D02*
X0029452Y0065939D01*
X0028853Y0066538D02*
X0023906Y0066538D01*
X0023308Y0067136D02*
X0028255Y0067136D01*
X0027656Y0067735D02*
X0022709Y0067735D01*
X0021883Y0068333D02*
X0027058Y0068333D01*
X0026459Y0068932D02*
X0020438Y0068932D01*
X0018993Y0069530D02*
X0025861Y0069530D01*
X0040900Y0087486D02*
X0108796Y0087486D01*
X0109218Y0088084D02*
X0040900Y0088084D01*
X0031596Y0050976D02*
X0005600Y0050976D01*
X0005600Y0050378D02*
X0031596Y0050378D01*
X0031596Y0049779D02*
X0005600Y0049779D01*
X0005600Y0049181D02*
X0031596Y0049181D01*
X0031596Y0048582D02*
X0005600Y0048582D01*
X0005600Y0047984D02*
X0031596Y0047984D01*
X0031596Y0047385D02*
X0005600Y0047385D01*
X0005600Y0046787D02*
X0031596Y0046787D01*
X0031596Y0046188D02*
X0005600Y0046188D01*
X0005600Y0045590D02*
X0031596Y0045590D01*
X0031596Y0044991D02*
X0005600Y0044991D01*
X0005600Y0044393D02*
X0031596Y0044393D01*
X0031596Y0043794D02*
X0005600Y0043794D01*
X0005600Y0043196D02*
X0031596Y0043196D01*
X0031596Y0042597D02*
X0005600Y0042597D01*
X0005600Y0041999D02*
X0031596Y0041999D01*
X0031596Y0041400D02*
X0005600Y0041400D01*
X0005600Y0040802D02*
X0031596Y0040802D01*
X0024849Y0024043D02*
X0013663Y0024043D01*
X0013661Y0023445D02*
X0024849Y0023445D01*
X0025252Y0022846D02*
X0013416Y0022846D01*
X0009710Y0022846D02*
X0009110Y0022846D01*
X0009110Y0023445D02*
X0009710Y0023445D01*
X0009710Y0024043D02*
X0009110Y0024043D01*
X0009110Y0024642D02*
X0009710Y0024642D01*
X0009710Y0025839D02*
X0009110Y0025839D01*
X0009110Y0026437D02*
X0009710Y0026437D01*
X0009710Y0027036D02*
X0009110Y0027036D01*
X0009110Y0027634D02*
X0009710Y0027634D01*
X0009710Y0028233D02*
X0009110Y0028233D01*
X0005705Y0028233D02*
X0005600Y0028233D01*
X0005600Y0015066D02*
X0006076Y0015066D01*
X0009410Y0012402D02*
X0016213Y0005600D01*
X0111173Y0005600D01*
X0111173Y0025285D01*
X0109568Y0026891D01*
X0106418Y0026891D01*
X0106339Y0026969D01*
X0091340Y0026437D02*
X0091301Y0026437D01*
X0087348Y0026437D02*
X0086748Y0026437D01*
X0086748Y0025839D02*
X0087348Y0025839D01*
X0087348Y0025240D02*
X0086748Y0025240D01*
X0086748Y0024642D02*
X0087348Y0024642D01*
X0087348Y0024043D02*
X0086748Y0024043D01*
X0086748Y0028233D02*
X0087348Y0028233D01*
X0087348Y0028832D02*
X0086748Y0028832D01*
X0086748Y0029430D02*
X0087348Y0029430D01*
X0087348Y0030029D02*
X0086748Y0030029D01*
X0098500Y0063700D02*
X0099017Y0064292D01*
D16*
X0096100Y0052900D03*
X0090700Y0076300D03*
X0092500Y0094300D03*
X0091300Y0106900D03*
X0100300Y0106900D03*
X0094900Y0022300D03*
M02*
