G75*
%MOIN*%
%OFA0B0*%
%FSLAX25Y25*%
%IPPOS*%
%LPD*%
%AMOC8*
5,1,8,0,0,1.08239X$1,22.5*
%
%ADD10C,0.01000*%
%ADD11C,0.01575*%
%ADD12C,0.00500*%
%ADD13C,0.00800*%
D10*
X0080906Y0056418D02*
X0080906Y0068229D01*
X0091143Y0074135D02*
X0097639Y0074135D01*
X0097639Y0071182D01*
X0097639Y0053465D02*
X0097639Y0050513D01*
X0091143Y0050513D01*
D11*
X0099641Y0072166D02*
X0099643Y0072213D01*
X0099649Y0072259D01*
X0099658Y0072305D01*
X0099672Y0072349D01*
X0099689Y0072393D01*
X0099710Y0072434D01*
X0099734Y0072474D01*
X0099761Y0072512D01*
X0099792Y0072547D01*
X0099825Y0072580D01*
X0099861Y0072610D01*
X0099900Y0072636D01*
X0099940Y0072660D01*
X0099982Y0072679D01*
X0100026Y0072696D01*
X0100071Y0072708D01*
X0100117Y0072717D01*
X0100163Y0072722D01*
X0100210Y0072723D01*
X0100256Y0072720D01*
X0100302Y0072713D01*
X0100348Y0072702D01*
X0100392Y0072688D01*
X0100435Y0072670D01*
X0100476Y0072648D01*
X0100516Y0072623D01*
X0100553Y0072595D01*
X0100588Y0072564D01*
X0100620Y0072530D01*
X0100649Y0072493D01*
X0100674Y0072455D01*
X0100697Y0072414D01*
X0100716Y0072371D01*
X0100731Y0072327D01*
X0100743Y0072282D01*
X0100751Y0072236D01*
X0100755Y0072189D01*
X0100755Y0072143D01*
X0100751Y0072096D01*
X0100743Y0072050D01*
X0100731Y0072005D01*
X0100716Y0071961D01*
X0100697Y0071918D01*
X0100674Y0071877D01*
X0100649Y0071839D01*
X0100620Y0071802D01*
X0100588Y0071768D01*
X0100553Y0071737D01*
X0100516Y0071709D01*
X0100477Y0071684D01*
X0100435Y0071662D01*
X0100392Y0071644D01*
X0100348Y0071630D01*
X0100302Y0071619D01*
X0100256Y0071612D01*
X0100210Y0071609D01*
X0100163Y0071610D01*
X0100117Y0071615D01*
X0100071Y0071624D01*
X0100026Y0071636D01*
X0099982Y0071653D01*
X0099940Y0071672D01*
X0099900Y0071696D01*
X0099861Y0071722D01*
X0099825Y0071752D01*
X0099792Y0071785D01*
X0099761Y0071820D01*
X0099734Y0071858D01*
X0099710Y0071898D01*
X0099689Y0071939D01*
X0099672Y0071983D01*
X0099658Y0072027D01*
X0099649Y0072073D01*
X0099643Y0072119D01*
X0099641Y0072166D01*
D12*
X0029686Y0008269D02*
X0008426Y0008269D01*
X0008426Y0012599D01*
X0009213Y0009056D02*
X0009213Y0025198D01*
X0012757Y0028741D01*
X0028898Y0028741D01*
X0028898Y0009056D01*
X0009213Y0009056D01*
X0012283Y0018898D02*
X0012285Y0019064D01*
X0012291Y0019230D01*
X0012301Y0019396D01*
X0012316Y0019562D01*
X0012334Y0019727D01*
X0012356Y0019892D01*
X0012383Y0020056D01*
X0012413Y0020219D01*
X0012448Y0020382D01*
X0012486Y0020544D01*
X0012528Y0020704D01*
X0012575Y0020864D01*
X0012625Y0021023D01*
X0012679Y0021180D01*
X0012737Y0021336D01*
X0012799Y0021490D01*
X0012864Y0021643D01*
X0012933Y0021794D01*
X0013006Y0021943D01*
X0013083Y0022091D01*
X0013163Y0022236D01*
X0013247Y0022380D01*
X0013334Y0022522D01*
X0013424Y0022661D01*
X0013518Y0022798D01*
X0013616Y0022933D01*
X0013717Y0023065D01*
X0013820Y0023195D01*
X0013927Y0023322D01*
X0014038Y0023446D01*
X0014151Y0023568D01*
X0014267Y0023687D01*
X0014386Y0023803D01*
X0014508Y0023916D01*
X0014632Y0024027D01*
X0014759Y0024134D01*
X0014889Y0024237D01*
X0015021Y0024338D01*
X0015156Y0024436D01*
X0015293Y0024530D01*
X0015432Y0024620D01*
X0015574Y0024707D01*
X0015718Y0024791D01*
X0015863Y0024871D01*
X0016011Y0024948D01*
X0016160Y0025021D01*
X0016311Y0025090D01*
X0016464Y0025155D01*
X0016618Y0025217D01*
X0016774Y0025275D01*
X0016931Y0025329D01*
X0017090Y0025379D01*
X0017250Y0025426D01*
X0017410Y0025468D01*
X0017572Y0025506D01*
X0017735Y0025541D01*
X0017898Y0025571D01*
X0018062Y0025598D01*
X0018227Y0025620D01*
X0018392Y0025638D01*
X0018558Y0025653D01*
X0018724Y0025663D01*
X0018890Y0025669D01*
X0019056Y0025671D01*
X0019222Y0025669D01*
X0019388Y0025663D01*
X0019554Y0025653D01*
X0019720Y0025638D01*
X0019885Y0025620D01*
X0020050Y0025598D01*
X0020214Y0025571D01*
X0020377Y0025541D01*
X0020540Y0025506D01*
X0020702Y0025468D01*
X0020862Y0025426D01*
X0021022Y0025379D01*
X0021181Y0025329D01*
X0021338Y0025275D01*
X0021494Y0025217D01*
X0021648Y0025155D01*
X0021801Y0025090D01*
X0021952Y0025021D01*
X0022101Y0024948D01*
X0022249Y0024871D01*
X0022394Y0024791D01*
X0022538Y0024707D01*
X0022680Y0024620D01*
X0022819Y0024530D01*
X0022956Y0024436D01*
X0023091Y0024338D01*
X0023223Y0024237D01*
X0023353Y0024134D01*
X0023480Y0024027D01*
X0023604Y0023916D01*
X0023726Y0023803D01*
X0023845Y0023687D01*
X0023961Y0023568D01*
X0024074Y0023446D01*
X0024185Y0023322D01*
X0024292Y0023195D01*
X0024395Y0023065D01*
X0024496Y0022933D01*
X0024594Y0022798D01*
X0024688Y0022661D01*
X0024778Y0022522D01*
X0024865Y0022380D01*
X0024949Y0022236D01*
X0025029Y0022091D01*
X0025106Y0021943D01*
X0025179Y0021794D01*
X0025248Y0021643D01*
X0025313Y0021490D01*
X0025375Y0021336D01*
X0025433Y0021180D01*
X0025487Y0021023D01*
X0025537Y0020864D01*
X0025584Y0020704D01*
X0025626Y0020544D01*
X0025664Y0020382D01*
X0025699Y0020219D01*
X0025729Y0020056D01*
X0025756Y0019892D01*
X0025778Y0019727D01*
X0025796Y0019562D01*
X0025811Y0019396D01*
X0025821Y0019230D01*
X0025827Y0019064D01*
X0025829Y0018898D01*
X0025827Y0018732D01*
X0025821Y0018566D01*
X0025811Y0018400D01*
X0025796Y0018234D01*
X0025778Y0018069D01*
X0025756Y0017904D01*
X0025729Y0017740D01*
X0025699Y0017577D01*
X0025664Y0017414D01*
X0025626Y0017252D01*
X0025584Y0017092D01*
X0025537Y0016932D01*
X0025487Y0016773D01*
X0025433Y0016616D01*
X0025375Y0016460D01*
X0025313Y0016306D01*
X0025248Y0016153D01*
X0025179Y0016002D01*
X0025106Y0015853D01*
X0025029Y0015705D01*
X0024949Y0015560D01*
X0024865Y0015416D01*
X0024778Y0015274D01*
X0024688Y0015135D01*
X0024594Y0014998D01*
X0024496Y0014863D01*
X0024395Y0014731D01*
X0024292Y0014601D01*
X0024185Y0014474D01*
X0024074Y0014350D01*
X0023961Y0014228D01*
X0023845Y0014109D01*
X0023726Y0013993D01*
X0023604Y0013880D01*
X0023480Y0013769D01*
X0023353Y0013662D01*
X0023223Y0013559D01*
X0023091Y0013458D01*
X0022956Y0013360D01*
X0022819Y0013266D01*
X0022680Y0013176D01*
X0022538Y0013089D01*
X0022394Y0013005D01*
X0022249Y0012925D01*
X0022101Y0012848D01*
X0021952Y0012775D01*
X0021801Y0012706D01*
X0021648Y0012641D01*
X0021494Y0012579D01*
X0021338Y0012521D01*
X0021181Y0012467D01*
X0021022Y0012417D01*
X0020862Y0012370D01*
X0020702Y0012328D01*
X0020540Y0012290D01*
X0020377Y0012255D01*
X0020214Y0012225D01*
X0020050Y0012198D01*
X0019885Y0012176D01*
X0019720Y0012158D01*
X0019554Y0012143D01*
X0019388Y0012133D01*
X0019222Y0012127D01*
X0019056Y0012125D01*
X0018890Y0012127D01*
X0018724Y0012133D01*
X0018558Y0012143D01*
X0018392Y0012158D01*
X0018227Y0012176D01*
X0018062Y0012198D01*
X0017898Y0012225D01*
X0017735Y0012255D01*
X0017572Y0012290D01*
X0017410Y0012328D01*
X0017250Y0012370D01*
X0017090Y0012417D01*
X0016931Y0012467D01*
X0016774Y0012521D01*
X0016618Y0012579D01*
X0016464Y0012641D01*
X0016311Y0012706D01*
X0016160Y0012775D01*
X0016011Y0012848D01*
X0015863Y0012925D01*
X0015718Y0013005D01*
X0015574Y0013089D01*
X0015432Y0013176D01*
X0015293Y0013266D01*
X0015156Y0013360D01*
X0015021Y0013458D01*
X0014889Y0013559D01*
X0014759Y0013662D01*
X0014632Y0013769D01*
X0014508Y0013880D01*
X0014386Y0013993D01*
X0014267Y0014109D01*
X0014151Y0014228D01*
X0014038Y0014350D01*
X0013927Y0014474D01*
X0013820Y0014601D01*
X0013717Y0014731D01*
X0013616Y0014863D01*
X0013518Y0014998D01*
X0013424Y0015135D01*
X0013334Y0015274D01*
X0013247Y0015416D01*
X0013163Y0015560D01*
X0013083Y0015705D01*
X0013006Y0015853D01*
X0012933Y0016002D01*
X0012864Y0016153D01*
X0012799Y0016306D01*
X0012737Y0016460D01*
X0012679Y0016616D01*
X0012625Y0016773D01*
X0012575Y0016932D01*
X0012528Y0017092D01*
X0012486Y0017252D01*
X0012448Y0017414D01*
X0012413Y0017577D01*
X0012383Y0017740D01*
X0012356Y0017904D01*
X0012334Y0018069D01*
X0012316Y0018234D01*
X0012301Y0018400D01*
X0012291Y0018566D01*
X0012285Y0018732D01*
X0012283Y0018898D01*
X0008725Y0024898D02*
X0013375Y0029548D01*
X0008406Y0029548D01*
X0008406Y0024898D01*
X0008725Y0024898D01*
X0008426Y0025198D02*
X0008426Y0029528D01*
X0029686Y0029528D01*
X0029686Y0025198D01*
X0029686Y0012599D02*
X0029686Y0008269D01*
X0011049Y0027223D02*
X0008406Y0027223D01*
X0008406Y0027721D02*
X0011548Y0027721D01*
X0012046Y0028220D02*
X0008406Y0028220D01*
X0008406Y0028718D02*
X0012545Y0028718D01*
X0012757Y0028741D02*
X0009213Y0028741D01*
X0009213Y0025198D01*
X0009055Y0025229D02*
X0008406Y0025229D01*
X0008406Y0025727D02*
X0009554Y0025727D01*
X0010052Y0026226D02*
X0008406Y0026226D01*
X0008406Y0026724D02*
X0010551Y0026724D01*
X0008406Y0029217D02*
X0013043Y0029217D01*
X0009646Y0089568D02*
X0030906Y0089568D01*
X0030906Y0093898D01*
X0030119Y0090355D02*
X0030119Y0110040D01*
X0013977Y0110040D01*
X0010434Y0106497D01*
X0010434Y0110040D01*
X0013977Y0110040D01*
X0013723Y0109975D02*
X0009627Y0109975D01*
X0009627Y0109477D02*
X0013225Y0109477D01*
X0012726Y0108978D02*
X0009627Y0108978D01*
X0009627Y0108480D02*
X0012228Y0108480D01*
X0011729Y0107981D02*
X0009627Y0107981D01*
X0009627Y0107483D02*
X0011231Y0107483D01*
X0010732Y0106984D02*
X0009627Y0106984D01*
X0009646Y0106497D02*
X0009646Y0110828D01*
X0030906Y0110828D01*
X0030906Y0106497D01*
X0013503Y0100198D02*
X0013505Y0100364D01*
X0013511Y0100530D01*
X0013521Y0100696D01*
X0013536Y0100862D01*
X0013554Y0101027D01*
X0013576Y0101192D01*
X0013603Y0101356D01*
X0013633Y0101519D01*
X0013668Y0101682D01*
X0013706Y0101844D01*
X0013748Y0102004D01*
X0013795Y0102164D01*
X0013845Y0102323D01*
X0013899Y0102480D01*
X0013957Y0102636D01*
X0014019Y0102790D01*
X0014084Y0102943D01*
X0014153Y0103094D01*
X0014226Y0103243D01*
X0014303Y0103391D01*
X0014383Y0103536D01*
X0014467Y0103680D01*
X0014554Y0103822D01*
X0014644Y0103961D01*
X0014738Y0104098D01*
X0014836Y0104233D01*
X0014937Y0104365D01*
X0015040Y0104495D01*
X0015147Y0104622D01*
X0015258Y0104746D01*
X0015371Y0104868D01*
X0015487Y0104987D01*
X0015606Y0105103D01*
X0015728Y0105216D01*
X0015852Y0105327D01*
X0015979Y0105434D01*
X0016109Y0105537D01*
X0016241Y0105638D01*
X0016376Y0105736D01*
X0016513Y0105830D01*
X0016652Y0105920D01*
X0016794Y0106007D01*
X0016938Y0106091D01*
X0017083Y0106171D01*
X0017231Y0106248D01*
X0017380Y0106321D01*
X0017531Y0106390D01*
X0017684Y0106455D01*
X0017838Y0106517D01*
X0017994Y0106575D01*
X0018151Y0106629D01*
X0018310Y0106679D01*
X0018470Y0106726D01*
X0018630Y0106768D01*
X0018792Y0106806D01*
X0018955Y0106841D01*
X0019118Y0106871D01*
X0019282Y0106898D01*
X0019447Y0106920D01*
X0019612Y0106938D01*
X0019778Y0106953D01*
X0019944Y0106963D01*
X0020110Y0106969D01*
X0020276Y0106971D01*
X0020442Y0106969D01*
X0020608Y0106963D01*
X0020774Y0106953D01*
X0020940Y0106938D01*
X0021105Y0106920D01*
X0021270Y0106898D01*
X0021434Y0106871D01*
X0021597Y0106841D01*
X0021760Y0106806D01*
X0021922Y0106768D01*
X0022082Y0106726D01*
X0022242Y0106679D01*
X0022401Y0106629D01*
X0022558Y0106575D01*
X0022714Y0106517D01*
X0022868Y0106455D01*
X0023021Y0106390D01*
X0023172Y0106321D01*
X0023321Y0106248D01*
X0023469Y0106171D01*
X0023614Y0106091D01*
X0023758Y0106007D01*
X0023900Y0105920D01*
X0024039Y0105830D01*
X0024176Y0105736D01*
X0024311Y0105638D01*
X0024443Y0105537D01*
X0024573Y0105434D01*
X0024700Y0105327D01*
X0024824Y0105216D01*
X0024946Y0105103D01*
X0025065Y0104987D01*
X0025181Y0104868D01*
X0025294Y0104746D01*
X0025405Y0104622D01*
X0025512Y0104495D01*
X0025615Y0104365D01*
X0025716Y0104233D01*
X0025814Y0104098D01*
X0025908Y0103961D01*
X0025998Y0103822D01*
X0026085Y0103680D01*
X0026169Y0103536D01*
X0026249Y0103391D01*
X0026326Y0103243D01*
X0026399Y0103094D01*
X0026468Y0102943D01*
X0026533Y0102790D01*
X0026595Y0102636D01*
X0026653Y0102480D01*
X0026707Y0102323D01*
X0026757Y0102164D01*
X0026804Y0102004D01*
X0026846Y0101844D01*
X0026884Y0101682D01*
X0026919Y0101519D01*
X0026949Y0101356D01*
X0026976Y0101192D01*
X0026998Y0101027D01*
X0027016Y0100862D01*
X0027031Y0100696D01*
X0027041Y0100530D01*
X0027047Y0100364D01*
X0027049Y0100198D01*
X0027047Y0100032D01*
X0027041Y0099866D01*
X0027031Y0099700D01*
X0027016Y0099534D01*
X0026998Y0099369D01*
X0026976Y0099204D01*
X0026949Y0099040D01*
X0026919Y0098877D01*
X0026884Y0098714D01*
X0026846Y0098552D01*
X0026804Y0098392D01*
X0026757Y0098232D01*
X0026707Y0098073D01*
X0026653Y0097916D01*
X0026595Y0097760D01*
X0026533Y0097606D01*
X0026468Y0097453D01*
X0026399Y0097302D01*
X0026326Y0097153D01*
X0026249Y0097005D01*
X0026169Y0096860D01*
X0026085Y0096716D01*
X0025998Y0096574D01*
X0025908Y0096435D01*
X0025814Y0096298D01*
X0025716Y0096163D01*
X0025615Y0096031D01*
X0025512Y0095901D01*
X0025405Y0095774D01*
X0025294Y0095650D01*
X0025181Y0095528D01*
X0025065Y0095409D01*
X0024946Y0095293D01*
X0024824Y0095180D01*
X0024700Y0095069D01*
X0024573Y0094962D01*
X0024443Y0094859D01*
X0024311Y0094758D01*
X0024176Y0094660D01*
X0024039Y0094566D01*
X0023900Y0094476D01*
X0023758Y0094389D01*
X0023614Y0094305D01*
X0023469Y0094225D01*
X0023321Y0094148D01*
X0023172Y0094075D01*
X0023021Y0094006D01*
X0022868Y0093941D01*
X0022714Y0093879D01*
X0022558Y0093821D01*
X0022401Y0093767D01*
X0022242Y0093717D01*
X0022082Y0093670D01*
X0021922Y0093628D01*
X0021760Y0093590D01*
X0021597Y0093555D01*
X0021434Y0093525D01*
X0021270Y0093498D01*
X0021105Y0093476D01*
X0020940Y0093458D01*
X0020774Y0093443D01*
X0020608Y0093433D01*
X0020442Y0093427D01*
X0020276Y0093425D01*
X0020110Y0093427D01*
X0019944Y0093433D01*
X0019778Y0093443D01*
X0019612Y0093458D01*
X0019447Y0093476D01*
X0019282Y0093498D01*
X0019118Y0093525D01*
X0018955Y0093555D01*
X0018792Y0093590D01*
X0018630Y0093628D01*
X0018470Y0093670D01*
X0018310Y0093717D01*
X0018151Y0093767D01*
X0017994Y0093821D01*
X0017838Y0093879D01*
X0017684Y0093941D01*
X0017531Y0094006D01*
X0017380Y0094075D01*
X0017231Y0094148D01*
X0017083Y0094225D01*
X0016938Y0094305D01*
X0016794Y0094389D01*
X0016652Y0094476D01*
X0016513Y0094566D01*
X0016376Y0094660D01*
X0016241Y0094758D01*
X0016109Y0094859D01*
X0015979Y0094962D01*
X0015852Y0095069D01*
X0015728Y0095180D01*
X0015606Y0095293D01*
X0015487Y0095409D01*
X0015371Y0095528D01*
X0015258Y0095650D01*
X0015147Y0095774D01*
X0015040Y0095901D01*
X0014937Y0096031D01*
X0014836Y0096163D01*
X0014738Y0096298D01*
X0014644Y0096435D01*
X0014554Y0096574D01*
X0014467Y0096716D01*
X0014383Y0096860D01*
X0014303Y0097005D01*
X0014226Y0097153D01*
X0014153Y0097302D01*
X0014084Y0097453D01*
X0014019Y0097606D01*
X0013957Y0097760D01*
X0013899Y0097916D01*
X0013845Y0098073D01*
X0013795Y0098232D01*
X0013748Y0098392D01*
X0013706Y0098552D01*
X0013668Y0098714D01*
X0013633Y0098877D01*
X0013603Y0099040D01*
X0013576Y0099204D01*
X0013554Y0099369D01*
X0013536Y0099534D01*
X0013521Y0099700D01*
X0013511Y0099866D01*
X0013505Y0100032D01*
X0013503Y0100198D01*
X0009946Y0106198D02*
X0014595Y0110847D01*
X0009627Y0110847D01*
X0009627Y0106198D01*
X0009946Y0106198D01*
X0010234Y0106486D02*
X0009627Y0106486D01*
X0010434Y0106497D02*
X0010434Y0090355D01*
X0030119Y0090355D01*
X0009646Y0089568D02*
X0009646Y0093898D01*
X0009627Y0110474D02*
X0014222Y0110474D01*
X0085178Y0110474D02*
X0089419Y0110474D01*
X0089528Y0110394D02*
X0085985Y0106851D01*
X0085985Y0110394D01*
X0089528Y0110394D01*
X0105670Y0110394D01*
X0105670Y0090709D01*
X0085985Y0090709D01*
X0085985Y0106851D01*
X0085929Y0106984D02*
X0085178Y0106984D01*
X0085198Y0106851D02*
X0085198Y0111182D01*
X0106457Y0111182D01*
X0106457Y0106851D01*
X0089055Y0100552D02*
X0089057Y0100718D01*
X0089063Y0100884D01*
X0089073Y0101050D01*
X0089088Y0101216D01*
X0089106Y0101381D01*
X0089128Y0101546D01*
X0089155Y0101710D01*
X0089185Y0101873D01*
X0089220Y0102036D01*
X0089258Y0102198D01*
X0089300Y0102358D01*
X0089347Y0102518D01*
X0089397Y0102677D01*
X0089451Y0102834D01*
X0089509Y0102990D01*
X0089571Y0103144D01*
X0089636Y0103297D01*
X0089705Y0103448D01*
X0089778Y0103597D01*
X0089855Y0103745D01*
X0089935Y0103890D01*
X0090019Y0104034D01*
X0090106Y0104176D01*
X0090196Y0104315D01*
X0090290Y0104452D01*
X0090388Y0104587D01*
X0090489Y0104719D01*
X0090592Y0104849D01*
X0090699Y0104976D01*
X0090810Y0105100D01*
X0090923Y0105222D01*
X0091039Y0105341D01*
X0091158Y0105457D01*
X0091280Y0105570D01*
X0091404Y0105681D01*
X0091531Y0105788D01*
X0091661Y0105891D01*
X0091793Y0105992D01*
X0091928Y0106090D01*
X0092065Y0106184D01*
X0092204Y0106274D01*
X0092346Y0106361D01*
X0092490Y0106445D01*
X0092635Y0106525D01*
X0092783Y0106602D01*
X0092932Y0106675D01*
X0093083Y0106744D01*
X0093236Y0106809D01*
X0093390Y0106871D01*
X0093546Y0106929D01*
X0093703Y0106983D01*
X0093862Y0107033D01*
X0094022Y0107080D01*
X0094182Y0107122D01*
X0094344Y0107160D01*
X0094507Y0107195D01*
X0094670Y0107225D01*
X0094834Y0107252D01*
X0094999Y0107274D01*
X0095164Y0107292D01*
X0095330Y0107307D01*
X0095496Y0107317D01*
X0095662Y0107323D01*
X0095828Y0107325D01*
X0095994Y0107323D01*
X0096160Y0107317D01*
X0096326Y0107307D01*
X0096492Y0107292D01*
X0096657Y0107274D01*
X0096822Y0107252D01*
X0096986Y0107225D01*
X0097149Y0107195D01*
X0097312Y0107160D01*
X0097474Y0107122D01*
X0097634Y0107080D01*
X0097794Y0107033D01*
X0097953Y0106983D01*
X0098110Y0106929D01*
X0098266Y0106871D01*
X0098420Y0106809D01*
X0098573Y0106744D01*
X0098724Y0106675D01*
X0098873Y0106602D01*
X0099021Y0106525D01*
X0099166Y0106445D01*
X0099310Y0106361D01*
X0099452Y0106274D01*
X0099591Y0106184D01*
X0099728Y0106090D01*
X0099863Y0105992D01*
X0099995Y0105891D01*
X0100125Y0105788D01*
X0100252Y0105681D01*
X0100376Y0105570D01*
X0100498Y0105457D01*
X0100617Y0105341D01*
X0100733Y0105222D01*
X0100846Y0105100D01*
X0100957Y0104976D01*
X0101064Y0104849D01*
X0101167Y0104719D01*
X0101268Y0104587D01*
X0101366Y0104452D01*
X0101460Y0104315D01*
X0101550Y0104176D01*
X0101637Y0104034D01*
X0101721Y0103890D01*
X0101801Y0103745D01*
X0101878Y0103597D01*
X0101951Y0103448D01*
X0102020Y0103297D01*
X0102085Y0103144D01*
X0102147Y0102990D01*
X0102205Y0102834D01*
X0102259Y0102677D01*
X0102309Y0102518D01*
X0102356Y0102358D01*
X0102398Y0102198D01*
X0102436Y0102036D01*
X0102471Y0101873D01*
X0102501Y0101710D01*
X0102528Y0101546D01*
X0102550Y0101381D01*
X0102568Y0101216D01*
X0102583Y0101050D01*
X0102593Y0100884D01*
X0102599Y0100718D01*
X0102601Y0100552D01*
X0102599Y0100386D01*
X0102593Y0100220D01*
X0102583Y0100054D01*
X0102568Y0099888D01*
X0102550Y0099723D01*
X0102528Y0099558D01*
X0102501Y0099394D01*
X0102471Y0099231D01*
X0102436Y0099068D01*
X0102398Y0098906D01*
X0102356Y0098746D01*
X0102309Y0098586D01*
X0102259Y0098427D01*
X0102205Y0098270D01*
X0102147Y0098114D01*
X0102085Y0097960D01*
X0102020Y0097807D01*
X0101951Y0097656D01*
X0101878Y0097507D01*
X0101801Y0097359D01*
X0101721Y0097214D01*
X0101637Y0097070D01*
X0101550Y0096928D01*
X0101460Y0096789D01*
X0101366Y0096652D01*
X0101268Y0096517D01*
X0101167Y0096385D01*
X0101064Y0096255D01*
X0100957Y0096128D01*
X0100846Y0096004D01*
X0100733Y0095882D01*
X0100617Y0095763D01*
X0100498Y0095647D01*
X0100376Y0095534D01*
X0100252Y0095423D01*
X0100125Y0095316D01*
X0099995Y0095213D01*
X0099863Y0095112D01*
X0099728Y0095014D01*
X0099591Y0094920D01*
X0099452Y0094830D01*
X0099310Y0094743D01*
X0099166Y0094659D01*
X0099021Y0094579D01*
X0098873Y0094502D01*
X0098724Y0094429D01*
X0098573Y0094360D01*
X0098420Y0094295D01*
X0098266Y0094233D01*
X0098110Y0094175D01*
X0097953Y0094121D01*
X0097794Y0094071D01*
X0097634Y0094024D01*
X0097474Y0093982D01*
X0097312Y0093944D01*
X0097149Y0093909D01*
X0096986Y0093879D01*
X0096822Y0093852D01*
X0096657Y0093830D01*
X0096492Y0093812D01*
X0096326Y0093797D01*
X0096160Y0093787D01*
X0095994Y0093781D01*
X0095828Y0093779D01*
X0095662Y0093781D01*
X0095496Y0093787D01*
X0095330Y0093797D01*
X0095164Y0093812D01*
X0094999Y0093830D01*
X0094834Y0093852D01*
X0094670Y0093879D01*
X0094507Y0093909D01*
X0094344Y0093944D01*
X0094182Y0093982D01*
X0094022Y0094024D01*
X0093862Y0094071D01*
X0093703Y0094121D01*
X0093546Y0094175D01*
X0093390Y0094233D01*
X0093236Y0094295D01*
X0093083Y0094360D01*
X0092932Y0094429D01*
X0092783Y0094502D01*
X0092635Y0094579D01*
X0092490Y0094659D01*
X0092346Y0094743D01*
X0092204Y0094830D01*
X0092065Y0094920D01*
X0091928Y0095014D01*
X0091793Y0095112D01*
X0091661Y0095213D01*
X0091531Y0095316D01*
X0091404Y0095423D01*
X0091280Y0095534D01*
X0091158Y0095647D01*
X0091039Y0095763D01*
X0090923Y0095882D01*
X0090810Y0096004D01*
X0090699Y0096128D01*
X0090592Y0096255D01*
X0090489Y0096385D01*
X0090388Y0096517D01*
X0090290Y0096652D01*
X0090196Y0096789D01*
X0090106Y0096928D01*
X0090019Y0097070D01*
X0089935Y0097214D01*
X0089855Y0097359D01*
X0089778Y0097507D01*
X0089705Y0097656D01*
X0089636Y0097807D01*
X0089571Y0097960D01*
X0089509Y0098114D01*
X0089451Y0098270D01*
X0089397Y0098427D01*
X0089347Y0098586D01*
X0089300Y0098746D01*
X0089258Y0098906D01*
X0089220Y0099068D01*
X0089185Y0099231D01*
X0089155Y0099394D01*
X0089128Y0099558D01*
X0089106Y0099723D01*
X0089088Y0099888D01*
X0089073Y0100054D01*
X0089063Y0100220D01*
X0089057Y0100386D01*
X0089055Y0100552D01*
X0085497Y0106552D02*
X0085178Y0106552D01*
X0085178Y0111202D01*
X0090146Y0111202D01*
X0085497Y0106552D01*
X0085178Y0107483D02*
X0086428Y0107483D01*
X0086926Y0107981D02*
X0085178Y0107981D01*
X0085178Y0108480D02*
X0087425Y0108480D01*
X0087923Y0108978D02*
X0085178Y0108978D01*
X0085178Y0109477D02*
X0088422Y0109477D01*
X0088920Y0109975D02*
X0085178Y0109975D01*
X0085178Y0110972D02*
X0089917Y0110972D01*
X0085198Y0094253D02*
X0085198Y0089922D01*
X0106457Y0089922D01*
X0106457Y0094253D01*
X0107324Y0031103D02*
X0086064Y0031103D01*
X0086064Y0026772D01*
X0086044Y0026724D02*
X0086614Y0026724D01*
X0086851Y0026772D02*
X0090394Y0030316D01*
X0106536Y0030316D01*
X0106536Y0010631D01*
X0086851Y0010631D01*
X0086851Y0026772D01*
X0086851Y0030316D01*
X0090394Y0030316D01*
X0090103Y0030214D02*
X0086044Y0030214D01*
X0086044Y0030712D02*
X0090602Y0030712D01*
X0091013Y0031123D02*
X0086044Y0031123D01*
X0086044Y0026473D01*
X0086363Y0026473D01*
X0091013Y0031123D01*
X0089605Y0029715D02*
X0086044Y0029715D01*
X0086044Y0029217D02*
X0089106Y0029217D01*
X0088608Y0028718D02*
X0086044Y0028718D01*
X0086044Y0028220D02*
X0088109Y0028220D01*
X0087611Y0027721D02*
X0086044Y0027721D01*
X0086044Y0027223D02*
X0087112Y0027223D01*
X0089921Y0020473D02*
X0089923Y0020639D01*
X0089929Y0020805D01*
X0089939Y0020971D01*
X0089954Y0021137D01*
X0089972Y0021302D01*
X0089994Y0021467D01*
X0090021Y0021631D01*
X0090051Y0021794D01*
X0090086Y0021957D01*
X0090124Y0022119D01*
X0090166Y0022279D01*
X0090213Y0022439D01*
X0090263Y0022598D01*
X0090317Y0022755D01*
X0090375Y0022911D01*
X0090437Y0023065D01*
X0090502Y0023218D01*
X0090571Y0023369D01*
X0090644Y0023518D01*
X0090721Y0023666D01*
X0090801Y0023811D01*
X0090885Y0023955D01*
X0090972Y0024097D01*
X0091062Y0024236D01*
X0091156Y0024373D01*
X0091254Y0024508D01*
X0091355Y0024640D01*
X0091458Y0024770D01*
X0091565Y0024897D01*
X0091676Y0025021D01*
X0091789Y0025143D01*
X0091905Y0025262D01*
X0092024Y0025378D01*
X0092146Y0025491D01*
X0092270Y0025602D01*
X0092397Y0025709D01*
X0092527Y0025812D01*
X0092659Y0025913D01*
X0092794Y0026011D01*
X0092931Y0026105D01*
X0093070Y0026195D01*
X0093212Y0026282D01*
X0093356Y0026366D01*
X0093501Y0026446D01*
X0093649Y0026523D01*
X0093798Y0026596D01*
X0093949Y0026665D01*
X0094102Y0026730D01*
X0094256Y0026792D01*
X0094412Y0026850D01*
X0094569Y0026904D01*
X0094728Y0026954D01*
X0094888Y0027001D01*
X0095048Y0027043D01*
X0095210Y0027081D01*
X0095373Y0027116D01*
X0095536Y0027146D01*
X0095700Y0027173D01*
X0095865Y0027195D01*
X0096030Y0027213D01*
X0096196Y0027228D01*
X0096362Y0027238D01*
X0096528Y0027244D01*
X0096694Y0027246D01*
X0096860Y0027244D01*
X0097026Y0027238D01*
X0097192Y0027228D01*
X0097358Y0027213D01*
X0097523Y0027195D01*
X0097688Y0027173D01*
X0097852Y0027146D01*
X0098015Y0027116D01*
X0098178Y0027081D01*
X0098340Y0027043D01*
X0098500Y0027001D01*
X0098660Y0026954D01*
X0098819Y0026904D01*
X0098976Y0026850D01*
X0099132Y0026792D01*
X0099286Y0026730D01*
X0099439Y0026665D01*
X0099590Y0026596D01*
X0099739Y0026523D01*
X0099887Y0026446D01*
X0100032Y0026366D01*
X0100176Y0026282D01*
X0100318Y0026195D01*
X0100457Y0026105D01*
X0100594Y0026011D01*
X0100729Y0025913D01*
X0100861Y0025812D01*
X0100991Y0025709D01*
X0101118Y0025602D01*
X0101242Y0025491D01*
X0101364Y0025378D01*
X0101483Y0025262D01*
X0101599Y0025143D01*
X0101712Y0025021D01*
X0101823Y0024897D01*
X0101930Y0024770D01*
X0102033Y0024640D01*
X0102134Y0024508D01*
X0102232Y0024373D01*
X0102326Y0024236D01*
X0102416Y0024097D01*
X0102503Y0023955D01*
X0102587Y0023811D01*
X0102667Y0023666D01*
X0102744Y0023518D01*
X0102817Y0023369D01*
X0102886Y0023218D01*
X0102951Y0023065D01*
X0103013Y0022911D01*
X0103071Y0022755D01*
X0103125Y0022598D01*
X0103175Y0022439D01*
X0103222Y0022279D01*
X0103264Y0022119D01*
X0103302Y0021957D01*
X0103337Y0021794D01*
X0103367Y0021631D01*
X0103394Y0021467D01*
X0103416Y0021302D01*
X0103434Y0021137D01*
X0103449Y0020971D01*
X0103459Y0020805D01*
X0103465Y0020639D01*
X0103467Y0020473D01*
X0103465Y0020307D01*
X0103459Y0020141D01*
X0103449Y0019975D01*
X0103434Y0019809D01*
X0103416Y0019644D01*
X0103394Y0019479D01*
X0103367Y0019315D01*
X0103337Y0019152D01*
X0103302Y0018989D01*
X0103264Y0018827D01*
X0103222Y0018667D01*
X0103175Y0018507D01*
X0103125Y0018348D01*
X0103071Y0018191D01*
X0103013Y0018035D01*
X0102951Y0017881D01*
X0102886Y0017728D01*
X0102817Y0017577D01*
X0102744Y0017428D01*
X0102667Y0017280D01*
X0102587Y0017135D01*
X0102503Y0016991D01*
X0102416Y0016849D01*
X0102326Y0016710D01*
X0102232Y0016573D01*
X0102134Y0016438D01*
X0102033Y0016306D01*
X0101930Y0016176D01*
X0101823Y0016049D01*
X0101712Y0015925D01*
X0101599Y0015803D01*
X0101483Y0015684D01*
X0101364Y0015568D01*
X0101242Y0015455D01*
X0101118Y0015344D01*
X0100991Y0015237D01*
X0100861Y0015134D01*
X0100729Y0015033D01*
X0100594Y0014935D01*
X0100457Y0014841D01*
X0100318Y0014751D01*
X0100176Y0014664D01*
X0100032Y0014580D01*
X0099887Y0014500D01*
X0099739Y0014423D01*
X0099590Y0014350D01*
X0099439Y0014281D01*
X0099286Y0014216D01*
X0099132Y0014154D01*
X0098976Y0014096D01*
X0098819Y0014042D01*
X0098660Y0013992D01*
X0098500Y0013945D01*
X0098340Y0013903D01*
X0098178Y0013865D01*
X0098015Y0013830D01*
X0097852Y0013800D01*
X0097688Y0013773D01*
X0097523Y0013751D01*
X0097358Y0013733D01*
X0097192Y0013718D01*
X0097026Y0013708D01*
X0096860Y0013702D01*
X0096694Y0013700D01*
X0096528Y0013702D01*
X0096362Y0013708D01*
X0096196Y0013718D01*
X0096030Y0013733D01*
X0095865Y0013751D01*
X0095700Y0013773D01*
X0095536Y0013800D01*
X0095373Y0013830D01*
X0095210Y0013865D01*
X0095048Y0013903D01*
X0094888Y0013945D01*
X0094728Y0013992D01*
X0094569Y0014042D01*
X0094412Y0014096D01*
X0094256Y0014154D01*
X0094102Y0014216D01*
X0093949Y0014281D01*
X0093798Y0014350D01*
X0093649Y0014423D01*
X0093501Y0014500D01*
X0093356Y0014580D01*
X0093212Y0014664D01*
X0093070Y0014751D01*
X0092931Y0014841D01*
X0092794Y0014935D01*
X0092659Y0015033D01*
X0092527Y0015134D01*
X0092397Y0015237D01*
X0092270Y0015344D01*
X0092146Y0015455D01*
X0092024Y0015568D01*
X0091905Y0015684D01*
X0091789Y0015803D01*
X0091676Y0015925D01*
X0091565Y0016049D01*
X0091458Y0016176D01*
X0091355Y0016306D01*
X0091254Y0016438D01*
X0091156Y0016573D01*
X0091062Y0016710D01*
X0090972Y0016849D01*
X0090885Y0016991D01*
X0090801Y0017135D01*
X0090721Y0017280D01*
X0090644Y0017428D01*
X0090571Y0017577D01*
X0090502Y0017728D01*
X0090437Y0017881D01*
X0090375Y0018035D01*
X0090317Y0018191D01*
X0090263Y0018348D01*
X0090213Y0018507D01*
X0090166Y0018667D01*
X0090124Y0018827D01*
X0090086Y0018989D01*
X0090051Y0019152D01*
X0090021Y0019315D01*
X0089994Y0019479D01*
X0089972Y0019644D01*
X0089954Y0019809D01*
X0089939Y0019975D01*
X0089929Y0020141D01*
X0089923Y0020307D01*
X0089921Y0020473D01*
X0086064Y0014174D02*
X0086064Y0009843D01*
X0107324Y0009843D01*
X0107324Y0014174D01*
X0107324Y0026772D02*
X0107324Y0031103D01*
D13*
X0081024Y0030434D02*
X0081024Y0011536D01*
X0073150Y0011536D01*
X0073150Y0030434D01*
X0081024Y0030434D01*
X0048544Y0030434D02*
X0048544Y0011536D01*
X0040670Y0011536D01*
X0040670Y0030434D01*
X0048544Y0030434D01*
X0047560Y0091261D02*
X0039686Y0091261D01*
X0039686Y0110158D01*
X0047560Y0110158D01*
X0047560Y0091261D01*
X0072166Y0090276D02*
X0080040Y0090276D01*
X0080040Y0109174D01*
X0072166Y0109174D01*
X0072166Y0090276D01*
M02*
