G75*
%MOIN*%
%OFA0B0*%
%FSLAX25Y25*%
%IPPOS*%
%LPD*%
%AMOC8*
5,1,8,0,0,1.08239X$1,22.5*
%
%ADD10R,0.04816X0.24422*%
%ADD11R,0.18800X0.05800*%
%ADD12C,0.13800*%
%ADD13R,0.07099X0.07887*%
%ADD14R,0.24422X0.04816*%
%ADD15C,0.03778*%
D10*
X0132427Y0236579D03*
X0142427Y0236579D03*
X0152427Y0236579D03*
X0162427Y0236579D03*
X0172427Y0236579D03*
X0182427Y0236579D03*
X0182427Y0366579D03*
X0172427Y0366579D03*
X0162427Y0366579D03*
X0152427Y0366579D03*
X0142427Y0366579D03*
X0132427Y0366579D03*
D11*
X0087427Y0366579D03*
X0087427Y0356579D03*
X0087427Y0346579D03*
X0087427Y0336579D03*
X0087427Y0376579D03*
X0087427Y0386579D03*
X0087427Y0396579D03*
X0087427Y0406579D03*
X0087427Y0491579D03*
X0087427Y0501579D03*
X0087427Y0511579D03*
X0087427Y0521579D03*
X0087427Y0531579D03*
X0087427Y0541579D03*
X0087427Y0551579D03*
X0087427Y0561579D03*
X0027427Y0561579D03*
X0027427Y0551579D03*
X0027427Y0541579D03*
X0027427Y0531579D03*
X0027427Y0521579D03*
X0027427Y0511579D03*
X0027427Y0501579D03*
X0027427Y0491579D03*
X0027427Y0406579D03*
X0027427Y0396579D03*
X0027427Y0386579D03*
X0027427Y0376579D03*
X0027427Y0366579D03*
X0027427Y0356579D03*
X0027427Y0346579D03*
X0027427Y0336579D03*
X0027427Y0251579D03*
X0027427Y0241579D03*
X0027427Y0231579D03*
X0027427Y0221579D03*
X0027427Y0211579D03*
X0027427Y0201579D03*
X0027427Y0191579D03*
X0027427Y0181579D03*
X0027427Y0101579D03*
X0027427Y0091579D03*
X0027427Y0081579D03*
X0027427Y0071579D03*
X0027427Y0061579D03*
X0027427Y0051579D03*
X0027427Y0041579D03*
X0027427Y0031579D03*
X0087427Y0031579D03*
X0087427Y0041579D03*
X0087427Y0051579D03*
X0087427Y0061579D03*
X0087427Y0071579D03*
X0087427Y0081579D03*
X0087427Y0091579D03*
X0087427Y0101579D03*
X0087427Y0181579D03*
X0087427Y0191579D03*
X0087427Y0201579D03*
X0087427Y0211579D03*
X0087427Y0221579D03*
X0087427Y0231579D03*
X0087427Y0241579D03*
X0087427Y0251579D03*
X0217427Y0101579D03*
X0217427Y0091579D03*
X0217427Y0081579D03*
X0217427Y0071579D03*
X0217427Y0061579D03*
X0217427Y0051579D03*
X0217427Y0041579D03*
X0217427Y0031579D03*
X0277427Y0031579D03*
X0277427Y0041579D03*
X0277427Y0051579D03*
X0277427Y0061579D03*
X0277427Y0071579D03*
X0277427Y0081579D03*
X0277427Y0091579D03*
X0277427Y0101579D03*
X0282427Y0181579D03*
X0282427Y0191579D03*
X0282427Y0201579D03*
X0282427Y0211579D03*
X0282427Y0221579D03*
X0282427Y0231579D03*
X0282427Y0241579D03*
X0282427Y0251579D03*
X0282427Y0336579D03*
X0282427Y0346579D03*
X0282427Y0356579D03*
X0282427Y0366579D03*
X0282427Y0376579D03*
X0282427Y0386579D03*
X0282427Y0396579D03*
X0282427Y0406579D03*
X0282427Y0491579D03*
X0282427Y0501579D03*
X0282427Y0511579D03*
X0282427Y0521579D03*
X0282427Y0531579D03*
X0282427Y0541579D03*
X0282427Y0551579D03*
X0282427Y0561579D03*
X0222427Y0561579D03*
X0222427Y0551579D03*
X0222427Y0541579D03*
X0222427Y0531579D03*
X0222427Y0521579D03*
X0222427Y0511579D03*
X0222427Y0501579D03*
X0222427Y0491579D03*
X0222427Y0406579D03*
X0222427Y0396579D03*
X0222427Y0386579D03*
X0222427Y0376579D03*
X0222427Y0366579D03*
X0222427Y0356579D03*
X0222427Y0346579D03*
X0222427Y0336579D03*
X0222427Y0251579D03*
X0222427Y0241579D03*
X0222427Y0231579D03*
X0222427Y0221579D03*
X0222427Y0211579D03*
X0222427Y0201579D03*
X0222427Y0191579D03*
X0222427Y0181579D03*
D12*
X0016096Y0014224D03*
X0287427Y0014906D03*
X0287427Y0606579D03*
X0017427Y0606579D03*
D13*
X0016915Y0466579D03*
X0016915Y0446579D03*
X0027938Y0446579D03*
X0027938Y0466579D03*
X0027938Y0156579D03*
X0016915Y0156579D03*
X0016915Y0136579D03*
X0027938Y0136579D03*
X0281915Y0136579D03*
X0281915Y0151579D03*
X0292938Y0151579D03*
X0292938Y0136579D03*
X0292938Y0451579D03*
X0292938Y0466579D03*
X0281915Y0466579D03*
X0281915Y0451579D03*
D14*
X0192427Y0346579D03*
X0192427Y0336579D03*
X0192427Y0326579D03*
X0192427Y0316579D03*
X0192427Y0306579D03*
X0192427Y0296579D03*
X0192427Y0286579D03*
X0192427Y0276579D03*
X0192427Y0266579D03*
X0192427Y0256579D03*
X0122427Y0256579D03*
X0122427Y0266579D03*
X0122427Y0276579D03*
X0122427Y0286579D03*
X0122427Y0296579D03*
X0122427Y0306579D03*
X0122427Y0316579D03*
X0122427Y0326579D03*
X0122427Y0336579D03*
X0122427Y0346579D03*
D15*
X0126879Y0341315D03*
X0131803Y0351868D03*
X0138135Y0351165D03*
X0152427Y0351579D03*
X0155724Y0346943D03*
X0168388Y0351165D03*
X0177534Y0372974D03*
X0179644Y0380713D03*
X0172609Y0382120D03*
X0175423Y0391267D03*
X0165573Y0380713D03*
X0157131Y0385638D03*
X0165573Y0417298D03*
X0159945Y0427147D03*
X0145874Y0439811D03*
X0148688Y0450364D03*
X0145874Y0456696D03*
X0158538Y0477802D03*
X0141653Y0490466D03*
X0137427Y0496579D03*
X0128286Y0459510D03*
X0137432Y0431369D03*
X0137432Y0415891D03*
X0137432Y0408152D03*
X0118436Y0395488D03*
X0115622Y0386342D03*
X0111401Y0387045D03*
X0112808Y0374381D03*
X0100848Y0384231D03*
X0098033Y0381417D03*
X0095219Y0371567D03*
X0098737Y0362421D03*
X0098737Y0358200D03*
X0111401Y0332169D03*
X0117029Y0351165D03*
X0099440Y0394081D03*
X0098737Y0399006D03*
X0100848Y0415891D03*
X0074113Y0421519D03*
X0082427Y0476579D03*
X0090294Y0486245D03*
X0090294Y0556599D03*
X0038936Y0539714D03*
X0032604Y0546750D03*
X0038936Y0529865D03*
X0031900Y0516497D03*
X0037529Y0391267D03*
X0031900Y0381417D03*
X0032604Y0371567D03*
X0032604Y0361718D03*
X0071718Y0287720D03*
X0092405Y0256890D03*
X0098737Y0242115D03*
X0102255Y0250558D03*
X0102255Y0259000D03*
X0112808Y0261111D03*
X0102255Y0276589D03*
X0102255Y0280810D03*
X0102255Y0285031D03*
X0114918Y0282217D03*
X0126879Y0249151D03*
X0138839Y0269554D03*
X0144467Y0259704D03*
X0157427Y0251579D03*
X0159945Y0269554D03*
X0162759Y0279403D03*
X0164166Y0269554D03*
X0175423Y0280810D03*
X0178941Y0272368D03*
X0176127Y0261815D03*
X0189494Y0249854D03*
X0207083Y0256186D03*
X0210600Y0258297D03*
X0221857Y0271664D03*
X0226078Y0271664D03*
X0233817Y0239301D03*
X0237335Y0234376D03*
X0241556Y0232969D03*
X0238742Y0225934D03*
X0238742Y0218898D03*
X0245777Y0224527D03*
X0251406Y0211159D03*
X0243667Y0199199D03*
X0241556Y0205531D03*
X0237335Y0201310D03*
X0237335Y0197089D03*
X0233114Y0174575D03*
X0257738Y0185128D03*
X0267587Y0183018D03*
X0273919Y0176686D03*
X0266180Y0223120D03*
X0268994Y0232969D03*
X0268291Y0244226D03*
X0282362Y0236487D03*
X0282362Y0226637D03*
X0292915Y0246337D03*
X0271105Y0270961D03*
X0261959Y0271664D03*
X0217636Y0310359D03*
X0207083Y0310359D03*
X0206379Y0320209D03*
X0214822Y0331465D03*
X0200751Y0396895D03*
X0212007Y0401116D03*
X0217636Y0411669D03*
X0214822Y0425740D03*
X0208490Y0458807D03*
X0178941Y0472174D03*
X0212007Y0536900D03*
X0227485Y0546750D03*
X0233114Y0536196D03*
X0226782Y0516497D03*
X0234521Y0414483D03*
X0237335Y0411669D03*
X0241556Y0407448D03*
X0245777Y0403227D03*
X0271105Y0373678D03*
X0294322Y0396895D03*
X0294322Y0401116D03*
X0278140Y0486245D03*
X0280955Y0506648D03*
X0283065Y0546750D03*
X0283065Y0556599D03*
X0181051Y0320912D03*
X0162056Y0289956D03*
X0152910Y0299806D03*
X0150096Y0309656D03*
X0147281Y0299806D03*
X0136728Y0289956D03*
X0159945Y0320209D03*
X0160649Y0222416D03*
X0171905Y0188646D03*
X0176127Y0188646D03*
X0178941Y0183018D03*
X0178941Y0204124D03*
X0169091Y0161208D03*
X0171905Y0121809D03*
X0166981Y0116181D03*
X0140246Y0146433D03*
X0131954Y0140476D03*
X0123923Y0148508D03*
X0132507Y0163319D03*
X0114918Y0200606D03*
X0096626Y0186535D03*
X0092405Y0196385D03*
X0079038Y0236487D03*
X0070379Y0230161D03*
X0032604Y0226637D03*
X0031900Y0236487D03*
X0017126Y0216788D03*
X0032604Y0196385D03*
X0032604Y0086632D03*
X0032604Y0076783D03*
X0031900Y0056380D03*
X0036122Y0056380D03*
X0098737Y0041606D03*
X0121250Y0064119D03*
X0112808Y0166133D03*
X0137427Y0221579D03*
X0222561Y0086632D03*
X0222561Y0076783D03*
X0241556Y0074672D03*
X0245777Y0074672D03*
X0254923Y0050752D03*
X0276733Y0046530D03*
X0282362Y0086632D03*
X0277437Y0096482D03*
X0292915Y0117588D03*
X0204972Y0024720D03*
X0155724Y0560117D03*
M02*
