  0
SECTION
  2
HEADER
  9
$ACADVER
  1
AC1009
  9
$FILLMODE
 70
1
  9
$EXTMIN
 10
-20.6740
 20
-4.9260
 30
0.0000
  9
$EXTMAX
 10
88.2380
 20
160.9330
 30
0.0000
  0
ENDSEC
  0
SECTION
  2
TABLES
  0
TABLE
  2
LTYPE
 70
1
  0
LTYPE
  2
CONTINUOUS
 70
64
  3
Solid line
 72
65
 73
0
 40
0
  0
ENDTAB
  0
TABLE
  2
LAYER
 70
255
  0
LAYER
  2
20
 70
64
 62
31
  6
CONTINUOUS
  0
LAYER
  2
51
 70
64
 62
253
  6
CONTINUOUS
  0
ENDTAB
  0
ENDSEC
  0
SECTION
  2
BLOCKS
  0
BLOCK
  8
0
  2
RECT
 70
64
 10
0.0000
 20
0.0000
 30
0.0000
  3
RECT
  0
SOLID
  8
0
 10
-0.5000
 20
-0.5000
 30
0.0000
 11
0.5000
 21
-0.5000
 31
0.0000
 12
-0.5000
 22
0.5000
 32
0.0000
 13
0.5000
 23
0.5000
 33
0.0000
  0
ENDBLK
  8
0
  0
BLOCK
  8
0
  2
PIE
 70
64
 10
0.0000
 20
0.0000
 30
0.0000
  3
PIE
  0
POLYLINE
  8
0
 66
1
 10
0.0000
 20
0.0000
 30
0.0000
 40
0.5000
 41
0.5000
 70
0
  0
VERTEX
  8
0
 10
0.0000
 20
-0.2500
 30
0.0000
 42
1.0000
  0
VERTEX
  8
0
 10
0.0000
 20
0.2500
 30
0.0000
 42
1.0000
  0
VERTEX
  8
0
 10
0.0000
 20
-0.2500
 30
0.0000
  0
SEQEND
  8
0
  0
ENDBLK
  8
0
  0
BLOCK
  8
0
  2
OCTAGONP
 70
64
 10
0.0000
 20
0.0000
 30
0.0000
  3
OCTAGONP
  0
POLYLINE
  8
0
 66
1
 10
0.0000
 20
0.0000
 30
0.0000
 40
0.5000
 41
0.5000
 70
0
  0
VERTEX
  8
0
 10
-0.2500
 20
-0.1036
 30
0.0000
  0
VERTEX
  8
0
 10
-0.2500
 20
0.1036
 30
0.0000
  0
VERTEX
  8
0
 10
-0.1036
 20
0.2500
 30
0.0000
  0
VERTEX
  8
0
 10
0.1036
 20
0.2500
 30
0.0000
  0
VERTEX
  8
0
 10
0.2500
 20
0.1036
 30
0.0000
  0
VERTEX
  8
0
 10
0.2500
 20
-0.1036
 30
0.0000
  0
VERTEX
  8
0
 10
0.1036
 20
-0.2500
 30
0.0000
  0
VERTEX
  8
0
 10
-0.1036
 20
-0.2500
 30
0.0000
  0
VERTEX
  8
0
 10
-0.2500
 20
-0.1036
 30
0.0000
  0
VERTEX
  8
0
 10
-0.2500
 20
0.1036
 30
0.0000
  0
SEQEND
  8
0
  0
ENDBLK
  8
0
  0
BLOCK
  8
0
  2
SQUAREP
 70
64
 10
0.0000
 20
0.0000
 30
0.0000
  3
SQUAREP
  0
SOLID
  8
0
 10
-0.5000
 20
-0.5000
 30
0.0000
 11
0.5000
 21
-0.5000
 31
0.0000
 12
-0.5000
 22
0.5000
 32
0.0000
 13
0.5000
 23
0.5000
 33
0.0000
  0
ENDBLK
  8
0
  0
BLOCK
  8
0
  2
ROUNDP
 70
64
 10
0.0000
 20
0.0000
 30
0.0000
  3
ROUNDP
  0
POLYLINE
  8
0
 66
1
 10
0.0000
 20
0.0000
 30
0.0000
 40
0.5000
 41
0.5000
 70
0
  0
VERTEX
  8
0
 10
0.0000
 20
-0.2500
 30
0.0000
 42
1.0000
  0
VERTEX
  8
0
 10
0.0000
 20
0.2500
 30
0.0000
 42
1.0000
  0
VERTEX
  8
0
 10
0.0000
 20
-0.2500
 30
0.0000
  0
SEQEND
  8
0
  0
ENDBLK
  8
0
  0
BLOCK
  8
0
  2
ANNULUSP
 70
64
 10
0.0000
 20
0.0000
 30
0.0000
  3
ANNULUSP
  0
POLYLINE
  8
0
 66
1
 10
0.0000
 20
0.0000
 30
0.0000
 40
0.5000
 41
0.5000
 70
0
  0
VERTEX
  8
0
 10
0.0000
 20
-0.2500
 30
0.0000
 42
1.0000
  0
VERTEX
  8
0
 10
0.0000
 20
0.2500
 30
0.0000
 42
1.0000
  0
VERTEX
  8
0
 10
0.0000
 20
-0.2500
 30
0.0000
  0
SEQEND
  8
0
  0
ENDBLK
  8
0
  0
BLOCK
  8
0
  2
THERMALP
 70
64
 10
0.0000
 20
0.0000
 30
0.0000
  3
THERMALP
  0
POLYLINE
  8
0
 66
1
 10
0.0000
 20
0.0000
 30
0.0000
 40
0.1000
 41
0.1000
 70
0
  0
VERTEX
  8
0
 10
-0.2379
 20
0.4500
 30
0.0000
  0
VERTEX
  8
0
 10
0.2379
 20
0.4500
 30
0.0000
  0
SEQEND
  8
0
  0
POLYLINE
  8
0
 66
1
 10
0.0000
 20
0.0000
 30
0.0000
 40
0.0500
 41
0.0500
 70
0
  0
VERTEX
  8
0
 10
0.2379
 20
0.4250
 30
0.0000
 42
1.0000
  0
VERTEX
  8
0
 10
0.2379
 20
0.4750
 30
0.0000
  0
SEQEND
  8
0
  0
POLYLINE
  8
0
 66
1
 10
0.0000
 20
0.0000
 30
0.0000
 40
0.0500
 41
0.0500
 70
0
  0
VERTEX
  8
0
 10
-0.2379
 20
0.4750
 30
0.0000
 42
1.0000
  0
VERTEX
  8
0
 10
-0.2379
 20
0.4250
 30
0.0000
  0
SEQEND
  8
0
  0
POLYLINE
  8
0
 66
1
 10
0.0000
 20
0.0000
 30
0.0000
 40
0.1000
 41
0.1000
 70
0
  0
VERTEX
  8
0
 10
0.4500
 20
0.2379
 30
0.0000
  0
VERTEX
  8
0
 10
0.4500
 20
-0.2379
 30
0.0000
  0
SEQEND
  8
0
  0
POLYLINE
  8
0
 66
1
 10
0.0000
 20
0.0000
 30
0.0000
 40
0.0500
 41
0.0500
 70
0
  0
VERTEX
  8
0
 10
0.4250
 20
-0.2379
 30
0.0000
 42
1.0000
  0
VERTEX
  8
0
 10
0.4750
 20
-0.2379
 30
0.0000
  0
SEQEND
  8
0
  0
POLYLINE
  8
0
 66
1
 10
0.0000
 20
0.0000
 30
0.0000
 40
0.0500
 41
0.0500
 70
0
  0
VERTEX
  8
0
 10
0.4750
 20
0.2379
 30
0.0000
 42
1.0000
  0
VERTEX
  8
0
 10
0.4250
 20
0.2379
 30
0.0000
  0
SEQEND
  8
0
  0
POLYLINE
  8
0
 66
1
 10
0.0000
 20
0.0000
 30
0.0000
 40
0.1000
 41
0.1000
 70
0
  0
VERTEX
  8
0
 10
0.2379
 20
-0.4500
 30
0.0000
  0
VERTEX
  8
0
 10
-0.2379
 20
-0.4500
 30
0.0000
  0
SEQEND
  8
0
  0
POLYLINE
  8
0
 66
1
 10
0.0000
 20
0.0000
 30
0.0000
 40
0.0500
 41
0.0500
 70
0
  0
VERTEX
  8
0
 10
-0.2379
 20
-0.4250
 30
0.0000
 42
1.0000
  0
VERTEX
  8
0
 10
-0.2379
 20
-0.4750
 30
0.0000
  0
SEQEND
  8
0
  0
POLYLINE
  8
0
 66
1
 10
0.0000
 20
0.0000
 30
0.0000
 40
0.0500
 41
0.0500
 70
0
  0
VERTEX
  8
0
 10
0.2379
 20
-0.4750
 30
0.0000
 42
1.0000
  0
VERTEX
  8
0
 10
0.2379
 20
-0.4250
 30
0.0000
  0
SEQEND
  8
0
  0
POLYLINE
  8
0
 66
1
 10
0.0000
 20
0.0000
 30
0.0000
 40
0.1000
 41
0.1000
 70
0
  0
VERTEX
  8
0
 10
-0.4500
 20
-0.2379
 30
0.0000
  0
VERTEX
  8
0
 10
-0.4500
 20
0.2379
 30
0.0000
  0
SEQEND
  8
0
  0
POLYLINE
  8
0
 66
1
 10
0.0000
 20
0.0000
 30
0.0000
 40
0.0500
 41
0.0500
 70
0
  0
VERTEX
  8
0
 10
-0.4250
 20
0.2379
 30
0.0000
 42
1.0000
  0
VERTEX
  8
0
 10
-0.4750
 20
0.2379
 30
0.0000
  0
SEQEND
  8
0
  0
POLYLINE
  8
0
 66
1
 10
0.0000
 20
0.0000
 30
0.0000
 40
0.0500
 41
0.0500
 70
0
  0
VERTEX
  8
0
 10
-0.4750
 20
-0.2379
 30
0.0000
 42
1.0000
  0
VERTEX
  8
0
 10
-0.4250
 20
-0.2379
 30
0.0000
  0
SEQEND
  8
0
  0
ENDBLK
  8
0
  0
BLOCK
  8
0
  2
OCTAGONV
 70
64
 10
0.0000
 20
0.0000
 30
0.0000
  3
OCTAGONV
  0
POLYLINE
  8
0
 66
1
 10
0.0000
 20
0.0000
 30
0.0000
 40
0.5000
 41
0.5000
 70
0
  0
VERTEX
  8
0
 10
-0.2500
 20
-0.1036
 30
0.0000
  0
VERTEX
  8
0
 10
-0.2500
 20
0.1036
 30
0.0000
  0
VERTEX
  8
0
 10
-0.1036
 20
0.2500
 30
0.0000
  0
VERTEX
  8
0
 10
0.1036
 20
0.2500
 30
0.0000
  0
VERTEX
  8
0
 10
0.2500
 20
0.1036
 30
0.0000
  0
VERTEX
  8
0
 10
0.2500
 20
-0.1036
 30
0.0000
  0
VERTEX
  8
0
 10
0.1036
 20
-0.2500
 30
0.0000
  0
VERTEX
  8
0
 10
-0.1036
 20
-0.2500
 30
0.0000
  0
VERTEX
  8
0
 10
-0.2500
 20
-0.1036
 30
0.0000
  0
VERTEX
  8
0
 10
-0.2500
 20
0.1036
 30
0.0000
  0
SEQEND
  8
0
  0
ENDBLK
  8
0
  0
BLOCK
  8
0
  2
SQUAREV
 70
64
 10
0.0000
 20
0.0000
 30
0.0000
  3
SQUAREV
  0
SOLID
  8
0
 10
-0.5000
 20
-0.5000
 30
0.0000
 11
0.5000
 21
-0.5000
 31
0.0000
 12
-0.5000
 22
0.5000
 32
0.0000
 13
0.5000
 23
0.5000
 33
0.0000
  0
ENDBLK
  8
0
  0
BLOCK
  8
0
  2
ROUNDV
 70
64
 10
0.0000
 20
0.0000
 30
0.0000
  3
ROUNDV
  0
POLYLINE
  8
0
 66
1
 10
0.0000
 20
0.0000
 30
0.0000
 40
0.5000
 41
0.5000
 70
0
  0
VERTEX
  8
0
 10
0.0000
 20
-0.2500
 30
0.0000
 42
1.0000
  0
VERTEX
  8
0
 10
0.0000
 20
0.2500
 30
0.0000
 42
1.0000
  0
VERTEX
  8
0
 10
0.0000
 20
-0.2500
 30
0.0000
  0
SEQEND
  8
0
  0
ENDBLK
  8
0
  0
BLOCK
  8
0
  2
ANNULUSV
 70
64
 10
0.0000
 20
0.0000
 30
0.0000
  3
ANNULUSV
  0
POLYLINE
  8
0
 66
1
 10
0.0000
 20
0.0000
 30
0.0000
 40
0.5000
 41
0.5000
 70
0
  0
VERTEX
  8
0
 10
0.0000
 20
-0.2500
 30
0.0000
 42
1.0000
  0
VERTEX
  8
0
 10
0.0000
 20
0.2500
 30
0.0000
 42
1.0000
  0
VERTEX
  8
0
 10
0.0000
 20
-0.2500
 30
0.0000
  0
SEQEND
  8
0
  0
ENDBLK
  8
0
  0
BLOCK
  8
0
  2
THERMALV
 70
64
 10
0.0000
 20
0.0000
 30
0.0000
  3
THERMALV
  0
POLYLINE
  8
0
 66
1
 10
0.0000
 20
0.0000
 30
0.0000
 40
0.1000
 41
0.1000
 70
0
  0
VERTEX
  8
0
 10
-0.2379
 20
0.4500
 30
0.0000
  0
VERTEX
  8
0
 10
0.2379
 20
0.4500
 30
0.0000
  0
SEQEND
  8
0
  0
POLYLINE
  8
0
 66
1
 10
0.0000
 20
0.0000
 30
0.0000
 40
0.0500
 41
0.0500
 70
0
  0
VERTEX
  8
0
 10
0.2379
 20
0.4250
 30
0.0000
 42
1.0000
  0
VERTEX
  8
0
 10
0.2379
 20
0.4750
 30
0.0000
  0
SEQEND
  8
0
  0
POLYLINE
  8
0
 66
1
 10
0.0000
 20
0.0000
 30
0.0000
 40
0.0500
 41
0.0500
 70
0
  0
VERTEX
  8
0
 10
-0.2379
 20
0.4750
 30
0.0000
 42
1.0000
  0
VERTEX
  8
0
 10
-0.2379
 20
0.4250
 30
0.0000
  0
SEQEND
  8
0
  0
POLYLINE
  8
0
 66
1
 10
0.0000
 20
0.0000
 30
0.0000
 40
0.1000
 41
0.1000
 70
0
  0
VERTEX
  8
0
 10
0.4500
 20
0.2379
 30
0.0000
  0
VERTEX
  8
0
 10
0.4500
 20
-0.2379
 30
0.0000
  0
SEQEND
  8
0
  0
POLYLINE
  8
0
 66
1
 10
0.0000
 20
0.0000
 30
0.0000
 40
0.0500
 41
0.0500
 70
0
  0
VERTEX
  8
0
 10
0.4250
 20
-0.2379
 30
0.0000
 42
1.0000
  0
VERTEX
  8
0
 10
0.4750
 20
-0.2379
 30
0.0000
  0
SEQEND
  8
0
  0
POLYLINE
  8
0
 66
1
 10
0.0000
 20
0.0000
 30
0.0000
 40
0.0500
 41
0.0500
 70
0
  0
VERTEX
  8
0
 10
0.4750
 20
0.2379
 30
0.0000
 42
1.0000
  0
VERTEX
  8
0
 10
0.4250
 20
0.2379
 30
0.0000
  0
SEQEND
  8
0
  0
POLYLINE
  8
0
 66
1
 10
0.0000
 20
0.0000
 30
0.0000
 40
0.1000
 41
0.1000
 70
0
  0
VERTEX
  8
0
 10
0.2379
 20
-0.4500
 30
0.0000
  0
VERTEX
  8
0
 10
-0.2379
 20
-0.4500
 30
0.0000
  0
SEQEND
  8
0
  0
POLYLINE
  8
0
 66
1
 10
0.0000
 20
0.0000
 30
0.0000
 40
0.0500
 41
0.0500
 70
0
  0
VERTEX
  8
0
 10
-0.2379
 20
-0.4250
 30
0.0000
 42
1.0000
  0
VERTEX
  8
0
 10
-0.2379
 20
-0.4750
 30
0.0000
  0
SEQEND
  8
0
  0
POLYLINE
  8
0
 66
1
 10
0.0000
 20
0.0000
 30
0.0000
 40
0.0500
 41
0.0500
 70
0
  0
VERTEX
  8
0
 10
0.2379
 20
-0.4750
 30
0.0000
 42
1.0000
  0
VERTEX
  8
0
 10
0.2379
 20
-0.4250
 30
0.0000
  0
SEQEND
  8
0
  0
POLYLINE
  8
0
 66
1
 10
0.0000
 20
0.0000
 30
0.0000
 40
0.1000
 41
0.1000
 70
0
  0
VERTEX
  8
0
 10
-0.4500
 20
-0.2379
 30
0.0000
  0
VERTEX
  8
0
 10
-0.4500
 20
0.2379
 30
0.0000
  0
SEQEND
  8
0
  0
POLYLINE
  8
0
 66
1
 10
0.0000
 20
0.0000
 30
0.0000
 40
0.0500
 41
0.0500
 70
0
  0
VERTEX
  8
0
 10
-0.4250
 20
0.2379
 30
0.0000
 42
1.0000
  0
VERTEX
  8
0
 10
-0.4750
 20
0.2379
 30
0.0000
  0
SEQEND
  8
0
  0
POLYLINE
  8
0
 66
1
 10
0.0000
 20
0.0000
 30
0.0000
 40
0.0500
 41
0.0500
 70
0
  0
VERTEX
  8
0
 10
-0.4750
 20
-0.2379
 30
0.0000
 42
1.0000
  0
VERTEX
  8
0
 10
-0.4250
 20
-0.2379
 30
0.0000
  0
SEQEND
  8
0
  0
ENDBLK
  8
0
  0
ENDSEC
  0
SECTION
  2
ENTITIES
  0
POLYLINE
  8
20
 66
1
 10
0.0000
 20
0.0000
 30
0.0000
 40
0.0100
 41
0.0100
 70
0
  0
VERTEX
  8
20
 10
74.0933
 20
153.0944
 30
0.0000
  0
VERTEX
  8
20
 10
74.0933
 20
3.0944
 30
0.0000
  0
SEQEND
  8
0
  0
POLYLINE
  8
20
 66
1
 10
0.0000
 20
0.0000
 30
0.0000
 40
0.0050
 41
0.0050
 70
0
  0
VERTEX
  8
20
 10
74.0908
 20
3.0944
 30
0.0000
 42
1.0000
  0
VERTEX
  8
20
 10
74.0958
 20
3.0944
 30
0.0000
  0
SEQEND
  8
0
  0
POLYLINE
  8
20
 66
1
 10
0.0000
 20
0.0000
 30
0.0000
 40
0.0050
 41
0.0050
 70
0
  0
VERTEX
  8
20
 10
74.0958
 20
153.0944
 30
0.0000
 42
1.0000
  0
VERTEX
  8
20
 10
74.0908
 20
153.0944
 30
0.0000
  0
SEQEND
  8
0
  0
POLYLINE
  8
20
 66
1
 10
0.0000
 20
0.0000
 30
0.0000
 40
0.0100
 41
0.0100
 70
0
  0
VERTEX
  8
20
 10
74.0933
 20
3.0944
 30
0.0000
  0
VERTEX
  8
20
 10
2.0933
 20
3.0944
 30
0.0000
  0
SEQEND
  8
0
  0
POLYLINE
  8
20
 66
1
 10
0.0000
 20
0.0000
 30
0.0000
 40
0.0050
 41
0.0050
 70
0
  0
VERTEX
  8
20
 10
2.0933
 20
3.0969
 30
0.0000
 42
1.0000
  0
VERTEX
  8
20
 10
2.0933
 20
3.0919
 30
0.0000
  0
SEQEND
  8
0
  0
POLYLINE
  8
20
 66
1
 10
0.0000
 20
0.0000
 30
0.0000
 40
0.0050
 41
0.0050
 70
0
  0
VERTEX
  8
20
 10
74.0933
 20
3.0919
 30
0.0000
 42
1.0000
  0
VERTEX
  8
20
 10
74.0933
 20
3.0969
 30
0.0000
  0
SEQEND
  8
0
  0
POLYLINE
  8
20
 66
1
 10
0.0000
 20
0.0000
 30
0.0000
 40
0.0100
 41
0.0100
 70
0
  0
VERTEX
  8
20
 10
2.0933
 20
3.0944
 30
0.0000
  0
VERTEX
  8
20
 10
2.0933
 20
153.0944
 30
0.0000
  0
SEQEND
  8
0
  0
POLYLINE
  8
20
 66
1
 10
0.0000
 20
0.0000
 30
0.0000
 40
0.0050
 41
0.0050
 70
0
  0
VERTEX
  8
20
 10
2.0958
 20
153.0944
 30
0.0000
 42
1.0000
  0
VERTEX
  8
20
 10
2.0908
 20
153.0944
 30
0.0000
  0
SEQEND
  8
0
  0
POLYLINE
  8
20
 66
1
 10
0.0000
 20
0.0000
 30
0.0000
 40
0.0050
 41
0.0050
 70
0
  0
VERTEX
  8
20
 10
2.0908
 20
3.0944
 30
0.0000
 42
1.0000
  0
VERTEX
  8
20
 10
2.0958
 20
3.0944
 30
0.0000
  0
SEQEND
  8
0
  0
POLYLINE
  8
20
 66
1
 10
0.0000
 20
0.0000
 30
0.0000
 40
0.0100
 41
0.0100
 70
0
  0
VERTEX
  8
20
 10
2.0933
 20
153.0944
 30
0.0000
  0
VERTEX
  8
20
 10
74.0933
 20
153.0944
 30
0.0000
  0
SEQEND
  8
0
  0
POLYLINE
  8
20
 66
1
 10
0.0000
 20
0.0000
 30
0.0000
 40
0.0050
 41
0.0050
 70
0
  0
VERTEX
  8
20
 10
74.0933
 20
153.0919
 30
0.0000
 42
1.0000
  0
VERTEX
  8
20
 10
74.0933
 20
153.0969
 30
0.0000
  0
SEQEND
  8
0
  0
POLYLINE
  8
20
 66
1
 10
0.0000
 20
0.0000
 30
0.0000
 40
0.0050
 41
0.0050
 70
0
  0
VERTEX
  8
20
 10
2.0933
 20
153.0969
 30
0.0000
 42
1.0000
  0
VERTEX
  8
20
 10
2.0933
 20
153.0919
 30
0.0000
  0
SEQEND
  8
0
  0
POLYLINE
  8
20
 66
1
 10
0.0000
 20
0.0000
 30
0.0000
 40
0.0100
 41
0.0100
 70
0
  0
VERTEX
  8
20
 10
58.0933
 20
134.0944
 30
0.0000
 42
1.0000
  0
VERTEX
  8
20
 10
58.0933
 20
144.0944
 30
0.0000
 42
1.0000
  0
VERTEX
  8
20
 10
58.0933
 20
134.0944
 30
0.0000
  0
SEQEND
  8
0
  0
POLYLINE
  8
20
 66
1
 10
0.0000
 20
0.0000
 30
0.0000
 40
0.0100
 41
0.0100
 70
0
  0
VERTEX
  8
20
 10
58.0933
 20
94.0944
 30
0.0000
 42
1.0000
  0
VERTEX
  8
20
 10
58.0933
 20
104.0944
 30
0.0000
 42
1.0000
  0
VERTEX
  8
20
 10
58.0933
 20
94.0944
 30
0.0000
  0
SEQEND
  8
0
  0
POLYLINE
  8
20
 66
1
 10
0.0000
 20
0.0000
 30
0.0000
 40
0.0100
 41
0.0100
 70
0
  0
VERTEX
  8
20
 10
58.0933
 20
54.0944
 30
0.0000
 42
1.0000
  0
VERTEX
  8
20
 10
58.0933
 20
64.0944
 30
0.0000
 42
1.0000
  0
VERTEX
  8
20
 10
58.0933
 20
54.0944
 30
0.0000
  0
SEQEND
  8
0
  0
POLYLINE
  8
20
 66
1
 10
0.0000
 20
0.0000
 30
0.0000
 40
0.0100
 41
0.0100
 70
0
  0
VERTEX
  8
20
 10
58.0933
 20
14.0944
 30
0.0000
 42
1.0000
  0
VERTEX
  8
20
 10
58.0933
 20
24.0944
 30
0.0000
 42
1.0000
  0
VERTEX
  8
20
 10
58.0933
 20
14.0944
 30
0.0000
  0
SEQEND
  8
0
  0
POLYLINE
  8
20
 66
1
 10
0.0000
 20
0.0000
 30
0.0000
 40
0.0100
 41
0.0100
 70
0
  0
VERTEX
  8
20
 10
18.0933
 20
14.0944
 30
0.0000
 42
1.0000
  0
VERTEX
  8
20
 10
18.0933
 20
24.0944
 30
0.0000
 42
1.0000
  0
VERTEX
  8
20
 10
18.0933
 20
14.0944
 30
0.0000
  0
SEQEND
  8
0
  0
POLYLINE
  8
20
 66
1
 10
0.0000
 20
0.0000
 30
0.0000
 40
0.0100
 41
0.0100
 70
0
  0
VERTEX
  8
20
 10
18.0933
 20
54.0944
 30
0.0000
 42
1.0000
  0
VERTEX
  8
20
 10
18.0933
 20
64.0944
 30
0.0000
 42
1.0000
  0
VERTEX
  8
20
 10
18.0933
 20
54.0944
 30
0.0000
  0
SEQEND
  8
0
  0
POLYLINE
  8
20
 66
1
 10
0.0000
 20
0.0000
 30
0.0000
 40
0.0100
 41
0.0100
 70
0
  0
VERTEX
  8
20
 10
18.0933
 20
94.0944
 30
0.0000
 42
1.0000
  0
VERTEX
  8
20
 10
18.0933
 20
104.0944
 30
0.0000
 42
1.0000
  0
VERTEX
  8
20
 10
18.0933
 20
94.0944
 30
0.0000
  0
SEQEND
  8
0
  0
POLYLINE
  8
20
 66
1
 10
0.0000
 20
0.0000
 30
0.0000
 40
0.0100
 41
0.0100
 70
0
  0
VERTEX
  8
20
 10
18.0933
 20
134.0944
 30
0.0000
 42
1.0000
  0
VERTEX
  8
20
 10
18.0933
 20
144.0944
 30
0.0000
 42
1.0000
  0
VERTEX
  8
20
 10
18.0933
 20
134.0944
 30
0.0000
  0
SEQEND
  8
0
  0
POLYLINE
  8
20
 66
1
 10
0.0000
 20
0.0000
 30
0.0000
 40
0.0100
 41
0.0100
 70
0
  0
VERTEX
  8
20
 10
38.0933
 20
137.5944
 30
0.0000
 42
1.0000
  0
VERTEX
  8
20
 10
38.0933
 20
140.5944
 30
0.0000
 42
1.0000
  0
VERTEX
  8
20
 10
38.0933
 20
137.5944
 30
0.0000
  0
SEQEND
  8
0
  0
POLYLINE
  8
20
 66
1
 10
0.0000
 20
0.0000
 30
0.0000
 40
0.0100
 41
0.0100
 70
0
  0
VERTEX
  8
20
 10
18.0933
 20
77.5944
 30
0.0000
 42
1.0000
  0
VERTEX
  8
20
 10
18.0933
 20
80.5944
 30
0.0000
 42
1.0000
  0
VERTEX
  8
20
 10
18.0933
 20
77.5944
 30
0.0000
  0
SEQEND
  8
0
  0
POLYLINE
  8
20
 66
1
 10
0.0000
 20
0.0000
 30
0.0000
 40
0.0100
 41
0.0100
 70
0
  0
VERTEX
  8
20
 10
38.0933
 20
17.5944
 30
0.0000
 42
1.0000
  0
VERTEX
  8
20
 10
38.0933
 20
20.5944
 30
0.0000
 42
1.0000
  0
VERTEX
  8
20
 10
38.0933
 20
17.5944
 30
0.0000
  0
SEQEND
  8
0
  0
POLYLINE
  8
20
 66
1
 10
0.0000
 20
0.0000
 30
0.0000
 40
0.0100
 41
0.0100
 70
0
  0
VERTEX
  8
20
 10
58.0933
 20
77.5944
 30
0.0000
 42
1.0000
  0
VERTEX
  8
20
 10
58.0933
 20
80.5944
 30
0.0000
 42
1.0000
  0
VERTEX
  8
20
 10
58.0933
 20
77.5944
 30
0.0000
  0
SEQEND
  8
0
  0
POLYLINE
  8
51
 66
1
 10
0.0000
 20
0.0000
 30
0.0000
 40
0.1016
 41
0.1016
 70
0
  0
VERTEX
  8
51
 10
24.2320
 20
78.3080
 30
0.0000
  0
VERTEX
  8
51
 10
23.5200
 20
78.3080
 30
0.0000
  0
SEQEND
  8
0
  0
POLYLINE
  8
51
 66
1
 10
0.0000
 20
0.0000
 30
0.0000
 40
0.0508
 41
0.0508
 70
0
  0
VERTEX
  8
51
 10
23.5200
 20
78.3334
 30
0.0000
 42
1.0000
  0
VERTEX
  8
51
 10
23.5200
 20
78.2826
 30
0.0000
  0
SEQEND
  8
0
  0
POLYLINE
  8
51
 66
1
 10
0.0000
 20
0.0000
 30
0.0000
 40
0.0508
 41
0.0508
 70
0
  0
VERTEX
  8
51
 10
24.2320
 20
78.2826
 30
0.0000
 42
1.0000
  0
VERTEX
  8
51
 10
24.2320
 20
78.3334
 30
0.0000
  0
SEQEND
  8
0
  0
POLYLINE
  8
51
 66
1
 10
0.0000
 20
0.0000
 30
0.0000
 40
0.1016
 41
0.1016
 70
0
  0
VERTEX
  8
51
 10
24.2320
 20
79.1590
 30
0.0000
  0
VERTEX
  8
51
 10
23.5200
 20
79.1590
 30
0.0000
  0
SEQEND
  8
0
  0
POLYLINE
  8
51
 66
1
 10
0.0000
 20
0.0000
 30
0.0000
 40
0.0508
 41
0.0508
 70
0
  0
VERTEX
  8
51
 10
23.5200
 20
79.1844
 30
0.0000
 42
1.0000
  0
VERTEX
  8
51
 10
23.5200
 20
79.1336
 30
0.0000
  0
SEQEND
  8
0
  0
POLYLINE
  8
51
 66
1
 10
0.0000
 20
0.0000
 30
0.0000
 40
0.0508
 41
0.0508
 70
0
  0
VERTEX
  8
51
 10
24.2320
 20
79.1336
 30
0.0000
 42
1.0000
  0
VERTEX
  8
51
 10
24.2320
 20
79.1844
 30
0.0000
  0
SEQEND
  8
0
  0
INSERT
  8
51
  2
RECT
 10
24.4642
 20
78.7349
 30
0.0000
 41
0.5001
 42
0.9500
 43
1.0000
 50
180.0000
  0
INSERT
  8
51
  2
RECT
 10
23.2958
 20
78.7349
 30
0.0000
 41
0.5001
 42
0.9500
 43
1.0000
 50
180.0000
  0
POLYLINE
  8
51
 66
1
 10
0.0000
 20
0.0000
 30
0.0000
 40
0.1016
 41
0.1016
 70
0
  0
VERTEX
  8
51
 10
62.9160
 20
86.2080
 30
0.0000
  0
VERTEX
  8
51
 10
62.9160
 20
85.4960
 30
0.0000
  0
SEQEND
  8
0
  0
POLYLINE
  8
51
 66
1
 10
0.0000
 20
0.0000
 30
0.0000
 40
0.0508
 41
0.0508
 70
0
  0
VERTEX
  8
51
 10
62.8906
 20
85.4960
 30
0.0000
 42
1.0000
  0
VERTEX
  8
51
 10
62.9414
 20
85.4960
 30
0.0000
  0
SEQEND
  8
0
  0
POLYLINE
  8
51
 66
1
 10
0.0000
 20
0.0000
 30
0.0000
 40
0.0508
 41
0.0508
 70
0
  0
VERTEX
  8
51
 10
62.9414
 20
86.2080
 30
0.0000
 42
1.0000
  0
VERTEX
  8
51
 10
62.8906
 20
86.2080
 30
0.0000
  0
SEQEND
  8
0
  0
POLYLINE
  8
51
 66
1
 10
0.0000
 20
0.0000
 30
0.0000
 40
0.1016
 41
0.1016
 70
0
  0
VERTEX
  8
51
 10
62.0650
 20
86.2080
 30
0.0000
  0
VERTEX
  8
51
 10
62.0650
 20
85.4960
 30
0.0000
  0
SEQEND
  8
0
  0
POLYLINE
  8
51
 66
1
 10
0.0000
 20
0.0000
 30
0.0000
 40
0.0508
 41
0.0508
 70
0
  0
VERTEX
  8
51
 10
62.0396
 20
85.4960
 30
0.0000
 42
1.0000
  0
VERTEX
  8
51
 10
62.0904
 20
85.4960
 30
0.0000
  0
SEQEND
  8
0
  0
POLYLINE
  8
51
 66
1
 10
0.0000
 20
0.0000
 30
0.0000
 40
0.0508
 41
0.0508
 70
0
  0
VERTEX
  8
51
 10
62.0904
 20
86.2080
 30
0.0000
 42
1.0000
  0
VERTEX
  8
51
 10
62.0396
 20
86.2080
 30
0.0000
  0
SEQEND
  8
0
  0
INSERT
  8
51
  2
RECT
 10
62.4891
 20
86.4402
 30
0.0000
 41
0.5001
 42
0.9500
 43
1.0000
 50
270.0000
  0
INSERT
  8
51
  2
RECT
 10
62.4891
 20
85.2717
 30
0.0000
 41
0.5001
 42
0.9500
 43
1.0000
 50
270.0000
  0
POLYLINE
  8
51
 66
1
 10
0.0000
 20
0.0000
 30
0.0000
 40
0.1016
 41
0.1016
 70
0
  0
VERTEX
  8
51
 10
31.0640
 20
60.6040
 30
0.0000
  0
VERTEX
  8
51
 10
31.0640
 20
61.3160
 30
0.0000
  0
SEQEND
  8
0
  0
POLYLINE
  8
51
 66
1
 10
0.0000
 20
0.0000
 30
0.0000
 40
0.0508
 41
0.0508
 70
0
  0
VERTEX
  8
51
 10
31.0894
 20
61.3160
 30
0.0000
 42
1.0000
  0
VERTEX
  8
51
 10
31.0386
 20
61.3160
 30
0.0000
  0
SEQEND
  8
0
  0
POLYLINE
  8
51
 66
1
 10
0.0000
 20
0.0000
 30
0.0000
 40
0.0508
 41
0.0508
 70
0
  0
VERTEX
  8
51
 10
31.0386
 20
60.6040
 30
0.0000
 42
1.0000
  0
VERTEX
  8
51
 10
31.0894
 20
60.6040
 30
0.0000
  0
SEQEND
  8
0
  0
POLYLINE
  8
51
 66
1
 10
0.0000
 20
0.0000
 30
0.0000
 40
0.1016
 41
0.1016
 70
0
  0
VERTEX
  8
51
 10
31.9150
 20
60.6040
 30
0.0000
  0
VERTEX
  8
51
 10
31.9150
 20
61.3160
 30
0.0000
  0
SEQEND
  8
0
  0
POLYLINE
  8
51
 66
1
 10
0.0000
 20
0.0000
 30
0.0000
 40
0.0508
 41
0.0508
 70
0
  0
VERTEX
  8
51
 10
31.9404
 20
61.3160
 30
0.0000
 42
1.0000
  0
VERTEX
  8
51
 10
31.8896
 20
61.3160
 30
0.0000
  0
SEQEND
  8
0
  0
POLYLINE
  8
51
 66
1
 10
0.0000
 20
0.0000
 30
0.0000
 40
0.0508
 41
0.0508
 70
0
  0
VERTEX
  8
51
 10
31.8896
 20
60.6040
 30
0.0000
 42
1.0000
  0
VERTEX
  8
51
 10
31.9404
 20
60.6040
 30
0.0000
  0
SEQEND
  8
0
  0
INSERT
  8
51
  2
RECT
 10
31.4909
 20
60.3719
 30
0.0000
 41
0.5001
 42
0.9500
 43
1.0000
 50
90.0000
  0
INSERT
  8
51
  2
RECT
 10
31.4909
 20
61.5403
 30
0.0000
 41
0.5001
 42
0.9500
 43
1.0000
 50
90.0000
  0
POLYLINE
  8
51
 66
1
 10
0.0000
 20
0.0000
 30
0.0000
 40
0.1016
 41
0.1016
 70
0
  0
VERTEX
  8
51
 10
64.8460
 20
85.4960
 30
0.0000
  0
VERTEX
  8
51
 10
64.8460
 20
86.2080
 30
0.0000
  0
SEQEND
  8
0
  0
POLYLINE
  8
51
 66
1
 10
0.0000
 20
0.0000
 30
0.0000
 40
0.0508
 41
0.0508
 70
0
  0
VERTEX
  8
51
 10
64.8714
 20
86.2080
 30
0.0000
 42
1.0000
  0
VERTEX
  8
51
 10
64.8206
 20
86.2080
 30
0.0000
  0
SEQEND
  8
0
  0
POLYLINE
  8
51
 66
1
 10
0.0000
 20
0.0000
 30
0.0000
 40
0.0508
 41
0.0508
 70
0
  0
VERTEX
  8
51
 10
64.8206
 20
85.4960
 30
0.0000
 42
1.0000
  0
VERTEX
  8
51
 10
64.8714
 20
85.4960
 30
0.0000
  0
SEQEND
  8
0
  0
POLYLINE
  8
51
 66
1
 10
0.0000
 20
0.0000
 30
0.0000
 40
0.1016
 41
0.1016
 70
0
  0
VERTEX
  8
51
 10
65.6970
 20
85.4960
 30
0.0000
  0
VERTEX
  8
51
 10
65.6970
 20
86.2080
 30
0.0000
  0
SEQEND
  8
0
  0
POLYLINE
  8
51
 66
1
 10
0.0000
 20
0.0000
 30
0.0000
 40
0.0508
 41
0.0508
 70
0
  0
VERTEX
  8
51
 10
65.7224
 20
86.2080
 30
0.0000
 42
1.0000
  0
VERTEX
  8
51
 10
65.6716
 20
86.2080
 30
0.0000
  0
SEQEND
  8
0
  0
POLYLINE
  8
51
 66
1
 10
0.0000
 20
0.0000
 30
0.0000
 40
0.0508
 41
0.0508
 70
0
  0
VERTEX
  8
51
 10
65.6716
 20
85.4960
 30
0.0000
 42
1.0000
  0
VERTEX
  8
51
 10
65.7224
 20
85.4960
 30
0.0000
  0
SEQEND
  8
0
  0
INSERT
  8
51
  2
RECT
 10
65.2729
 20
85.2639
 30
0.0000
 41
0.5001
 42
0.9500
 43
1.0000
 50
90.0000
  0
INSERT
  8
51
  2
RECT
 10
65.2729
 20
86.4323
 30
0.0000
 41
0.5001
 42
0.9500
 43
1.0000
 50
90.0000
  0
POLYLINE
  8
51
 66
1
 10
0.0000
 20
0.0000
 30
0.0000
 40
0.1016
 41
0.1016
 70
0
  0
VERTEX
  8
51
 10
18.7200
 20
75.2860
 30
0.0000
  0
VERTEX
  8
51
 10
18.7200
 20
74.5740
 30
0.0000
  0
SEQEND
  8
0
  0
POLYLINE
  8
51
 66
1
 10
0.0000
 20
0.0000
 30
0.0000
 40
0.0508
 41
0.0508
 70
0
  0
VERTEX
  8
51
 10
18.6946
 20
74.5740
 30
0.0000
 42
1.0000
  0
VERTEX
  8
51
 10
18.7454
 20
74.5740
 30
0.0000
  0
SEQEND
  8
0
  0
POLYLINE
  8
51
 66
1
 10
0.0000
 20
0.0000
 30
0.0000
 40
0.0508
 41
0.0508
 70
0
  0
VERTEX
  8
51
 10
18.7454
 20
75.2860
 30
0.0000
 42
1.0000
  0
VERTEX
  8
51
 10
18.6946
 20
75.2860
 30
0.0000
  0
SEQEND
  8
0
  0
POLYLINE
  8
51
 66
1
 10
0.0000
 20
0.0000
 30
0.0000
 40
0.1016
 41
0.1016
 70
0
  0
VERTEX
  8
51
 10
17.8690
 20
75.2860
 30
0.0000
  0
VERTEX
  8
51
 10
17.8690
 20
74.5740
 30
0.0000
  0
SEQEND
  8
0
  0
POLYLINE
  8
51
 66
1
 10
0.0000
 20
0.0000
 30
0.0000
 40
0.0508
 41
0.0508
 70
0
  0
VERTEX
  8
51
 10
17.8436
 20
74.5740
 30
0.0000
 42
1.0000
  0
VERTEX
  8
51
 10
17.8944
 20
74.5740
 30
0.0000
  0
SEQEND
  8
0
  0
POLYLINE
  8
51
 66
1
 10
0.0000
 20
0.0000
 30
0.0000
 40
0.0508
 41
0.0508
 70
0
  0
VERTEX
  8
51
 10
17.8944
 20
75.2860
 30
0.0000
 42
1.0000
  0
VERTEX
  8
51
 10
17.8436
 20
75.2860
 30
0.0000
  0
SEQEND
  8
0
  0
INSERT
  8
51
  2
RECT
 10
18.2931
 20
75.5182
 30
0.0000
 41
0.5001
 42
0.9500
 43
1.0000
 50
270.0000
  0
INSERT
  8
51
  2
RECT
 10
18.2931
 20
74.3498
 30
0.0000
 41
0.5001
 42
0.9500
 43
1.0000
 50
270.0000
  0
POLYLINE
  8
51
 66
1
 10
0.0000
 20
0.0000
 30
0.0000
 40
0.1016
 41
0.1016
 70
0
  0
VERTEX
  8
51
 10
15.0620
 20
74.5740
 30
0.0000
  0
VERTEX
  8
51
 10
15.0620
 20
75.2860
 30
0.0000
  0
SEQEND
  8
0
  0
POLYLINE
  8
51
 66
1
 10
0.0000
 20
0.0000
 30
0.0000
 40
0.0508
 41
0.0508
 70
0
  0
VERTEX
  8
51
 10
15.0874
 20
75.2860
 30
0.0000
 42
1.0000
  0
VERTEX
  8
51
 10
15.0366
 20
75.2860
 30
0.0000
  0
SEQEND
  8
0
  0
POLYLINE
  8
51
 66
1
 10
0.0000
 20
0.0000
 30
0.0000
 40
0.0508
 41
0.0508
 70
0
  0
VERTEX
  8
51
 10
15.0366
 20
74.5740
 30
0.0000
 42
1.0000
  0
VERTEX
  8
51
 10
15.0874
 20
74.5740
 30
0.0000
  0
SEQEND
  8
0
  0
POLYLINE
  8
51
 66
1
 10
0.0000
 20
0.0000
 30
0.0000
 40
0.1016
 41
0.1016
 70
0
  0
VERTEX
  8
51
 10
15.9130
 20
74.5740
 30
0.0000
  0
VERTEX
  8
51
 10
15.9130
 20
75.2860
 30
0.0000
  0
SEQEND
  8
0
  0
POLYLINE
  8
51
 66
1
 10
0.0000
 20
0.0000
 30
0.0000
 40
0.0508
 41
0.0508
 70
0
  0
VERTEX
  8
51
 10
15.9384
 20
75.2860
 30
0.0000
 42
1.0000
  0
VERTEX
  8
51
 10
15.8876
 20
75.2860
 30
0.0000
  0
SEQEND
  8
0
  0
POLYLINE
  8
51
 66
1
 10
0.0000
 20
0.0000
 30
0.0000
 40
0.0508
 41
0.0508
 70
0
  0
VERTEX
  8
51
 10
15.8876
 20
74.5740
 30
0.0000
 42
1.0000
  0
VERTEX
  8
51
 10
15.9384
 20
74.5740
 30
0.0000
  0
SEQEND
  8
0
  0
INSERT
  8
51
  2
RECT
 10
15.4889
 20
74.3419
 30
0.0000
 41
0.5001
 42
0.9500
 43
1.0000
 50
90.0000
  0
INSERT
  8
51
  2
RECT
 10
15.4889
 20
75.5102
 30
0.0000
 41
0.5001
 42
0.9500
 43
1.0000
 50
90.0000
  0
POLYLINE
  8
51
 66
1
 10
0.0000
 20
0.0000
 30
0.0000
 40
0.1016
 41
0.1016
 70
0
  0
VERTEX
  8
51
 10
28.5240
 20
60.6040
 30
0.0000
  0
VERTEX
  8
51
 10
28.5240
 20
61.3160
 30
0.0000
  0
SEQEND
  8
0
  0
POLYLINE
  8
51
 66
1
 10
0.0000
 20
0.0000
 30
0.0000
 40
0.0508
 41
0.0508
 70
0
  0
VERTEX
  8
51
 10
28.5494
 20
61.3160
 30
0.0000
 42
1.0000
  0
VERTEX
  8
51
 10
28.4986
 20
61.3160
 30
0.0000
  0
SEQEND
  8
0
  0
POLYLINE
  8
51
 66
1
 10
0.0000
 20
0.0000
 30
0.0000
 40
0.0508
 41
0.0508
 70
0
  0
VERTEX
  8
51
 10
28.4986
 20
60.6040
 30
0.0000
 42
1.0000
  0
VERTEX
  8
51
 10
28.5494
 20
60.6040
 30
0.0000
  0
SEQEND
  8
0
  0
POLYLINE
  8
51
 66
1
 10
0.0000
 20
0.0000
 30
0.0000
 40
0.1016
 41
0.1016
 70
0
  0
VERTEX
  8
51
 10
29.3750
 20
60.6040
 30
0.0000
  0
VERTEX
  8
51
 10
29.3750
 20
61.3160
 30
0.0000
  0
SEQEND
  8
0
  0
POLYLINE
  8
51
 66
1
 10
0.0000
 20
0.0000
 30
0.0000
 40
0.0508
 41
0.0508
 70
0
  0
VERTEX
  8
51
 10
29.4004
 20
61.3160
 30
0.0000
 42
1.0000
  0
VERTEX
  8
51
 10
29.3496
 20
61.3160
 30
0.0000
  0
SEQEND
  8
0
  0
POLYLINE
  8
51
 66
1
 10
0.0000
 20
0.0000
 30
0.0000
 40
0.0508
 41
0.0508
 70
0
  0
VERTEX
  8
51
 10
29.3496
 20
60.6040
 30
0.0000
 42
1.0000
  0
VERTEX
  8
51
 10
29.4004
 20
60.6040
 30
0.0000
  0
SEQEND
  8
0
  0
INSERT
  8
51
  2
RECT
 10
28.9509
 20
60.3719
 30
0.0000
 41
0.5001
 42
0.9500
 43
1.0000
 50
90.0000
  0
INSERT
  8
51
  2
RECT
 10
28.9509
 20
61.5403
 30
0.0000
 41
0.5001
 42
0.9500
 43
1.0000
 50
90.0000
  0
INSERT
  8
51
  2
RECT
 10
58.1660
 20
27.9400
 30
0.0000
 41
0.5080
 42
0.5080
 43
1.0000
 50
180.0000
  0
INSERT
  8
51
  2
RECT
 10
60.7060
 20
27.9400
 30
0.0000
 41
0.5080
 42
0.5080
 43
1.0000
 50
180.0000
  0
INSERT
  8
51
  2
RECT
 10
63.2460
 20
27.9400
 30
0.0000
 41
0.5080
 42
0.5080
 43
1.0000
 50
180.0000
  0
INSERT
  8
51
  2
RECT
 10
65.7860
 20
27.9400
 30
0.0000
 41
0.5080
 42
0.5080
 43
1.0000
 50
180.0000
  0
INSERT
  8
51
  2
RECT
 10
10.9220
 20
27.9400
 30
0.0000
 41
0.5080
 42
0.5080
 43
1.0000
 50
180.0000
  0
INSERT
  8
51
  2
RECT
 10
13.4620
 20
27.9400
 30
0.0000
 41
0.5080
 42
0.5080
 43
1.0000
 50
180.0000
  0
INSERT
  8
51
  2
RECT
 10
16.0020
 20
27.9400
 30
0.0000
 41
0.5080
 42
0.5080
 43
1.0000
 50
180.0000
  0
INSERT
  8
51
  2
RECT
 10
18.5420
 20
27.9400
 30
0.0000
 41
0.5080
 42
0.5080
 43
1.0000
 50
180.0000
  0
INSERT
  8
51
  2
RECT
 10
34.6710
 20
12.9540
 30
0.0000
 41
0.5080
 42
0.5080
 43
1.0000
 50
180.0000
  0
INSERT
  8
51
  2
RECT
 10
37.2110
 20
12.9540
 30
0.0000
 41
0.5080
 42
0.5080
 43
1.0000
 50
180.0000
  0
INSERT
  8
51
  2
RECT
 10
39.7510
 20
12.9540
 30
0.0000
 41
0.5080
 42
0.5080
 43
1.0000
 50
180.0000
  0
INSERT
  8
51
  2
RECT
 10
42.2910
 20
12.9540
 30
0.0000
 41
0.5080
 42
0.5080
 43
1.0000
 50
180.0000
  0
INSERT
  8
51
  2
RECT
 10
34.4170
 20
49.2760
 30
0.0000
 41
0.5080
 42
0.5080
 43
1.0000
 50
180.0000
  0
INSERT
  8
51
  2
RECT
 10
36.9570
 20
49.2760
 30
0.0000
 41
0.5080
 42
0.5080
 43
1.0000
 50
180.0000
  0
INSERT
  8
51
  2
RECT
 10
39.4970
 20
49.2760
 30
0.0000
 41
0.5080
 42
0.5080
 43
1.0000
 50
180.0000
  0
INSERT
  8
51
  2
RECT
 10
42.0370
 20
49.2760
 30
0.0000
 41
0.5080
 42
0.5080
 43
1.0000
 50
180.0000
  0
INSERT
  8
51
  2
RECT
 10
65.7860
 20
130.0480
 30
0.0000
 41
0.5080
 42
0.5080
 43
1.0000
 50
0.0000
  0
INSERT
  8
51
  2
RECT
 10
63.2460
 20
130.0480
 30
0.0000
 41
0.5080
 42
0.5080
 43
1.0000
 50
0.0000
  0
INSERT
  8
51
  2
RECT
 10
60.7060
 20
130.0480
 30
0.0000
 41
0.5080
 42
0.5080
 43
1.0000
 50
0.0000
  0
INSERT
  8
51
  2
RECT
 10
58.1660
 20
130.0480
 30
0.0000
 41
0.5080
 42
0.5080
 43
1.0000
 50
0.0000
  0
INSERT
  8
51
  2
RECT
 10
18.0340
 20
130.8100
 30
0.0000
 41
0.5080
 42
0.5080
 43
1.0000
 50
0.0000
  0
INSERT
  8
51
  2
RECT
 10
15.4940
 20
130.8100
 30
0.0000
 41
0.5080
 42
0.5080
 43
1.0000
 50
0.0000
  0
INSERT
  8
51
  2
RECT
 10
12.9540
 20
130.8100
 30
0.0000
 41
0.5080
 42
0.5080
 43
1.0000
 50
0.0000
  0
INSERT
  8
51
  2
RECT
 10
10.4140
 20
130.8100
 30
0.0000
 41
0.5080
 42
0.5080
 43
1.0000
 50
0.0000
  0
INSERT
  8
51
  2
RECT
 10
41.8139
 20
145.5150
 30
0.0000
 41
0.5080
 42
0.5080
 43
1.0000
 50
0.0000
  0
INSERT
  8
51
  2
RECT
 10
39.2739
 20
145.5150
 30
0.0000
 41
0.5080
 42
0.5080
 43
1.0000
 50
0.0000
  0
INSERT
  8
51
  2
RECT
 10
36.7339
 20
145.5150
 30
0.0000
 41
0.5080
 42
0.5080
 43
1.0000
 50
0.0000
  0
INSERT
  8
51
  2
RECT
 10
34.1939
 20
145.5150
 30
0.0000
 41
0.5080
 42
0.5080
 43
1.0000
 50
0.0000
  0
INSERT
  8
51
  2
RECT
 10
26.3570
 20
105.4109
 30
0.0000
 41
0.5080
 42
0.5080
 43
1.0000
 50
90.0000
  0
INSERT
  8
51
  2
RECT
 10
26.3570
 20
102.8709
 30
0.0000
 41
0.5080
 42
0.5080
 43
1.0000
 50
90.0000
  0
INSERT
  8
51
  2
RECT
 10
26.3570
 20
100.3309
 30
0.0000
 41
0.5080
 42
0.5080
 43
1.0000
 50
90.0000
  0
INSERT
  8
51
  2
RECT
 10
26.3570
 20
97.7909
 30
0.0000
 41
0.5080
 42
0.5080
 43
1.0000
 50
90.0000
  0
POLYLINE
  8
51
 66
1
 10
0.0000
 20
0.0000
 30
0.0000
 40
0.1524
 41
0.1524
 70
0
  0
VERTEX
  8
51
 10
57.8104
 20
71.0184
 30
0.0000
  0
VERTEX
  8
51
 10
57.8104
 20
69.6976
 30
0.0000
  0
SEQEND
  8
0
  0
POLYLINE
  8
51
 66
1
 10
0.0000
 20
0.0000
 30
0.0000
 40
0.0762
 41
0.0762
 70
0
  0
VERTEX
  8
51
 10
57.7723
 20
69.6976
 30
0.0000
 42
1.0000
  0
VERTEX
  8
51
 10
57.8485
 20
69.6976
 30
0.0000
  0
SEQEND
  8
0
  0
POLYLINE
  8
51
 66
1
 10
0.0000
 20
0.0000
 30
0.0000
 40
0.0762
 41
0.0762
 70
0
  0
VERTEX
  8
51
 10
57.8485
 20
71.0184
 30
0.0000
 42
1.0000
  0
VERTEX
  8
51
 10
57.7723
 20
71.0184
 30
0.0000
  0
SEQEND
  8
0
  0
POLYLINE
  8
51
 66
1
 10
0.0000
 20
0.0000
 30
0.0000
 40
0.1524
 41
0.1524
 70
0
  0
VERTEX
  8
51
 10
57.8104
 20
69.6976
 30
0.0000
  0
VERTEX
  8
51
 10
54.9656
 20
69.6976
 30
0.0000
  0
SEQEND
  8
0
  0
POLYLINE
  8
51
 66
1
 10
0.0000
 20
0.0000
 30
0.0000
 40
0.0762
 41
0.0762
 70
0
  0
VERTEX
  8
51
 10
54.9656
 20
69.7357
 30
0.0000
 42
1.0000
  0
VERTEX
  8
51
 10
54.9656
 20
69.6595
 30
0.0000
  0
SEQEND
  8
0
  0
POLYLINE
  8
51
 66
1
 10
0.0000
 20
0.0000
 30
0.0000
 40
0.0762
 41
0.0762
 70
0
  0
VERTEX
  8
51
 10
57.8104
 20
69.6595
 30
0.0000
 42
1.0000
  0
VERTEX
  8
51
 10
57.8104
 20
69.7357
 30
0.0000
  0
SEQEND
  8
0
  0
POLYLINE
  8
51
 66
1
 10
0.0000
 20
0.0000
 30
0.0000
 40
0.1524
 41
0.1524
 70
0
  0
VERTEX
  8
51
 10
54.9656
 20
69.6976
 30
0.0000
  0
VERTEX
  8
51
 10
54.9656
 20
71.0184
 30
0.0000
  0
SEQEND
  8
0
  0
POLYLINE
  8
51
 66
1
 10
0.0000
 20
0.0000
 30
0.0000
 40
0.0762
 41
0.0762
 70
0
  0
VERTEX
  8
51
 10
55.0037
 20
71.0184
 30
0.0000
 42
1.0000
  0
VERTEX
  8
51
 10
54.9275
 20
71.0184
 30
0.0000
  0
SEQEND
  8
0
  0
POLYLINE
  8
51
 66
1
 10
0.0000
 20
0.0000
 30
0.0000
 40
0.0762
 41
0.0762
 70
0
  0
VERTEX
  8
51
 10
54.9275
 20
69.6976
 30
0.0000
 42
1.0000
  0
VERTEX
  8
51
 10
55.0037
 20
69.6976
 30
0.0000
  0
SEQEND
  8
0
  0
POLYLINE
  8
51
 66
1
 10
0.0000
 20
0.0000
 30
0.0000
 40
0.1524
 41
0.1524
 70
0
  0
VERTEX
  8
51
 10
54.9656
 20
71.0184
 30
0.0000
  0
VERTEX
  8
51
 10
57.8104
 20
71.0184
 30
0.0000
  0
SEQEND
  8
0
  0
POLYLINE
  8
51
 66
1
 10
0.0000
 20
0.0000
 30
0.0000
 40
0.0762
 41
0.0762
 70
0
  0
VERTEX
  8
51
 10
57.8104
 20
70.9803
 30
0.0000
 42
1.0000
  0
VERTEX
  8
51
 10
57.8104
 20
71.0565
 30
0.0000
  0
SEQEND
  8
0
  0
POLYLINE
  8
51
 66
1
 10
0.0000
 20
0.0000
 30
0.0000
 40
0.0762
 41
0.0762
 70
0
  0
VERTEX
  8
51
 10
54.9656
 20
71.0565
 30
0.0000
 42
1.0000
  0
VERTEX
  8
51
 10
54.9656
 20
70.9803
 30
0.0000
  0
SEQEND
  8
0
  0
INSERT
  8
51
  2
RECT
 10
56.3880
 20
71.3613
 30
0.0000
 41
0.4572
 42
0.5842
 43
1.0000
 50
0.0000
  0
INSERT
  8
51
  2
RECT
 10
57.3278
 20
69.3547
 30
0.0000
 41
0.4572
 42
0.5842
 43
1.0000
 50
0.0000
  0
INSERT
  8
51
  2
RECT
 10
55.4482
 20
69.3547
 30
0.0000
 41
0.4572
 42
0.5842
 43
1.0000
 50
0.0000
  0
POLYLINE
  8
51
 66
1
 10
0.0000
 20
0.0000
 30
0.0000
 40
0.1524
 41
0.1524
 70
0
  0
VERTEX
  8
51
 10
49.1744
 20
61.1124
 30
0.0000
  0
VERTEX
  8
51
 10
49.1744
 20
59.7916
 30
0.0000
  0
SEQEND
  8
0
  0
POLYLINE
  8
51
 66
1
 10
0.0000
 20
0.0000
 30
0.0000
 40
0.0762
 41
0.0762
 70
0
  0
VERTEX
  8
51
 10
49.1363
 20
59.7916
 30
0.0000
 42
1.0000
  0
VERTEX
  8
51
 10
49.2125
 20
59.7916
 30
0.0000
  0
SEQEND
  8
0
  0
POLYLINE
  8
51
 66
1
 10
0.0000
 20
0.0000
 30
0.0000
 40
0.0762
 41
0.0762
 70
0
  0
VERTEX
  8
51
 10
49.2125
 20
61.1124
 30
0.0000
 42
1.0000
  0
VERTEX
  8
51
 10
49.1363
 20
61.1124
 30
0.0000
  0
SEQEND
  8
0
  0
POLYLINE
  8
51
 66
1
 10
0.0000
 20
0.0000
 30
0.0000
 40
0.1524
 41
0.1524
 70
0
  0
VERTEX
  8
51
 10
49.1744
 20
59.7916
 30
0.0000
  0
VERTEX
  8
51
 10
46.3296
 20
59.7916
 30
0.0000
  0
SEQEND
  8
0
  0
POLYLINE
  8
51
 66
1
 10
0.0000
 20
0.0000
 30
0.0000
 40
0.0762
 41
0.0762
 70
0
  0
VERTEX
  8
51
 10
46.3296
 20
59.8297
 30
0.0000
 42
1.0000
  0
VERTEX
  8
51
 10
46.3296
 20
59.7535
 30
0.0000
  0
SEQEND
  8
0
  0
POLYLINE
  8
51
 66
1
 10
0.0000
 20
0.0000
 30
0.0000
 40
0.0762
 41
0.0762
 70
0
  0
VERTEX
  8
51
 10
49.1744
 20
59.7535
 30
0.0000
 42
1.0000
  0
VERTEX
  8
51
 10
49.1744
 20
59.8297
 30
0.0000
  0
SEQEND
  8
0
  0
POLYLINE
  8
51
 66
1
 10
0.0000
 20
0.0000
 30
0.0000
 40
0.1524
 41
0.1524
 70
0
  0
VERTEX
  8
51
 10
46.3296
 20
59.7916
 30
0.0000
  0
VERTEX
  8
51
 10
46.3296
 20
61.1124
 30
0.0000
  0
SEQEND
  8
0
  0
POLYLINE
  8
51
 66
1
 10
0.0000
 20
0.0000
 30
0.0000
 40
0.0762
 41
0.0762
 70
0
  0
VERTEX
  8
51
 10
46.3677
 20
61.1124
 30
0.0000
 42
1.0000
  0
VERTEX
  8
51
 10
46.2915
 20
61.1124
 30
0.0000
  0
SEQEND
  8
0
  0
POLYLINE
  8
51
 66
1
 10
0.0000
 20
0.0000
 30
0.0000
 40
0.0762
 41
0.0762
 70
0
  0
VERTEX
  8
51
 10
46.2915
 20
59.7916
 30
0.0000
 42
1.0000
  0
VERTEX
  8
51
 10
46.3677
 20
59.7916
 30
0.0000
  0
SEQEND
  8
0
  0
POLYLINE
  8
51
 66
1
 10
0.0000
 20
0.0000
 30
0.0000
 40
0.1524
 41
0.1524
 70
0
  0
VERTEX
  8
51
 10
46.3296
 20
61.1124
 30
0.0000
  0
VERTEX
  8
51
 10
49.1744
 20
61.1124
 30
0.0000
  0
SEQEND
  8
0
  0
POLYLINE
  8
51
 66
1
 10
0.0000
 20
0.0000
 30
0.0000
 40
0.0762
 41
0.0762
 70
0
  0
VERTEX
  8
51
 10
49.1744
 20
61.0743
 30
0.0000
 42
1.0000
  0
VERTEX
  8
51
 10
49.1744
 20
61.1505
 30
0.0000
  0
SEQEND
  8
0
  0
POLYLINE
  8
51
 66
1
 10
0.0000
 20
0.0000
 30
0.0000
 40
0.0762
 41
0.0762
 70
0
  0
VERTEX
  8
51
 10
46.3296
 20
61.1505
 30
0.0000
 42
1.0000
  0
VERTEX
  8
51
 10
46.3296
 20
61.0743
 30
0.0000
  0
SEQEND
  8
0
  0
INSERT
  8
51
  2
RECT
 10
47.7520
 20
61.4553
 30
0.0000
 41
0.4572
 42
0.5842
 43
1.0000
 50
0.0000
  0
INSERT
  8
51
  2
RECT
 10
48.6918
 20
59.4487
 30
0.0000
 41
0.4572
 42
0.5842
 43
1.0000
 50
0.0000
  0
INSERT
  8
51
  2
RECT
 10
46.8122
 20
59.4487
 30
0.0000
 41
0.4572
 42
0.5842
 43
1.0000
 50
0.0000
  0
POLYLINE
  8
51
 66
1
 10
0.0000
 20
0.0000
 30
0.0000
 40
0.1270
 41
0.1270
 70
0
  0
VERTEX
  8
51
 10
6.6440
 20
127.1270
 30
0.0000
  0
VERTEX
  8
51
 10
11.6440
 20
127.1270
 30
0.0000
  0
SEQEND
  8
0
  0
POLYLINE
  8
51
 66
1
 10
0.0000
 20
0.0000
 30
0.0000
 40
0.0635
 41
0.0635
 70
0
  0
VERTEX
  8
51
 10
11.6440
 20
127.0953
 30
0.0000
 42
1.0000
  0
VERTEX
  8
51
 10
11.6440
 20
127.1588
 30
0.0000
  0
SEQEND
  8
0
  0
POLYLINE
  8
51
 66
1
 10
0.0000
 20
0.0000
 30
0.0000
 40
0.0635
 41
0.0635
 70
0
  0
VERTEX
  8
51
 10
6.6440
 20
127.1588
 30
0.0000
 42
1.0000
  0
VERTEX
  8
51
 10
6.6440
 20
127.0953
 30
0.0000
  0
SEQEND
  8
0
  0
POLYLINE
  8
51
 66
1
 10
0.0000
 20
0.0000
 30
0.0000
 40
0.1270
 41
0.1270
 70
0
  0
VERTEX
  8
51
 10
11.6440
 20
127.1270
 30
0.0000
  0
VERTEX
  8
51
 10
11.6440
 20
111.8870
 30
0.0000
  0
SEQEND
  8
0
  0
POLYLINE
  8
51
 66
1
 10
0.0000
 20
0.0000
 30
0.0000
 40
0.0635
 41
0.0635
 70
0
  0
VERTEX
  8
51
 10
11.6122
 20
111.8870
 30
0.0000
 42
1.0000
  0
VERTEX
  8
51
 10
11.6758
 20
111.8870
 30
0.0000
  0
SEQEND
  8
0
  0
POLYLINE
  8
51
 66
1
 10
0.0000
 20
0.0000
 30
0.0000
 40
0.0635
 41
0.0635
 70
0
  0
VERTEX
  8
51
 10
11.6758
 20
127.1270
 30
0.0000
 42
1.0000
  0
VERTEX
  8
51
 10
11.6122
 20
127.1270
 30
0.0000
  0
SEQEND
  8
0
  0
POLYLINE
  8
51
 66
1
 10
0.0000
 20
0.0000
 30
0.0000
 40
0.1270
 41
0.1270
 70
0
  0
VERTEX
  8
51
 10
11.6440
 20
111.8870
 30
0.0000
  0
VERTEX
  8
51
 10
6.6440
 20
111.8870
 30
0.0000
  0
SEQEND
  8
0
  0
POLYLINE
  8
51
 66
1
 10
0.0000
 20
0.0000
 30
0.0000
 40
0.0635
 41
0.0635
 70
0
  0
VERTEX
  8
51
 10
6.6440
 20
111.9188
 30
0.0000
 42
1.0000
  0
VERTEX
  8
51
 10
6.6440
 20
111.8552
 30
0.0000
  0
SEQEND
  8
0
  0
POLYLINE
  8
51
 66
1
 10
0.0000
 20
0.0000
 30
0.0000
 40
0.0635
 41
0.0635
 70
0
  0
VERTEX
  8
51
 10
11.6440
 20
111.8552
 30
0.0000
 42
1.0000
  0
VERTEX
  8
51
 10
11.6440
 20
111.9188
 30
0.0000
  0
SEQEND
  8
0
  0
POLYLINE
  8
51
 66
1
 10
0.0000
 20
0.0000
 30
0.0000
 40
0.1270
 41
0.1270
 70
0
  0
VERTEX
  8
51
 10
6.6440
 20
111.8870
 30
0.0000
  0
VERTEX
  8
51
 10
6.6440
 20
127.1270
 30
0.0000
  0
SEQEND
  8
0
  0
POLYLINE
  8
51
 66
1
 10
0.0000
 20
0.0000
 30
0.0000
 40
0.0635
 41
0.0635
 70
0
  0
VERTEX
  8
51
 10
6.6757
 20
127.1270
 30
0.0000
 42
1.0000
  0
VERTEX
  8
51
 10
6.6123
 20
127.1270
 30
0.0000
  0
SEQEND
  8
0
  0
POLYLINE
  8
51
 66
1
 10
0.0000
 20
0.0000
 30
0.0000
 40
0.0635
 41
0.0635
 70
0
  0
VERTEX
  8
51
 10
6.6123
 20
111.8870
 30
0.0000
 42
1.0000
  0
VERTEX
  8
51
 10
6.6757
 20
111.8870
 30
0.0000
  0
SEQEND
  8
0
  0
POLYLINE
  8
51
 66
1
 10
0.0000
 20
0.0000
 30
0.0000
 40
0.1270
 41
0.1270
 70
0
  0
VERTEX
  8
51
 10
10.4140
 20
122.6170
 30
0.0000
 42
1.0000
  0
VERTEX
  8
51
 10
10.4140
 20
124.0170
 30
0.0000
 42
1.0000
  0
VERTEX
  8
51
 10
10.4140
 20
122.6170
 30
0.0000
  0
SEQEND
  8
0
  0
POLYLINE
  8
51
 66
1
 10
0.0000
 20
0.0000
 30
0.0000
 40
0.1270
 41
0.1270
 70
0
  0
VERTEX
  8
51
 10
10.4140
 20
125.1570
 30
0.0000
 42
1.0000
  0
VERTEX
  8
51
 10
10.4140
 20
126.5570
 30
0.0000
 42
1.0000
  0
VERTEX
  8
51
 10
10.4140
 20
125.1570
 30
0.0000
  0
SEQEND
  8
0
  0
POLYLINE
  8
51
 66
1
 10
0.0000
 20
0.0000
 30
0.0000
 40
0.1270
 41
0.1270
 70
0
  0
VERTEX
  8
51
 10
7.8740
 20
125.1570
 30
0.0000
 42
1.0000
  0
VERTEX
  8
51
 10
7.8740
 20
126.5570
 30
0.0000
 42
1.0000
  0
VERTEX
  8
51
 10
7.8740
 20
125.1570
 30
0.0000
  0
SEQEND
  8
0
  0
POLYLINE
  8
51
 66
1
 10
0.0000
 20
0.0000
 30
0.0000
 40
0.1270
 41
0.1270
 70
0
  0
VERTEX
  8
51
 10
7.8740
 20
122.6170
 30
0.0000
 42
1.0000
  0
VERTEX
  8
51
 10
7.8740
 20
124.0170
 30
0.0000
 42
1.0000
  0
VERTEX
  8
51
 10
7.8740
 20
122.6170
 30
0.0000
  0
SEQEND
  8
0
  0
POLYLINE
  8
51
 66
1
 10
0.0000
 20
0.0000
 30
0.0000
 40
0.1270
 41
0.1270
 70
0
  0
VERTEX
  8
51
 10
7.8740
 20
120.0770
 30
0.0000
 42
1.0000
  0
VERTEX
  8
51
 10
7.8740
 20
121.4770
 30
0.0000
 42
1.0000
  0
VERTEX
  8
51
 10
7.8740
 20
120.0770
 30
0.0000
  0
SEQEND
  8
0
  0
POLYLINE
  8
51
 66
1
 10
0.0000
 20
0.0000
 30
0.0000
 40
0.1270
 41
0.1270
 70
0
  0
VERTEX
  8
51
 10
10.4140
 20
120.0770
 30
0.0000
 42
1.0000
  0
VERTEX
  8
51
 10
10.4140
 20
121.4770
 30
0.0000
 42
1.0000
  0
VERTEX
  8
51
 10
10.4140
 20
120.0770
 30
0.0000
  0
SEQEND
  8
0
  0
POLYLINE
  8
51
 66
1
 10
0.0000
 20
0.0000
 30
0.0000
 40
0.1270
 41
0.1270
 70
0
  0
VERTEX
  8
51
 10
7.8740
 20
117.5370
 30
0.0000
 42
1.0000
  0
VERTEX
  8
51
 10
7.8740
 20
118.9370
 30
0.0000
 42
1.0000
  0
VERTEX
  8
51
 10
7.8740
 20
117.5370
 30
0.0000
  0
SEQEND
  8
0
  0
POLYLINE
  8
51
 66
1
 10
0.0000
 20
0.0000
 30
0.0000
 40
0.1270
 41
0.1270
 70
0
  0
VERTEX
  8
51
 10
10.4140
 20
117.5370
 30
0.0000
 42
1.0000
  0
VERTEX
  8
51
 10
10.4140
 20
118.9370
 30
0.0000
 42
1.0000
  0
VERTEX
  8
51
 10
10.4140
 20
117.5370
 30
0.0000
  0
SEQEND
  8
0
  0
POLYLINE
  8
51
 66
1
 10
0.0000
 20
0.0000
 30
0.0000
 40
0.1270
 41
0.1270
 70
0
  0
VERTEX
  8
51
 10
7.8740
 20
114.9970
 30
0.0000
 42
1.0000
  0
VERTEX
  8
51
 10
7.8740
 20
116.3970
 30
0.0000
 42
1.0000
  0
VERTEX
  8
51
 10
7.8740
 20
114.9970
 30
0.0000
  0
SEQEND
  8
0
  0
POLYLINE
  8
51
 66
1
 10
0.0000
 20
0.0000
 30
0.0000
 40
0.1270
 41
0.1270
 70
0
  0
VERTEX
  8
51
 10
10.4140
 20
114.9970
 30
0.0000
 42
1.0000
  0
VERTEX
  8
51
 10
10.4140
 20
116.3970
 30
0.0000
 42
1.0000
  0
VERTEX
  8
51
 10
10.4140
 20
114.9970
 30
0.0000
  0
SEQEND
  8
0
  0
POLYLINE
  8
51
 66
1
 10
0.0000
 20
0.0000
 30
0.0000
 40
0.1270
 41
0.1270
 70
0
  0
VERTEX
  8
51
 10
7.8740
 20
112.4570
 30
0.0000
 42
1.0000
  0
VERTEX
  8
51
 10
7.8740
 20
113.8570
 30
0.0000
 42
1.0000
  0
VERTEX
  8
51
 10
7.8740
 20
112.4570
 30
0.0000
  0
SEQEND
  8
0
  0
POLYLINE
  8
51
 66
1
 10
0.0000
 20
0.0000
 30
0.0000
 40
0.1270
 41
0.1270
 70
0
  0
VERTEX
  8
51
 10
10.4140
 20
112.4570
 30
0.0000
 42
1.0000
  0
VERTEX
  8
51
 10
10.4140
 20
113.8570
 30
0.0000
 42
1.0000
  0
VERTEX
  8
51
 10
10.4140
 20
112.4570
 30
0.0000
  0
SEQEND
  8
0
  0
INSERT
  8
51
  2
RECT
 10
12.0940
 20
123.3170
 30
0.0000
 41
0.6000
 42
0.8000
 43
1.0000
 50
270.0000
  0
INSERT
  8
51
  2
RECT
 10
12.0940
 20
125.8570
 30
0.0000
 41
0.6000
 42
0.8000
 43
1.0000
 50
270.0000
  0
INSERT
  8
51
  2
RECT
 10
12.0940
 20
120.7770
 30
0.0000
 41
0.6000
 42
0.8000
 43
1.0000
 50
270.0000
  0
INSERT
  8
51
  2
RECT
 10
6.1940
 20
125.8570
 30
0.0000
 41
0.6000
 42
0.8000
 43
1.0000
 50
90.0000
  0
INSERT
  8
51
  2
RECT
 10
6.1940
 20
123.3170
 30
0.0000
 41
0.6000
 42
0.8000
 43
1.0000
 50
90.0000
  0
INSERT
  8
51
  2
RECT
 10
6.1940
 20
120.7770
 30
0.0000
 41
0.6000
 42
0.8000
 43
1.0000
 50
90.0000
  0
INSERT
  8
51
  2
RECT
 10
12.0940
 20
118.2370
 30
0.0000
 41
0.6000
 42
0.8000
 43
1.0000
 50
270.0000
  0
INSERT
  8
51
  2
RECT
 10
6.1940
 20
118.2370
 30
0.0000
 41
0.6000
 42
0.8000
 43
1.0000
 50
90.0000
  0
INSERT
  8
51
  2
RECT
 10
12.0940
 20
115.6970
 30
0.0000
 41
0.6000
 42
0.8000
 43
1.0000
 50
270.0000
  0
INSERT
  8
51
  2
RECT
 10
6.1940
 20
115.6970
 30
0.0000
 41
0.6000
 42
0.8000
 43
1.0000
 50
90.0000
  0
INSERT
  8
51
  2
RECT
 10
12.0940
 20
113.1570
 30
0.0000
 41
0.6000
 42
0.8000
 43
1.0000
 50
270.0000
  0
INSERT
  8
51
  2
RECT
 10
6.1940
 20
113.1570
 30
0.0000
 41
0.6000
 42
0.8000
 43
1.0000
 50
90.0000
  0
INSERT
  8
51
  2
RECT
 10
64.5160
 20
80.0100
 30
0.0000
 41
0.5080
 42
0.5080
 43
1.0000
 50
180.0000
  0
INSERT
  8
51
  2
RECT
 10
67.0560
 20
80.0100
 30
0.0000
 41
0.5080
 42
0.5080
 43
1.0000
 50
180.0000
  0
INSERT
  8
51
  2
RECT
 10
36.5760
 20
8.1280
 30
0.0000
 41
0.5080
 42
0.5080
 43
1.0000
 50
90.0000
  0
INSERT
  8
51
  2
RECT
 10
36.5760
 20
5.5880
 30
0.0000
 41
0.5080
 42
0.5080
 43
1.0000
 50
90.0000
  0
POLYLINE
  8
51
 66
1
 10
0.0000
 20
0.0000
 30
0.0000
 40
0.1270
 41
0.1270
 70
0
  0
VERTEX
  8
51
 10
64.5560
 20
127.1270
 30
0.0000
  0
VERTEX
  8
51
 10
69.5560
 20
127.1270
 30
0.0000
  0
SEQEND
  8
0
  0
POLYLINE
  8
51
 66
1
 10
0.0000
 20
0.0000
 30
0.0000
 40
0.0635
 41
0.0635
 70
0
  0
VERTEX
  8
51
 10
69.5560
 20
127.0953
 30
0.0000
 42
1.0000
  0
VERTEX
  8
51
 10
69.5560
 20
127.1588
 30
0.0000
  0
SEQEND
  8
0
  0
POLYLINE
  8
51
 66
1
 10
0.0000
 20
0.0000
 30
0.0000
 40
0.0635
 41
0.0635
 70
0
  0
VERTEX
  8
51
 10
64.5560
 20
127.1588
 30
0.0000
 42
1.0000
  0
VERTEX
  8
51
 10
64.5560
 20
127.0953
 30
0.0000
  0
SEQEND
  8
0
  0
POLYLINE
  8
51
 66
1
 10
0.0000
 20
0.0000
 30
0.0000
 40
0.1270
 41
0.1270
 70
0
  0
VERTEX
  8
51
 10
69.5560
 20
127.1270
 30
0.0000
  0
VERTEX
  8
51
 10
69.5560
 20
111.8870
 30
0.0000
  0
SEQEND
  8
0
  0
POLYLINE
  8
51
 66
1
 10
0.0000
 20
0.0000
 30
0.0000
 40
0.0635
 41
0.0635
 70
0
  0
VERTEX
  8
51
 10
69.5242
 20
111.8870
 30
0.0000
 42
1.0000
  0
VERTEX
  8
51
 10
69.5877
 20
111.8870
 30
0.0000
  0
SEQEND
  8
0
  0
POLYLINE
  8
51
 66
1
 10
0.0000
 20
0.0000
 30
0.0000
 40
0.0635
 41
0.0635
 70
0
  0
VERTEX
  8
51
 10
69.5877
 20
127.1270
 30
0.0000
 42
1.0000
  0
VERTEX
  8
51
 10
69.5242
 20
127.1270
 30
0.0000
  0
SEQEND
  8
0
  0
POLYLINE
  8
51
 66
1
 10
0.0000
 20
0.0000
 30
0.0000
 40
0.1270
 41
0.1270
 70
0
  0
VERTEX
  8
51
 10
69.5560
 20
111.8870
 30
0.0000
  0
VERTEX
  8
51
 10
64.5560
 20
111.8870
 30
0.0000
  0
SEQEND
  8
0
  0
POLYLINE
  8
51
 66
1
 10
0.0000
 20
0.0000
 30
0.0000
 40
0.0635
 41
0.0635
 70
0
  0
VERTEX
  8
51
 10
64.5560
 20
111.9188
 30
0.0000
 42
1.0000
  0
VERTEX
  8
51
 10
64.5560
 20
111.8552
 30
0.0000
  0
SEQEND
  8
0
  0
POLYLINE
  8
51
 66
1
 10
0.0000
 20
0.0000
 30
0.0000
 40
0.0635
 41
0.0635
 70
0
  0
VERTEX
  8
51
 10
69.5560
 20
111.8552
 30
0.0000
 42
1.0000
  0
VERTEX
  8
51
 10
69.5560
 20
111.9188
 30
0.0000
  0
SEQEND
  8
0
  0
POLYLINE
  8
51
 66
1
 10
0.0000
 20
0.0000
 30
0.0000
 40
0.1270
 41
0.1270
 70
0
  0
VERTEX
  8
51
 10
64.5560
 20
111.8870
 30
0.0000
  0
VERTEX
  8
51
 10
64.5560
 20
127.1270
 30
0.0000
  0
SEQEND
  8
0
  0
POLYLINE
  8
51
 66
1
 10
0.0000
 20
0.0000
 30
0.0000
 40
0.0635
 41
0.0635
 70
0
  0
VERTEX
  8
51
 10
64.5877
 20
127.1270
 30
0.0000
 42
1.0000
  0
VERTEX
  8
51
 10
64.5242
 20
127.1270
 30
0.0000
  0
SEQEND
  8
0
  0
POLYLINE
  8
51
 66
1
 10
0.0000
 20
0.0000
 30
0.0000
 40
0.0635
 41
0.0635
 70
0
  0
VERTEX
  8
51
 10
64.5242
 20
111.8870
 30
0.0000
 42
1.0000
  0
VERTEX
  8
51
 10
64.5877
 20
111.8870
 30
0.0000
  0
SEQEND
  8
0
  0
POLYLINE
  8
51
 66
1
 10
0.0000
 20
0.0000
 30
0.0000
 40
0.1270
 41
0.1270
 70
0
  0
VERTEX
  8
51
 10
68.3260
 20
122.6170
 30
0.0000
 42
1.0000
  0
VERTEX
  8
51
 10
68.3260
 20
124.0170
 30
0.0000
 42
1.0000
  0
VERTEX
  8
51
 10
68.3260
 20
122.6170
 30
0.0000
  0
SEQEND
  8
0
  0
POLYLINE
  8
51
 66
1
 10
0.0000
 20
0.0000
 30
0.0000
 40
0.1270
 41
0.1270
 70
0
  0
VERTEX
  8
51
 10
68.3260
 20
125.1570
 30
0.0000
 42
1.0000
  0
VERTEX
  8
51
 10
68.3260
 20
126.5570
 30
0.0000
 42
1.0000
  0
VERTEX
  8
51
 10
68.3260
 20
125.1570
 30
0.0000
  0
SEQEND
  8
0
  0
POLYLINE
  8
51
 66
1
 10
0.0000
 20
0.0000
 30
0.0000
 40
0.1270
 41
0.1270
 70
0
  0
VERTEX
  8
51
 10
65.7860
 20
125.1570
 30
0.0000
 42
1.0000
  0
VERTEX
  8
51
 10
65.7860
 20
126.5570
 30
0.0000
 42
1.0000
  0
VERTEX
  8
51
 10
65.7860
 20
125.1570
 30
0.0000
  0
SEQEND
  8
0
  0
POLYLINE
  8
51
 66
1
 10
0.0000
 20
0.0000
 30
0.0000
 40
0.1270
 41
0.1270
 70
0
  0
VERTEX
  8
51
 10
65.7860
 20
122.6170
 30
0.0000
 42
1.0000
  0
VERTEX
  8
51
 10
65.7860
 20
124.0170
 30
0.0000
 42
1.0000
  0
VERTEX
  8
51
 10
65.7860
 20
122.6170
 30
0.0000
  0
SEQEND
  8
0
  0
POLYLINE
  8
51
 66
1
 10
0.0000
 20
0.0000
 30
0.0000
 40
0.1270
 41
0.1270
 70
0
  0
VERTEX
  8
51
 10
65.7860
 20
120.0770
 30
0.0000
 42
1.0000
  0
VERTEX
  8
51
 10
65.7860
 20
121.4770
 30
0.0000
 42
1.0000
  0
VERTEX
  8
51
 10
65.7860
 20
120.0770
 30
0.0000
  0
SEQEND
  8
0
  0
POLYLINE
  8
51
 66
1
 10
0.0000
 20
0.0000
 30
0.0000
 40
0.1270
 41
0.1270
 70
0
  0
VERTEX
  8
51
 10
68.3260
 20
120.0770
 30
0.0000
 42
1.0000
  0
VERTEX
  8
51
 10
68.3260
 20
121.4770
 30
0.0000
 42
1.0000
  0
VERTEX
  8
51
 10
68.3260
 20
120.0770
 30
0.0000
  0
SEQEND
  8
0
  0
POLYLINE
  8
51
 66
1
 10
0.0000
 20
0.0000
 30
0.0000
 40
0.1270
 41
0.1270
 70
0
  0
VERTEX
  8
51
 10
65.7860
 20
117.5370
 30
0.0000
 42
1.0000
  0
VERTEX
  8
51
 10
65.7860
 20
118.9370
 30
0.0000
 42
1.0000
  0
VERTEX
  8
51
 10
65.7860
 20
117.5370
 30
0.0000
  0
SEQEND
  8
0
  0
POLYLINE
  8
51
 66
1
 10
0.0000
 20
0.0000
 30
0.0000
 40
0.1270
 41
0.1270
 70
0
  0
VERTEX
  8
51
 10
68.3260
 20
117.5370
 30
0.0000
 42
1.0000
  0
VERTEX
  8
51
 10
68.3260
 20
118.9370
 30
0.0000
 42
1.0000
  0
VERTEX
  8
51
 10
68.3260
 20
117.5370
 30
0.0000
  0
SEQEND
  8
0
  0
POLYLINE
  8
51
 66
1
 10
0.0000
 20
0.0000
 30
0.0000
 40
0.1270
 41
0.1270
 70
0
  0
VERTEX
  8
51
 10
65.7860
 20
114.9970
 30
0.0000
 42
1.0000
  0
VERTEX
  8
51
 10
65.7860
 20
116.3970
 30
0.0000
 42
1.0000
  0
VERTEX
  8
51
 10
65.7860
 20
114.9970
 30
0.0000
  0
SEQEND
  8
0
  0
POLYLINE
  8
51
 66
1
 10
0.0000
 20
0.0000
 30
0.0000
 40
0.1270
 41
0.1270
 70
0
  0
VERTEX
  8
51
 10
68.3260
 20
114.9970
 30
0.0000
 42
1.0000
  0
VERTEX
  8
51
 10
68.3260
 20
116.3970
 30
0.0000
 42
1.0000
  0
VERTEX
  8
51
 10
68.3260
 20
114.9970
 30
0.0000
  0
SEQEND
  8
0
  0
POLYLINE
  8
51
 66
1
 10
0.0000
 20
0.0000
 30
0.0000
 40
0.1270
 41
0.1270
 70
0
  0
VERTEX
  8
51
 10
65.7860
 20
112.4570
 30
0.0000
 42
1.0000
  0
VERTEX
  8
51
 10
65.7860
 20
113.8570
 30
0.0000
 42
1.0000
  0
VERTEX
  8
51
 10
65.7860
 20
112.4570
 30
0.0000
  0
SEQEND
  8
0
  0
POLYLINE
  8
51
 66
1
 10
0.0000
 20
0.0000
 30
0.0000
 40
0.1270
 41
0.1270
 70
0
  0
VERTEX
  8
51
 10
68.3260
 20
112.4570
 30
0.0000
 42
1.0000
  0
VERTEX
  8
51
 10
68.3260
 20
113.8570
 30
0.0000
 42
1.0000
  0
VERTEX
  8
51
 10
68.3260
 20
112.4570
 30
0.0000
  0
SEQEND
  8
0
  0
INSERT
  8
51
  2
RECT
 10
70.0060
 20
123.3170
 30
0.0000
 41
0.6000
 42
0.8000
 43
1.0000
 50
270.0000
  0
INSERT
  8
51
  2
RECT
 10
70.0060
 20
125.8570
 30
0.0000
 41
0.6000
 42
0.8000
 43
1.0000
 50
270.0000
  0
INSERT
  8
51
  2
RECT
 10
70.0060
 20
120.7770
 30
0.0000
 41
0.6000
 42
0.8000
 43
1.0000
 50
270.0000
  0
INSERT
  8
51
  2
RECT
 10
64.1060
 20
125.8570
 30
0.0000
 41
0.6000
 42
0.8000
 43
1.0000
 50
90.0000
  0
INSERT
  8
51
  2
RECT
 10
64.1060
 20
123.3170
 30
0.0000
 41
0.6000
 42
0.8000
 43
1.0000
 50
90.0000
  0
INSERT
  8
51
  2
RECT
 10
64.1060
 20
120.7770
 30
0.0000
 41
0.6000
 42
0.8000
 43
1.0000
 50
90.0000
  0
INSERT
  8
51
  2
RECT
 10
70.0060
 20
118.2370
 30
0.0000
 41
0.6000
 42
0.8000
 43
1.0000
 50
270.0000
  0
INSERT
  8
51
  2
RECT
 10
64.1060
 20
118.2370
 30
0.0000
 41
0.6000
 42
0.8000
 43
1.0000
 50
90.0000
  0
INSERT
  8
51
  2
RECT
 10
70.0060
 20
115.6970
 30
0.0000
 41
0.6000
 42
0.8000
 43
1.0000
 50
270.0000
  0
INSERT
  8
51
  2
RECT
 10
64.1060
 20
115.6970
 30
0.0000
 41
0.6000
 42
0.8000
 43
1.0000
 50
90.0000
  0
INSERT
  8
51
  2
RECT
 10
70.0060
 20
113.1570
 30
0.0000
 41
0.6000
 42
0.8000
 43
1.0000
 50
270.0000
  0
INSERT
  8
51
  2
RECT
 10
64.1060
 20
113.1570
 30
0.0000
 41
0.6000
 42
0.8000
 43
1.0000
 50
90.0000
  0
POLYLINE
  8
51
 66
1
 10
0.0000
 20
0.0000
 30
0.0000
 40
0.1016
 41
0.1016
 70
0
  0
VERTEX
  8
51
 10
24.2320
 20
81.1020
 30
0.0000
  0
VERTEX
  8
51
 10
23.5200
 20
81.1020
 30
0.0000
  0
SEQEND
  8
0
  0
POLYLINE
  8
51
 66
1
 10
0.0000
 20
0.0000
 30
0.0000
 40
0.0508
 41
0.0508
 70
0
  0
VERTEX
  8
51
 10
23.5200
 20
81.1274
 30
0.0000
 42
1.0000
  0
VERTEX
  8
51
 10
23.5200
 20
81.0766
 30
0.0000
  0
SEQEND
  8
0
  0
POLYLINE
  8
51
 66
1
 10
0.0000
 20
0.0000
 30
0.0000
 40
0.0508
 41
0.0508
 70
0
  0
VERTEX
  8
51
 10
24.2320
 20
81.0766
 30
0.0000
 42
1.0000
  0
VERTEX
  8
51
 10
24.2320
 20
81.1274
 30
0.0000
  0
SEQEND
  8
0
  0
POLYLINE
  8
51
 66
1
 10
0.0000
 20
0.0000
 30
0.0000
 40
0.1016
 41
0.1016
 70
0
  0
VERTEX
  8
51
 10
24.2320
 20
81.9530
 30
0.0000
  0
VERTEX
  8
51
 10
23.5200
 20
81.9530
 30
0.0000
  0
SEQEND
  8
0
  0
POLYLINE
  8
51
 66
1
 10
0.0000
 20
0.0000
 30
0.0000
 40
0.0508
 41
0.0508
 70
0
  0
VERTEX
  8
51
 10
23.5200
 20
81.9784
 30
0.0000
 42
1.0000
  0
VERTEX
  8
51
 10
23.5200
 20
81.9276
 30
0.0000
  0
SEQEND
  8
0
  0
POLYLINE
  8
51
 66
1
 10
0.0000
 20
0.0000
 30
0.0000
 40
0.0508
 41
0.0508
 70
0
  0
VERTEX
  8
51
 10
24.2320
 20
81.9276
 30
0.0000
 42
1.0000
  0
VERTEX
  8
51
 10
24.2320
 20
81.9784
 30
0.0000
  0
SEQEND
  8
0
  0
INSERT
  8
51
  2
RECT
 10
24.4642
 20
81.5289
 30
0.0000
 41
0.5001
 42
0.9500
 43
1.0000
 50
180.0000
  0
INSERT
  8
51
  2
RECT
 10
23.2958
 20
81.5289
 30
0.0000
 41
0.5001
 42
0.9500
 43
1.0000
 50
180.0000
  0
POLYLINE
  8
51
 66
1
 10
0.0000
 20
0.0000
 30
0.0000
 40
0.1016
 41
0.1016
 70
0
  0
VERTEX
  8
51
 10
43.8660
 20
60.8080
 30
0.0000
  0
VERTEX
  8
51
 10
43.8660
 20
60.0960
 30
0.0000
  0
SEQEND
  8
0
  0
POLYLINE
  8
51
 66
1
 10
0.0000
 20
0.0000
 30
0.0000
 40
0.0508
 41
0.0508
 70
0
  0
VERTEX
  8
51
 10
43.8406
 20
60.0960
 30
0.0000
 42
1.0000
  0
VERTEX
  8
51
 10
43.8914
 20
60.0960
 30
0.0000
  0
SEQEND
  8
0
  0
POLYLINE
  8
51
 66
1
 10
0.0000
 20
0.0000
 30
0.0000
 40
0.0508
 41
0.0508
 70
0
  0
VERTEX
  8
51
 10
43.8914
 20
60.8080
 30
0.0000
 42
1.0000
  0
VERTEX
  8
51
 10
43.8406
 20
60.8080
 30
0.0000
  0
SEQEND
  8
0
  0
POLYLINE
  8
51
 66
1
 10
0.0000
 20
0.0000
 30
0.0000
 40
0.1016
 41
0.1016
 70
0
  0
VERTEX
  8
51
 10
43.0150
 20
60.8080
 30
0.0000
  0
VERTEX
  8
51
 10
43.0150
 20
60.0960
 30
0.0000
  0
SEQEND
  8
0
  0
POLYLINE
  8
51
 66
1
 10
0.0000
 20
0.0000
 30
0.0000
 40
0.0508
 41
0.0508
 70
0
  0
VERTEX
  8
51
 10
42.9896
 20
60.0960
 30
0.0000
 42
1.0000
  0
VERTEX
  8
51
 10
43.0404
 20
60.0960
 30
0.0000
  0
SEQEND
  8
0
  0
POLYLINE
  8
51
 66
1
 10
0.0000
 20
0.0000
 30
0.0000
 40
0.0508
 41
0.0508
 70
0
  0
VERTEX
  8
51
 10
43.0404
 20
60.8080
 30
0.0000
 42
1.0000
  0
VERTEX
  8
51
 10
42.9896
 20
60.8080
 30
0.0000
  0
SEQEND
  8
0
  0
INSERT
  8
51
  2
RECT
 10
43.4391
 20
61.0402
 30
0.0000
 41
0.5001
 42
0.9500
 43
1.0000
 50
270.0000
  0
INSERT
  8
51
  2
RECT
 10
43.4391
 20
59.8718
 30
0.0000
 41
0.5001
 42
0.9500
 43
1.0000
 50
270.0000
  0
POLYLINE
  8
51
 66
1
 10
0.0000
 20
0.0000
 30
0.0000
 40
0.1016
 41
0.1016
 70
0
  0
VERTEX
  8
51
 10
68.2500
 20
86.2080
 30
0.0000
  0
VERTEX
  8
51
 10
68.2500
 20
85.4960
 30
0.0000
  0
SEQEND
  8
0
  0
POLYLINE
  8
51
 66
1
 10
0.0000
 20
0.0000
 30
0.0000
 40
0.0508
 41
0.0508
 70
0
  0
VERTEX
  8
51
 10
68.2246
 20
85.4960
 30
0.0000
 42
1.0000
  0
VERTEX
  8
51
 10
68.2754
 20
85.4960
 30
0.0000
  0
SEQEND
  8
0
  0
POLYLINE
  8
51
 66
1
 10
0.0000
 20
0.0000
 30
0.0000
 40
0.0508
 41
0.0508
 70
0
  0
VERTEX
  8
51
 10
68.2754
 20
86.2080
 30
0.0000
 42
1.0000
  0
VERTEX
  8
51
 10
68.2246
 20
86.2080
 30
0.0000
  0
SEQEND
  8
0
  0
POLYLINE
  8
51
 66
1
 10
0.0000
 20
0.0000
 30
0.0000
 40
0.1016
 41
0.1016
 70
0
  0
VERTEX
  8
51
 10
67.3990
 20
86.2080
 30
0.0000
  0
VERTEX
  8
51
 10
67.3990
 20
85.4960
 30
0.0000
  0
SEQEND
  8
0
  0
POLYLINE
  8
51
 66
1
 10
0.0000
 20
0.0000
 30
0.0000
 40
0.0508
 41
0.0508
 70
0
  0
VERTEX
  8
51
 10
67.3736
 20
85.4960
 30
0.0000
 42
1.0000
  0
VERTEX
  8
51
 10
67.4244
 20
85.4960
 30
0.0000
  0
SEQEND
  8
0
  0
POLYLINE
  8
51
 66
1
 10
0.0000
 20
0.0000
 30
0.0000
 40
0.0508
 41
0.0508
 70
0
  0
VERTEX
  8
51
 10
67.4244
 20
86.2080
 30
0.0000
 42
1.0000
  0
VERTEX
  8
51
 10
67.3736
 20
86.2080
 30
0.0000
  0
SEQEND
  8
0
  0
INSERT
  8
51
  2
RECT
 10
67.8231
 20
86.4402
 30
0.0000
 41
0.5001
 42
0.9500
 43
1.0000
 50
270.0000
  0
INSERT
  8
51
  2
RECT
 10
67.8231
 20
85.2717
 30
0.0000
 41
0.5001
 42
0.9500
 43
1.0000
 50
270.0000
  0
POLYLINE
  8
51
 66
1
 10
0.0000
 20
0.0000
 30
0.0000
 40
0.1016
 41
0.1016
 70
0
  0
VERTEX
  8
51
 10
69.4440
 20
54.9400
 30
0.0000
  0
VERTEX
  8
51
 10
68.7320
 20
54.9400
 30
0.0000
  0
SEQEND
  8
0
  0
POLYLINE
  8
51
 66
1
 10
0.0000
 20
0.0000
 30
0.0000
 40
0.0508
 41
0.0508
 70
0
  0
VERTEX
  8
51
 10
68.7320
 20
54.9654
 30
0.0000
 42
1.0000
  0
VERTEX
  8
51
 10
68.7320
 20
54.9146
 30
0.0000
  0
SEQEND
  8
0
  0
POLYLINE
  8
51
 66
1
 10
0.0000
 20
0.0000
 30
0.0000
 40
0.0508
 41
0.0508
 70
0
  0
VERTEX
  8
51
 10
69.4440
 20
54.9146
 30
0.0000
 42
1.0000
  0
VERTEX
  8
51
 10
69.4440
 20
54.9654
 30
0.0000
  0
SEQEND
  8
0
  0
POLYLINE
  8
51
 66
1
 10
0.0000
 20
0.0000
 30
0.0000
 40
0.1016
 41
0.1016
 70
0
  0
VERTEX
  8
51
 10
69.4440
 20
55.7910
 30
0.0000
  0
VERTEX
  8
51
 10
68.7320
 20
55.7910
 30
0.0000
  0
SEQEND
  8
0
  0
POLYLINE
  8
51
 66
1
 10
0.0000
 20
0.0000
 30
0.0000
 40
0.0508
 41
0.0508
 70
0
  0
VERTEX
  8
51
 10
68.7320
 20
55.8164
 30
0.0000
 42
1.0000
  0
VERTEX
  8
51
 10
68.7320
 20
55.7656
 30
0.0000
  0
SEQEND
  8
0
  0
POLYLINE
  8
51
 66
1
 10
0.0000
 20
0.0000
 30
0.0000
 40
0.0508
 41
0.0508
 70
0
  0
VERTEX
  8
51
 10
69.4440
 20
55.7656
 30
0.0000
 42
1.0000
  0
VERTEX
  8
51
 10
69.4440
 20
55.8164
 30
0.0000
  0
SEQEND
  8
0
  0
INSERT
  8
51
  2
RECT
 10
69.6762
 20
55.3669
 30
0.0000
 41
0.5001
 42
0.9500
 43
1.0000
 50
180.0000
  0
INSERT
  8
51
  2
RECT
 10
68.5078
 20
55.3669
 30
0.0000
 41
0.5001
 42
0.9500
 43
1.0000
 50
180.0000
  0
CIRCLE
  8
20
 10
6.7190
 20
54.4100
 30
0.0000
 40
0.4250
  0
CIRCLE
  8
20
 10
6.7190
 20
57.4100
 30
0.0000
 40
0.4250
  0
POLYLINE
  8
51
 66
1
 10
0.0000
 20
0.0000
 30
0.0000
 40
0.1524
 41
0.1524
 70
0
  0
VERTEX
  8
51
 10
25.9800
 20
85.3120
 30
0.0000
  0
VERTEX
  8
51
 10
23.3200
 20
85.3120
 30
0.0000
  0
SEQEND
  8
0
  0
POLYLINE
  8
51
 66
1
 10
0.0000
 20
0.0000
 30
0.0000
 40
0.0762
 41
0.0762
 70
0
  0
VERTEX
  8
51
 10
23.3200
 20
85.3501
 30
0.0000
 42
1.0000
  0
VERTEX
  8
51
 10
23.3200
 20
85.2739
 30
0.0000
  0
SEQEND
  8
0
  0
POLYLINE
  8
51
 66
1
 10
0.0000
 20
0.0000
 30
0.0000
 40
0.0762
 41
0.0762
 70
0
  0
VERTEX
  8
51
 10
25.9800
 20
85.2739
 30
0.0000
 42
1.0000
  0
VERTEX
  8
51
 10
25.9800
 20
85.3501
 30
0.0000
  0
SEQEND
  8
0
  0
POLYLINE
  8
51
 66
1
 10
0.0000
 20
0.0000
 30
0.0000
 40
0.1524
 41
0.1524
 70
0
  0
VERTEX
  8
51
 10
25.9800
 20
89.6120
 30
0.0000
  0
VERTEX
  8
51
 10
23.3200
 20
89.6120
 30
0.0000
  0
SEQEND
  8
0
  0
POLYLINE
  8
51
 66
1
 10
0.0000
 20
0.0000
 30
0.0000
 40
0.0762
 41
0.0762
 70
0
  0
VERTEX
  8
51
 10
23.3200
 20
89.6501
 30
0.0000
 42
1.0000
  0
VERTEX
  8
51
 10
23.3200
 20
89.5739
 30
0.0000
  0
SEQEND
  8
0
  0
POLYLINE
  8
51
 66
1
 10
0.0000
 20
0.0000
 30
0.0000
 40
0.0762
 41
0.0762
 70
0
  0
VERTEX
  8
51
 10
25.9800
 20
89.5739
 30
0.0000
 42
1.0000
  0
VERTEX
  8
51
 10
25.9800
 20
89.6501
 30
0.0000
  0
SEQEND
  8
0
  0
INSERT
  8
51
  2
RECT
 10
24.6500
 20
86.0620
 30
0.0000
 41
0.5000
 42
2.5000
 43
1.0000
 50
90.0000
  0
INSERT
  8
51
  2
RECT
 10
24.6500
 20
85.0620
 30
0.0000
 41
0.5000
 42
2.0800
 43
1.0000
 50
90.0000
  0
INSERT
  8
51
  2
RECT
 10
24.6500
 20
89.8620
 30
0.0000
 41
0.5000
 42
2.0800
 43
1.0000
 50
90.0000
  0
POLYLINE
  8
51
 66
1
 10
0.0000
 20
0.0000
 30
0.0000
 40
0.1524
 41
0.1524
 70
0
  0
VERTEX
  8
51
 10
21.7480
 20
85.2860
 30
0.0000
  0
VERTEX
  8
51
 10
19.0880
 20
85.2860
 30
0.0000
  0
SEQEND
  8
0
  0
POLYLINE
  8
51
 66
1
 10
0.0000
 20
0.0000
 30
0.0000
 40
0.0762
 41
0.0762
 70
0
  0
VERTEX
  8
51
 10
19.0880
 20
85.3241
 30
0.0000
 42
1.0000
  0
VERTEX
  8
51
 10
19.0880
 20
85.2479
 30
0.0000
  0
SEQEND
  8
0
  0
POLYLINE
  8
51
 66
1
 10
0.0000
 20
0.0000
 30
0.0000
 40
0.0762
 41
0.0762
 70
0
  0
VERTEX
  8
51
 10
21.7480
 20
85.2479
 30
0.0000
 42
1.0000
  0
VERTEX
  8
51
 10
21.7480
 20
85.3241
 30
0.0000
  0
SEQEND
  8
0
  0
POLYLINE
  8
51
 66
1
 10
0.0000
 20
0.0000
 30
0.0000
 40
0.1524
 41
0.1524
 70
0
  0
VERTEX
  8
51
 10
21.7480
 20
89.5860
 30
0.0000
  0
VERTEX
  8
51
 10
19.0880
 20
89.5860
 30
0.0000
  0
SEQEND
  8
0
  0
POLYLINE
  8
51
 66
1
 10
0.0000
 20
0.0000
 30
0.0000
 40
0.0762
 41
0.0762
 70
0
  0
VERTEX
  8
51
 10
19.0880
 20
89.6241
 30
0.0000
 42
1.0000
  0
VERTEX
  8
51
 10
19.0880
 20
89.5479
 30
0.0000
  0
SEQEND
  8
0
  0
POLYLINE
  8
51
 66
1
 10
0.0000
 20
0.0000
 30
0.0000
 40
0.0762
 41
0.0762
 70
0
  0
VERTEX
  8
51
 10
21.7480
 20
89.5479
 30
0.0000
 42
1.0000
  0
VERTEX
  8
51
 10
21.7480
 20
89.6241
 30
0.0000
  0
SEQEND
  8
0
  0
INSERT
  8
51
  2
RECT
 10
20.4180
 20
86.0360
 30
0.0000
 41
0.5000
 42
2.5000
 43
1.0000
 50
90.0000
  0
INSERT
  8
51
  2
RECT
 10
20.4180
 20
85.0360
 30
0.0000
 41
0.5000
 42
2.0800
 43
1.0000
 50
90.0000
  0
INSERT
  8
51
  2
RECT
 10
20.4180
 20
89.8360
 30
0.0000
 41
0.5000
 42
2.0800
 43
1.0000
 50
90.0000
  0
POLYLINE
  8
51
 66
1
 10
0.0000
 20
0.0000
 30
0.0000
 40
0.1524
 41
0.1524
 70
0
  0
VERTEX
  8
51
 10
52.5272
 20
83.6676
 30
0.0000
  0
VERTEX
  8
51
 10
56.1848
 20
83.6676
 30
0.0000
  0
SEQEND
  8
0
  0
POLYLINE
  8
51
 66
1
 10
0.0000
 20
0.0000
 30
0.0000
 40
0.0762
 41
0.0762
 70
0
  0
VERTEX
  8
51
 10
56.1848
 20
83.6295
 30
0.0000
 42
1.0000
  0
VERTEX
  8
51
 10
56.1848
 20
83.7057
 30
0.0000
  0
SEQEND
  8
0
  0
POLYLINE
  8
51
 66
1
 10
0.0000
 20
0.0000
 30
0.0000
 40
0.0762
 41
0.0762
 70
0
  0
VERTEX
  8
51
 10
52.5272
 20
83.7057
 30
0.0000
 42
1.0000
  0
VERTEX
  8
51
 10
52.5272
 20
83.6295
 30
0.0000
  0
SEQEND
  8
0
  0
POLYLINE
  8
51
 66
1
 10
0.0000
 20
0.0000
 30
0.0000
 40
0.1524
 41
0.1524
 70
0
  0
VERTEX
  8
51
 10
52.5272
 20
88.5444
 30
0.0000
  0
VERTEX
  8
51
 10
56.1848
 20
88.5444
 30
0.0000
  0
SEQEND
  8
0
  0
POLYLINE
  8
51
 66
1
 10
0.0000
 20
0.0000
 30
0.0000
 40
0.0762
 41
0.0762
 70
0
  0
VERTEX
  8
51
 10
56.1848
 20
88.5063
 30
0.0000
 42
1.0000
  0
VERTEX
  8
51
 10
56.1848
 20
88.5825
 30
0.0000
  0
SEQEND
  8
0
  0
POLYLINE
  8
51
 66
1
 10
0.0000
 20
0.0000
 30
0.0000
 40
0.0762
 41
0.0762
 70
0
  0
VERTEX
  8
51
 10
52.5272
 20
88.5825
 30
0.0000
 42
1.0000
  0
VERTEX
  8
51
 10
52.5272
 20
88.5063
 30
0.0000
  0
SEQEND
  8
0
  0
POLYLINE
  8
51
 66
1
 10
0.0000
 20
0.0000
 30
0.0000
 40
0.1524
 41
0.1524
 70
0
  0
VERTEX
  8
51
 10
56.3118
 20
83.7946
 30
0.0000
  0
VERTEX
  8
51
 10
56.3118
 20
84.0232
 30
0.0000
  0
SEQEND
  8
0
  0
POLYLINE
  8
51
 66
1
 10
0.0000
 20
0.0000
 30
0.0000
 40
0.0762
 41
0.0762
 70
0
  0
VERTEX
  8
51
 10
56.3499
 20
84.0232
 30
0.0000
 42
1.0000
  0
VERTEX
  8
51
 10
56.2737
 20
84.0232
 30
0.0000
  0
SEQEND
  8
0
  0
POLYLINE
  8
51
 66
1
 10
0.0000
 20
0.0000
 30
0.0000
 40
0.0762
 41
0.0762
 70
0
  0
VERTEX
  8
51
 10
56.2737
 20
83.7946
 30
0.0000
 42
1.0000
  0
VERTEX
  8
51
 10
56.3499
 20
83.7946
 30
0.0000
  0
SEQEND
  8
0
  0
POLYLINE
  8
51
 66
1
 10
0.0000
 20
0.0000
 30
0.0000
 40
0.1524
 41
0.1524
 70
0
  0
VERTEX
  8
51
 10
56.3118
 20
84.3788
 30
0.0000
  0
VERTEX
  8
51
 10
56.3118
 20
85.2932
 30
0.0000
  0
SEQEND
  8
0
  0
POLYLINE
  8
51
 66
1
 10
0.0000
 20
0.0000
 30
0.0000
 40
0.0762
 41
0.0762
 70
0
  0
VERTEX
  8
51
 10
56.3499
 20
85.2932
 30
0.0000
 42
1.0000
  0
VERTEX
  8
51
 10
56.2737
 20
85.2932
 30
0.0000
  0
SEQEND
  8
0
  0
POLYLINE
  8
51
 66
1
 10
0.0000
 20
0.0000
 30
0.0000
 40
0.0762
 41
0.0762
 70
0
  0
VERTEX
  8
51
 10
56.2737
 20
84.3788
 30
0.0000
 42
1.0000
  0
VERTEX
  8
51
 10
56.3499
 20
84.3788
 30
0.0000
  0
SEQEND
  8
0
  0
POLYLINE
  8
51
 66
1
 10
0.0000
 20
0.0000
 30
0.0000
 40
0.1524
 41
0.1524
 70
0
  0
VERTEX
  8
51
 10
56.3118
 20
85.6488
 30
0.0000
  0
VERTEX
  8
51
 10
56.3118
 20
86.5632
 30
0.0000
  0
SEQEND
  8
0
  0
POLYLINE
  8
51
 66
1
 10
0.0000
 20
0.0000
 30
0.0000
 40
0.0762
 41
0.0762
 70
0
  0
VERTEX
  8
51
 10
56.3499
 20
86.5632
 30
0.0000
 42
1.0000
  0
VERTEX
  8
51
 10
56.2737
 20
86.5632
 30
0.0000
  0
SEQEND
  8
0
  0
POLYLINE
  8
51
 66
1
 10
0.0000
 20
0.0000
 30
0.0000
 40
0.0762
 41
0.0762
 70
0
  0
VERTEX
  8
51
 10
56.2737
 20
85.6488
 30
0.0000
 42
1.0000
  0
VERTEX
  8
51
 10
56.3499
 20
85.6488
 30
0.0000
  0
SEQEND
  8
0
  0
POLYLINE
  8
51
 66
1
 10
0.0000
 20
0.0000
 30
0.0000
 40
0.1524
 41
0.1524
 70
0
  0
VERTEX
  8
51
 10
56.3118
 20
86.9188
 30
0.0000
  0
VERTEX
  8
51
 10
56.3118
 20
87.8332
 30
0.0000
  0
SEQEND
  8
0
  0
POLYLINE
  8
51
 66
1
 10
0.0000
 20
0.0000
 30
0.0000
 40
0.0762
 41
0.0762
 70
0
  0
VERTEX
  8
51
 10
56.3499
 20
87.8332
 30
0.0000
 42
1.0000
  0
VERTEX
  8
51
 10
56.2737
 20
87.8332
 30
0.0000
  0
SEQEND
  8
0
  0
POLYLINE
  8
51
 66
1
 10
0.0000
 20
0.0000
 30
0.0000
 40
0.0762
 41
0.0762
 70
0
  0
VERTEX
  8
51
 10
56.2737
 20
86.9188
 30
0.0000
 42
1.0000
  0
VERTEX
  8
51
 10
56.3499
 20
86.9188
 30
0.0000
  0
SEQEND
  8
0
  0
POLYLINE
  8
51
 66
1
 10
0.0000
 20
0.0000
 30
0.0000
 40
0.1524
 41
0.1524
 70
0
  0
VERTEX
  8
51
 10
56.3118
 20
88.1888
 30
0.0000
  0
VERTEX
  8
51
 10
56.3118
 20
88.4174
 30
0.0000
  0
SEQEND
  8
0
  0
POLYLINE
  8
51
 66
1
 10
0.0000
 20
0.0000
 30
0.0000
 40
0.0762
 41
0.0762
 70
0
  0
VERTEX
  8
51
 10
56.3499
 20
88.4174
 30
0.0000
 42
1.0000
  0
VERTEX
  8
51
 10
56.2737
 20
88.4174
 30
0.0000
  0
SEQEND
  8
0
  0
POLYLINE
  8
51
 66
1
 10
0.0000
 20
0.0000
 30
0.0000
 40
0.0762
 41
0.0762
 70
0
  0
VERTEX
  8
51
 10
56.2737
 20
88.1888
 30
0.0000
 42
1.0000
  0
VERTEX
  8
51
 10
56.3499
 20
88.1888
 30
0.0000
  0
SEQEND
  8
0
  0
POLYLINE
  8
51
 66
1
 10
0.0000
 20
0.0000
 30
0.0000
 40
0.1524
 41
0.1524
 70
0
  0
VERTEX
  8
51
 10
52.4002
 20
83.7946
 30
0.0000
  0
VERTEX
  8
51
 10
52.4002
 20
84.0232
 30
0.0000
  0
SEQEND
  8
0
  0
POLYLINE
  8
51
 66
1
 10
0.0000
 20
0.0000
 30
0.0000
 40
0.0762
 41
0.0762
 70
0
  0
VERTEX
  8
51
 10
52.4383
 20
84.0232
 30
0.0000
 42
1.0000
  0
VERTEX
  8
51
 10
52.3621
 20
84.0232
 30
0.0000
  0
SEQEND
  8
0
  0
POLYLINE
  8
51
 66
1
 10
0.0000
 20
0.0000
 30
0.0000
 40
0.0762
 41
0.0762
 70
0
  0
VERTEX
  8
51
 10
52.3621
 20
83.7946
 30
0.0000
 42
1.0000
  0
VERTEX
  8
51
 10
52.4383
 20
83.7946
 30
0.0000
  0
SEQEND
  8
0
  0
POLYLINE
  8
51
 66
1
 10
0.0000
 20
0.0000
 30
0.0000
 40
0.1524
 41
0.1524
 70
0
  0
VERTEX
  8
51
 10
52.4002
 20
84.3788
 30
0.0000
  0
VERTEX
  8
51
 10
52.4002
 20
85.2932
 30
0.0000
  0
SEQEND
  8
0
  0
POLYLINE
  8
51
 66
1
 10
0.0000
 20
0.0000
 30
0.0000
 40
0.0762
 41
0.0762
 70
0
  0
VERTEX
  8
51
 10
52.4383
 20
85.2932
 30
0.0000
 42
1.0000
  0
VERTEX
  8
51
 10
52.3621
 20
85.2932
 30
0.0000
  0
SEQEND
  8
0
  0
POLYLINE
  8
51
 66
1
 10
0.0000
 20
0.0000
 30
0.0000
 40
0.0762
 41
0.0762
 70
0
  0
VERTEX
  8
51
 10
52.3621
 20
84.3788
 30
0.0000
 42
1.0000
  0
VERTEX
  8
51
 10
52.4383
 20
84.3788
 30
0.0000
  0
SEQEND
  8
0
  0
POLYLINE
  8
51
 66
1
 10
0.0000
 20
0.0000
 30
0.0000
 40
0.1524
 41
0.1524
 70
0
  0
VERTEX
  8
51
 10
52.4002
 20
85.6488
 30
0.0000
  0
VERTEX
  8
51
 10
52.4002
 20
86.5632
 30
0.0000
  0
SEQEND
  8
0
  0
POLYLINE
  8
51
 66
1
 10
0.0000
 20
0.0000
 30
0.0000
 40
0.0762
 41
0.0762
 70
0
  0
VERTEX
  8
51
 10
52.4383
 20
86.5632
 30
0.0000
 42
1.0000
  0
VERTEX
  8
51
 10
52.3621
 20
86.5632
 30
0.0000
  0
SEQEND
  8
0
  0
POLYLINE
  8
51
 66
1
 10
0.0000
 20
0.0000
 30
0.0000
 40
0.0762
 41
0.0762
 70
0
  0
VERTEX
  8
51
 10
52.3621
 20
85.6488
 30
0.0000
 42
1.0000
  0
VERTEX
  8
51
 10
52.4383
 20
85.6488
 30
0.0000
  0
SEQEND
  8
0
  0
POLYLINE
  8
51
 66
1
 10
0.0000
 20
0.0000
 30
0.0000
 40
0.1524
 41
0.1524
 70
0
  0
VERTEX
  8
51
 10
52.4002
 20
86.9188
 30
0.0000
  0
VERTEX
  8
51
 10
52.4002
 20
87.8332
 30
0.0000
  0
SEQEND
  8
0
  0
POLYLINE
  8
51
 66
1
 10
0.0000
 20
0.0000
 30
0.0000
 40
0.0762
 41
0.0762
 70
0
  0
VERTEX
  8
51
 10
52.4383
 20
87.8332
 30
0.0000
 42
1.0000
  0
VERTEX
  8
51
 10
52.3621
 20
87.8332
 30
0.0000
  0
SEQEND
  8
0
  0
POLYLINE
  8
51
 66
1
 10
0.0000
 20
0.0000
 30
0.0000
 40
0.0762
 41
0.0762
 70
0
  0
VERTEX
  8
51
 10
52.3621
 20
86.9188
 30
0.0000
 42
1.0000
  0
VERTEX
  8
51
 10
52.4383
 20
86.9188
 30
0.0000
  0
SEQEND
  8
0
  0
POLYLINE
  8
51
 66
1
 10
0.0000
 20
0.0000
 30
0.0000
 40
0.1524
 41
0.1524
 70
0
  0
VERTEX
  8
51
 10
52.4002
 20
88.1888
 30
0.0000
  0
VERTEX
  8
51
 10
52.4002
 20
88.4174
 30
0.0000
  0
SEQEND
  8
0
  0
POLYLINE
  8
51
 66
1
 10
0.0000
 20
0.0000
 30
0.0000
 40
0.0762
 41
0.0762
 70
0
  0
VERTEX
  8
51
 10
52.4383
 20
88.4174
 30
0.0000
 42
1.0000
  0
VERTEX
  8
51
 10
52.3621
 20
88.4174
 30
0.0000
  0
SEQEND
  8
0
  0
POLYLINE
  8
51
 66
1
 10
0.0000
 20
0.0000
 30
0.0000
 40
0.0762
 41
0.0762
 70
0
  0
VERTEX
  8
51
 10
52.3621
 20
88.1888
 30
0.0000
 42
1.0000
  0
VERTEX
  8
51
 10
52.4383
 20
88.1888
 30
0.0000
  0
SEQEND
  8
0
  0
POLYLINE
  8
51
 66
1
 10
0.0000
 20
0.0000
 30
0.0000
 40
0.1524
 41
0.1524
 70
0
  0
VERTEX
  8
51
 10
51.3588
 20
84.0232
 30
0.0000
  0
VERTEX
  8
51
 10
51.3588
 20
84.3788
 30
0.0000
  0
SEQEND
  8
0
  0
POLYLINE
  8
51
 66
1
 10
0.0000
 20
0.0000
 30
0.0000
 40
0.0762
 41
0.0762
 70
0
  0
VERTEX
  8
51
 10
51.3969
 20
84.3788
 30
0.0000
 42
1.0000
  0
VERTEX
  8
51
 10
51.3207
 20
84.3788
 30
0.0000
  0
SEQEND
  8
0
  0
POLYLINE
  8
51
 66
1
 10
0.0000
 20
0.0000
 30
0.0000
 40
0.0762
 41
0.0762
 70
0
  0
VERTEX
  8
51
 10
51.3207
 20
84.0232
 30
0.0000
 42
1.0000
  0
VERTEX
  8
51
 10
51.3969
 20
84.0232
 30
0.0000
  0
SEQEND
  8
0
  0
POLYLINE
  8
51
 66
1
 10
0.0000
 20
0.0000
 30
0.0000
 40
0.1524
 41
0.1524
 70
0
  0
VERTEX
  8
51
 10
51.3588
 20
84.0232
 30
0.0000
  0
VERTEX
  8
51
 10
51.9684
 20
84.0232
 30
0.0000
  0
SEQEND
  8
0
  0
POLYLINE
  8
51
 66
1
 10
0.0000
 20
0.0000
 30
0.0000
 40
0.0762
 41
0.0762
 70
0
  0
VERTEX
  8
51
 10
51.9684
 20
83.9851
 30
0.0000
 42
1.0000
  0
VERTEX
  8
51
 10
51.9684
 20
84.0613
 30
0.0000
  0
SEQEND
  8
0
  0
POLYLINE
  8
51
 66
1
 10
0.0000
 20
0.0000
 30
0.0000
 40
0.0762
 41
0.0762
 70
0
  0
VERTEX
  8
51
 10
51.3588
 20
84.0613
 30
0.0000
 42
1.0000
  0
VERTEX
  8
51
 10
51.3588
 20
83.9851
 30
0.0000
  0
SEQEND
  8
0
  0
POLYLINE
  8
51
 66
1
 10
0.0000
 20
0.0000
 30
0.0000
 40
0.1524
 41
0.1524
 70
0
  0
VERTEX
  8
51
 10
51.9684
 20
84.0232
 30
0.0000
  0
VERTEX
  8
51
 10
52.4002
 20
84.0232
 30
0.0000
  0
SEQEND
  8
0
  0
POLYLINE
  8
51
 66
1
 10
0.0000
 20
0.0000
 30
0.0000
 40
0.0762
 41
0.0762
 70
0
  0
VERTEX
  8
51
 10
52.4002
 20
83.9851
 30
0.0000
 42
1.0000
  0
VERTEX
  8
51
 10
52.4002
 20
84.0613
 30
0.0000
  0
SEQEND
  8
0
  0
POLYLINE
  8
51
 66
1
 10
0.0000
 20
0.0000
 30
0.0000
 40
0.0762
 41
0.0762
 70
0
  0
VERTEX
  8
51
 10
51.9684
 20
84.0613
 30
0.0000
 42
1.0000
  0
VERTEX
  8
51
 10
51.9684
 20
83.9851
 30
0.0000
  0
SEQEND
  8
0
  0
POLYLINE
  8
51
 66
1
 10
0.0000
 20
0.0000
 30
0.0000
 40
0.1524
 41
0.1524
 70
0
  0
VERTEX
  8
51
 10
51.3588
 20
84.3788
 30
0.0000
  0
VERTEX
  8
51
 10
51.9684
 20
84.3788
 30
0.0000
  0
SEQEND
  8
0
  0
POLYLINE
  8
51
 66
1
 10
0.0000
 20
0.0000
 30
0.0000
 40
0.0762
 41
0.0762
 70
0
  0
VERTEX
  8
51
 10
51.9684
 20
84.3407
 30
0.0000
 42
1.0000
  0
VERTEX
  8
51
 10
51.9684
 20
84.4169
 30
0.0000
  0
SEQEND
  8
0
  0
POLYLINE
  8
51
 66
1
 10
0.0000
 20
0.0000
 30
0.0000
 40
0.0762
 41
0.0762
 70
0
  0
VERTEX
  8
51
 10
51.3588
 20
84.4169
 30
0.0000
 42
1.0000
  0
VERTEX
  8
51
 10
51.3588
 20
84.3407
 30
0.0000
  0
SEQEND
  8
0
  0
POLYLINE
  8
51
 66
1
 10
0.0000
 20
0.0000
 30
0.0000
 40
0.1524
 41
0.1524
 70
0
  0
VERTEX
  8
51
 10
51.9684
 20
84.3788
 30
0.0000
  0
VERTEX
  8
51
 10
52.4002
 20
84.3788
 30
0.0000
  0
SEQEND
  8
0
  0
POLYLINE
  8
51
 66
1
 10
0.0000
 20
0.0000
 30
0.0000
 40
0.0762
 41
0.0762
 70
0
  0
VERTEX
  8
51
 10
52.4002
 20
84.3407
 30
0.0000
 42
1.0000
  0
VERTEX
  8
51
 10
52.4002
 20
84.4169
 30
0.0000
  0
SEQEND
  8
0
  0
POLYLINE
  8
51
 66
1
 10
0.0000
 20
0.0000
 30
0.0000
 40
0.0762
 41
0.0762
 70
0
  0
VERTEX
  8
51
 10
51.9684
 20
84.4169
 30
0.0000
 42
1.0000
  0
VERTEX
  8
51
 10
51.9684
 20
84.3407
 30
0.0000
  0
SEQEND
  8
0
  0
POLYLINE
  8
51
 66
1
 10
0.0000
 20
0.0000
 30
0.0000
 40
0.1524
 41
0.1524
 70
0
  0
VERTEX
  8
51
 10
52.4002
 20
84.0232
 30
0.0000
  0
VERTEX
  8
51
 10
52.4002
 20
84.3788
 30
0.0000
  0
SEQEND
  8
0
  0
POLYLINE
  8
51
 66
1
 10
0.0000
 20
0.0000
 30
0.0000
 40
0.0762
 41
0.0762
 70
0
  0
VERTEX
  8
51
 10
52.4383
 20
84.3788
 30
0.0000
 42
1.0000
  0
VERTEX
  8
51
 10
52.3621
 20
84.3788
 30
0.0000
  0
SEQEND
  8
0
  0
POLYLINE
  8
51
 66
1
 10
0.0000
 20
0.0000
 30
0.0000
 40
0.0762
 41
0.0762
 70
0
  0
VERTEX
  8
51
 10
52.3621
 20
84.0232
 30
0.0000
 42
1.0000
  0
VERTEX
  8
51
 10
52.4383
 20
84.0232
 30
0.0000
  0
SEQEND
  8
0
  0
POLYLINE
  8
51
 66
1
 10
0.0000
 20
0.0000
 30
0.0000
 40
0.1524
 41
0.1524
 70
0
  0
VERTEX
  8
51
 10
51.9684
 20
84.0232
 30
0.0000
  0
VERTEX
  8
51
 10
51.9684
 20
84.3788
 30
0.0000
  0
SEQEND
  8
0
  0
POLYLINE
  8
51
 66
1
 10
0.0000
 20
0.0000
 30
0.0000
 40
0.0762
 41
0.0762
 70
0
  0
VERTEX
  8
51
 10
52.0065
 20
84.3788
 30
0.0000
 42
1.0000
  0
VERTEX
  8
51
 10
51.9303
 20
84.3788
 30
0.0000
  0
SEQEND
  8
0
  0
POLYLINE
  8
51
 66
1
 10
0.0000
 20
0.0000
 30
0.0000
 40
0.0762
 41
0.0762
 70
0
  0
VERTEX
  8
51
 10
51.9303
 20
84.0232
 30
0.0000
 42
1.0000
  0
VERTEX
  8
51
 10
52.0065
 20
84.0232
 30
0.0000
  0
SEQEND
  8
0
  0
POLYLINE
  8
51
 66
1
 10
0.0000
 20
0.0000
 30
0.0000
 40
0.1524
 41
0.1524
 70
0
  0
VERTEX
  8
51
 10
51.3588
 20
85.2932
 30
0.0000
  0
VERTEX
  8
51
 10
51.3588
 20
85.6488
 30
0.0000
  0
SEQEND
  8
0
  0
POLYLINE
  8
51
 66
1
 10
0.0000
 20
0.0000
 30
0.0000
 40
0.0762
 41
0.0762
 70
0
  0
VERTEX
  8
51
 10
51.3969
 20
85.6488
 30
0.0000
 42
1.0000
  0
VERTEX
  8
51
 10
51.3207
 20
85.6488
 30
0.0000
  0
SEQEND
  8
0
  0
POLYLINE
  8
51
 66
1
 10
0.0000
 20
0.0000
 30
0.0000
 40
0.0762
 41
0.0762
 70
0
  0
VERTEX
  8
51
 10
51.3207
 20
85.2932
 30
0.0000
 42
1.0000
  0
VERTEX
  8
51
 10
51.3969
 20
85.2932
 30
0.0000
  0
SEQEND
  8
0
  0
POLYLINE
  8
51
 66
1
 10
0.0000
 20
0.0000
 30
0.0000
 40
0.1524
 41
0.1524
 70
0
  0
VERTEX
  8
51
 10
51.3588
 20
85.2932
 30
0.0000
  0
VERTEX
  8
51
 10
51.9684
 20
85.2932
 30
0.0000
  0
SEQEND
  8
0
  0
POLYLINE
  8
51
 66
1
 10
0.0000
 20
0.0000
 30
0.0000
 40
0.0762
 41
0.0762
 70
0
  0
VERTEX
  8
51
 10
51.9684
 20
85.2551
 30
0.0000
 42
1.0000
  0
VERTEX
  8
51
 10
51.9684
 20
85.3313
 30
0.0000
  0
SEQEND
  8
0
  0
POLYLINE
  8
51
 66
1
 10
0.0000
 20
0.0000
 30
0.0000
 40
0.0762
 41
0.0762
 70
0
  0
VERTEX
  8
51
 10
51.3588
 20
85.3313
 30
0.0000
 42
1.0000
  0
VERTEX
  8
51
 10
51.3588
 20
85.2551
 30
0.0000
  0
SEQEND
  8
0
  0
POLYLINE
  8
51
 66
1
 10
0.0000
 20
0.0000
 30
0.0000
 40
0.1524
 41
0.1524
 70
0
  0
VERTEX
  8
51
 10
51.9684
 20
85.2932
 30
0.0000
  0
VERTEX
  8
51
 10
52.4002
 20
85.2932
 30
0.0000
  0
SEQEND
  8
0
  0
POLYLINE
  8
51
 66
1
 10
0.0000
 20
0.0000
 30
0.0000
 40
0.0762
 41
0.0762
 70
0
  0
VERTEX
  8
51
 10
52.4002
 20
85.2551
 30
0.0000
 42
1.0000
  0
VERTEX
  8
51
 10
52.4002
 20
85.3313
 30
0.0000
  0
SEQEND
  8
0
  0
POLYLINE
  8
51
 66
1
 10
0.0000
 20
0.0000
 30
0.0000
 40
0.0762
 41
0.0762
 70
0
  0
VERTEX
  8
51
 10
51.9684
 20
85.3313
 30
0.0000
 42
1.0000
  0
VERTEX
  8
51
 10
51.9684
 20
85.2551
 30
0.0000
  0
SEQEND
  8
0
  0
POLYLINE
  8
51
 66
1
 10
0.0000
 20
0.0000
 30
0.0000
 40
0.1524
 41
0.1524
 70
0
  0
VERTEX
  8
51
 10
51.3588
 20
85.6488
 30
0.0000
  0
VERTEX
  8
51
 10
51.9684
 20
85.6488
 30
0.0000
  0
SEQEND
  8
0
  0
POLYLINE
  8
51
 66
1
 10
0.0000
 20
0.0000
 30
0.0000
 40
0.0762
 41
0.0762
 70
0
  0
VERTEX
  8
51
 10
51.9684
 20
85.6107
 30
0.0000
 42
1.0000
  0
VERTEX
  8
51
 10
51.9684
 20
85.6869
 30
0.0000
  0
SEQEND
  8
0
  0
POLYLINE
  8
51
 66
1
 10
0.0000
 20
0.0000
 30
0.0000
 40
0.0762
 41
0.0762
 70
0
  0
VERTEX
  8
51
 10
51.3588
 20
85.6869
 30
0.0000
 42
1.0000
  0
VERTEX
  8
51
 10
51.3588
 20
85.6107
 30
0.0000
  0
SEQEND
  8
0
  0
POLYLINE
  8
51
 66
1
 10
0.0000
 20
0.0000
 30
0.0000
 40
0.1524
 41
0.1524
 70
0
  0
VERTEX
  8
51
 10
51.9684
 20
85.6488
 30
0.0000
  0
VERTEX
  8
51
 10
52.4002
 20
85.6488
 30
0.0000
  0
SEQEND
  8
0
  0
POLYLINE
  8
51
 66
1
 10
0.0000
 20
0.0000
 30
0.0000
 40
0.0762
 41
0.0762
 70
0
  0
VERTEX
  8
51
 10
52.4002
 20
85.6107
 30
0.0000
 42
1.0000
  0
VERTEX
  8
51
 10
52.4002
 20
85.6869
 30
0.0000
  0
SEQEND
  8
0
  0
POLYLINE
  8
51
 66
1
 10
0.0000
 20
0.0000
 30
0.0000
 40
0.0762
 41
0.0762
 70
0
  0
VERTEX
  8
51
 10
51.9684
 20
85.6869
 30
0.0000
 42
1.0000
  0
VERTEX
  8
51
 10
51.9684
 20
85.6107
 30
0.0000
  0
SEQEND
  8
0
  0
POLYLINE
  8
51
 66
1
 10
0.0000
 20
0.0000
 30
0.0000
 40
0.1524
 41
0.1524
 70
0
  0
VERTEX
  8
51
 10
52.4002
 20
85.2932
 30
0.0000
  0
VERTEX
  8
51
 10
52.4002
 20
85.6488
 30
0.0000
  0
SEQEND
  8
0
  0
POLYLINE
  8
51
 66
1
 10
0.0000
 20
0.0000
 30
0.0000
 40
0.0762
 41
0.0762
 70
0
  0
VERTEX
  8
51
 10
52.4383
 20
85.6488
 30
0.0000
 42
1.0000
  0
VERTEX
  8
51
 10
52.3621
 20
85.6488
 30
0.0000
  0
SEQEND
  8
0
  0
POLYLINE
  8
51
 66
1
 10
0.0000
 20
0.0000
 30
0.0000
 40
0.0762
 41
0.0762
 70
0
  0
VERTEX
  8
51
 10
52.3621
 20
85.2932
 30
0.0000
 42
1.0000
  0
VERTEX
  8
51
 10
52.4383
 20
85.2932
 30
0.0000
  0
SEQEND
  8
0
  0
POLYLINE
  8
51
 66
1
 10
0.0000
 20
0.0000
 30
0.0000
 40
0.1524
 41
0.1524
 70
0
  0
VERTEX
  8
51
 10
51.9684
 20
85.2932
 30
0.0000
  0
VERTEX
  8
51
 10
51.9684
 20
85.6488
 30
0.0000
  0
SEQEND
  8
0
  0
POLYLINE
  8
51
 66
1
 10
0.0000
 20
0.0000
 30
0.0000
 40
0.0762
 41
0.0762
 70
0
  0
VERTEX
  8
51
 10
52.0065
 20
85.6488
 30
0.0000
 42
1.0000
  0
VERTEX
  8
51
 10
51.9303
 20
85.6488
 30
0.0000
  0
SEQEND
  8
0
  0
POLYLINE
  8
51
 66
1
 10
0.0000
 20
0.0000
 30
0.0000
 40
0.0762
 41
0.0762
 70
0
  0
VERTEX
  8
51
 10
51.9303
 20
85.2932
 30
0.0000
 42
1.0000
  0
VERTEX
  8
51
 10
52.0065
 20
85.2932
 30
0.0000
  0
SEQEND
  8
0
  0
POLYLINE
  8
51
 66
1
 10
0.0000
 20
0.0000
 30
0.0000
 40
0.1524
 41
0.1524
 70
0
  0
VERTEX
  8
51
 10
51.3588
 20
86.5632
 30
0.0000
  0
VERTEX
  8
51
 10
51.3588
 20
86.9188
 30
0.0000
  0
SEQEND
  8
0
  0
POLYLINE
  8
51
 66
1
 10
0.0000
 20
0.0000
 30
0.0000
 40
0.0762
 41
0.0762
 70
0
  0
VERTEX
  8
51
 10
51.3969
 20
86.9188
 30
0.0000
 42
1.0000
  0
VERTEX
  8
51
 10
51.3207
 20
86.9188
 30
0.0000
  0
SEQEND
  8
0
  0
POLYLINE
  8
51
 66
1
 10
0.0000
 20
0.0000
 30
0.0000
 40
0.0762
 41
0.0762
 70
0
  0
VERTEX
  8
51
 10
51.3207
 20
86.5632
 30
0.0000
 42
1.0000
  0
VERTEX
  8
51
 10
51.3969
 20
86.5632
 30
0.0000
  0
SEQEND
  8
0
  0
POLYLINE
  8
51
 66
1
 10
0.0000
 20
0.0000
 30
0.0000
 40
0.1524
 41
0.1524
 70
0
  0
VERTEX
  8
51
 10
51.3588
 20
86.5632
 30
0.0000
  0
VERTEX
  8
51
 10
51.9684
 20
86.5632
 30
0.0000
  0
SEQEND
  8
0
  0
POLYLINE
  8
51
 66
1
 10
0.0000
 20
0.0000
 30
0.0000
 40
0.0762
 41
0.0762
 70
0
  0
VERTEX
  8
51
 10
51.9684
 20
86.5251
 30
0.0000
 42
1.0000
  0
VERTEX
  8
51
 10
51.9684
 20
86.6013
 30
0.0000
  0
SEQEND
  8
0
  0
POLYLINE
  8
51
 66
1
 10
0.0000
 20
0.0000
 30
0.0000
 40
0.0762
 41
0.0762
 70
0
  0
VERTEX
  8
51
 10
51.3588
 20
86.6013
 30
0.0000
 42
1.0000
  0
VERTEX
  8
51
 10
51.3588
 20
86.5251
 30
0.0000
  0
SEQEND
  8
0
  0
POLYLINE
  8
51
 66
1
 10
0.0000
 20
0.0000
 30
0.0000
 40
0.1524
 41
0.1524
 70
0
  0
VERTEX
  8
51
 10
51.9684
 20
86.5632
 30
0.0000
  0
VERTEX
  8
51
 10
52.4002
 20
86.5632
 30
0.0000
  0
SEQEND
  8
0
  0
POLYLINE
  8
51
 66
1
 10
0.0000
 20
0.0000
 30
0.0000
 40
0.0762
 41
0.0762
 70
0
  0
VERTEX
  8
51
 10
52.4002
 20
86.5251
 30
0.0000
 42
1.0000
  0
VERTEX
  8
51
 10
52.4002
 20
86.6013
 30
0.0000
  0
SEQEND
  8
0
  0
POLYLINE
  8
51
 66
1
 10
0.0000
 20
0.0000
 30
0.0000
 40
0.0762
 41
0.0762
 70
0
  0
VERTEX
  8
51
 10
51.9684
 20
86.6013
 30
0.0000
 42
1.0000
  0
VERTEX
  8
51
 10
51.9684
 20
86.5251
 30
0.0000
  0
SEQEND
  8
0
  0
POLYLINE
  8
51
 66
1
 10
0.0000
 20
0.0000
 30
0.0000
 40
0.1524
 41
0.1524
 70
0
  0
VERTEX
  8
51
 10
51.3588
 20
86.9188
 30
0.0000
  0
VERTEX
  8
51
 10
51.9684
 20
86.9188
 30
0.0000
  0
SEQEND
  8
0
  0
POLYLINE
  8
51
 66
1
 10
0.0000
 20
0.0000
 30
0.0000
 40
0.0762
 41
0.0762
 70
0
  0
VERTEX
  8
51
 10
51.9684
 20
86.8807
 30
0.0000
 42
1.0000
  0
VERTEX
  8
51
 10
51.9684
 20
86.9569
 30
0.0000
  0
SEQEND
  8
0
  0
POLYLINE
  8
51
 66
1
 10
0.0000
 20
0.0000
 30
0.0000
 40
0.0762
 41
0.0762
 70
0
  0
VERTEX
  8
51
 10
51.3588
 20
86.9569
 30
0.0000
 42
1.0000
  0
VERTEX
  8
51
 10
51.3588
 20
86.8807
 30
0.0000
  0
SEQEND
  8
0
  0
POLYLINE
  8
51
 66
1
 10
0.0000
 20
0.0000
 30
0.0000
 40
0.1524
 41
0.1524
 70
0
  0
VERTEX
  8
51
 10
51.9684
 20
86.9188
 30
0.0000
  0
VERTEX
  8
51
 10
52.4002
 20
86.9188
 30
0.0000
  0
SEQEND
  8
0
  0
POLYLINE
  8
51
 66
1
 10
0.0000
 20
0.0000
 30
0.0000
 40
0.0762
 41
0.0762
 70
0
  0
VERTEX
  8
51
 10
52.4002
 20
86.8807
 30
0.0000
 42
1.0000
  0
VERTEX
  8
51
 10
52.4002
 20
86.9569
 30
0.0000
  0
SEQEND
  8
0
  0
POLYLINE
  8
51
 66
1
 10
0.0000
 20
0.0000
 30
0.0000
 40
0.0762
 41
0.0762
 70
0
  0
VERTEX
  8
51
 10
51.9684
 20
86.9569
 30
0.0000
 42
1.0000
  0
VERTEX
  8
51
 10
51.9684
 20
86.8807
 30
0.0000
  0
SEQEND
  8
0
  0
POLYLINE
  8
51
 66
1
 10
0.0000
 20
0.0000
 30
0.0000
 40
0.1524
 41
0.1524
 70
0
  0
VERTEX
  8
51
 10
52.4002
 20
86.5632
 30
0.0000
  0
VERTEX
  8
51
 10
52.4002
 20
86.9188
 30
0.0000
  0
SEQEND
  8
0
  0
POLYLINE
  8
51
 66
1
 10
0.0000
 20
0.0000
 30
0.0000
 40
0.0762
 41
0.0762
 70
0
  0
VERTEX
  8
51
 10
52.4383
 20
86.9188
 30
0.0000
 42
1.0000
  0
VERTEX
  8
51
 10
52.3621
 20
86.9188
 30
0.0000
  0
SEQEND
  8
0
  0
POLYLINE
  8
51
 66
1
 10
0.0000
 20
0.0000
 30
0.0000
 40
0.0762
 41
0.0762
 70
0
  0
VERTEX
  8
51
 10
52.3621
 20
86.5632
 30
0.0000
 42
1.0000
  0
VERTEX
  8
51
 10
52.4383
 20
86.5632
 30
0.0000
  0
SEQEND
  8
0
  0
POLYLINE
  8
51
 66
1
 10
0.0000
 20
0.0000
 30
0.0000
 40
0.1524
 41
0.1524
 70
0
  0
VERTEX
  8
51
 10
51.9684
 20
86.5632
 30
0.0000
  0
VERTEX
  8
51
 10
51.9684
 20
86.9188
 30
0.0000
  0
SEQEND
  8
0
  0
POLYLINE
  8
51
 66
1
 10
0.0000
 20
0.0000
 30
0.0000
 40
0.0762
 41
0.0762
 70
0
  0
VERTEX
  8
51
 10
52.0065
 20
86.9188
 30
0.0000
 42
1.0000
  0
VERTEX
  8
51
 10
51.9303
 20
86.9188
 30
0.0000
  0
SEQEND
  8
0
  0
POLYLINE
  8
51
 66
1
 10
0.0000
 20
0.0000
 30
0.0000
 40
0.0762
 41
0.0762
 70
0
  0
VERTEX
  8
51
 10
51.9303
 20
86.5632
 30
0.0000
 42
1.0000
  0
VERTEX
  8
51
 10
52.0065
 20
86.5632
 30
0.0000
  0
SEQEND
  8
0
  0
POLYLINE
  8
51
 66
1
 10
0.0000
 20
0.0000
 30
0.0000
 40
0.1524
 41
0.1524
 70
0
  0
VERTEX
  8
51
 10
51.3588
 20
87.8332
 30
0.0000
  0
VERTEX
  8
51
 10
51.3588
 20
88.1888
 30
0.0000
  0
SEQEND
  8
0
  0
POLYLINE
  8
51
 66
1
 10
0.0000
 20
0.0000
 30
0.0000
 40
0.0762
 41
0.0762
 70
0
  0
VERTEX
  8
51
 10
51.3969
 20
88.1888
 30
0.0000
 42
1.0000
  0
VERTEX
  8
51
 10
51.3207
 20
88.1888
 30
0.0000
  0
SEQEND
  8
0
  0
POLYLINE
  8
51
 66
1
 10
0.0000
 20
0.0000
 30
0.0000
 40
0.0762
 41
0.0762
 70
0
  0
VERTEX
  8
51
 10
51.3207
 20
87.8332
 30
0.0000
 42
1.0000
  0
VERTEX
  8
51
 10
51.3969
 20
87.8332
 30
0.0000
  0
SEQEND
  8
0
  0
POLYLINE
  8
51
 66
1
 10
0.0000
 20
0.0000
 30
0.0000
 40
0.1524
 41
0.1524
 70
0
  0
VERTEX
  8
51
 10
51.3588
 20
87.8332
 30
0.0000
  0
VERTEX
  8
51
 10
51.9684
 20
87.8332
 30
0.0000
  0
SEQEND
  8
0
  0
POLYLINE
  8
51
 66
1
 10
0.0000
 20
0.0000
 30
0.0000
 40
0.0762
 41
0.0762
 70
0
  0
VERTEX
  8
51
 10
51.9684
 20
87.7951
 30
0.0000
 42
1.0000
  0
VERTEX
  8
51
 10
51.9684
 20
87.8713
 30
0.0000
  0
SEQEND
  8
0
  0
POLYLINE
  8
51
 66
1
 10
0.0000
 20
0.0000
 30
0.0000
 40
0.0762
 41
0.0762
 70
0
  0
VERTEX
  8
51
 10
51.3588
 20
87.8713
 30
0.0000
 42
1.0000
  0
VERTEX
  8
51
 10
51.3588
 20
87.7951
 30
0.0000
  0
SEQEND
  8
0
  0
POLYLINE
  8
51
 66
1
 10
0.0000
 20
0.0000
 30
0.0000
 40
0.1524
 41
0.1524
 70
0
  0
VERTEX
  8
51
 10
51.9684
 20
87.8332
 30
0.0000
  0
VERTEX
  8
51
 10
52.4002
 20
87.8332
 30
0.0000
  0
SEQEND
  8
0
  0
POLYLINE
  8
51
 66
1
 10
0.0000
 20
0.0000
 30
0.0000
 40
0.0762
 41
0.0762
 70
0
  0
VERTEX
  8
51
 10
52.4002
 20
87.7951
 30
0.0000
 42
1.0000
  0
VERTEX
  8
51
 10
52.4002
 20
87.8713
 30
0.0000
  0
SEQEND
  8
0
  0
POLYLINE
  8
51
 66
1
 10
0.0000
 20
0.0000
 30
0.0000
 40
0.0762
 41
0.0762
 70
0
  0
VERTEX
  8
51
 10
51.9684
 20
87.8713
 30
0.0000
 42
1.0000
  0
VERTEX
  8
51
 10
51.9684
 20
87.7951
 30
0.0000
  0
SEQEND
  8
0
  0
POLYLINE
  8
51
 66
1
 10
0.0000
 20
0.0000
 30
0.0000
 40
0.1524
 41
0.1524
 70
0
  0
VERTEX
  8
51
 10
51.3588
 20
88.1888
 30
0.0000
  0
VERTEX
  8
51
 10
51.9684
 20
88.1888
 30
0.0000
  0
SEQEND
  8
0
  0
POLYLINE
  8
51
 66
1
 10
0.0000
 20
0.0000
 30
0.0000
 40
0.0762
 41
0.0762
 70
0
  0
VERTEX
  8
51
 10
51.9684
 20
88.1507
 30
0.0000
 42
1.0000
  0
VERTEX
  8
51
 10
51.9684
 20
88.2269
 30
0.0000
  0
SEQEND
  8
0
  0
POLYLINE
  8
51
 66
1
 10
0.0000
 20
0.0000
 30
0.0000
 40
0.0762
 41
0.0762
 70
0
  0
VERTEX
  8
51
 10
51.3588
 20
88.2269
 30
0.0000
 42
1.0000
  0
VERTEX
  8
51
 10
51.3588
 20
88.1507
 30
0.0000
  0
SEQEND
  8
0
  0
POLYLINE
  8
51
 66
1
 10
0.0000
 20
0.0000
 30
0.0000
 40
0.1524
 41
0.1524
 70
0
  0
VERTEX
  8
51
 10
51.9684
 20
88.1888
 30
0.0000
  0
VERTEX
  8
51
 10
52.4002
 20
88.1888
 30
0.0000
  0
SEQEND
  8
0
  0
POLYLINE
  8
51
 66
1
 10
0.0000
 20
0.0000
 30
0.0000
 40
0.0762
 41
0.0762
 70
0
  0
VERTEX
  8
51
 10
52.4002
 20
88.1507
 30
0.0000
 42
1.0000
  0
VERTEX
  8
51
 10
52.4002
 20
88.2269
 30
0.0000
  0
SEQEND
  8
0
  0
POLYLINE
  8
51
 66
1
 10
0.0000
 20
0.0000
 30
0.0000
 40
0.0762
 41
0.0762
 70
0
  0
VERTEX
  8
51
 10
51.9684
 20
88.2269
 30
0.0000
 42
1.0000
  0
VERTEX
  8
51
 10
51.9684
 20
88.1507
 30
0.0000
  0
SEQEND
  8
0
  0
POLYLINE
  8
51
 66
1
 10
0.0000
 20
0.0000
 30
0.0000
 40
0.1524
 41
0.1524
 70
0
  0
VERTEX
  8
51
 10
52.4002
 20
87.8332
 30
0.0000
  0
VERTEX
  8
51
 10
52.4002
 20
88.1888
 30
0.0000
  0
SEQEND
  8
0
  0
POLYLINE
  8
51
 66
1
 10
0.0000
 20
0.0000
 30
0.0000
 40
0.0762
 41
0.0762
 70
0
  0
VERTEX
  8
51
 10
52.4383
 20
88.1888
 30
0.0000
 42
1.0000
  0
VERTEX
  8
51
 10
52.3621
 20
88.1888
 30
0.0000
  0
SEQEND
  8
0
  0
POLYLINE
  8
51
 66
1
 10
0.0000
 20
0.0000
 30
0.0000
 40
0.0762
 41
0.0762
 70
0
  0
VERTEX
  8
51
 10
52.3621
 20
87.8332
 30
0.0000
 42
1.0000
  0
VERTEX
  8
51
 10
52.4383
 20
87.8332
 30
0.0000
  0
SEQEND
  8
0
  0
POLYLINE
  8
51
 66
1
 10
0.0000
 20
0.0000
 30
0.0000
 40
0.1524
 41
0.1524
 70
0
  0
VERTEX
  8
51
 10
51.9684
 20
87.8332
 30
0.0000
  0
VERTEX
  8
51
 10
51.9684
 20
88.1888
 30
0.0000
  0
SEQEND
  8
0
  0
POLYLINE
  8
51
 66
1
 10
0.0000
 20
0.0000
 30
0.0000
 40
0.0762
 41
0.0762
 70
0
  0
VERTEX
  8
51
 10
52.0065
 20
88.1888
 30
0.0000
 42
1.0000
  0
VERTEX
  8
51
 10
51.9303
 20
88.1888
 30
0.0000
  0
SEQEND
  8
0
  0
POLYLINE
  8
51
 66
1
 10
0.0000
 20
0.0000
 30
0.0000
 40
0.0762
 41
0.0762
 70
0
  0
VERTEX
  8
51
 10
51.9303
 20
87.8332
 30
0.0000
 42
1.0000
  0
VERTEX
  8
51
 10
52.0065
 20
87.8332
 30
0.0000
  0
SEQEND
  8
0
  0
POLYLINE
  8
51
 66
1
 10
0.0000
 20
0.0000
 30
0.0000
 40
0.1524
 41
0.1524
 70
0
  0
VERTEX
  8
51
 10
57.3532
 20
84.0232
 30
0.0000
  0
VERTEX
  8
51
 10
57.3532
 20
84.3788
 30
0.0000
  0
SEQEND
  8
0
  0
POLYLINE
  8
51
 66
1
 10
0.0000
 20
0.0000
 30
0.0000
 40
0.0762
 41
0.0762
 70
0
  0
VERTEX
  8
51
 10
57.3913
 20
84.3788
 30
0.0000
 42
1.0000
  0
VERTEX
  8
51
 10
57.3151
 20
84.3788
 30
0.0000
  0
SEQEND
  8
0
  0
POLYLINE
  8
51
 66
1
 10
0.0000
 20
0.0000
 30
0.0000
 40
0.0762
 41
0.0762
 70
0
  0
VERTEX
  8
51
 10
57.3151
 20
84.0232
 30
0.0000
 42
1.0000
  0
VERTEX
  8
51
 10
57.3913
 20
84.0232
 30
0.0000
  0
SEQEND
  8
0
  0
POLYLINE
  8
51
 66
1
 10
0.0000
 20
0.0000
 30
0.0000
 40
0.1524
 41
0.1524
 70
0
  0
VERTEX
  8
51
 10
56.3118
 20
84.3788
 30
0.0000
  0
VERTEX
  8
51
 10
56.7182
 20
84.3788
 30
0.0000
  0
SEQEND
  8
0
  0
POLYLINE
  8
51
 66
1
 10
0.0000
 20
0.0000
 30
0.0000
 40
0.0762
 41
0.0762
 70
0
  0
VERTEX
  8
51
 10
56.7182
 20
84.3407
 30
0.0000
 42
1.0000
  0
VERTEX
  8
51
 10
56.7182
 20
84.4169
 30
0.0000
  0
SEQEND
  8
0
  0
POLYLINE
  8
51
 66
1
 10
0.0000
 20
0.0000
 30
0.0000
 40
0.0762
 41
0.0762
 70
0
  0
VERTEX
  8
51
 10
56.3118
 20
84.4169
 30
0.0000
 42
1.0000
  0
VERTEX
  8
51
 10
56.3118
 20
84.3407
 30
0.0000
  0
SEQEND
  8
0
  0
POLYLINE
  8
51
 66
1
 10
0.0000
 20
0.0000
 30
0.0000
 40
0.1524
 41
0.1524
 70
0
  0
VERTEX
  8
51
 10
56.7182
 20
84.3788
 30
0.0000
  0
VERTEX
  8
51
 10
57.3532
 20
84.3788
 30
0.0000
  0
SEQEND
  8
0
  0
POLYLINE
  8
51
 66
1
 10
0.0000
 20
0.0000
 30
0.0000
 40
0.0762
 41
0.0762
 70
0
  0
VERTEX
  8
51
 10
57.3532
 20
84.3407
 30
0.0000
 42
1.0000
  0
VERTEX
  8
51
 10
57.3532
 20
84.4169
 30
0.0000
  0
SEQEND
  8
0
  0
POLYLINE
  8
51
 66
1
 10
0.0000
 20
0.0000
 30
0.0000
 40
0.0762
 41
0.0762
 70
0
  0
VERTEX
  8
51
 10
56.7182
 20
84.4169
 30
0.0000
 42
1.0000
  0
VERTEX
  8
51
 10
56.7182
 20
84.3407
 30
0.0000
  0
SEQEND
  8
0
  0
POLYLINE
  8
51
 66
1
 10
0.0000
 20
0.0000
 30
0.0000
 40
0.1524
 41
0.1524
 70
0
  0
VERTEX
  8
51
 10
56.3118
 20
84.0232
 30
0.0000
  0
VERTEX
  8
51
 10
56.7182
 20
84.0232
 30
0.0000
  0
SEQEND
  8
0
  0
POLYLINE
  8
51
 66
1
 10
0.0000
 20
0.0000
 30
0.0000
 40
0.0762
 41
0.0762
 70
0
  0
VERTEX
  8
51
 10
56.7182
 20
83.9851
 30
0.0000
 42
1.0000
  0
VERTEX
  8
51
 10
56.7182
 20
84.0613
 30
0.0000
  0
SEQEND
  8
0
  0
POLYLINE
  8
51
 66
1
 10
0.0000
 20
0.0000
 30
0.0000
 40
0.0762
 41
0.0762
 70
0
  0
VERTEX
  8
51
 10
56.3118
 20
84.0613
 30
0.0000
 42
1.0000
  0
VERTEX
  8
51
 10
56.3118
 20
83.9851
 30
0.0000
  0
SEQEND
  8
0
  0
POLYLINE
  8
51
 66
1
 10
0.0000
 20
0.0000
 30
0.0000
 40
0.1524
 41
0.1524
 70
0
  0
VERTEX
  8
51
 10
56.7182
 20
84.0232
 30
0.0000
  0
VERTEX
  8
51
 10
57.3532
 20
84.0232
 30
0.0000
  0
SEQEND
  8
0
  0
POLYLINE
  8
51
 66
1
 10
0.0000
 20
0.0000
 30
0.0000
 40
0.0762
 41
0.0762
 70
0
  0
VERTEX
  8
51
 10
57.3532
 20
83.9851
 30
0.0000
 42
1.0000
  0
VERTEX
  8
51
 10
57.3532
 20
84.0613
 30
0.0000
  0
SEQEND
  8
0
  0
POLYLINE
  8
51
 66
1
 10
0.0000
 20
0.0000
 30
0.0000
 40
0.0762
 41
0.0762
 70
0
  0
VERTEX
  8
51
 10
56.7182
 20
84.0613
 30
0.0000
 42
1.0000
  0
VERTEX
  8
51
 10
56.7182
 20
83.9851
 30
0.0000
  0
SEQEND
  8
0
  0
POLYLINE
  8
51
 66
1
 10
0.0000
 20
0.0000
 30
0.0000
 40
0.1524
 41
0.1524
 70
0
  0
VERTEX
  8
51
 10
56.3118
 20
84.0232
 30
0.0000
  0
VERTEX
  8
51
 10
56.3118
 20
84.3788
 30
0.0000
  0
SEQEND
  8
0
  0
POLYLINE
  8
51
 66
1
 10
0.0000
 20
0.0000
 30
0.0000
 40
0.0762
 41
0.0762
 70
0
  0
VERTEX
  8
51
 10
56.3499
 20
84.3788
 30
0.0000
 42
1.0000
  0
VERTEX
  8
51
 10
56.2737
 20
84.3788
 30
0.0000
  0
SEQEND
  8
0
  0
POLYLINE
  8
51
 66
1
 10
0.0000
 20
0.0000
 30
0.0000
 40
0.0762
 41
0.0762
 70
0
  0
VERTEX
  8
51
 10
56.2737
 20
84.0232
 30
0.0000
 42
1.0000
  0
VERTEX
  8
51
 10
56.3499
 20
84.0232
 30
0.0000
  0
SEQEND
  8
0
  0
POLYLINE
  8
51
 66
1
 10
0.0000
 20
0.0000
 30
0.0000
 40
0.1524
 41
0.1524
 70
0
  0
VERTEX
  8
51
 10
56.7182
 20
84.0232
 30
0.0000
  0
VERTEX
  8
51
 10
56.7182
 20
84.3788
 30
0.0000
  0
SEQEND
  8
0
  0
POLYLINE
  8
51
 66
1
 10
0.0000
 20
0.0000
 30
0.0000
 40
0.0762
 41
0.0762
 70
0
  0
VERTEX
  8
51
 10
56.7563
 20
84.3788
 30
0.0000
 42
1.0000
  0
VERTEX
  8
51
 10
56.6801
 20
84.3788
 30
0.0000
  0
SEQEND
  8
0
  0
POLYLINE
  8
51
 66
1
 10
0.0000
 20
0.0000
 30
0.0000
 40
0.0762
 41
0.0762
 70
0
  0
VERTEX
  8
51
 10
56.6801
 20
84.0232
 30
0.0000
 42
1.0000
  0
VERTEX
  8
51
 10
56.7563
 20
84.0232
 30
0.0000
  0
SEQEND
  8
0
  0
POLYLINE
  8
51
 66
1
 10
0.0000
 20
0.0000
 30
0.0000
 40
0.1524
 41
0.1524
 70
0
  0
VERTEX
  8
51
 10
57.3532
 20
85.2932
 30
0.0000
  0
VERTEX
  8
51
 10
57.3532
 20
85.6488
 30
0.0000
  0
SEQEND
  8
0
  0
POLYLINE
  8
51
 66
1
 10
0.0000
 20
0.0000
 30
0.0000
 40
0.0762
 41
0.0762
 70
0
  0
VERTEX
  8
51
 10
57.3913
 20
85.6488
 30
0.0000
 42
1.0000
  0
VERTEX
  8
51
 10
57.3151
 20
85.6488
 30
0.0000
  0
SEQEND
  8
0
  0
POLYLINE
  8
51
 66
1
 10
0.0000
 20
0.0000
 30
0.0000
 40
0.0762
 41
0.0762
 70
0
  0
VERTEX
  8
51
 10
57.3151
 20
85.2932
 30
0.0000
 42
1.0000
  0
VERTEX
  8
51
 10
57.3913
 20
85.2932
 30
0.0000
  0
SEQEND
  8
0
  0
POLYLINE
  8
51
 66
1
 10
0.0000
 20
0.0000
 30
0.0000
 40
0.1524
 41
0.1524
 70
0
  0
VERTEX
  8
51
 10
56.3118
 20
85.6488
 30
0.0000
  0
VERTEX
  8
51
 10
56.7182
 20
85.6488
 30
0.0000
  0
SEQEND
  8
0
  0
POLYLINE
  8
51
 66
1
 10
0.0000
 20
0.0000
 30
0.0000
 40
0.0762
 41
0.0762
 70
0
  0
VERTEX
  8
51
 10
56.7182
 20
85.6107
 30
0.0000
 42
1.0000
  0
VERTEX
  8
51
 10
56.7182
 20
85.6869
 30
0.0000
  0
SEQEND
  8
0
  0
POLYLINE
  8
51
 66
1
 10
0.0000
 20
0.0000
 30
0.0000
 40
0.0762
 41
0.0762
 70
0
  0
VERTEX
  8
51
 10
56.3118
 20
85.6869
 30
0.0000
 42
1.0000
  0
VERTEX
  8
51
 10
56.3118
 20
85.6107
 30
0.0000
  0
SEQEND
  8
0
  0
POLYLINE
  8
51
 66
1
 10
0.0000
 20
0.0000
 30
0.0000
 40
0.1524
 41
0.1524
 70
0
  0
VERTEX
  8
51
 10
56.7182
 20
85.6488
 30
0.0000
  0
VERTEX
  8
51
 10
57.3532
 20
85.6488
 30
0.0000
  0
SEQEND
  8
0
  0
POLYLINE
  8
51
 66
1
 10
0.0000
 20
0.0000
 30
0.0000
 40
0.0762
 41
0.0762
 70
0
  0
VERTEX
  8
51
 10
57.3532
 20
85.6107
 30
0.0000
 42
1.0000
  0
VERTEX
  8
51
 10
57.3532
 20
85.6869
 30
0.0000
  0
SEQEND
  8
0
  0
POLYLINE
  8
51
 66
1
 10
0.0000
 20
0.0000
 30
0.0000
 40
0.0762
 41
0.0762
 70
0
  0
VERTEX
  8
51
 10
56.7182
 20
85.6869
 30
0.0000
 42
1.0000
  0
VERTEX
  8
51
 10
56.7182
 20
85.6107
 30
0.0000
  0
SEQEND
  8
0
  0
POLYLINE
  8
51
 66
1
 10
0.0000
 20
0.0000
 30
0.0000
 40
0.1524
 41
0.1524
 70
0
  0
VERTEX
  8
51
 10
56.3118
 20
85.2932
 30
0.0000
  0
VERTEX
  8
51
 10
56.7182
 20
85.2932
 30
0.0000
  0
SEQEND
  8
0
  0
POLYLINE
  8
51
 66
1
 10
0.0000
 20
0.0000
 30
0.0000
 40
0.0762
 41
0.0762
 70
0
  0
VERTEX
  8
51
 10
56.7182
 20
85.2551
 30
0.0000
 42
1.0000
  0
VERTEX
  8
51
 10
56.7182
 20
85.3313
 30
0.0000
  0
SEQEND
  8
0
  0
POLYLINE
  8
51
 66
1
 10
0.0000
 20
0.0000
 30
0.0000
 40
0.0762
 41
0.0762
 70
0
  0
VERTEX
  8
51
 10
56.3118
 20
85.3313
 30
0.0000
 42
1.0000
  0
VERTEX
  8
51
 10
56.3118
 20
85.2551
 30
0.0000
  0
SEQEND
  8
0
  0
POLYLINE
  8
51
 66
1
 10
0.0000
 20
0.0000
 30
0.0000
 40
0.1524
 41
0.1524
 70
0
  0
VERTEX
  8
51
 10
56.7182
 20
85.2932
 30
0.0000
  0
VERTEX
  8
51
 10
57.3532
 20
85.2932
 30
0.0000
  0
SEQEND
  8
0
  0
POLYLINE
  8
51
 66
1
 10
0.0000
 20
0.0000
 30
0.0000
 40
0.0762
 41
0.0762
 70
0
  0
VERTEX
  8
51
 10
57.3532
 20
85.2551
 30
0.0000
 42
1.0000
  0
VERTEX
  8
51
 10
57.3532
 20
85.3313
 30
0.0000
  0
SEQEND
  8
0
  0
POLYLINE
  8
51
 66
1
 10
0.0000
 20
0.0000
 30
0.0000
 40
0.0762
 41
0.0762
 70
0
  0
VERTEX
  8
51
 10
56.7182
 20
85.3313
 30
0.0000
 42
1.0000
  0
VERTEX
  8
51
 10
56.7182
 20
85.2551
 30
0.0000
  0
SEQEND
  8
0
  0
POLYLINE
  8
51
 66
1
 10
0.0000
 20
0.0000
 30
0.0000
 40
0.1524
 41
0.1524
 70
0
  0
VERTEX
  8
51
 10
56.3118
 20
85.2932
 30
0.0000
  0
VERTEX
  8
51
 10
56.3118
 20
85.6488
 30
0.0000
  0
SEQEND
  8
0
  0
POLYLINE
  8
51
 66
1
 10
0.0000
 20
0.0000
 30
0.0000
 40
0.0762
 41
0.0762
 70
0
  0
VERTEX
  8
51
 10
56.3499
 20
85.6488
 30
0.0000
 42
1.0000
  0
VERTEX
  8
51
 10
56.2737
 20
85.6488
 30
0.0000
  0
SEQEND
  8
0
  0
POLYLINE
  8
51
 66
1
 10
0.0000
 20
0.0000
 30
0.0000
 40
0.0762
 41
0.0762
 70
0
  0
VERTEX
  8
51
 10
56.2737
 20
85.2932
 30
0.0000
 42
1.0000
  0
VERTEX
  8
51
 10
56.3499
 20
85.2932
 30
0.0000
  0
SEQEND
  8
0
  0
POLYLINE
  8
51
 66
1
 10
0.0000
 20
0.0000
 30
0.0000
 40
0.1524
 41
0.1524
 70
0
  0
VERTEX
  8
51
 10
56.7182
 20
85.2932
 30
0.0000
  0
VERTEX
  8
51
 10
56.7182
 20
85.6488
 30
0.0000
  0
SEQEND
  8
0
  0
POLYLINE
  8
51
 66
1
 10
0.0000
 20
0.0000
 30
0.0000
 40
0.0762
 41
0.0762
 70
0
  0
VERTEX
  8
51
 10
56.7563
 20
85.6488
 30
0.0000
 42
1.0000
  0
VERTEX
  8
51
 10
56.6801
 20
85.6488
 30
0.0000
  0
SEQEND
  8
0
  0
POLYLINE
  8
51
 66
1
 10
0.0000
 20
0.0000
 30
0.0000
 40
0.0762
 41
0.0762
 70
0
  0
VERTEX
  8
51
 10
56.6801
 20
85.2932
 30
0.0000
 42
1.0000
  0
VERTEX
  8
51
 10
56.7563
 20
85.2932
 30
0.0000
  0
SEQEND
  8
0
  0
POLYLINE
  8
51
 66
1
 10
0.0000
 20
0.0000
 30
0.0000
 40
0.1524
 41
0.1524
 70
0
  0
VERTEX
  8
51
 10
57.3532
 20
86.5632
 30
0.0000
  0
VERTEX
  8
51
 10
57.3532
 20
86.9188
 30
0.0000
  0
SEQEND
  8
0
  0
POLYLINE
  8
51
 66
1
 10
0.0000
 20
0.0000
 30
0.0000
 40
0.0762
 41
0.0762
 70
0
  0
VERTEX
  8
51
 10
57.3913
 20
86.9188
 30
0.0000
 42
1.0000
  0
VERTEX
  8
51
 10
57.3151
 20
86.9188
 30
0.0000
  0
SEQEND
  8
0
  0
POLYLINE
  8
51
 66
1
 10
0.0000
 20
0.0000
 30
0.0000
 40
0.0762
 41
0.0762
 70
0
  0
VERTEX
  8
51
 10
57.3151
 20
86.5632
 30
0.0000
 42
1.0000
  0
VERTEX
  8
51
 10
57.3913
 20
86.5632
 30
0.0000
  0
SEQEND
  8
0
  0
POLYLINE
  8
51
 66
1
 10
0.0000
 20
0.0000
 30
0.0000
 40
0.1524
 41
0.1524
 70
0
  0
VERTEX
  8
51
 10
56.3118
 20
86.9188
 30
0.0000
  0
VERTEX
  8
51
 10
56.7182
 20
86.9188
 30
0.0000
  0
SEQEND
  8
0
  0
POLYLINE
  8
51
 66
1
 10
0.0000
 20
0.0000
 30
0.0000
 40
0.0762
 41
0.0762
 70
0
  0
VERTEX
  8
51
 10
56.7182
 20
86.8807
 30
0.0000
 42
1.0000
  0
VERTEX
  8
51
 10
56.7182
 20
86.9569
 30
0.0000
  0
SEQEND
  8
0
  0
POLYLINE
  8
51
 66
1
 10
0.0000
 20
0.0000
 30
0.0000
 40
0.0762
 41
0.0762
 70
0
  0
VERTEX
  8
51
 10
56.3118
 20
86.9569
 30
0.0000
 42
1.0000
  0
VERTEX
  8
51
 10
56.3118
 20
86.8807
 30
0.0000
  0
SEQEND
  8
0
  0
POLYLINE
  8
51
 66
1
 10
0.0000
 20
0.0000
 30
0.0000
 40
0.1524
 41
0.1524
 70
0
  0
VERTEX
  8
51
 10
56.7182
 20
86.9188
 30
0.0000
  0
VERTEX
  8
51
 10
57.3532
 20
86.9188
 30
0.0000
  0
SEQEND
  8
0
  0
POLYLINE
  8
51
 66
1
 10
0.0000
 20
0.0000
 30
0.0000
 40
0.0762
 41
0.0762
 70
0
  0
VERTEX
  8
51
 10
57.3532
 20
86.8807
 30
0.0000
 42
1.0000
  0
VERTEX
  8
51
 10
57.3532
 20
86.9569
 30
0.0000
  0
SEQEND
  8
0
  0
POLYLINE
  8
51
 66
1
 10
0.0000
 20
0.0000
 30
0.0000
 40
0.0762
 41
0.0762
 70
0
  0
VERTEX
  8
51
 10
56.7182
 20
86.9569
 30
0.0000
 42
1.0000
  0
VERTEX
  8
51
 10
56.7182
 20
86.8807
 30
0.0000
  0
SEQEND
  8
0
  0
POLYLINE
  8
51
 66
1
 10
0.0000
 20
0.0000
 30
0.0000
 40
0.1524
 41
0.1524
 70
0
  0
VERTEX
  8
51
 10
56.3118
 20
86.5632
 30
0.0000
  0
VERTEX
  8
51
 10
56.7182
 20
86.5632
 30
0.0000
  0
SEQEND
  8
0
  0
POLYLINE
  8
51
 66
1
 10
0.0000
 20
0.0000
 30
0.0000
 40
0.0762
 41
0.0762
 70
0
  0
VERTEX
  8
51
 10
56.7182
 20
86.5251
 30
0.0000
 42
1.0000
  0
VERTEX
  8
51
 10
56.7182
 20
86.6013
 30
0.0000
  0
SEQEND
  8
0
  0
POLYLINE
  8
51
 66
1
 10
0.0000
 20
0.0000
 30
0.0000
 40
0.0762
 41
0.0762
 70
0
  0
VERTEX
  8
51
 10
56.3118
 20
86.6013
 30
0.0000
 42
1.0000
  0
VERTEX
  8
51
 10
56.3118
 20
86.5251
 30
0.0000
  0
SEQEND
  8
0
  0
POLYLINE
  8
51
 66
1
 10
0.0000
 20
0.0000
 30
0.0000
 40
0.1524
 41
0.1524
 70
0
  0
VERTEX
  8
51
 10
56.7182
 20
86.5632
 30
0.0000
  0
VERTEX
  8
51
 10
57.3532
 20
86.5632
 30
0.0000
  0
SEQEND
  8
0
  0
POLYLINE
  8
51
 66
1
 10
0.0000
 20
0.0000
 30
0.0000
 40
0.0762
 41
0.0762
 70
0
  0
VERTEX
  8
51
 10
57.3532
 20
86.5251
 30
0.0000
 42
1.0000
  0
VERTEX
  8
51
 10
57.3532
 20
86.6013
 30
0.0000
  0
SEQEND
  8
0
  0
POLYLINE
  8
51
 66
1
 10
0.0000
 20
0.0000
 30
0.0000
 40
0.0762
 41
0.0762
 70
0
  0
VERTEX
  8
51
 10
56.7182
 20
86.6013
 30
0.0000
 42
1.0000
  0
VERTEX
  8
51
 10
56.7182
 20
86.5251
 30
0.0000
  0
SEQEND
  8
0
  0
POLYLINE
  8
51
 66
1
 10
0.0000
 20
0.0000
 30
0.0000
 40
0.1524
 41
0.1524
 70
0
  0
VERTEX
  8
51
 10
56.3118
 20
86.5632
 30
0.0000
  0
VERTEX
  8
51
 10
56.3118
 20
86.9188
 30
0.0000
  0
SEQEND
  8
0
  0
POLYLINE
  8
51
 66
1
 10
0.0000
 20
0.0000
 30
0.0000
 40
0.0762
 41
0.0762
 70
0
  0
VERTEX
  8
51
 10
56.3499
 20
86.9188
 30
0.0000
 42
1.0000
  0
VERTEX
  8
51
 10
56.2737
 20
86.9188
 30
0.0000
  0
SEQEND
  8
0
  0
POLYLINE
  8
51
 66
1
 10
0.0000
 20
0.0000
 30
0.0000
 40
0.0762
 41
0.0762
 70
0
  0
VERTEX
  8
51
 10
56.2737
 20
86.5632
 30
0.0000
 42
1.0000
  0
VERTEX
  8
51
 10
56.3499
 20
86.5632
 30
0.0000
  0
SEQEND
  8
0
  0
POLYLINE
  8
51
 66
1
 10
0.0000
 20
0.0000
 30
0.0000
 40
0.1524
 41
0.1524
 70
0
  0
VERTEX
  8
51
 10
56.7182
 20
86.5632
 30
0.0000
  0
VERTEX
  8
51
 10
56.7182
 20
86.9188
 30
0.0000
  0
SEQEND
  8
0
  0
POLYLINE
  8
51
 66
1
 10
0.0000
 20
0.0000
 30
0.0000
 40
0.0762
 41
0.0762
 70
0
  0
VERTEX
  8
51
 10
56.7563
 20
86.9188
 30
0.0000
 42
1.0000
  0
VERTEX
  8
51
 10
56.6801
 20
86.9188
 30
0.0000
  0
SEQEND
  8
0
  0
POLYLINE
  8
51
 66
1
 10
0.0000
 20
0.0000
 30
0.0000
 40
0.0762
 41
0.0762
 70
0
  0
VERTEX
  8
51
 10
56.6801
 20
86.5632
 30
0.0000
 42
1.0000
  0
VERTEX
  8
51
 10
56.7563
 20
86.5632
 30
0.0000
  0
SEQEND
  8
0
  0
POLYLINE
  8
51
 66
1
 10
0.0000
 20
0.0000
 30
0.0000
 40
0.1524
 41
0.1524
 70
0
  0
VERTEX
  8
51
 10
57.3532
 20
87.8332
 30
0.0000
  0
VERTEX
  8
51
 10
57.3532
 20
88.1888
 30
0.0000
  0
SEQEND
  8
0
  0
POLYLINE
  8
51
 66
1
 10
0.0000
 20
0.0000
 30
0.0000
 40
0.0762
 41
0.0762
 70
0
  0
VERTEX
  8
51
 10
57.3913
 20
88.1888
 30
0.0000
 42
1.0000
  0
VERTEX
  8
51
 10
57.3151
 20
88.1888
 30
0.0000
  0
SEQEND
  8
0
  0
POLYLINE
  8
51
 66
1
 10
0.0000
 20
0.0000
 30
0.0000
 40
0.0762
 41
0.0762
 70
0
  0
VERTEX
  8
51
 10
57.3151
 20
87.8332
 30
0.0000
 42
1.0000
  0
VERTEX
  8
51
 10
57.3913
 20
87.8332
 30
0.0000
  0
SEQEND
  8
0
  0
POLYLINE
  8
51
 66
1
 10
0.0000
 20
0.0000
 30
0.0000
 40
0.1524
 41
0.1524
 70
0
  0
VERTEX
  8
51
 10
56.3118
 20
88.1888
 30
0.0000
  0
VERTEX
  8
51
 10
56.7182
 20
88.1888
 30
0.0000
  0
SEQEND
  8
0
  0
POLYLINE
  8
51
 66
1
 10
0.0000
 20
0.0000
 30
0.0000
 40
0.0762
 41
0.0762
 70
0
  0
VERTEX
  8
51
 10
56.7182
 20
88.1507
 30
0.0000
 42
1.0000
  0
VERTEX
  8
51
 10
56.7182
 20
88.2269
 30
0.0000
  0
SEQEND
  8
0
  0
POLYLINE
  8
51
 66
1
 10
0.0000
 20
0.0000
 30
0.0000
 40
0.0762
 41
0.0762
 70
0
  0
VERTEX
  8
51
 10
56.3118
 20
88.2269
 30
0.0000
 42
1.0000
  0
VERTEX
  8
51
 10
56.3118
 20
88.1507
 30
0.0000
  0
SEQEND
  8
0
  0
POLYLINE
  8
51
 66
1
 10
0.0000
 20
0.0000
 30
0.0000
 40
0.1524
 41
0.1524
 70
0
  0
VERTEX
  8
51
 10
56.7182
 20
88.1888
 30
0.0000
  0
VERTEX
  8
51
 10
57.3532
 20
88.1888
 30
0.0000
  0
SEQEND
  8
0
  0
POLYLINE
  8
51
 66
1
 10
0.0000
 20
0.0000
 30
0.0000
 40
0.0762
 41
0.0762
 70
0
  0
VERTEX
  8
51
 10
57.3532
 20
88.1507
 30
0.0000
 42
1.0000
  0
VERTEX
  8
51
 10
57.3532
 20
88.2269
 30
0.0000
  0
SEQEND
  8
0
  0
POLYLINE
  8
51
 66
1
 10
0.0000
 20
0.0000
 30
0.0000
 40
0.0762
 41
0.0762
 70
0
  0
VERTEX
  8
51
 10
56.7182
 20
88.2269
 30
0.0000
 42
1.0000
  0
VERTEX
  8
51
 10
56.7182
 20
88.1507
 30
0.0000
  0
SEQEND
  8
0
  0
POLYLINE
  8
51
 66
1
 10
0.0000
 20
0.0000
 30
0.0000
 40
0.1524
 41
0.1524
 70
0
  0
VERTEX
  8
51
 10
56.3118
 20
87.8332
 30
0.0000
  0
VERTEX
  8
51
 10
56.7182
 20
87.8332
 30
0.0000
  0
SEQEND
  8
0
  0
POLYLINE
  8
51
 66
1
 10
0.0000
 20
0.0000
 30
0.0000
 40
0.0762
 41
0.0762
 70
0
  0
VERTEX
  8
51
 10
56.7182
 20
87.7951
 30
0.0000
 42
1.0000
  0
VERTEX
  8
51
 10
56.7182
 20
87.8713
 30
0.0000
  0
SEQEND
  8
0
  0
POLYLINE
  8
51
 66
1
 10
0.0000
 20
0.0000
 30
0.0000
 40
0.0762
 41
0.0762
 70
0
  0
VERTEX
  8
51
 10
56.3118
 20
87.8713
 30
0.0000
 42
1.0000
  0
VERTEX
  8
51
 10
56.3118
 20
87.7951
 30
0.0000
  0
SEQEND
  8
0
  0
POLYLINE
  8
51
 66
1
 10
0.0000
 20
0.0000
 30
0.0000
 40
0.1524
 41
0.1524
 70
0
  0
VERTEX
  8
51
 10
56.7182
 20
87.8332
 30
0.0000
  0
VERTEX
  8
51
 10
57.3532
 20
87.8332
 30
0.0000
  0
SEQEND
  8
0
  0
POLYLINE
  8
51
 66
1
 10
0.0000
 20
0.0000
 30
0.0000
 40
0.0762
 41
0.0762
 70
0
  0
VERTEX
  8
51
 10
57.3532
 20
87.7951
 30
0.0000
 42
1.0000
  0
VERTEX
  8
51
 10
57.3532
 20
87.8713
 30
0.0000
  0
SEQEND
  8
0
  0
POLYLINE
  8
51
 66
1
 10
0.0000
 20
0.0000
 30
0.0000
 40
0.0762
 41
0.0762
 70
0
  0
VERTEX
  8
51
 10
56.7182
 20
87.8713
 30
0.0000
 42
1.0000
  0
VERTEX
  8
51
 10
56.7182
 20
87.7951
 30
0.0000
  0
SEQEND
  8
0
  0
POLYLINE
  8
51
 66
1
 10
0.0000
 20
0.0000
 30
0.0000
 40
0.1524
 41
0.1524
 70
0
  0
VERTEX
  8
51
 10
56.3118
 20
87.8332
 30
0.0000
  0
VERTEX
  8
51
 10
56.3118
 20
88.1888
 30
0.0000
  0
SEQEND
  8
0
  0
POLYLINE
  8
51
 66
1
 10
0.0000
 20
0.0000
 30
0.0000
 40
0.0762
 41
0.0762
 70
0
  0
VERTEX
  8
51
 10
56.3499
 20
88.1888
 30
0.0000
 42
1.0000
  0
VERTEX
  8
51
 10
56.2737
 20
88.1888
 30
0.0000
  0
SEQEND
  8
0
  0
POLYLINE
  8
51
 66
1
 10
0.0000
 20
0.0000
 30
0.0000
 40
0.0762
 41
0.0762
 70
0
  0
VERTEX
  8
51
 10
56.2737
 20
87.8332
 30
0.0000
 42
1.0000
  0
VERTEX
  8
51
 10
56.3499
 20
87.8332
 30
0.0000
  0
SEQEND
  8
0
  0
POLYLINE
  8
51
 66
1
 10
0.0000
 20
0.0000
 30
0.0000
 40
0.1524
 41
0.1524
 70
0
  0
VERTEX
  8
51
 10
56.7182
 20
87.8332
 30
0.0000
  0
VERTEX
  8
51
 10
56.7182
 20
88.1888
 30
0.0000
  0
SEQEND
  8
0
  0
POLYLINE
  8
51
 66
1
 10
0.0000
 20
0.0000
 30
0.0000
 40
0.0762
 41
0.0762
 70
0
  0
VERTEX
  8
51
 10
56.7563
 20
88.1888
 30
0.0000
 42
1.0000
  0
VERTEX
  8
51
 10
56.6801
 20
88.1888
 30
0.0000
  0
SEQEND
  8
0
  0
POLYLINE
  8
51
 66
1
 10
0.0000
 20
0.0000
 30
0.0000
 40
0.0762
 41
0.0762
 70
0
  0
VERTEX
  8
51
 10
56.6801
 20
87.8332
 30
0.0000
 42
1.0000
  0
VERTEX
  8
51
 10
56.7563
 20
87.8332
 30
0.0000
  0
SEQEND
  8
0
  0
POLYLINE
  8
51
 66
1
 10
0.0000
 20
0.0000
 30
0.0000
 40
0.1524
 41
0.1524
 70
0
  0
VERTEX
  8
51
 10
53.7972
 20
87.9602
 30
0.0000
 42
1.0000
  0
VERTEX
  8
51
 10
53.7972
 20
86.7664
 30
0.0000
  0
SEQEND
  8
0
  0
POLYLINE
  8
51
 66
1
 10
0.0000
 20
0.0000
 30
0.0000
 40
0.0762
 41
0.0762
 70
0
  0
VERTEX
  8
51
 10
53.7972
 20
87.9221
 30
0.0000
 42
1.0000
  0
VERTEX
  8
51
 10
53.7972
 20
87.9983
 30
0.0000
  0
SEQEND
  8
0
  0
POLYLINE
  8
51
 66
1
 10
0.0000
 20
0.0000
 30
0.0000
 40
0.0762
 41
0.0762
 70
0
  0
VERTEX
  8
51
 10
53.7972
 20
86.7283
 30
0.0000
 42
1.0000
  0
VERTEX
  8
51
 10
53.7972
 20
86.8045
 30
0.0000
  0
SEQEND
  8
0
  0
POLYLINE
  8
51
 66
1
 10
0.0000
 20
0.0000
 30
0.0000
 40
0.1524
 41
0.1524
 70
0
  0
VERTEX
  8
51
 10
52.4002
 20
83.7946
 30
0.0000
 42
0.4091
  0
VERTEX
  8
51
 10
52.5272
 20
83.6676
 30
0.0000
  0
SEQEND
  8
0
  0
POLYLINE
  8
51
 66
1
 10
0.0000
 20
0.0000
 30
0.0000
 40
0.0762
 41
0.0762
 70
0
  0
VERTEX
  8
51
 10
52.4383
 20
83.7949
 30
0.0000
 42
1.0000
  0
VERTEX
  8
51
 10
52.3621
 20
83.7943
 30
0.0000
  0
SEQEND
  8
0
  0
POLYLINE
  8
51
 66
1
 10
0.0000
 20
0.0000
 30
0.0000
 40
0.0762
 41
0.0762
 70
0
  0
VERTEX
  8
51
 10
52.5269
 20
83.6295
 30
0.0000
 42
1.0000
  0
VERTEX
  8
51
 10
52.5275
 20
83.7057
 30
0.0000
  0
SEQEND
  8
0
  0
POLYLINE
  8
51
 66
1
 10
0.0000
 20
0.0000
 30
0.0000
 40
0.1524
 41
0.1524
 70
0
  0
VERTEX
  8
51
 10
53.7972
 20
86.7664
 30
0.0000
 42
1.0000
  0
VERTEX
  8
51
 10
53.7972
 20
87.9602
 30
0.0000
  0
SEQEND
  8
0
  0
POLYLINE
  8
51
 66
1
 10
0.0000
 20
0.0000
 30
0.0000
 40
0.0762
 41
0.0762
 70
0
  0
VERTEX
  8
51
 10
53.7972
 20
86.8045
 30
0.0000
 42
1.0000
  0
VERTEX
  8
51
 10
53.7972
 20
86.7283
 30
0.0000
  0
SEQEND
  8
0
  0
POLYLINE
  8
51
 66
1
 10
0.0000
 20
0.0000
 30
0.0000
 40
0.0762
 41
0.0762
 70
0
  0
VERTEX
  8
51
 10
53.7972
 20
87.9983
 30
0.0000
 42
1.0000
  0
VERTEX
  8
51
 10
53.7972
 20
87.9221
 30
0.0000
  0
SEQEND
  8
0
  0
POLYLINE
  8
51
 66
1
 10
0.0000
 20
0.0000
 30
0.0000
 40
0.1524
 41
0.1524
 70
0
  0
VERTEX
  8
51
 10
56.1848
 20
83.6676
 30
0.0000
 42
0.4091
  0
VERTEX
  8
51
 10
56.3118
 20
83.7946
 30
0.0000
  0
SEQEND
  8
0
  0
POLYLINE
  8
51
 66
1
 10
0.0000
 20
0.0000
 30
0.0000
 40
0.0762
 41
0.0762
 70
0
  0
VERTEX
  8
51
 10
56.1845
 20
83.7057
 30
0.0000
 42
1.0000
  0
VERTEX
  8
51
 10
56.1851
 20
83.6295
 30
0.0000
  0
SEQEND
  8
0
  0
POLYLINE
  8
51
 66
1
 10
0.0000
 20
0.0000
 30
0.0000
 40
0.0762
 41
0.0762
 70
0
  0
VERTEX
  8
51
 10
56.3499
 20
83.7943
 30
0.0000
 42
1.0000
  0
VERTEX
  8
51
 10
56.2737
 20
83.7949
 30
0.0000
  0
SEQEND
  8
0
  0
POLYLINE
  8
51
 66
1
 10
0.0000
 20
0.0000
 30
0.0000
 40
0.1524
 41
0.1524
 70
0
  0
VERTEX
  8
51
 10
52.5272
 20
88.5444
 30
0.0000
 42
0.4091
  0
VERTEX
  8
51
 10
52.4002
 20
88.4174
 30
0.0000
  0
SEQEND
  8
0
  0
POLYLINE
  8
51
 66
1
 10
0.0000
 20
0.0000
 30
0.0000
 40
0.0762
 41
0.0762
 70
0
  0
VERTEX
  8
51
 10
52.5275
 20
88.5063
 30
0.0000
 42
1.0000
  0
VERTEX
  8
51
 10
52.5269
 20
88.5825
 30
0.0000
  0
SEQEND
  8
0
  0
POLYLINE
  8
51
 66
1
 10
0.0000
 20
0.0000
 30
0.0000
 40
0.0762
 41
0.0762
 70
0
  0
VERTEX
  8
51
 10
52.3621
 20
88.4177
 30
0.0000
 42
1.0000
  0
VERTEX
  8
51
 10
52.4383
 20
88.4171
 30
0.0000
  0
SEQEND
  8
0
  0
POLYLINE
  8
51
 66
1
 10
0.0000
 20
0.0000
 30
0.0000
 40
0.1524
 41
0.1524
 70
0
  0
VERTEX
  8
51
 10
56.3118
 20
88.4174
 30
0.0000
 42
0.4091
  0
VERTEX
  8
51
 10
56.1848
 20
88.5444
 30
0.0000
  0
SEQEND
  8
0
  0
POLYLINE
  8
51
 66
1
 10
0.0000
 20
0.0000
 30
0.0000
 40
0.0762
 41
0.0762
 70
0
  0
VERTEX
  8
51
 10
56.2737
 20
88.4171
 30
0.0000
 42
1.0000
  0
VERTEX
  8
51
 10
56.3499
 20
88.4177
 30
0.0000
  0
SEQEND
  8
0
  0
POLYLINE
  8
51
 66
1
 10
0.0000
 20
0.0000
 30
0.0000
 40
0.0762
 41
0.0762
 70
0
  0
VERTEX
  8
51
 10
56.1851
 20
88.5825
 30
0.0000
 42
1.0000
  0
VERTEX
  8
51
 10
56.1845
 20
88.5063
 30
0.0000
  0
SEQEND
  8
0
  0
POLYLINE
  8
51
 66
1
 10
0.0000
 20
0.0000
 30
0.0000
 40
0.1270
 41
0.1270
 70
0
  0
VERTEX
  8
51
 10
29.3500
 20
118.0420
 30
0.0000
  0
VERTEX
  8
51
 10
47.1300
 20
118.0420
 30
0.0000
  0
SEQEND
  8
0
  0
POLYLINE
  8
51
 66
1
 10
0.0000
 20
0.0000
 30
0.0000
 40
0.0635
 41
0.0635
 70
0
  0
VERTEX
  8
51
 10
47.1300
 20
118.0102
 30
0.0000
 42
1.0000
  0
VERTEX
  8
51
 10
47.1300
 20
118.0738
 30
0.0000
  0
SEQEND
  8
0
  0
POLYLINE
  8
51
 66
1
 10
0.0000
 20
0.0000
 30
0.0000
 40
0.0635
 41
0.0635
 70
0
  0
VERTEX
  8
51
 10
29.3500
 20
118.0738
 30
0.0000
 42
1.0000
  0
VERTEX
  8
51
 10
29.3500
 20
118.0102
 30
0.0000
  0
SEQEND
  8
0
  0
POLYLINE
  8
51
 66
1
 10
0.0000
 20
0.0000
 30
0.0000
 40
0.1270
 41
0.1270
 70
0
  0
VERTEX
  8
51
 10
47.1300
 20
118.0420
 30
0.0000
  0
VERTEX
  8
51
 10
47.1300
 20
82.4820
 30
0.0000
  0
SEQEND
  8
0
  0
POLYLINE
  8
51
 66
1
 10
0.0000
 20
0.0000
 30
0.0000
 40
0.0635
 41
0.0635
 70
0
  0
VERTEX
  8
51
 10
47.0983
 20
82.4820
 30
0.0000
 42
1.0000
  0
VERTEX
  8
51
 10
47.1618
 20
82.4820
 30
0.0000
  0
SEQEND
  8
0
  0
POLYLINE
  8
51
 66
1
 10
0.0000
 20
0.0000
 30
0.0000
 40
0.0635
 41
0.0635
 70
0
  0
VERTEX
  8
51
 10
47.1618
 20
118.0420
 30
0.0000
 42
1.0000
  0
VERTEX
  8
51
 10
47.0983
 20
118.0420
 30
0.0000
  0
SEQEND
  8
0
  0
POLYLINE
  8
51
 66
1
 10
0.0000
 20
0.0000
 30
0.0000
 40
0.1270
 41
0.1270
 70
0
  0
VERTEX
  8
51
 10
47.1300
 20
82.4820
 30
0.0000
  0
VERTEX
  8
51
 10
29.3500
 20
82.4820
 30
0.0000
  0
SEQEND
  8
0
  0
POLYLINE
  8
51
 66
1
 10
0.0000
 20
0.0000
 30
0.0000
 40
0.0635
 41
0.0635
 70
0
  0
VERTEX
  8
51
 10
29.3500
 20
82.5138
 30
0.0000
 42
1.0000
  0
VERTEX
  8
51
 10
29.3500
 20
82.4502
 30
0.0000
  0
SEQEND
  8
0
  0
POLYLINE
  8
51
 66
1
 10
0.0000
 20
0.0000
 30
0.0000
 40
0.0635
 41
0.0635
 70
0
  0
VERTEX
  8
51
 10
47.1300
 20
82.4502
 30
0.0000
 42
1.0000
  0
VERTEX
  8
51
 10
47.1300
 20
82.5138
 30
0.0000
  0
SEQEND
  8
0
  0
POLYLINE
  8
51
 66
1
 10
0.0000
 20
0.0000
 30
0.0000
 40
0.1270
 41
0.1270
 70
0
  0
VERTEX
  8
51
 10
29.3500
 20
82.4820
 30
0.0000
  0
VERTEX
  8
51
 10
29.3500
 20
118.0420
 30
0.0000
  0
SEQEND
  8
0
  0
POLYLINE
  8
51
 66
1
 10
0.0000
 20
0.0000
 30
0.0000
 40
0.0635
 41
0.0635
 70
0
  0
VERTEX
  8
51
 10
29.3818
 20
118.0420
 30
0.0000
 42
1.0000
  0
VERTEX
  8
51
 10
29.3183
 20
118.0420
 30
0.0000
  0
SEQEND
  8
0
  0
POLYLINE
  8
51
 66
1
 10
0.0000
 20
0.0000
 30
0.0000
 40
0.0635
 41
0.0635
 70
0
  0
VERTEX
  8
51
 10
29.3183
 20
82.4820
 30
0.0000
 42
1.0000
  0
VERTEX
  8
51
 10
29.3818
 20
82.4820
 30
0.0000
  0
SEQEND
  8
0
  0
POLYLINE
  8
51
 66
1
 10
0.0000
 20
0.0000
 30
0.0000
 40
0.2032
 41
0.2032
 70
0
  0
VERTEX
  8
51
 10
4.8986
 20
94.8499
 30
0.0000
  0
VERTEX
  8
51
 10
4.8986
 20
95.2612
 30
0.0000
  0
SEQEND
  8
0
  0
POLYLINE
  8
51
 66
1
 10
0.0000
 20
0.0000
 30
0.0000
 40
0.1016
 41
0.1016
 70
0
  0
VERTEX
  8
51
 10
4.9494
 20
95.2612
 30
0.0000
 42
1.0000
  0
VERTEX
  8
51
 10
4.8478
 20
95.2612
 30
0.0000
  0
SEQEND
  8
0
  0
POLYLINE
  8
51
 66
1
 10
0.0000
 20
0.0000
 30
0.0000
 40
0.1016
 41
0.1016
 70
0
  0
VERTEX
  8
51
 10
4.8478
 20
94.8499
 30
0.0000
 42
1.0000
  0
VERTEX
  8
51
 10
4.9494
 20
94.8499
 30
0.0000
  0
SEQEND
  8
0
  0
POLYLINE
  8
51
 66
1
 10
0.0000
 20
0.0000
 30
0.0000
 40
0.2032
 41
0.2032
 70
0
  0
VERTEX
  8
51
 10
4.8986
 20
95.2612
 30
0.0000
  0
VERTEX
  8
51
 10
5.3558
 20
95.7184
 30
0.0000
  0
SEQEND
  8
0
  0
POLYLINE
  8
51
 66
1
 10
0.0000
 20
0.0000
 30
0.0000
 40
0.1016
 41
0.1016
 70
0
  0
VERTEX
  8
51
 10
5.3917
 20
95.6825
 30
0.0000
 42
1.0000
  0
VERTEX
  8
51
 10
5.3199
 20
95.7543
 30
0.0000
  0
SEQEND
  8
0
  0
POLYLINE
  8
51
 66
1
 10
0.0000
 20
0.0000
 30
0.0000
 40
0.1016
 41
0.1016
 70
0
  0
VERTEX
  8
51
 10
4.8627
 20
95.2971
 30
0.0000
 42
1.0000
  0
VERTEX
  8
51
 10
4.9345
 20
95.2253
 30
0.0000
  0
SEQEND
  8
0
  0
POLYLINE
  8
51
 66
1
 10
0.0000
 20
0.0000
 30
0.0000
 40
0.2032
 41
0.2032
 70
0
  0
VERTEX
  8
51
 10
5.3558
 20
95.7184
 30
0.0000
  0
VERTEX
  8
51
 10
9.5722
 20
95.7184
 30
0.0000
  0
SEQEND
  8
0
  0
POLYLINE
  8
51
 66
1
 10
0.0000
 20
0.0000
 30
0.0000
 40
0.1016
 41
0.1016
 70
0
  0
VERTEX
  8
51
 10
9.5722
 20
95.6676
 30
0.0000
 42
1.0000
  0
VERTEX
  8
51
 10
9.5722
 20
95.7692
 30
0.0000
  0
SEQEND
  8
0
  0
POLYLINE
  8
51
 66
1
 10
0.0000
 20
0.0000
 30
0.0000
 40
0.1016
 41
0.1016
 70
0
  0
VERTEX
  8
51
 10
5.3558
 20
95.7692
 30
0.0000
 42
1.0000
  0
VERTEX
  8
51
 10
5.3558
 20
95.6676
 30
0.0000
  0
SEQEND
  8
0
  0
POLYLINE
  8
51
 66
1
 10
0.0000
 20
0.0000
 30
0.0000
 40
0.2032
 41
0.2032
 70
0
  0
VERTEX
  8
51
 10
9.5722
 20
95.7184
 30
0.0000
  0
VERTEX
  8
51
 10
10.0294
 20
95.2612
 30
0.0000
  0
SEQEND
  8
0
  0
POLYLINE
  8
51
 66
1
 10
0.0000
 20
0.0000
 30
0.0000
 40
0.1016
 41
0.1016
 70
0
  0
VERTEX
  8
51
 10
9.9935
 20
95.2253
 30
0.0000
 42
1.0000
  0
VERTEX
  8
51
 10
10.0653
 20
95.2971
 30
0.0000
  0
SEQEND
  8
0
  0
POLYLINE
  8
51
 66
1
 10
0.0000
 20
0.0000
 30
0.0000
 40
0.1016
 41
0.1016
 70
0
  0
VERTEX
  8
51
 10
9.6081
 20
95.7543
 30
0.0000
 42
1.0000
  0
VERTEX
  8
51
 10
9.5363
 20
95.6825
 30
0.0000
  0
SEQEND
  8
0
  0
POLYLINE
  8
51
 66
1
 10
0.0000
 20
0.0000
 30
0.0000
 40
0.2032
 41
0.2032
 70
0
  0
VERTEX
  8
51
 10
10.0294
 20
95.2612
 30
0.0000
  0
VERTEX
  8
51
 10
10.0294
 20
94.8499
 30
0.0000
  0
SEQEND
  8
0
  0
POLYLINE
  8
51
 66
1
 10
0.0000
 20
0.0000
 30
0.0000
 40
0.1016
 41
0.1016
 70
0
  0
VERTEX
  8
51
 10
9.9786
 20
94.8499
 30
0.0000
 42
1.0000
  0
VERTEX
  8
51
 10
10.0802
 20
94.8499
 30
0.0000
  0
SEQEND
  8
0
  0
POLYLINE
  8
51
 66
1
 10
0.0000
 20
0.0000
 30
0.0000
 40
0.1016
 41
0.1016
 70
0
  0
VERTEX
  8
51
 10
10.0802
 20
95.2612
 30
0.0000
 42
1.0000
  0
VERTEX
  8
51
 10
9.9786
 20
95.2612
 30
0.0000
  0
SEQEND
  8
0
  0
POLYLINE
  8
51
 66
1
 10
0.0000
 20
0.0000
 30
0.0000
 40
0.2032
 41
0.2032
 70
0
  0
VERTEX
  8
51
 10
10.0294
 20
94.8499
 30
0.0000
  0
VERTEX
  8
51
 10
4.8986
 20
94.8499
 30
0.0000
  0
SEQEND
  8
0
  0
POLYLINE
  8
51
 66
1
 10
0.0000
 20
0.0000
 30
0.0000
 40
0.1016
 41
0.1016
 70
0
  0
VERTEX
  8
51
 10
4.8986
 20
94.9007
 30
0.0000
 42
1.0000
  0
VERTEX
  8
51
 10
4.8986
 20
94.7991
 30
0.0000
  0
SEQEND
  8
0
  0
POLYLINE
  8
51
 66
1
 10
0.0000
 20
0.0000
 30
0.0000
 40
0.1016
 41
0.1016
 70
0
  0
VERTEX
  8
51
 10
10.0294
 20
94.7991
 30
0.0000
 42
1.0000
  0
VERTEX
  8
51
 10
10.0294
 20
94.9007
 30
0.0000
  0
SEQEND
  8
0
  0
POLYLINE
  8
51
 66
1
 10
0.0000
 20
0.0000
 30
0.0000
 40
0.2032
 41
0.2032
 70
0
  0
VERTEX
  8
51
 10
4.8986
 20
94.8944
 30
0.0000
  0
VERTEX
  8
51
 10
10.0294
 20
94.8944
 30
0.0000
  0
SEQEND
  8
0
  0
POLYLINE
  8
51
 66
1
 10
0.0000
 20
0.0000
 30
0.0000
 40
0.1016
 41
0.1016
 70
0
  0
VERTEX
  8
51
 10
10.0294
 20
94.8436
 30
0.0000
 42
1.0000
  0
VERTEX
  8
51
 10
10.0294
 20
94.9452
 30
0.0000
  0
SEQEND
  8
0
  0
POLYLINE
  8
51
 66
1
 10
0.0000
 20
0.0000
 30
0.0000
 40
0.1016
 41
0.1016
 70
0
  0
VERTEX
  8
51
 10
4.8986
 20
94.9452
 30
0.0000
 42
1.0000
  0
VERTEX
  8
51
 10
4.8986
 20
94.8436
 30
0.0000
  0
SEQEND
  8
0
  0
POLYLINE
  8
51
 66
1
 10
0.0000
 20
0.0000
 30
0.0000
 40
0.2032
 41
0.2032
 70
0
  0
VERTEX
  8
51
 10
4.8986
 20
95.0976
 30
0.0000
  0
VERTEX
  8
51
 10
10.0294
 20
95.0976
 30
0.0000
  0
SEQEND
  8
0
  0
POLYLINE
  8
51
 66
1
 10
0.0000
 20
0.0000
 30
0.0000
 40
0.1016
 41
0.1016
 70
0
  0
VERTEX
  8
51
 10
10.0294
 20
95.0468
 30
0.0000
 42
1.0000
  0
VERTEX
  8
51
 10
10.0294
 20
95.1484
 30
0.0000
  0
SEQEND
  8
0
  0
POLYLINE
  8
51
 66
1
 10
0.0000
 20
0.0000
 30
0.0000
 40
0.1016
 41
0.1016
 70
0
  0
VERTEX
  8
51
 10
4.8986
 20
95.1484
 30
0.0000
 42
1.0000
  0
VERTEX
  8
51
 10
4.8986
 20
95.0468
 30
0.0000
  0
SEQEND
  8
0
  0
POLYLINE
  8
51
 66
1
 10
0.0000
 20
0.0000
 30
0.0000
 40
0.2032
 41
0.2032
 70
0
  0
VERTEX
  8
51
 10
4.9382
 20
95.3008
 30
0.0000
  0
VERTEX
  8
51
 10
9.9898
 20
95.3008
 30
0.0000
  0
SEQEND
  8
0
  0
POLYLINE
  8
51
 66
1
 10
0.0000
 20
0.0000
 30
0.0000
 40
0.1016
 41
0.1016
 70
0
  0
VERTEX
  8
51
 10
9.9898
 20
95.2500
 30
0.0000
 42
1.0000
  0
VERTEX
  8
51
 10
9.9898
 20
95.3516
 30
0.0000
  0
SEQEND
  8
0
  0
POLYLINE
  8
51
 66
1
 10
0.0000
 20
0.0000
 30
0.0000
 40
0.1016
 41
0.1016
 70
0
  0
VERTEX
  8
51
 10
4.9382
 20
95.3516
 30
0.0000
 42
1.0000
  0
VERTEX
  8
51
 10
4.9382
 20
95.2500
 30
0.0000
  0
SEQEND
  8
0
  0
POLYLINE
  8
51
 66
1
 10
0.0000
 20
0.0000
 30
0.0000
 40
0.2032
 41
0.2032
 70
0
  0
VERTEX
  8
51
 10
5.1414
 20
95.5040
 30
0.0000
  0
VERTEX
  8
51
 10
9.7866
 20
95.5040
 30
0.0000
  0
SEQEND
  8
0
  0
POLYLINE
  8
51
 66
1
 10
0.0000
 20
0.0000
 30
0.0000
 40
0.1016
 41
0.1016
 70
0
  0
VERTEX
  8
51
 10
9.7866
 20
95.4532
 30
0.0000
 42
1.0000
  0
VERTEX
  8
51
 10
9.7866
 20
95.5548
 30
0.0000
  0
SEQEND
  8
0
  0
POLYLINE
  8
51
 66
1
 10
0.0000
 20
0.0000
 30
0.0000
 40
0.1016
 41
0.1016
 70
0
  0
VERTEX
  8
51
 10
5.1414
 20
95.5548
 30
0.0000
 42
1.0000
  0
VERTEX
  8
51
 10
5.1414
 20
95.4532
 30
0.0000
  0
SEQEND
  8
0
  0
POLYLINE
  8
51
 66
1
 10
0.0000
 20
0.0000
 30
0.0000
 40
0.2032
 41
0.2032
 70
0
  0
VERTEX
  8
51
 10
5.3446
 20
95.7072
 30
0.0000
  0
VERTEX
  8
51
 10
9.5834
 20
95.7072
 30
0.0000
  0
SEQEND
  8
0
  0
POLYLINE
  8
51
 66
1
 10
0.0000
 20
0.0000
 30
0.0000
 40
0.1016
 41
0.1016
 70
0
  0
VERTEX
  8
51
 10
9.5834
 20
95.6564
 30
0.0000
 42
1.0000
  0
VERTEX
  8
51
 10
9.5834
 20
95.7580
 30
0.0000
  0
SEQEND
  8
0
  0
POLYLINE
  8
51
 66
1
 10
0.0000
 20
0.0000
 30
0.0000
 40
0.1016
 41
0.1016
 70
0
  0
VERTEX
  8
51
 10
5.3446
 20
95.7580
 30
0.0000
 42
1.0000
  0
VERTEX
  8
51
 10
5.3446
 20
95.6564
 30
0.0000
  0
SEQEND
  8
0
  0
POLYLINE
  8
51
 66
1
 10
0.0000
 20
0.0000
 30
0.0000
 40
0.2032
 41
0.2032
 70
0
  0
VERTEX
  8
51
 10
2.5470
 20
94.7480
 30
0.0000
  0
VERTEX
  8
51
 10
12.3810
 20
94.7480
 30
0.0000
  0
SEQEND
  8
0
  0
POLYLINE
  8
51
 66
1
 10
0.0000
 20
0.0000
 30
0.0000
 40
0.1016
 41
0.1016
 70
0
  0
VERTEX
  8
51
 10
12.3810
 20
94.6972
 30
0.0000
 42
1.0000
  0
VERTEX
  8
51
 10
12.3810
 20
94.7988
 30
0.0000
  0
SEQEND
  8
0
  0
POLYLINE
  8
51
 66
1
 10
0.0000
 20
0.0000
 30
0.0000
 40
0.1016
 41
0.1016
 70
0
  0
VERTEX
  8
51
 10
2.5470
 20
94.7988
 30
0.0000
 42
1.0000
  0
VERTEX
  8
51
 10
2.5470
 20
94.6972
 30
0.0000
  0
SEQEND
  8
0
  0
POLYLINE
  8
51
 66
1
 10
0.0000
 20
0.0000
 30
0.0000
 40
0.2032
 41
0.2032
 70
0
  0
VERTEX
  8
51
 10
4.8990
 20
94.8500
 30
0.0000
  0
VERTEX
  8
51
 10
4.8990
 20
95.2610
 30
0.0000
  0
SEQEND
  8
0
  0
POLYLINE
  8
51
 66
1
 10
0.0000
 20
0.0000
 30
0.0000
 40
0.1016
 41
0.1016
 70
0
  0
VERTEX
  8
51
 10
4.9498
 20
95.2610
 30
0.0000
 42
1.0000
  0
VERTEX
  8
51
 10
4.8482
 20
95.2610
 30
0.0000
  0
SEQEND
  8
0
  0
POLYLINE
  8
51
 66
1
 10
0.0000
 20
0.0000
 30
0.0000
 40
0.1016
 41
0.1016
 70
0
  0
VERTEX
  8
51
 10
4.8482
 20
94.8500
 30
0.0000
 42
1.0000
  0
VERTEX
  8
51
 10
4.9498
 20
94.8500
 30
0.0000
  0
SEQEND
  8
0
  0
POLYLINE
  8
51
 66
1
 10
0.0000
 20
0.0000
 30
0.0000
 40
0.2032
 41
0.2032
 70
0
  0
VERTEX
  8
51
 10
4.8990
 20
95.2610
 30
0.0000
  0
VERTEX
  8
51
 10
5.3560
 20
95.7180
 30
0.0000
  0
SEQEND
  8
0
  0
POLYLINE
  8
51
 66
1
 10
0.0000
 20
0.0000
 30
0.0000
 40
0.1016
 41
0.1016
 70
0
  0
VERTEX
  8
51
 10
5.3919
 20
95.6821
 30
0.0000
 42
1.0000
  0
VERTEX
  8
51
 10
5.3201
 20
95.7539
 30
0.0000
  0
SEQEND
  8
0
  0
POLYLINE
  8
51
 66
1
 10
0.0000
 20
0.0000
 30
0.0000
 40
0.1016
 41
0.1016
 70
0
  0
VERTEX
  8
51
 10
4.8631
 20
95.2969
 30
0.0000
 42
1.0000
  0
VERTEX
  8
51
 10
4.9349
 20
95.2251
 30
0.0000
  0
SEQEND
  8
0
  0
POLYLINE
  8
51
 66
1
 10
0.0000
 20
0.0000
 30
0.0000
 40
0.2032
 41
0.2032
 70
0
  0
VERTEX
  8
51
 10
5.3560
 20
95.7180
 30
0.0000
  0
VERTEX
  8
51
 10
9.5720
 20
95.7180
 30
0.0000
  0
SEQEND
  8
0
  0
POLYLINE
  8
51
 66
1
 10
0.0000
 20
0.0000
 30
0.0000
 40
0.1016
 41
0.1016
 70
0
  0
VERTEX
  8
51
 10
9.5720
 20
95.6672
 30
0.0000
 42
1.0000
  0
VERTEX
  8
51
 10
9.5720
 20
95.7688
 30
0.0000
  0
SEQEND
  8
0
  0
POLYLINE
  8
51
 66
1
 10
0.0000
 20
0.0000
 30
0.0000
 40
0.1016
 41
0.1016
 70
0
  0
VERTEX
  8
51
 10
5.3560
 20
95.7688
 30
0.0000
 42
1.0000
  0
VERTEX
  8
51
 10
5.3560
 20
95.6672
 30
0.0000
  0
SEQEND
  8
0
  0
POLYLINE
  8
51
 66
1
 10
0.0000
 20
0.0000
 30
0.0000
 40
0.2032
 41
0.2032
 70
0
  0
VERTEX
  8
51
 10
9.5720
 20
95.7180
 30
0.0000
  0
VERTEX
  8
51
 10
10.0290
 20
95.2610
 30
0.0000
  0
SEQEND
  8
0
  0
POLYLINE
  8
51
 66
1
 10
0.0000
 20
0.0000
 30
0.0000
 40
0.1016
 41
0.1016
 70
0
  0
VERTEX
  8
51
 10
9.9931
 20
95.2251
 30
0.0000
 42
1.0000
  0
VERTEX
  8
51
 10
10.0649
 20
95.2969
 30
0.0000
  0
SEQEND
  8
0
  0
POLYLINE
  8
51
 66
1
 10
0.0000
 20
0.0000
 30
0.0000
 40
0.1016
 41
0.1016
 70
0
  0
VERTEX
  8
51
 10
9.6079
 20
95.7539
 30
0.0000
 42
1.0000
  0
VERTEX
  8
51
 10
9.5361
 20
95.6821
 30
0.0000
  0
SEQEND
  8
0
  0
POLYLINE
  8
51
 66
1
 10
0.0000
 20
0.0000
 30
0.0000
 40
0.2032
 41
0.2032
 70
0
  0
VERTEX
  8
51
 10
10.0290
 20
95.2610
 30
0.0000
  0
VERTEX
  8
51
 10
10.0290
 20
94.8500
 30
0.0000
  0
SEQEND
  8
0
  0
POLYLINE
  8
51
 66
1
 10
0.0000
 20
0.0000
 30
0.0000
 40
0.1016
 41
0.1016
 70
0
  0
VERTEX
  8
51
 10
9.9782
 20
94.8500
 30
0.0000
 42
1.0000
  0
VERTEX
  8
51
 10
10.0798
 20
94.8500
 30
0.0000
  0
SEQEND
  8
0
  0
POLYLINE
  8
51
 66
1
 10
0.0000
 20
0.0000
 30
0.0000
 40
0.1016
 41
0.1016
 70
0
  0
VERTEX
  8
51
 10
10.0798
 20
95.2610
 30
0.0000
 42
1.0000
  0
VERTEX
  8
51
 10
9.9782
 20
95.2610
 30
0.0000
  0
SEQEND
  8
0
  0
POLYLINE
  8
51
 66
1
 10
0.0000
 20
0.0000
 30
0.0000
 40
0.2032
 41
0.2032
 70
0
  0
VERTEX
  8
51
 10
10.0290
 20
94.8500
 30
0.0000
  0
VERTEX
  8
51
 10
4.8990
 20
94.8500
 30
0.0000
  0
SEQEND
  8
0
  0
POLYLINE
  8
51
 66
1
 10
0.0000
 20
0.0000
 30
0.0000
 40
0.1016
 41
0.1016
 70
0
  0
VERTEX
  8
51
 10
4.8990
 20
94.9008
 30
0.0000
 42
1.0000
  0
VERTEX
  8
51
 10
4.8990
 20
94.7992
 30
0.0000
  0
SEQEND
  8
0
  0
POLYLINE
  8
51
 66
1
 10
0.0000
 20
0.0000
 30
0.0000
 40
0.1016
 41
0.1016
 70
0
  0
VERTEX
  8
51
 10
10.0290
 20
94.7992
 30
0.0000
 42
1.0000
  0
VERTEX
  8
51
 10
10.0290
 20
94.9008
 30
0.0000
  0
SEQEND
  8
0
  0
INSERT
  8
51
  2
RECT
 10
4.9139
 20
81.4830
 30
0.0000
 41
0.8999
 42
2.8001
 43
1.0000
 50
0.0000
  0
INSERT
  8
51
  2
RECT
 10
10.0141
 20
81.4830
 30
0.0000
 41
0.8999
 42
2.8001
 43
1.0000
 50
0.0000
  0
POLYLINE
  8
51
 66
1
 10
0.0000
 20
0.0000
 30
0.0000
 40
0.1524
 41
0.1524
 70
0
  0
VERTEX
  8
51
 10
35.7632
 20
58.2676
 30
0.0000
  0
VERTEX
  8
51
 10
39.4208
 20
58.2676
 30
0.0000
  0
SEQEND
  8
0
  0
POLYLINE
  8
51
 66
1
 10
0.0000
 20
0.0000
 30
0.0000
 40
0.0762
 41
0.0762
 70
0
  0
VERTEX
  8
51
 10
39.4208
 20
58.2295
 30
0.0000
 42
1.0000
  0
VERTEX
  8
51
 10
39.4208
 20
58.3057
 30
0.0000
  0
SEQEND
  8
0
  0
POLYLINE
  8
51
 66
1
 10
0.0000
 20
0.0000
 30
0.0000
 40
0.0762
 41
0.0762
 70
0
  0
VERTEX
  8
51
 10
35.7632
 20
58.3057
 30
0.0000
 42
1.0000
  0
VERTEX
  8
51
 10
35.7632
 20
58.2295
 30
0.0000
  0
SEQEND
  8
0
  0
POLYLINE
  8
51
 66
1
 10
0.0000
 20
0.0000
 30
0.0000
 40
0.1524
 41
0.1524
 70
0
  0
VERTEX
  8
51
 10
35.7632
 20
63.1444
 30
0.0000
  0
VERTEX
  8
51
 10
39.4208
 20
63.1444
 30
0.0000
  0
SEQEND
  8
0
  0
POLYLINE
  8
51
 66
1
 10
0.0000
 20
0.0000
 30
0.0000
 40
0.0762
 41
0.0762
 70
0
  0
VERTEX
  8
51
 10
39.4208
 20
63.1063
 30
0.0000
 42
1.0000
  0
VERTEX
  8
51
 10
39.4208
 20
63.1825
 30
0.0000
  0
SEQEND
  8
0
  0
POLYLINE
  8
51
 66
1
 10
0.0000
 20
0.0000
 30
0.0000
 40
0.0762
 41
0.0762
 70
0
  0
VERTEX
  8
51
 10
35.7632
 20
63.1825
 30
0.0000
 42
1.0000
  0
VERTEX
  8
51
 10
35.7632
 20
63.1063
 30
0.0000
  0
SEQEND
  8
0
  0
POLYLINE
  8
51
 66
1
 10
0.0000
 20
0.0000
 30
0.0000
 40
0.1524
 41
0.1524
 70
0
  0
VERTEX
  8
51
 10
39.5478
 20
58.3946
 30
0.0000
  0
VERTEX
  8
51
 10
39.5478
 20
58.6232
 30
0.0000
  0
SEQEND
  8
0
  0
POLYLINE
  8
51
 66
1
 10
0.0000
 20
0.0000
 30
0.0000
 40
0.0762
 41
0.0762
 70
0
  0
VERTEX
  8
51
 10
39.5859
 20
58.6232
 30
0.0000
 42
1.0000
  0
VERTEX
  8
51
 10
39.5097
 20
58.6232
 30
0.0000
  0
SEQEND
  8
0
  0
POLYLINE
  8
51
 66
1
 10
0.0000
 20
0.0000
 30
0.0000
 40
0.0762
 41
0.0762
 70
0
  0
VERTEX
  8
51
 10
39.5097
 20
58.3946
 30
0.0000
 42
1.0000
  0
VERTEX
  8
51
 10
39.5859
 20
58.3946
 30
0.0000
  0
SEQEND
  8
0
  0
POLYLINE
  8
51
 66
1
 10
0.0000
 20
0.0000
 30
0.0000
 40
0.1524
 41
0.1524
 70
0
  0
VERTEX
  8
51
 10
39.5478
 20
58.9788
 30
0.0000
  0
VERTEX
  8
51
 10
39.5478
 20
59.8932
 30
0.0000
  0
SEQEND
  8
0
  0
POLYLINE
  8
51
 66
1
 10
0.0000
 20
0.0000
 30
0.0000
 40
0.0762
 41
0.0762
 70
0
  0
VERTEX
  8
51
 10
39.5859
 20
59.8932
 30
0.0000
 42
1.0000
  0
VERTEX
  8
51
 10
39.5097
 20
59.8932
 30
0.0000
  0
SEQEND
  8
0
  0
POLYLINE
  8
51
 66
1
 10
0.0000
 20
0.0000
 30
0.0000
 40
0.0762
 41
0.0762
 70
0
  0
VERTEX
  8
51
 10
39.5097
 20
58.9788
 30
0.0000
 42
1.0000
  0
VERTEX
  8
51
 10
39.5859
 20
58.9788
 30
0.0000
  0
SEQEND
  8
0
  0
POLYLINE
  8
51
 66
1
 10
0.0000
 20
0.0000
 30
0.0000
 40
0.1524
 41
0.1524
 70
0
  0
VERTEX
  8
51
 10
39.5478
 20
60.2488
 30
0.0000
  0
VERTEX
  8
51
 10
39.5478
 20
61.1632
 30
0.0000
  0
SEQEND
  8
0
  0
POLYLINE
  8
51
 66
1
 10
0.0000
 20
0.0000
 30
0.0000
 40
0.0762
 41
0.0762
 70
0
  0
VERTEX
  8
51
 10
39.5859
 20
61.1632
 30
0.0000
 42
1.0000
  0
VERTEX
  8
51
 10
39.5097
 20
61.1632
 30
0.0000
  0
SEQEND
  8
0
  0
POLYLINE
  8
51
 66
1
 10
0.0000
 20
0.0000
 30
0.0000
 40
0.0762
 41
0.0762
 70
0
  0
VERTEX
  8
51
 10
39.5097
 20
60.2488
 30
0.0000
 42
1.0000
  0
VERTEX
  8
51
 10
39.5859
 20
60.2488
 30
0.0000
  0
SEQEND
  8
0
  0
POLYLINE
  8
51
 66
1
 10
0.0000
 20
0.0000
 30
0.0000
 40
0.1524
 41
0.1524
 70
0
  0
VERTEX
  8
51
 10
39.5478
 20
61.5188
 30
0.0000
  0
VERTEX
  8
51
 10
39.5478
 20
62.4332
 30
0.0000
  0
SEQEND
  8
0
  0
POLYLINE
  8
51
 66
1
 10
0.0000
 20
0.0000
 30
0.0000
 40
0.0762
 41
0.0762
 70
0
  0
VERTEX
  8
51
 10
39.5859
 20
62.4332
 30
0.0000
 42
1.0000
  0
VERTEX
  8
51
 10
39.5097
 20
62.4332
 30
0.0000
  0
SEQEND
  8
0
  0
POLYLINE
  8
51
 66
1
 10
0.0000
 20
0.0000
 30
0.0000
 40
0.0762
 41
0.0762
 70
0
  0
VERTEX
  8
51
 10
39.5097
 20
61.5188
 30
0.0000
 42
1.0000
  0
VERTEX
  8
51
 10
39.5859
 20
61.5188
 30
0.0000
  0
SEQEND
  8
0
  0
POLYLINE
  8
51
 66
1
 10
0.0000
 20
0.0000
 30
0.0000
 40
0.1524
 41
0.1524
 70
0
  0
VERTEX
  8
51
 10
39.5478
 20
62.7888
 30
0.0000
  0
VERTEX
  8
51
 10
39.5478
 20
63.0174
 30
0.0000
  0
SEQEND
  8
0
  0
POLYLINE
  8
51
 66
1
 10
0.0000
 20
0.0000
 30
0.0000
 40
0.0762
 41
0.0762
 70
0
  0
VERTEX
  8
51
 10
39.5859
 20
63.0174
 30
0.0000
 42
1.0000
  0
VERTEX
  8
51
 10
39.5097
 20
63.0174
 30
0.0000
  0
SEQEND
  8
0
  0
POLYLINE
  8
51
 66
1
 10
0.0000
 20
0.0000
 30
0.0000
 40
0.0762
 41
0.0762
 70
0
  0
VERTEX
  8
51
 10
39.5097
 20
62.7888
 30
0.0000
 42
1.0000
  0
VERTEX
  8
51
 10
39.5859
 20
62.7888
 30
0.0000
  0
SEQEND
  8
0
  0
POLYLINE
  8
51
 66
1
 10
0.0000
 20
0.0000
 30
0.0000
 40
0.1524
 41
0.1524
 70
0
  0
VERTEX
  8
51
 10
35.6362
 20
58.3946
 30
0.0000
  0
VERTEX
  8
51
 10
35.6362
 20
58.6232
 30
0.0000
  0
SEQEND
  8
0
  0
POLYLINE
  8
51
 66
1
 10
0.0000
 20
0.0000
 30
0.0000
 40
0.0762
 41
0.0762
 70
0
  0
VERTEX
  8
51
 10
35.6743
 20
58.6232
 30
0.0000
 42
1.0000
  0
VERTEX
  8
51
 10
35.5981
 20
58.6232
 30
0.0000
  0
SEQEND
  8
0
  0
POLYLINE
  8
51
 66
1
 10
0.0000
 20
0.0000
 30
0.0000
 40
0.0762
 41
0.0762
 70
0
  0
VERTEX
  8
51
 10
35.5981
 20
58.3946
 30
0.0000
 42
1.0000
  0
VERTEX
  8
51
 10
35.6743
 20
58.3946
 30
0.0000
  0
SEQEND
  8
0
  0
POLYLINE
  8
51
 66
1
 10
0.0000
 20
0.0000
 30
0.0000
 40
0.1524
 41
0.1524
 70
0
  0
VERTEX
  8
51
 10
35.6362
 20
58.9788
 30
0.0000
  0
VERTEX
  8
51
 10
35.6362
 20
59.8932
 30
0.0000
  0
SEQEND
  8
0
  0
POLYLINE
  8
51
 66
1
 10
0.0000
 20
0.0000
 30
0.0000
 40
0.0762
 41
0.0762
 70
0
  0
VERTEX
  8
51
 10
35.6743
 20
59.8932
 30
0.0000
 42
1.0000
  0
VERTEX
  8
51
 10
35.5981
 20
59.8932
 30
0.0000
  0
SEQEND
  8
0
  0
POLYLINE
  8
51
 66
1
 10
0.0000
 20
0.0000
 30
0.0000
 40
0.0762
 41
0.0762
 70
0
  0
VERTEX
  8
51
 10
35.5981
 20
58.9788
 30
0.0000
 42
1.0000
  0
VERTEX
  8
51
 10
35.6743
 20
58.9788
 30
0.0000
  0
SEQEND
  8
0
  0
POLYLINE
  8
51
 66
1
 10
0.0000
 20
0.0000
 30
0.0000
 40
0.1524
 41
0.1524
 70
0
  0
VERTEX
  8
51
 10
35.6362
 20
60.2488
 30
0.0000
  0
VERTEX
  8
51
 10
35.6362
 20
61.1632
 30
0.0000
  0
SEQEND
  8
0
  0
POLYLINE
  8
51
 66
1
 10
0.0000
 20
0.0000
 30
0.0000
 40
0.0762
 41
0.0762
 70
0
  0
VERTEX
  8
51
 10
35.6743
 20
61.1632
 30
0.0000
 42
1.0000
  0
VERTEX
  8
51
 10
35.5981
 20
61.1632
 30
0.0000
  0
SEQEND
  8
0
  0
POLYLINE
  8
51
 66
1
 10
0.0000
 20
0.0000
 30
0.0000
 40
0.0762
 41
0.0762
 70
0
  0
VERTEX
  8
51
 10
35.5981
 20
60.2488
 30
0.0000
 42
1.0000
  0
VERTEX
  8
51
 10
35.6743
 20
60.2488
 30
0.0000
  0
SEQEND
  8
0
  0
POLYLINE
  8
51
 66
1
 10
0.0000
 20
0.0000
 30
0.0000
 40
0.1524
 41
0.1524
 70
0
  0
VERTEX
  8
51
 10
35.6362
 20
61.5188
 30
0.0000
  0
VERTEX
  8
51
 10
35.6362
 20
62.4332
 30
0.0000
  0
SEQEND
  8
0
  0
POLYLINE
  8
51
 66
1
 10
0.0000
 20
0.0000
 30
0.0000
 40
0.0762
 41
0.0762
 70
0
  0
VERTEX
  8
51
 10
35.6743
 20
62.4332
 30
0.0000
 42
1.0000
  0
VERTEX
  8
51
 10
35.5981
 20
62.4332
 30
0.0000
  0
SEQEND
  8
0
  0
POLYLINE
  8
51
 66
1
 10
0.0000
 20
0.0000
 30
0.0000
 40
0.0762
 41
0.0762
 70
0
  0
VERTEX
  8
51
 10
35.5981
 20
61.5188
 30
0.0000
 42
1.0000
  0
VERTEX
  8
51
 10
35.6743
 20
61.5188
 30
0.0000
  0
SEQEND
  8
0
  0
POLYLINE
  8
51
 66
1
 10
0.0000
 20
0.0000
 30
0.0000
 40
0.1524
 41
0.1524
 70
0
  0
VERTEX
  8
51
 10
35.6362
 20
62.7888
 30
0.0000
  0
VERTEX
  8
51
 10
35.6362
 20
63.0174
 30
0.0000
  0
SEQEND
  8
0
  0
POLYLINE
  8
51
 66
1
 10
0.0000
 20
0.0000
 30
0.0000
 40
0.0762
 41
0.0762
 70
0
  0
VERTEX
  8
51
 10
35.6743
 20
63.0174
 30
0.0000
 42
1.0000
  0
VERTEX
  8
51
 10
35.5981
 20
63.0174
 30
0.0000
  0
SEQEND
  8
0
  0
POLYLINE
  8
51
 66
1
 10
0.0000
 20
0.0000
 30
0.0000
 40
0.0762
 41
0.0762
 70
0
  0
VERTEX
  8
51
 10
35.5981
 20
62.7888
 30
0.0000
 42
1.0000
  0
VERTEX
  8
51
 10
35.6743
 20
62.7888
 30
0.0000
  0
SEQEND
  8
0
  0
POLYLINE
  8
51
 66
1
 10
0.0000
 20
0.0000
 30
0.0000
 40
0.1524
 41
0.1524
 70
0
  0
VERTEX
  8
51
 10
34.5948
 20
58.6232
 30
0.0000
  0
VERTEX
  8
51
 10
34.5948
 20
58.9788
 30
0.0000
  0
SEQEND
  8
0
  0
POLYLINE
  8
51
 66
1
 10
0.0000
 20
0.0000
 30
0.0000
 40
0.0762
 41
0.0762
 70
0
  0
VERTEX
  8
51
 10
34.6329
 20
58.9788
 30
0.0000
 42
1.0000
  0
VERTEX
  8
51
 10
34.5567
 20
58.9788
 30
0.0000
  0
SEQEND
  8
0
  0
POLYLINE
  8
51
 66
1
 10
0.0000
 20
0.0000
 30
0.0000
 40
0.0762
 41
0.0762
 70
0
  0
VERTEX
  8
51
 10
34.5567
 20
58.6232
 30
0.0000
 42
1.0000
  0
VERTEX
  8
51
 10
34.6329
 20
58.6232
 30
0.0000
  0
SEQEND
  8
0
  0
POLYLINE
  8
51
 66
1
 10
0.0000
 20
0.0000
 30
0.0000
 40
0.1524
 41
0.1524
 70
0
  0
VERTEX
  8
51
 10
34.5948
 20
58.6232
 30
0.0000
  0
VERTEX
  8
51
 10
35.2044
 20
58.6232
 30
0.0000
  0
SEQEND
  8
0
  0
POLYLINE
  8
51
 66
1
 10
0.0000
 20
0.0000
 30
0.0000
 40
0.0762
 41
0.0762
 70
0
  0
VERTEX
  8
51
 10
35.2044
 20
58.5851
 30
0.0000
 42
1.0000
  0
VERTEX
  8
51
 10
35.2044
 20
58.6613
 30
0.0000
  0
SEQEND
  8
0
  0
POLYLINE
  8
51
 66
1
 10
0.0000
 20
0.0000
 30
0.0000
 40
0.0762
 41
0.0762
 70
0
  0
VERTEX
  8
51
 10
34.5948
 20
58.6613
 30
0.0000
 42
1.0000
  0
VERTEX
  8
51
 10
34.5948
 20
58.5851
 30
0.0000
  0
SEQEND
  8
0
  0
POLYLINE
  8
51
 66
1
 10
0.0000
 20
0.0000
 30
0.0000
 40
0.1524
 41
0.1524
 70
0
  0
VERTEX
  8
51
 10
35.2044
 20
58.6232
 30
0.0000
  0
VERTEX
  8
51
 10
35.6362
 20
58.6232
 30
0.0000
  0
SEQEND
  8
0
  0
POLYLINE
  8
51
 66
1
 10
0.0000
 20
0.0000
 30
0.0000
 40
0.0762
 41
0.0762
 70
0
  0
VERTEX
  8
51
 10
35.6362
 20
58.5851
 30
0.0000
 42
1.0000
  0
VERTEX
  8
51
 10
35.6362
 20
58.6613
 30
0.0000
  0
SEQEND
  8
0
  0
POLYLINE
  8
51
 66
1
 10
0.0000
 20
0.0000
 30
0.0000
 40
0.0762
 41
0.0762
 70
0
  0
VERTEX
  8
51
 10
35.2044
 20
58.6613
 30
0.0000
 42
1.0000
  0
VERTEX
  8
51
 10
35.2044
 20
58.5851
 30
0.0000
  0
SEQEND
  8
0
  0
POLYLINE
  8
51
 66
1
 10
0.0000
 20
0.0000
 30
0.0000
 40
0.1524
 41
0.1524
 70
0
  0
VERTEX
  8
51
 10
34.5948
 20
58.9788
 30
0.0000
  0
VERTEX
  8
51
 10
35.2044
 20
58.9788
 30
0.0000
  0
SEQEND
  8
0
  0
POLYLINE
  8
51
 66
1
 10
0.0000
 20
0.0000
 30
0.0000
 40
0.0762
 41
0.0762
 70
0
  0
VERTEX
  8
51
 10
35.2044
 20
58.9407
 30
0.0000
 42
1.0000
  0
VERTEX
  8
51
 10
35.2044
 20
59.0169
 30
0.0000
  0
SEQEND
  8
0
  0
POLYLINE
  8
51
 66
1
 10
0.0000
 20
0.0000
 30
0.0000
 40
0.0762
 41
0.0762
 70
0
  0
VERTEX
  8
51
 10
34.5948
 20
59.0169
 30
0.0000
 42
1.0000
  0
VERTEX
  8
51
 10
34.5948
 20
58.9407
 30
0.0000
  0
SEQEND
  8
0
  0
POLYLINE
  8
51
 66
1
 10
0.0000
 20
0.0000
 30
0.0000
 40
0.1524
 41
0.1524
 70
0
  0
VERTEX
  8
51
 10
35.2044
 20
58.9788
 30
0.0000
  0
VERTEX
  8
51
 10
35.6362
 20
58.9788
 30
0.0000
  0
SEQEND
  8
0
  0
POLYLINE
  8
51
 66
1
 10
0.0000
 20
0.0000
 30
0.0000
 40
0.0762
 41
0.0762
 70
0
  0
VERTEX
  8
51
 10
35.6362
 20
58.9407
 30
0.0000
 42
1.0000
  0
VERTEX
  8
51
 10
35.6362
 20
59.0169
 30
0.0000
  0
SEQEND
  8
0
  0
POLYLINE
  8
51
 66
1
 10
0.0000
 20
0.0000
 30
0.0000
 40
0.0762
 41
0.0762
 70
0
  0
VERTEX
  8
51
 10
35.2044
 20
59.0169
 30
0.0000
 42
1.0000
  0
VERTEX
  8
51
 10
35.2044
 20
58.9407
 30
0.0000
  0
SEQEND
  8
0
  0
POLYLINE
  8
51
 66
1
 10
0.0000
 20
0.0000
 30
0.0000
 40
0.1524
 41
0.1524
 70
0
  0
VERTEX
  8
51
 10
35.6362
 20
58.6232
 30
0.0000
  0
VERTEX
  8
51
 10
35.6362
 20
58.9788
 30
0.0000
  0
SEQEND
  8
0
  0
POLYLINE
  8
51
 66
1
 10
0.0000
 20
0.0000
 30
0.0000
 40
0.0762
 41
0.0762
 70
0
  0
VERTEX
  8
51
 10
35.6743
 20
58.9788
 30
0.0000
 42
1.0000
  0
VERTEX
  8
51
 10
35.5981
 20
58.9788
 30
0.0000
  0
SEQEND
  8
0
  0
POLYLINE
  8
51
 66
1
 10
0.0000
 20
0.0000
 30
0.0000
 40
0.0762
 41
0.0762
 70
0
  0
VERTEX
  8
51
 10
35.5981
 20
58.6232
 30
0.0000
 42
1.0000
  0
VERTEX
  8
51
 10
35.6743
 20
58.6232
 30
0.0000
  0
SEQEND
  8
0
  0
POLYLINE
  8
51
 66
1
 10
0.0000
 20
0.0000
 30
0.0000
 40
0.1524
 41
0.1524
 70
0
  0
VERTEX
  8
51
 10
35.2044
 20
58.6232
 30
0.0000
  0
VERTEX
  8
51
 10
35.2044
 20
58.9788
 30
0.0000
  0
SEQEND
  8
0
  0
POLYLINE
  8
51
 66
1
 10
0.0000
 20
0.0000
 30
0.0000
 40
0.0762
 41
0.0762
 70
0
  0
VERTEX
  8
51
 10
35.2425
 20
58.9788
 30
0.0000
 42
1.0000
  0
VERTEX
  8
51
 10
35.1663
 20
58.9788
 30
0.0000
  0
SEQEND
  8
0
  0
POLYLINE
  8
51
 66
1
 10
0.0000
 20
0.0000
 30
0.0000
 40
0.0762
 41
0.0762
 70
0
  0
VERTEX
  8
51
 10
35.1663
 20
58.6232
 30
0.0000
 42
1.0000
  0
VERTEX
  8
51
 10
35.2425
 20
58.6232
 30
0.0000
  0
SEQEND
  8
0
  0
POLYLINE
  8
51
 66
1
 10
0.0000
 20
0.0000
 30
0.0000
 40
0.1524
 41
0.1524
 70
0
  0
VERTEX
  8
51
 10
34.5948
 20
59.8932
 30
0.0000
  0
VERTEX
  8
51
 10
34.5948
 20
60.2488
 30
0.0000
  0
SEQEND
  8
0
  0
POLYLINE
  8
51
 66
1
 10
0.0000
 20
0.0000
 30
0.0000
 40
0.0762
 41
0.0762
 70
0
  0
VERTEX
  8
51
 10
34.6329
 20
60.2488
 30
0.0000
 42
1.0000
  0
VERTEX
  8
51
 10
34.5567
 20
60.2488
 30
0.0000
  0
SEQEND
  8
0
  0
POLYLINE
  8
51
 66
1
 10
0.0000
 20
0.0000
 30
0.0000
 40
0.0762
 41
0.0762
 70
0
  0
VERTEX
  8
51
 10
34.5567
 20
59.8932
 30
0.0000
 42
1.0000
  0
VERTEX
  8
51
 10
34.6329
 20
59.8932
 30
0.0000
  0
SEQEND
  8
0
  0
POLYLINE
  8
51
 66
1
 10
0.0000
 20
0.0000
 30
0.0000
 40
0.1524
 41
0.1524
 70
0
  0
VERTEX
  8
51
 10
34.5948
 20
59.8932
 30
0.0000
  0
VERTEX
  8
51
 10
35.2044
 20
59.8932
 30
0.0000
  0
SEQEND
  8
0
  0
POLYLINE
  8
51
 66
1
 10
0.0000
 20
0.0000
 30
0.0000
 40
0.0762
 41
0.0762
 70
0
  0
VERTEX
  8
51
 10
35.2044
 20
59.8551
 30
0.0000
 42
1.0000
  0
VERTEX
  8
51
 10
35.2044
 20
59.9313
 30
0.0000
  0
SEQEND
  8
0
  0
POLYLINE
  8
51
 66
1
 10
0.0000
 20
0.0000
 30
0.0000
 40
0.0762
 41
0.0762
 70
0
  0
VERTEX
  8
51
 10
34.5948
 20
59.9313
 30
0.0000
 42
1.0000
  0
VERTEX
  8
51
 10
34.5948
 20
59.8551
 30
0.0000
  0
SEQEND
  8
0
  0
POLYLINE
  8
51
 66
1
 10
0.0000
 20
0.0000
 30
0.0000
 40
0.1524
 41
0.1524
 70
0
  0
VERTEX
  8
51
 10
35.2044
 20
59.8932
 30
0.0000
  0
VERTEX
  8
51
 10
35.6362
 20
59.8932
 30
0.0000
  0
SEQEND
  8
0
  0
POLYLINE
  8
51
 66
1
 10
0.0000
 20
0.0000
 30
0.0000
 40
0.0762
 41
0.0762
 70
0
  0
VERTEX
  8
51
 10
35.6362
 20
59.8551
 30
0.0000
 42
1.0000
  0
VERTEX
  8
51
 10
35.6362
 20
59.9313
 30
0.0000
  0
SEQEND
  8
0
  0
POLYLINE
  8
51
 66
1
 10
0.0000
 20
0.0000
 30
0.0000
 40
0.0762
 41
0.0762
 70
0
  0
VERTEX
  8
51
 10
35.2044
 20
59.9313
 30
0.0000
 42
1.0000
  0
VERTEX
  8
51
 10
35.2044
 20
59.8551
 30
0.0000
  0
SEQEND
  8
0
  0
POLYLINE
  8
51
 66
1
 10
0.0000
 20
0.0000
 30
0.0000
 40
0.1524
 41
0.1524
 70
0
  0
VERTEX
  8
51
 10
34.5948
 20
60.2488
 30
0.0000
  0
VERTEX
  8
51
 10
35.2044
 20
60.2488
 30
0.0000
  0
SEQEND
  8
0
  0
POLYLINE
  8
51
 66
1
 10
0.0000
 20
0.0000
 30
0.0000
 40
0.0762
 41
0.0762
 70
0
  0
VERTEX
  8
51
 10
35.2044
 20
60.2107
 30
0.0000
 42
1.0000
  0
VERTEX
  8
51
 10
35.2044
 20
60.2869
 30
0.0000
  0
SEQEND
  8
0
  0
POLYLINE
  8
51
 66
1
 10
0.0000
 20
0.0000
 30
0.0000
 40
0.0762
 41
0.0762
 70
0
  0
VERTEX
  8
51
 10
34.5948
 20
60.2869
 30
0.0000
 42
1.0000
  0
VERTEX
  8
51
 10
34.5948
 20
60.2107
 30
0.0000
  0
SEQEND
  8
0
  0
POLYLINE
  8
51
 66
1
 10
0.0000
 20
0.0000
 30
0.0000
 40
0.1524
 41
0.1524
 70
0
  0
VERTEX
  8
51
 10
35.2044
 20
60.2488
 30
0.0000
  0
VERTEX
  8
51
 10
35.6362
 20
60.2488
 30
0.0000
  0
SEQEND
  8
0
  0
POLYLINE
  8
51
 66
1
 10
0.0000
 20
0.0000
 30
0.0000
 40
0.0762
 41
0.0762
 70
0
  0
VERTEX
  8
51
 10
35.6362
 20
60.2107
 30
0.0000
 42
1.0000
  0
VERTEX
  8
51
 10
35.6362
 20
60.2869
 30
0.0000
  0
SEQEND
  8
0
  0
POLYLINE
  8
51
 66
1
 10
0.0000
 20
0.0000
 30
0.0000
 40
0.0762
 41
0.0762
 70
0
  0
VERTEX
  8
51
 10
35.2044
 20
60.2869
 30
0.0000
 42
1.0000
  0
VERTEX
  8
51
 10
35.2044
 20
60.2107
 30
0.0000
  0
SEQEND
  8
0
  0
POLYLINE
  8
51
 66
1
 10
0.0000
 20
0.0000
 30
0.0000
 40
0.1524
 41
0.1524
 70
0
  0
VERTEX
  8
51
 10
35.6362
 20
59.8932
 30
0.0000
  0
VERTEX
  8
51
 10
35.6362
 20
60.2488
 30
0.0000
  0
SEQEND
  8
0
  0
POLYLINE
  8
51
 66
1
 10
0.0000
 20
0.0000
 30
0.0000
 40
0.0762
 41
0.0762
 70
0
  0
VERTEX
  8
51
 10
35.6743
 20
60.2488
 30
0.0000
 42
1.0000
  0
VERTEX
  8
51
 10
35.5981
 20
60.2488
 30
0.0000
  0
SEQEND
  8
0
  0
POLYLINE
  8
51
 66
1
 10
0.0000
 20
0.0000
 30
0.0000
 40
0.0762
 41
0.0762
 70
0
  0
VERTEX
  8
51
 10
35.5981
 20
59.8932
 30
0.0000
 42
1.0000
  0
VERTEX
  8
51
 10
35.6743
 20
59.8932
 30
0.0000
  0
SEQEND
  8
0
  0
POLYLINE
  8
51
 66
1
 10
0.0000
 20
0.0000
 30
0.0000
 40
0.1524
 41
0.1524
 70
0
  0
VERTEX
  8
51
 10
35.2044
 20
59.8932
 30
0.0000
  0
VERTEX
  8
51
 10
35.2044
 20
60.2488
 30
0.0000
  0
SEQEND
  8
0
  0
POLYLINE
  8
51
 66
1
 10
0.0000
 20
0.0000
 30
0.0000
 40
0.0762
 41
0.0762
 70
0
  0
VERTEX
  8
51
 10
35.2425
 20
60.2488
 30
0.0000
 42
1.0000
  0
VERTEX
  8
51
 10
35.1663
 20
60.2488
 30
0.0000
  0
SEQEND
  8
0
  0
POLYLINE
  8
51
 66
1
 10
0.0000
 20
0.0000
 30
0.0000
 40
0.0762
 41
0.0762
 70
0
  0
VERTEX
  8
51
 10
35.1663
 20
59.8932
 30
0.0000
 42
1.0000
  0
VERTEX
  8
51
 10
35.2425
 20
59.8932
 30
0.0000
  0
SEQEND
  8
0
  0
POLYLINE
  8
51
 66
1
 10
0.0000
 20
0.0000
 30
0.0000
 40
0.1524
 41
0.1524
 70
0
  0
VERTEX
  8
51
 10
34.5948
 20
61.1632
 30
0.0000
  0
VERTEX
  8
51
 10
34.5948
 20
61.5188
 30
0.0000
  0
SEQEND
  8
0
  0
POLYLINE
  8
51
 66
1
 10
0.0000
 20
0.0000
 30
0.0000
 40
0.0762
 41
0.0762
 70
0
  0
VERTEX
  8
51
 10
34.6329
 20
61.5188
 30
0.0000
 42
1.0000
  0
VERTEX
  8
51
 10
34.5567
 20
61.5188
 30
0.0000
  0
SEQEND
  8
0
  0
POLYLINE
  8
51
 66
1
 10
0.0000
 20
0.0000
 30
0.0000
 40
0.0762
 41
0.0762
 70
0
  0
VERTEX
  8
51
 10
34.5567
 20
61.1632
 30
0.0000
 42
1.0000
  0
VERTEX
  8
51
 10
34.6329
 20
61.1632
 30
0.0000
  0
SEQEND
  8
0
  0
POLYLINE
  8
51
 66
1
 10
0.0000
 20
0.0000
 30
0.0000
 40
0.1524
 41
0.1524
 70
0
  0
VERTEX
  8
51
 10
34.5948
 20
61.1632
 30
0.0000
  0
VERTEX
  8
51
 10
35.2044
 20
61.1632
 30
0.0000
  0
SEQEND
  8
0
  0
POLYLINE
  8
51
 66
1
 10
0.0000
 20
0.0000
 30
0.0000
 40
0.0762
 41
0.0762
 70
0
  0
VERTEX
  8
51
 10
35.2044
 20
61.1251
 30
0.0000
 42
1.0000
  0
VERTEX
  8
51
 10
35.2044
 20
61.2013
 30
0.0000
  0
SEQEND
  8
0
  0
POLYLINE
  8
51
 66
1
 10
0.0000
 20
0.0000
 30
0.0000
 40
0.0762
 41
0.0762
 70
0
  0
VERTEX
  8
51
 10
34.5948
 20
61.2013
 30
0.0000
 42
1.0000
  0
VERTEX
  8
51
 10
34.5948
 20
61.1251
 30
0.0000
  0
SEQEND
  8
0
  0
POLYLINE
  8
51
 66
1
 10
0.0000
 20
0.0000
 30
0.0000
 40
0.1524
 41
0.1524
 70
0
  0
VERTEX
  8
51
 10
35.2044
 20
61.1632
 30
0.0000
  0
VERTEX
  8
51
 10
35.6362
 20
61.1632
 30
0.0000
  0
SEQEND
  8
0
  0
POLYLINE
  8
51
 66
1
 10
0.0000
 20
0.0000
 30
0.0000
 40
0.0762
 41
0.0762
 70
0
  0
VERTEX
  8
51
 10
35.6362
 20
61.1251
 30
0.0000
 42
1.0000
  0
VERTEX
  8
51
 10
35.6362
 20
61.2013
 30
0.0000
  0
SEQEND
  8
0
  0
POLYLINE
  8
51
 66
1
 10
0.0000
 20
0.0000
 30
0.0000
 40
0.0762
 41
0.0762
 70
0
  0
VERTEX
  8
51
 10
35.2044
 20
61.2013
 30
0.0000
 42
1.0000
  0
VERTEX
  8
51
 10
35.2044
 20
61.1251
 30
0.0000
  0
SEQEND
  8
0
  0
POLYLINE
  8
51
 66
1
 10
0.0000
 20
0.0000
 30
0.0000
 40
0.1524
 41
0.1524
 70
0
  0
VERTEX
  8
51
 10
34.5948
 20
61.5188
 30
0.0000
  0
VERTEX
  8
51
 10
35.2044
 20
61.5188
 30
0.0000
  0
SEQEND
  8
0
  0
POLYLINE
  8
51
 66
1
 10
0.0000
 20
0.0000
 30
0.0000
 40
0.0762
 41
0.0762
 70
0
  0
VERTEX
  8
51
 10
35.2044
 20
61.4807
 30
0.0000
 42
1.0000
  0
VERTEX
  8
51
 10
35.2044
 20
61.5569
 30
0.0000
  0
SEQEND
  8
0
  0
POLYLINE
  8
51
 66
1
 10
0.0000
 20
0.0000
 30
0.0000
 40
0.0762
 41
0.0762
 70
0
  0
VERTEX
  8
51
 10
34.5948
 20
61.5569
 30
0.0000
 42
1.0000
  0
VERTEX
  8
51
 10
34.5948
 20
61.4807
 30
0.0000
  0
SEQEND
  8
0
  0
POLYLINE
  8
51
 66
1
 10
0.0000
 20
0.0000
 30
0.0000
 40
0.1524
 41
0.1524
 70
0
  0
VERTEX
  8
51
 10
35.2044
 20
61.5188
 30
0.0000
  0
VERTEX
  8
51
 10
35.6362
 20
61.5188
 30
0.0000
  0
SEQEND
  8
0
  0
POLYLINE
  8
51
 66
1
 10
0.0000
 20
0.0000
 30
0.0000
 40
0.0762
 41
0.0762
 70
0
  0
VERTEX
  8
51
 10
35.6362
 20
61.4807
 30
0.0000
 42
1.0000
  0
VERTEX
  8
51
 10
35.6362
 20
61.5569
 30
0.0000
  0
SEQEND
  8
0
  0
POLYLINE
  8
51
 66
1
 10
0.0000
 20
0.0000
 30
0.0000
 40
0.0762
 41
0.0762
 70
0
  0
VERTEX
  8
51
 10
35.2044
 20
61.5569
 30
0.0000
 42
1.0000
  0
VERTEX
  8
51
 10
35.2044
 20
61.4807
 30
0.0000
  0
SEQEND
  8
0
  0
POLYLINE
  8
51
 66
1
 10
0.0000
 20
0.0000
 30
0.0000
 40
0.1524
 41
0.1524
 70
0
  0
VERTEX
  8
51
 10
35.6362
 20
61.1632
 30
0.0000
  0
VERTEX
  8
51
 10
35.6362
 20
61.5188
 30
0.0000
  0
SEQEND
  8
0
  0
POLYLINE
  8
51
 66
1
 10
0.0000
 20
0.0000
 30
0.0000
 40
0.0762
 41
0.0762
 70
0
  0
VERTEX
  8
51
 10
35.6743
 20
61.5188
 30
0.0000
 42
1.0000
  0
VERTEX
  8
51
 10
35.5981
 20
61.5188
 30
0.0000
  0
SEQEND
  8
0
  0
POLYLINE
  8
51
 66
1
 10
0.0000
 20
0.0000
 30
0.0000
 40
0.0762
 41
0.0762
 70
0
  0
VERTEX
  8
51
 10
35.5981
 20
61.1632
 30
0.0000
 42
1.0000
  0
VERTEX
  8
51
 10
35.6743
 20
61.1632
 30
0.0000
  0
SEQEND
  8
0
  0
POLYLINE
  8
51
 66
1
 10
0.0000
 20
0.0000
 30
0.0000
 40
0.1524
 41
0.1524
 70
0
  0
VERTEX
  8
51
 10
35.2044
 20
61.1632
 30
0.0000
  0
VERTEX
  8
51
 10
35.2044
 20
61.5188
 30
0.0000
  0
SEQEND
  8
0
  0
POLYLINE
  8
51
 66
1
 10
0.0000
 20
0.0000
 30
0.0000
 40
0.0762
 41
0.0762
 70
0
  0
VERTEX
  8
51
 10
35.2425
 20
61.5188
 30
0.0000
 42
1.0000
  0
VERTEX
  8
51
 10
35.1663
 20
61.5188
 30
0.0000
  0
SEQEND
  8
0
  0
POLYLINE
  8
51
 66
1
 10
0.0000
 20
0.0000
 30
0.0000
 40
0.0762
 41
0.0762
 70
0
  0
VERTEX
  8
51
 10
35.1663
 20
61.1632
 30
0.0000
 42
1.0000
  0
VERTEX
  8
51
 10
35.2425
 20
61.1632
 30
0.0000
  0
SEQEND
  8
0
  0
POLYLINE
  8
51
 66
1
 10
0.0000
 20
0.0000
 30
0.0000
 40
0.1524
 41
0.1524
 70
0
  0
VERTEX
  8
51
 10
34.5948
 20
62.4332
 30
0.0000
  0
VERTEX
  8
51
 10
34.5948
 20
62.7888
 30
0.0000
  0
SEQEND
  8
0
  0
POLYLINE
  8
51
 66
1
 10
0.0000
 20
0.0000
 30
0.0000
 40
0.0762
 41
0.0762
 70
0
  0
VERTEX
  8
51
 10
34.6329
 20
62.7888
 30
0.0000
 42
1.0000
  0
VERTEX
  8
51
 10
34.5567
 20
62.7888
 30
0.0000
  0
SEQEND
  8
0
  0
POLYLINE
  8
51
 66
1
 10
0.0000
 20
0.0000
 30
0.0000
 40
0.0762
 41
0.0762
 70
0
  0
VERTEX
  8
51
 10
34.5567
 20
62.4332
 30
0.0000
 42
1.0000
  0
VERTEX
  8
51
 10
34.6329
 20
62.4332
 30
0.0000
  0
SEQEND
  8
0
  0
POLYLINE
  8
51
 66
1
 10
0.0000
 20
0.0000
 30
0.0000
 40
0.1524
 41
0.1524
 70
0
  0
VERTEX
  8
51
 10
34.5948
 20
62.4332
 30
0.0000
  0
VERTEX
  8
51
 10
35.2044
 20
62.4332
 30
0.0000
  0
SEQEND
  8
0
  0
POLYLINE
  8
51
 66
1
 10
0.0000
 20
0.0000
 30
0.0000
 40
0.0762
 41
0.0762
 70
0
  0
VERTEX
  8
51
 10
35.2044
 20
62.3951
 30
0.0000
 42
1.0000
  0
VERTEX
  8
51
 10
35.2044
 20
62.4713
 30
0.0000
  0
SEQEND
  8
0
  0
POLYLINE
  8
51
 66
1
 10
0.0000
 20
0.0000
 30
0.0000
 40
0.0762
 41
0.0762
 70
0
  0
VERTEX
  8
51
 10
34.5948
 20
62.4713
 30
0.0000
 42
1.0000
  0
VERTEX
  8
51
 10
34.5948
 20
62.3951
 30
0.0000
  0
SEQEND
  8
0
  0
POLYLINE
  8
51
 66
1
 10
0.0000
 20
0.0000
 30
0.0000
 40
0.1524
 41
0.1524
 70
0
  0
VERTEX
  8
51
 10
35.2044
 20
62.4332
 30
0.0000
  0
VERTEX
  8
51
 10
35.6362
 20
62.4332
 30
0.0000
  0
SEQEND
  8
0
  0
POLYLINE
  8
51
 66
1
 10
0.0000
 20
0.0000
 30
0.0000
 40
0.0762
 41
0.0762
 70
0
  0
VERTEX
  8
51
 10
35.6362
 20
62.3951
 30
0.0000
 42
1.0000
  0
VERTEX
  8
51
 10
35.6362
 20
62.4713
 30
0.0000
  0
SEQEND
  8
0
  0
POLYLINE
  8
51
 66
1
 10
0.0000
 20
0.0000
 30
0.0000
 40
0.0762
 41
0.0762
 70
0
  0
VERTEX
  8
51
 10
35.2044
 20
62.4713
 30
0.0000
 42
1.0000
  0
VERTEX
  8
51
 10
35.2044
 20
62.3951
 30
0.0000
  0
SEQEND
  8
0
  0
POLYLINE
  8
51
 66
1
 10
0.0000
 20
0.0000
 30
0.0000
 40
0.1524
 41
0.1524
 70
0
  0
VERTEX
  8
51
 10
34.5948
 20
62.7888
 30
0.0000
  0
VERTEX
  8
51
 10
35.2044
 20
62.7888
 30
0.0000
  0
SEQEND
  8
0
  0
POLYLINE
  8
51
 66
1
 10
0.0000
 20
0.0000
 30
0.0000
 40
0.0762
 41
0.0762
 70
0
  0
VERTEX
  8
51
 10
35.2044
 20
62.7507
 30
0.0000
 42
1.0000
  0
VERTEX
  8
51
 10
35.2044
 20
62.8269
 30
0.0000
  0
SEQEND
  8
0
  0
POLYLINE
  8
51
 66
1
 10
0.0000
 20
0.0000
 30
0.0000
 40
0.0762
 41
0.0762
 70
0
  0
VERTEX
  8
51
 10
34.5948
 20
62.8269
 30
0.0000
 42
1.0000
  0
VERTEX
  8
51
 10
34.5948
 20
62.7507
 30
0.0000
  0
SEQEND
  8
0
  0
POLYLINE
  8
51
 66
1
 10
0.0000
 20
0.0000
 30
0.0000
 40
0.1524
 41
0.1524
 70
0
  0
VERTEX
  8
51
 10
35.2044
 20
62.7888
 30
0.0000
  0
VERTEX
  8
51
 10
35.6362
 20
62.7888
 30
0.0000
  0
SEQEND
  8
0
  0
POLYLINE
  8
51
 66
1
 10
0.0000
 20
0.0000
 30
0.0000
 40
0.0762
 41
0.0762
 70
0
  0
VERTEX
  8
51
 10
35.6362
 20
62.7507
 30
0.0000
 42
1.0000
  0
VERTEX
  8
51
 10
35.6362
 20
62.8269
 30
0.0000
  0
SEQEND
  8
0
  0
POLYLINE
  8
51
 66
1
 10
0.0000
 20
0.0000
 30
0.0000
 40
0.0762
 41
0.0762
 70
0
  0
VERTEX
  8
51
 10
35.2044
 20
62.8269
 30
0.0000
 42
1.0000
  0
VERTEX
  8
51
 10
35.2044
 20
62.7507
 30
0.0000
  0
SEQEND
  8
0
  0
POLYLINE
  8
51
 66
1
 10
0.0000
 20
0.0000
 30
0.0000
 40
0.1524
 41
0.1524
 70
0
  0
VERTEX
  8
51
 10
35.6362
 20
62.4332
 30
0.0000
  0
VERTEX
  8
51
 10
35.6362
 20
62.7888
 30
0.0000
  0
SEQEND
  8
0
  0
POLYLINE
  8
51
 66
1
 10
0.0000
 20
0.0000
 30
0.0000
 40
0.0762
 41
0.0762
 70
0
  0
VERTEX
  8
51
 10
35.6743
 20
62.7888
 30
0.0000
 42
1.0000
  0
VERTEX
  8
51
 10
35.5981
 20
62.7888
 30
0.0000
  0
SEQEND
  8
0
  0
POLYLINE
  8
51
 66
1
 10
0.0000
 20
0.0000
 30
0.0000
 40
0.0762
 41
0.0762
 70
0
  0
VERTEX
  8
51
 10
35.5981
 20
62.4332
 30
0.0000
 42
1.0000
  0
VERTEX
  8
51
 10
35.6743
 20
62.4332
 30
0.0000
  0
SEQEND
  8
0
  0
POLYLINE
  8
51
 66
1
 10
0.0000
 20
0.0000
 30
0.0000
 40
0.1524
 41
0.1524
 70
0
  0
VERTEX
  8
51
 10
35.2044
 20
62.4332
 30
0.0000
  0
VERTEX
  8
51
 10
35.2044
 20
62.7888
 30
0.0000
  0
SEQEND
  8
0
  0
POLYLINE
  8
51
 66
1
 10
0.0000
 20
0.0000
 30
0.0000
 40
0.0762
 41
0.0762
 70
0
  0
VERTEX
  8
51
 10
35.2425
 20
62.7888
 30
0.0000
 42
1.0000
  0
VERTEX
  8
51
 10
35.1663
 20
62.7888
 30
0.0000
  0
SEQEND
  8
0
  0
POLYLINE
  8
51
 66
1
 10
0.0000
 20
0.0000
 30
0.0000
 40
0.0762
 41
0.0762
 70
0
  0
VERTEX
  8
51
 10
35.1663
 20
62.4332
 30
0.0000
 42
1.0000
  0
VERTEX
  8
51
 10
35.2425
 20
62.4332
 30
0.0000
  0
SEQEND
  8
0
  0
POLYLINE
  8
51
 66
1
 10
0.0000
 20
0.0000
 30
0.0000
 40
0.1524
 41
0.1524
 70
0
  0
VERTEX
  8
51
 10
40.5892
 20
58.6232
 30
0.0000
  0
VERTEX
  8
51
 10
40.5892
 20
58.9788
 30
0.0000
  0
SEQEND
  8
0
  0
POLYLINE
  8
51
 66
1
 10
0.0000
 20
0.0000
 30
0.0000
 40
0.0762
 41
0.0762
 70
0
  0
VERTEX
  8
51
 10
40.6273
 20
58.9788
 30
0.0000
 42
1.0000
  0
VERTEX
  8
51
 10
40.5511
 20
58.9788
 30
0.0000
  0
SEQEND
  8
0
  0
POLYLINE
  8
51
 66
1
 10
0.0000
 20
0.0000
 30
0.0000
 40
0.0762
 41
0.0762
 70
0
  0
VERTEX
  8
51
 10
40.5511
 20
58.6232
 30
0.0000
 42
1.0000
  0
VERTEX
  8
51
 10
40.6273
 20
58.6232
 30
0.0000
  0
SEQEND
  8
0
  0
POLYLINE
  8
51
 66
1
 10
0.0000
 20
0.0000
 30
0.0000
 40
0.1524
 41
0.1524
 70
0
  0
VERTEX
  8
51
 10
39.5478
 20
58.9788
 30
0.0000
  0
VERTEX
  8
51
 10
39.9542
 20
58.9788
 30
0.0000
  0
SEQEND
  8
0
  0
POLYLINE
  8
51
 66
1
 10
0.0000
 20
0.0000
 30
0.0000
 40
0.0762
 41
0.0762
 70
0
  0
VERTEX
  8
51
 10
39.9542
 20
58.9407
 30
0.0000
 42
1.0000
  0
VERTEX
  8
51
 10
39.9542
 20
59.0169
 30
0.0000
  0
SEQEND
  8
0
  0
POLYLINE
  8
51
 66
1
 10
0.0000
 20
0.0000
 30
0.0000
 40
0.0762
 41
0.0762
 70
0
  0
VERTEX
  8
51
 10
39.5478
 20
59.0169
 30
0.0000
 42
1.0000
  0
VERTEX
  8
51
 10
39.5478
 20
58.9407
 30
0.0000
  0
SEQEND
  8
0
  0
POLYLINE
  8
51
 66
1
 10
0.0000
 20
0.0000
 30
0.0000
 40
0.1524
 41
0.1524
 70
0
  0
VERTEX
  8
51
 10
39.9542
 20
58.9788
 30
0.0000
  0
VERTEX
  8
51
 10
40.5892
 20
58.9788
 30
0.0000
  0
SEQEND
  8
0
  0
POLYLINE
  8
51
 66
1
 10
0.0000
 20
0.0000
 30
0.0000
 40
0.0762
 41
0.0762
 70
0
  0
VERTEX
  8
51
 10
40.5892
 20
58.9407
 30
0.0000
 42
1.0000
  0
VERTEX
  8
51
 10
40.5892
 20
59.0169
 30
0.0000
  0
SEQEND
  8
0
  0
POLYLINE
  8
51
 66
1
 10
0.0000
 20
0.0000
 30
0.0000
 40
0.0762
 41
0.0762
 70
0
  0
VERTEX
  8
51
 10
39.9542
 20
59.0169
 30
0.0000
 42
1.0000
  0
VERTEX
  8
51
 10
39.9542
 20
58.9407
 30
0.0000
  0
SEQEND
  8
0
  0
POLYLINE
  8
51
 66
1
 10
0.0000
 20
0.0000
 30
0.0000
 40
0.1524
 41
0.1524
 70
0
  0
VERTEX
  8
51
 10
39.5478
 20
58.6232
 30
0.0000
  0
VERTEX
  8
51
 10
39.9542
 20
58.6232
 30
0.0000
  0
SEQEND
  8
0
  0
POLYLINE
  8
51
 66
1
 10
0.0000
 20
0.0000
 30
0.0000
 40
0.0762
 41
0.0762
 70
0
  0
VERTEX
  8
51
 10
39.9542
 20
58.5851
 30
0.0000
 42
1.0000
  0
VERTEX
  8
51
 10
39.9542
 20
58.6613
 30
0.0000
  0
SEQEND
  8
0
  0
POLYLINE
  8
51
 66
1
 10
0.0000
 20
0.0000
 30
0.0000
 40
0.0762
 41
0.0762
 70
0
  0
VERTEX
  8
51
 10
39.5478
 20
58.6613
 30
0.0000
 42
1.0000
  0
VERTEX
  8
51
 10
39.5478
 20
58.5851
 30
0.0000
  0
SEQEND
  8
0
  0
POLYLINE
  8
51
 66
1
 10
0.0000
 20
0.0000
 30
0.0000
 40
0.1524
 41
0.1524
 70
0
  0
VERTEX
  8
51
 10
39.9542
 20
58.6232
 30
0.0000
  0
VERTEX
  8
51
 10
40.5892
 20
58.6232
 30
0.0000
  0
SEQEND
  8
0
  0
POLYLINE
  8
51
 66
1
 10
0.0000
 20
0.0000
 30
0.0000
 40
0.0762
 41
0.0762
 70
0
  0
VERTEX
  8
51
 10
40.5892
 20
58.5851
 30
0.0000
 42
1.0000
  0
VERTEX
  8
51
 10
40.5892
 20
58.6613
 30
0.0000
  0
SEQEND
  8
0
  0
POLYLINE
  8
51
 66
1
 10
0.0000
 20
0.0000
 30
0.0000
 40
0.0762
 41
0.0762
 70
0
  0
VERTEX
  8
51
 10
39.9542
 20
58.6613
 30
0.0000
 42
1.0000
  0
VERTEX
  8
51
 10
39.9542
 20
58.5851
 30
0.0000
  0
SEQEND
  8
0
  0
POLYLINE
  8
51
 66
1
 10
0.0000
 20
0.0000
 30
0.0000
 40
0.1524
 41
0.1524
 70
0
  0
VERTEX
  8
51
 10
39.5478
 20
58.6232
 30
0.0000
  0
VERTEX
  8
51
 10
39.5478
 20
58.9788
 30
0.0000
  0
SEQEND
  8
0
  0
POLYLINE
  8
51
 66
1
 10
0.0000
 20
0.0000
 30
0.0000
 40
0.0762
 41
0.0762
 70
0
  0
VERTEX
  8
51
 10
39.5859
 20
58.9788
 30
0.0000
 42
1.0000
  0
VERTEX
  8
51
 10
39.5097
 20
58.9788
 30
0.0000
  0
SEQEND
  8
0
  0
POLYLINE
  8
51
 66
1
 10
0.0000
 20
0.0000
 30
0.0000
 40
0.0762
 41
0.0762
 70
0
  0
VERTEX
  8
51
 10
39.5097
 20
58.6232
 30
0.0000
 42
1.0000
  0
VERTEX
  8
51
 10
39.5859
 20
58.6232
 30
0.0000
  0
SEQEND
  8
0
  0
POLYLINE
  8
51
 66
1
 10
0.0000
 20
0.0000
 30
0.0000
 40
0.1524
 41
0.1524
 70
0
  0
VERTEX
  8
51
 10
39.9542
 20
58.6232
 30
0.0000
  0
VERTEX
  8
51
 10
39.9542
 20
58.9788
 30
0.0000
  0
SEQEND
  8
0
  0
POLYLINE
  8
51
 66
1
 10
0.0000
 20
0.0000
 30
0.0000
 40
0.0762
 41
0.0762
 70
0
  0
VERTEX
  8
51
 10
39.9923
 20
58.9788
 30
0.0000
 42
1.0000
  0
VERTEX
  8
51
 10
39.9161
 20
58.9788
 30
0.0000
  0
SEQEND
  8
0
  0
POLYLINE
  8
51
 66
1
 10
0.0000
 20
0.0000
 30
0.0000
 40
0.0762
 41
0.0762
 70
0
  0
VERTEX
  8
51
 10
39.9161
 20
58.6232
 30
0.0000
 42
1.0000
  0
VERTEX
  8
51
 10
39.9923
 20
58.6232
 30
0.0000
  0
SEQEND
  8
0
  0
POLYLINE
  8
51
 66
1
 10
0.0000
 20
0.0000
 30
0.0000
 40
0.1524
 41
0.1524
 70
0
  0
VERTEX
  8
51
 10
40.5892
 20
59.8932
 30
0.0000
  0
VERTEX
  8
51
 10
40.5892
 20
60.2488
 30
0.0000
  0
SEQEND
  8
0
  0
POLYLINE
  8
51
 66
1
 10
0.0000
 20
0.0000
 30
0.0000
 40
0.0762
 41
0.0762
 70
0
  0
VERTEX
  8
51
 10
40.6273
 20
60.2488
 30
0.0000
 42
1.0000
  0
VERTEX
  8
51
 10
40.5511
 20
60.2488
 30
0.0000
  0
SEQEND
  8
0
  0
POLYLINE
  8
51
 66
1
 10
0.0000
 20
0.0000
 30
0.0000
 40
0.0762
 41
0.0762
 70
0
  0
VERTEX
  8
51
 10
40.5511
 20
59.8932
 30
0.0000
 42
1.0000
  0
VERTEX
  8
51
 10
40.6273
 20
59.8932
 30
0.0000
  0
SEQEND
  8
0
  0
POLYLINE
  8
51
 66
1
 10
0.0000
 20
0.0000
 30
0.0000
 40
0.1524
 41
0.1524
 70
0
  0
VERTEX
  8
51
 10
39.5478
 20
60.2488
 30
0.0000
  0
VERTEX
  8
51
 10
39.9542
 20
60.2488
 30
0.0000
  0
SEQEND
  8
0
  0
POLYLINE
  8
51
 66
1
 10
0.0000
 20
0.0000
 30
0.0000
 40
0.0762
 41
0.0762
 70
0
  0
VERTEX
  8
51
 10
39.9542
 20
60.2107
 30
0.0000
 42
1.0000
  0
VERTEX
  8
51
 10
39.9542
 20
60.2869
 30
0.0000
  0
SEQEND
  8
0
  0
POLYLINE
  8
51
 66
1
 10
0.0000
 20
0.0000
 30
0.0000
 40
0.0762
 41
0.0762
 70
0
  0
VERTEX
  8
51
 10
39.5478
 20
60.2869
 30
0.0000
 42
1.0000
  0
VERTEX
  8
51
 10
39.5478
 20
60.2107
 30
0.0000
  0
SEQEND
  8
0
  0
POLYLINE
  8
51
 66
1
 10
0.0000
 20
0.0000
 30
0.0000
 40
0.1524
 41
0.1524
 70
0
  0
VERTEX
  8
51
 10
39.9542
 20
60.2488
 30
0.0000
  0
VERTEX
  8
51
 10
40.5892
 20
60.2488
 30
0.0000
  0
SEQEND
  8
0
  0
POLYLINE
  8
51
 66
1
 10
0.0000
 20
0.0000
 30
0.0000
 40
0.0762
 41
0.0762
 70
0
  0
VERTEX
  8
51
 10
40.5892
 20
60.2107
 30
0.0000
 42
1.0000
  0
VERTEX
  8
51
 10
40.5892
 20
60.2869
 30
0.0000
  0
SEQEND
  8
0
  0
POLYLINE
  8
51
 66
1
 10
0.0000
 20
0.0000
 30
0.0000
 40
0.0762
 41
0.0762
 70
0
  0
VERTEX
  8
51
 10
39.9542
 20
60.2869
 30
0.0000
 42
1.0000
  0
VERTEX
  8
51
 10
39.9542
 20
60.2107
 30
0.0000
  0
SEQEND
  8
0
  0
POLYLINE
  8
51
 66
1
 10
0.0000
 20
0.0000
 30
0.0000
 40
0.1524
 41
0.1524
 70
0
  0
VERTEX
  8
51
 10
39.5478
 20
59.8932
 30
0.0000
  0
VERTEX
  8
51
 10
39.9542
 20
59.8932
 30
0.0000
  0
SEQEND
  8
0
  0
POLYLINE
  8
51
 66
1
 10
0.0000
 20
0.0000
 30
0.0000
 40
0.0762
 41
0.0762
 70
0
  0
VERTEX
  8
51
 10
39.9542
 20
59.8551
 30
0.0000
 42
1.0000
  0
VERTEX
  8
51
 10
39.9542
 20
59.9313
 30
0.0000
  0
SEQEND
  8
0
  0
POLYLINE
  8
51
 66
1
 10
0.0000
 20
0.0000
 30
0.0000
 40
0.0762
 41
0.0762
 70
0
  0
VERTEX
  8
51
 10
39.5478
 20
59.9313
 30
0.0000
 42
1.0000
  0
VERTEX
  8
51
 10
39.5478
 20
59.8551
 30
0.0000
  0
SEQEND
  8
0
  0
POLYLINE
  8
51
 66
1
 10
0.0000
 20
0.0000
 30
0.0000
 40
0.1524
 41
0.1524
 70
0
  0
VERTEX
  8
51
 10
39.9542
 20
59.8932
 30
0.0000
  0
VERTEX
  8
51
 10
40.5892
 20
59.8932
 30
0.0000
  0
SEQEND
  8
0
  0
POLYLINE
  8
51
 66
1
 10
0.0000
 20
0.0000
 30
0.0000
 40
0.0762
 41
0.0762
 70
0
  0
VERTEX
  8
51
 10
40.5892
 20
59.8551
 30
0.0000
 42
1.0000
  0
VERTEX
  8
51
 10
40.5892
 20
59.9313
 30
0.0000
  0
SEQEND
  8
0
  0
POLYLINE
  8
51
 66
1
 10
0.0000
 20
0.0000
 30
0.0000
 40
0.0762
 41
0.0762
 70
0
  0
VERTEX
  8
51
 10
39.9542
 20
59.9313
 30
0.0000
 42
1.0000
  0
VERTEX
  8
51
 10
39.9542
 20
59.8551
 30
0.0000
  0
SEQEND
  8
0
  0
POLYLINE
  8
51
 66
1
 10
0.0000
 20
0.0000
 30
0.0000
 40
0.1524
 41
0.1524
 70
0
  0
VERTEX
  8
51
 10
39.5478
 20
59.8932
 30
0.0000
  0
VERTEX
  8
51
 10
39.5478
 20
60.2488
 30
0.0000
  0
SEQEND
  8
0
  0
POLYLINE
  8
51
 66
1
 10
0.0000
 20
0.0000
 30
0.0000
 40
0.0762
 41
0.0762
 70
0
  0
VERTEX
  8
51
 10
39.5859
 20
60.2488
 30
0.0000
 42
1.0000
  0
VERTEX
  8
51
 10
39.5097
 20
60.2488
 30
0.0000
  0
SEQEND
  8
0
  0
POLYLINE
  8
51
 66
1
 10
0.0000
 20
0.0000
 30
0.0000
 40
0.0762
 41
0.0762
 70
0
  0
VERTEX
  8
51
 10
39.5097
 20
59.8932
 30
0.0000
 42
1.0000
  0
VERTEX
  8
51
 10
39.5859
 20
59.8932
 30
0.0000
  0
SEQEND
  8
0
  0
POLYLINE
  8
51
 66
1
 10
0.0000
 20
0.0000
 30
0.0000
 40
0.1524
 41
0.1524
 70
0
  0
VERTEX
  8
51
 10
39.9542
 20
59.8932
 30
0.0000
  0
VERTEX
  8
51
 10
39.9542
 20
60.2488
 30
0.0000
  0
SEQEND
  8
0
  0
POLYLINE
  8
51
 66
1
 10
0.0000
 20
0.0000
 30
0.0000
 40
0.0762
 41
0.0762
 70
0
  0
VERTEX
  8
51
 10
39.9923
 20
60.2488
 30
0.0000
 42
1.0000
  0
VERTEX
  8
51
 10
39.9161
 20
60.2488
 30
0.0000
  0
SEQEND
  8
0
  0
POLYLINE
  8
51
 66
1
 10
0.0000
 20
0.0000
 30
0.0000
 40
0.0762
 41
0.0762
 70
0
  0
VERTEX
  8
51
 10
39.9161
 20
59.8932
 30
0.0000
 42
1.0000
  0
VERTEX
  8
51
 10
39.9923
 20
59.8932
 30
0.0000
  0
SEQEND
  8
0
  0
POLYLINE
  8
51
 66
1
 10
0.0000
 20
0.0000
 30
0.0000
 40
0.1524
 41
0.1524
 70
0
  0
VERTEX
  8
51
 10
40.5892
 20
61.1632
 30
0.0000
  0
VERTEX
  8
51
 10
40.5892
 20
61.5188
 30
0.0000
  0
SEQEND
  8
0
  0
POLYLINE
  8
51
 66
1
 10
0.0000
 20
0.0000
 30
0.0000
 40
0.0762
 41
0.0762
 70
0
  0
VERTEX
  8
51
 10
40.6273
 20
61.5188
 30
0.0000
 42
1.0000
  0
VERTEX
  8
51
 10
40.5511
 20
61.5188
 30
0.0000
  0
SEQEND
  8
0
  0
POLYLINE
  8
51
 66
1
 10
0.0000
 20
0.0000
 30
0.0000
 40
0.0762
 41
0.0762
 70
0
  0
VERTEX
  8
51
 10
40.5511
 20
61.1632
 30
0.0000
 42
1.0000
  0
VERTEX
  8
51
 10
40.6273
 20
61.1632
 30
0.0000
  0
SEQEND
  8
0
  0
POLYLINE
  8
51
 66
1
 10
0.0000
 20
0.0000
 30
0.0000
 40
0.1524
 41
0.1524
 70
0
  0
VERTEX
  8
51
 10
39.5478
 20
61.5188
 30
0.0000
  0
VERTEX
  8
51
 10
39.9542
 20
61.5188
 30
0.0000
  0
SEQEND
  8
0
  0
POLYLINE
  8
51
 66
1
 10
0.0000
 20
0.0000
 30
0.0000
 40
0.0762
 41
0.0762
 70
0
  0
VERTEX
  8
51
 10
39.9542
 20
61.4807
 30
0.0000
 42
1.0000
  0
VERTEX
  8
51
 10
39.9542
 20
61.5569
 30
0.0000
  0
SEQEND
  8
0
  0
POLYLINE
  8
51
 66
1
 10
0.0000
 20
0.0000
 30
0.0000
 40
0.0762
 41
0.0762
 70
0
  0
VERTEX
  8
51
 10
39.5478
 20
61.5569
 30
0.0000
 42
1.0000
  0
VERTEX
  8
51
 10
39.5478
 20
61.4807
 30
0.0000
  0
SEQEND
  8
0
  0
POLYLINE
  8
51
 66
1
 10
0.0000
 20
0.0000
 30
0.0000
 40
0.1524
 41
0.1524
 70
0
  0
VERTEX
  8
51
 10
39.9542
 20
61.5188
 30
0.0000
  0
VERTEX
  8
51
 10
40.5892
 20
61.5188
 30
0.0000
  0
SEQEND
  8
0
  0
POLYLINE
  8
51
 66
1
 10
0.0000
 20
0.0000
 30
0.0000
 40
0.0762
 41
0.0762
 70
0
  0
VERTEX
  8
51
 10
40.5892
 20
61.4807
 30
0.0000
 42
1.0000
  0
VERTEX
  8
51
 10
40.5892
 20
61.5569
 30
0.0000
  0
SEQEND
  8
0
  0
POLYLINE
  8
51
 66
1
 10
0.0000
 20
0.0000
 30
0.0000
 40
0.0762
 41
0.0762
 70
0
  0
VERTEX
  8
51
 10
39.9542
 20
61.5569
 30
0.0000
 42
1.0000
  0
VERTEX
  8
51
 10
39.9542
 20
61.4807
 30
0.0000
  0
SEQEND
  8
0
  0
POLYLINE
  8
51
 66
1
 10
0.0000
 20
0.0000
 30
0.0000
 40
0.1524
 41
0.1524
 70
0
  0
VERTEX
  8
51
 10
39.5478
 20
61.1632
 30
0.0000
  0
VERTEX
  8
51
 10
39.9542
 20
61.1632
 30
0.0000
  0
SEQEND
  8
0
  0
POLYLINE
  8
51
 66
1
 10
0.0000
 20
0.0000
 30
0.0000
 40
0.0762
 41
0.0762
 70
0
  0
VERTEX
  8
51
 10
39.9542
 20
61.1251
 30
0.0000
 42
1.0000
  0
VERTEX
  8
51
 10
39.9542
 20
61.2013
 30
0.0000
  0
SEQEND
  8
0
  0
POLYLINE
  8
51
 66
1
 10
0.0000
 20
0.0000
 30
0.0000
 40
0.0762
 41
0.0762
 70
0
  0
VERTEX
  8
51
 10
39.5478
 20
61.2013
 30
0.0000
 42
1.0000
  0
VERTEX
  8
51
 10
39.5478
 20
61.1251
 30
0.0000
  0
SEQEND
  8
0
  0
POLYLINE
  8
51
 66
1
 10
0.0000
 20
0.0000
 30
0.0000
 40
0.1524
 41
0.1524
 70
0
  0
VERTEX
  8
51
 10
39.9542
 20
61.1632
 30
0.0000
  0
VERTEX
  8
51
 10
40.5892
 20
61.1632
 30
0.0000
  0
SEQEND
  8
0
  0
POLYLINE
  8
51
 66
1
 10
0.0000
 20
0.0000
 30
0.0000
 40
0.0762
 41
0.0762
 70
0
  0
VERTEX
  8
51
 10
40.5892
 20
61.1251
 30
0.0000
 42
1.0000
  0
VERTEX
  8
51
 10
40.5892
 20
61.2013
 30
0.0000
  0
SEQEND
  8
0
  0
POLYLINE
  8
51
 66
1
 10
0.0000
 20
0.0000
 30
0.0000
 40
0.0762
 41
0.0762
 70
0
  0
VERTEX
  8
51
 10
39.9542
 20
61.2013
 30
0.0000
 42
1.0000
  0
VERTEX
  8
51
 10
39.9542
 20
61.1251
 30
0.0000
  0
SEQEND
  8
0
  0
POLYLINE
  8
51
 66
1
 10
0.0000
 20
0.0000
 30
0.0000
 40
0.1524
 41
0.1524
 70
0
  0
VERTEX
  8
51
 10
39.5478
 20
61.1632
 30
0.0000
  0
VERTEX
  8
51
 10
39.5478
 20
61.5188
 30
0.0000
  0
SEQEND
  8
0
  0
POLYLINE
  8
51
 66
1
 10
0.0000
 20
0.0000
 30
0.0000
 40
0.0762
 41
0.0762
 70
0
  0
VERTEX
  8
51
 10
39.5859
 20
61.5188
 30
0.0000
 42
1.0000
  0
VERTEX
  8
51
 10
39.5097
 20
61.5188
 30
0.0000
  0
SEQEND
  8
0
  0
POLYLINE
  8
51
 66
1
 10
0.0000
 20
0.0000
 30
0.0000
 40
0.0762
 41
0.0762
 70
0
  0
VERTEX
  8
51
 10
39.5097
 20
61.1632
 30
0.0000
 42
1.0000
  0
VERTEX
  8
51
 10
39.5859
 20
61.1632
 30
0.0000
  0
SEQEND
  8
0
  0
POLYLINE
  8
51
 66
1
 10
0.0000
 20
0.0000
 30
0.0000
 40
0.1524
 41
0.1524
 70
0
  0
VERTEX
  8
51
 10
39.9542
 20
61.1632
 30
0.0000
  0
VERTEX
  8
51
 10
39.9542
 20
61.5188
 30
0.0000
  0
SEQEND
  8
0
  0
POLYLINE
  8
51
 66
1
 10
0.0000
 20
0.0000
 30
0.0000
 40
0.0762
 41
0.0762
 70
0
  0
VERTEX
  8
51
 10
39.9923
 20
61.5188
 30
0.0000
 42
1.0000
  0
VERTEX
  8
51
 10
39.9161
 20
61.5188
 30
0.0000
  0
SEQEND
  8
0
  0
POLYLINE
  8
51
 66
1
 10
0.0000
 20
0.0000
 30
0.0000
 40
0.0762
 41
0.0762
 70
0
  0
VERTEX
  8
51
 10
39.9161
 20
61.1632
 30
0.0000
 42
1.0000
  0
VERTEX
  8
51
 10
39.9923
 20
61.1632
 30
0.0000
  0
SEQEND
  8
0
  0
POLYLINE
  8
51
 66
1
 10
0.0000
 20
0.0000
 30
0.0000
 40
0.1524
 41
0.1524
 70
0
  0
VERTEX
  8
51
 10
40.5892
 20
62.4332
 30
0.0000
  0
VERTEX
  8
51
 10
40.5892
 20
62.7888
 30
0.0000
  0
SEQEND
  8
0
  0
POLYLINE
  8
51
 66
1
 10
0.0000
 20
0.0000
 30
0.0000
 40
0.0762
 41
0.0762
 70
0
  0
VERTEX
  8
51
 10
40.6273
 20
62.7888
 30
0.0000
 42
1.0000
  0
VERTEX
  8
51
 10
40.5511
 20
62.7888
 30
0.0000
  0
SEQEND
  8
0
  0
POLYLINE
  8
51
 66
1
 10
0.0000
 20
0.0000
 30
0.0000
 40
0.0762
 41
0.0762
 70
0
  0
VERTEX
  8
51
 10
40.5511
 20
62.4332
 30
0.0000
 42
1.0000
  0
VERTEX
  8
51
 10
40.6273
 20
62.4332
 30
0.0000
  0
SEQEND
  8
0
  0
POLYLINE
  8
51
 66
1
 10
0.0000
 20
0.0000
 30
0.0000
 40
0.1524
 41
0.1524
 70
0
  0
VERTEX
  8
51
 10
39.5478
 20
62.7888
 30
0.0000
  0
VERTEX
  8
51
 10
39.9542
 20
62.7888
 30
0.0000
  0
SEQEND
  8
0
  0
POLYLINE
  8
51
 66
1
 10
0.0000
 20
0.0000
 30
0.0000
 40
0.0762
 41
0.0762
 70
0
  0
VERTEX
  8
51
 10
39.9542
 20
62.7507
 30
0.0000
 42
1.0000
  0
VERTEX
  8
51
 10
39.9542
 20
62.8269
 30
0.0000
  0
SEQEND
  8
0
  0
POLYLINE
  8
51
 66
1
 10
0.0000
 20
0.0000
 30
0.0000
 40
0.0762
 41
0.0762
 70
0
  0
VERTEX
  8
51
 10
39.5478
 20
62.8269
 30
0.0000
 42
1.0000
  0
VERTEX
  8
51
 10
39.5478
 20
62.7507
 30
0.0000
  0
SEQEND
  8
0
  0
POLYLINE
  8
51
 66
1
 10
0.0000
 20
0.0000
 30
0.0000
 40
0.1524
 41
0.1524
 70
0
  0
VERTEX
  8
51
 10
39.9542
 20
62.7888
 30
0.0000
  0
VERTEX
  8
51
 10
40.5892
 20
62.7888
 30
0.0000
  0
SEQEND
  8
0
  0
POLYLINE
  8
51
 66
1
 10
0.0000
 20
0.0000
 30
0.0000
 40
0.0762
 41
0.0762
 70
0
  0
VERTEX
  8
51
 10
40.5892
 20
62.7507
 30
0.0000
 42
1.0000
  0
VERTEX
  8
51
 10
40.5892
 20
62.8269
 30
0.0000
  0
SEQEND
  8
0
  0
POLYLINE
  8
51
 66
1
 10
0.0000
 20
0.0000
 30
0.0000
 40
0.0762
 41
0.0762
 70
0
  0
VERTEX
  8
51
 10
39.9542
 20
62.8269
 30
0.0000
 42
1.0000
  0
VERTEX
  8
51
 10
39.9542
 20
62.7507
 30
0.0000
  0
SEQEND
  8
0
  0
POLYLINE
  8
51
 66
1
 10
0.0000
 20
0.0000
 30
0.0000
 40
0.1524
 41
0.1524
 70
0
  0
VERTEX
  8
51
 10
39.5478
 20
62.4332
 30
0.0000
  0
VERTEX
  8
51
 10
39.9542
 20
62.4332
 30
0.0000
  0
SEQEND
  8
0
  0
POLYLINE
  8
51
 66
1
 10
0.0000
 20
0.0000
 30
0.0000
 40
0.0762
 41
0.0762
 70
0
  0
VERTEX
  8
51
 10
39.9542
 20
62.3951
 30
0.0000
 42
1.0000
  0
VERTEX
  8
51
 10
39.9542
 20
62.4713
 30
0.0000
  0
SEQEND
  8
0
  0
POLYLINE
  8
51
 66
1
 10
0.0000
 20
0.0000
 30
0.0000
 40
0.0762
 41
0.0762
 70
0
  0
VERTEX
  8
51
 10
39.5478
 20
62.4713
 30
0.0000
 42
1.0000
  0
VERTEX
  8
51
 10
39.5478
 20
62.3951
 30
0.0000
  0
SEQEND
  8
0
  0
POLYLINE
  8
51
 66
1
 10
0.0000
 20
0.0000
 30
0.0000
 40
0.1524
 41
0.1524
 70
0
  0
VERTEX
  8
51
 10
39.9542
 20
62.4332
 30
0.0000
  0
VERTEX
  8
51
 10
40.5892
 20
62.4332
 30
0.0000
  0
SEQEND
  8
0
  0
POLYLINE
  8
51
 66
1
 10
0.0000
 20
0.0000
 30
0.0000
 40
0.0762
 41
0.0762
 70
0
  0
VERTEX
  8
51
 10
40.5892
 20
62.3951
 30
0.0000
 42
1.0000
  0
VERTEX
  8
51
 10
40.5892
 20
62.4713
 30
0.0000
  0
SEQEND
  8
0
  0
POLYLINE
  8
51
 66
1
 10
0.0000
 20
0.0000
 30
0.0000
 40
0.0762
 41
0.0762
 70
0
  0
VERTEX
  8
51
 10
39.9542
 20
62.4713
 30
0.0000
 42
1.0000
  0
VERTEX
  8
51
 10
39.9542
 20
62.3951
 30
0.0000
  0
SEQEND
  8
0
  0
POLYLINE
  8
51
 66
1
 10
0.0000
 20
0.0000
 30
0.0000
 40
0.1524
 41
0.1524
 70
0
  0
VERTEX
  8
51
 10
39.5478
 20
62.4332
 30
0.0000
  0
VERTEX
  8
51
 10
39.5478
 20
62.7888
 30
0.0000
  0
SEQEND
  8
0
  0
POLYLINE
  8
51
 66
1
 10
0.0000
 20
0.0000
 30
0.0000
 40
0.0762
 41
0.0762
 70
0
  0
VERTEX
  8
51
 10
39.5859
 20
62.7888
 30
0.0000
 42
1.0000
  0
VERTEX
  8
51
 10
39.5097
 20
62.7888
 30
0.0000
  0
SEQEND
  8
0
  0
POLYLINE
  8
51
 66
1
 10
0.0000
 20
0.0000
 30
0.0000
 40
0.0762
 41
0.0762
 70
0
  0
VERTEX
  8
51
 10
39.5097
 20
62.4332
 30
0.0000
 42
1.0000
  0
VERTEX
  8
51
 10
39.5859
 20
62.4332
 30
0.0000
  0
SEQEND
  8
0
  0
POLYLINE
  8
51
 66
1
 10
0.0000
 20
0.0000
 30
0.0000
 40
0.1524
 41
0.1524
 70
0
  0
VERTEX
  8
51
 10
39.9542
 20
62.4332
 30
0.0000
  0
VERTEX
  8
51
 10
39.9542
 20
62.7888
 30
0.0000
  0
SEQEND
  8
0
  0
POLYLINE
  8
51
 66
1
 10
0.0000
 20
0.0000
 30
0.0000
 40
0.0762
 41
0.0762
 70
0
  0
VERTEX
  8
51
 10
39.9923
 20
62.7888
 30
0.0000
 42
1.0000
  0
VERTEX
  8
51
 10
39.9161
 20
62.7888
 30
0.0000
  0
SEQEND
  8
0
  0
POLYLINE
  8
51
 66
1
 10
0.0000
 20
0.0000
 30
0.0000
 40
0.0762
 41
0.0762
 70
0
  0
VERTEX
  8
51
 10
39.9161
 20
62.4332
 30
0.0000
 42
1.0000
  0
VERTEX
  8
51
 10
39.9923
 20
62.4332
 30
0.0000
  0
SEQEND
  8
0
  0
POLYLINE
  8
51
 66
1
 10
0.0000
 20
0.0000
 30
0.0000
 40
0.1524
 41
0.1524
 70
0
  0
VERTEX
  8
51
 10
37.0332
 20
62.5602
 30
0.0000
 42
1.0000
  0
VERTEX
  8
51
 10
37.0332
 20
61.3664
 30
0.0000
  0
SEQEND
  8
0
  0
POLYLINE
  8
51
 66
1
 10
0.0000
 20
0.0000
 30
0.0000
 40
0.0762
 41
0.0762
 70
0
  0
VERTEX
  8
51
 10
37.0332
 20
62.5221
 30
0.0000
 42
1.0000
  0
VERTEX
  8
51
 10
37.0332
 20
62.5983
 30
0.0000
  0
SEQEND
  8
0
  0
POLYLINE
  8
51
 66
1
 10
0.0000
 20
0.0000
 30
0.0000
 40
0.0762
 41
0.0762
 70
0
  0
VERTEX
  8
51
 10
37.0332
 20
61.3283
 30
0.0000
 42
1.0000
  0
VERTEX
  8
51
 10
37.0332
 20
61.4045
 30
0.0000
  0
SEQEND
  8
0
  0
POLYLINE
  8
51
 66
1
 10
0.0000
 20
0.0000
 30
0.0000
 40
0.1524
 41
0.1524
 70
0
  0
VERTEX
  8
51
 10
35.6362
 20
58.3946
 30
0.0000
 42
0.4091
  0
VERTEX
  8
51
 10
35.7632
 20
58.2676
 30
0.0000
  0
SEQEND
  8
0
  0
POLYLINE
  8
51
 66
1
 10
0.0000
 20
0.0000
 30
0.0000
 40
0.0762
 41
0.0762
 70
0
  0
VERTEX
  8
51
 10
35.6743
 20
58.3949
 30
0.0000
 42
1.0000
  0
VERTEX
  8
51
 10
35.5981
 20
58.3943
 30
0.0000
  0
SEQEND
  8
0
  0
POLYLINE
  8
51
 66
1
 10
0.0000
 20
0.0000
 30
0.0000
 40
0.0762
 41
0.0762
 70
0
  0
VERTEX
  8
51
 10
35.7629
 20
58.2295
 30
0.0000
 42
1.0000
  0
VERTEX
  8
51
 10
35.7635
 20
58.3057
 30
0.0000
  0
SEQEND
  8
0
  0
POLYLINE
  8
51
 66
1
 10
0.0000
 20
0.0000
 30
0.0000
 40
0.1524
 41
0.1524
 70
0
  0
VERTEX
  8
51
 10
37.0332
 20
61.3664
 30
0.0000
 42
1.0000
  0
VERTEX
  8
51
 10
37.0332
 20
62.5602
 30
0.0000
  0
SEQEND
  8
0
  0
POLYLINE
  8
51
 66
1
 10
0.0000
 20
0.0000
 30
0.0000
 40
0.0762
 41
0.0762
 70
0
  0
VERTEX
  8
51
 10
37.0332
 20
61.4045
 30
0.0000
 42
1.0000
  0
VERTEX
  8
51
 10
37.0332
 20
61.3283
 30
0.0000
  0
SEQEND
  8
0
  0
POLYLINE
  8
51
 66
1
 10
0.0000
 20
0.0000
 30
0.0000
 40
0.0762
 41
0.0762
 70
0
  0
VERTEX
  8
51
 10
37.0332
 20
62.5983
 30
0.0000
 42
1.0000
  0
VERTEX
  8
51
 10
37.0332
 20
62.5221
 30
0.0000
  0
SEQEND
  8
0
  0
POLYLINE
  8
51
 66
1
 10
0.0000
 20
0.0000
 30
0.0000
 40
0.1524
 41
0.1524
 70
0
  0
VERTEX
  8
51
 10
39.4208
 20
58.2676
 30
0.0000
 42
0.4091
  0
VERTEX
  8
51
 10
39.5478
 20
58.3946
 30
0.0000
  0
SEQEND
  8
0
  0
POLYLINE
  8
51
 66
1
 10
0.0000
 20
0.0000
 30
0.0000
 40
0.0762
 41
0.0762
 70
0
  0
VERTEX
  8
51
 10
39.4205
 20
58.3057
 30
0.0000
 42
1.0000
  0
VERTEX
  8
51
 10
39.4211
 20
58.2295
 30
0.0000
  0
SEQEND
  8
0
  0
POLYLINE
  8
51
 66
1
 10
0.0000
 20
0.0000
 30
0.0000
 40
0.0762
 41
0.0762
 70
0
  0
VERTEX
  8
51
 10
39.5859
 20
58.3943
 30
0.0000
 42
1.0000
  0
VERTEX
  8
51
 10
39.5097
 20
58.3949
 30
0.0000
  0
SEQEND
  8
0
  0
POLYLINE
  8
51
 66
1
 10
0.0000
 20
0.0000
 30
0.0000
 40
0.1524
 41
0.1524
 70
0
  0
VERTEX
  8
51
 10
35.7632
 20
63.1444
 30
0.0000
 42
0.4091
  0
VERTEX
  8
51
 10
35.6362
 20
63.0174
 30
0.0000
  0
SEQEND
  8
0
  0
POLYLINE
  8
51
 66
1
 10
0.0000
 20
0.0000
 30
0.0000
 40
0.0762
 41
0.0762
 70
0
  0
VERTEX
  8
51
 10
35.7635
 20
63.1063
 30
0.0000
 42
1.0000
  0
VERTEX
  8
51
 10
35.7629
 20
63.1825
 30
0.0000
  0
SEQEND
  8
0
  0
POLYLINE
  8
51
 66
1
 10
0.0000
 20
0.0000
 30
0.0000
 40
0.0762
 41
0.0762
 70
0
  0
VERTEX
  8
51
 10
35.5981
 20
63.0177
 30
0.0000
 42
1.0000
  0
VERTEX
  8
51
 10
35.6743
 20
63.0171
 30
0.0000
  0
SEQEND
  8
0
  0
POLYLINE
  8
51
 66
1
 10
0.0000
 20
0.0000
 30
0.0000
 40
0.1524
 41
0.1524
 70
0
  0
VERTEX
  8
51
 10
39.5478
 20
63.0174
 30
0.0000
 42
0.4091
  0
VERTEX
  8
51
 10
39.4208
 20
63.1444
 30
0.0000
  0
SEQEND
  8
0
  0
POLYLINE
  8
51
 66
1
 10
0.0000
 20
0.0000
 30
0.0000
 40
0.0762
 41
0.0762
 70
0
  0
VERTEX
  8
51
 10
39.5097
 20
63.0171
 30
0.0000
 42
1.0000
  0
VERTEX
  8
51
 10
39.5859
 20
63.0177
 30
0.0000
  0
SEQEND
  8
0
  0
POLYLINE
  8
51
 66
1
 10
0.0000
 20
0.0000
 30
0.0000
 40
0.0762
 41
0.0762
 70
0
  0
VERTEX
  8
51
 10
39.4211
 20
63.1825
 30
0.0000
 42
1.0000
  0
VERTEX
  8
51
 10
39.4205
 20
63.1063
 30
0.0000
  0
SEQEND
  8
0
  0
POLYLINE
  8
51
 66
1
 10
0.0000
 20
0.0000
 30
0.0000
 40
0.1524
 41
0.1524
 70
0
  0
VERTEX
  8
51
 10
21.8186
 20
75.9714
 30
0.0000
  0
VERTEX
  8
51
 10
21.8186
 20
76.3524
 30
0.0000
  0
SEQEND
  8
0
  0
POLYLINE
  8
51
 66
1
 10
0.0000
 20
0.0000
 30
0.0000
 40
0.0762
 41
0.0762
 70
0
  0
VERTEX
  8
51
 10
21.8567
 20
76.3524
 30
0.0000
 42
1.0000
  0
VERTEX
  8
51
 10
21.7805
 20
76.3524
 30
0.0000
  0
SEQEND
  8
0
  0
POLYLINE
  8
51
 66
1
 10
0.0000
 20
0.0000
 30
0.0000
 40
0.0762
 41
0.0762
 70
0
  0
VERTEX
  8
51
 10
21.7805
 20
75.9714
 30
0.0000
 42
1.0000
  0
VERTEX
  8
51
 10
21.8567
 20
75.9714
 30
0.0000
  0
SEQEND
  8
0
  0
POLYLINE
  8
51
 66
1
 10
0.0000
 20
0.0000
 30
0.0000
 40
0.1524
 41
0.1524
 70
0
  0
VERTEX
  8
51
 10
21.8186
 20
76.3524
 30
0.0000
  0
VERTEX
  8
51
 10
20.8280
 20
76.3524
 30
0.0000
  0
SEQEND
  8
0
  0
POLYLINE
  8
51
 66
1
 10
0.0000
 20
0.0000
 30
0.0000
 40
0.0762
 41
0.0762
 70
0
  0
VERTEX
  8
51
 10
20.8280
 20
76.3905
 30
0.0000
 42
1.0000
  0
VERTEX
  8
51
 10
20.8280
 20
76.3143
 30
0.0000
  0
SEQEND
  8
0
  0
POLYLINE
  8
51
 66
1
 10
0.0000
 20
0.0000
 30
0.0000
 40
0.0762
 41
0.0762
 70
0
  0
VERTEX
  8
51
 10
21.8186
 20
76.3143
 30
0.0000
 42
1.0000
  0
VERTEX
  8
51
 10
21.8186
 20
76.3905
 30
0.0000
  0
SEQEND
  8
0
  0
POLYLINE
  8
51
 66
1
 10
0.0000
 20
0.0000
 30
0.0000
 40
0.1524
 41
0.1524
 70
0
  0
VERTEX
  8
51
 10
20.8280
 20
76.3524
 30
0.0000
  0
VERTEX
  8
51
 10
20.8280
 20
75.9714
 30
0.0000
  0
SEQEND
  8
0
  0
POLYLINE
  8
51
 66
1
 10
0.0000
 20
0.0000
 30
0.0000
 40
0.0762
 41
0.0762
 70
0
  0
VERTEX
  8
51
 10
20.7899
 20
75.9714
 30
0.0000
 42
1.0000
  0
VERTEX
  8
51
 10
20.8661
 20
75.9714
 30
0.0000
  0
SEQEND
  8
0
  0
POLYLINE
  8
51
 66
1
 10
0.0000
 20
0.0000
 30
0.0000
 40
0.0762
 41
0.0762
 70
0
  0
VERTEX
  8
51
 10
20.8661
 20
76.3524
 30
0.0000
 42
1.0000
  0
VERTEX
  8
51
 10
20.7899
 20
76.3524
 30
0.0000
  0
SEQEND
  8
0
  0
POLYLINE
  8
51
 66
1
 10
0.0000
 20
0.0000
 30
0.0000
 40
0.1524
 41
0.1524
 70
0
  0
VERTEX
  8
51
 10
20.8280
 20
75.9714
 30
0.0000
  0
VERTEX
  8
51
 10
21.8186
 20
75.9714
 30
0.0000
  0
SEQEND
  8
0
  0
POLYLINE
  8
51
 66
1
 10
0.0000
 20
0.0000
 30
0.0000
 40
0.0762
 41
0.0762
 70
0
  0
VERTEX
  8
51
 10
21.8186
 20
75.9333
 30
0.0000
 42
1.0000
  0
VERTEX
  8
51
 10
21.8186
 20
76.0095
 30
0.0000
  0
SEQEND
  8
0
  0
POLYLINE
  8
51
 66
1
 10
0.0000
 20
0.0000
 30
0.0000
 40
0.0762
 41
0.0762
 70
0
  0
VERTEX
  8
51
 10
20.8280
 20
76.0095
 30
0.0000
 42
1.0000
  0
VERTEX
  8
51
 10
20.8280
 20
75.9333
 30
0.0000
  0
SEQEND
  8
0
  0
POLYLINE
  8
51
 66
1
 10
0.0000
 20
0.0000
 30
0.0000
 40
0.1524
 41
0.1524
 70
0
  0
VERTEX
  8
51
 10
21.8186
 20
75.3110
 30
0.0000
  0
VERTEX
  8
51
 10
21.8186
 20
75.6920
 30
0.0000
  0
SEQEND
  8
0
  0
POLYLINE
  8
51
 66
1
 10
0.0000
 20
0.0000
 30
0.0000
 40
0.0762
 41
0.0762
 70
0
  0
VERTEX
  8
51
 10
21.8567
 20
75.6920
 30
0.0000
 42
1.0000
  0
VERTEX
  8
51
 10
21.7805
 20
75.6920
 30
0.0000
  0
SEQEND
  8
0
  0
POLYLINE
  8
51
 66
1
 10
0.0000
 20
0.0000
 30
0.0000
 40
0.0762
 41
0.0762
 70
0
  0
VERTEX
  8
51
 10
21.7805
 20
75.3110
 30
0.0000
 42
1.0000
  0
VERTEX
  8
51
 10
21.8567
 20
75.3110
 30
0.0000
  0
SEQEND
  8
0
  0
POLYLINE
  8
51
 66
1
 10
0.0000
 20
0.0000
 30
0.0000
 40
0.1524
 41
0.1524
 70
0
  0
VERTEX
  8
51
 10
21.8186
 20
75.6920
 30
0.0000
  0
VERTEX
  8
51
 10
20.8280
 20
75.6920
 30
0.0000
  0
SEQEND
  8
0
  0
POLYLINE
  8
51
 66
1
 10
0.0000
 20
0.0000
 30
0.0000
 40
0.0762
 41
0.0762
 70
0
  0
VERTEX
  8
51
 10
20.8280
 20
75.7301
 30
0.0000
 42
1.0000
  0
VERTEX
  8
51
 10
20.8280
 20
75.6539
 30
0.0000
  0
SEQEND
  8
0
  0
POLYLINE
  8
51
 66
1
 10
0.0000
 20
0.0000
 30
0.0000
 40
0.0762
 41
0.0762
 70
0
  0
VERTEX
  8
51
 10
21.8186
 20
75.6539
 30
0.0000
 42
1.0000
  0
VERTEX
  8
51
 10
21.8186
 20
75.7301
 30
0.0000
  0
SEQEND
  8
0
  0
POLYLINE
  8
51
 66
1
 10
0.0000
 20
0.0000
 30
0.0000
 40
0.1524
 41
0.1524
 70
0
  0
VERTEX
  8
51
 10
20.8280
 20
75.6920
 30
0.0000
  0
VERTEX
  8
51
 10
20.8280
 20
75.3110
 30
0.0000
  0
SEQEND
  8
0
  0
POLYLINE
  8
51
 66
1
 10
0.0000
 20
0.0000
 30
0.0000
 40
0.0762
 41
0.0762
 70
0
  0
VERTEX
  8
51
 10
20.7899
 20
75.3110
 30
0.0000
 42
1.0000
  0
VERTEX
  8
51
 10
20.8661
 20
75.3110
 30
0.0000
  0
SEQEND
  8
0
  0
POLYLINE
  8
51
 66
1
 10
0.0000
 20
0.0000
 30
0.0000
 40
0.0762
 41
0.0762
 70
0
  0
VERTEX
  8
51
 10
20.8661
 20
75.6920
 30
0.0000
 42
1.0000
  0
VERTEX
  8
51
 10
20.7899
 20
75.6920
 30
0.0000
  0
SEQEND
  8
0
  0
POLYLINE
  8
51
 66
1
 10
0.0000
 20
0.0000
 30
0.0000
 40
0.1524
 41
0.1524
 70
0
  0
VERTEX
  8
51
 10
20.8280
 20
75.3110
 30
0.0000
  0
VERTEX
  8
51
 10
21.8186
 20
75.3110
 30
0.0000
  0
SEQEND
  8
0
  0
POLYLINE
  8
51
 66
1
 10
0.0000
 20
0.0000
 30
0.0000
 40
0.0762
 41
0.0762
 70
0
  0
VERTEX
  8
51
 10
21.8186
 20
75.2729
 30
0.0000
 42
1.0000
  0
VERTEX
  8
51
 10
21.8186
 20
75.3491
 30
0.0000
  0
SEQEND
  8
0
  0
POLYLINE
  8
51
 66
1
 10
0.0000
 20
0.0000
 30
0.0000
 40
0.0762
 41
0.0762
 70
0
  0
VERTEX
  8
51
 10
20.8280
 20
75.3491
 30
0.0000
 42
1.0000
  0
VERTEX
  8
51
 10
20.8280
 20
75.2729
 30
0.0000
  0
SEQEND
  8
0
  0
POLYLINE
  8
51
 66
1
 10
0.0000
 20
0.0000
 30
0.0000
 40
0.1524
 41
0.1524
 70
0
  0
VERTEX
  8
51
 10
21.8186
 20
74.6760
 30
0.0000
  0
VERTEX
  8
51
 10
21.8186
 20
75.0570
 30
0.0000
  0
SEQEND
  8
0
  0
POLYLINE
  8
51
 66
1
 10
0.0000
 20
0.0000
 30
0.0000
 40
0.0762
 41
0.0762
 70
0
  0
VERTEX
  8
51
 10
21.8567
 20
75.0570
 30
0.0000
 42
1.0000
  0
VERTEX
  8
51
 10
21.7805
 20
75.0570
 30
0.0000
  0
SEQEND
  8
0
  0
POLYLINE
  8
51
 66
1
 10
0.0000
 20
0.0000
 30
0.0000
 40
0.0762
 41
0.0762
 70
0
  0
VERTEX
  8
51
 10
21.7805
 20
74.6760
 30
0.0000
 42
1.0000
  0
VERTEX
  8
51
 10
21.8567
 20
74.6760
 30
0.0000
  0
SEQEND
  8
0
  0
POLYLINE
  8
51
 66
1
 10
0.0000
 20
0.0000
 30
0.0000
 40
0.1524
 41
0.1524
 70
0
  0
VERTEX
  8
51
 10
21.8186
 20
75.0570
 30
0.0000
  0
VERTEX
  8
51
 10
20.8280
 20
75.0570
 30
0.0000
  0
SEQEND
  8
0
  0
POLYLINE
  8
51
 66
1
 10
0.0000
 20
0.0000
 30
0.0000
 40
0.0762
 41
0.0762
 70
0
  0
VERTEX
  8
51
 10
20.8280
 20
75.0951
 30
0.0000
 42
1.0000
  0
VERTEX
  8
51
 10
20.8280
 20
75.0189
 30
0.0000
  0
SEQEND
  8
0
  0
POLYLINE
  8
51
 66
1
 10
0.0000
 20
0.0000
 30
0.0000
 40
0.0762
 41
0.0762
 70
0
  0
VERTEX
  8
51
 10
21.8186
 20
75.0189
 30
0.0000
 42
1.0000
  0
VERTEX
  8
51
 10
21.8186
 20
75.0951
 30
0.0000
  0
SEQEND
  8
0
  0
POLYLINE
  8
51
 66
1
 10
0.0000
 20
0.0000
 30
0.0000
 40
0.1524
 41
0.1524
 70
0
  0
VERTEX
  8
51
 10
20.8280
 20
75.0570
 30
0.0000
  0
VERTEX
  8
51
 10
20.8280
 20
74.6760
 30
0.0000
  0
SEQEND
  8
0
  0
POLYLINE
  8
51
 66
1
 10
0.0000
 20
0.0000
 30
0.0000
 40
0.0762
 41
0.0762
 70
0
  0
VERTEX
  8
51
 10
20.7899
 20
74.6760
 30
0.0000
 42
1.0000
  0
VERTEX
  8
51
 10
20.8661
 20
74.6760
 30
0.0000
  0
SEQEND
  8
0
  0
POLYLINE
  8
51
 66
1
 10
0.0000
 20
0.0000
 30
0.0000
 40
0.0762
 41
0.0762
 70
0
  0
VERTEX
  8
51
 10
20.8661
 20
75.0570
 30
0.0000
 42
1.0000
  0
VERTEX
  8
51
 10
20.7899
 20
75.0570
 30
0.0000
  0
SEQEND
  8
0
  0
POLYLINE
  8
51
 66
1
 10
0.0000
 20
0.0000
 30
0.0000
 40
0.1524
 41
0.1524
 70
0
  0
VERTEX
  8
51
 10
20.8280
 20
74.6760
 30
0.0000
  0
VERTEX
  8
51
 10
21.8186
 20
74.6760
 30
0.0000
  0
SEQEND
  8
0
  0
POLYLINE
  8
51
 66
1
 10
0.0000
 20
0.0000
 30
0.0000
 40
0.0762
 41
0.0762
 70
0
  0
VERTEX
  8
51
 10
21.8186
 20
74.6379
 30
0.0000
 42
1.0000
  0
VERTEX
  8
51
 10
21.8186
 20
74.7141
 30
0.0000
  0
SEQEND
  8
0
  0
POLYLINE
  8
51
 66
1
 10
0.0000
 20
0.0000
 30
0.0000
 40
0.0762
 41
0.0762
 70
0
  0
VERTEX
  8
51
 10
20.8280
 20
74.7141
 30
0.0000
 42
1.0000
  0
VERTEX
  8
51
 10
20.8280
 20
74.6379
 30
0.0000
  0
SEQEND
  8
0
  0
POLYLINE
  8
51
 66
1
 10
0.0000
 20
0.0000
 30
0.0000
 40
0.1524
 41
0.1524
 70
0
  0
VERTEX
  8
51
 10
21.8186
 20
74.0156
 30
0.0000
  0
VERTEX
  8
51
 10
21.8186
 20
74.3966
 30
0.0000
  0
SEQEND
  8
0
  0
POLYLINE
  8
51
 66
1
 10
0.0000
 20
0.0000
 30
0.0000
 40
0.0762
 41
0.0762
 70
0
  0
VERTEX
  8
51
 10
21.8567
 20
74.3966
 30
0.0000
 42
1.0000
  0
VERTEX
  8
51
 10
21.7805
 20
74.3966
 30
0.0000
  0
SEQEND
  8
0
  0
POLYLINE
  8
51
 66
1
 10
0.0000
 20
0.0000
 30
0.0000
 40
0.0762
 41
0.0762
 70
0
  0
VERTEX
  8
51
 10
21.7805
 20
74.0156
 30
0.0000
 42
1.0000
  0
VERTEX
  8
51
 10
21.8567
 20
74.0156
 30
0.0000
  0
SEQEND
  8
0
  0
POLYLINE
  8
51
 66
1
 10
0.0000
 20
0.0000
 30
0.0000
 40
0.1524
 41
0.1524
 70
0
  0
VERTEX
  8
51
 10
21.8186
 20
74.3966
 30
0.0000
  0
VERTEX
  8
51
 10
20.8280
 20
74.3966
 30
0.0000
  0
SEQEND
  8
0
  0
POLYLINE
  8
51
 66
1
 10
0.0000
 20
0.0000
 30
0.0000
 40
0.0762
 41
0.0762
 70
0
  0
VERTEX
  8
51
 10
20.8280
 20
74.4347
 30
0.0000
 42
1.0000
  0
VERTEX
  8
51
 10
20.8280
 20
74.3585
 30
0.0000
  0
SEQEND
  8
0
  0
POLYLINE
  8
51
 66
1
 10
0.0000
 20
0.0000
 30
0.0000
 40
0.0762
 41
0.0762
 70
0
  0
VERTEX
  8
51
 10
21.8186
 20
74.3585
 30
0.0000
 42
1.0000
  0
VERTEX
  8
51
 10
21.8186
 20
74.4347
 30
0.0000
  0
SEQEND
  8
0
  0
POLYLINE
  8
51
 66
1
 10
0.0000
 20
0.0000
 30
0.0000
 40
0.1524
 41
0.1524
 70
0
  0
VERTEX
  8
51
 10
20.8280
 20
74.3966
 30
0.0000
  0
VERTEX
  8
51
 10
20.8280
 20
74.0156
 30
0.0000
  0
SEQEND
  8
0
  0
POLYLINE
  8
51
 66
1
 10
0.0000
 20
0.0000
 30
0.0000
 40
0.0762
 41
0.0762
 70
0
  0
VERTEX
  8
51
 10
20.7899
 20
74.0156
 30
0.0000
 42
1.0000
  0
VERTEX
  8
51
 10
20.8661
 20
74.0156
 30
0.0000
  0
SEQEND
  8
0
  0
POLYLINE
  8
51
 66
1
 10
0.0000
 20
0.0000
 30
0.0000
 40
0.0762
 41
0.0762
 70
0
  0
VERTEX
  8
51
 10
20.8661
 20
74.3966
 30
0.0000
 42
1.0000
  0
VERTEX
  8
51
 10
20.7899
 20
74.3966
 30
0.0000
  0
SEQEND
  8
0
  0
POLYLINE
  8
51
 66
1
 10
0.0000
 20
0.0000
 30
0.0000
 40
0.1524
 41
0.1524
 70
0
  0
VERTEX
  8
51
 10
20.8280
 20
74.0156
 30
0.0000
  0
VERTEX
  8
51
 10
21.8186
 20
74.0156
 30
0.0000
  0
SEQEND
  8
0
  0
POLYLINE
  8
51
 66
1
 10
0.0000
 20
0.0000
 30
0.0000
 40
0.0762
 41
0.0762
 70
0
  0
VERTEX
  8
51
 10
21.8186
 20
73.9775
 30
0.0000
 42
1.0000
  0
VERTEX
  8
51
 10
21.8186
 20
74.0537
 30
0.0000
  0
SEQEND
  8
0
  0
POLYLINE
  8
51
 66
1
 10
0.0000
 20
0.0000
 30
0.0000
 40
0.0762
 41
0.0762
 70
0
  0
VERTEX
  8
51
 10
20.8280
 20
74.0537
 30
0.0000
 42
1.0000
  0
VERTEX
  8
51
 10
20.8280
 20
73.9775
 30
0.0000
  0
SEQEND
  8
0
  0
POLYLINE
  8
51
 66
1
 10
0.0000
 20
0.0000
 30
0.0000
 40
0.1524
 41
0.1524
 70
0
  0
VERTEX
  8
51
 10
24.9174
 20
74.3966
 30
0.0000
  0
VERTEX
  8
51
 10
24.9174
 20
74.0156
 30
0.0000
  0
SEQEND
  8
0
  0
POLYLINE
  8
51
 66
1
 10
0.0000
 20
0.0000
 30
0.0000
 40
0.0762
 41
0.0762
 70
0
  0
VERTEX
  8
51
 10
24.8793
 20
74.0156
 30
0.0000
 42
1.0000
  0
VERTEX
  8
51
 10
24.9555
 20
74.0156
 30
0.0000
  0
SEQEND
  8
0
  0
POLYLINE
  8
51
 66
1
 10
0.0000
 20
0.0000
 30
0.0000
 40
0.0762
 41
0.0762
 70
0
  0
VERTEX
  8
51
 10
24.9555
 20
74.3966
 30
0.0000
 42
1.0000
  0
VERTEX
  8
51
 10
24.8793
 20
74.3966
 30
0.0000
  0
SEQEND
  8
0
  0
POLYLINE
  8
51
 66
1
 10
0.0000
 20
0.0000
 30
0.0000
 40
0.1524
 41
0.1524
 70
0
  0
VERTEX
  8
51
 10
24.9174
 20
74.0156
 30
0.0000
  0
VERTEX
  8
51
 10
25.9080
 20
74.0156
 30
0.0000
  0
SEQEND
  8
0
  0
POLYLINE
  8
51
 66
1
 10
0.0000
 20
0.0000
 30
0.0000
 40
0.0762
 41
0.0762
 70
0
  0
VERTEX
  8
51
 10
25.9080
 20
73.9775
 30
0.0000
 42
1.0000
  0
VERTEX
  8
51
 10
25.9080
 20
74.0537
 30
0.0000
  0
SEQEND
  8
0
  0
POLYLINE
  8
51
 66
1
 10
0.0000
 20
0.0000
 30
0.0000
 40
0.0762
 41
0.0762
 70
0
  0
VERTEX
  8
51
 10
24.9174
 20
74.0537
 30
0.0000
 42
1.0000
  0
VERTEX
  8
51
 10
24.9174
 20
73.9775
 30
0.0000
  0
SEQEND
  8
0
  0
POLYLINE
  8
51
 66
1
 10
0.0000
 20
0.0000
 30
0.0000
 40
0.1524
 41
0.1524
 70
0
  0
VERTEX
  8
51
 10
25.9080
 20
74.0156
 30
0.0000
  0
VERTEX
  8
51
 10
25.9080
 20
74.3966
 30
0.0000
  0
SEQEND
  8
0
  0
POLYLINE
  8
51
 66
1
 10
0.0000
 20
0.0000
 30
0.0000
 40
0.0762
 41
0.0762
 70
0
  0
VERTEX
  8
51
 10
25.9461
 20
74.3966
 30
0.0000
 42
1.0000
  0
VERTEX
  8
51
 10
25.8699
 20
74.3966
 30
0.0000
  0
SEQEND
  8
0
  0
POLYLINE
  8
51
 66
1
 10
0.0000
 20
0.0000
 30
0.0000
 40
0.0762
 41
0.0762
 70
0
  0
VERTEX
  8
51
 10
25.8699
 20
74.0156
 30
0.0000
 42
1.0000
  0
VERTEX
  8
51
 10
25.9461
 20
74.0156
 30
0.0000
  0
SEQEND
  8
0
  0
POLYLINE
  8
51
 66
1
 10
0.0000
 20
0.0000
 30
0.0000
 40
0.1524
 41
0.1524
 70
0
  0
VERTEX
  8
51
 10
25.9080
 20
74.3966
 30
0.0000
  0
VERTEX
  8
51
 10
24.9174
 20
74.3966
 30
0.0000
  0
SEQEND
  8
0
  0
POLYLINE
  8
51
 66
1
 10
0.0000
 20
0.0000
 30
0.0000
 40
0.0762
 41
0.0762
 70
0
  0
VERTEX
  8
51
 10
24.9174
 20
74.4347
 30
0.0000
 42
1.0000
  0
VERTEX
  8
51
 10
24.9174
 20
74.3585
 30
0.0000
  0
SEQEND
  8
0
  0
POLYLINE
  8
51
 66
1
 10
0.0000
 20
0.0000
 30
0.0000
 40
0.0762
 41
0.0762
 70
0
  0
VERTEX
  8
51
 10
25.9080
 20
74.3585
 30
0.0000
 42
1.0000
  0
VERTEX
  8
51
 10
25.9080
 20
74.4347
 30
0.0000
  0
SEQEND
  8
0
  0
POLYLINE
  8
51
 66
1
 10
0.0000
 20
0.0000
 30
0.0000
 40
0.1524
 41
0.1524
 70
0
  0
VERTEX
  8
51
 10
24.9174
 20
75.0570
 30
0.0000
  0
VERTEX
  8
51
 10
24.9174
 20
74.6760
 30
0.0000
  0
SEQEND
  8
0
  0
POLYLINE
  8
51
 66
1
 10
0.0000
 20
0.0000
 30
0.0000
 40
0.0762
 41
0.0762
 70
0
  0
VERTEX
  8
51
 10
24.8793
 20
74.6760
 30
0.0000
 42
1.0000
  0
VERTEX
  8
51
 10
24.9555
 20
74.6760
 30
0.0000
  0
SEQEND
  8
0
  0
POLYLINE
  8
51
 66
1
 10
0.0000
 20
0.0000
 30
0.0000
 40
0.0762
 41
0.0762
 70
0
  0
VERTEX
  8
51
 10
24.9555
 20
75.0570
 30
0.0000
 42
1.0000
  0
VERTEX
  8
51
 10
24.8793
 20
75.0570
 30
0.0000
  0
SEQEND
  8
0
  0
POLYLINE
  8
51
 66
1
 10
0.0000
 20
0.0000
 30
0.0000
 40
0.1524
 41
0.1524
 70
0
  0
VERTEX
  8
51
 10
24.9174
 20
74.6760
 30
0.0000
  0
VERTEX
  8
51
 10
25.9080
 20
74.6760
 30
0.0000
  0
SEQEND
  8
0
  0
POLYLINE
  8
51
 66
1
 10
0.0000
 20
0.0000
 30
0.0000
 40
0.0762
 41
0.0762
 70
0
  0
VERTEX
  8
51
 10
25.9080
 20
74.6379
 30
0.0000
 42
1.0000
  0
VERTEX
  8
51
 10
25.9080
 20
74.7141
 30
0.0000
  0
SEQEND
  8
0
  0
POLYLINE
  8
51
 66
1
 10
0.0000
 20
0.0000
 30
0.0000
 40
0.0762
 41
0.0762
 70
0
  0
VERTEX
  8
51
 10
24.9174
 20
74.7141
 30
0.0000
 42
1.0000
  0
VERTEX
  8
51
 10
24.9174
 20
74.6379
 30
0.0000
  0
SEQEND
  8
0
  0
POLYLINE
  8
51
 66
1
 10
0.0000
 20
0.0000
 30
0.0000
 40
0.1524
 41
0.1524
 70
0
  0
VERTEX
  8
51
 10
25.9080
 20
74.6760
 30
0.0000
  0
VERTEX
  8
51
 10
25.9080
 20
75.0570
 30
0.0000
  0
SEQEND
  8
0
  0
POLYLINE
  8
51
 66
1
 10
0.0000
 20
0.0000
 30
0.0000
 40
0.0762
 41
0.0762
 70
0
  0
VERTEX
  8
51
 10
25.9461
 20
75.0570
 30
0.0000
 42
1.0000
  0
VERTEX
  8
51
 10
25.8699
 20
75.0570
 30
0.0000
  0
SEQEND
  8
0
  0
POLYLINE
  8
51
 66
1
 10
0.0000
 20
0.0000
 30
0.0000
 40
0.0762
 41
0.0762
 70
0
  0
VERTEX
  8
51
 10
25.8699
 20
74.6760
 30
0.0000
 42
1.0000
  0
VERTEX
  8
51
 10
25.9461
 20
74.6760
 30
0.0000
  0
SEQEND
  8
0
  0
POLYLINE
  8
51
 66
1
 10
0.0000
 20
0.0000
 30
0.0000
 40
0.1524
 41
0.1524
 70
0
  0
VERTEX
  8
51
 10
25.9080
 20
75.0570
 30
0.0000
  0
VERTEX
  8
51
 10
24.9174
 20
75.0570
 30
0.0000
  0
SEQEND
  8
0
  0
POLYLINE
  8
51
 66
1
 10
0.0000
 20
0.0000
 30
0.0000
 40
0.0762
 41
0.0762
 70
0
  0
VERTEX
  8
51
 10
24.9174
 20
75.0951
 30
0.0000
 42
1.0000
  0
VERTEX
  8
51
 10
24.9174
 20
75.0189
 30
0.0000
  0
SEQEND
  8
0
  0
POLYLINE
  8
51
 66
1
 10
0.0000
 20
0.0000
 30
0.0000
 40
0.0762
 41
0.0762
 70
0
  0
VERTEX
  8
51
 10
25.9080
 20
75.0189
 30
0.0000
 42
1.0000
  0
VERTEX
  8
51
 10
25.9080
 20
75.0951
 30
0.0000
  0
SEQEND
  8
0
  0
POLYLINE
  8
51
 66
1
 10
0.0000
 20
0.0000
 30
0.0000
 40
0.1524
 41
0.1524
 70
0
  0
VERTEX
  8
51
 10
24.9174
 20
75.6920
 30
0.0000
  0
VERTEX
  8
51
 10
24.9174
 20
75.3110
 30
0.0000
  0
SEQEND
  8
0
  0
POLYLINE
  8
51
 66
1
 10
0.0000
 20
0.0000
 30
0.0000
 40
0.0762
 41
0.0762
 70
0
  0
VERTEX
  8
51
 10
24.8793
 20
75.3110
 30
0.0000
 42
1.0000
  0
VERTEX
  8
51
 10
24.9555
 20
75.3110
 30
0.0000
  0
SEQEND
  8
0
  0
POLYLINE
  8
51
 66
1
 10
0.0000
 20
0.0000
 30
0.0000
 40
0.0762
 41
0.0762
 70
0
  0
VERTEX
  8
51
 10
24.9555
 20
75.6920
 30
0.0000
 42
1.0000
  0
VERTEX
  8
51
 10
24.8793
 20
75.6920
 30
0.0000
  0
SEQEND
  8
0
  0
POLYLINE
  8
51
 66
1
 10
0.0000
 20
0.0000
 30
0.0000
 40
0.1524
 41
0.1524
 70
0
  0
VERTEX
  8
51
 10
24.9174
 20
75.3110
 30
0.0000
  0
VERTEX
  8
51
 10
25.9080
 20
75.3110
 30
0.0000
  0
SEQEND
  8
0
  0
POLYLINE
  8
51
 66
1
 10
0.0000
 20
0.0000
 30
0.0000
 40
0.0762
 41
0.0762
 70
0
  0
VERTEX
  8
51
 10
25.9080
 20
75.2729
 30
0.0000
 42
1.0000
  0
VERTEX
  8
51
 10
25.9080
 20
75.3491
 30
0.0000
  0
SEQEND
  8
0
  0
POLYLINE
  8
51
 66
1
 10
0.0000
 20
0.0000
 30
0.0000
 40
0.0762
 41
0.0762
 70
0
  0
VERTEX
  8
51
 10
24.9174
 20
75.3491
 30
0.0000
 42
1.0000
  0
VERTEX
  8
51
 10
24.9174
 20
75.2729
 30
0.0000
  0
SEQEND
  8
0
  0
POLYLINE
  8
51
 66
1
 10
0.0000
 20
0.0000
 30
0.0000
 40
0.1524
 41
0.1524
 70
0
  0
VERTEX
  8
51
 10
25.9080
 20
75.3110
 30
0.0000
  0
VERTEX
  8
51
 10
25.9080
 20
75.6920
 30
0.0000
  0
SEQEND
  8
0
  0
POLYLINE
  8
51
 66
1
 10
0.0000
 20
0.0000
 30
0.0000
 40
0.0762
 41
0.0762
 70
0
  0
VERTEX
  8
51
 10
25.9461
 20
75.6920
 30
0.0000
 42
1.0000
  0
VERTEX
  8
51
 10
25.8699
 20
75.6920
 30
0.0000
  0
SEQEND
  8
0
  0
POLYLINE
  8
51
 66
1
 10
0.0000
 20
0.0000
 30
0.0000
 40
0.0762
 41
0.0762
 70
0
  0
VERTEX
  8
51
 10
25.8699
 20
75.3110
 30
0.0000
 42
1.0000
  0
VERTEX
  8
51
 10
25.9461
 20
75.3110
 30
0.0000
  0
SEQEND
  8
0
  0
POLYLINE
  8
51
 66
1
 10
0.0000
 20
0.0000
 30
0.0000
 40
0.1524
 41
0.1524
 70
0
  0
VERTEX
  8
51
 10
25.9080
 20
75.6920
 30
0.0000
  0
VERTEX
  8
51
 10
24.9174
 20
75.6920
 30
0.0000
  0
SEQEND
  8
0
  0
POLYLINE
  8
51
 66
1
 10
0.0000
 20
0.0000
 30
0.0000
 40
0.0762
 41
0.0762
 70
0
  0
VERTEX
  8
51
 10
24.9174
 20
75.7301
 30
0.0000
 42
1.0000
  0
VERTEX
  8
51
 10
24.9174
 20
75.6539
 30
0.0000
  0
SEQEND
  8
0
  0
POLYLINE
  8
51
 66
1
 10
0.0000
 20
0.0000
 30
0.0000
 40
0.0762
 41
0.0762
 70
0
  0
VERTEX
  8
51
 10
25.9080
 20
75.6539
 30
0.0000
 42
1.0000
  0
VERTEX
  8
51
 10
25.9080
 20
75.7301
 30
0.0000
  0
SEQEND
  8
0
  0
POLYLINE
  8
51
 66
1
 10
0.0000
 20
0.0000
 30
0.0000
 40
0.1524
 41
0.1524
 70
0
  0
VERTEX
  8
51
 10
24.9174
 20
76.3524
 30
0.0000
  0
VERTEX
  8
51
 10
24.9174
 20
75.9714
 30
0.0000
  0
SEQEND
  8
0
  0
POLYLINE
  8
51
 66
1
 10
0.0000
 20
0.0000
 30
0.0000
 40
0.0762
 41
0.0762
 70
0
  0
VERTEX
  8
51
 10
24.8793
 20
75.9714
 30
0.0000
 42
1.0000
  0
VERTEX
  8
51
 10
24.9555
 20
75.9714
 30
0.0000
  0
SEQEND
  8
0
  0
POLYLINE
  8
51
 66
1
 10
0.0000
 20
0.0000
 30
0.0000
 40
0.0762
 41
0.0762
 70
0
  0
VERTEX
  8
51
 10
24.9555
 20
76.3524
 30
0.0000
 42
1.0000
  0
VERTEX
  8
51
 10
24.8793
 20
76.3524
 30
0.0000
  0
SEQEND
  8
0
  0
POLYLINE
  8
51
 66
1
 10
0.0000
 20
0.0000
 30
0.0000
 40
0.1524
 41
0.1524
 70
0
  0
VERTEX
  8
51
 10
24.9174
 20
75.9714
 30
0.0000
  0
VERTEX
  8
51
 10
25.9080
 20
75.9714
 30
0.0000
  0
SEQEND
  8
0
  0
POLYLINE
  8
51
 66
1
 10
0.0000
 20
0.0000
 30
0.0000
 40
0.0762
 41
0.0762
 70
0
  0
VERTEX
  8
51
 10
25.9080
 20
75.9333
 30
0.0000
 42
1.0000
  0
VERTEX
  8
51
 10
25.9080
 20
76.0095
 30
0.0000
  0
SEQEND
  8
0
  0
POLYLINE
  8
51
 66
1
 10
0.0000
 20
0.0000
 30
0.0000
 40
0.0762
 41
0.0762
 70
0
  0
VERTEX
  8
51
 10
24.9174
 20
76.0095
 30
0.0000
 42
1.0000
  0
VERTEX
  8
51
 10
24.9174
 20
75.9333
 30
0.0000
  0
SEQEND
  8
0
  0
POLYLINE
  8
51
 66
1
 10
0.0000
 20
0.0000
 30
0.0000
 40
0.1524
 41
0.1524
 70
0
  0
VERTEX
  8
51
 10
25.9080
 20
75.9714
 30
0.0000
  0
VERTEX
  8
51
 10
25.9080
 20
76.3524
 30
0.0000
  0
SEQEND
  8
0
  0
POLYLINE
  8
51
 66
1
 10
0.0000
 20
0.0000
 30
0.0000
 40
0.0762
 41
0.0762
 70
0
  0
VERTEX
  8
51
 10
25.9461
 20
76.3524
 30
0.0000
 42
1.0000
  0
VERTEX
  8
51
 10
25.8699
 20
76.3524
 30
0.0000
  0
SEQEND
  8
0
  0
POLYLINE
  8
51
 66
1
 10
0.0000
 20
0.0000
 30
0.0000
 40
0.0762
 41
0.0762
 70
0
  0
VERTEX
  8
51
 10
25.8699
 20
75.9714
 30
0.0000
 42
1.0000
  0
VERTEX
  8
51
 10
25.9461
 20
75.9714
 30
0.0000
  0
SEQEND
  8
0
  0
POLYLINE
  8
51
 66
1
 10
0.0000
 20
0.0000
 30
0.0000
 40
0.1524
 41
0.1524
 70
0
  0
VERTEX
  8
51
 10
25.9080
 20
76.3524
 30
0.0000
  0
VERTEX
  8
51
 10
24.9174
 20
76.3524
 30
0.0000
  0
SEQEND
  8
0
  0
POLYLINE
  8
51
 66
1
 10
0.0000
 20
0.0000
 30
0.0000
 40
0.0762
 41
0.0762
 70
0
  0
VERTEX
  8
51
 10
24.9174
 20
76.3905
 30
0.0000
 42
1.0000
  0
VERTEX
  8
51
 10
24.9174
 20
76.3143
 30
0.0000
  0
SEQEND
  8
0
  0
POLYLINE
  8
51
 66
1
 10
0.0000
 20
0.0000
 30
0.0000
 40
0.0762
 41
0.0762
 70
0
  0
VERTEX
  8
51
 10
25.9080
 20
76.3143
 30
0.0000
 42
1.0000
  0
VERTEX
  8
51
 10
25.9080
 20
76.3905
 30
0.0000
  0
SEQEND
  8
0
  0
POLYLINE
  8
51
 66
1
 10
0.0000
 20
0.0000
 30
0.0000
 40
0.1524
 41
0.1524
 70
0
  0
VERTEX
  8
51
 10
21.8186
 20
73.6346
 30
0.0000
  0
VERTEX
  8
51
 10
24.9174
 20
73.6346
 30
0.0000
  0
SEQEND
  8
0
  0
POLYLINE
  8
51
 66
1
 10
0.0000
 20
0.0000
 30
0.0000
 40
0.0762
 41
0.0762
 70
0
  0
VERTEX
  8
51
 10
24.9174
 20
73.5965
 30
0.0000
 42
1.0000
  0
VERTEX
  8
51
 10
24.9174
 20
73.6727
 30
0.0000
  0
SEQEND
  8
0
  0
POLYLINE
  8
51
 66
1
 10
0.0000
 20
0.0000
 30
0.0000
 40
0.0762
 41
0.0762
 70
0
  0
VERTEX
  8
51
 10
21.8186
 20
73.6727
 30
0.0000
 42
1.0000
  0
VERTEX
  8
51
 10
21.8186
 20
73.5965
 30
0.0000
  0
SEQEND
  8
0
  0
POLYLINE
  8
51
 66
1
 10
0.0000
 20
0.0000
 30
0.0000
 40
0.1524
 41
0.1524
 70
0
  0
VERTEX
  8
51
 10
24.9174
 20
73.6346
 30
0.0000
  0
VERTEX
  8
51
 10
24.9174
 20
76.7334
 30
0.0000
  0
SEQEND
  8
0
  0
POLYLINE
  8
51
 66
1
 10
0.0000
 20
0.0000
 30
0.0000
 40
0.0762
 41
0.0762
 70
0
  0
VERTEX
  8
51
 10
24.9555
 20
76.7334
 30
0.0000
 42
1.0000
  0
VERTEX
  8
51
 10
24.8793
 20
76.7334
 30
0.0000
  0
SEQEND
  8
0
  0
POLYLINE
  8
51
 66
1
 10
0.0000
 20
0.0000
 30
0.0000
 40
0.0762
 41
0.0762
 70
0
  0
VERTEX
  8
51
 10
24.8793
 20
73.6346
 30
0.0000
 42
1.0000
  0
VERTEX
  8
51
 10
24.9555
 20
73.6346
 30
0.0000
  0
SEQEND
  8
0
  0
POLYLINE
  8
51
 66
1
 10
0.0000
 20
0.0000
 30
0.0000
 40
0.1524
 41
0.1524
 70
0
  0
VERTEX
  8
51
 10
24.9174
 20
76.7334
 30
0.0000
  0
VERTEX
  8
51
 10
23.6728
 20
76.7334
 30
0.0000
  0
SEQEND
  8
0
  0
POLYLINE
  8
51
 66
1
 10
0.0000
 20
0.0000
 30
0.0000
 40
0.0762
 41
0.0762
 70
0
  0
VERTEX
  8
51
 10
23.6728
 20
76.7715
 30
0.0000
 42
1.0000
  0
VERTEX
  8
51
 10
23.6728
 20
76.6953
 30
0.0000
  0
SEQEND
  8
0
  0
POLYLINE
  8
51
 66
1
 10
0.0000
 20
0.0000
 30
0.0000
 40
0.0762
 41
0.0762
 70
0
  0
VERTEX
  8
51
 10
24.9174
 20
76.6953
 30
0.0000
 42
1.0000
  0
VERTEX
  8
51
 10
24.9174
 20
76.7715
 30
0.0000
  0
SEQEND
  8
0
  0
POLYLINE
  8
51
 66
1
 10
0.0000
 20
0.0000
 30
0.0000
 40
0.1524
 41
0.1524
 70
0
  0
VERTEX
  8
51
 10
23.6728
 20
76.7334
 30
0.0000
  0
VERTEX
  8
51
 10
23.0632
 20
76.7334
 30
0.0000
  0
SEQEND
  8
0
  0
POLYLINE
  8
51
 66
1
 10
0.0000
 20
0.0000
 30
0.0000
 40
0.0762
 41
0.0762
 70
0
  0
VERTEX
  8
51
 10
23.0632
 20
76.7715
 30
0.0000
 42
1.0000
  0
VERTEX
  8
51
 10
23.0632
 20
76.6953
 30
0.0000
  0
SEQEND
  8
0
  0
POLYLINE
  8
51
 66
1
 10
0.0000
 20
0.0000
 30
0.0000
 40
0.0762
 41
0.0762
 70
0
  0
VERTEX
  8
51
 10
23.6728
 20
76.6953
 30
0.0000
 42
1.0000
  0
VERTEX
  8
51
 10
23.6728
 20
76.7715
 30
0.0000
  0
SEQEND
  8
0
  0
POLYLINE
  8
51
 66
1
 10
0.0000
 20
0.0000
 30
0.0000
 40
0.1524
 41
0.1524
 70
0
  0
VERTEX
  8
51
 10
23.0632
 20
76.7334
 30
0.0000
  0
VERTEX
  8
51
 10
21.8186
 20
76.7334
 30
0.0000
  0
SEQEND
  8
0
  0
POLYLINE
  8
51
 66
1
 10
0.0000
 20
0.0000
 30
0.0000
 40
0.0762
 41
0.0762
 70
0
  0
VERTEX
  8
51
 10
21.8186
 20
76.7715
 30
0.0000
 42
1.0000
  0
VERTEX
  8
51
 10
21.8186
 20
76.6953
 30
0.0000
  0
SEQEND
  8
0
  0
POLYLINE
  8
51
 66
1
 10
0.0000
 20
0.0000
 30
0.0000
 40
0.0762
 41
0.0762
 70
0
  0
VERTEX
  8
51
 10
23.0632
 20
76.6953
 30
0.0000
 42
1.0000
  0
VERTEX
  8
51
 10
23.0632
 20
76.7715
 30
0.0000
  0
SEQEND
  8
0
  0
POLYLINE
  8
51
 66
1
 10
0.0000
 20
0.0000
 30
0.0000
 40
0.1524
 41
0.1524
 70
0
  0
VERTEX
  8
51
 10
21.8186
 20
76.7334
 30
0.0000
  0
VERTEX
  8
51
 10
21.8186
 20
73.6346
 30
0.0000
  0
SEQEND
  8
0
  0
POLYLINE
  8
51
 66
1
 10
0.0000
 20
0.0000
 30
0.0000
 40
0.0762
 41
0.0762
 70
0
  0
VERTEX
  8
51
 10
21.7805
 20
73.6346
 30
0.0000
 42
1.0000
  0
VERTEX
  8
51
 10
21.8567
 20
73.6346
 30
0.0000
  0
SEQEND
  8
0
  0
POLYLINE
  8
51
 66
1
 10
0.0000
 20
0.0000
 30
0.0000
 40
0.0762
 41
0.0762
 70
0
  0
VERTEX
  8
51
 10
21.8567
 20
76.7334
 30
0.0000
 42
1.0000
  0
VERTEX
  8
51
 10
21.7805
 20
76.7334
 30
0.0000
  0
SEQEND
  8
0
  0
POLYLINE
  8
51
 66
1
 10
0.0000
 20
0.0000
 30
0.0000
 40
0.1524
 41
0.1524
 70
0
  0
VERTEX
  8
51
 10
23.0632
 20
76.7334
 30
0.0000
 42
1.0000
  0
VERTEX
  8
51
 10
23.6728
 20
76.7334
 30
0.0000
  0
SEQEND
  8
0
  0
POLYLINE
  8
51
 66
1
 10
0.0000
 20
0.0000
 30
0.0000
 40
0.0762
 41
0.0762
 70
0
  0
VERTEX
  8
51
 10
23.1013
 20
76.7334
 30
0.0000
 42
1.0000
  0
VERTEX
  8
51
 10
23.0251
 20
76.7334
 30
0.0000
  0
SEQEND
  8
0
  0
POLYLINE
  8
51
 66
1
 10
0.0000
 20
0.0000
 30
0.0000
 40
0.0762
 41
0.0762
 70
0
  0
VERTEX
  8
51
 10
23.7109
 20
76.7334
 30
0.0000
 42
1.0000
  0
VERTEX
  8
51
 10
23.6347
 20
76.7334
 30
0.0000
  0
SEQEND
  8
0
  0
POLYLINE
  8
51
 66
1
 10
0.0000
 20
0.0000
 30
0.0000
 40
0.1524
 41
0.1524
 70
0
  0
VERTEX
  8
51
 10
17.5860
 20
85.2260
 30
0.0000
  0
VERTEX
  8
51
 10
14.9260
 20
85.2260
 30
0.0000
  0
SEQEND
  8
0
  0
POLYLINE
  8
51
 66
1
 10
0.0000
 20
0.0000
 30
0.0000
 40
0.0762
 41
0.0762
 70
0
  0
VERTEX
  8
51
 10
14.9260
 20
85.2641
 30
0.0000
 42
1.0000
  0
VERTEX
  8
51
 10
14.9260
 20
85.1879
 30
0.0000
  0
SEQEND
  8
0
  0
POLYLINE
  8
51
 66
1
 10
0.0000
 20
0.0000
 30
0.0000
 40
0.0762
 41
0.0762
 70
0
  0
VERTEX
  8
51
 10
17.5860
 20
85.1879
 30
0.0000
 42
1.0000
  0
VERTEX
  8
51
 10
17.5860
 20
85.2641
 30
0.0000
  0
SEQEND
  8
0
  0
POLYLINE
  8
51
 66
1
 10
0.0000
 20
0.0000
 30
0.0000
 40
0.1524
 41
0.1524
 70
0
  0
VERTEX
  8
51
 10
17.5860
 20
89.5260
 30
0.0000
  0
VERTEX
  8
51
 10
14.9260
 20
89.5260
 30
0.0000
  0
SEQEND
  8
0
  0
POLYLINE
  8
51
 66
1
 10
0.0000
 20
0.0000
 30
0.0000
 40
0.0762
 41
0.0762
 70
0
  0
VERTEX
  8
51
 10
14.9260
 20
89.5641
 30
0.0000
 42
1.0000
  0
VERTEX
  8
51
 10
14.9260
 20
89.4879
 30
0.0000
  0
SEQEND
  8
0
  0
POLYLINE
  8
51
 66
1
 10
0.0000
 20
0.0000
 30
0.0000
 40
0.0762
 41
0.0762
 70
0
  0
VERTEX
  8
51
 10
17.5860
 20
89.4879
 30
0.0000
 42
1.0000
  0
VERTEX
  8
51
 10
17.5860
 20
89.5641
 30
0.0000
  0
SEQEND
  8
0
  0
INSERT
  8
51
  2
RECT
 10
16.2560
 20
85.9760
 30
0.0000
 41
0.5000
 42
2.5000
 43
1.0000
 50
90.0000
  0
INSERT
  8
51
  2
RECT
 10
16.2560
 20
84.9760
 30
0.0000
 41
0.5000
 42
2.0800
 43
1.0000
 50
90.0000
  0
INSERT
  8
51
  2
RECT
 10
16.2560
 20
89.7760
 30
0.0000
 41
0.5000
 42
2.0800
 43
1.0000
 50
90.0000
  0
ENDSEC
  0
EOF
