  0
SECTION
  2
HEADER
  9
$ACADVER
  1
AC1009
  9
$INSBASE
 10
0.0
 20
0.0
 30
0.0
  9
$EXTMIN
 10
5.1963062991358981
 20
2.6053940892022629
 30
0.0
  9
$EXTMAX
 10
397.294400914400228
 20
695.8191652633696549
 30
0.0
  9
$LIMMIN
 10
0.0
 20
0.0
  9
$LIMMAX
 10
12.0
 20
9.0
  9
$ORTHOMODE
 70
     0
  9
$REGENMODE
 70
     1
  9
$FILLMODE
 70
     1
  9
$QTEXTMODE
 70
     0
  9
$MIRRTEXT
 70
     0
  9
$DRAGMODE
 70
     2
  9
$LTSCALE
 40
1.0
  9
$OSMODE
 70
    37
  9
$ATTMODE
 70
     1
  9
$TEXTSIZE
 40
0.2
  9
$TRACEWID
 40
0.05
  9
$TEXTSTYLE
  7
STANDARD
  9
$CLAYER
  8
0
  9
$CELTYPE
  6
BYLAYER
  9
$CECOLOR
 62
   256
  9
$DIMSCALE
 40
1.0
  9
$DIMASZ
 40
0.18
  9
$DIMEXO
 40
0.0625
  9
$DIMDLI
 40
0.38
  9
$DIMRND
 40
0.0
  9
$DIMDLE
 40
0.0
  9
$DIMEXE
 40
0.18
  9
$DIMTP
 40
0.0
  9
$DIMTM
 40
0.0
  9
$DIMTXT
 40
0.18
  9
$DIMCEN
 40
0.09
  9
$DIMTSZ
 40
0.0
  9
$DIMTOL
 70
     0
  9
$DIMLIM
 70
     0
  9
$DIMTIH
 70
     1
  9
$DIMTOH
 70
     1
  9
$DIMSE1
 70
     0
  9
$DIMSE2
 70
     0
  9
$DIMTAD
 70
     0
  9
$DIMZIN
 70
     0
  9
$DIMBLK
  1

  9
$DIMASO
 70
     1
  9
$DIMSHO
 70
     1
  9
$DIMPOST
  1

  9
$DIMAPOST
  1

  9
$DIMALT
 70
     0
  9
$DIMALTD
 70
     2
  9
$DIMALTF
 40
25.3999999999999986
  9
$DIMLFAC
 40
1.0
  9
$DIMTOFL
 70
     0
  9
$DIMTVP
 40
0.0
  9
$DIMTIX
 70
     0
  9
$DIMSOXD
 70
     0
  9
$DIMSAH
 70
     0
  9
$DIMBLK1
  1

  9
$DIMBLK2
  1

  9
$DIMSTYLE
  2
STANDARD
  9
$DIMCLRD
 70
     0
  9
$DIMCLRE
 70
     0
  9
$DIMCLRT
 70
     0
  9
$DIMTFAC
 40
1.0
  9
$DIMGAP
 40
0.09
  9
$LUNITS
 70
     2
  9
$LUPREC
 70
     4
  9
$SKETCHINC
 40
0.1
  9
$FILLETRAD
 40
0.0
  9
$AUNITS
 70
     0
  9
$AUPREC
 70
     0
  9
$MENU
  1
.
  9
$ELEVATION
 40
0.0
  9
$PELEVATION
 40
0.0
  9
$THICKNESS
 40
0.0
  9
$LIMCHECK
 70
     0
  9
$BLIPMODE
 70
     0
  9
$CHAMFERA
 40
0.0
  9
$CHAMFERB
 40
0.0
  9
$SKPOLY
 70
     0
  9
$TDCREATE
 40
2458836.6650925930589437
  9
$TDUPDATE
 40
2458836.6857060180045664
  9
$TDINDWG
 40
0.0029976852
  9
$TDUSRTIMER
 40
0.0029976852
  9
$USRTIMER
 70
     1
  9
$ANGBASE
 50
0.0
  9
$ANGDIR
 70
     0
  9
$PDMODE
 70
     0
  9
$PDSIZE
 40
0.0
  9
$PLINEWID
 40
0.0
  9
$COORDS
 70
     1
  9
$SPLFRAME
 70
     0
  9
$SPLINETYPE
 70
     6
  9
$SPLINESEGS
 70
     8
  9
$ATTDIA
 70
     1
  9
$ATTREQ
 70
     1
  9
$HANDLING
 70
     1
  9
$HANDSEED
  5
2E1
  9
$SURFTAB1
 70
     6
  9
$SURFTAB2
 70
     6
  9
$SURFTYPE
 70
     6
  9
$SURFU
 70
     6
  9
$SURFV
 70
     6
  9
$UCSNAME
  2

  9
$UCSORG
 10
0.0
 20
0.0
 30
0.0
  9
$UCSXDIR
 10
1.0
 20
0.0
 30
0.0
  9
$UCSYDIR
 10
0.0
 20
1.0
 30
0.0
  9
$PUCSNAME
  2

  9
$PUCSORG
 10
0.0
 20
0.0
 30
0.0
  9
$PUCSXDIR
 10
1.0
 20
0.0
 30
0.0
  9
$PUCSYDIR
 10
0.0
 20
1.0
 30
0.0
  9
$USERI1
 70
     0
  9
$USERI2
 70
     0
  9
$USERI3
 70
     0
  9
$USERI4
 70
     0
  9
$USERI5
 70
     0
  9
$USERR1
 40
0.0
  9
$USERR2
 40
0.0
  9
$USERR3
 40
0.0
  9
$USERR4
 40
0.0
  9
$USERR5
 40
0.0
  9
$WORLDVIEW
 70
     1
  9
$SHADEDGE
 70
     3
  9
$SHADEDIF
 70
    70
  9
$TILEMODE
 70
     1
  9
$MAXACTVP
 70
    64
  9
$PLIMCHECK
 70
     0
  9
$PEXTMIN
 10
1.0000000000000000E+20
 20
1.0000000000000000E+20
 30
1.0000000000000000E+20
  9
$PEXTMAX
 10
-1.0000000000000000E+20
 20
-1.0000000000000000E+20
 30
-1.0000000000000000E+20
  9
$PLIMMIN
 10
-0.7524054877282309
 20
-0.5025428238148726
  9
$PLIMMAX
 10
35.247595473455327
 20
23.4974562150015593
  9
$UNITMODE
 70
     0
  9
$VISRETAIN
 70
     1
  9
$PLINEGEN
 70
     0
  9
$PSLTSCALE
 70
     1
  0
ENDSEC
  0
SECTION
  2
TABLES
  0
TABLE
  2
VPORT
 70
     1
  0
VPORT
  2
*ACTIVE
 70
     0
 10
0.0
 20
0.0
 11
1.0
 21
1.0
 12
-42.3622309241691326
 22
93.2614451002729368
 13
0.0
 23
0.0
 14
0.5
 24
0.5
 15
0.5
 25
0.5
 16
0.0
 26
0.0
 36
1.0
 17
0.0
 27
0.0
 37
0.0
 40
260.4008510890838011
 41
1.7628205128205121
 42
50.0
 43
0.0
 44
0.0
 50
0.0
 51
0.0
 71
     0
 72
  1000
 73
     1
 74
     3
 75
     0
 76
     0
 77
     0
 78
     0
  0
ENDTAB
  0
TABLE
  2
LTYPE
 70
     2
  0
LTYPE
  2
CONTINUOUS
 70
     0
  3
Solid line
 72
    65
 73
     0
 40
0.0
  0
LTYPE
  2
CENTER2
 70
     0
  3
Center (.5x) ___ _ ___ _ ___ _ ___ _ ___ _ ___
 72
    65
 73
     4
 40
1.125
 49
0.75
 49
-0.125
 49
0.125
 49
-0.125
  0
ENDTAB
  0
TABLE
  2
LAYER
 70
     5
  0
LAYER
  2
0
 70
     0
 62
     7
  6
CONTINUOUS
  0
LAYER
  2
TITLE_BLOCK
 70
     0
 62
     7
  6
CONTINUOUS
  0
LAYER
  2
A-ANNO-CNTR
 70
     0
 62
    10
  6
CENTER2
  0
LAYER
  2
A-DETL-___4
 70
     0
 62
     4
  6
CONTINUOUS
  0
LAYER
  2
A-DETL-___5
 70
     0
 62
     5
  6
CONTINUOUS
  0
ENDTAB
  0
TABLE
  2
STYLE
 70
     4
  0
STYLE
  2
STANDARD
 70
     0
 40
0.0
 41
1.0
 50
0.0
 71
     0
 42
0.2
  3
txt
  4

  0
STYLE
  2
ANNOTATIVE
 70
     0
 40
0.0
 41
1.0
 50
0.0
 71
     0
 42
0.2
  3
txt
  4

  0
STYLE
  2
ROMAN
 70
     0
 40
0.0
 41
1.0
 50
0.0
 71
     0
 42
0.2
  3
ROMANS.SHX
  4

  0
STYLE
  2
MTXPL_ARIAL
 70
     0
 40
0.0
 41
1.0
 50
0.0
 71
     0
 42
0.2
  3
txt
  4

  0
ENDTAB
  0
TABLE
  2
VIEW
 70
     0
  0
ENDTAB
  0
TABLE
  2
UCS
 70
     0
  0
ENDTAB
  0
TABLE
  2
APPID
 70
     7
  0
APPID
  2
ACAD
 70
     0
  0
APPID
  2
ACADANNOTATIVE
 70
     0
  0
APPID
  2
ACAECLAYERSTANDARD
 70
     0
  0
APPID
  2
RAK
 70
     0
  0
APPID
  2
ACAD_NAV_VCDISPLAY
 70
     0
  0
APPID
  2
ACAD_PSEXT
 70
     0
  0
APPID
  2
ACAD_MLEADERVER
 70
     0
  0
ENDTAB
  0
TABLE
  2
DIMSTYLE
 70
     2
  0
DIMSTYLE
  2
STANDARD
 70
     0
  3

  4

  5

  6

  7

 40
1.0
 41
0.18
 42
0.0625
 43
0.38
 44
0.18
 45
0.0
 46
0.0
 47
0.0
 48
0.0
140
0.18
141
0.09
142
0.0
143
25.3999999999999986
144
1.0
145
0.0
146
1.0
147
0.09
 71
     0
 72
     0
 73
     1
 74
     1
 75
     0
 76
     0
 77
     0
 78
     0
170
     0
171
     2
172
     0
173
     0
174
     0
175
     0
176
     0
177
     0
178
     0
  0
DIMSTYLE
  2
ANNOTATIVE
 70
     0
  3

  4

  5

  6

  7

 40
1.0
 41
0.18
 42
0.0625
 43
0.38
 44
0.18
 45
0.0
 46
0.0
 47
0.0
 48
0.0
140
0.18
141
0.09
142
0.0
143
25.3999999999999986
144
1.0
145
0.0
146
1.0
147
0.09
 71
     0
 72
     0
 73
     1
 74
     1
 75
     0
 76
     0
 77
     0
 78
     0
170
     0
171
     2
172
     0
173
     0
174
     0
175
     0
176
     0
177
     0
178
     0
  0
ENDTAB
  0
ENDSEC
  0
SECTION
  2
BLOCKS
  0
BLOCK
  8
0
  2
$MODEL_SPACE
 70
     0
 10
0.0
 20
0.0
 30
0.0
  3
$MODEL_SPACE
  1

  0
ENDBLK
  5
25C
  8
0
  0
BLOCK
 67
     1
  8
0
  2
$PAPER_SPACE
 70
     0
 10
0.0
 20
0.0
 30
0.0
  3
$PAPER_SPACE
  1

  0
ENDBLK
  5
258
 67
     1
  8
0
  0
BLOCK
  8
0
  2
*U2
 70
     1
 10
0.0
 20
0.0
 30
0.0
  3
*U2
  1

  0
TEXT
  5
1CB
  8
0
 10
13.5532404534710107
 20
426.4376906216767225
 30
0.0
 40
6.75
  1
MOTOR
 50
90.0
  7
MTXPL_ARIAL
  0
TEXT
  5
1CC
  8
0
 10
24.8677015721613301
 20
421.0045391892073781
 30
0.0
 40
6.75
  1
CONTROL
 50
90.0
  7
MTXPL_ARIAL
  0
TEXT
  5
1CD
  8
0
 10
36.1821626908516407
 20
405.5799143597395187
 30
0.0
 40
6.75
  1
(LOWER BOARD)
 50
90.0
  7
MTXPL_ARIAL
  0
ENDBLK
  5
1CF
  8
0
  0
BLOCK
  8
0
  2
*U3
 70
     1
 10
0.0
 20
0.0
 30
0.0
  3
*U3
  1

  0
TEXT
  5
1D1
  8
0
 10
13.6963021059741106
 20
337.467282190052515
 30
0.0
 40
6.75
  1
INTERFACE
 50
90.0
  7
MTXPL_ARIAL
  0
TEXT
  5
1D2
  8
0
 10
25.0107632246644194
 20
347.1824936498068723
 30
0.0
 40
6.75
  1
BOARD
 50
90.0
  7
MTXPL_ARIAL
  0
TEXT
  5
1D3
  8
0
 10
36.3252243433547406
 20
326.508892012699107
 30
0.0
 40
6.75
  1
(UPPER BOARD)
 50
90.0
  7
MTXPL_ARIAL
  0
ENDBLK
  5
1D5
  8
0
  0
BLOCK
  8
0
  2
*U4
 70
     1
 10
0.0
 20
0.0
 30
0.0
  3
*U4
  1

  0
TEXT
  5
1E1
  8
0
 10
334.9021736019855098
 20
689.0691652633696549
 30
0.0
 40
6.75
  1
MOTOR
  7
MTXPL_ARIAL
  0
TEXT
  5
1E2
  8
0
 10
329.4690282268149986
 20
677.754704144679522
 30
0.0
 40
6.75
  1
CONTROL
  7
MTXPL_ARIAL
  0
TEXT
  5
1E3
  8
0
 10
314.044400914400228
 20
666.440243025989048
 30
0.0
 40
6.75
  1
(LOWER BOARD)
  7
MTXPL_ARIAL
  0
ENDBLK
  5
1E5
  8
0
  0
BLOCK
  8
0
  2
*U5
 70
     1
 10
0.0
 20
0.0
 30
0.0
  3
*U5
  1

  0
TEXT
  5
1E7
  8
0
 10
245.9317661935535
 20
688.9261036108667895
 30
0.0
 40
6.75
  1
INTERFACE
  7
MTXPL_ARIAL
  0
TEXT
  5
1E8
  8
0
 10
255.6469808183830139
 20
677.6116424921764292
 30
0.0
 40
6.75
  1
BOARD
  7
MTXPL_ARIAL
  0
TEXT
  5
1E9
  8
0
 10
234.9733781307976983
 20
666.2971813734859552
 30
0.0
 40
6.75
  1
(UPPER BOARD)
  7
MTXPL_ARIAL
  0
ENDBLK
  5
1EB
  8
0
  0
ENDSEC
  0
SECTION
  2
ENTITIES
  0
POLYLINE
  5
111
  8
A-DETL-___4
 66
     1
 10
0.0
 20
0.0
 30
0.0
 70
     1
  0
VERTEX
  5
297
  8
A-DETL-___4
 10
157.1963062991368076
 20
152.6053940892041965
 30
0.0
  0
VERTEX
  5
298
  8
A-DETL-___4
 10
157.1963062991355002
 20
2.6053940892022629
 30
0.0
  0
VERTEX
  5
299
  8
A-DETL-___4
 10
85.1963062991359266
 20
2.6053940892022629
 30
0.0
  0
VERTEX
  5
29A
  8
A-DETL-___4
 10
85.1963062991359266
 20
152.605394089205106
 30
0.0
  0
SEQEND
  5
29B
  8
A-DETL-___4
  0
CIRCLE
  5
112
  8
A-DETL-___4
 10
141.1963062991364097
 20
138.6053940892049923
 30
0.0
 40
5.0
  0
CIRCLE
  5
113
  8
A-DETL-___4
 10
141.1963062991364097
 20
98.605394089205106
 30
0.0
 40
5.0
  0
CIRCLE
  5
114
  8
A-DETL-___4
 10
141.1963062991364097
 20
58.6053940892041965
 30
0.0
 40
5.0
  0
CIRCLE
  5
115
  8
A-DETL-___4
 10
141.1963062991355002
 20
18.6053940892032905
 30
0.0
 40
5.0
  0
CIRCLE
  5
116
  8
A-DETL-___4
 10
101.1963062991345055
 20
18.6053940892032905
 30
0.0
 40
5.0
  0
CIRCLE
  5
117
  8
A-DETL-___4
 10
101.1963062991354008
 20
58.6053940892041965
 30
0.0
 40
5.0
  0
CIRCLE
  5
118
  8
A-DETL-___4
 10
101.1963062991354008
 20
98.605394089205106
 30
0.0
 40
5.0
  0
CIRCLE
  5
119
  8
A-DETL-___4
 10
101.1963062991354008
 20
138.6053940892049923
 30
0.0
 40
5.0
  0
POLYLINE
  5
120
  8
A-DETL-___4
 66
     1
 10
0.0
 20
0.0
 30
0.0
 70
     1
  0
VERTEX
  5
29C
  8
A-DETL-___4
 10
77.1963062991367792
 20
152.6053940892041965
 30
0.0
  0
VERTEX
  5
29D
  8
A-DETL-___4
 10
77.1963062991355145
 20
2.6053940892022629
 30
0.0
  0
VERTEX
  5
29E
  8
A-DETL-___4
 10
5.1963062991358981
 20
2.6053940892022629
 30
0.0
  0
VERTEX
  5
29F
  8
A-DETL-___4
 10
5.1963062991358981
 20
152.605394089205106
 30
0.0
  0
SEQEND
  5
2A0
  8
A-DETL-___4
  0
CIRCLE
  5
121
  8
A-DETL-___4
 10
61.1963062991364311
 20
138.6053940892049923
 30
0.0
 40
7.0
  0
CIRCLE
  5
122
  8
A-DETL-___4
 10
61.1963062991364311
 20
98.605394089205106
 30
0.0
 40
7.0
  0
CIRCLE
  5
123
  8
A-DETL-___4
 10
61.1963062991364311
 20
58.6053940892041965
 30
0.0
 40
7.0
  0
CIRCLE
  5
124
  8
A-DETL-___4
 10
61.1963062991354079
 20
18.6053940892032905
 30
0.0
 40
7.0
  0
CIRCLE
  5
125
  8
A-DETL-___4
 10
21.1963062991345303
 20
18.6053940892032905
 30
0.0
 40
7.0
  0
CIRCLE
  5
126
  8
A-DETL-___4
 10
21.1963062991355606
 20
58.6053940892041965
 30
0.0
 40
7.0
  0
CIRCLE
  5
127
  8
A-DETL-___4
 10
21.1963062991355606
 20
98.605394089205106
 30
0.0
 40
7.0
  0
CIRCLE
  5
128
  8
A-DETL-___4
 10
21.1963062991355606
 20
138.6053940892049923
 30
0.0
 40
7.0
  0
CIRCLE
  5
12D
  8
A-DETL-___4
 10
121.1963062991358981
 20
138.6053940892049923
 30
0.0
 40
1.5
  0
CIRCLE
  5
12E
  8
A-DETL-___4
 10
101.1963062991358981
 20
78.6053940892049923
 30
0.0
 40
1.5
  0
CIRCLE
  5
12F
  8
A-DETL-___4
 10
121.1963062991350029
 20
18.6053940892032905
 30
0.0
 40
1.5
  0
CIRCLE
  5
130
  8
A-DETL-___4
 10
41.19630629913501
 20
18.6053940892032905
 30
0.0
 40
1.5
  0
CIRCLE
  5
131
  8
A-DETL-___4
 10
21.1963062991359017
 20
78.6053940892049923
 30
0.0
 40
1.5
  0
CIRCLE
  5
132
  8
A-DETL-___4
 10
41.1963062991359266
 20
138.6053940892049923
 30
0.0
 40
1.5
  0
CIRCLE
  5
133
  8
A-DETL-___4
 10
141.1963062991360971
 20
78.6053940892049923
 30
0.0
 40
1.5
  0
CIRCLE
  5
134
  8
A-DETL-___4
 10
61.1963062991354079
 20
78.6053940892049923
 30
0.0
 40
1.5
  0
VIEWPORT
  5
4A
 67
     1
  8
0
 10
17.2475949928635508
 20
11.4974566955933408
 30
0.0
 40
36.3373219673022589
 41
27.1250431586904206
 68
     1
 69
     1
1001
ACAD
1000
MVIEW
1002
{
1070
    16
1010
0.0
1020
0.0
1030
0.0
1010
0.0
1020
0.0
1030
1.0
1040
0.0
1040
27.1250431586904206
1040
17.2475949928635508
1040
11.4974566955933408
1040
50.0
1040
0.0
1040
0.0
1070
     0
1070
  1000
1070
     1
1070
     3
1070
     0
1070
     0
1070
     0
1070
     0
1040
0.0
1040
0.0
1040
0.0
1040
0.5
1040
0.5
1040
0.5
1040
0.5
1070
     0
1002
{
1002
}
1002
}
  0
ENDSEC
  0
EOF
