  0
SECTION
  2
HEADER
  9
$ACADVER
  1
AC1009
  9
$INSBASE
 10
0.0
 20
0.0
 30
0.0
  9
$EXTMIN
 10
5274.4517910497506819
 20
1543.1601636973130098
 30
0.0
  9
$EXTMAX
 10
5426.4517910497543198
 20
1695.1601636973150562
 30
0.0
  9
$LIMMIN
 10
0.0
 20
0.0
  9
$LIMMAX
 10
12.0
 20
9.0
  9
$ORTHOMODE
 70
     0
  9
$REGENMODE
 70
     1
  9
$FILLMODE
 70
     1
  9
$QTEXTMODE
 70
     0
  9
$MIRRTEXT
 70
     1
  9
$DRAGMODE
 70
     2
  9
$LTSCALE
 40
10.0
  9
$OSMODE
 70
  1519
  9
$ATTMODE
 70
     1
  9
$TEXTSIZE
 40
13.5133568035179294
  9
$TRACEWID
 40
0.05
  9
$TEXTSTYLE
  7
STANDARD
  9
$CLAYER
  8
DEFPOINTS
  9
$CELTYPE
  6
BYLAYER
  9
$CECOLOR
 62
   256
  9
$DIMSCALE
 40
1.0
  9
$DIMASZ
 40
0.18
  9
$DIMEXO
 40
0.0625
  9
$DIMDLI
 40
0.38
  9
$DIMRND
 40
0.0
  9
$DIMDLE
 40
0.0
  9
$DIMEXE
 40
0.18
  9
$DIMTP
 40
0.0
  9
$DIMTM
 40
0.0
  9
$DIMTXT
 40
26.3999120836404302
  9
$DIMCEN
 40
0.09
  9
$DIMTSZ
 40
0.0
  9
$DIMTOL
 70
     0
  9
$DIMLIM
 70
     0
  9
$DIMTIH
 70
     1
  9
$DIMTOH
 70
     1
  9
$DIMSE1
 70
     0
  9
$DIMSE2
 70
     0
  9
$DIMTAD
 70
     0
  9
$DIMZIN
 70
     0
  9
$DIMBLK
  1

  9
$DIMASO
 70
     1
  9
$DIMSHO
 70
     1
  9
$DIMPOST
  1

  9
$DIMAPOST
  1

  9
$DIMALT
 70
     0
  9
$DIMALTD
 70
     2
  9
$DIMALTF
 40
25.3999999999999986
  9
$DIMLFAC
 40
1.0
  9
$DIMTOFL
 70
     0
  9
$DIMTVP
 40
0.0
  9
$DIMTIX
 70
     0
  9
$DIMSOXD
 70
     0
  9
$DIMSAH
 70
     0
  9
$DIMBLK1
  1

  9
$DIMBLK2
  1

  9
$DIMSTYLE
  2
STANDARD
  9
$DIMCLRD
 70
     0
  9
$DIMCLRE
 70
     0
  9
$DIMCLRT
 70
     0
  9
$DIMTFAC
 40
1.0
  9
$DIMGAP
 40
0.09
  9
$LUNITS
 70
     2
  9
$LUPREC
 70
     8
  9
$SKETCHINC
 40
0.1
  9
$FILLETRAD
 40
4.0
  9
$AUNITS
 70
     0
  9
$AUPREC
 70
     0
  9
$MENU
  1
.
  9
$ELEVATION
 40
0.0
  9
$PELEVATION
 40
0.0
  9
$THICKNESS
 40
0.0
  9
$LIMCHECK
 70
     0
  9
$BLIPMODE
 70
     0
  9
$CHAMFERA
 40
0.0
  9
$CHAMFERB
 40
0.0
  9
$SKPOLY
 70
     0
  9
$TDCREATE
 40
2453809.646643518935889
  9
$TDUPDATE
 40
2458724.4527546297758818
  9
$TDINDWG
 40
30.3413937384000008
  9
$TDUSRTIMER
 40
30.3413930092999991
  9
$USRTIMER
 70
     1
  9
$ANGBASE
 50
0.0
  9
$ANGDIR
 70
     0
  9
$PDMODE
 70
     0
  9
$PDSIZE
 40
0.0
  9
$PLINEWID
 40
0.0
  9
$COORDS
 70
     1
  9
$SPLFRAME
 70
     0
  9
$SPLINETYPE
 70
     6
  9
$SPLINESEGS
 70
     8
  9
$ATTDIA
 70
     1
  9
$ATTREQ
 70
     1
  9
$HANDLING
 70
     1
  9
$HANDSEED
  5
3902A
  9
$SURFTAB1
 70
     6
  9
$SURFTAB2
 70
     6
  9
$SURFTYPE
 70
     6
  9
$SURFU
 70
     6
  9
$SURFV
 70
     6
  9
$UCSNAME
  2

  9
$UCSORG
 10
0.0
 20
0.0
 30
0.0
  9
$UCSXDIR
 10
1.0
 20
0.0
 30
0.0
  9
$UCSYDIR
 10
0.0
 20
1.0
 30
0.0
  9
$PUCSNAME
  2

  9
$PUCSORG
 10
0.0
 20
0.0
 30
0.0
  9
$PUCSXDIR
 10
1.0
 20
0.0
 30
0.0
  9
$PUCSYDIR
 10
0.0
 20
1.0
 30
0.0
  9
$USERI1
 70
     0
  9
$USERI2
 70
     0
  9
$USERI3
 70
     0
  9
$USERI4
 70
     0
  9
$USERI5
 70
     0
  9
$USERR1
 40
0.0
  9
$USERR2
 40
0.0
  9
$USERR3
 40
0.0
  9
$USERR4
 40
0.0
  9
$USERR5
 40
0.0
  9
$WORLDVIEW
 70
     1
  9
$SHADEDGE
 70
     3
  9
$SHADEDIF
 70
    70
  9
$TILEMODE
 70
     1
  9
$MAXACTVP
 70
    64
  9
$PLIMCHECK
 70
     0
  9
$PEXTMIN
 10
1.0000000000000000E+20
 20
1.0000000000000000E+20
 30
1.0000000000000000E+20
  9
$PEXTMAX
 10
-1.0000000000000000E+20
 20
-1.0000000000000000E+20
 30
-1.0000000000000000E+20
  9
$PLIMMIN
 10
0.0
 20
0.0
  9
$PLIMMAX
 10
12.0
 20
9.0
  9
$UNITMODE
 70
     0
  9
$VISRETAIN
 70
     1
  9
$PLINEGEN
 70
     0
  9
$PSLTSCALE
 70
     1
  0
ENDSEC
  0
SECTION
  2
TABLES
  0
TABLE
  2
VPORT
 70
     1
  0
VPORT
  2
*ACTIVE
 70
     0
 10
0.0
 20
0.0
 11
1.0
 21
1.0
 12
183.6547045124385136
 22
142.7573748243266891
 13
0.0
 23
0.0
 14
0.5
 24
0.5
 15
0.5
 25
0.5
 16
-0.0000000000009095
 26
0.0
 36
3001.884201086361827
 17
5167.9538307525699565
 27
1462.7762417788960647
 37
-3780.9050346801059277
 40
279.8797203253780026
 41
1.2380952380952379
 42
50.0
 43
0.0
 44
0.0
 50
0.0
 51
0.0
 71
     0
 72
   100
 73
     1
 74
     3
 75
     0
 76
     0
 77
     0
 78
     0
  0
ENDTAB
  0
TABLE
  2
LTYPE
 70
     1
  0
LTYPE
  2
CONTINUOUS
 70
     0
  3
Solid line
 72
    65
 73
     0
 40
0.0
  0
ENDTAB
  0
TABLE
  2
LAYER
 70
     4
  0
LAYER
  2
0
 70
     0
 62
     7
  6
CONTINUOUS
  0
LAYER
  2
DEFPOINTS
 70
     0
 62
     7
  6
CONTINUOUS
  0
LAYER
  2
A-ELEV-___5
 70
     0
 62
     5
  6
CONTINUOUS
  0
LAYER
  2
A-ELEV-___8
 70
     0
 62
     8
  6
CONTINUOUS
  0
ENDTAB
  0
TABLE
  2
STYLE
 70
     1
  0
STYLE
  2
STANDARD
 70
     0
 40
0.0
 41
1.0
 50
0.0
 71
     0
 42
13.5133568035179294
  3
txt
  4

  0
ENDTAB
  0
TABLE
  2
VIEW
 70
     0
  0
ENDTAB
  0
TABLE
  2
UCS
 70
     0
  0
ENDTAB
  0
TABLE
  2
APPID
 70
    29
  0
APPID
  2
ACAD
 70
     0
  0
APPID
  2
ACAECLAYERSTANDARD
 70
     0
  0
APPID
  2
RAK
 70
     0
  0
APPID
  2
ACAD_NAV_VCDISPLAY
 70
     0
  0
APPID
  2
ACAD_EXEMPT_FROM_CAD_STANDARDS
 70
     0
  0
APPID
  2
ACCMTRANSPARENCY
 70
     0
  0
APPID
  2
GRADIENTCOLOR1ACI
 70
     0
  0
APPID
  2
GRADIENTCOLOR2ACI
 70
     0
  0
APPID
  2
ACAD_PSEXT
 70
     0
  0
APPID
  2
ACDBBLOCKREPETAG
 70
     0
  0
APPID
  2
ACADANNOTATIVE
 70
     0
  0
APPID
  2
ACAD_DSTYLE_DIMJAG
 70
     0
  0
APPID
  2
ACAD_DSTYLE_DIMTALN
 70
     0
  0
APPID
  2
HATCHBACKGROUNDCOLOR
 70
     0
  0
APPID
  2
ACDBDYNAMICBLOCKGUID
 70
     0
  0
APPID
  2
IDW_INSPOINT
 70
     0
  0
APPID
  2
ACDBAPPSYNCWITHXREF_ASSOCM
 70
     0
  0
APPID
  2
ACAUTHENVIRON
 70
     0
  0
APPID
  2
ACDBDYNAMICBLOCKTRUENAME
 70
     0
  0
APPID
  2
REVIT
 70
     0
  0
APPID
  2
ACAD_DSTYLE_DIMJOGGED_JOGA
 70
     0
  0
APPID
  2
ACAD_DSTYLE_DIMBREAK
 70
     0
  0
APPID
  2
_APP0
 70
     0
  0
APPID
  2
ADE
 70
     0
  0
APPID
  2
TCAD
 70
     0
  0
APPID
  2
ACDBBLOCKREPBTAG
 70
     0
  0
APPID
  2
ACAD_STEPID
 70
     0
  0
APPID
  2
ACAD_ASSOCPERSSUBENTMANAGER
 70
     0
  0
APPID
  2
ACAD_MLEADERVER
 70
     0
  0
ENDTAB
  0
TABLE
  2
DIMSTYLE
 70
     1
  0
DIMSTYLE
  2
STANDARD
 70
     0
  3

  4

  5

  6

  7

 40
1.0
 41
0.18
 42
0.0625
 43
0.38
 44
0.18
 45
0.0
 46
0.0
 47
0.0
 48
0.0
140
0.18
141
0.09
142
0.0
143
25.3999999999999986
144
1.0
145
0.0
146
1.0
147
0.09
 71
     0
 72
     0
 73
     1
 74
     1
 75
     0
 76
     0
 77
     0
 78
     0
170
     0
171
     2
172
     0
173
     0
174
     0
175
     0
176
     0
177
     0
178
     0
  0
ENDTAB
  0
ENDSEC
  0
SECTION
  2
BLOCKS
  0
BLOCK
  8
0
  2
$MODEL_SPACE
 70
     0
 10
0.0
 20
0.0
 30
0.0
  3
$MODEL_SPACE
  1

  0
ENDBLK
  5
21
  8
0
  0
BLOCK
 67
     1
  8
0
  2
$PAPER_SPACE
 70
     0
 10
0.0
 20
0.0
 30
0.0
  3
$PAPER_SPACE
  1

  0
ENDBLK
  5
1D
 67
     1
  8
0
  0
BLOCK
  8
0
  2
3D_M10-FLAT0
 70
     0
 10
0.0
 20
0.0
 30
0.0
  3
3D_M10-FLAT0
  1

  0
ENDBLK
  5
1F8A7
  8
0
  0
BLOCK
  8
0
  2
3D_M10-FLAT1
 70
     0
 10
0.0
 20
0.0
 30
0.0
  3
3D_M10-FLAT1
  1

  0
ENDBLK
  5
1F8AC
  8
0
  0
BLOCK
  8
0
  2
PCB_REV_2
 70
     0
 10
0.0
 20
0.0
 30
0.0
  3
PCB_REV_2
  1

  0
POLYLINE
  5
38E64
  8
A-ELEV-___5
 66
     1
 10
0.0
 20
0.0
 30
0.0
 70
     1
  0
VERTEX
  5
38FEB
  8
A-ELEV-___5
 10
-36.0
 20
-136.0000000000019895
 30
0.0
  0
VERTEX
  5
38FEC
  8
A-ELEV-___5
 10
116.0000000000008953
 20
-136.0000000000017906
 30
0.0
  0
VERTEX
  5
38FED
  8
A-ELEV-___5
 10
116.0000000000027001
 20
16.0000000000004512
 30
0.0
  0
VERTEX
  5
38FEE
  8
A-ELEV-___5
 10
-35.9999999999990905
 20
16.0000000000004512
 30
0.0
  0
SEQEND
  5
38FEF
  8
A-ELEV-___5
  0
POLYLINE
  5
38E65
  8
A-ELEV-___5
 66
     1
 10
0.0
 20
0.0
 30
0.0
 70
     1
  0
VERTEX
  5
38FF0
  8
A-ELEV-___5
 10
-24.0
 20
-65.0000000000009095
 30
0.0
  0
VERTEX
  5
38FF1
  8
A-ELEV-___5
 10
-16.0
 20
-65.0000000000009095
 30
0.0
 42
0.4142135623730907
  0
VERTEX
  5
38FF2
  8
A-ELEV-___5
 10
-12.0
 20
-61.0000000000009095
 30
0.0
  0
VERTEX
  5
38FF3
  8
A-ELEV-___5
 10
-12.0
 20
-59.0
 30
0.0
 42
0.4142135623730951
  0
VERTEX
  5
38FF4
  8
A-ELEV-___5
 10
-16.0
 20
-55.0
 30
0.0
  0
VERTEX
  5
38FF5
  8
A-ELEV-___5
 10
-24.0
 20
-55.0
 30
0.0
 42
0.4142135623730951
  0
VERTEX
  5
38FF6
  8
A-ELEV-___5
 10
-28.0
 20
-59.0
 30
0.0
  0
VERTEX
  5
38FF7
  8
A-ELEV-___5
 10
-28.0
 20
-61.0000000000009095
 30
0.0
 42
0.4142135623730907
  0
SEQEND
  5
38FF8
  8
A-ELEV-___5
  0
POLYLINE
  5
38E66
  8
A-ELEV-___5
 66
     1
 10
0.0
 20
0.0
 30
0.0
 70
     1
  0
VERTEX
  5
38FF9
  8
A-ELEV-___5
 10
104.0000000000027001
 20
-65.0000000000004547
 30
0.0
  0
VERTEX
  5
38FFA
  8
A-ELEV-___5
 10
96.0000000000027285
 20
-65.0000000000004547
 30
0.0
 42
-0.4142135623730907
  0
VERTEX
  5
38FFB
  8
A-ELEV-___5
 10
92.0000000000027143
 20
-61.0000000000004476
 30
0.0
  0
VERTEX
  5
38FFC
  8
A-ELEV-___5
 10
92.0000000000027143
 20
-58.9999999999995524
 30
0.0
 42
-0.4142135623730951
  0
VERTEX
  5
38FFD
  8
A-ELEV-___5
 10
96.0000000000027285
 20
-54.9999999999995381
 30
0.0
  0
VERTEX
  5
38FFE
  8
A-ELEV-___5
 10
104.0000000000027001
 20
-54.9999999999995381
 30
0.0
 42
-0.4142135623730951
  0
VERTEX
  5
38FFF
  8
A-ELEV-___5
 10
108.0000000000027001
 20
-58.9999999999995524
 30
0.0
  0
VERTEX
  5
39000
  8
A-ELEV-___5
 10
108.0000000000027001
 20
-61.0000000000004476
 30
0.0
 42
-0.4142135623730907
  0
SEQEND
  5
39001
  8
A-ELEV-___5
  0
POLYLINE
  5
38E67
  8
A-ELEV-___5
 66
     1
 10
0.0
 20
0.0
 30
0.0
 70
     1
  0
VERTEX
  5
39002
  8
A-ELEV-___5
 10
-5.0000000000009086
 20
-36.0
 30
0.0
  0
VERTEX
  5
39003
  8
A-ELEV-___5
 10
-5.0000000000009086
 20
-44.0
 30
0.0
 42
0.4142135623730907
  0
VERTEX
  5
39004
  8
A-ELEV-___5
 10
-1.0000000000009091
 20
-48.0
 30
0.0
  0
VERTEX
  5
39005
  8
A-ELEV-___5
 10
0.9999999999990905
 20
-48.0
 30
0.0
 42
0.4142135623730951
  0
VERTEX
  5
39006
  8
A-ELEV-___5
 10
4.9999999999990896
 20
-44.0
 30
0.0
  0
VERTEX
  5
39007
  8
A-ELEV-___5
 10
4.9999999999990896
 20
-36.0
 30
0.0
 42
0.4142135623730951
  0
VERTEX
  5
39008
  8
A-ELEV-___5
 10
0.9999999999990905
 20
-32.0
 30
0.0
  0
VERTEX
  5
39009
  8
A-ELEV-___5
 10
-1.0000000000009091
 20
-32.0
 30
0.0
 42
0.4142135623730907
  0
SEQEND
  5
3900A
  8
A-ELEV-___5
  0
POLYLINE
  5
38E68
  8
A-ELEV-___5
 66
     1
 10
0.0
 20
0.0
 30
0.0
 70
     1
  0
VERTEX
  5
3900B
  8
A-ELEV-___5
 10
75.0000000000009095
 20
-36.0
 30
0.0
  0
VERTEX
  5
3900C
  8
A-ELEV-___5
 10
75.0000000000009095
 20
-44.0
 30
0.0
 42
0.4142135623730907
  0
VERTEX
  5
3900D
  8
A-ELEV-___5
 10
79.0000000000008953
 20
-48.0
 30
0.0
  0
VERTEX
  5
3900E
  8
A-ELEV-___5
 10
81.0000000000009237
 20
-48.0
 30
0.0
 42
0.4142135623730951
  0
VERTEX
  5
3900F
  8
A-ELEV-___5
 10
85.0000000000008953
 20
-44.0
 30
0.0
  0
VERTEX
  5
39010
  8
A-ELEV-___5
 10
85.0000000000008953
 20
-36.0
 30
0.0
 42
0.4142135623730951
  0
VERTEX
  5
39011
  8
A-ELEV-___5
 10
81.0000000000009237
 20
-32.0
 30
0.0
  0
VERTEX
  5
39012
  8
A-ELEV-___5
 10
79.0000000000008953
 20
-32.0
 30
0.0
 42
0.4142135623730907
  0
SEQEND
  5
39013
  8
A-ELEV-___5
  0
POLYLINE
  5
38E69
  8
A-ELEV-___5
 66
     1
 10
0.0
 20
0.0
 30
0.0
 70
     1
  0
VERTEX
  5
39014
  8
A-ELEV-___5
 10
-5.0
 20
-76.0
 30
0.0
  0
VERTEX
  5
39015
  8
A-ELEV-___5
 10
-5.0
 20
-84.0
 30
0.0
 42
0.4142135623730907
  0
VERTEX
  5
39016
  8
A-ELEV-___5
 10
-1.0
 20
-88.0
 30
0.0
  0
VERTEX
  5
39017
  8
A-ELEV-___5
 10
1.0
 20
-88.0
 30
0.0
 42
0.4142135623730951
  0
VERTEX
  5
39018
  8
A-ELEV-___5
 10
5.0
 20
-84.0
 30
0.0
  0
VERTEX
  5
39019
  8
A-ELEV-___5
 10
5.0
 20
-76.0
 30
0.0
 42
0.4142135623730951
  0
VERTEX
  5
3901A
  8
A-ELEV-___5
 10
1.0
 20
-72.0
 30
0.0
  0
VERTEX
  5
3901B
  8
A-ELEV-___5
 10
-1.0
 20
-72.0
 30
0.0
 42
0.4142135623730907
  0
SEQEND
  5
3901C
  8
A-ELEV-___5
  0
CIRCLE
  5
38E6A
  8
A-ELEV-___5
 10
-20.0
 20
0.0
 30
0.0
 40
6.0
  0
CIRCLE
  5
38E6B
  8
A-ELEV-___5
 10
20.0
 20
0.0
 30
0.0
 40
6.0
  0
CIRCLE
  5
38E6C
  8
A-ELEV-___5
 10
60.0000000000009095
 20
0.0
 30
0.0
 40
6.0
  0
CIRCLE
  5
38E6D
  8
A-ELEV-___5
 10
100.0000000000018048
 20
0.0
 30
0.0
 40
6.0
  0
CIRCLE
  5
38E6E
  8
A-ELEV-___5
 10
-20.0
 20
-40.0
 30
0.0
 40
6.0
  0
CIRCLE
  5
38E6F
  8
A-ELEV-___5
 10
20.0
 20
-40.0
 30
0.0
 40
6.0
  0
CIRCLE
  5
38E70
  8
A-ELEV-___5
 10
60.0000000000009095
 20
-40.0
 30
0.0
 40
6.0
  0
CIRCLE
  5
38E71
  8
A-ELEV-___5
 10
100.0000000000018048
 20
-40.0
 30
0.0
 40
6.0
  0
CIRCLE
  5
38E72
  8
A-ELEV-___5
 10
-20.0
 20
-80.0
 30
0.0
 40
6.0
  0
CIRCLE
  5
38E73
  8
A-ELEV-___5
 10
20.0
 20
-80.0
 30
0.0
 40
6.0
  0
CIRCLE
  5
38E74
  8
A-ELEV-___5
 10
60.0000000000009095
 20
-80.0
 30
0.0
 40
6.0
  0
CIRCLE
  5
38E75
  8
A-ELEV-___5
 10
100.0000000000018048
 20
-80.0
 30
0.0
 40
6.0
  0
CIRCLE
  5
38E76
  8
A-ELEV-___5
 10
-20.0
 20
-120.0000000000016058
 30
0.0
 40
6.0
  0
CIRCLE
  5
38E77
  8
A-ELEV-___5
 10
20.0
 20
-120.0000000000016058
 30
0.0
 40
6.0
  0
CIRCLE
  5
38E78
  8
A-ELEV-___5
 10
60.0000000000009095
 20
-120.0000000000016058
 30
0.0
 40
6.0
  0
CIRCLE
  5
38E79
  8
A-ELEV-___5
 10
100.0000000000018048
 20
-120.0000000000016058
 30
0.0
 40
6.0
  0
POLYLINE
  5
38E7A
  8
A-ELEV-___5
 66
     1
 10
0.0
 20
0.0
 30
0.0
 70
     1
  0
VERTEX
  5
3901D
  8
A-ELEV-___5
 10
75.0000000000009095
 20
-76.0
 30
0.0
  0
VERTEX
  5
3901E
  8
A-ELEV-___5
 10
75.0000000000009095
 20
-84.0
 30
0.0
 42
0.4142135623730907
  0
VERTEX
  5
3901F
  8
A-ELEV-___5
 10
79.0000000000008953
 20
-88.0
 30
0.0
  0
VERTEX
  5
39020
  8
A-ELEV-___5
 10
81.0000000000009237
 20
-88.0
 30
0.0
 42
0.4142135623730951
  0
VERTEX
  5
39021
  8
A-ELEV-___5
 10
85.0000000000008953
 20
-84.0
 30
0.0
  0
VERTEX
  5
39022
  8
A-ELEV-___5
 10
85.0000000000008953
 20
-76.0
 30
0.0
 42
0.4142135623730951
  0
VERTEX
  5
39023
  8
A-ELEV-___5
 10
81.0000000000009237
 20
-72.0
 30
0.0
  0
VERTEX
  5
39024
  8
A-ELEV-___5
 10
79.0000000000008953
 20
-72.0
 30
0.0
 42
0.4142135623730907
  0
SEQEND
  5
39025
  8
A-ELEV-___5
  0
CIRCLE
  5
38E7B
  8
A-ELEV-___5
 10
-20.0
 20
-20.0000000000004583
 30
0.0
 40
2.0
  0
CIRCLE
  5
38E7C
  8
A-ELEV-___5
 10
100.0000000000018048
 20
-20.0000000000004583
 30
0.0
 40
2.0
  0
CIRCLE
  5
38E7D
  8
A-ELEV-___5
 10
100.0000000000018048
 20
-100.0000000000003979
 30
0.0
 40
2.0
  0
CIRCLE
  5
38E7E
  8
A-ELEV-___5
 10
60.0000000000009095
 20
-60.0000000000004619
 30
0.0
 40
2.0
  0
CIRCLE
  5
38E7F
  8
A-ELEV-___5
 10
20.0
 20
-60.0000000000004619
 30
0.0
 40
2.0
  0
CIRCLE
  5
38E80
  8
A-ELEV-___5
 10
-20.0
 20
-100.0000000000003979
 30
0.0
 40
2.0
  0
POLYLINE
  5
38E81
  8
A-ELEV-___5
 66
     1
 10
0.0
 20
0.0
 30
0.0
 70
     1
  0
VERTEX
  5
39026
  8
A-ELEV-___5
 10
0.0000000000000024
 20
5.0
 30
0.0
  0
VERTEX
  5
39027
  8
A-ELEV-___5
 10
-4.3301270189221936
 20
-2.499999999999996
 30
0.0
  0
VERTEX
  5
39028
  8
A-ELEV-___5
 10
4.3301270189221901
 20
-2.5000000000000062
 30
0.0
  0
SEQEND
  5
39029
  8
A-ELEV-___5
  0
ENDBLK
  5
38D6B
  8
0
  0
ENDSEC
  0
SECTION
  2
ENTITIES
  0
INSERT
  5
1F83B
  8
0
  2
3D_M10-FLAT0
 10
4866.9997079202821624
 20
-1332.8687121905888944
 30
0.0
  0
INSERT
  5
1F83D
  8
0
  2
3D_M10-FLAT1
 10
4869.5065341973759132
 20
-1332.8687121905888944
 30
0.0
  0
INSERT
  5
38D8A
  8
0
  2
PCB_REV_2
 10
5310.4517910497515913
 20
1679.1601636973139193
 30
0.0
  0
ENDSEC
  0
EOF
