  0
SECTION
  2
HEADER
  9
$EXTMIN
 10
-0.202000
 20
-0.154000
  9
$EXTMAX
 10
1.705000
 20
1.255000
  9
$LIMMIN
 10
-0.202000
 20
-0.154000
  9
$LIMMAX
 10
1.705000
 20
1.255000
  9
$FILLMODE
 70
  1
  0
ENDSEC
  0
SECTION
  2
TABLES
  0
TABLE
  2
LTYPE
 70
  1
  0
LTYPE
  2
CONTINUOUS
 70
 64
  3
Solid line
 72
 65
 73
  0
 40
0.0
  0
ENDTAB
  0
TABLE
  2
LAYER
 70
 1
  0
LAYER
  2
0
 70
  0
 62
7
  6
CONTINUOUS
  0
LAYER
  2
gg1
 70
  0
 62
1
  6
CONTINUOUS
  0
ENDTAB
  0
TABLE
  2
STYLE
 70
  1
  0
STYLE
  2
STANDARD
 70
  0
 40
0.0
 41
1.0
 50
0.0
 71
  0
 42
0.2
  3
txt
  4

  0
ENDTAB
  0
ENDSEC
  0
SECTION
  2
BLOCKS
  0
BLOCK
  8
0
  2
D10
 70
64
 10
0.0
 20
0.0
  3
D10
  0
CIRCLE
  8
0
 10
0.000000
 20
0.000000
 40
0.005000
 0
ENDBLK
  8
0
  0
BLOCK
  8
0
  2
D11
 70
64
 10
0.0
 20
0.0
  3
D11
  0
CIRCLE
  8
0
 10
0.000000
 20
0.000000
 40
0.002500
 0
ENDBLK
  8
0
  0
BLOCK
  8
0
  2
D12
 70
64
 10
0.0
 20
0.0
  3
D12
  0
CIRCLE
  8
0
 10
0.000000
 20
0.000000
 40
0.003000
 0
ENDBLK
  8
0
  0
BLOCK
  8
0
  2
D13
 70
64
 10
0.0
 20
0.0
  3
D13
  0
CIRCLE
  8
0
 10
0.000000
 20
0.000000
 40
0.001000
 0
ENDBLK
  8
0
  0
ENDSEC
  0
SECTION
  2
ENTITIES
  0
POLYLINE
  8
gg1
 62
1
 40
0.000000
 41
0.000000
 66
  1
  0
VERTEX
  8
gg1
 10
1.700000
 20
-0.125000
  0
VERTEX
  8
gg1
 10
1.700000
 20
-0.010000
  0
SEQEND
  8
gg1
  0
POLYLINE
  8
gg1
 62
1
 40
0.000000
 41
0.000000
 66
  1
  0
VERTEX
  8
gg1
 10
0.000000
 20
-0.125000
  0
VERTEX
  8
gg1
 10
0.000000
 20
-0.010000
  0
SEQEND
  8
gg1
  0
POLYLINE
  8
gg1
 62
1
 40
0.000000
 41
0.000000
 66
  1
  0
VERTEX
  8
gg1
 10
1.029900
 20
-0.115000
  0
VERTEX
  8
gg1
 10
1.700000
 20
-0.115000
  0
SEQEND
  8
gg1
  0
POLYLINE
  8
gg1
 62
1
 40
0.000000
 41
0.000000
 66
  1
  0
VERTEX
  8
gg1
 10
0.000000
 20
-0.115000
  0
VERTEX
  8
gg1
 10
0.638100
 20
-0.115000
  0
SEQEND
  8
gg1
  0
POLYLINE
  8
gg1
 62
1
 40
0.000000
 41
0.000000
 66
  1
  0
VERTEX
  8
gg1
 10
1.640000
 20
-0.095000
  0
VERTEX
  8
gg1
 10
1.700000
 20
-0.115000
  0
SEQEND
  8
gg1
  0
POLYLINE
  8
gg1
 62
1
 40
0.000000
 41
0.000000
 66
  1
  0
VERTEX
  8
gg1
 10
1.640000
 20
-0.135000
  0
VERTEX
  8
gg1
 10
1.700000
 20
-0.115000
  0
SEQEND
  8
gg1
  0
POLYLINE
  8
gg1
 62
1
 40
0.000000
 41
0.000000
 66
  1
  0
VERTEX
  8
gg1
 10
0.000000
 20
-0.115000
  0
VERTEX
  8
gg1
 10
0.060000
 20
-0.135000
  0
SEQEND
  8
gg1
  0
POLYLINE
  8
gg1
 62
1
 40
0.000000
 41
0.000000
 66
  1
  0
VERTEX
  8
gg1
 10
0.000000
 20
-0.115000
  0
VERTEX
  8
gg1
 10
0.060000
 20
-0.095000
  0
SEQEND
  8
gg1
  0
POLYLINE
  8
gg1
 62
1
 40
0.000000
 41
0.000000
 66
  1
  0
VERTEX
  8
gg1
 10
-0.185000
 20
0.000000
  0
VERTEX
  8
gg1
 10
-0.010000
 20
0.000000
  0
SEQEND
  8
gg1
  0
POLYLINE
  8
gg1
 62
1
 40
0.000000
 41
0.000000
 66
  1
  0
VERTEX
  8
gg1
 10
-0.185000
 20
1.250000
  0
VERTEX
  8
gg1
 10
-0.010000
 20
1.250000
  0
SEQEND
  8
gg1
  0
POLYLINE
  8
gg1
 62
1
 40
0.000000
 41
0.000000
 66
  1
  0
VERTEX
  8
gg1
 10
-0.175000
 20
0.000000
  0
VERTEX
  8
gg1
 10
-0.175000
 20
0.413100
  0
SEQEND
  8
gg1
  0
POLYLINE
  8
gg1
 62
1
 40
0.000000
 41
0.000000
 66
  1
  0
VERTEX
  8
gg1
 10
-0.175000
 20
0.804900
  0
VERTEX
  8
gg1
 10
-0.175000
 20
1.250000
  0
SEQEND
  8
gg1
  0
POLYLINE
  8
gg1
 62
1
 40
0.000000
 41
0.000000
 66
  1
  0
VERTEX
  8
gg1
 10
-0.175000
 20
0.000000
  0
VERTEX
  8
gg1
 10
-0.155000
 20
0.060000
  0
SEQEND
  8
gg1
  0
POLYLINE
  8
gg1
 62
1
 40
0.000000
 41
0.000000
 66
  1
  0
VERTEX
  8
gg1
 10
-0.195000
 20
0.060000
  0
VERTEX
  8
gg1
 10
-0.175000
 20
0.000000
  0
SEQEND
  8
gg1
  0
POLYLINE
  8
gg1
 62
1
 40
0.000000
 41
0.000000
 66
  1
  0
VERTEX
  8
gg1
 10
-0.195000
 20
1.190000
  0
VERTEX
  8
gg1
 10
-0.175000
 20
1.250000
  0
VERTEX
  8
gg1
 10
-0.155000
 20
1.190000
  0
SEQEND
  8
gg1
  0
POLYLINE
  8
gg1
 62
1
 40
0.000000
 41
0.000000
 66
  1
  0
VERTEX
  8
gg1
 10
0.000000
 20
0.000000
  0
VERTEX
  8
gg1
 10
1.700000
 20
0.000000
  0
VERTEX
  8
gg1
 10
1.700000
 20
1.250000
  0
SEQEND
  8
gg1
  0
POLYLINE
  8
gg1
 62
1
 40
0.000000
 41
0.000000
 66
  1
  0
VERTEX
  8
gg1
 10
0.000000
 20
1.250000
  0
VERTEX
  8
gg1
 10
1.700000
 20
1.250000
  0
SEQEND
  8
gg1
  0
POLYLINE
  8
gg1
 62
1
 40
0.000000
 41
0.000000
 66
  1
  0
VERTEX
  8
gg1
 10
0.000000
 20
0.000000
  0
VERTEX
  8
gg1
 10
0.000000
 20
1.250000
  0
SEQEND
  8
gg1
  0
POLYLINE
  8
gg1
 62
1
 40
0.000000
 41
0.000000
 66
  1
  0
VERTEX
  8
gg1
 10
0.654100
 20
-0.151000
  0
VERTEX
  8
gg1
 10
0.674100
 20
-0.151000
  0
VERTEX
  8
gg1
 10
0.664100
 20
-0.151000
  0
VERTEX
  8
gg1
 10
0.664100
 20
-0.091000
  0
VERTEX
  8
gg1
 10
0.654100
 20
-0.101000
  0
SEQEND
  8
gg1
  0
POLYLINE
  8
gg1
 62
1
 40
0.000000
 41
0.000000
 66
  1
  0
VERTEX
  8
gg1
 10
0.704000
 20
-0.091000
  0
VERTEX
  8
gg1
 10
0.744000
 20
-0.091000
  0
VERTEX
  8
gg1
 10
0.744000
 20
-0.101000
  0
VERTEX
  8
gg1
 10
0.704000
 20
-0.141000
  0
VERTEX
  8
gg1
 10
0.704000
 20
-0.151000
  0
SEQEND
  8
gg1
  0
POLYLINE
  8
gg1
 62
1
 40
0.000000
 41
0.000000
 66
  1
  0
VERTEX
  8
gg1
 10
0.764000
 20
-0.101000
  0
VERTEX
  8
gg1
 10
0.774000
 20
-0.091000
  0
VERTEX
  8
gg1
 10
0.794000
 20
-0.091000
  0
VERTEX
  8
gg1
 10
0.804000
 20
-0.101000
  0
VERTEX
  8
gg1
 10
0.804000
 20
-0.141000
  0
VERTEX
  8
gg1
 10
0.794000
 20
-0.151000
  0
VERTEX
  8
gg1
 10
0.774000
 20
-0.151000
  0
VERTEX
  8
gg1
 10
0.764000
 20
-0.141000
  0
VERTEX
  8
gg1
 10
0.764000
 20
-0.101000
  0
SEQEND
  8
gg1
  0
POLYLINE
  8
gg1
 62
1
 40
0.000000
 41
0.000000
 66
  1
  0
VERTEX
  8
gg1
 10
0.824000
 20
-0.101000
  0
VERTEX
  8
gg1
 10
0.834000
 20
-0.091000
  0
VERTEX
  8
gg1
 10
0.854000
 20
-0.091000
  0
VERTEX
  8
gg1
 10
0.864000
 20
-0.101000
  0
VERTEX
  8
gg1
 10
0.864000
 20
-0.141000
  0
VERTEX
  8
gg1
 10
0.854000
 20
-0.151000
  0
VERTEX
  8
gg1
 10
0.834000
 20
-0.151000
  0
VERTEX
  8
gg1
 10
0.824000
 20
-0.141000
  0
VERTEX
  8
gg1
 10
0.824000
 20
-0.101000
  0
SEQEND
  8
gg1
  0
POLYLINE
  8
gg1
 62
1
 40
0.000000
 41
0.000000
 66
  1
  0
VERTEX
  8
gg1
 10
0.884000
 20
-0.151000
  0
VERTEX
  8
gg1
 10
0.884000
 20
-0.111000
  0
VERTEX
  8
gg1
 10
0.894000
 20
-0.111000
  0
VERTEX
  8
gg1
 10
0.904000
 20
-0.121000
  0
VERTEX
  8
gg1
 10
0.904000
 20
-0.151000
  0
VERTEX
  8
gg1
 10
0.904000
 20
-0.121000
  0
VERTEX
  8
gg1
 10
0.914000
 20
-0.111000
  0
VERTEX
  8
gg1
 10
0.924000
 20
-0.121000
  0
VERTEX
  8
gg1
 10
0.924000
 20
-0.151000
  0
SEQEND
  8
gg1
  0
POLYLINE
  8
gg1
 62
1
 40
0.000000
 41
0.000000
 66
  1
  0
VERTEX
  8
gg1
 10
0.944000
 20
-0.151000
  0
VERTEX
  8
gg1
 10
0.964000
 20
-0.151000
  0
VERTEX
  8
gg1
 10
0.954000
 20
-0.151000
  0
VERTEX
  8
gg1
 10
0.954000
 20
-0.111000
  0
VERTEX
  8
gg1
 10
0.944000
 20
-0.111000
  0
SEQEND
  8
gg1
  0
POLYLINE
  8
gg1
 62
1
 40
0.000000
 41
0.000000
 66
  1
  0
VERTEX
  8
gg1
 10
0.993900
 20
-0.151000
  0
VERTEX
  8
gg1
 10
1.013900
 20
-0.151000
  0
VERTEX
  8
gg1
 10
1.003900
 20
-0.151000
  0
VERTEX
  8
gg1
 10
1.003900
 20
-0.091000
  0
VERTEX
  8
gg1
 10
0.993900
 20
-0.091000
  0
SEQEND
  8
gg1
  0
POLYLINE
  8
gg1
 62
1
 40
0.000000
 41
0.000000
 66
  1
  0
VERTEX
  8
gg1
 10
-0.139000
 20
0.429100
  0
VERTEX
  8
gg1
 10
-0.139000
 20
0.449100
  0
VERTEX
  8
gg1
 10
-0.139000
 20
0.439100
  0
VERTEX
  8
gg1
 10
-0.199000
 20
0.439100
  0
VERTEX
  8
gg1
 10
-0.189000
 20
0.429100
  0
SEQEND
  8
gg1
  0
POLYLINE
  8
gg1
 62
1
 40
0.000000
 41
0.000000
 66
  1
  0
VERTEX
  8
gg1
 10
-0.139000
 20
0.519000
  0
VERTEX
  8
gg1
 10
-0.139000
 20
0.479000
  0
VERTEX
  8
gg1
 10
-0.179000
 20
0.519000
  0
VERTEX
  8
gg1
 10
-0.189000
 20
0.519000
  0
VERTEX
  8
gg1
 10
-0.199000
 20
0.509000
  0
VERTEX
  8
gg1
 10
-0.199000
 20
0.489000
  0
VERTEX
  8
gg1
 10
-0.189000
 20
0.479000
  0
SEQEND
  8
gg1
  0
POLYLINE
  8
gg1
 62
1
 40
0.000000
 41
0.000000
 66
  1
  0
VERTEX
  8
gg1
 10
-0.199000
 20
0.579000
  0
VERTEX
  8
gg1
 10
-0.199000
 20
0.539000
  0
VERTEX
  8
gg1
 10
-0.169000
 20
0.539000
  0
VERTEX
  8
gg1
 10
-0.179000
 20
0.559000
  0
VERTEX
  8
gg1
 10
-0.179000
 20
0.569000
  0
VERTEX
  8
gg1
 10
-0.169000
 20
0.579000
  0
VERTEX
  8
gg1
 10
-0.149000
 20
0.579000
  0
VERTEX
  8
gg1
 10
-0.139000
 20
0.569000
  0
VERTEX
  8
gg1
 10
-0.139000
 20
0.549000
  0
VERTEX
  8
gg1
 10
-0.149000
 20
0.539000
  0
SEQEND
  8
gg1
  0
POLYLINE
  8
gg1
 62
1
 40
0.000000
 41
0.000000
 66
  1
  0
VERTEX
  8
gg1
 10
-0.189000
 20
0.599000
  0
VERTEX
  8
gg1
 10
-0.199000
 20
0.609000
  0
VERTEX
  8
gg1
 10
-0.199000
 20
0.629000
  0
VERTEX
  8
gg1
 10
-0.189000
 20
0.639000
  0
VERTEX
  8
gg1
 10
-0.149000
 20
0.639000
  0
VERTEX
  8
gg1
 10
-0.139000
 20
0.629000
  0
VERTEX
  8
gg1
 10
-0.139000
 20
0.609000
  0
VERTEX
  8
gg1
 10
-0.149000
 20
0.599000
  0
VERTEX
  8
gg1
 10
-0.189000
 20
0.599000
  0
SEQEND
  8
gg1
  0
POLYLINE
  8
gg1
 62
1
 40
0.000000
 41
0.000000
 66
  1
  0
VERTEX
  8
gg1
 10
-0.139000
 20
0.659000
  0
VERTEX
  8
gg1
 10
-0.179000
 20
0.659000
  0
VERTEX
  8
gg1
 10
-0.179000
 20
0.669000
  0
VERTEX
  8
gg1
 10
-0.169000
 20
0.679000
  0
VERTEX
  8
gg1
 10
-0.139000
 20
0.679000
  0
VERTEX
  8
gg1
 10
-0.169000
 20
0.679000
  0
VERTEX
  8
gg1
 10
-0.179000
 20
0.689000
  0
VERTEX
  8
gg1
 10
-0.169000
 20
0.699000
  0
VERTEX
  8
gg1
 10
-0.139000
 20
0.699000
  0
SEQEND
  8
gg1
  0
POLYLINE
  8
gg1
 62
1
 40
0.000000
 41
0.000000
 66
  1
  0
VERTEX
  8
gg1
 10
-0.139000
 20
0.719000
  0
VERTEX
  8
gg1
 10
-0.139000
 20
0.739000
  0
VERTEX
  8
gg1
 10
-0.139000
 20
0.729000
  0
VERTEX
  8
gg1
 10
-0.179000
 20
0.729000
  0
VERTEX
  8
gg1
 10
-0.179000
 20
0.719000
  0
SEQEND
  8
gg1
  0
POLYLINE
  8
gg1
 62
1
 40
0.000000
 41
0.000000
 66
  1
  0
VERTEX
  8
gg1
 10
-0.139000
 20
0.768900
  0
VERTEX
  8
gg1
 10
-0.139000
 20
0.788900
  0
VERTEX
  8
gg1
 10
-0.139000
 20
0.778900
  0
VERTEX
  8
gg1
 10
-0.199000
 20
0.778900
  0
VERTEX
  8
gg1
 10
-0.199000
 20
0.768900
  0
SEQEND
  8
gg1
  0
POLYLINE
  8
gg1
 62
1
 40
0.000000
 41
0.000000
 66
  1
  0
VERTEX
  8
gg1
 10
0.930000
 20
0.100000
  0
VERTEX
  8
gg1
 10
0.970000
 20
0.100000
  0
SEQEND
  8
gg1
  0
POLYLINE
  8
gg1
 62
1
 40
0.000000
 41
0.000000
 66
  1
  0
VERTEX
  8
gg1
 10
0.950000
 20
0.080000
  0
VERTEX
  8
gg1
 10
0.950000
 20
0.120000
  0
SEQEND
  8
gg1
  0
POLYLINE
  8
gg1
 62
1
 40
0.000000
 41
0.000000
 66
  1
  0
VERTEX
  8
gg1
 10
0.830000
 20
0.100000
  0
VERTEX
  8
gg1
 10
0.870000
 20
0.100000
  0
SEQEND
  8
gg1
  0
POLYLINE
  8
gg1
 62
1
 40
0.000000
 41
0.000000
 66
  1
  0
VERTEX
  8
gg1
 10
0.850000
 20
0.080000
  0
VERTEX
  8
gg1
 10
0.850000
 20
0.120000
  0
SEQEND
  8
gg1
  0
POLYLINE
  8
gg1
 62
1
 40
0.000000
 41
0.000000
 66
  1
  0
VERTEX
  8
gg1
 10
1.130000
 20
0.200000
  0
VERTEX
  8
gg1
 10
1.170000
 20
0.200000
  0
SEQEND
  8
gg1
  0
POLYLINE
  8
gg1
 62
1
 40
0.000000
 41
0.000000
 66
  1
  0
VERTEX
  8
gg1
 10
1.150000
 20
0.180000
  0
VERTEX
  8
gg1
 10
1.150000
 20
0.220000
  0
SEQEND
  8
gg1
  0
POLYLINE
  8
gg1
 62
1
 40
0.000000
 41
0.000000
 66
  1
  0
VERTEX
  8
gg1
 10
1.230000
 20
0.200000
  0
VERTEX
  8
gg1
 10
1.270000
 20
0.200000
  0
SEQEND
  8
gg1
  0
POLYLINE
  8
gg1
 62
1
 40
0.000000
 41
0.000000
 66
  1
  0
VERTEX
  8
gg1
 10
1.250000
 20
0.180000
  0
VERTEX
  8
gg1
 10
1.250000
 20
0.220000
  0
SEQEND
  8
gg1
  0
POLYLINE
  8
gg1
 62
1
 40
0.000000
 41
0.000000
 66
  1
  0
VERTEX
  8
gg1
 10
1.330000
 20
0.200000
  0
VERTEX
  8
gg1
 10
1.370000
 20
0.200000
  0
SEQEND
  8
gg1
  0
POLYLINE
  8
gg1
 62
1
 40
0.000000
 41
0.000000
 66
  1
  0
VERTEX
  8
gg1
 10
1.350000
 20
0.180000
  0
VERTEX
  8
gg1
 10
1.350000
 20
0.220000
  0
SEQEND
  8
gg1
  0
POLYLINE
  8
gg1
 62
1
 40
0.000000
 41
0.000000
 66
  1
  0
VERTEX
  8
gg1
 10
1.430000
 20
0.200000
  0
VERTEX
  8
gg1
 10
1.470000
 20
0.200000
  0
SEQEND
  8
gg1
  0
POLYLINE
  8
gg1
 62
1
 40
0.000000
 41
0.000000
 66
  1
  0
VERTEX
  8
gg1
 10
1.450000
 20
0.180000
  0
VERTEX
  8
gg1
 10
1.450000
 20
0.220000
  0
SEQEND
  8
gg1
  0
POLYLINE
  8
gg1
 62
1
 40
0.000000
 41
0.000000
 66
  1
  0
VERTEX
  8
gg1
 10
0.630000
 20
0.100000
  0
VERTEX
  8
gg1
 10
0.670000
 20
0.100000
  0
SEQEND
  8
gg1
  0
POLYLINE
  8
gg1
 62
1
 40
0.000000
 41
0.000000
 66
  1
  0
VERTEX
  8
gg1
 10
0.650000
 20
0.080000
  0
VERTEX
  8
gg1
 10
0.650000
 20
0.120000
  0
SEQEND
  8
gg1
  0
POLYLINE
  8
gg1
 62
1
 40
0.000000
 41
0.000000
 66
  1
  0
VERTEX
  8
gg1
 10
1.160200
 20
0.100000
  0
VERTEX
  8
gg1
 10
1.246200
 20
0.100000
  0
SEQEND
  8
gg1
  0
POLYLINE
  8
gg1
 62
1
 40
0.000000
 41
0.000000
 66
  1
  0
VERTEX
  8
gg1
 10
1.203200
 20
0.057000
  0
VERTEX
  8
gg1
 10
1.203200
 20
0.143000
  0
SEQEND
  8
gg1
  0
POLYLINE
  8
gg1
 62
1
 40
0.000000
 41
0.000000
 66
  1
  0
VERTEX
  8
gg1
 10
1.357000
 20
0.100000
  0
VERTEX
  8
gg1
 10
1.443000
 20
0.100000
  0
SEQEND
  8
gg1
  0
POLYLINE
  8
gg1
 62
1
 40
0.000000
 41
0.000000
 66
  1
  0
VERTEX
  8
gg1
 10
1.400000
 20
0.057000
  0
VERTEX
  8
gg1
 10
1.400000
 20
0.143000
  0
SEQEND
  8
gg1
  0
POLYLINE
  8
gg1
 62
1
 40
0.000000
 41
0.000000
 66
  1
  0
VERTEX
  8
gg1
 10
0.730000
 20
0.100000
  0
VERTEX
  8
gg1
 10
0.770000
 20
0.100000
  0
SEQEND
  8
gg1
  0
POLYLINE
  8
gg1
 62
1
 40
0.000000
 41
0.000000
 66
  1
  0
VERTEX
  8
gg1
 10
0.750000
 20
0.080000
  0
VERTEX
  8
gg1
 10
0.750000
 20
0.120000
  0
SEQEND
  8
gg1
  0
POLYLINE
  8
gg1
 62
1
 40
0.000000
 41
0.000000
 66
  1
  0
VERTEX
  8
gg1
 10
0.384000
 20
0.425000
  0
VERTEX
  8
gg1
 10
0.404000
 20
0.425000
  0
SEQEND
  8
gg1
  0
POLYLINE
  8
gg1
 62
1
 40
0.000000
 41
0.000000
 66
  1
  0
VERTEX
  8
gg1
 10
0.394000
 20
0.415000
  0
VERTEX
  8
gg1
 10
0.394000
 20
0.435000
  0
SEQEND
  8
gg1
  0
POLYLINE
  8
gg1
 62
1
 40
0.000000
 41
0.000000
 66
  1
  0
VERTEX
  8
gg1
 10
0.453900
 20
0.100000
  0
VERTEX
  8
gg1
 10
0.539800
 20
0.100000
  0
SEQEND
  8
gg1
  0
POLYLINE
  8
gg1
 62
1
 40
0.000000
 41
0.000000
 66
  1
  0
VERTEX
  8
gg1
 10
0.496900
 20
0.057000
  0
VERTEX
  8
gg1
 10
0.496900
 20
0.143000
  0
SEQEND
  8
gg1
  0
POLYLINE
  8
gg1
 62
1
 40
0.000000
 41
0.000000
 66
  1
  0
VERTEX
  8
gg1
 10
0.257000
 20
0.100000
  0
VERTEX
  8
gg1
 10
0.343000
 20
0.100000
  0
SEQEND
  8
gg1
  0
POLYLINE
  8
gg1
 62
1
 40
0.000000
 41
0.000000
 66
  1
  0
VERTEX
  8
gg1
 10
0.300000
 20
0.057000
  0
VERTEX
  8
gg1
 10
0.300000
 20
0.143000
  0
SEQEND
  8
gg1
  0
POLYLINE
  8
gg1
 62
1
 40
0.000000
 41
0.000000
 66
  1
  0
VERTEX
  8
gg1
 10
0.530000
 20
0.200000
  0
VERTEX
  8
gg1
 10
0.570000
 20
0.200000
  0
SEQEND
  8
gg1
  0
POLYLINE
  8
gg1
 62
1
 40
0.000000
 41
0.000000
 66
  1
  0
VERTEX
  8
gg1
 10
0.550000
 20
0.180000
  0
VERTEX
  8
gg1
 10
0.550000
 20
0.220000
  0
SEQEND
  8
gg1
  0
POLYLINE
  8
gg1
 62
1
 40
0.000000
 41
0.000000
 66
  1
  0
VERTEX
  8
gg1
 10
0.430000
 20
0.200000
  0
VERTEX
  8
gg1
 10
0.470000
 20
0.200000
  0
SEQEND
  8
gg1
  0
POLYLINE
  8
gg1
 62
1
 40
0.000000
 41
0.000000
 66
  1
  0
VERTEX
  8
gg1
 10
0.450000
 20
0.180000
  0
VERTEX
  8
gg1
 10
0.450000
 20
0.220000
  0
SEQEND
  8
gg1
  0
POLYLINE
  8
gg1
 62
1
 40
0.000000
 41
0.000000
 66
  1
  0
VERTEX
  8
gg1
 10
0.330000
 20
0.200000
  0
VERTEX
  8
gg1
 10
0.370000
 20
0.200000
  0
SEQEND
  8
gg1
  0
POLYLINE
  8
gg1
 62
1
 40
0.000000
 41
0.000000
 66
  1
  0
VERTEX
  8
gg1
 10
0.350000
 20
0.180000
  0
VERTEX
  8
gg1
 10
0.350000
 20
0.220000
  0
SEQEND
  8
gg1
  0
POLYLINE
  8
gg1
 62
1
 40
0.000000
 41
0.000000
 66
  1
  0
VERTEX
  8
gg1
 10
0.230000
 20
0.200000
  0
VERTEX
  8
gg1
 10
0.270000
 20
0.200000
  0
SEQEND
  8
gg1
  0
POLYLINE
  8
gg1
 62
1
 40
0.000000
 41
0.000000
 66
  1
  0
VERTEX
  8
gg1
 10
0.250000
 20
0.180000
  0
VERTEX
  8
gg1
 10
0.250000
 20
0.220000
  0
SEQEND
  8
gg1
  0
POLYLINE
  8
gg1
 62
1
 40
0.000000
 41
0.000000
 66
  1
  0
VERTEX
  8
gg1
 10
1.030000
 20
0.100000
  0
VERTEX
  8
gg1
 10
1.070000
 20
0.100000
  0
SEQEND
  8
gg1
  0
POLYLINE
  8
gg1
 62
1
 40
0.000000
 41
0.000000
 66
  1
  0
VERTEX
  8
gg1
 10
1.050000
 20
0.080000
  0
VERTEX
  8
gg1
 10
1.050000
 20
0.120000
  0
SEQEND
  8
gg1
  0
POLYLINE
  8
gg1
 62
1
 40
0.000000
 41
0.000000
 66
  1
  0
VERTEX
  8
gg1
 10
0.042000
 20
0.165000
  0
VERTEX
  8
gg1
 10
0.128000
 20
0.165000
  0
SEQEND
  8
gg1
  0
POLYLINE
  8
gg1
 62
1
 40
0.000000
 41
0.000000
 66
  1
  0
VERTEX
  8
gg1
 10
0.085000
 20
0.122000
  0
VERTEX
  8
gg1
 10
0.085000
 20
0.208000
  0
SEQEND
  8
gg1
  0
POLYLINE
  8
gg1
 62
1
 40
0.000000
 41
0.000000
 66
  1
  0
VERTEX
  8
gg1
 10
1.572000
 20
0.165000
  0
VERTEX
  8
gg1
 10
1.658000
 20
0.165000
  0
SEQEND
  8
gg1
  0
POLYLINE
  8
gg1
 62
1
 40
0.000000
 41
0.000000
 66
  1
  0
VERTEX
  8
gg1
 10
1.615000
 20
0.122000
  0
VERTEX
  8
gg1
 10
1.615000
 20
0.208000
  0
SEQEND
  8
gg1
  0
POLYLINE
  8
gg1
 62
1
 40
0.000000
 41
0.000000
 66
  1
  0
VERTEX
  8
gg1
 10
1.572000
 20
1.165000
  0
VERTEX
  8
gg1
 10
1.658000
 20
1.165000
  0
SEQEND
  8
gg1
  0
POLYLINE
  8
gg1
 62
1
 40
0.000000
 41
0.000000
 66
  1
  0
VERTEX
  8
gg1
 10
1.615000
 20
1.122000
  0
VERTEX
  8
gg1
 10
1.615000
 20
1.208000
  0
SEQEND
  8
gg1
  0
POLYLINE
  8
gg1
 62
1
 40
0.000000
 41
0.000000
 66
  1
  0
VERTEX
  8
gg1
 10
0.042000
 20
1.165000
  0
VERTEX
  8
gg1
 10
0.128000
 20
1.165000
  0
SEQEND
  8
gg1
  0
POLYLINE
  8
gg1
 62
1
 40
0.000000
 41
0.000000
 66
  1
  0
VERTEX
  8
gg1
 10
0.085000
 20
1.122000
  0
VERTEX
  8
gg1
 10
0.085000
 20
1.208000
  0
SEQEND
  8
gg1
  0
POLYLINE
  8
gg1
 62
1
 40
0.000000
 41
0.000000
 66
  1
  0
VERTEX
  8
gg1
 10
0.722500
 20
0.610000
  0
VERTEX
  8
gg1
 10
0.737500
 20
0.610000
  0
SEQEND
  8
gg1
  0
POLYLINE
  8
gg1
 62
1
 40
0.000000
 41
0.000000
 66
  1
  0
VERTEX
  8
gg1
 10
0.730000
 20
0.602500
  0
VERTEX
  8
gg1
 10
0.730000
 20
0.617500
  0
SEQEND
  8
gg1
  0
POLYLINE
  8
gg1
 62
1
 40
0.000000
 41
0.000000
 66
  1
  0
VERTEX
  8
gg1
 10
0.782500
 20
0.610000
  0
VERTEX
  8
gg1
 10
0.797500
 20
0.610000
  0
SEQEND
  8
gg1
  0
POLYLINE
  8
gg1
 62
1
 40
0.000000
 41
0.000000
 66
  1
  0
VERTEX
  8
gg1
 10
0.790000
 20
0.602500
  0
VERTEX
  8
gg1
 10
0.790000
 20
0.617500
  0
SEQEND
  8
gg1
  0
POLYLINE
  8
gg1
 62
1
 40
0.000000
 41
0.000000
 66
  1
  0
VERTEX
  8
gg1
 10
0.752500
 20
0.610000
  0
VERTEX
  8
gg1
 10
0.767500
 20
0.610000
  0
SEQEND
  8
gg1
  0
POLYLINE
  8
gg1
 62
1
 40
0.000000
 41
0.000000
 66
  1
  0
VERTEX
  8
gg1
 10
0.760000
 20
0.602500
  0
VERTEX
  8
gg1
 10
0.760000
 20
0.617500
  0
SEQEND
  8
gg1
  0
POLYLINE
  8
gg1
 62
1
 40
0.000000
 41
0.000000
 66
  1
  0
VERTEX
  8
gg1
 10
0.827500
 20
0.635000
  0
VERTEX
  8
gg1
 10
0.842500
 20
0.635000
  0
SEQEND
  8
gg1
  0
POLYLINE
  8
gg1
 62
1
 40
0.000000
 41
0.000000
 66
  1
  0
VERTEX
  8
gg1
 10
0.835000
 20
0.627500
  0
VERTEX
  8
gg1
 10
0.835000
 20
0.642500
  0
SEQEND
  8
gg1
  0
POLYLINE
  8
gg1
 62
1
 40
0.000000
 41
0.000000
 66
  1
  0
VERTEX
  8
gg1
 10
0.767500
 20
0.635000
  0
VERTEX
  8
gg1
 10
0.782500
 20
0.635000
  0
SEQEND
  8
gg1
  0
POLYLINE
  8
gg1
 62
1
 40
0.000000
 41
0.000000
 66
  1
  0
VERTEX
  8
gg1
 10
0.775000
 20
0.627500
  0
VERTEX
  8
gg1
 10
0.775000
 20
0.642500
  0
SEQEND
  8
gg1
  0
POLYLINE
  8
gg1
 62
1
 40
0.000000
 41
0.000000
 66
  1
  0
VERTEX
  8
gg1
 10
0.722500
 20
0.660000
  0
VERTEX
  8
gg1
 10
0.737500
 20
0.660000
  0
SEQEND
  8
gg1
  0
POLYLINE
  8
gg1
 62
1
 40
0.000000
 41
0.000000
 66
  1
  0
VERTEX
  8
gg1
 10
0.730000
 20
0.652500
  0
VERTEX
  8
gg1
 10
0.730000
 20
0.667500
  0
SEQEND
  8
gg1
  0
POLYLINE
  8
gg1
 62
1
 40
0.000000
 41
0.000000
 66
  1
  0
VERTEX
  8
gg1
 10
0.752500
 20
0.660000
  0
VERTEX
  8
gg1
 10
0.767500
 20
0.660000
  0
SEQEND
  8
gg1
  0
POLYLINE
  8
gg1
 62
1
 40
0.000000
 41
0.000000
 66
  1
  0
VERTEX
  8
gg1
 10
0.760000
 20
0.652500
  0
VERTEX
  8
gg1
 10
0.760000
 20
0.667500
  0
SEQEND
  8
gg1
  0
POLYLINE
  8
gg1
 62
1
 40
0.000000
 41
0.000000
 66
  1
  0
VERTEX
  8
gg1
 10
0.782500
 20
0.660000
  0
VERTEX
  8
gg1
 10
0.797500
 20
0.660000
  0
SEQEND
  8
gg1
  0
POLYLINE
  8
gg1
 62
1
 40
0.000000
 41
0.000000
 66
  1
  0
VERTEX
  8
gg1
 10
0.790000
 20
0.652500
  0
VERTEX
  8
gg1
 10
0.790000
 20
0.667500
  0
SEQEND
  8
gg1
  0
POLYLINE
  8
gg1
 62
1
 40
0.000000
 41
0.000000
 66
  1
  0
VERTEX
  8
gg1
 10
0.842500
 20
0.660000
  0
VERTEX
  8
gg1
 10
0.857500
 20
0.660000
  0
SEQEND
  8
gg1
  0
POLYLINE
  8
gg1
 62
1
 40
0.000000
 41
0.000000
 66
  1
  0
VERTEX
  8
gg1
 10
0.850000
 20
0.652500
  0
VERTEX
  8
gg1
 10
0.850000
 20
0.667500
  0
SEQEND
  8
gg1
  0
POLYLINE
  8
gg1
 62
1
 40
0.000000
 41
0.000000
 66
  1
  0
VERTEX
  8
gg1
 10
0.707500
 20
0.635000
  0
VERTEX
  8
gg1
 10
0.722500
 20
0.635000
  0
SEQEND
  8
gg1
  0
POLYLINE
  8
gg1
 62
1
 40
0.000000
 41
0.000000
 66
  1
  0
VERTEX
  8
gg1
 10
0.715000
 20
0.627500
  0
VERTEX
  8
gg1
 10
0.715000
 20
0.642500
  0
SEQEND
  8
gg1
  0
POLYLINE
  8
gg1
 62
1
 40
0.000000
 41
0.000000
 66
  1
  0
VERTEX
  8
gg1
 10
0.737500
 20
0.635000
  0
VERTEX
  8
gg1
 10
0.752500
 20
0.635000
  0
SEQEND
  8
gg1
  0
POLYLINE
  8
gg1
 62
1
 40
0.000000
 41
0.000000
 66
  1
  0
VERTEX
  8
gg1
 10
0.745000
 20
0.627500
  0
VERTEX
  8
gg1
 10
0.745000
 20
0.642500
  0
SEQEND
  8
gg1
  0
POLYLINE
  8
gg1
 62
1
 40
0.000000
 41
0.000000
 66
  1
  0
VERTEX
  8
gg1
 10
0.797500
 20
0.635000
  0
VERTEX
  8
gg1
 10
0.812500
 20
0.635000
  0
SEQEND
  8
gg1
  0
POLYLINE
  8
gg1
 62
1
 40
0.000000
 41
0.000000
 66
  1
  0
VERTEX
  8
gg1
 10
0.805000
 20
0.627500
  0
VERTEX
  8
gg1
 10
0.805000
 20
0.642500
  0
SEQEND
  8
gg1
  0
POLYLINE
  8
gg1
 62
1
 40
0.000000
 41
0.000000
 66
  1
  0
VERTEX
  8
gg1
 10
0.812500
 20
0.660000
  0
VERTEX
  8
gg1
 10
0.827500
 20
0.660000
  0
SEQEND
  8
gg1
  0
POLYLINE
  8
gg1
 62
1
 40
0.000000
 41
0.000000
 66
  1
  0
VERTEX
  8
gg1
 10
0.820000
 20
0.652500
  0
VERTEX
  8
gg1
 10
0.820000
 20
0.667500
  0
SEQEND
  8
gg1
  0
POLYLINE
  8
gg1
 62
1
 40
0.000000
 41
0.000000
 66
  1
  0
VERTEX
  8
gg1
 10
0.707500
 20
0.685000
  0
VERTEX
  8
gg1
 10
0.722500
 20
0.685000
  0
SEQEND
  8
gg1
  0
POLYLINE
  8
gg1
 62
1
 40
0.000000
 41
0.000000
 66
  1
  0
VERTEX
  8
gg1
 10
0.715000
 20
0.677500
  0
VERTEX
  8
gg1
 10
0.715000
 20
0.692500
  0
SEQEND
  8
gg1
  0
POLYLINE
  8
gg1
 62
1
 40
0.000000
 41
0.000000
 66
  1
  0
VERTEX
  8
gg1
 10
0.607500
 20
0.790000
  0
VERTEX
  8
gg1
 10
0.622500
 20
0.790000
  0
SEQEND
  8
gg1
  0
POLYLINE
  8
gg1
 62
1
 40
0.000000
 41
0.000000
 66
  1
  0
VERTEX
  8
gg1
 10
0.615000
 20
0.782500
  0
VERTEX
  8
gg1
 10
0.615000
 20
0.797500
  0
SEQEND
  8
gg1
  0
POLYLINE
  8
gg1
 62
1
 40
0.000000
 41
0.000000
 66
  1
  0
VERTEX
  8
gg1
 10
0.737500
 20
0.685000
  0
VERTEX
  8
gg1
 10
0.752500
 20
0.685000
  0
SEQEND
  8
gg1
  0
POLYLINE
  8
gg1
 62
1
 40
0.000000
 41
0.000000
 66
  1
  0
VERTEX
  8
gg1
 10
0.745000
 20
0.677500
  0
VERTEX
  8
gg1
 10
0.745000
 20
0.692500
  0
SEQEND
  8
gg1
  0
POLYLINE
  8
gg1
 62
1
 40
0.000000
 41
0.000000
 66
  1
  0
VERTEX
  8
gg1
 10
0.767500
 20
0.685000
  0
VERTEX
  8
gg1
 10
0.782500
 20
0.685000
  0
SEQEND
  8
gg1
  0
POLYLINE
  8
gg1
 62
1
 40
0.000000
 41
0.000000
 66
  1
  0
VERTEX
  8
gg1
 10
0.775000
 20
0.677500
  0
VERTEX
  8
gg1
 10
0.775000
 20
0.692500
  0
SEQEND
  8
gg1
  0
POLYLINE
  8
gg1
 62
1
 40
0.000000
 41
0.000000
 66
  1
  0
VERTEX
  8
gg1
 10
0.797500
 20
0.685000
  0
VERTEX
  8
gg1
 10
0.812500
 20
0.685000
  0
SEQEND
  8
gg1
  0
POLYLINE
  8
gg1
 62
1
 40
0.000000
 41
0.000000
 66
  1
  0
VERTEX
  8
gg1
 10
0.805000
 20
0.677500
  0
VERTEX
  8
gg1
 10
0.805000
 20
0.692500
  0
SEQEND
  8
gg1
  0
POLYLINE
  8
gg1
 62
1
 40
0.000000
 41
0.000000
 66
  1
  0
VERTEX
  8
gg1
 10
1.242500
 20
1.030000
  0
VERTEX
  8
gg1
 10
1.257500
 20
1.030000
  0
SEQEND
  8
gg1
  0
POLYLINE
  8
gg1
 62
1
 40
0.000000
 41
0.000000
 66
  1
  0
VERTEX
  8
gg1
 10
1.250000
 20
1.022500
  0
VERTEX
  8
gg1
 10
1.250000
 20
1.037500
  0
SEQEND
  8
gg1
  0
POLYLINE
  8
gg1
 62
1
 40
0.000000
 41
0.000000
 66
  1
  0
VERTEX
  8
gg1
 10
1.122500
 20
1.030000
  0
VERTEX
  8
gg1
 10
1.137500
 20
1.030000
  0
SEQEND
  8
gg1
  0
POLYLINE
  8
gg1
 62
1
 40
0.000000
 41
0.000000
 66
  1
  0
VERTEX
  8
gg1
 10
1.130000
 20
1.022500
  0
VERTEX
  8
gg1
 10
1.130000
 20
1.037500
  0
SEQEND
  8
gg1
  0
POLYLINE
  8
gg1
 62
1
 40
0.000000
 41
0.000000
 66
  1
  0
VERTEX
  8
gg1
 10
0.487500
 20
0.370000
  0
VERTEX
  8
gg1
 10
0.502500
 20
0.370000
  0
SEQEND
  8
gg1
  0
POLYLINE
  8
gg1
 62
1
 40
0.000000
 41
0.000000
 66
  1
  0
VERTEX
  8
gg1
 10
0.495000
 20
0.362500
  0
VERTEX
  8
gg1
 10
0.495000
 20
0.377500
  0
SEQEND
  8
gg1
  0
POLYLINE
  8
gg1
 62
1
 40
0.000000
 41
0.000000
 66
  1
  0
VERTEX
  8
gg1
 10
0.517500
 20
0.400000
  0
VERTEX
  8
gg1
 10
0.532500
 20
0.400000
  0
SEQEND
  8
gg1
  0
POLYLINE
  8
gg1
 62
1
 40
0.000000
 41
0.000000
 66
  1
  0
VERTEX
  8
gg1
 10
0.525000
 20
0.392500
  0
VERTEX
  8
gg1
 10
0.525000
 20
0.407500
  0
SEQEND
  8
gg1
  0
POLYLINE
  8
gg1
 62
1
 40
0.000000
 41
0.000000
 66
  1
  0
VERTEX
  8
gg1
 10
0.452500
 20
0.400000
  0
VERTEX
  8
gg1
 10
0.467500
 20
0.400000
  0
SEQEND
  8
gg1
  0
POLYLINE
  8
gg1
 62
1
 40
0.000000
 41
0.000000
 66
  1
  0
VERTEX
  8
gg1
 10
0.460000
 20
0.392500
  0
VERTEX
  8
gg1
 10
0.460000
 20
0.407500
  0
SEQEND
  8
gg1
  0
POLYLINE
  8
gg1
 62
1
 40
0.000000
 41
0.000000
 66
  1
  0
VERTEX
  8
gg1
 10
0.047500
 20
0.690000
  0
VERTEX
  8
gg1
 10
0.062500
 20
0.690000
  0
SEQEND
  8
gg1
  0
POLYLINE
  8
gg1
 62
1
 40
0.000000
 41
0.000000
 66
  1
  0
VERTEX
  8
gg1
 10
0.055000
 20
0.682500
  0
VERTEX
  8
gg1
 10
0.055000
 20
0.697500
  0
SEQEND
  8
gg1
  0
POLYLINE
  8
gg1
 62
1
 40
0.000000
 41
0.000000
 66
  1
  0
VERTEX
  8
gg1
 10
0.067500
 20
0.550000
  0
VERTEX
  8
gg1
 10
0.082500
 20
0.550000
  0
SEQEND
  8
gg1
  0
POLYLINE
  8
gg1
 62
1
 40
0.000000
 41
0.000000
 66
  1
  0
VERTEX
  8
gg1
 10
0.075000
 20
0.542500
  0
VERTEX
  8
gg1
 10
0.075000
 20
0.557500
  0
SEQEND
  8
gg1
  0
POLYLINE
  8
gg1
 62
1
 40
0.000000
 41
0.000000
 66
  1
  0
VERTEX
  8
gg1
 10
0.052500
 20
0.950000
  0
VERTEX
  8
gg1
 10
0.067500
 20
0.950000
  0
SEQEND
  8
gg1
  0
POLYLINE
  8
gg1
 62
1
 40
0.000000
 41
0.000000
 66
  1
  0
VERTEX
  8
gg1
 10
0.060000
 20
0.942500
  0
VERTEX
  8
gg1
 10
0.060000
 20
0.957500
  0
SEQEND
  8
gg1
  0
POLYLINE
  8
gg1
 62
1
 40
0.000000
 41
0.000000
 66
  1
  0
VERTEX
  8
gg1
 10
0.117500
 20
1.005000
  0
VERTEX
  8
gg1
 10
0.132500
 20
1.005000
  0
SEQEND
  8
gg1
  0
POLYLINE
  8
gg1
 62
1
 40
0.000000
 41
0.000000
 66
  1
  0
VERTEX
  8
gg1
 10
0.125000
 20
0.997500
  0
VERTEX
  8
gg1
 10
0.125000
 20
1.012500
  0
SEQEND
  8
gg1
  0
POLYLINE
  8
gg1
 62
1
 40
0.000000
 41
0.000000
 66
  1
  0
VERTEX
  8
gg1
 10
0.152500
 20
1.075000
  0
VERTEX
  8
gg1
 10
0.167500
 20
1.075000
  0
SEQEND
  8
gg1
  0
POLYLINE
  8
gg1
 62
1
 40
0.000000
 41
0.000000
 66
  1
  0
VERTEX
  8
gg1
 10
0.160000
 20
1.067500
  0
VERTEX
  8
gg1
 10
0.160000
 20
1.082500
  0
SEQEND
  8
gg1
  0
POLYLINE
  8
gg1
 62
1
 40
0.000000
 41
0.000000
 66
  1
  0
VERTEX
  8
gg1
 10
0.227500
 20
1.150000
  0
VERTEX
  8
gg1
 10
0.242500
 20
1.150000
  0
SEQEND
  8
gg1
  0
POLYLINE
  8
gg1
 62
1
 40
0.000000
 41
0.000000
 66
  1
  0
VERTEX
  8
gg1
 10
0.235000
 20
1.142500
  0
VERTEX
  8
gg1
 10
0.235000
 20
1.157500
  0
SEQEND
  8
gg1
  0
POLYLINE
  8
gg1
 62
1
 40
0.000000
 41
0.000000
 66
  1
  0
VERTEX
  8
gg1
 10
0.227500
 20
1.205000
  0
VERTEX
  8
gg1
 10
0.242500
 20
1.205000
  0
SEQEND
  8
gg1
  0
POLYLINE
  8
gg1
 62
1
 40
0.000000
 41
0.000000
 66
  1
  0
VERTEX
  8
gg1
 10
0.235000
 20
1.197500
  0
VERTEX
  8
gg1
 10
0.235000
 20
1.212500
  0
SEQEND
  8
gg1
  0
POLYLINE
  8
gg1
 62
1
 40
0.000000
 41
0.000000
 66
  1
  0
VERTEX
  8
gg1
 10
0.357500
 20
0.915000
  0
VERTEX
  8
gg1
 10
0.372500
 20
0.915000
  0
SEQEND
  8
gg1
  0
POLYLINE
  8
gg1
 62
1
 40
0.000000
 41
0.000000
 66
  1
  0
VERTEX
  8
gg1
 10
0.365000
 20
0.907500
  0
VERTEX
  8
gg1
 10
0.365000
 20
0.922500
  0
SEQEND
  8
gg1
  0
POLYLINE
  8
gg1
 62
1
 40
0.000000
 41
0.000000
 66
  1
  0
VERTEX
  8
gg1
 10
0.357500
 20
0.985000
  0
VERTEX
  8
gg1
 10
0.372500
 20
0.985000
  0
SEQEND
  8
gg1
  0
POLYLINE
  8
gg1
 62
1
 40
0.000000
 41
0.000000
 66
  1
  0
VERTEX
  8
gg1
 10
0.365000
 20
0.977500
  0
VERTEX
  8
gg1
 10
0.365000
 20
0.992500
  0
SEQEND
  8
gg1
  0
POLYLINE
  8
gg1
 62
1
 40
0.000000
 41
0.000000
 66
  1
  0
VERTEX
  8
gg1
 10
1.482500
 20
0.385000
  0
VERTEX
  8
gg1
 10
1.497500
 20
0.385000
  0
SEQEND
  8
gg1
  0
POLYLINE
  8
gg1
 62
1
 40
0.000000
 41
0.000000
 66
  1
  0
VERTEX
  8
gg1
 10
1.490000
 20
0.377500
  0
VERTEX
  8
gg1
 10
1.490000
 20
0.392500
  0
SEQEND
  8
gg1
  0
POLYLINE
  8
gg1
 62
1
 40
0.000000
 41
0.000000
 66
  1
  0
VERTEX
  8
gg1
 10
0.352500
 20
0.610000
  0
VERTEX
  8
gg1
 10
0.367500
 20
0.610000
  0
SEQEND
  8
gg1
  0
POLYLINE
  8
gg1
 62
1
 40
0.000000
 41
0.000000
 66
  1
  0
VERTEX
  8
gg1
 10
0.360000
 20
0.602500
  0
VERTEX
  8
gg1
 10
0.360000
 20
0.617500
  0
SEQEND
  8
gg1
  0
POLYLINE
  8
gg1
 62
1
 40
0.000000
 41
0.000000
 66
  1
  0
VERTEX
  8
gg1
 10
0.517500
 20
0.950000
  0
VERTEX
  8
gg1
 10
0.532500
 20
0.950000
  0
SEQEND
  8
gg1
  0
POLYLINE
  8
gg1
 62
1
 40
0.000000
 41
0.000000
 66
  1
  0
VERTEX
  8
gg1
 10
0.525000
 20
0.942500
  0
VERTEX
  8
gg1
 10
0.525000
 20
0.957500
  0
SEQEND
  8
gg1
  0
POLYLINE
  8
gg1
 62
1
 40
0.000000
 41
0.000000
 66
  1
  0
VERTEX
  8
gg1
 10
0.632500
 20
0.900000
  0
VERTEX
  8
gg1
 10
0.647500
 20
0.900000
  0
SEQEND
  8
gg1
  0
POLYLINE
  8
gg1
 62
1
 40
0.000000
 41
0.000000
 66
  1
  0
VERTEX
  8
gg1
 10
0.640000
 20
0.892500
  0
VERTEX
  8
gg1
 10
0.640000
 20
0.907500
  0
SEQEND
  8
gg1
  0
POLYLINE
  8
gg1
 62
1
 40
0.000000
 41
0.000000
 66
  1
  0
VERTEX
  8
gg1
 10
0.632500
 20
1.005000
  0
VERTEX
  8
gg1
 10
0.647500
 20
1.005000
  0
SEQEND
  8
gg1
  0
POLYLINE
  8
gg1
 62
1
 40
0.000000
 41
0.000000
 66
  1
  0
VERTEX
  8
gg1
 10
0.640000
 20
0.997500
  0
VERTEX
  8
gg1
 10
0.640000
 20
1.012500
  0
SEQEND
  8
gg1
  0
POLYLINE
  8
gg1
 62
1
 40
0.000000
 41
0.000000
 66
  1
  0
VERTEX
  8
gg1
 10
1.467500
 20
1.210000
  0
VERTEX
  8
gg1
 10
1.482500
 20
1.210000
  0
SEQEND
  8
gg1
  0
POLYLINE
  8
gg1
 62
1
 40
0.000000
 41
0.000000
 66
  1
  0
VERTEX
  8
gg1
 10
1.475000
 20
1.202500
  0
VERTEX
  8
gg1
 10
1.475000
 20
1.217500
  0
SEQEND
  8
gg1
  0
POLYLINE
  8
gg1
 62
1
 40
0.000000
 41
0.000000
 66
  1
  0
VERTEX
  8
gg1
 10
1.487500
 20
1.180000
  0
VERTEX
  8
gg1
 10
1.502500
 20
1.180000
  0
SEQEND
  8
gg1
  0
POLYLINE
  8
gg1
 62
1
 40
0.000000
 41
0.000000
 66
  1
  0
VERTEX
  8
gg1
 10
1.495000
 20
1.172500
  0
VERTEX
  8
gg1
 10
1.495000
 20
1.187500
  0
SEQEND
  8
gg1
  0
POLYLINE
  8
gg1
 62
1
 40
0.000000
 41
0.000000
 66
  1
  0
VERTEX
  8
gg1
 10
1.007500
 20
1.030000
  0
VERTEX
  8
gg1
 10
1.022500
 20
1.030000
  0
SEQEND
  8
gg1
  0
POLYLINE
  8
gg1
 62
1
 40
0.000000
 41
0.000000
 66
  1
  0
VERTEX
  8
gg1
 10
1.015000
 20
1.022500
  0
VERTEX
  8
gg1
 10
1.015000
 20
1.037500
  0
SEQEND
  8
gg1
  0
POLYLINE
  8
gg1
 62
1
 40
0.000000
 41
0.000000
 66
  1
  0
VERTEX
  8
gg1
 10
0.427500
 20
0.435000
  0
VERTEX
  8
gg1
 10
0.442500
 20
0.435000
  0
SEQEND
  8
gg1
  0
POLYLINE
  8
gg1
 62
1
 40
0.000000
 41
0.000000
 66
  1
  0
VERTEX
  8
gg1
 10
0.435000
 20
0.427500
  0
VERTEX
  8
gg1
 10
0.435000
 20
0.442500
  0
SEQEND
  8
gg1
  0
POLYLINE
  8
gg1
 62
1
 40
0.000000
 41
0.000000
 66
  1
  0
VERTEX
  8
gg1
 10
0.122500
 20
0.270000
  0
VERTEX
  8
gg1
 10
0.137500
 20
0.270000
  0
SEQEND
  8
gg1
  0
POLYLINE
  8
gg1
 62
1
 40
0.000000
 41
0.000000
 66
  1
  0
VERTEX
  8
gg1
 10
0.130000
 20
0.262500
  0
VERTEX
  8
gg1
 10
0.130000
 20
0.277500
  0
SEQEND
  8
gg1
  0
POLYLINE
  8
gg1
 62
1
 40
0.000000
 41
0.000000
 66
  1
  0
VERTEX
  8
gg1
 10
0.032500
 20
0.270000
  0
VERTEX
  8
gg1
 10
0.047500
 20
0.270000
  0
SEQEND
  8
gg1
  0
POLYLINE
  8
gg1
 62
1
 40
0.000000
 41
0.000000
 66
  1
  0
VERTEX
  8
gg1
 10
0.040000
 20
0.262500
  0
VERTEX
  8
gg1
 10
0.040000
 20
0.277500
  0
SEQEND
  8
gg1
  0
POLYLINE
  8
gg1
 62
1
 40
0.000000
 41
0.000000
 66
  1
  0
VERTEX
  8
gg1
 10
0.807700
 20
0.340500
  0
VERTEX
  8
gg1
 10
0.822700
 20
0.340500
  0
SEQEND
  8
gg1
  0
POLYLINE
  8
gg1
 62
1
 40
0.000000
 41
0.000000
 66
  1
  0
VERTEX
  8
gg1
 10
0.815200
 20
0.333000
  0
VERTEX
  8
gg1
 10
0.815200
 20
0.348000
  0
SEQEND
  8
gg1
  0
POLYLINE
  8
gg1
 62
1
 40
0.000000
 41
0.000000
 66
  1
  0
VERTEX
  8
gg1
 10
0.837700
 20
0.310500
  0
VERTEX
  8
gg1
 10
0.852700
 20
0.310500
  0
SEQEND
  8
gg1
  0
POLYLINE
  8
gg1
 62
1
 40
0.000000
 41
0.000000
 66
  1
  0
VERTEX
  8
gg1
 10
0.845200
 20
0.303000
  0
VERTEX
  8
gg1
 10
0.845200
 20
0.318000
  0
SEQEND
  8
gg1
  0
POLYLINE
  8
gg1
 62
1
 40
0.000000
 41
0.000000
 66
  1
  0
VERTEX
  8
gg1
 10
0.837700
 20
0.340500
  0
VERTEX
  8
gg1
 10
0.852700
 20
0.340500
  0
SEQEND
  8
gg1
  0
POLYLINE
  8
gg1
 62
1
 40
0.000000
 41
0.000000
 66
  1
  0
VERTEX
  8
gg1
 10
0.845200
 20
0.333000
  0
VERTEX
  8
gg1
 10
0.845200
 20
0.348000
  0
SEQEND
  8
gg1
  0
POLYLINE
  8
gg1
 62
1
 40
0.000000
 41
0.000000
 66
  1
  0
VERTEX
  8
gg1
 10
0.837700
 20
0.370500
  0
VERTEX
  8
gg1
 10
0.852700
 20
0.370500
  0
SEQEND
  8
gg1
  0
POLYLINE
  8
gg1
 62
1
 40
0.000000
 41
0.000000
 66
  1
  0
VERTEX
  8
gg1
 10
0.845200
 20
0.363000
  0
VERTEX
  8
gg1
 10
0.845200
 20
0.378000
  0
SEQEND
  8
gg1
  0
POLYLINE
  8
gg1
 62
1
 40
0.000000
 41
0.000000
 66
  1
  0
VERTEX
  8
gg1
 10
0.777700
 20
0.310500
  0
VERTEX
  8
gg1
 10
0.792700
 20
0.310500
  0
SEQEND
  8
gg1
  0
POLYLINE
  8
gg1
 62
1
 40
0.000000
 41
0.000000
 66
  1
  0
VERTEX
  8
gg1
 10
0.785200
 20
0.303000
  0
VERTEX
  8
gg1
 10
0.785200
 20
0.318000
  0
SEQEND
  8
gg1
  0
POLYLINE
  8
gg1
 62
1
 40
0.000000
 41
0.000000
 66
  1
  0
VERTEX
  8
gg1
 10
0.777700
 20
0.370500
  0
VERTEX
  8
gg1
 10
0.792700
 20
0.370500
  0
SEQEND
  8
gg1
  0
POLYLINE
  8
gg1
 62
1
 40
0.000000
 41
0.000000
 66
  1
  0
VERTEX
  8
gg1
 10
0.785200
 20
0.363000
  0
VERTEX
  8
gg1
 10
0.785200
 20
0.378000
  0
SEQEND
  8
gg1
  0
POLYLINE
  8
gg1
 62
1
 40
0.000000
 41
0.000000
 66
  1
  0
VERTEX
  8
gg1
 10
0.777700
 20
0.340500
  0
VERTEX
  8
gg1
 10
0.792700
 20
0.340500
  0
SEQEND
  8
gg1
  0
POLYLINE
  8
gg1
 62
1
 40
0.000000
 41
0.000000
 66
  1
  0
VERTEX
  8
gg1
 10
0.785200
 20
0.333000
  0
VERTEX
  8
gg1
 10
0.785200
 20
0.348000
  0
SEQEND
  8
gg1
  0
POLYLINE
  8
gg1
 62
1
 40
0.000000
 41
0.000000
 66
  1
  0
VERTEX
  8
gg1
 10
0.807700
 20
0.310500
  0
VERTEX
  8
gg1
 10
0.822700
 20
0.310500
  0
SEQEND
  8
gg1
  0
POLYLINE
  8
gg1
 62
1
 40
0.000000
 41
0.000000
 66
  1
  0
VERTEX
  8
gg1
 10
0.815200
 20
0.303000
  0
VERTEX
  8
gg1
 10
0.815200
 20
0.318000
  0
SEQEND
  8
gg1
  0
POLYLINE
  8
gg1
 62
1
 40
0.000000
 41
0.000000
 66
  1
  0
VERTEX
  8
gg1
 10
0.807700
 20
0.370500
  0
VERTEX
  8
gg1
 10
0.822700
 20
0.370500
  0
SEQEND
  8
gg1
  0
POLYLINE
  8
gg1
 62
1
 40
0.000000
 41
0.000000
 66
  1
  0
VERTEX
  8
gg1
 10
0.815200
 20
0.363000
  0
VERTEX
  8
gg1
 10
0.815200
 20
0.378000
  0
SEQEND
  8
gg1
  0
POLYLINE
  8
gg1
 62
1
 40
0.000000
 41
0.000000
 66
  1
  0
VERTEX
  8
gg1
 10
0.752500
 20
0.445000
  0
VERTEX
  8
gg1
 10
0.767500
 20
0.445000
  0
SEQEND
  8
gg1
  0
POLYLINE
  8
gg1
 62
1
 40
0.000000
 41
0.000000
 66
  1
  0
VERTEX
  8
gg1
 10
0.760000
 20
0.437500
  0
VERTEX
  8
gg1
 10
0.760000
 20
0.452500
  0
SEQEND
  8
gg1
  0
POLYLINE
  8
gg1
 62
1
 40
0.000000
 41
0.000000
 66
  1
  0
VERTEX
  8
gg1
 10
0.617500
 20
0.605000
  0
VERTEX
  8
gg1
 10
0.632500
 20
0.605000
  0
SEQEND
  8
gg1
  0
POLYLINE
  8
gg1
 62
1
 40
0.000000
 41
0.000000
 66
  1
  0
VERTEX
  8
gg1
 10
0.625000
 20
0.597500
  0
VERTEX
  8
gg1
 10
0.625000
 20
0.612500
  0
SEQEND
  8
gg1
  0
POLYLINE
  8
gg1
 62
1
 40
0.000000
 41
0.000000
 66
  1
  0
VERTEX
  8
gg1
 10
1.012500
 20
0.240000
  0
VERTEX
  8
gg1
 10
1.027500
 20
0.240000
  0
SEQEND
  8
gg1
  0
POLYLINE
  8
gg1
 62
1
 40
0.000000
 41
0.000000
 66
  1
  0
VERTEX
  8
gg1
 10
1.020000
 20
0.232500
  0
VERTEX
  8
gg1
 10
1.020000
 20
0.247500
  0
SEQEND
  8
gg1
  0
POLYLINE
  8
gg1
 62
1
 40
0.000000
 41
0.000000
 66
  1
  0
VERTEX
  8
gg1
 10
1.082500
 20
0.545000
  0
VERTEX
  8
gg1
 10
1.097500
 20
0.545000
  0
SEQEND
  8
gg1
  0
POLYLINE
  8
gg1
 62
1
 40
0.000000
 41
0.000000
 66
  1
  0
VERTEX
  8
gg1
 10
1.090000
 20
0.537500
  0
VERTEX
  8
gg1
 10
1.090000
 20
0.552500
  0
SEQEND
  8
gg1
  0
POLYLINE
  8
gg1
 62
1
 40
0.000000
 41
0.000000
 66
  1
  0
VERTEX
  8
gg1
 10
0.992500
 20
0.530000
  0
VERTEX
  8
gg1
 10
1.007500
 20
0.530000
  0
SEQEND
  8
gg1
  0
POLYLINE
  8
gg1
 62
1
 40
0.000000
 41
0.000000
 66
  1
  0
VERTEX
  8
gg1
 10
1.000000
 20
0.522500
  0
VERTEX
  8
gg1
 10
1.000000
 20
0.537500
  0
SEQEND
  8
gg1
  0
POLYLINE
  8
gg1
 62
1
 40
0.000000
 41
0.000000
 66
  1
  0
VERTEX
  8
gg1
 10
1.162500
 20
0.645000
  0
VERTEX
  8
gg1
 10
1.177500
 20
0.645000
  0
SEQEND
  8
gg1
  0
POLYLINE
  8
gg1
 62
1
 40
0.000000
 41
0.000000
 66
  1
  0
VERTEX
  8
gg1
 10
1.170000
 20
0.637500
  0
VERTEX
  8
gg1
 10
1.170000
 20
0.652500
  0
SEQEND
  8
gg1
  0
POLYLINE
  8
gg1
 62
1
 40
0.000000
 41
0.000000
 66
  1
  0
VERTEX
  8
gg1
 10
0.692500
 20
0.320000
  0
VERTEX
  8
gg1
 10
0.707500
 20
0.320000
  0
SEQEND
  8
gg1
  0
POLYLINE
  8
gg1
 62
1
 40
0.000000
 41
0.000000
 66
  1
  0
VERTEX
  8
gg1
 10
0.700000
 20
0.312500
  0
VERTEX
  8
gg1
 10
0.700000
 20
0.327500
  0
SEQEND
  8
gg1
  0
POLYLINE
  8
gg1
 62
1
 40
0.000000
 41
0.000000
 66
  1
  0
VERTEX
  8
gg1
 10
0.977500
 20
0.384000
  0
VERTEX
  8
gg1
 10
0.992500
 20
0.384000
  0
SEQEND
  8
gg1
  0
POLYLINE
  8
gg1
 62
1
 40
0.000000
 41
0.000000
 66
  1
  0
VERTEX
  8
gg1
 10
0.985000
 20
0.376500
  0
VERTEX
  8
gg1
 10
0.985000
 20
0.391500
  0
SEQEND
  8
gg1
  0
POLYLINE
  8
gg1
 62
1
 40
0.000000
 41
0.000000
 66
  1
  0
VERTEX
  8
gg1
 10
0.937500
 20
0.379000
  0
VERTEX
  8
gg1
 10
0.952500
 20
0.379000
  0
SEQEND
  8
gg1
  0
POLYLINE
  8
gg1
 62
1
 40
0.000000
 41
0.000000
 66
  1
  0
VERTEX
  8
gg1
 10
0.945000
 20
0.371500
  0
VERTEX
  8
gg1
 10
0.945000
 20
0.386500
  0
SEQEND
  8
gg1
  0
POLYLINE
  8
gg1
 62
1
 40
0.000000
 41
0.000000
 66
  1
  0
VERTEX
  8
gg1
 10
0.682500
 20
0.360000
  0
VERTEX
  8
gg1
 10
0.697500
 20
0.360000
  0
SEQEND
  8
gg1
  0
POLYLINE
  8
gg1
 62
1
 40
0.000000
 41
0.000000
 66
  1
  0
VERTEX
  8
gg1
 10
0.690000
 20
0.352500
  0
VERTEX
  8
gg1
 10
0.690000
 20
0.367500
  0
SEQEND
  8
gg1
  0
POLYLINE
  8
gg1
 62
1
 40
0.000000
 41
0.000000
 66
  1
  0
VERTEX
  8
gg1
 10
0.657500
 20
0.675000
  0
VERTEX
  8
gg1
 10
0.672500
 20
0.675000
  0
SEQEND
  8
gg1
  0
POLYLINE
  8
gg1
 62
1
 40
0.000000
 41
0.000000
 66
  1
  0
VERTEX
  8
gg1
 10
0.665000
 20
0.667500
  0
VERTEX
  8
gg1
 10
0.665000
 20
0.682500
  0
SEQEND
  8
gg1
  0
POLYLINE
  8
gg1
 62
1
 40
0.000000
 41
0.000000
 66
  1
  0
VERTEX
  8
gg1
 10
0.657500
 20
0.645000
  0
VERTEX
  8
gg1
 10
0.672500
 20
0.645000
  0
SEQEND
  8
gg1
  0
POLYLINE
  8
gg1
 62
1
 40
0.000000
 41
0.000000
 66
  1
  0
VERTEX
  8
gg1
 10
0.665000
 20
0.637500
  0
VERTEX
  8
gg1
 10
0.665000
 20
0.652500
  0
SEQEND
  8
gg1
  0
POLYLINE
  8
gg1
 62
1
 40
0.000000
 41
0.000000
 66
  1
  0
VERTEX
  8
gg1
 10
0.842500
 20
0.740000
  0
VERTEX
  8
gg1
 10
0.857500
 20
0.740000
  0
SEQEND
  8
gg1
  0
POLYLINE
  8
gg1
 62
1
 40
0.000000
 41
0.000000
 66
  1
  0
VERTEX
  8
gg1
 10
0.850000
 20
0.732500
  0
VERTEX
  8
gg1
 10
0.850000
 20
0.747500
  0
SEQEND
  8
gg1
  0
POLYLINE
  8
gg1
 62
1
 40
0.000000
 41
0.000000
 66
  1
  0
VERTEX
  8
gg1
 10
0.782500
 20
0.740000
  0
VERTEX
  8
gg1
 10
0.797500
 20
0.740000
  0
SEQEND
  8
gg1
  0
POLYLINE
  8
gg1
 62
1
 40
0.000000
 41
0.000000
 66
  1
  0
VERTEX
  8
gg1
 10
0.790000
 20
0.732500
  0
VERTEX
  8
gg1
 10
0.790000
 20
0.747500
  0
SEQEND
  8
gg1
  0
POLYLINE
  8
gg1
 62
1
 40
0.000000
 41
0.000000
 66
  1
  0
VERTEX
  8
gg1
 10
0.842500
 20
0.710000
  0
VERTEX
  8
gg1
 10
0.857500
 20
0.710000
  0
SEQEND
  8
gg1
  0
POLYLINE
  8
gg1
 62
1
 40
0.000000
 41
0.000000
 66
  1
  0
VERTEX
  8
gg1
 10
0.850000
 20
0.702500
  0
VERTEX
  8
gg1
 10
0.850000
 20
0.717500
  0
SEQEND
  8
gg1
  0
POLYLINE
  8
gg1
 62
1
 40
0.000000
 41
0.000000
 66
  1
  0
VERTEX
  8
gg1
 10
0.812500
 20
0.740000
  0
VERTEX
  8
gg1
 10
0.827500
 20
0.740000
  0
SEQEND
  8
gg1
  0
POLYLINE
  8
gg1
 62
1
 40
0.000000
 41
0.000000
 66
  1
  0
VERTEX
  8
gg1
 10
0.820000
 20
0.732500
  0
VERTEX
  8
gg1
 10
0.820000
 20
0.747500
  0
SEQEND
  8
gg1
  0
POLYLINE
  8
gg1
 62
1
 40
0.000000
 41
0.000000
 66
  1
  0
VERTEX
  8
gg1
 10
0.812500
 20
0.710000
  0
VERTEX
  8
gg1
 10
0.827500
 20
0.710000
  0
SEQEND
  8
gg1
  0
POLYLINE
  8
gg1
 62
1
 40
0.000000
 41
0.000000
 66
  1
  0
VERTEX
  8
gg1
 10
0.820000
 20
0.702500
  0
VERTEX
  8
gg1
 10
0.820000
 20
0.717500
  0
SEQEND
  8
gg1
  0
POLYLINE
  8
gg1
 62
1
 40
0.000000
 41
0.000000
 66
  1
  0
VERTEX
  8
gg1
 10
0.692500
 20
0.250000
  0
VERTEX
  8
gg1
 10
0.707500
 20
0.250000
  0
SEQEND
  8
gg1
  0
POLYLINE
  8
gg1
 62
1
 40
0.000000
 41
0.000000
 66
  1
  0
VERTEX
  8
gg1
 10
0.700000
 20
0.242500
  0
VERTEX
  8
gg1
 10
0.700000
 20
0.257500
  0
SEQEND
  8
gg1
  0
POLYLINE
  8
gg1
 62
1
 40
0.000000
 41
0.000000
 66
  1
  0
VERTEX
  8
gg1
 10
0.347500
 20
0.850000
  0
VERTEX
  8
gg1
 10
0.362500
 20
0.850000
  0
SEQEND
  8
gg1
  0
POLYLINE
  8
gg1
 62
1
 40
0.000000
 41
0.000000
 66
  1
  0
VERTEX
  8
gg1
 10
0.355000
 20
0.842500
  0
VERTEX
  8
gg1
 10
0.355000
 20
0.857500
  0
SEQEND
  8
gg1
  0
POLYLINE
  8
gg1
 62
1
 40
0.000000
 41
0.000000
 66
  1
  0
VERTEX
  8
gg1
 10
0.302500
 20
0.850000
  0
VERTEX
  8
gg1
 10
0.317500
 20
0.850000
  0
SEQEND
  8
gg1
  0
POLYLINE
  8
gg1
 62
1
 40
0.000000
 41
0.000000
 66
  1
  0
VERTEX
  8
gg1
 10
0.310000
 20
0.842500
  0
VERTEX
  8
gg1
 10
0.310000
 20
0.857500
  0
SEQEND
  8
gg1
  0
POLYLINE
  8
gg1
 62
1
 40
0.000000
 41
0.000000
 66
  1
  0
VERTEX
  8
gg1
 10
0.342500
 20
0.800000
  0
VERTEX
  8
gg1
 10
0.357500
 20
0.800000
  0
SEQEND
  8
gg1
  0
POLYLINE
  8
gg1
 62
1
 40
0.000000
 41
0.000000
 66
  1
  0
VERTEX
  8
gg1
 10
0.350000
 20
0.792500
  0
VERTEX
  8
gg1
 10
0.350000
 20
0.807500
  0
SEQEND
  8
gg1
  0
POLYLINE
  8
gg1
 62
1
 40
0.000000
 41
0.000000
 66
  1
  0
VERTEX
  8
gg1
 10
0.342500
 20
0.740000
  0
VERTEX
  8
gg1
 10
0.357500
 20
0.740000
  0
SEQEND
  8
gg1
  0
POLYLINE
  8
gg1
 62
1
 40
0.000000
 41
0.000000
 66
  1
  0
VERTEX
  8
gg1
 10
0.350000
 20
0.732500
  0
VERTEX
  8
gg1
 10
0.350000
 20
0.747500
  0
SEQEND
  8
gg1
  0
POLYLINE
  8
gg1
 62
1
 40
0.000000
 41
0.000000
 66
  1
  0
VERTEX
  8
gg1
 10
0.342500
 20
0.675000
  0
VERTEX
  8
gg1
 10
0.357500
 20
0.675000
  0
SEQEND
  8
gg1
  0
POLYLINE
  8
gg1
 62
1
 40
0.000000
 41
0.000000
 66
  1
  0
VERTEX
  8
gg1
 10
0.350000
 20
0.667500
  0
VERTEX
  8
gg1
 10
0.350000
 20
0.682500
  0
SEQEND
  8
gg1
  0
POLYLINE
  8
gg1
 62
1
 40
0.000000
 41
0.000000
 66
  1
  0
VERTEX
  8
gg1
 10
0.252500
 20
0.915000
  0
VERTEX
  8
gg1
 10
0.267500
 20
0.915000
  0
SEQEND
  8
gg1
  0
POLYLINE
  8
gg1
 62
1
 40
0.000000
 41
0.000000
 66
  1
  0
VERTEX
  8
gg1
 10
0.260000
 20
0.907500
  0
VERTEX
  8
gg1
 10
0.260000
 20
0.922500
  0
SEQEND
  8
gg1
  0
POLYLINE
  8
gg1
 62
1
 40
0.000000
 41
0.000000
 66
  1
  0
VERTEX
  8
gg1
 10
0.252500
 20
0.985000
  0
VERTEX
  8
gg1
 10
0.267500
 20
0.985000
  0
SEQEND
  8
gg1
  0
POLYLINE
  8
gg1
 62
1
 40
0.000000
 41
0.000000
 66
  1
  0
VERTEX
  8
gg1
 10
0.260000
 20
0.977500
  0
VERTEX
  8
gg1
 10
0.260000
 20
0.992500
  0
SEQEND
  8
gg1
  0
POLYLINE
  8
gg1
 62
1
 40
0.000000
 41
0.000000
 66
  1
  0
VERTEX
  8
gg1
 10
0.252500
 20
0.849400
  0
VERTEX
  8
gg1
 10
0.267500
 20
0.849400
  0
SEQEND
  8
gg1
  0
POLYLINE
  8
gg1
 62
1
 40
0.000000
 41
0.000000
 66
  1
  0
VERTEX
  8
gg1
 10
0.260000
 20
0.841900
  0
VERTEX
  8
gg1
 10
0.260000
 20
0.856900
  0
SEQEND
  8
gg1
  0
POLYLINE
  8
gg1
 62
1
 40
0.000000
 41
0.000000
 66
  1
  0
VERTEX
  8
gg1
 10
0.262500
 20
0.610000
  0
VERTEX
  8
gg1
 10
0.277500
 20
0.610000
  0
SEQEND
  8
gg1
  0
POLYLINE
  8
gg1
 62
1
 40
0.000000
 41
0.000000
 66
  1
  0
VERTEX
  8
gg1
 10
0.270000
 20
0.602500
  0
VERTEX
  8
gg1
 10
0.270000
 20
0.617500
  0
SEQEND
  8
gg1
  0
POLYLINE
  8
gg1
 62
1
 40
0.000000
 41
0.000000
 66
  1
  0
VERTEX
  8
gg1
 10
0.307500
 20
0.610000
  0
VERTEX
  8
gg1
 10
0.322500
 20
0.610000
  0
SEQEND
  8
gg1
  0
POLYLINE
  8
gg1
 62
1
 40
0.000000
 41
0.000000
 66
  1
  0
VERTEX
  8
gg1
 10
0.315000
 20
0.602500
  0
VERTEX
  8
gg1
 10
0.315000
 20
0.617500
  0
SEQEND
  8
gg1
  0
POLYLINE
  8
gg1
 62
1
 40
0.000000
 41
0.000000
 66
  1
  0
VERTEX
  8
gg1
 10
0.397500
 20
0.610000
  0
VERTEX
  8
gg1
 10
0.412500
 20
0.610000
  0
SEQEND
  8
gg1
  0
POLYLINE
  8
gg1
 62
1
 40
0.000000
 41
0.000000
 66
  1
  0
VERTEX
  8
gg1
 10
0.405000
 20
0.602500
  0
VERTEX
  8
gg1
 10
0.405000
 20
0.617500
  0
SEQEND
  8
gg1
  0
POLYLINE
  8
gg1
 62
1
 40
0.000000
 41
0.000000
 66
  1
  0
VERTEX
  8
gg1
 10
0.827500
 20
0.685000
  0
VERTEX
  8
gg1
 10
0.842500
 20
0.685000
  0
SEQEND
  8
gg1
  0
POLYLINE
  8
gg1
 62
1
 40
0.000000
 41
0.000000
 66
  1
  0
VERTEX
  8
gg1
 10
0.835000
 20
0.677500
  0
VERTEX
  8
gg1
 10
0.835000
 20
0.692500
  0
SEQEND
  8
gg1
  0
POLYLINE
  8
gg1
 62
1
 40
0.000000
 41
0.000000
 66
  1
  0
VERTEX
  8
gg1
 10
1.062500
 20
1.030000
  0
VERTEX
  8
gg1
 10
1.077500
 20
1.030000
  0
SEQEND
  8
gg1
  0
POLYLINE
  8
gg1
 62
1
 40
0.000000
 41
0.000000
 66
  1
  0
VERTEX
  8
gg1
 10
1.070000
 20
1.022500
  0
VERTEX
  8
gg1
 10
1.070000
 20
1.037500
  0
SEQEND
  8
gg1
  0
POLYLINE
  8
gg1
 62
1
 40
0.000000
 41
0.000000
 66
  1
  0
VERTEX
  8
gg1
 10
1.182500
 20
1.030000
  0
VERTEX
  8
gg1
 10
1.197500
 20
1.030000
  0
SEQEND
  8
gg1
  0
POLYLINE
  8
gg1
 62
1
 40
0.000000
 41
0.000000
 66
  1
  0
VERTEX
  8
gg1
 10
1.190000
 20
1.022500
  0
VERTEX
  8
gg1
 10
1.190000
 20
1.037500
  0
SEQEND
  8
gg1
  0
POLYLINE
  8
gg1
 62
1
 40
0.000000
 41
0.000000
 66
  1
  0
VERTEX
  8
gg1
 10
1.302500
 20
1.030000
  0
VERTEX
  8
gg1
 10
1.317500
 20
1.030000
  0
SEQEND
  8
gg1
  0
POLYLINE
  8
gg1
 62
1
 40
0.000000
 41
0.000000
 66
  1
  0
VERTEX
  8
gg1
 10
1.310000
 20
1.022500
  0
VERTEX
  8
gg1
 10
1.310000
 20
1.037500
  0
SEQEND
  8
gg1
  0
POLYLINE
  8
gg1
 62
1
 40
0.000000
 41
0.000000
 66
  1
  0
VERTEX
  8
gg1
 10
1.367500
 20
1.030000
  0
VERTEX
  8
gg1
 10
1.382500
 20
1.030000
  0
SEQEND
  8
gg1
  0
POLYLINE
  8
gg1
 62
1
 40
0.000000
 41
0.000000
 66
  1
  0
VERTEX
  8
gg1
 10
1.375000
 20
1.022500
  0
VERTEX
  8
gg1
 10
1.375000
 20
1.037500
  0
SEQEND
  8
gg1
  0
POLYLINE
  8
gg1
 62
1
 40
0.000000
 41
0.000000
 66
  1
  0
VERTEX
  8
gg1
 10
1.432500
 20
1.030000
  0
VERTEX
  8
gg1
 10
1.447500
 20
1.030000
  0
SEQEND
  8
gg1
  0
POLYLINE
  8
gg1
 62
1
 40
0.000000
 41
0.000000
 66
  1
  0
VERTEX
  8
gg1
 10
1.440000
 20
1.022500
  0
VERTEX
  8
gg1
 10
1.440000
 20
1.037500
  0
SEQEND
  8
gg1
  0
POLYLINE
  8
gg1
 62
1
 40
0.000000
 41
0.000000
 66
  1
  0
VERTEX
  8
gg1
 10
1.492500
 20
1.015000
  0
VERTEX
  8
gg1
 10
1.507500
 20
1.015000
  0
SEQEND
  8
gg1
  0
POLYLINE
  8
gg1
 62
1
 40
0.000000
 41
0.000000
 66
  1
  0
VERTEX
  8
gg1
 10
1.500000
 20
1.007500
  0
VERTEX
  8
gg1
 10
1.500000
 20
1.022500
  0
SEQEND
  8
gg1
  0
POLYLINE
  8
gg1
 62
1
 40
0.000000
 41
0.000000
 66
  1
  0
VERTEX
  8
gg1
 10
1.502500
 20
0.930000
  0
VERTEX
  8
gg1
 10
1.517500
 20
0.930000
  0
SEQEND
  8
gg1
  0
POLYLINE
  8
gg1
 62
1
 40
0.000000
 41
0.000000
 66
  1
  0
VERTEX
  8
gg1
 10
1.510000
 20
0.922500
  0
VERTEX
  8
gg1
 10
1.510000
 20
0.937500
  0
SEQEND
  8
gg1
  0
POLYLINE
  8
gg1
 62
1
 40
0.000000
 41
0.000000
 66
  1
  0
VERTEX
  8
gg1
 10
1.482500
 20
0.814100
  0
VERTEX
  8
gg1
 10
1.497500
 20
0.814100
  0
SEQEND
  8
gg1
  0
POLYLINE
  8
gg1
 62
1
 40
0.000000
 41
0.000000
 66
  1
  0
VERTEX
  8
gg1
 10
1.490000
 20
0.806600
  0
VERTEX
  8
gg1
 10
1.490000
 20
0.821600
  0
SEQEND
  8
gg1
  0
POLYLINE
  8
gg1
 62
1
 40
0.000000
 41
0.000000
 66
  1
  0
VERTEX
  8
gg1
 10
1.482500
 20
0.760000
  0
VERTEX
  8
gg1
 10
1.497500
 20
0.760000
  0
SEQEND
  8
gg1
  0
POLYLINE
  8
gg1
 62
1
 40
0.000000
 41
0.000000
 66
  1
  0
VERTEX
  8
gg1
 10
1.490000
 20
0.752500
  0
VERTEX
  8
gg1
 10
1.490000
 20
0.767500
  0
SEQEND
  8
gg1
  0
POLYLINE
  8
gg1
 62
1
 40
0.000000
 41
0.000000
 66
  1
  0
VERTEX
  8
gg1
 10
1.482500
 20
0.695000
  0
VERTEX
  8
gg1
 10
1.497500
 20
0.695000
  0
SEQEND
  8
gg1
  0
POLYLINE
  8
gg1
 62
1
 40
0.000000
 41
0.000000
 66
  1
  0
VERTEX
  8
gg1
 10
1.490000
 20
0.687500
  0
VERTEX
  8
gg1
 10
1.490000
 20
0.702500
  0
SEQEND
  8
gg1
  0
POLYLINE
  8
gg1
 62
1
 40
0.000000
 41
0.000000
 66
  1
  0
VERTEX
  8
gg1
 10
1.632500
 20
0.850000
  0
VERTEX
  8
gg1
 10
1.647500
 20
0.850000
  0
SEQEND
  8
gg1
  0
POLYLINE
  8
gg1
 62
1
 40
0.000000
 41
0.000000
 66
  1
  0
VERTEX
  8
gg1
 10
1.640000
 20
0.842500
  0
VERTEX
  8
gg1
 10
1.640000
 20
0.857500
  0
SEQEND
  8
gg1
  0
POLYLINE
  8
gg1
 62
1
 40
0.000000
 41
0.000000
 66
  1
  0
VERTEX
  8
gg1
 10
1.482500
 20
0.860000
  0
VERTEX
  8
gg1
 10
1.497500
 20
0.860000
  0
SEQEND
  8
gg1
  0
POLYLINE
  8
gg1
 62
1
 40
0.000000
 41
0.000000
 66
  1
  0
VERTEX
  8
gg1
 10
1.490000
 20
0.852500
  0
VERTEX
  8
gg1
 10
1.490000
 20
0.867500
  0
SEQEND
  8
gg1
  0
POLYLINE
  8
gg1
 62
1
 40
0.000000
 41
0.000000
 66
  1
  0
VERTEX
  8
gg1
 10
1.557500
 20
0.850000
  0
VERTEX
  8
gg1
 10
1.572500
 20
0.850000
  0
SEQEND
  8
gg1
  0
POLYLINE
  8
gg1
 62
1
 40
0.000000
 41
0.000000
 66
  1
  0
VERTEX
  8
gg1
 10
1.565000
 20
0.842500
  0
VERTEX
  8
gg1
 10
1.565000
 20
0.857500
  0
SEQEND
  8
gg1
  0
POLYLINE
  8
gg1
 62
1
 40
0.000000
 41
0.000000
 66
  1
  0
VERTEX
  8
gg1
 10
1.557500
 20
0.760000
  0
VERTEX
  8
gg1
 10
1.572500
 20
0.760000
  0
SEQEND
  8
gg1
  0
POLYLINE
  8
gg1
 62
1
 40
0.000000
 41
0.000000
 66
  1
  0
VERTEX
  8
gg1
 10
1.565000
 20
0.752500
  0
VERTEX
  8
gg1
 10
1.565000
 20
0.767500
  0
SEQEND
  8
gg1
  0
POLYLINE
  8
gg1
 62
1
 40
0.000000
 41
0.000000
 66
  1
  0
VERTEX
  8
gg1
 10
1.632500
 20
0.760000
  0
VERTEX
  8
gg1
 10
1.647500
 20
0.760000
  0
SEQEND
  8
gg1
  0
POLYLINE
  8
gg1
 62
1
 40
0.000000
 41
0.000000
 66
  1
  0
VERTEX
  8
gg1
 10
1.640000
 20
0.752500
  0
VERTEX
  8
gg1
 10
1.640000
 20
0.767500
  0
SEQEND
  8
gg1
  0
POLYLINE
  8
gg1
 62
1
 40
0.000000
 41
0.000000
 66
  1
  0
VERTEX
  8
gg1
 10
1.482500
 20
0.630000
  0
VERTEX
  8
gg1
 10
1.497500
 20
0.630000
  0
SEQEND
  8
gg1
  0
POLYLINE
  8
gg1
 62
1
 40
0.000000
 41
0.000000
 66
  1
  0
VERTEX
  8
gg1
 10
1.490000
 20
0.622500
  0
VERTEX
  8
gg1
 10
1.490000
 20
0.637500
  0
SEQEND
  8
gg1
  0
POLYLINE
  8
gg1
 62
1
 40
0.000000
 41
0.000000
 66
  1
  0
VERTEX
  8
gg1
 10
1.482500
 20
0.570000
  0
VERTEX
  8
gg1
 10
1.497500
 20
0.570000
  0
SEQEND
  8
gg1
  0
POLYLINE
  8
gg1
 62
1
 40
0.000000
 41
0.000000
 66
  1
  0
VERTEX
  8
gg1
 10
1.490000
 20
0.562500
  0
VERTEX
  8
gg1
 10
1.490000
 20
0.577500
  0
SEQEND
  8
gg1
  0
POLYLINE
  8
gg1
 62
1
 40
0.000000
 41
0.000000
 66
  1
  0
VERTEX
  8
gg1
 10
1.482500
 20
0.510000
  0
VERTEX
  8
gg1
 10
1.497500
 20
0.510000
  0
SEQEND
  8
gg1
  0
POLYLINE
  8
gg1
 62
1
 40
0.000000
 41
0.000000
 66
  1
  0
VERTEX
  8
gg1
 10
1.490000
 20
0.502500
  0
VERTEX
  8
gg1
 10
1.490000
 20
0.517500
  0
SEQEND
  8
gg1
  0
POLYLINE
  8
gg1
 62
1
 40
0.000000
 41
0.000000
 66
  1
  0
VERTEX
  8
gg1
 10
1.482500
 20
0.445000
  0
VERTEX
  8
gg1
 10
1.497500
 20
0.445000
  0
SEQEND
  8
gg1
  0
POLYLINE
  8
gg1
 62
1
 40
0.000000
 41
0.000000
 66
  1
  0
VERTEX
  8
gg1
 10
1.490000
 20
0.437500
  0
VERTEX
  8
gg1
 10
1.490000
 20
0.452500
  0
SEQEND
  8
gg1
  0
POLYLINE
  8
gg1
 62
1
 40
0.000000
 41
0.000000
 66
  1
  0
VERTEX
  8
gg1
 10
1.562500
 20
0.545000
  0
VERTEX
  8
gg1
 10
1.577500
 20
0.545000
  0
SEQEND
  8
gg1
  0
POLYLINE
  8
gg1
 62
1
 40
0.000000
 41
0.000000
 66
  1
  0
VERTEX
  8
gg1
 10
1.570000
 20
0.537500
  0
VERTEX
  8
gg1
 10
1.570000
 20
0.552500
  0
SEQEND
  8
gg1
  0
POLYLINE
  8
gg1
 62
1
 40
0.000000
 41
0.000000
 66
  1
  0
VERTEX
  8
gg1
 10
1.557500
 20
0.335000
  0
VERTEX
  8
gg1
 10
1.572500
 20
0.335000
  0
SEQEND
  8
gg1
  0
POLYLINE
  8
gg1
 62
1
 40
0.000000
 41
0.000000
 66
  1
  0
VERTEX
  8
gg1
 10
1.565000
 20
0.327500
  0
VERTEX
  8
gg1
 10
1.565000
 20
0.342500
  0
SEQEND
  8
gg1
  0
POLYLINE
  8
gg1
 62
1
 40
0.000000
 41
0.000000
 66
  1
  0
VERTEX
  8
gg1
 10
1.612500
 20
0.520000
  0
VERTEX
  8
gg1
 10
1.627500
 20
0.520000
  0
SEQEND
  8
gg1
  0
POLYLINE
  8
gg1
 62
1
 40
0.000000
 41
0.000000
 66
  1
  0
VERTEX
  8
gg1
 10
1.620000
 20
0.512500
  0
VERTEX
  8
gg1
 10
1.620000
 20
0.527500
  0
SEQEND
  8
gg1
  0
POLYLINE
  8
gg1
 62
1
 40
0.000000
 41
0.000000
 66
  1
  0
VERTEX
  8
gg1
 10
1.482500
 20
0.330000
  0
VERTEX
  8
gg1
 10
1.497500
 20
0.330000
  0
SEQEND
  8
gg1
  0
POLYLINE
  8
gg1
 62
1
 40
0.000000
 41
0.000000
 66
  1
  0
VERTEX
  8
gg1
 10
1.490000
 20
0.322500
  0
VERTEX
  8
gg1
 10
1.490000
 20
0.337500
  0
SEQEND
  8
gg1
  0
POLYLINE
  8
gg1
 62
1
 40
0.000000
 41
0.000000
 66
  1
  0
VERTEX
  8
gg1
 10
1.242500
 20
0.820000
  0
VERTEX
  8
gg1
 10
1.257500
 20
0.820000
  0
SEQEND
  8
gg1
  0
POLYLINE
  8
gg1
 62
1
 40
0.000000
 41
0.000000
 66
  1
  0
VERTEX
  8
gg1
 10
1.250000
 20
0.812500
  0
VERTEX
  8
gg1
 10
1.250000
 20
0.827500
  0
SEQEND
  8
gg1
  0
POLYLINE
  8
gg1
 62
1
 40
0.000000
 41
0.000000
 66
  1
  0
VERTEX
  8
gg1
 10
1.237500
 20
0.450000
  0
VERTEX
  8
gg1
 10
1.252500
 20
0.450000
  0
SEQEND
  8
gg1
  0
POLYLINE
  8
gg1
 62
1
 40
0.000000
 41
0.000000
 66
  1
  0
VERTEX
  8
gg1
 10
1.245000
 20
0.442500
  0
VERTEX
  8
gg1
 10
1.245000
 20
0.457500
  0
SEQEND
  8
gg1
  0
POLYLINE
  8
gg1
 62
1
 40
0.000000
 41
0.000000
 66
  1
  0
VERTEX
  8
gg1
 10
1.162500
 20
0.820000
  0
VERTEX
  8
gg1
 10
1.177500
 20
0.820000
  0
SEQEND
  8
gg1
  0
POLYLINE
  8
gg1
 62
1
 40
0.000000
 41
0.000000
 66
  1
  0
VERTEX
  8
gg1
 10
1.170000
 20
0.812500
  0
VERTEX
  8
gg1
 10
1.170000
 20
0.827500
  0
SEQEND
  8
gg1
  0
POLYLINE
  8
gg1
 62
1
 40
0.000000
 41
0.000000
 66
  1
  0
VERTEX
  8
gg1
 10
1.242500
 20
0.780000
  0
VERTEX
  8
gg1
 10
1.257500
 20
0.780000
  0
SEQEND
  8
gg1
  0
POLYLINE
  8
gg1
 62
1
 40
0.000000
 41
0.000000
 66
  1
  0
VERTEX
  8
gg1
 10
1.250000
 20
0.772500
  0
VERTEX
  8
gg1
 10
1.250000
 20
0.787500
  0
SEQEND
  8
gg1
  0
POLYLINE
  8
gg1
 62
1
 40
0.000000
 41
0.000000
 66
  1
  0
VERTEX
  8
gg1
 10
1.237500
 20
0.535000
  0
VERTEX
  8
gg1
 10
1.252500
 20
0.535000
  0
SEQEND
  8
gg1
  0
POLYLINE
  8
gg1
 62
1
 40
0.000000
 41
0.000000
 66
  1
  0
VERTEX
  8
gg1
 10
1.245000
 20
0.527500
  0
VERTEX
  8
gg1
 10
1.245000
 20
0.542500
  0
SEQEND
  8
gg1
  0
POLYLINE
  8
gg1
 62
1
 40
0.000000
 41
0.000000
 66
  1
  0
VERTEX
  8
gg1
 10
1.162500
 20
0.780000
  0
VERTEX
  8
gg1
 10
1.177500
 20
0.780000
  0
SEQEND
  8
gg1
  0
POLYLINE
  8
gg1
 62
1
 40
0.000000
 41
0.000000
 66
  1
  0
VERTEX
  8
gg1
 10
1.170000
 20
0.772500
  0
VERTEX
  8
gg1
 10
1.170000
 20
0.787500
  0
SEQEND
  8
gg1
  0
POLYLINE
  8
gg1
 62
1
 40
0.000000
 41
0.000000
 66
  1
  0
VERTEX
  8
gg1
 10
1.242500
 20
0.740000
  0
VERTEX
  8
gg1
 10
1.257500
 20
0.740000
  0
SEQEND
  8
gg1
  0
POLYLINE
  8
gg1
 62
1
 40
0.000000
 41
0.000000
 66
  1
  0
VERTEX
  8
gg1
 10
1.250000
 20
0.732500
  0
VERTEX
  8
gg1
 10
1.250000
 20
0.747500
  0
SEQEND
  8
gg1
  0
POLYLINE
  8
gg1
 62
1
 40
0.000000
 41
0.000000
 66
  1
  0
VERTEX
  8
gg1
 10
1.237500
 20
0.590000
  0
VERTEX
  8
gg1
 10
1.252500
 20
0.590000
  0
SEQEND
  8
gg1
  0
POLYLINE
  8
gg1
 62
1
 40
0.000000
 41
0.000000
 66
  1
  0
VERTEX
  8
gg1
 10
1.245000
 20
0.582500
  0
VERTEX
  8
gg1
 10
1.245000
 20
0.597500
  0
SEQEND
  8
gg1
  0
POLYLINE
  8
gg1
 62
1
 40
0.000000
 41
0.000000
 66
  1
  0
VERTEX
  8
gg1
 10
1.162500
 20
0.740000
  0
VERTEX
  8
gg1
 10
1.177500
 20
0.740000
  0
SEQEND
  8
gg1
  0
POLYLINE
  8
gg1
 62
1
 40
0.000000
 41
0.000000
 66
  1
  0
VERTEX
  8
gg1
 10
1.170000
 20
0.732500
  0
VERTEX
  8
gg1
 10
1.170000
 20
0.747500
  0
SEQEND
  8
gg1
  0
POLYLINE
  8
gg1
 62
1
 40
0.000000
 41
0.000000
 66
  1
  0
VERTEX
  8
gg1
 10
1.162500
 20
0.700000
  0
VERTEX
  8
gg1
 10
1.177500
 20
0.700000
  0
SEQEND
  8
gg1
  0
POLYLINE
  8
gg1
 62
1
 40
0.000000
 41
0.000000
 66
  1
  0
VERTEX
  8
gg1
 10
1.170000
 20
0.692500
  0
VERTEX
  8
gg1
 10
1.170000
 20
0.707500
  0
SEQEND
  8
gg1
  0
POLYLINE
  8
gg1
 62
1
 40
0.000000
 41
0.000000
 66
  1
  0
VERTEX
  8
gg1
 10
1.237500
 20
0.645300
  0
VERTEX
  8
gg1
 10
1.252500
 20
0.645300
  0
SEQEND
  8
gg1
  0
POLYLINE
  8
gg1
 62
1
 40
0.000000
 41
0.000000
 66
  1
  0
VERTEX
  8
gg1
 10
1.245000
 20
0.637800
  0
VERTEX
  8
gg1
 10
1.245000
 20
0.652800
  0
SEQEND
  8
gg1
  0
POLYLINE
  8
gg1
 62
1
 40
0.000000
 41
0.000000
 66
  1
  0
VERTEX
  8
gg1
 10
1.242500
 20
0.700000
  0
VERTEX
  8
gg1
 10
1.257500
 20
0.700000
  0
SEQEND
  8
gg1
  0
POLYLINE
  8
gg1
 62
1
 40
0.000000
 41
0.000000
 66
  1
  0
VERTEX
  8
gg1
 10
1.250000
 20
0.692500
  0
VERTEX
  8
gg1
 10
1.250000
 20
0.707500
  0
SEQEND
  8
gg1
  0
POLYLINE
  8
gg1
 62
1
 40
0.000000
 41
0.000000
 66
  1
  0
VERTEX
  8
gg1
 10
0.047500
 20
0.865000
  0
VERTEX
  8
gg1
 10
0.062500
 20
0.865000
  0
SEQEND
  8
gg1
  0
POLYLINE
  8
gg1
 62
1
 40
0.000000
 41
0.000000
 66
  1
  0
VERTEX
  8
gg1
 10
0.055000
 20
0.857500
  0
VERTEX
  8
gg1
 10
0.055000
 20
0.872500
  0
SEQEND
  8
gg1
  0
POLYLINE
  8
gg1
 62
1
 40
0.000000
 41
0.000000
 66
  1
  0
VERTEX
  8
gg1
 10
0.047500
 20
0.780000
  0
VERTEX
  8
gg1
 10
0.062500
 20
0.780000
  0
SEQEND
  8
gg1
  0
POLYLINE
  8
gg1
 62
1
 40
0.000000
 41
0.000000
 66
  1
  0
VERTEX
  8
gg1
 10
0.055000
 20
0.772500
  0
VERTEX
  8
gg1
 10
0.055000
 20
0.787500
  0
SEQEND
  8
gg1
  0
POLYLINE
  8
gg1
 62
1
 40
0.000000
 41
0.000000
 66
  1
  0
VERTEX
  8
gg1
 10
0.102500
 20
0.550000
  0
VERTEX
  8
gg1
 10
0.117500
 20
0.550000
  0
SEQEND
  8
gg1
  0
POLYLINE
  8
gg1
 62
1
 40
0.000000
 41
0.000000
 66
  1
  0
VERTEX
  8
gg1
 10
0.110000
 20
0.542500
  0
VERTEX
  8
gg1
 10
0.110000
 20
0.557500
  0
SEQEND
  8
gg1
  0
POLYLINE
  8
gg1
 62
1
 40
0.000000
 41
0.000000
 66
  1
  0
VERTEX
  8
gg1
 10
0.032500
 20
0.550000
  0
VERTEX
  8
gg1
 10
0.047500
 20
0.550000
  0
SEQEND
  8
gg1
  0
POLYLINE
  8
gg1
 62
1
 40
0.000000
 41
0.000000
 66
  1
  0
VERTEX
  8
gg1
 10
0.040000
 20
0.542500
  0
VERTEX
  8
gg1
 10
0.040000
 20
0.557500
  0
SEQEND
  8
gg1
  0
POLYLINE
  8
gg1
 62
1
 40
0.000000
 41
0.000000
 66
  1
  0
VERTEX
  8
gg1
 10
0.442500
 20
1.160000
  0
VERTEX
  8
gg1
 10
0.457500
 20
1.160000
  0
SEQEND
  8
gg1
  0
POLYLINE
  8
gg1
 62
1
 40
0.000000
 41
0.000000
 66
  1
  0
VERTEX
  8
gg1
 10
0.450000
 20
1.152500
  0
VERTEX
  8
gg1
 10
0.450000
 20
1.167500
  0
SEQEND
  8
gg1
  0
POLYLINE
  8
gg1
 62
1
 40
0.000000
 41
0.000000
 66
  1
  0
VERTEX
  8
gg1
 10
0.872500
 20
1.160000
  0
VERTEX
  8
gg1
 10
0.887500
 20
1.160000
  0
SEQEND
  8
gg1
  0
POLYLINE
  8
gg1
 62
1
 40
0.000000
 41
0.000000
 66
  1
  0
VERTEX
  8
gg1
 10
0.880000
 20
1.152500
  0
VERTEX
  8
gg1
 10
0.880000
 20
1.167500
  0
SEQEND
  8
gg1
  0
POLYLINE
  8
gg1
 62
1
 40
0.000000
 41
0.000000
 66
  1
  0
VERTEX
  8
gg1
 10
0.832500
 20
1.160000
  0
VERTEX
  8
gg1
 10
0.847500
 20
1.160000
  0
SEQEND
  8
gg1
  0
POLYLINE
  8
gg1
 62
1
 40
0.000000
 41
0.000000
 66
  1
  0
VERTEX
  8
gg1
 10
0.840000
 20
1.152500
  0
VERTEX
  8
gg1
 10
0.840000
 20
1.167500
  0
SEQEND
  8
gg1
  0
POLYLINE
  8
gg1
 62
1
 40
0.000000
 41
0.000000
 66
  1
  0
VERTEX
  8
gg1
 10
0.792500
 20
1.160000
  0
VERTEX
  8
gg1
 10
0.807500
 20
1.160000
  0
SEQEND
  8
gg1
  0
POLYLINE
  8
gg1
 62
1
 40
0.000000
 41
0.000000
 66
  1
  0
VERTEX
  8
gg1
 10
0.800000
 20
1.152500
  0
VERTEX
  8
gg1
 10
0.800000
 20
1.167500
  0
SEQEND
  8
gg1
  0
POLYLINE
  8
gg1
 62
1
 40
0.000000
 41
0.000000
 66
  1
  0
VERTEX
  8
gg1
 10
0.752500
 20
1.160000
  0
VERTEX
  8
gg1
 10
0.767500
 20
1.160000
  0
SEQEND
  8
gg1
  0
POLYLINE
  8
gg1
 62
1
 40
0.000000
 41
0.000000
 66
  1
  0
VERTEX
  8
gg1
 10
0.760000
 20
1.152500
  0
VERTEX
  8
gg1
 10
0.760000
 20
1.167500
  0
SEQEND
  8
gg1
  0
POLYLINE
  8
gg1
 62
1
 40
0.000000
 41
0.000000
 66
  1
  0
VERTEX
  8
gg1
 10
0.713000
 20
1.160000
  0
VERTEX
  8
gg1
 10
0.728000
 20
1.160000
  0
SEQEND
  8
gg1
  0
POLYLINE
  8
gg1
 62
1
 40
0.000000
 41
0.000000
 66
  1
  0
VERTEX
  8
gg1
 10
0.720500
 20
1.152500
  0
VERTEX
  8
gg1
 10
0.720500
 20
1.167500
  0
SEQEND
  8
gg1
  0
POLYLINE
  8
gg1
 62
1
 40
0.000000
 41
0.000000
 66
  1
  0
VERTEX
  8
gg1
 10
0.672500
 20
1.160000
  0
VERTEX
  8
gg1
 10
0.687500
 20
1.160000
  0
SEQEND
  8
gg1
  0
POLYLINE
  8
gg1
 62
1
 40
0.000000
 41
0.000000
 66
  1
  0
VERTEX
  8
gg1
 10
0.680000
 20
1.152500
  0
VERTEX
  8
gg1
 10
0.680000
 20
1.167500
  0
SEQEND
  8
gg1
  0
POLYLINE
  8
gg1
 62
1
 40
0.000000
 41
0.000000
 66
  1
  0
VERTEX
  8
gg1
 10
0.632500
 20
1.160000
  0
VERTEX
  8
gg1
 10
0.647500
 20
1.160000
  0
SEQEND
  8
gg1
  0
POLYLINE
  8
gg1
 62
1
 40
0.000000
 41
0.000000
 66
  1
  0
VERTEX
  8
gg1
 10
0.640000
 20
1.152500
  0
VERTEX
  8
gg1
 10
0.640000
 20
1.167500
  0
SEQEND
  8
gg1
  0
POLYLINE
  8
gg1
 62
1
 40
0.000000
 41
0.000000
 66
  1
  0
VERTEX
  8
gg1
 10
0.522500
 20
1.160000
  0
VERTEX
  8
gg1
 10
0.537500
 20
1.160000
  0
SEQEND
  8
gg1
  0
POLYLINE
  8
gg1
 62
1
 40
0.000000
 41
0.000000
 66
  1
  0
VERTEX
  8
gg1
 10
0.530000
 20
1.152500
  0
VERTEX
  8
gg1
 10
0.530000
 20
1.167500
  0
SEQEND
  8
gg1
  0
POLYLINE
  8
gg1
 62
1
 40
0.000000
 41
0.000000
 66
  1
  0
VERTEX
  8
gg1
 10
0.482500
 20
1.160000
  0
VERTEX
  8
gg1
 10
0.497500
 20
1.160000
  0
SEQEND
  8
gg1
  0
POLYLINE
  8
gg1
 62
1
 40
0.000000
 41
0.000000
 66
  1
  0
VERTEX
  8
gg1
 10
0.490000
 20
1.152500
  0
VERTEX
  8
gg1
 10
0.490000
 20
1.167500
  0
SEQEND
  8
gg1
  0
POLYLINE
  8
gg1
 62
1
 40
0.000000
 41
0.000000
 66
  1
  0
VERTEX
  8
gg1
 10
0.402500
 20
1.160000
  0
VERTEX
  8
gg1
 10
0.417500
 20
1.160000
  0
SEQEND
  8
gg1
  0
POLYLINE
  8
gg1
 62
1
 40
0.000000
 41
0.000000
 66
  1
  0
VERTEX
  8
gg1
 10
0.410000
 20
1.152500
  0
VERTEX
  8
gg1
 10
0.410000
 20
1.167500
  0
SEQEND
  8
gg1
  0
POLYLINE
  8
gg1
 62
1
 40
0.000000
 41
0.000000
 66
  1
  0
VERTEX
  8
gg1
 10
0.362500
 20
1.160000
  0
VERTEX
  8
gg1
 10
0.377500
 20
1.160000
  0
SEQEND
  8
gg1
  0
POLYLINE
  8
gg1
 62
1
 40
0.000000
 41
0.000000
 66
  1
  0
VERTEX
  8
gg1
 10
0.370000
 20
1.152500
  0
VERTEX
  8
gg1
 10
0.370000
 20
1.167500
  0
SEQEND
  8
gg1
  0
POLYLINE
  8
gg1
 62
1
 40
0.000000
 41
0.000000
 66
  1
  0
VERTEX
  8
gg1
 10
1.099500
 20
0.435000
  0
VERTEX
  8
gg1
 10
1.114500
 20
0.435000
  0
SEQEND
  8
gg1
  0
POLYLINE
  8
gg1
 62
1
 40
0.000000
 41
0.000000
 66
  1
  0
VERTEX
  8
gg1
 10
1.107000
 20
0.427500
  0
VERTEX
  8
gg1
 10
1.107000
 20
0.442500
  0
SEQEND
  8
gg1
  0
POLYLINE
  8
gg1
 62
1
 40
0.000000
 41
0.000000
 66
  1
  0
VERTEX
  8
gg1
 10
1.347500
 20
0.500000
  0
VERTEX
  8
gg1
 10
1.362500
 20
0.500000
  0
SEQEND
  8
gg1
  0
POLYLINE
  8
gg1
 62
1
 40
0.000000
 41
0.000000
 66
  1
  0
VERTEX
  8
gg1
 10
1.355000
 20
0.492500
  0
VERTEX
  8
gg1
 10
1.355000
 20
0.507500
  0
SEQEND
  8
gg1
  0
POLYLINE
  8
gg1
 62
1
 40
0.000000
 41
0.000000
 66
  1
  0
VERTEX
  8
gg1
 10
0.047500
 20
0.610000
  0
VERTEX
  8
gg1
 10
0.062500
 20
0.610000
  0
SEQEND
  8
gg1
  0
POLYLINE
  8
gg1
 62
1
 40
0.000000
 41
0.000000
 66
  1
  0
VERTEX
  8
gg1
 10
0.055000
 20
0.602500
  0
VERTEX
  8
gg1
 10
0.055000
 20
0.617500
  0
SEQEND
  8
gg1
  0
POLYLINE
  8
gg1
 62
1
 40
0.000000
 41
0.000000
 66
  1
  0
VERTEX
  8
gg1
 10
1.632500
 20
0.335000
  0
VERTEX
  8
gg1
 10
1.647500
 20
0.335000
  0
SEQEND
  8
gg1
  0
POLYLINE
  8
gg1
 62
1
 40
0.000000
 41
0.000000
 66
  1
  0
VERTEX
  8
gg1
 10
1.640000
 20
0.327500
  0
VERTEX
  8
gg1
 10
1.640000
 20
0.342500
  0
SEQEND
  8
gg1
  0
POLYLINE
  8
gg1
 62
1
 40
0.000000
 41
0.000000
 66
  1
  0
VERTEX
  8
gg1
 10
1.647500
 20
0.280000
  0
VERTEX
  8
gg1
 10
1.662500
 20
0.280000
  0
SEQEND
  8
gg1
  0
POLYLINE
  8
gg1
 62
1
 40
0.000000
 41
0.000000
 66
  1
  0
VERTEX
  8
gg1
 10
1.655000
 20
0.272500
  0
VERTEX
  8
gg1
 10
1.655000
 20
0.287500
  0
SEQEND
  8
gg1
  0
POLYLINE
  8
gg1
 62
1
 40
0.000000
 41
0.000000
 66
  1
  0
VERTEX
  8
gg1
 10
0.632500
 20
0.970000
  0
VERTEX
  8
gg1
 10
0.647500
 20
0.970000
  0
SEQEND
  8
gg1
  0
POLYLINE
  8
gg1
 62
1
 40
0.000000
 41
0.000000
 66
  1
  0
VERTEX
  8
gg1
 10
0.640000
 20
0.962500
  0
VERTEX
  8
gg1
 10
0.640000
 20
0.977500
  0
SEQEND
  8
gg1
  0
POLYLINE
  8
gg1
 62
1
 40
0.000000
 41
0.000000
 66
  1
  0
VERTEX
  8
gg1
 10
1.427500
 20
1.210000
  0
VERTEX
  8
gg1
 10
1.442500
 20
1.210000
  0
SEQEND
  8
gg1
  0
POLYLINE
  8
gg1
 62
1
 40
0.000000
 41
0.000000
 66
  1
  0
VERTEX
  8
gg1
 10
1.435000
 20
1.202500
  0
VERTEX
  8
gg1
 10
1.435000
 20
1.217500
  0
SEQEND
  8
gg1
  0
POLYLINE
  8
gg1
 62
1
 40
0.000000
 41
0.000000
 66
  1
  0
VERTEX
  8
gg1
 10
0.517500
 20
0.980000
  0
VERTEX
  8
gg1
 10
0.532500
 20
0.980000
  0
SEQEND
  8
gg1
  0
POLYLINE
  8
gg1
 62
1
 40
0.000000
 41
0.000000
 66
  1
  0
VERTEX
  8
gg1
 10
0.525000
 20
0.972500
  0
VERTEX
  8
gg1
 10
0.525000
 20
0.987500
  0
SEQEND
  8
gg1
  0
POLYLINE
  8
gg1
 62
1
 40
0.000000
 41
0.000000
 66
  1
  0
VERTEX
  8
gg1
 10
0.632500
 20
0.865000
  0
VERTEX
  8
gg1
 10
0.647500
 20
0.865000
  0
SEQEND
  8
gg1
  0
POLYLINE
  8
gg1
 62
1
 40
0.000000
 41
0.000000
 66
  1
  0
VERTEX
  8
gg1
 10
0.640000
 20
0.857500
  0
VERTEX
  8
gg1
 10
0.640000
 20
0.872500
  0
SEQEND
  8
gg1
  0
POLYLINE
  8
gg1
 62
1
 40
0.000000
 41
0.000000
 66
  1
  0
VERTEX
  8
gg1
 10
0.622500
 20
0.830000
  0
VERTEX
  8
gg1
 10
0.637500
 20
0.830000
  0
SEQEND
  8
gg1
  0
POLYLINE
  8
gg1
 62
1
 40
0.000000
 41
0.000000
 66
  1
  0
VERTEX
  8
gg1
 10
0.630000
 20
0.822500
  0
VERTEX
  8
gg1
 10
0.630000
 20
0.837500
  0
SEQEND
  8
gg1
  0
POLYLINE
  8
gg1
 62
1
 40
0.000000
 41
0.000000
 66
  1
  0
VERTEX
  8
gg1
 10
0.602500
 20
0.855000
  0
VERTEX
  8
gg1
 10
0.617500
 20
0.855000
  0
SEQEND
  8
gg1
  0
POLYLINE
  8
gg1
 62
1
 40
0.000000
 41
0.000000
 66
  1
  0
VERTEX
  8
gg1
 10
0.610000
 20
0.847500
  0
VERTEX
  8
gg1
 10
0.610000
 20
0.862500
  0
SEQEND
  8
gg1
  0
POLYLINE
  8
gg1
 62
1
 40
0.000000
 41
0.000000
 66
  1
  0
VERTEX
  8
gg1
 10
0.587500
 20
0.825000
  0
VERTEX
  8
gg1
 10
0.602500
 20
0.825000
  0
SEQEND
  8
gg1
  0
POLYLINE
  8
gg1
 62
1
 40
0.000000
 41
0.000000
 66
  1
  0
VERTEX
  8
gg1
 10
0.595000
 20
0.817500
  0
VERTEX
  8
gg1
 10
0.595000
 20
0.832500
  0
SEQEND
  8
gg1
  0
POLYLINE
  8
gg1
 62
1
 40
0.000000
 41
0.000000
 66
  1
  0
VERTEX
  8
gg1
 10
0.632500
 20
0.935000
  0
VERTEX
  8
gg1
 10
0.647500
 20
0.935000
  0
SEQEND
  8
gg1
  0
POLYLINE
  8
gg1
 62
1
 40
0.000000
 41
0.000000
 66
  1
  0
VERTEX
  8
gg1
 10
0.640000
 20
0.927500
  0
VERTEX
  8
gg1
 10
0.640000
 20
0.942500
  0
SEQEND
  8
gg1
  0
POLYLINE
  8
gg1
 62
1
 40
0.000000
 41
0.000000
 66
  1
  0
VERTEX
  8
gg1
 10
1.447500
 20
1.180000
  0
VERTEX
  8
gg1
 10
1.462500
 20
1.180000
  0
SEQEND
  8
gg1
  0
POLYLINE
  8
gg1
 62
1
 40
0.000000
 41
0.000000
 66
  1
  0
VERTEX
  8
gg1
 10
1.455000
 20
1.172500
  0
VERTEX
  8
gg1
 10
1.455000
 20
1.187500
  0
SEQEND
  8
gg1
  0
POLYLINE
  8
gg1
 62
1
 40
0.000000
 41
0.000000
 66
  1
  0
VERTEX
  8
gg1
 10
1.407500
 20
1.180000
  0
VERTEX
  8
gg1
 10
1.422500
 20
1.180000
  0
SEQEND
  8
gg1
  0
POLYLINE
  8
gg1
 62
1
 40
0.000000
 41
0.000000
 66
  1
  0
VERTEX
  8
gg1
 10
1.415000
 20
1.172500
  0
VERTEX
  8
gg1
 10
1.415000
 20
1.187500
  0
SEQEND
  8
gg1
  0
POLYLINE
  8
gg1
 62
1
 40
0.000000
 41
0.000000
 66
  1
  0
VERTEX
  8
gg1
 10
1.502500
 20
1.210000
  0
VERTEX
  8
gg1
 10
1.517500
 20
1.210000
  0
SEQEND
  8
gg1
  0
POLYLINE
  8
gg1
 62
1
 40
0.000000
 41
0.000000
 66
  1
  0
VERTEX
  8
gg1
 10
1.510000
 20
1.202500
  0
VERTEX
  8
gg1
 10
1.510000
 20
1.217500
  0
SEQEND
  8
gg1
  0
POLYLINE
  8
gg1
 62
1
 40
0.000000
 41
0.000000
 66
  1
  0
VERTEX
  8
gg1
 10
0.998500
 20
0.200000
  0
VERTEX
  8
gg1
 10
1.013500
 20
0.200000
  0
SEQEND
  8
gg1
  0
POLYLINE
  8
gg1
 62
1
 40
0.000000
 41
0.000000
 66
  1
  0
VERTEX
  8
gg1
 10
1.006000
 20
0.192500
  0
VERTEX
  8
gg1
 10
1.006000
 20
0.207500
  0
SEQEND
  8
gg1
  0
POLYLINE
  8
gg1
 62
1
 40
0.000000
 41
0.000000
 66
  1
  0
VERTEX
  8
gg1
 10
0.152500
 20
0.270000
  0
VERTEX
  8
gg1
 10
0.167500
 20
0.270000
  0
SEQEND
  8
gg1
  0
POLYLINE
  8
gg1
 62
1
 40
0.000000
 41
0.000000
 66
  1
  0
VERTEX
  8
gg1
 10
0.160000
 20
0.262500
  0
VERTEX
  8
gg1
 10
0.160000
 20
0.277500
  0
SEQEND
  8
gg1
  0
POLYLINE
  8
gg1
 62
1
 40
0.000000
 41
0.000000
 66
  1
  0
VERTEX
  8
gg1
 10
0.167500
 20
0.240000
  0
VERTEX
  8
gg1
 10
0.182500
 20
0.240000
  0
SEQEND
  8
gg1
  0
POLYLINE
  8
gg1
 62
1
 40
0.000000
 41
0.000000
 66
  1
  0
VERTEX
  8
gg1
 10
0.175000
 20
0.232500
  0
VERTEX
  8
gg1
 10
0.175000
 20
0.247500
  0
SEQEND
  8
gg1
  0
POLYLINE
  8
gg1
 62
1
 40
0.000000
 41
0.000000
 66
  1
  0
VERTEX
  8
gg1
 10
0.182500
 20
0.210000
  0
VERTEX
  8
gg1
 10
0.197500
 20
0.210000
  0
SEQEND
  8
gg1
  0
POLYLINE
  8
gg1
 62
1
 40
0.000000
 41
0.000000
 66
  1
  0
VERTEX
  8
gg1
 10
0.190000
 20
0.202500
  0
VERTEX
  8
gg1
 10
0.190000
 20
0.217500
  0
SEQEND
  8
gg1
  0
POLYLINE
  8
gg1
 62
1
 40
0.000000
 41
0.000000
 66
  1
  0
VERTEX
  8
gg1
 10
0.752500
 20
0.740000
  0
VERTEX
  8
gg1
 10
0.767500
 20
0.740000
  0
SEQEND
  8
gg1
  0
POLYLINE
  8
gg1
 62
1
 40
0.000000
 41
0.000000
 66
  1
  0
VERTEX
  8
gg1
 10
0.760000
 20
0.732500
  0
VERTEX
  8
gg1
 10
0.760000
 20
0.747500
  0
SEQEND
  8
gg1
  0
POLYLINE
  8
gg1
 62
1
 40
0.000000
 41
0.000000
 66
  1
  0
VERTEX
  8
gg1
 10
0.782500
 20
0.710000
  0
VERTEX
  8
gg1
 10
0.797500
 20
0.710000
  0
SEQEND
  8
gg1
  0
POLYLINE
  8
gg1
 62
1
 40
0.000000
 41
0.000000
 66
  1
  0
VERTEX
  8
gg1
 10
0.790000
 20
0.702500
  0
VERTEX
  8
gg1
 10
0.790000
 20
0.717500
  0
SEQEND
  8
gg1
  0
POLYLINE
  8
gg1
 62
1
 40
0.000000
 41
0.000000
 66
  1
  0
VERTEX
  8
gg1
 10
0.752500
 20
0.710000
  0
VERTEX
  8
gg1
 10
0.767500
 20
0.710000
  0
SEQEND
  8
gg1
  0
POLYLINE
  8
gg1
 62
1
 40
0.000000
 41
0.000000
 66
  1
  0
VERTEX
  8
gg1
 10
0.760000
 20
0.702500
  0
VERTEX
  8
gg1
 10
0.760000
 20
0.717500
  0
SEQEND
  8
gg1
  0
ENDSEC
  0
EOF
