  0
SECTION
  2
HEADER
  9
$ACADVER
  1
AC1009
  9
$INSBASE
 10
0.0
 20
0.0
 30
0.0
  9
$EXTMIN
 10
-0.174
 20
-0.426
 30
0.0
  9
$EXTMAX
 10
0.7
 20
0.8
 30
0.0
  9
$LIMMIN
 10
-0.177
 20
-0.429
  9
$LIMMAX
 10
0.705
 20
0.805
  9
$ORTHOMODE
 70
     0
  9
$REGENMODE
 70
     1
  9
$FILLMODE
 70
     1
  9
$QTEXTMODE
 70
     0
  9
$MIRRTEXT
 70
     0
  9
$DRAGMODE
 70
     2
  9
$LTSCALE
 40
1.0
  9
$OSMODE
 70
    37
  9
$ATTMODE
 70
     1
  9
$TEXTSIZE
 40
0.2
  9
$TRACEWID
 40
0.05
  9
$TEXTSTYLE
  7
STANDARD
  9
$CLAYER
  8
0
  9
$CELTYPE
  6
CONTINUOUS
  9
$CECOLOR
 62
   256
  9
$DIMSCALE
 40
1.0
  9
$DIMASZ
 40
0.18
  9
$DIMEXO
 40
0.0625
  9
$DIMDLI
 40
0.38
  9
$DIMRND
 40
0.0
  9
$DIMDLE
 40
0.0
  9
$DIMEXE
 40
0.18
  9
$DIMTP
 40
0.0
  9
$DIMTM
 40
0.0
  9
$DIMTXT
 40
0.18
  9
$DIMCEN
 40
0.09
  9
$DIMTSZ
 40
0.0
  9
$DIMTOL
 70
     0
  9
$DIMLIM
 70
     0
  9
$DIMTIH
 70
     1
  9
$DIMTOH
 70
     1
  9
$DIMSE1
 70
     0
  9
$DIMSE2
 70
     0
  9
$DIMTAD
 70
     0
  9
$DIMZIN
 70
     0
  9
$DIMBLK
  1

  9
$DIMASO
 70
     1
  9
$DIMSHO
 70
     1
  9
$DIMPOST
  1

  9
$DIMAPOST
  1

  9
$DIMALT
 70
     0
  9
$DIMALTD
 70
     2
  9
$DIMALTF
 40
25.3999999999999986
  9
$DIMLFAC
 40
1.0
  9
$DIMTOFL
 70
     0
  9
$DIMTVP
 40
0.0
  9
$DIMTIX
 70
     0
  9
$DIMSOXD
 70
     0
  9
$DIMSAH
 70
     0
  9
$DIMBLK1
  1

  9
$DIMBLK2
  1

  9
$DIMSTYLE
  2
STANDARD
  9
$DIMCLRD
 70
     0
  9
$DIMCLRE
 70
     0
  9
$DIMCLRT
 70
     0
  9
$DIMTFAC
 40
1.0
  9
$DIMGAP
 40
0.09
  9
$LUNITS
 70
     2
  9
$LUPREC
 70
     4
  9
$SKETCHINC
 40
0.1
  9
$FILLETRAD
 40
0.0
  9
$AUNITS
 70
     0
  9
$AUPREC
 70
     0
  9
$MENU
  1
.
  9
$ELEVATION
 40
0.0
  9
$PELEVATION
 40
0.0
  9
$THICKNESS
 40
0.0
  9
$LIMCHECK
 70
     0
  9
$BLIPMODE
 70
     0
  9
$CHAMFERA
 40
0.0
  9
$CHAMFERB
 40
0.0
  9
$SKPOLY
 70
     0
  9
$TDCREATE
 40
2458724.7355902781710029
  9
$TDUPDATE
 40
2458724.7359722219407558
  9
$TDINDWG
 40
0.0003819444
  9
$TDUSRTIMER
 40
0.0003819444
  9
$USRTIMER
 70
     1
  9
$ANGBASE
 50
0.0
  9
$ANGDIR
 70
     0
  9
$PDMODE
 70
     0
  9
$PDSIZE
 40
0.0
  9
$PLINEWID
 40
0.0
  9
$COORDS
 70
     1
  9
$SPLFRAME
 70
     0
  9
$SPLINETYPE
 70
     6
  9
$SPLINESEGS
 70
     8
  9
$ATTDIA
 70
     1
  9
$ATTREQ
 70
     1
  9
$HANDLING
 70
     1
  9
$HANDSEED
  5
899
  9
$SURFTAB1
 70
     6
  9
$SURFTAB2
 70
     6
  9
$SURFTYPE
 70
     6
  9
$SURFU
 70
     6
  9
$SURFV
 70
     6
  9
$UCSNAME
  2

  9
$UCSORG
 10
0.0
 20
0.0
 30
0.0
  9
$UCSXDIR
 10
1.0
 20
0.0
 30
0.0
  9
$UCSYDIR
 10
0.0
 20
1.0
 30
0.0
  9
$PUCSNAME
  2

  9
$PUCSORG
 10
0.0
 20
0.0
 30
0.0
  9
$PUCSXDIR
 10
1.0
 20
0.0
 30
0.0
  9
$PUCSYDIR
 10
0.0
 20
1.0
 30
0.0
  9
$USERI1
 70
     0
  9
$USERI2
 70
     0
  9
$USERI3
 70
     0
  9
$USERI4
 70
     0
  9
$USERI5
 70
     0
  9
$USERR1
 40
0.0
  9
$USERR2
 40
0.0
  9
$USERR3
 40
0.0
  9
$USERR4
 40
0.0
  9
$USERR5
 40
0.0
  9
$WORLDVIEW
 70
     1
  9
$SHADEDGE
 70
     3
  9
$SHADEDIF
 70
    70
  9
$TILEMODE
 70
     1
  9
$MAXACTVP
 70
    64
  9
$PLIMCHECK
 70
     0
  9
$PEXTMIN
 10
1.0000000000000000E+20
 20
1.0000000000000000E+20
 30
1.0000000000000000E+20
  9
$PEXTMAX
 10
-1.0000000000000000E+20
 20
-1.0000000000000000E+20
 30
-1.0000000000000000E+20
  9
$PLIMMIN
 10
0.0
 20
0.0
  9
$PLIMMAX
 10
12.0
 20
9.0
  9
$UNITMODE
 70
     0
  9
$VISRETAIN
 70
     1
  9
$PLINEGEN
 70
     0
  9
$PSLTSCALE
 70
     1
  0
ENDSEC
  0
SECTION
  2
TABLES
  0
TABLE
  2
VPORT
 70
     1
  0
VPORT
  2
*ACTIVE
 70
     0
 10
0.0
 20
0.0
 11
1.0
 21
1.0
 12
0.0
 22
0.0
 13
0.0
 23
0.0
 14
1.0
 24
1.0
 15
0.0
 25
0.0
 16
-0.000000000000001
 26
0.0
 36
4.567595750438028
 17
0.2629999965429306
 27
0.1870000064373016
 37
0.0
 40
1.505640062332978
 41
2.305925030229746
 42
50.0
 43
0.0
 44
0.0
 50
0.0
 51
0.0
 71
     0
 72
   100
 73
     1
 74
     0
 75
     1
 76
     0
 77
     0
 78
     0
  0
ENDTAB
  0
TABLE
  2
LTYPE
 70
     1
  0
LTYPE
  2
CONTINUOUS
 70
     0
  3
Solid line
 72
    65
 73
     0
 40
0.0
  0
ENDTAB
  0
TABLE
  2
LAYER
 70
     2
  0
LAYER
  2
0
 70
     0
 62
     7
  6
CONTINUOUS
  0
LAYER
  2
GG1
 70
     0
 62
     1
  6
CONTINUOUS
  0
ENDTAB
  0
TABLE
  2
STYLE
 70
     2
  0
STYLE
  2
STANDARD
 70
     0
 40
0.0
 41
1.0
 50
0.0
 71
     0
 42
0.2
  3
txt
  4

  0
STYLE
  2
ANNOTATIVE
 70
     0
 40
0.0
 41
1.0
 50
0.0
 71
     0
 42
0.2
  3
txt
  4

  0
ENDTAB
  0
TABLE
  2
VIEW
 70
     0
  0
ENDTAB
  0
TABLE
  2
UCS
 70
     0
  0
ENDTAB
  0
TABLE
  2
APPID
 70
     4
  0
APPID
  2
ACAD
 70
     0
  0
APPID
  2
ACADANNOTATIVE
 70
     0
  0
APPID
  2
ACAD_NAV_VCDISPLAY
 70
     0
  0
APPID
  2
ACAD_MLEADERVER
 70
     0
  0
ENDTAB
  0
TABLE
  2
DIMSTYLE
 70
     2
  0
DIMSTYLE
  2
STANDARD
 70
     0
  3

  4

  5

  6

  7

 40
1.0
 41
0.18
 42
0.0625
 43
0.38
 44
0.18
 45
0.0
 46
0.0
 47
0.0
 48
0.0
140
0.18
141
0.09
142
0.0
143
25.3999999999999986
144
1.0
145
0.0
146
1.0
147
0.09
 71
     0
 72
     0
 73
     1
 74
     1
 75
     0
 76
     0
 77
     0
 78
     0
170
     0
171
     2
172
     0
173
     0
174
     0
175
     0
176
     0
177
     0
178
     0
  0
DIMSTYLE
  2
ANNOTATIVE
 70
     0
  3

  4

  5

  6

  7

 40
1.0
 41
0.18
 42
0.0625
 43
0.38
 44
0.18
 45
0.0
 46
0.0
 47
0.0
 48
0.0
140
0.18
141
0.09
142
0.0
143
25.3999999999999986
144
1.0
145
0.0
146
1.0
147
0.09
 71
     0
 72
     0
 73
     1
 74
     1
 75
     0
 76
     0
 77
     0
 78
     0
170
     0
171
     2
172
     0
173
     0
174
     0
175
     0
176
     0
177
     0
178
     0
  0
ENDTAB
  0
ENDSEC
  0
SECTION
  2
BLOCKS
  0
BLOCK
  8
0
  2
$MODEL_SPACE
 70
     0
 10
0.0
 20
0.0
 30
0.0
  3
$MODEL_SPACE
  1

  0
ENDBLK
  5
71
  8
0
  0
BLOCK
 67
     1
  8
0
  2
$PAPER_SPACE
 70
     0
 10
0.0
 20
0.0
 30
0.0
  3
$PAPER_SPACE
  1

  0
ENDBLK
  5
6D
 67
     1
  8
0
  0
BLOCK
  8
0
  2
D10
 70
     0
 10
0.0
 20
0.0
 30
0.0
  3
D10
  1

  0
CIRCLE
  5
78
  8
0
 10
0.0
 20
0.0
 30
0.0
 40
0.005
  0
ENDBLK
  5
79
  8
0
  0
BLOCK
  8
0
  2
D11
 70
     0
 10
0.0
 20
0.0
 30
0.0
  3
D11
  1

  0
CIRCLE
  5
7C
  8
0
 10
0.0
 20
0.0
 30
0.0
 40
0.0025
  0
ENDBLK
  5
7D
  8
0
  0
BLOCK
  8
0
  2
D12
 70
     0
 10
0.0
 20
0.0
 30
0.0
  3
D12
  1

  0
CIRCLE
  5
80
  8
0
 10
0.0
 20
0.0
 30
0.0
 40
0.003
  0
ENDBLK
  5
81
  8
0
  0
ENDSEC
  0
SECTION
  2
ENTITIES
  0
POLYLINE
  5
82
  8
GG1
 62
     1
 66
     1
 10
0.0
 20
0.0
 30
0.0
  0
VERTEX
  5
654
  8
GG1
 62
     1
 10
-0.16
 20
0.0
 30
0.0
  0
VERTEX
  5
655
  8
GG1
 62
     1
 10
-0.01
 20
0.0
 30
0.0
  0
SEQEND
  5
656
  8
GG1
 62
     1
  0
POLYLINE
  5
86
  8
GG1
 62
     1
 66
     1
 10
0.0
 20
0.0
 30
0.0
  0
VERTEX
  5
657
  8
GG1
 62
     1
 10
-0.16
 20
0.8
 30
0.0
  0
VERTEX
  5
658
  8
GG1
 62
     1
 10
-0.01
 20
0.8
 30
0.0
  0
SEQEND
  5
659
  8
GG1
 62
     1
  0
POLYLINE
  5
8A
  8
GG1
 62
     1
 66
     1
 10
0.0
 20
0.0
 30
0.0
  0
VERTEX
  5
65A
  8
GG1
 62
     1
 10
-0.15
 20
0.0
 30
0.0
  0
VERTEX
  5
65B
  8
GG1
 62
     1
 10
-0.15
 20
0.213
 30
0.0
  0
SEQEND
  5
65C
  8
GG1
 62
     1
  0
POLYLINE
  5
8E
  8
GG1
 62
     1
 66
     1
 10
0.0
 20
0.0
 30
0.0
  0
VERTEX
  5
65D
  8
GG1
 62
     1
 10
-0.15
 20
0.5548999999999999
 30
0.0
  0
VERTEX
  5
65E
  8
GG1
 62
     1
 10
-0.15
 20
0.8
 30
0.0
  0
SEQEND
  5
65F
  8
GG1
 62
     1
  0
POLYLINE
  5
92
  8
GG1
 62
     1
 66
     1
 10
0.0
 20
0.0
 30
0.0
  0
VERTEX
  5
660
  8
GG1
 62
     1
 10
-0.15
 20
0.0
 30
0.0
  0
VERTEX
  5
661
  8
GG1
 62
     1
 10
-0.13
 20
0.06
 30
0.0
  0
SEQEND
  5
662
  8
GG1
 62
     1
  0
POLYLINE
  5
96
  8
GG1
 62
     1
 66
     1
 10
0.0
 20
0.0
 30
0.0
  0
VERTEX
  5
663
  8
GG1
 62
     1
 10
-0.17
 20
0.06
 30
0.0
  0
VERTEX
  5
664
  8
GG1
 62
     1
 10
-0.15
 20
0.0
 30
0.0
  0
SEQEND
  5
665
  8
GG1
 62
     1
  0
POLYLINE
  5
9A
  8
GG1
 62
     1
 66
     1
 10
0.0
 20
0.0
 30
0.0
  0
VERTEX
  5
666
  8
GG1
 62
     1
 10
-0.17
 20
0.7400000000000001
 30
0.0
  0
VERTEX
  5
667
  8
GG1
 62
     1
 10
-0.15
 20
0.8
 30
0.0
  0
VERTEX
  5
668
  8
GG1
 62
     1
 10
-0.13
 20
0.7400000000000001
 30
0.0
  0
SEQEND
  5
669
  8
GG1
 62
     1
  0
POLYLINE
  5
9F
  8
GG1
 62
     1
 66
     1
 10
0.0
 20
0.0
 30
0.0
  0
VERTEX
  5
66A
  8
GG1
 62
     1
 10
0.7
 20
-0.4
 30
0.0
  0
VERTEX
  5
66B
  8
GG1
 62
     1
 10
0.7
 20
-0.01
 30
0.0
  0
SEQEND
  5
66C
  8
GG1
 62
     1
  0
POLYLINE
  5
A3
  8
GG1
 62
     1
 66
     1
 10
0.0
 20
0.0
 30
0.0
  0
VERTEX
  5
66D
  8
GG1
 62
     1
 10
0.0
 20
-0.4
 30
0.0
  0
VERTEX
  5
66E
  8
GG1
 62
     1
 10
0.0
 20
-0.01
 30
0.0
  0
SEQEND
  5
66F
  8
GG1
 62
     1
  0
POLYLINE
  5
A7
  8
GG1
 62
     1
 66
     1
 10
0.0
 20
0.0
 30
0.0
  0
VERTEX
  5
670
  8
GG1
 62
     1
 10
0.5049000000000001
 20
-0.39
 30
0.0
  0
VERTEX
  5
671
  8
GG1
 62
     1
 10
0.7
 20
-0.39
 30
0.0
  0
SEQEND
  5
672
  8
GG1
 62
     1
  0
POLYLINE
  5
AB
  8
GG1
 62
     1
 66
     1
 10
0.0
 20
0.0
 30
0.0
  0
VERTEX
  5
673
  8
GG1
 62
     1
 10
0.0
 20
-0.39
 30
0.0
  0
VERTEX
  5
674
  8
GG1
 62
     1
 10
0.163
 20
-0.39
 30
0.0
  0
SEQEND
  5
675
  8
GG1
 62
     1
  0
POLYLINE
  5
AF
  8
GG1
 62
     1
 66
     1
 10
0.0
 20
0.0
 30
0.0
  0
VERTEX
  5
676
  8
GG1
 62
     1
 10
0.6400000000000001
 20
-0.37
 30
0.0
  0
VERTEX
  5
677
  8
GG1
 62
     1
 10
0.7
 20
-0.39
 30
0.0
  0
SEQEND
  5
678
  8
GG1
 62
     1
  0
POLYLINE
  5
B3
  8
GG1
 62
     1
 66
     1
 10
0.0
 20
0.0
 30
0.0
  0
VERTEX
  5
679
  8
GG1
 62
     1
 10
0.6400000000000001
 20
-0.41
 30
0.0
  0
VERTEX
  5
67A
  8
GG1
 62
     1
 10
0.7
 20
-0.39
 30
0.0
  0
SEQEND
  5
67B
  8
GG1
 62
     1
  0
POLYLINE
  5
B7
  8
GG1
 62
     1
 66
     1
 10
0.0
 20
0.0
 30
0.0
  0
VERTEX
  5
67C
  8
GG1
 62
     1
 10
0.0
 20
-0.39
 30
0.0
  0
VERTEX
  5
67D
  8
GG1
 62
     1
 10
0.06
 20
-0.41
 30
0.0
  0
SEQEND
  5
67E
  8
GG1
 62
     1
  0
POLYLINE
  5
BB
  8
GG1
 62
     1
 66
     1
 10
0.0
 20
0.0
 30
0.0
  0
VERTEX
  5
67F
  8
GG1
 62
     1
 10
0.0
 20
-0.39
 30
0.0
  0
VERTEX
  5
680
  8
GG1
 62
     1
 10
0.06
 20
-0.37
 30
0.0
  0
SEQEND
  5
681
  8
GG1
 62
     1
  0
POLYLINE
  5
BF
  8
GG1
 62
     1
 66
     1
 10
0.0
 20
0.0
 30
0.0
  0
VERTEX
  5
682
  8
GG1
 62
     1
 10
0.0
 20
0.8
 30
0.0
  0
VERTEX
  5
683
  8
GG1
 62
     1
 10
0.7
 20
0.8
 30
0.0
  0
SEQEND
  5
684
  8
GG1
 62
     1
  0
POLYLINE
  5
C3
  8
GG1
 62
     1
 66
     1
 10
0.0
 20
0.0
 30
0.0
  0
VERTEX
  5
685
  8
GG1
 62
     1
 10
0.7
 20
0.0
 30
0.0
  0
VERTEX
  5
686
  8
GG1
 62
     1
 10
0.7
 20
0.8
 30
0.0
  0
SEQEND
  5
687
  8
GG1
 62
     1
  0
POLYLINE
  5
C7
  8
GG1
 62
     1
 66
     1
 10
0.0
 20
0.0
 30
0.0
  0
VERTEX
  5
688
  8
GG1
 62
     1
 10
0.0
 20
0.0
 30
0.0
  0
VERTEX
  5
689
  8
GG1
 62
     1
 10
0.7
 20
0.0
 30
0.0
  0
SEQEND
  5
68A
  8
GG1
 62
     1
  0
POLYLINE
  5
CB
  8
GG1
 62
     1
 66
     1
 10
0.0
 20
0.0
 30
0.0
  0
VERTEX
  5
68B
  8
GG1
 62
     1
 10
0.0
 20
0.0
 30
0.0
  0
VERTEX
  5
68C
  8
GG1
 62
     1
 10
0.0
 20
0.8
 30
0.0
  0
SEQEND
  5
68D
  8
GG1
 62
     1
  0
POLYLINE
  5
CF
  8
GG1
 62
     1
 66
     1
 10
0.0
 20
0.0
 30
0.0
  0
VERTEX
  5
68E
  8
GG1
 62
     1
 10
0.4050000000000001
 20
0.135
 30
0.0
  0
VERTEX
  5
68F
  8
GG1
 62
     1
 10
0.425
 20
0.135
 30
0.0
  0
SEQEND
  5
690
  8
GG1
 62
     1
  0
POLYLINE
  5
D3
  8
GG1
 62
     1
 66
     1
 10
0.0
 20
0.0
 30
0.0
  0
VERTEX
  5
691
  8
GG1
 62
     1
 10
0.415
 20
0.125
 30
0.0
  0
VERTEX
  5
692
  8
GG1
 62
     1
 10
0.415
 20
0.145
 30
0.0
  0
SEQEND
  5
693
  8
GG1
 62
     1
  0
POLYLINE
  5
D7
  8
GG1
 62
     1
 66
     1
 10
0.0
 20
0.0
 30
0.0
  0
VERTEX
  5
694
  8
GG1
 62
     1
 10
0.29
 20
0.285
 30
0.0
  0
VERTEX
  5
695
  8
GG1
 62
     1
 10
0.31
 20
0.285
 30
0.0
  0
SEQEND
  5
696
  8
GG1
 62
     1
  0
POLYLINE
  5
DB
  8
GG1
 62
     1
 66
     1
 10
0.0
 20
0.0
 30
0.0
  0
VERTEX
  5
697
  8
GG1
 62
     1
 10
0.3
 20
0.275
 30
0.0
  0
VERTEX
  5
698
  8
GG1
 62
     1
 10
0.3
 20
0.295
 30
0.0
  0
SEQEND
  5
699
  8
GG1
 62
     1
  0
POLYLINE
  5
DF
  8
GG1
 62
     1
 66
     1
 10
0.0
 20
0.0
 30
0.0
  0
VERTEX
  5
69A
  8
GG1
 62
     1
 10
0.605
 20
0.05
 30
0.0
  0
VERTEX
  5
69B
  8
GG1
 62
     1
 10
0.6450000000000001
 20
0.05
 30
0.0
  0
SEQEND
  5
69C
  8
GG1
 62
     1
  0
POLYLINE
  5
E3
  8
GG1
 62
     1
 66
     1
 10
0.0
 20
0.0
 30
0.0
  0
VERTEX
  5
69D
  8
GG1
 62
     1
 10
0.625
 20
0.03
 30
0.0
  0
VERTEX
  5
69E
  8
GG1
 62
     1
 10
0.625
 20
0.07
 30
0.0
  0
SEQEND
  5
69F
  8
GG1
 62
     1
  0
POLYLINE
  5
E7
  8
GG1
 62
     1
 66
     1
 10
0.0
 20
0.0
 30
0.0
  0
VERTEX
  5
6A0
  8
GG1
 62
     1
 10
0.505
 20
0.05
 30
0.0
  0
VERTEX
  5
6A1
  8
GG1
 62
     1
 10
0.5450000000000002
 20
0.05
 30
0.0
  0
SEQEND
  5
6A2
  8
GG1
 62
     1
  0
POLYLINE
  5
EB
  8
GG1
 62
     1
 66
     1
 10
0.0
 20
0.0
 30
0.0
  0
VERTEX
  5
6A3
  8
GG1
 62
     1
 10
0.525
 20
0.03
 30
0.0
  0
VERTEX
  5
6A4
  8
GG1
 62
     1
 10
0.525
 20
0.07
 30
0.0
  0
SEQEND
  5
6A5
  8
GG1
 62
     1
  0
POLYLINE
  5
EF
  8
GG1
 62
     1
 66
     1
 10
0.0
 20
0.0
 30
0.0
  0
VERTEX
  5
6A6
  8
GG1
 62
     1
 10
0.4050000000000001
 20
0.05
 30
0.0
  0
VERTEX
  5
6A7
  8
GG1
 62
     1
 10
0.4450000000000001
 20
0.05
 30
0.0
  0
SEQEND
  5
6A8
  8
GG1
 62
     1
  0
POLYLINE
  5
F3
  8
GG1
 62
     1
 66
     1
 10
0.0
 20
0.0
 30
0.0
  0
VERTEX
  5
6A9
  8
GG1
 62
     1
 10
0.425
 20
0.03
 30
0.0
  0
VERTEX
  5
6AA
  8
GG1
 62
     1
 10
0.425
 20
0.07
 30
0.0
  0
SEQEND
  5
6AB
  8
GG1
 62
     1
  0
POLYLINE
  5
F7
  8
GG1
 62
     1
 66
     1
 10
0.0
 20
0.0
 30
0.0
  0
VERTEX
  5
6AC
  8
GG1
 62
     1
 10
0.305
 20
0.05
 30
0.0
  0
VERTEX
  5
6AD
  8
GG1
 62
     1
 10
0.345
 20
0.05
 30
0.0
  0
SEQEND
  5
6AE
  8
GG1
 62
     1
  0
POLYLINE
  5
FB
  8
GG1
 62
     1
 66
     1
 10
0.0
 20
0.0
 30
0.0
  0
VERTEX
  5
6AF
  8
GG1
 62
     1
 10
0.325
 20
0.03
 30
0.0
  0
VERTEX
  5
6B0
  8
GG1
 62
     1
 10
0.325
 20
0.07
 30
0.0
  0
SEQEND
  5
6B1
  8
GG1
 62
     1
  0
POLYLINE
  5
FF
  8
GG1
 62
     1
 66
     1
 10
0.0
 20
0.0
 30
0.0
  0
VERTEX
  5
6B2
  8
GG1
 62
     1
 10
0.205
 20
0.05
 30
0.0
  0
VERTEX
  5
6B3
  8
GG1
 62
     1
 10
0.245
 20
0.05
 30
0.0
  0
SEQEND
  5
6B4
  8
GG1
 62
     1
  0
POLYLINE
  5
103
  8
GG1
 62
     1
 66
     1
 10
0.0
 20
0.0
 30
0.0
  0
VERTEX
  5
6B5
  8
GG1
 62
     1
 10
0.225
 20
0.03
 30
0.0
  0
VERTEX
  5
6B6
  8
GG1
 62
     1
 10
0.225
 20
0.07
 30
0.0
  0
SEQEND
  5
6B7
  8
GG1
 62
     1
  0
POLYLINE
  5
107
  8
GG1
 62
     1
 66
     1
 10
0.0
 20
0.0
 30
0.0
  0
VERTEX
  5
6B8
  8
GG1
 62
     1
 10
0.572
 20
0.715
 30
0.0
  0
VERTEX
  5
6B9
  8
GG1
 62
     1
 10
0.658
 20
0.715
 30
0.0
  0
SEQEND
  5
6BA
  8
GG1
 62
     1
  0
POLYLINE
  5
10B
  8
GG1
 62
     1
 66
     1
 10
0.0
 20
0.0
 30
0.0
  0
VERTEX
  5
6BB
  8
GG1
 62
     1
 10
0.6150000000000001
 20
0.6720000000000002
 30
0.0
  0
VERTEX
  5
6BC
  8
GG1
 62
     1
 10
0.6150000000000001
 20
0.758
 30
0.0
  0
SEQEND
  5
6BD
  8
GG1
 62
     1
  0
POLYLINE
  5
10F
  8
GG1
 62
     1
 66
     1
 10
0.0
 20
0.0
 30
0.0
  0
VERTEX
  5
6BE
  8
GG1
 62
     1
 10
0.042
 20
0.085
 30
0.0
  0
VERTEX
  5
6BF
  8
GG1
 62
     1
 10
0.128
 20
0.085
 30
0.0
  0
SEQEND
  5
6C0
  8
GG1
 62
     1
  0
POLYLINE
  5
113
  8
GG1
 62
     1
 66
     1
 10
0.0
 20
0.0
 30
0.0
  0
VERTEX
  5
6C1
  8
GG1
 62
     1
 10
0.085
 20
0.042
 30
0.0
  0
VERTEX
  5
6C2
  8
GG1
 62
     1
 10
0.085
 20
0.128
 30
0.0
  0
SEQEND
  5
6C3
  8
GG1
 62
     1
  0
POLYLINE
  5
117
  8
GG1
 62
     1
 66
     1
 10
0.0
 20
0.0
 30
0.0
  0
VERTEX
  5
6C4
  8
GG1
 62
     1
 10
0.6025000000000001
 20
0.158
 30
0.0
  0
VERTEX
  5
6C5
  8
GG1
 62
     1
 10
0.6175
 20
0.158
 30
0.0
  0
SEQEND
  5
6C6
  8
GG1
 62
     1
  0
POLYLINE
  5
11B
  8
GG1
 62
     1
 66
     1
 10
0.0
 20
0.0
 30
0.0
  0
VERTEX
  5
6C7
  8
GG1
 62
     1
 10
0.61
 20
0.1505
 30
0.0
  0
VERTEX
  5
6C8
  8
GG1
 62
     1
 10
0.61
 20
0.1655
 30
0.0
  0
SEQEND
  5
6C9
  8
GG1
 62
     1
  0
POLYLINE
  5
11F
  8
GG1
 62
     1
 66
     1
 10
0.0
 20
0.0
 30
0.0
  0
VERTEX
  5
6CA
  8
GG1
 62
     1
 10
0.6525
 20
0.213
 30
0.0
  0
VERTEX
  5
6CB
  8
GG1
 62
     1
 10
0.6675
 20
0.213
 30
0.0
  0
SEQEND
  5
6CC
  8
GG1
 62
     1
  0
POLYLINE
  5
123
  8
GG1
 62
     1
 66
     1
 10
0.0
 20
0.0
 30
0.0
  0
VERTEX
  5
6CD
  8
GG1
 62
     1
 10
0.6600000000000001
 20
0.2055
 30
0.0
  0
VERTEX
  5
6CE
  8
GG1
 62
     1
 10
0.6600000000000001
 20
0.2205
 30
0.0
  0
SEQEND
  5
6CF
  8
GG1
 62
     1
  0
POLYLINE
  5
127
  8
GG1
 62
     1
 66
     1
 10
0.0
 20
0.0
 30
0.0
  0
VERTEX
  5
6D0
  8
GG1
 62
     1
 10
0.5525000000000001
 20
0.29
 30
0.0
  0
VERTEX
  5
6D1
  8
GG1
 62
     1
 10
0.5675
 20
0.29
 30
0.0
  0
SEQEND
  5
6D2
  8
GG1
 62
     1
  0
POLYLINE
  5
12B
  8
GG1
 62
     1
 66
     1
 10
0.0
 20
0.0
 30
0.0
  0
VERTEX
  5
6D3
  8
GG1
 62
     1
 10
0.5600000000000001
 20
0.2825
 30
0.0
  0
VERTEX
  5
6D4
  8
GG1
 62
     1
 10
0.5600000000000001
 20
0.2975
 30
0.0
  0
SEQEND
  5
6D5
  8
GG1
 62
     1
  0
POLYLINE
  5
12F
  8
GG1
 62
     1
 66
     1
 10
0.0
 20
0.0
 30
0.0
  0
VERTEX
  5
6D6
  8
GG1
 62
     1
 10
0.5125
 20
0.29
 30
0.0
  0
VERTEX
  5
6D7
  8
GG1
 62
     1
 10
0.5275
 20
0.29
 30
0.0
  0
SEQEND
  5
6D8
  8
GG1
 62
     1
  0
POLYLINE
  5
133
  8
GG1
 62
     1
 66
     1
 10
0.0
 20
0.0
 30
0.0
  0
VERTEX
  5
6D9
  8
GG1
 62
     1
 10
0.5200000000000001
 20
0.2825
 30
0.0
  0
VERTEX
  5
6DA
  8
GG1
 62
     1
 10
0.5200000000000001
 20
0.2975
 30
0.0
  0
SEQEND
  5
6DB
  8
GG1
 62
     1
  0
POLYLINE
  5
137
  8
GG1
 62
     1
 66
     1
 10
0.0
 20
0.0
 30
0.0
  0
VERTEX
  5
6DC
  8
GG1
 62
     1
 10
0.4775
 20
0.5200000000000001
 30
0.0
  0
VERTEX
  5
6DD
  8
GG1
 62
     1
 10
0.4925
 20
0.5200000000000001
 30
0.0
  0
SEQEND
  5
6DE
  8
GG1
 62
     1
  0
POLYLINE
  5
13B
  8
GG1
 62
     1
 66
     1
 10
0.0
 20
0.0
 30
0.0
  0
VERTEX
  5
6DF
  8
GG1
 62
     1
 10
0.485
 20
0.5125
 30
0.0
  0
VERTEX
  5
6E0
  8
GG1
 62
     1
 10
0.485
 20
0.5275
 30
0.0
  0
SEQEND
  5
6E1
  8
GG1
 62
     1
  0
POLYLINE
  5
13F
  8
GG1
 62
     1
 66
     1
 10
0.0
 20
0.0
 30
0.0
  0
VERTEX
  5
6E2
  8
GG1
 62
     1
 10
0.2626
 20
0.4599000000000001
 30
0.0
  0
VERTEX
  5
6E3
  8
GG1
 62
     1
 10
0.2776
 20
0.4599000000000001
 30
0.0
  0
SEQEND
  5
6E4
  8
GG1
 62
     1
  0
POLYLINE
  5
143
  8
GG1
 62
     1
 66
     1
 10
0.0
 20
0.0
 30
0.0
  0
VERTEX
  5
6E5
  8
GG1
 62
     1
 10
0.2701
 20
0.4524
 30
0.0
  0
VERTEX
  5
6E6
  8
GG1
 62
     1
 10
0.2701
 20
0.4674
 30
0.0
  0
SEQEND
  5
6E7
  8
GG1
 62
     1
  0
POLYLINE
  5
147
  8
GG1
 62
     1
 66
     1
 10
0.0
 20
0.0
 30
0.0
  0
VERTEX
  5
6E8
  8
GG1
 62
     1
 10
0.3025
 20
0.51
 30
0.0
  0
VERTEX
  5
6E9
  8
GG1
 62
     1
 10
0.3175
 20
0.51
 30
0.0
  0
SEQEND
  5
6EA
  8
GG1
 62
     1
  0
POLYLINE
  5
14B
  8
GG1
 62
     1
 66
     1
 10
0.0
 20
0.0
 30
0.0
  0
VERTEX
  5
6EB
  8
GG1
 62
     1
 10
0.31
 20
0.5024999999999999
 30
0.0
  0
VERTEX
  5
6EC
  8
GG1
 62
     1
 10
0.31
 20
0.5175
 30
0.0
  0
SEQEND
  5
6ED
  8
GG1
 62
     1
  0
POLYLINE
  5
14F
  8
GG1
 62
     1
 66
     1
 10
0.0
 20
0.0
 30
0.0
  0
VERTEX
  5
6EE
  8
GG1
 62
     1
 10
0.0975
 20
0.51
 30
0.0
  0
VERTEX
  5
6EF
  8
GG1
 62
     1
 10
0.1125
 20
0.51
 30
0.0
  0
SEQEND
  5
6F0
  8
GG1
 62
     1
  0
POLYLINE
  5
153
  8
GG1
 62
     1
 66
     1
 10
0.0
 20
0.0
 30
0.0
  0
VERTEX
  5
6F1
  8
GG1
 62
     1
 10
0.105
 20
0.5024999999999999
 30
0.0
  0
VERTEX
  5
6F2
  8
GG1
 62
     1
 10
0.105
 20
0.5175
 30
0.0
  0
SEQEND
  5
6F3
  8
GG1
 62
     1
  0
POLYLINE
  5
157
  8
GG1
 62
     1
 66
     1
 10
0.0
 20
0.0
 30
0.0
  0
VERTEX
  5
6F4
  8
GG1
 62
     1
 10
0.4725
 20
0.365
 30
0.0
  0
VERTEX
  5
6F5
  8
GG1
 62
     1
 10
0.4875
 20
0.365
 30
0.0
  0
SEQEND
  5
6F6
  8
GG1
 62
     1
  0
POLYLINE
  5
15B
  8
GG1
 62
     1
 66
     1
 10
0.0
 20
0.0
 30
0.0
  0
VERTEX
  5
6F7
  8
GG1
 62
     1
 10
0.48
 20
0.3575
 30
0.0
  0
VERTEX
  5
6F8
  8
GG1
 62
     1
 10
0.48
 20
0.3725
 30
0.0
  0
SEQEND
  5
6F9
  8
GG1
 62
     1
  0
POLYLINE
  5
15F
  8
GG1
 62
     1
 66
     1
 10
0.0
 20
0.0
 30
0.0
  0
VERTEX
  5
6FA
  8
GG1
 62
     1
 10
0.0325
 20
0.5350000000000001
 30
0.0
  0
VERTEX
  5
6FB
  8
GG1
 62
     1
 10
0.0475
 20
0.5350000000000001
 30
0.0
  0
SEQEND
  5
6FC
  8
GG1
 62
     1
  0
POLYLINE
  5
163
  8
GG1
 62
     1
 66
     1
 10
0.0
 20
0.0
 30
0.0
  0
VERTEX
  5
6FD
  8
GG1
 62
     1
 10
0.04
 20
0.5275
 30
0.0
  0
VERTEX
  5
6FE
  8
GG1
 62
     1
 10
0.04
 20
0.5425
 30
0.0
  0
SEQEND
  5
6FF
  8
GG1
 62
     1
  0
POLYLINE
  5
167
  8
GG1
 62
     1
 66
     1
 10
0.0
 20
0.0
 30
0.0
  0
VERTEX
  5
700
  8
GG1
 62
     1
 10
0.1375
 20
0.5450000000000002
 30
0.0
  0
VERTEX
  5
701
  8
GG1
 62
     1
 10
0.1525
 20
0.5450000000000002
 30
0.0
  0
SEQEND
  5
702
  8
GG1
 62
     1
  0
POLYLINE
  5
16B
  8
GG1
 62
     1
 66
     1
 10
0.0
 20
0.0
 30
0.0
  0
VERTEX
  5
703
  8
GG1
 62
     1
 10
0.145
 20
0.5375
 30
0.0
  0
VERTEX
  5
704
  8
GG1
 62
     1
 10
0.145
 20
0.5525000000000001
 30
0.0
  0
SEQEND
  5
705
  8
GG1
 62
     1
  0
POLYLINE
  5
16F
  8
GG1
 62
     1
 66
     1
 10
0.0
 20
0.0
 30
0.0
  0
VERTEX
  5
706
  8
GG1
 62
     1
 10
0.3725
 20
0.71
 30
0.0
  0
VERTEX
  5
707
  8
GG1
 62
     1
 10
0.3875
 20
0.71
 30
0.0
  0
SEQEND
  5
708
  8
GG1
 62
     1
  0
POLYLINE
  5
173
  8
GG1
 62
     1
 66
     1
 10
0.0
 20
0.0
 30
0.0
  0
VERTEX
  5
709
  8
GG1
 62
     1
 10
0.38
 20
0.7025000000000001
 30
0.0
  0
VERTEX
  5
70A
  8
GG1
 62
     1
 10
0.38
 20
0.7175000000000001
 30
0.0
  0
SEQEND
  5
70B
  8
GG1
 62
     1
  0
POLYLINE
  5
177
  8
GG1
 62
     1
 66
     1
 10
0.0
 20
0.0
 30
0.0
  0
VERTEX
  5
70C
  8
GG1
 62
     1
 10
0.2925
 20
0.25
 30
0.0
  0
VERTEX
  5
70D
  8
GG1
 62
     1
 10
0.3075
 20
0.25
 30
0.0
  0
SEQEND
  5
70E
  8
GG1
 62
     1
  0
POLYLINE
  5
17B
  8
GG1
 62
     1
 66
     1
 10
0.0
 20
0.0
 30
0.0
  0
VERTEX
  5
70F
  8
GG1
 62
     1
 10
0.3
 20
0.2425
 30
0.0
  0
VERTEX
  5
710
  8
GG1
 62
     1
 10
0.3
 20
0.2575
 30
0.0
  0
SEQEND
  5
711
  8
GG1
 62
     1
  0
POLYLINE
  5
17F
  8
GG1
 62
     1
 66
     1
 10
0.0
 20
0.0
 30
0.0
  0
VERTEX
  5
712
  8
GG1
 62
     1
 10
0.0625
 20
0.395
 30
0.0
  0
VERTEX
  5
713
  8
GG1
 62
     1
 10
0.0775
 20
0.395
 30
0.0
  0
SEQEND
  5
714
  8
GG1
 62
     1
  0
POLYLINE
  5
183
  8
GG1
 62
     1
 66
     1
 10
0.0
 20
0.0
 30
0.0
  0
VERTEX
  5
715
  8
GG1
 62
     1
 10
0.07
 20
0.3875
 30
0.0
  0
VERTEX
  5
716
  8
GG1
 62
     1
 10
0.07
 20
0.4025000000000001
 30
0.0
  0
SEQEND
  5
717
  8
GG1
 62
     1
  0
POLYLINE
  5
187
  8
GG1
 62
     1
 66
     1
 10
0.0
 20
0.0
 30
0.0
  0
VERTEX
  5
718
  8
GG1
 62
     1
 10
0.0325
 20
0.385
 30
0.0
  0
VERTEX
  5
719
  8
GG1
 62
     1
 10
0.0475
 20
0.385
 30
0.0
  0
SEQEND
  5
71A
  8
GG1
 62
     1
  0
POLYLINE
  5
18B
  8
GG1
 62
     1
 66
     1
 10
0.0
 20
0.0
 30
0.0
  0
VERTEX
  5
71B
  8
GG1
 62
     1
 10
0.04
 20
0.3775
 30
0.0
  0
VERTEX
  5
71C
  8
GG1
 62
     1
 10
0.04
 20
0.3925
 30
0.0
  0
SEQEND
  5
71D
  8
GG1
 62
     1
  0
POLYLINE
  5
18F
  8
GG1
 62
     1
 66
     1
 10
0.0
 20
0.0
 30
0.0
  0
VERTEX
  5
71E
  8
GG1
 62
     1
 10
0.4325000000000001
 20
0.295
 30
0.0
  0
VERTEX
  5
71F
  8
GG1
 62
     1
 10
0.4475
 20
0.295
 30
0.0
  0
SEQEND
  5
720
  8
GG1
 62
     1
  0
POLYLINE
  5
193
  8
GG1
 62
     1
 66
     1
 10
0.0
 20
0.0
 30
0.0
  0
VERTEX
  5
721
  8
GG1
 62
     1
 10
0.4400000000000001
 20
0.2875
 30
0.0
  0
VERTEX
  5
722
  8
GG1
 62
     1
 10
0.4400000000000001
 20
0.3025
 30
0.0
  0
SEQEND
  5
723
  8
GG1
 62
     1
  0
POLYLINE
  5
197
  8
GG1
 62
     1
 66
     1
 10
0.0
 20
0.0
 30
0.0
  0
VERTEX
  5
724
  8
GG1
 62
     1
 10
0.6525
 20
0.275
 30
0.0
  0
VERTEX
  5
725
  8
GG1
 62
     1
 10
0.6675
 20
0.275
 30
0.0
  0
SEQEND
  5
726
  8
GG1
 62
     1
  0
POLYLINE
  5
19B
  8
GG1
 62
     1
 66
     1
 10
0.0
 20
0.0
 30
0.0
  0
VERTEX
  5
727
  8
GG1
 62
     1
 10
0.6600000000000001
 20
0.2675
 30
0.0
  0
VERTEX
  5
728
  8
GG1
 62
     1
 10
0.6600000000000001
 20
0.2825
 30
0.0
  0
SEQEND
  5
729
  8
GG1
 62
     1
  0
POLYLINE
  5
19F
  8
GG1
 62
     1
 66
     1
 10
0.0
 20
0.0
 30
0.0
  0
VERTEX
  5
72A
  8
GG1
 62
     1
 10
0.3862
 20
0.4313000000000001
 30
0.0
  0
VERTEX
  5
72B
  8
GG1
 62
     1
 10
0.4012000000000001
 20
0.4313000000000001
 30
0.0
  0
SEQEND
  5
72C
  8
GG1
 62
     1
  0
POLYLINE
  5
1A3
  8
GG1
 62
     1
 66
     1
 10
0.0
 20
0.0
 30
0.0
  0
VERTEX
  5
72D
  8
GG1
 62
     1
 10
0.3937
 20
0.4238000000000001
 30
0.0
  0
VERTEX
  5
72E
  8
GG1
 62
     1
 10
0.3937
 20
0.4388
 30
0.0
  0
SEQEND
  5
72F
  8
GG1
 62
     1
  0
POLYLINE
  5
1A7
  8
GG1
 62
     1
 66
     1
 10
0.0
 20
0.0
 30
0.0
  0
VERTEX
  5
730
  8
GG1
 62
     1
 10
0.3862
 20
0.4687000000000001
 30
0.0
  0
VERTEX
  5
731
  8
GG1
 62
     1
 10
0.4012000000000001
 20
0.4687000000000001
 30
0.0
  0
SEQEND
  5
732
  8
GG1
 62
     1
  0
POLYLINE
  5
1AB
  8
GG1
 62
     1
 66
     1
 10
0.0
 20
0.0
 30
0.0
  0
VERTEX
  5
733
  8
GG1
 62
     1
 10
0.3937
 20
0.4612
 30
0.0
  0
VERTEX
  5
734
  8
GG1
 62
     1
 10
0.3937
 20
0.4762000000000001
 30
0.0
  0
SEQEND
  5
735
  8
GG1
 62
     1
  0
POLYLINE
  5
1AF
  8
GG1
 62
     1
 66
     1
 10
0.0
 20
0.0
 30
0.0
  0
VERTEX
  5
736
  8
GG1
 62
     1
 10
0.1725
 20
0.5450000000000002
 30
0.0
  0
VERTEX
  5
737
  8
GG1
 62
     1
 10
0.1875
 20
0.5450000000000002
 30
0.0
  0
SEQEND
  5
738
  8
GG1
 62
     1
  0
POLYLINE
  5
1B3
  8
GG1
 62
     1
 66
     1
 10
0.0
 20
0.0
 30
0.0
  0
VERTEX
  5
739
  8
GG1
 62
     1
 10
0.18
 20
0.5375
 30
0.0
  0
VERTEX
  5
73A
  8
GG1
 62
     1
 10
0.18
 20
0.5525000000000001
 30
0.0
  0
SEQEND
  5
73B
  8
GG1
 62
     1
  0
POLYLINE
  5
1B7
  8
GG1
 62
     1
 66
     1
 10
0.0
 20
0.0
 30
0.0
  0
VERTEX
  5
73C
  8
GG1
 62
     1
 10
0.2075
 20
0.5450000000000002
 30
0.0
  0
VERTEX
  5
73D
  8
GG1
 62
     1
 10
0.2225
 20
0.5450000000000002
 30
0.0
  0
SEQEND
  5
73E
  8
GG1
 62
     1
  0
POLYLINE
  5
1BB
  8
GG1
 62
     1
 66
     1
 10
0.0
 20
0.0
 30
0.0
  0
VERTEX
  5
73F
  8
GG1
 62
     1
 10
0.215
 20
0.5375
 30
0.0
  0
VERTEX
  5
740
  8
GG1
 62
     1
 10
0.215
 20
0.5525000000000001
 30
0.0
  0
SEQEND
  5
741
  8
GG1
 62
     1
  0
POLYLINE
  5
1BF
  8
GG1
 62
     1
 66
     1
 10
0.0
 20
0.0
 30
0.0
  0
VERTEX
  5
742
  8
GG1
 62
     1
 10
0.4675000000000001
 20
0.295
 30
0.0
  0
VERTEX
  5
743
  8
GG1
 62
     1
 10
0.4825000000000001
 20
0.295
 30
0.0
  0
SEQEND
  5
744
  8
GG1
 62
     1
  0
POLYLINE
  5
1C3
  8
GG1
 62
     1
 66
     1
 10
0.0
 20
0.0
 30
0.0
  0
VERTEX
  5
745
  8
GG1
 62
     1
 10
0.475
 20
0.2875
 30
0.0
  0
VERTEX
  5
746
  8
GG1
 62
     1
 10
0.475
 20
0.3025
 30
0.0
  0
SEQEND
  5
747
  8
GG1
 62
     1
  0
POLYLINE
  5
1C7
  8
GG1
 62
     1
 66
     1
 10
0.0
 20
0.0
 30
0.0
  0
VERTEX
  5
748
  8
GG1
 62
     1
 10
0.4575000000000001
 20
0.4
 30
0.0
  0
VERTEX
  5
749
  8
GG1
 62
     1
 10
0.4725
 20
0.4
 30
0.0
  0
SEQEND
  5
74A
  8
GG1
 62
     1
  0
POLYLINE
  5
1CB
  8
GG1
 62
     1
 66
     1
 10
0.0
 20
0.0
 30
0.0
  0
VERTEX
  5
74B
  8
GG1
 62
     1
 10
0.4650000000000001
 20
0.3925
 30
0.0
  0
VERTEX
  5
74C
  8
GG1
 62
     1
 10
0.4650000000000001
 20
0.4075
 30
0.0
  0
SEQEND
  5
74D
  8
GG1
 62
     1
  0
POLYLINE
  5
1CF
  8
GG1
 62
     1
 66
     1
 10
0.0
 20
0.0
 30
0.0
  0
VERTEX
  5
74E
  8
GG1
 62
     1
 10
0.4375
 20
0.33
 30
0.0
  0
VERTEX
  5
74F
  8
GG1
 62
     1
 10
0.4525000000000001
 20
0.33
 30
0.0
  0
SEQEND
  5
750
  8
GG1
 62
     1
  0
POLYLINE
  5
1D3
  8
GG1
 62
     1
 66
     1
 10
0.0
 20
0.0
 30
0.0
  0
VERTEX
  5
751
  8
GG1
 62
     1
 10
0.4450000000000001
 20
0.3225
 30
0.0
  0
VERTEX
  5
752
  8
GG1
 62
     1
 10
0.4450000000000001
 20
0.3375
 30
0.0
  0
SEQEND
  5
753
  8
GG1
 62
     1
  0
POLYLINE
  5
1D7
  8
GG1
 62
     1
 66
     1
 10
0.0
 20
0.0
 30
0.0
  0
VERTEX
  5
754
  8
GG1
 62
     1
 10
0.4375
 20
0.755
 30
0.0
  0
VERTEX
  5
755
  8
GG1
 62
     1
 10
0.4525000000000001
 20
0.755
 30
0.0
  0
SEQEND
  5
756
  8
GG1
 62
     1
  0
POLYLINE
  5
1DB
  8
GG1
 62
     1
 66
     1
 10
0.0
 20
0.0
 30
0.0
  0
VERTEX
  5
757
  8
GG1
 62
     1
 10
0.4450000000000001
 20
0.7475000000000001
 30
0.0
  0
VERTEX
  5
758
  8
GG1
 62
     1
 10
0.4450000000000001
 20
0.7625
 30
0.0
  0
SEQEND
  5
759
  8
GG1
 62
     1
  0
POLYLINE
  5
1DF
  8
GG1
 62
     1
 66
     1
 10
0.0
 20
0.0
 30
0.0
  0
VERTEX
  5
75A
  8
GG1
 62
     1
 10
0.0625
 20
0.455
 30
0.0
  0
VERTEX
  5
75B
  8
GG1
 62
     1
 10
0.0775
 20
0.455
 30
0.0
  0
SEQEND
  5
75C
  8
GG1
 62
     1
  0
POLYLINE
  5
1E3
  8
GG1
 62
     1
 66
     1
 10
0.0
 20
0.0
 30
0.0
  0
VERTEX
  5
75D
  8
GG1
 62
     1
 10
0.07
 20
0.4475
 30
0.0
  0
VERTEX
  5
75E
  8
GG1
 62
     1
 10
0.07
 20
0.4625
 30
0.0
  0
SEQEND
  5
75F
  8
GG1
 62
     1
  0
POLYLINE
  5
1E7
  8
GG1
 62
     1
 66
     1
 10
0.0
 20
0.0
 30
0.0
  0
VERTEX
  5
760
  8
GG1
 62
     1
 10
0.3325
 20
0.71
 30
0.0
  0
VERTEX
  5
761
  8
GG1
 62
     1
 10
0.3475
 20
0.71
 30
0.0
  0
SEQEND
  5
762
  8
GG1
 62
     1
  0
POLYLINE
  5
1EB
  8
GG1
 62
     1
 66
     1
 10
0.0
 20
0.0
 30
0.0
  0
VERTEX
  5
763
  8
GG1
 62
     1
 10
0.34
 20
0.7025000000000001
 30
0.0
  0
VERTEX
  5
764
  8
GG1
 62
     1
 10
0.34
 20
0.7175000000000001
 30
0.0
  0
SEQEND
  5
765
  8
GG1
 62
     1
  0
POLYLINE
  5
1EF
  8
GG1
 62
     1
 66
     1
 10
0.0
 20
0.0
 30
0.0
  0
VERTEX
  5
766
  8
GG1
 62
     1
 10
0.3975
 20
0.325
 30
0.0
  0
VERTEX
  5
767
  8
GG1
 62
     1
 10
0.4125
 20
0.325
 30
0.0
  0
SEQEND
  5
768
  8
GG1
 62
     1
  0
POLYLINE
  5
1F3
  8
GG1
 62
     1
 66
     1
 10
0.0
 20
0.0
 30
0.0
  0
VERTEX
  5
769
  8
GG1
 62
     1
 10
0.4050000000000001
 20
0.3175
 30
0.0
  0
VERTEX
  5
76A
  8
GG1
 62
     1
 10
0.4050000000000001
 20
0.3325
 30
0.0
  0
SEQEND
  5
76B
  8
GG1
 62
     1
  0
POLYLINE
  5
1F7
  8
GG1
 62
     1
 66
     1
 10
0.0
 20
0.0
 30
0.0
  0
VERTEX
  5
76C
  8
GG1
 62
     1
 10
0.3375
 20
0.325
 30
0.0
  0
VERTEX
  5
76D
  8
GG1
 62
     1
 10
0.3525
 20
0.325
 30
0.0
  0
SEQEND
  5
76E
  8
GG1
 62
     1
  0
POLYLINE
  5
1FB
  8
GG1
 62
     1
 66
     1
 10
0.0
 20
0.0
 30
0.0
  0
VERTEX
  5
76F
  8
GG1
 62
     1
 10
0.345
 20
0.3175
 30
0.0
  0
VERTEX
  5
770
  8
GG1
 62
     1
 10
0.345
 20
0.3325
 30
0.0
  0
SEQEND
  5
771
  8
GG1
 62
     1
  0
POLYLINE
  5
1FF
  8
GG1
 62
     1
 66
     1
 10
0.0
 20
0.0
 30
0.0
  0
VERTEX
  5
772
  8
GG1
 62
     1
 10
0.0325
 20
0.625
 30
0.0
  0
VERTEX
  5
773
  8
GG1
 62
     1
 10
0.0475
 20
0.625
 30
0.0
  0
SEQEND
  5
774
  8
GG1
 62
     1
  0
POLYLINE
  5
203
  8
GG1
 62
     1
 66
     1
 10
0.0
 20
0.0
 30
0.0
  0
VERTEX
  5
775
  8
GG1
 62
     1
 10
0.04
 20
0.6175
 30
0.0
  0
VERTEX
  5
776
  8
GG1
 62
     1
 10
0.04
 20
0.6325
 30
0.0
  0
SEQEND
  5
777
  8
GG1
 62
     1
  0
POLYLINE
  5
207
  8
GG1
 62
     1
 66
     1
 10
0.0
 20
0.0
 30
0.0
  0
VERTEX
  5
778
  8
GG1
 62
     1
 10
0.4725
 20
0.33
 30
0.0
  0
VERTEX
  5
779
  8
GG1
 62
     1
 10
0.4875
 20
0.33
 30
0.0
  0
SEQEND
  5
77A
  8
GG1
 62
     1
  0
POLYLINE
  5
20B
  8
GG1
 62
     1
 66
     1
 10
0.0
 20
0.0
 30
0.0
  0
VERTEX
  5
77B
  8
GG1
 62
     1
 10
0.48
 20
0.3225
 30
0.0
  0
VERTEX
  5
77C
  8
GG1
 62
     1
 10
0.48
 20
0.3375
 30
0.0
  0
SEQEND
  5
77D
  8
GG1
 62
     1
  0
POLYLINE
  5
20F
  8
GG1
 62
     1
 66
     1
 10
0.0
 20
0.0
 30
0.0
  0
VERTEX
  5
77E
  8
GG1
 62
     1
 10
0.6525
 20
0.305
 30
0.0
  0
VERTEX
  5
77F
  8
GG1
 62
     1
 10
0.6675
 20
0.305
 30
0.0
  0
SEQEND
  5
780
  8
GG1
 62
     1
  0
POLYLINE
  5
213
  8
GG1
 62
     1
 66
     1
 10
0.0
 20
0.0
 30
0.0
  0
VERTEX
  5
781
  8
GG1
 62
     1
 10
0.6600000000000001
 20
0.2975
 30
0.0
  0
VERTEX
  5
782
  8
GG1
 62
     1
 10
0.6600000000000001
 20
0.3125
 30
0.0
  0
SEQEND
  5
783
  8
GG1
 62
     1
  0
POLYLINE
  5
217
  8
GG1
 62
     1
 66
     1
 10
0.0
 20
0.0
 30
0.0
  0
VERTEX
  5
784
  8
GG1
 62
     1
 10
0.6475
 20
0.61
 30
0.0
  0
VERTEX
  5
785
  8
GG1
 62
     1
 10
0.6625
 20
0.61
 30
0.0
  0
SEQEND
  5
786
  8
GG1
 62
     1
  0
POLYLINE
  5
21B
  8
GG1
 62
     1
 66
     1
 10
0.0
 20
0.0
 30
0.0
  0
VERTEX
  5
787
  8
GG1
 62
     1
 10
0.6550000000000001
 20
0.6025000000000001
 30
0.0
  0
VERTEX
  5
788
  8
GG1
 62
     1
 10
0.6550000000000001
 20
0.6175
 30
0.0
  0
SEQEND
  5
789
  8
GG1
 62
     1
  0
POLYLINE
  5
21F
  8
GG1
 62
     1
 66
     1
 10
0.0
 20
0.0
 30
0.0
  0
VERTEX
  5
78A
  8
GG1
 62
     1
 10
0.3488
 20
0.4687000000000001
 30
0.0
  0
VERTEX
  5
78B
  8
GG1
 62
     1
 10
0.3638
 20
0.4687000000000001
 30
0.0
  0
SEQEND
  5
78C
  8
GG1
 62
     1
  0
POLYLINE
  5
223
  8
GG1
 62
     1
 66
     1
 10
0.0
 20
0.0
 30
0.0
  0
VERTEX
  5
78D
  8
GG1
 62
     1
 10
0.3563
 20
0.4612
 30
0.0
  0
VERTEX
  5
78E
  8
GG1
 62
     1
 10
0.3563
 20
0.4762000000000001
 30
0.0
  0
SEQEND
  5
78F
  8
GG1
 62
     1
  0
POLYLINE
  5
227
  8
GG1
 62
     1
 66
     1
 10
0.0
 20
0.0
 30
0.0
  0
VERTEX
  5
790
  8
GG1
 62
     1
 10
0.4375
 20
0.365
 30
0.0
  0
VERTEX
  5
791
  8
GG1
 62
     1
 10
0.4525000000000001
 20
0.365
 30
0.0
  0
SEQEND
  5
792
  8
GG1
 62
     1
  0
POLYLINE
  5
22B
  8
GG1
 62
     1
 66
     1
 10
0.0
 20
0.0
 30
0.0
  0
VERTEX
  5
793
  8
GG1
 62
     1
 10
0.4450000000000001
 20
0.3575
 30
0.0
  0
VERTEX
  5
794
  8
GG1
 62
     1
 10
0.4450000000000001
 20
0.3725
 30
0.0
  0
SEQEND
  5
795
  8
GG1
 62
     1
  0
POLYLINE
  5
22F
  8
GG1
 62
     1
 66
     1
 10
0.0
 20
0.0
 30
0.0
  0
VERTEX
  5
796
  8
GG1
 62
     1
 10
0.3488
 20
0.4313000000000001
 30
0.0
  0
VERTEX
  5
797
  8
GG1
 62
     1
 10
0.3638
 20
0.4313000000000001
 30
0.0
  0
SEQEND
  5
798
  8
GG1
 62
     1
  0
POLYLINE
  5
233
  8
GG1
 62
     1
 66
     1
 10
0.0
 20
0.0
 30
0.0
  0
VERTEX
  5
799
  8
GG1
 62
     1
 10
0.3563
 20
0.4238000000000001
 30
0.0
  0
VERTEX
  5
79A
  8
GG1
 62
     1
 10
0.3563
 20
0.4388
 30
0.0
  0
SEQEND
  5
79B
  8
GG1
 62
     1
  0
POLYLINE
  5
237
  8
GG1
 62
     1
 66
     1
 10
0.0
 20
0.0
 30
0.0
  0
VERTEX
  5
79C
  8
GG1
 62
     1
 10
0.2675
 20
0.4200000000000001
 30
0.0
  0
VERTEX
  5
79D
  8
GG1
 62
     1
 10
0.2825
 20
0.4200000000000001
 30
0.0
  0
SEQEND
  5
79E
  8
GG1
 62
     1
  0
POLYLINE
  5
23B
  8
GG1
 62
     1
 66
     1
 10
0.0
 20
0.0
 30
0.0
  0
VERTEX
  5
79F
  8
GG1
 62
     1
 10
0.275
 20
0.4125
 30
0.0
  0
VERTEX
  5
7A0
  8
GG1
 62
     1
 10
0.275
 20
0.4275000000000001
 30
0.0
  0
SEQEND
  5
7A1
  8
GG1
 62
     1
  0
POLYLINE
  5
23F
  8
GG1
 62
     1
 66
     1
 10
0.0
 20
0.0
 30
0.0
  0
VERTEX
  5
7A2
  8
GG1
 62
     1
 10
0.0625
 20
0.249
 30
0.0
  0
VERTEX
  5
7A3
  8
GG1
 62
     1
 10
0.0775
 20
0.249
 30
0.0
  0
SEQEND
  5
7A4
  8
GG1
 62
     1
  0
POLYLINE
  5
243
  8
GG1
 62
     1
 66
     1
 10
0.0
 20
0.0
 30
0.0
  0
VERTEX
  5
7A5
  8
GG1
 62
     1
 10
0.07
 20
0.2415
 30
0.0
  0
VERTEX
  5
7A6
  8
GG1
 62
     1
 10
0.07
 20
0.2565
 30
0.0
  0
SEQEND
  5
7A7
  8
GG1
 62
     1
  0
POLYLINE
  5
247
  8
GG1
 62
     1
 66
     1
 10
0.0
 20
0.0
 30
0.0
  0
VERTEX
  5
7A8
  8
GG1
 62
     1
 10
0.2425
 20
0.4950000000000001
 30
0.0
  0
VERTEX
  5
7A9
  8
GG1
 62
     1
 10
0.2575
 20
0.4950000000000001
 30
0.0
  0
SEQEND
  5
7AA
  8
GG1
 62
     1
  0
POLYLINE
  5
24B
  8
GG1
 62
     1
 66
     1
 10
0.0
 20
0.0
 30
0.0
  0
VERTEX
  5
7AB
  8
GG1
 62
     1
 10
0.25
 20
0.4875
 30
0.0
  0
VERTEX
  5
7AC
  8
GG1
 62
     1
 10
0.25
 20
0.5024999999999999
 30
0.0
  0
SEQEND
  5
7AD
  8
GG1
 62
     1
  0
POLYLINE
  5
24F
  8
GG1
 62
     1
 66
     1
 10
0.0
 20
0.0
 30
0.0
  0
VERTEX
  5
7AE
  8
GG1
 62
     1
 10
0.2575
 20
0.28
 30
0.0
  0
VERTEX
  5
7AF
  8
GG1
 62
     1
 10
0.2725
 20
0.28
 30
0.0
  0
SEQEND
  5
7B0
  8
GG1
 62
     1
  0
POLYLINE
  5
253
  8
GG1
 62
     1
 66
     1
 10
0.0
 20
0.0
 30
0.0
  0
VERTEX
  5
7B1
  8
GG1
 62
     1
 10
0.265
 20
0.2725
 30
0.0
  0
VERTEX
  5
7B2
  8
GG1
 62
     1
 10
0.265
 20
0.2875
 30
0.0
  0
SEQEND
  5
7B3
  8
GG1
 62
     1
  0
POLYLINE
  5
257
  8
GG1
 62
     1
 66
     1
 10
0.0
 20
0.0
 30
0.0
  0
VERTEX
  5
7B4
  8
GG1
 62
     1
 10
0.1525
 20
0.57
 30
0.0
  0
VERTEX
  5
7B5
  8
GG1
 62
     1
 10
0.1675
 20
0.57
 30
0.0
  0
SEQEND
  5
7B6
  8
GG1
 62
     1
  0
POLYLINE
  5
25B
  8
GG1
 62
     1
 66
     1
 10
0.0
 20
0.0
 30
0.0
  0
VERTEX
  5
7B7
  8
GG1
 62
     1
 10
0.16
 20
0.5625
 30
0.0
  0
VERTEX
  5
7B8
  8
GG1
 62
     1
 10
0.16
 20
0.5775000000000001
 30
0.0
  0
SEQEND
  5
7B9
  8
GG1
 62
     1
  0
POLYLINE
  5
25F
  8
GG1
 62
     1
 66
     1
 10
0.0
 20
0.0
 30
0.0
  0
VERTEX
  5
7BA
  8
GG1
 62
     1
 10
0.1925
 20
0.57
 30
0.0
  0
VERTEX
  5
7BB
  8
GG1
 62
     1
 10
0.2075
 20
0.57
 30
0.0
  0
SEQEND
  5
7BC
  8
GG1
 62
     1
  0
POLYLINE
  5
263
  8
GG1
 62
     1
 66
     1
 10
0.0
 20
0.0
 30
0.0
  0
VERTEX
  5
7BD
  8
GG1
 62
     1
 10
0.2
 20
0.5625
 30
0.0
  0
VERTEX
  5
7BE
  8
GG1
 62
     1
 10
0.2
 20
0.5775000000000001
 30
0.0
  0
SEQEND
  5
7BF
  8
GG1
 62
     1
  0
POLYLINE
  5
267
  8
GG1
 62
     1
 66
     1
 10
0.0
 20
0.0
 30
0.0
  0
VERTEX
  5
7C0
  8
GG1
 62
     1
 10
0.4725
 20
0.43
 30
0.0
  0
VERTEX
  5
7C1
  8
GG1
 62
     1
 10
0.4875
 20
0.43
 30
0.0
  0
SEQEND
  5
7C2
  8
GG1
 62
     1
  0
POLYLINE
  5
26B
  8
GG1
 62
     1
 66
     1
 10
0.0
 20
0.0
 30
0.0
  0
VERTEX
  5
7C3
  8
GG1
 62
     1
 10
0.48
 20
0.4225
 30
0.0
  0
VERTEX
  5
7C4
  8
GG1
 62
     1
 10
0.48
 20
0.4375
 30
0.0
  0
SEQEND
  5
7C5
  8
GG1
 62
     1
  0
POLYLINE
  5
26F
  8
GG1
 62
     1
 66
     1
 10
0.0
 20
0.0
 30
0.0
  0
VERTEX
  5
7C6
  8
GG1
 62
     1
 10
0.6025000000000001
 20
0.213
 30
0.0
  0
VERTEX
  5
7C7
  8
GG1
 62
     1
 10
0.6175
 20
0.213
 30
0.0
  0
SEQEND
  5
7C8
  8
GG1
 62
     1
  0
POLYLINE
  5
273
  8
GG1
 62
     1
 66
     1
 10
0.0
 20
0.0
 30
0.0
  0
VERTEX
  5
7C9
  8
GG1
 62
     1
 10
0.61
 20
0.2055
 30
0.0
  0
VERTEX
  5
7CA
  8
GG1
 62
     1
 10
0.61
 20
0.2205
 30
0.0
  0
SEQEND
  5
7CB
  8
GG1
 62
     1
  0
POLYLINE
  5
277
  8
GG1
 62
     1
 66
     1
 10
0.0
 20
0.0
 30
0.0
  0
VERTEX
  5
7CC
  8
GG1
 62
     1
 10
0.6195000000000001
 20
0.369
 30
0.0
  0
VERTEX
  5
7CD
  8
GG1
 62
     1
 10
0.6345
 20
0.369
 30
0.0
  0
SEQEND
  5
7CE
  8
GG1
 62
     1
  0
POLYLINE
  5
27B
  8
GG1
 62
     1
 66
     1
 10
0.0
 20
0.0
 30
0.0
  0
VERTEX
  5
7CF
  8
GG1
 62
     1
 10
0.627
 20
0.3615
 30
0.0
  0
VERTEX
  5
7D0
  8
GG1
 62
     1
 10
0.627
 20
0.3765
 30
0.0
  0
SEQEND
  5
7D1
  8
GG1
 62
     1
  0
POLYLINE
  5
27F
  8
GG1
 62
     1
 66
     1
 10
0.0
 20
0.0
 30
0.0
  0
VERTEX
  5
7D2
  8
GG1
 62
     1
 10
0.0325
 20
0.47
 30
0.0
  0
VERTEX
  5
7D3
  8
GG1
 62
     1
 10
0.0475
 20
0.47
 30
0.0
  0
SEQEND
  5
7D4
  8
GG1
 62
     1
  0
POLYLINE
  5
283
  8
GG1
 62
     1
 66
     1
 10
0.0
 20
0.0
 30
0.0
  0
VERTEX
  5
7D5
  8
GG1
 62
     1
 10
0.04
 20
0.4625
 30
0.0
  0
VERTEX
  5
7D6
  8
GG1
 62
     1
 10
0.04
 20
0.4775
 30
0.0
  0
SEQEND
  5
7D7
  8
GG1
 62
     1
  0
POLYLINE
  5
287
  8
GG1
 62
     1
 66
     1
 10
0.0
 20
0.0
 30
0.0
  0
VERTEX
  5
7D8
  8
GG1
 62
     1
 10
0.2575
 20
0.25
 30
0.0
  0
VERTEX
  5
7D9
  8
GG1
 62
     1
 10
0.2725
 20
0.25
 30
0.0
  0
SEQEND
  5
7DA
  8
GG1
 62
     1
  0
POLYLINE
  5
28B
  8
GG1
 62
     1
 66
     1
 10
0.0
 20
0.0
 30
0.0
  0
VERTEX
  5
7DB
  8
GG1
 62
     1
 10
0.265
 20
0.2425
 30
0.0
  0
VERTEX
  5
7DC
  8
GG1
 62
     1
 10
0.265
 20
0.2575
 30
0.0
  0
SEQEND
  5
7DD
  8
GG1
 62
     1
  0
POLYLINE
  5
28F
  8
GG1
 62
     1
 66
     1
 10
0.0
 20
0.0
 30
0.0
  0
VERTEX
  5
7DE
  8
GG1
 62
     1
 10
0.0925
 20
0.38
 30
0.0
  0
VERTEX
  5
7DF
  8
GG1
 62
     1
 10
0.1075
 20
0.38
 30
0.0
  0
SEQEND
  5
7E0
  8
GG1
 62
     1
  0
POLYLINE
  5
293
  8
GG1
 62
     1
 66
     1
 10
0.0
 20
0.0
 30
0.0
  0
VERTEX
  5
7E1
  8
GG1
 62
     1
 10
0.1
 20
0.3725
 30
0.0
  0
VERTEX
  5
7E2
  8
GG1
 62
     1
 10
0.1
 20
0.3875
 30
0.0
  0
SEQEND
  5
7E3
  8
GG1
 62
     1
  0
POLYLINE
  5
297
  8
GG1
 62
     1
 66
     1
 10
0.0
 20
0.0
 30
0.0
  0
VERTEX
  5
7E4
  8
GG1
 62
     1
 10
0.0575
 20
0.5
 30
0.0
  0
VERTEX
  5
7E5
  8
GG1
 62
     1
 10
0.0725
 20
0.5
 30
0.0
  0
SEQEND
  5
7E6
  8
GG1
 62
     1
  0
POLYLINE
  5
29B
  8
GG1
 62
     1
 66
     1
 10
0.0
 20
0.0
 30
0.0
  0
VERTEX
  5
7E7
  8
GG1
 62
     1
 10
0.065
 20
0.4925
 30
0.0
  0
VERTEX
  5
7E8
  8
GG1
 62
     1
 10
0.065
 20
0.5075
 30
0.0
  0
SEQEND
  5
7E9
  8
GG1
 62
     1
  0
POLYLINE
  5
29F
  8
GG1
 62
     1
 66
     1
 10
0.0
 20
0.0
 30
0.0
  0
VERTEX
  5
7EA
  8
GG1
 62
     1
 10
0.0325
 20
0.58
 30
0.0
  0
VERTEX
  5
7EB
  8
GG1
 62
     1
 10
0.0475
 20
0.58
 30
0.0
  0
SEQEND
  5
7EC
  8
GG1
 62
     1
  0
POLYLINE
  5
2A3
  8
GG1
 62
     1
 66
     1
 10
0.0
 20
0.0
 30
0.0
  0
VERTEX
  5
7ED
  8
GG1
 62
     1
 10
0.04
 20
0.5725
 30
0.0
  0
VERTEX
  5
7EE
  8
GG1
 62
     1
 10
0.04
 20
0.5875
 30
0.0
  0
SEQEND
  5
7EF
  8
GG1
 62
     1
  0
POLYLINE
  5
2A7
  8
GG1
 62
     1
 66
     1
 10
0.0
 20
0.0
 30
0.0
  0
VERTEX
  5
7F0
  8
GG1
 62
     1
 10
0.0325
 20
0.6700000000000002
 30
0.0
  0
VERTEX
  5
7F1
  8
GG1
 62
     1
 10
0.0475
 20
0.6700000000000002
 30
0.0
  0
SEQEND
  5
7F2
  8
GG1
 62
     1
  0
POLYLINE
  5
2AB
  8
GG1
 62
     1
 66
     1
 10
0.0
 20
0.0
 30
0.0
  0
VERTEX
  5
7F3
  8
GG1
 62
     1
 10
0.04
 20
0.6625
 30
0.0
  0
VERTEX
  5
7F4
  8
GG1
 62
     1
 10
0.04
 20
0.6775000000000001
 30
0.0
  0
SEQEND
  5
7F5
  8
GG1
 62
     1
  0
POLYLINE
  5
2AF
  8
GG1
 62
     1
 66
     1
 10
0.0
 20
0.0
 30
0.0
  0
VERTEX
  5
7F6
  8
GG1
 62
     1
 10
0.0325
 20
0.76
 30
0.0
  0
VERTEX
  5
7F7
  8
GG1
 62
     1
 10
0.0475
 20
0.76
 30
0.0
  0
SEQEND
  5
7F8
  8
GG1
 62
     1
  0
POLYLINE
  5
2B3
  8
GG1
 62
     1
 66
     1
 10
0.0
 20
0.0
 30
0.0
  0
VERTEX
  5
7F9
  8
GG1
 62
     1
 10
0.04
 20
0.7524999999999999
 30
0.0
  0
VERTEX
  5
7FA
  8
GG1
 62
     1
 10
0.04
 20
0.7675
 30
0.0
  0
SEQEND
  5
7FB
  8
GG1
 62
     1
  0
POLYLINE
  5
2B7
  8
GG1
 62
     1
 66
     1
 10
0.0
 20
0.0
 30
0.0
  0
VERTEX
  5
7FC
  8
GG1
 62
     1
 10
0.0325
 20
0.715
 30
0.0
  0
VERTEX
  5
7FD
  8
GG1
 62
     1
 10
0.0475
 20
0.715
 30
0.0
  0
SEQEND
  5
7FE
  8
GG1
 62
     1
  0
POLYLINE
  5
2BB
  8
GG1
 62
     1
 66
     1
 10
0.0
 20
0.0
 30
0.0
  0
VERTEX
  5
7FF
  8
GG1
 62
     1
 10
0.04
 20
0.7075000000000001
 30
0.0
  0
VERTEX
  5
800
  8
GG1
 62
     1
 10
0.04
 20
0.7225000000000001
 30
0.0
  0
SEQEND
  5
801
  8
GG1
 62
     1
  0
POLYLINE
  5
2BF
  8
GG1
 62
     1
 66
     1
 10
0.0
 20
0.0
 30
0.0
  0
VERTEX
  5
802
  8
GG1
 62
     1
 10
0.2675
 20
0.31
 30
0.0
  0
VERTEX
  5
803
  8
GG1
 62
     1
 10
0.2825
 20
0.31
 30
0.0
  0
SEQEND
  5
804
  8
GG1
 62
     1
  0
POLYLINE
  5
2C3
  8
GG1
 62
     1
 66
     1
 10
0.0
 20
0.0
 30
0.0
  0
VERTEX
  5
805
  8
GG1
 62
     1
 10
0.275
 20
0.3025
 30
0.0
  0
VERTEX
  5
806
  8
GG1
 62
     1
 10
0.275
 20
0.3175
 30
0.0
  0
SEQEND
  5
807
  8
GG1
 62
     1
  0
POLYLINE
  5
2C7
  8
GG1
 62
     1
 66
     1
 10
0.0
 20
0.0
 30
0.0
  0
VERTEX
  5
808
  8
GG1
 62
     1
 10
0.3875
 20
0.755
 30
0.0
  0
VERTEX
  5
809
  8
GG1
 62
     1
 10
0.4025000000000001
 20
0.755
 30
0.0
  0
SEQEND
  5
80A
  8
GG1
 62
     1
  0
POLYLINE
  5
2CB
  8
GG1
 62
     1
 66
     1
 10
0.0
 20
0.0
 30
0.0
  0
VERTEX
  5
80B
  8
GG1
 62
     1
 10
0.395
 20
0.7475000000000001
 30
0.0
  0
VERTEX
  5
80C
  8
GG1
 62
     1
 10
0.395
 20
0.7625
 30
0.0
  0
SEQEND
  5
80D
  8
GG1
 62
     1
  0
POLYLINE
  5
2CF
  8
GG1
 62
     1
 66
     1
 10
0.0
 20
0.0
 30
0.0
  0
VERTEX
  5
80E
  8
GG1
 62
     1
 10
0.3425
 20
0.755
 30
0.0
  0
VERTEX
  5
80F
  8
GG1
 62
     1
 10
0.3575
 20
0.755
 30
0.0
  0
SEQEND
  5
810
  8
GG1
 62
     1
  0
POLYLINE
  5
2D3
  8
GG1
 62
     1
 66
     1
 10
0.0
 20
0.0
 30
0.0
  0
VERTEX
  5
811
  8
GG1
 62
     1
 10
0.35
 20
0.7475000000000001
 30
0.0
  0
VERTEX
  5
812
  8
GG1
 62
     1
 10
0.35
 20
0.7625
 30
0.0
  0
SEQEND
  5
813
  8
GG1
 62
     1
  0
POLYLINE
  5
2D7
  8
GG1
 62
     1
 66
     1
 10
0.0
 20
0.0
 30
0.0
  0
VERTEX
  5
814
  8
GG1
 62
     1
 10
0.4175
 20
0.725
 30
0.0
  0
VERTEX
  5
815
  8
GG1
 62
     1
 10
0.4325000000000001
 20
0.725
 30
0.0
  0
SEQEND
  5
816
  8
GG1
 62
     1
  0
POLYLINE
  5
2DB
  8
GG1
 62
     1
 66
     1
 10
0.0
 20
0.0
 30
0.0
  0
VERTEX
  5
817
  8
GG1
 62
     1
 10
0.425
 20
0.7175000000000001
 30
0.0
  0
VERTEX
  5
818
  8
GG1
 62
     1
 10
0.425
 20
0.7325000000000002
 30
0.0
  0
SEQEND
  5
819
  8
GG1
 62
     1
  0
POLYLINE
  5
2DF
  8
GG1
 62
     1
 66
     1
 10
0.0
 20
0.0
 30
0.0
  0
VERTEX
  5
81A
  8
GG1
 62
     1
 10
0.1225
 20
0.325
 30
0.0
  0
VERTEX
  5
81B
  8
GG1
 62
     1
 10
0.1375
 20
0.325
 30
0.0
  0
SEQEND
  5
81C
  8
GG1
 62
     1
  0
POLYLINE
  5
2E3
  8
GG1
 62
     1
 66
     1
 10
0.0
 20
0.0
 30
0.0
  0
VERTEX
  5
81D
  8
GG1
 62
     1
 10
0.13
 20
0.3175
 30
0.0
  0
VERTEX
  5
81E
  8
GG1
 62
     1
 10
0.13
 20
0.3325
 30
0.0
  0
SEQEND
  5
81F
  8
GG1
 62
     1
  0
POLYLINE
  5
2E7
  8
GG1
 62
     1
 66
     1
 10
0.0
 20
0.0
 30
0.0
  0
VERTEX
  5
820
  8
GG1
 62
     1
 10
0.1025
 20
0.195
 30
0.0
  0
VERTEX
  5
821
  8
GG1
 62
     1
 10
0.1175
 20
0.195
 30
0.0
  0
SEQEND
  5
822
  8
GG1
 62
     1
  0
POLYLINE
  5
2EB
  8
GG1
 62
     1
 66
     1
 10
0.0
 20
0.0
 30
0.0
  0
VERTEX
  5
823
  8
GG1
 62
     1
 10
0.11
 20
0.1875
 30
0.0
  0
VERTEX
  5
824
  8
GG1
 62
     1
 10
0.11
 20
0.2025
 30
0.0
  0
SEQEND
  5
825
  8
GG1
 62
     1
  0
POLYLINE
  5
2EF
  8
GG1
 62
     1
 66
     1
 10
0.0
 20
0.0
 30
0.0
  0
VERTEX
  5
826
  8
GG1
 62
     1
 10
0.1025
 20
0.225
 30
0.0
  0
VERTEX
  5
827
  8
GG1
 62
     1
 10
0.1175
 20
0.225
 30
0.0
  0
SEQEND
  5
828
  8
GG1
 62
     1
  0
POLYLINE
  5
2F3
  8
GG1
 62
     1
 66
     1
 10
0.0
 20
0.0
 30
0.0
  0
VERTEX
  5
829
  8
GG1
 62
     1
 10
0.11
 20
0.2175
 30
0.0
  0
VERTEX
  5
82A
  8
GG1
 62
     1
 10
0.11
 20
0.2325
 30
0.0
  0
SEQEND
  5
82B
  8
GG1
 62
     1
  0
POLYLINE
  5
2F7
  8
GG1
 62
     1
 66
     1
 10
0.0
 20
0.0
 30
0.0
  0
VERTEX
  5
82C
  8
GG1
 62
     1
 10
-0.164
 20
0.229
 30
0.0
  0
VERTEX
  5
82D
  8
GG1
 62
     1
 10
-0.174
 20
0.239
 30
0.0
  0
VERTEX
  5
82E
  8
GG1
 62
     1
 10
-0.174
 20
0.259
 30
0.0
  0
VERTEX
  5
82F
  8
GG1
 62
     1
 10
-0.164
 20
0.269
 30
0.0
  0
VERTEX
  5
830
  8
GG1
 62
     1
 10
-0.154
 20
0.269
 30
0.0
  0
VERTEX
  5
831
  8
GG1
 62
     1
 10
-0.144
 20
0.259
 30
0.0
  0
VERTEX
  5
832
  8
GG1
 62
     1
 10
-0.134
 20
0.269
 30
0.0
  0
VERTEX
  5
833
  8
GG1
 62
     1
 10
-0.124
 20
0.269
 30
0.0
  0
VERTEX
  5
834
  8
GG1
 62
     1
 10
-0.114
 20
0.259
 30
0.0
  0
VERTEX
  5
835
  8
GG1
 62
     1
 10
-0.114
 20
0.239
 30
0.0
  0
VERTEX
  5
836
  8
GG1
 62
     1
 10
-0.124
 20
0.229
 30
0.0
  0
VERTEX
  5
837
  8
GG1
 62
     1
 10
-0.134
 20
0.229
 30
0.0
  0
VERTEX
  5
838
  8
GG1
 62
     1
 10
-0.144
 20
0.239
 30
0.0
  0
VERTEX
  5
839
  8
GG1
 62
     1
 10
-0.154
 20
0.229
 30
0.0
  0
VERTEX
  5
83A
  8
GG1
 62
     1
 10
-0.164
 20
0.229
 30
0.0
  0
SEQEND
  5
83B
  8
GG1
 62
     1
  0
POLYLINE
  5
308
  8
GG1
 62
     1
 66
     1
 10
0.0
 20
0.0
 30
0.0
  0
VERTEX
  5
83C
  8
GG1
 62
     1
 10
-0.144
 20
0.239
 30
0.0
  0
VERTEX
  5
83D
  8
GG1
 62
     1
 10
-0.144
 20
0.259
 30
0.0
  0
SEQEND
  5
83E
  8
GG1
 62
     1
  0
POLYLINE
  5
30C
  8
GG1
 62
     1
 66
     1
 10
0.0
 20
0.0
 30
0.0
  0
VERTEX
  5
83F
  8
GG1
 62
     1
 10
-0.164
 20
0.289
 30
0.0
  0
VERTEX
  5
840
  8
GG1
 62
     1
 10
-0.174
 20
0.299
 30
0.0
  0
VERTEX
  5
841
  8
GG1
 62
     1
 10
-0.174
 20
0.319
 30
0.0
  0
VERTEX
  5
842
  8
GG1
 62
     1
 10
-0.164
 20
0.329
 30
0.0
  0
VERTEX
  5
843
  8
GG1
 62
     1
 10
-0.124
 20
0.329
 30
0.0
  0
VERTEX
  5
844
  8
GG1
 62
     1
 10
-0.114
 20
0.319
 30
0.0
  0
VERTEX
  5
845
  8
GG1
 62
     1
 10
-0.114
 20
0.299
 30
0.0
  0
VERTEX
  5
846
  8
GG1
 62
     1
 10
-0.124
 20
0.289
 30
0.0
  0
VERTEX
  5
847
  8
GG1
 62
     1
 10
-0.164
 20
0.289
 30
0.0
  0
SEQEND
  5
848
  8
GG1
 62
     1
  0
POLYLINE
  5
317
  8
GG1
 62
     1
 66
     1
 10
0.0
 20
0.0
 30
0.0
  0
VERTEX
  5
849
  8
GG1
 62
     1
 10
-0.164
 20
0.349
 30
0.0
  0
VERTEX
  5
84A
  8
GG1
 62
     1
 10
-0.174
 20
0.359
 30
0.0
  0
VERTEX
  5
84B
  8
GG1
 62
     1
 10
-0.174
 20
0.379
 30
0.0
  0
VERTEX
  5
84C
  8
GG1
 62
     1
 10
-0.164
 20
0.389
 30
0.0
  0
VERTEX
  5
84D
  8
GG1
 62
     1
 10
-0.124
 20
0.389
 30
0.0
  0
VERTEX
  5
84E
  8
GG1
 62
     1
 10
-0.114
 20
0.379
 30
0.0
  0
VERTEX
  5
84F
  8
GG1
 62
     1
 10
-0.114
 20
0.359
 30
0.0
  0
VERTEX
  5
850
  8
GG1
 62
     1
 10
-0.124
 20
0.349
 30
0.0
  0
VERTEX
  5
851
  8
GG1
 62
     1
 10
-0.164
 20
0.349
 30
0.0
  0
SEQEND
  5
852
  8
GG1
 62
     1
  0
POLYLINE
  5
322
  8
GG1
 62
     1
 66
     1
 10
0.0
 20
0.0
 30
0.0
  0
VERTEX
  5
853
  8
GG1
 62
     1
 10
-0.114
 20
0.409
 30
0.0
  0
VERTEX
  5
854
  8
GG1
 62
     1
 10
-0.154
 20
0.409
 30
0.0
  0
VERTEX
  5
855
  8
GG1
 62
     1
 10
-0.154
 20
0.419
 30
0.0
  0
VERTEX
  5
856
  8
GG1
 62
     1
 10
-0.144
 20
0.429
 30
0.0
  0
VERTEX
  5
857
  8
GG1
 62
     1
 10
-0.114
 20
0.429
 30
0.0
  0
VERTEX
  5
858
  8
GG1
 62
     1
 10
-0.144
 20
0.429
 30
0.0
  0
VERTEX
  5
859
  8
GG1
 62
     1
 10
-0.154
 20
0.439
 30
0.0
  0
VERTEX
  5
85A
  8
GG1
 62
     1
 10
-0.144
 20
0.4490000000000001
 30
0.0
  0
VERTEX
  5
85B
  8
GG1
 62
     1
 10
-0.114
 20
0.4490000000000001
 30
0.0
  0
SEQEND
  5
85C
  8
GG1
 62
     1
  0
POLYLINE
  5
32D
  8
GG1
 62
     1
 66
     1
 10
0.0
 20
0.0
 30
0.0
  0
VERTEX
  5
85D
  8
GG1
 62
     1
 10
-0.114
 20
0.469
 30
0.0
  0
VERTEX
  5
85E
  8
GG1
 62
     1
 10
-0.114
 20
0.489
 30
0.0
  0
VERTEX
  5
85F
  8
GG1
 62
     1
 10
-0.114
 20
0.479
 30
0.0
  0
VERTEX
  5
860
  8
GG1
 62
     1
 10
-0.154
 20
0.479
 30
0.0
  0
VERTEX
  5
861
  8
GG1
 62
     1
 10
-0.154
 20
0.469
 30
0.0
  0
SEQEND
  5
862
  8
GG1
 62
     1
  0
POLYLINE
  5
334
  8
GG1
 62
     1
 66
     1
 10
0.0
 20
0.0
 30
0.0
  0
VERTEX
  5
863
  8
GG1
 62
     1
 10
-0.114
 20
0.5190000000000001
 30
0.0
  0
VERTEX
  5
864
  8
GG1
 62
     1
 10
-0.114
 20
0.5390000000000001
 30
0.0
  0
VERTEX
  5
865
  8
GG1
 62
     1
 10
-0.114
 20
0.529
 30
0.0
  0
VERTEX
  5
866
  8
GG1
 62
     1
 10
-0.174
 20
0.529
 30
0.0
  0
VERTEX
  5
867
  8
GG1
 62
     1
 10
-0.174
 20
0.5190000000000001
 30
0.0
  0
SEQEND
  5
868
  8
GG1
 62
     1
  0
POLYLINE
  5
33B
  8
GG1
 62
     1
 66
     1
 10
0.0
 20
0.0
 30
0.0
  0
VERTEX
  5
869
  8
GG1
 62
     1
 10
0.179
 20
-0.366
 30
0.0
  0
VERTEX
  5
86A
  8
GG1
 62
     1
 10
0.219
 20
-0.366
 30
0.0
  0
VERTEX
  5
86B
  8
GG1
 62
     1
 10
0.219
 20
-0.376
 30
0.0
  0
VERTEX
  5
86C
  8
GG1
 62
     1
 10
0.179
 20
-0.4160000000000001
 30
0.0
  0
VERTEX
  5
86D
  8
GG1
 62
     1
 10
0.179
 20
-0.426
 30
0.0
  0
SEQEND
  5
86E
  8
GG1
 62
     1
  0
POLYLINE
  5
342
  8
GG1
 62
     1
 66
     1
 10
0.0
 20
0.0
 30
0.0
  0
VERTEX
  5
86F
  8
GG1
 62
     1
 10
0.239
 20
-0.376
 30
0.0
  0
VERTEX
  5
870
  8
GG1
 62
     1
 10
0.249
 20
-0.366
 30
0.0
  0
VERTEX
  5
871
  8
GG1
 62
     1
 10
0.269
 20
-0.366
 30
0.0
  0
VERTEX
  5
872
  8
GG1
 62
     1
 10
0.279
 20
-0.376
 30
0.0
  0
VERTEX
  5
873
  8
GG1
 62
     1
 10
0.279
 20
-0.4160000000000001
 30
0.0
  0
VERTEX
  5
874
  8
GG1
 62
     1
 10
0.269
 20
-0.426
 30
0.0
  0
VERTEX
  5
875
  8
GG1
 62
     1
 10
0.249
 20
-0.426
 30
0.0
  0
VERTEX
  5
876
  8
GG1
 62
     1
 10
0.239
 20
-0.4160000000000001
 30
0.0
  0
VERTEX
  5
877
  8
GG1
 62
     1
 10
0.239
 20
-0.376
 30
0.0
  0
SEQEND
  5
878
  8
GG1
 62
     1
  0
POLYLINE
  5
34D
  8
GG1
 62
     1
 66
     1
 10
0.0
 20
0.0
 30
0.0
  0
VERTEX
  5
879
  8
GG1
 62
     1
 10
0.299
 20
-0.376
 30
0.0
  0
VERTEX
  5
87A
  8
GG1
 62
     1
 10
0.309
 20
-0.366
 30
0.0
  0
VERTEX
  5
87B
  8
GG1
 62
     1
 10
0.329
 20
-0.366
 30
0.0
  0
VERTEX
  5
87C
  8
GG1
 62
     1
 10
0.339
 20
-0.376
 30
0.0
  0
VERTEX
  5
87D
  8
GG1
 62
     1
 10
0.339
 20
-0.4160000000000001
 30
0.0
  0
VERTEX
  5
87E
  8
GG1
 62
     1
 10
0.329
 20
-0.426
 30
0.0
  0
VERTEX
  5
87F
  8
GG1
 62
     1
 10
0.309
 20
-0.426
 30
0.0
  0
VERTEX
  5
880
  8
GG1
 62
     1
 10
0.299
 20
-0.4160000000000001
 30
0.0
  0
VERTEX
  5
881
  8
GG1
 62
     1
 10
0.299
 20
-0.376
 30
0.0
  0
SEQEND
  5
882
  8
GG1
 62
     1
  0
POLYLINE
  5
358
  8
GG1
 62
     1
 66
     1
 10
0.0
 20
0.0
 30
0.0
  0
VERTEX
  5
883
  8
GG1
 62
     1
 10
0.359
 20
-0.426
 30
0.0
  0
VERTEX
  5
884
  8
GG1
 62
     1
 10
0.359
 20
-0.386
 30
0.0
  0
VERTEX
  5
885
  8
GG1
 62
     1
 10
0.369
 20
-0.386
 30
0.0
  0
VERTEX
  5
886
  8
GG1
 62
     1
 10
0.379
 20
-0.396
 30
0.0
  0
VERTEX
  5
887
  8
GG1
 62
     1
 10
0.379
 20
-0.426
 30
0.0
  0
VERTEX
  5
888
  8
GG1
 62
     1
 10
0.379
 20
-0.396
 30
0.0
  0
VERTEX
  5
889
  8
GG1
 62
     1
 10
0.389
 20
-0.386
 30
0.0
  0
VERTEX
  5
88A
  8
GG1
 62
     1
 10
0.399
 20
-0.396
 30
0.0
  0
VERTEX
  5
88B
  8
GG1
 62
     1
 10
0.399
 20
-0.426
 30
0.0
  0
SEQEND
  5
88C
  8
GG1
 62
     1
  0
POLYLINE
  5
363
  8
GG1
 62
     1
 66
     1
 10
0.0
 20
0.0
 30
0.0
  0
VERTEX
  5
88D
  8
GG1
 62
     1
 10
0.419
 20
-0.426
 30
0.0
  0
VERTEX
  5
88E
  8
GG1
 62
     1
 10
0.439
 20
-0.426
 30
0.0
  0
VERTEX
  5
88F
  8
GG1
 62
     1
 10
0.429
 20
-0.426
 30
0.0
  0
VERTEX
  5
890
  8
GG1
 62
     1
 10
0.429
 20
-0.386
 30
0.0
  0
VERTEX
  5
891
  8
GG1
 62
     1
 10
0.419
 20
-0.386
 30
0.0
  0
SEQEND
  5
892
  8
GG1
 62
     1
  0
POLYLINE
  5
36A
  8
GG1
 62
     1
 66
     1
 10
0.0
 20
0.0
 30
0.0
  0
VERTEX
  5
893
  8
GG1
 62
     1
 10
0.469
 20
-0.426
 30
0.0
  0
VERTEX
  5
894
  8
GG1
 62
     1
 10
0.489
 20
-0.426
 30
0.0
  0
VERTEX
  5
895
  8
GG1
 62
     1
 10
0.479
 20
-0.426
 30
0.0
  0
VERTEX
  5
896
  8
GG1
 62
     1
 10
0.479
 20
-0.366
 30
0.0
  0
VERTEX
  5
897
  8
GG1
 62
     1
 10
0.469
 20
-0.366
 30
0.0
  0
SEQEND
  5
898
  8
GG1
 62
     1
  0
ENDSEC
  0
EOF
