<?xml version="1.0" encoding="utf-8"?>
<!-- Generator: Adobe Illustrator 22.1.0, SVG Export Plug-In . SVG Version: 6.00 Build 0)  -->
<svg version="1.1" id="GG1" xmlns="http://www.w3.org/2000/svg" xmlns:xlink="http://www.w3.org/1999/xlink" x="0px" y="0px"
	 viewBox="0 0 1920 1080" style="enable-background:new 0 0 1920 1080;" xml:space="preserve">
<style type="text/css">
	.st0{fill:none;stroke:#FF0000;stroke-width:0.7087;stroke-linecap:round;stroke-linejoin:round;stroke-miterlimit:10;}
</style>
<g id="LWPOLYLINE">
	<line class="st0" x1="564" y1="716.8" x2="696.2" y2="716.8"/>
</g>
<g id="LWPOLYLINE_1_">
	<line class="st0" x1="564" y1="11.8" x2="696.2" y2="11.8"/>
</g>
<g id="LWPOLYLINE_2_">
	<line class="st0" x1="572.8" y1="716.8" x2="572.8" y2="529"/>
</g>
<g id="LWPOLYLINE_3_">
	<line class="st0" x1="572.8" y1="227.8" x2="572.8" y2="11.8"/>
</g>
<g id="LWPOLYLINE_4_">
	<line class="st0" x1="572.8" y1="716.8" x2="590.4" y2="663.9"/>
</g>
<g id="LWPOLYLINE_5_">
	<line class="st0" x1="555.2" y1="663.9" x2="572.8" y2="716.8"/>
</g>
<g id="LWPOLYLINE_6_">
	<polyline class="st0" points="555.2,64.6 572.8,11.8 590.4,64.6 	"/>
</g>
<g id="LWPOLYLINE_7_">
	<line class="st0" x1="1321.8" y1="1069.2" x2="1321.8" y2="725.6"/>
</g>
<g id="LWPOLYLINE_8_">
	<line class="st0" x1="705" y1="1069.2" x2="705" y2="725.6"/>
</g>
<g id="LWPOLYLINE_9_">
	<line class="st0" x1="1137" y1="963.4" x2="1309" y2="963.4"/>
</g>
<g id="LWPOLYLINE_10_">
	<line class="st0" x1="692.1" y1="963.4" x2="835.7" y2="963.4"/>
</g>
<g id="LWPOLYLINE_11_">
	<line class="st0" x1="1256.1" y1="945.8" x2="1309" y2="963.4"/>
</g>
<g id="LWPOLYLINE_12_">
	<line class="st0" x1="1256.1" y1="981.1" x2="1309" y2="963.4"/>
</g>
<g id="LWPOLYLINE_13_">
	<line class="st0" x1="692.1" y1="963.4" x2="745" y2="981.1"/>
</g>
<g id="LWPOLYLINE_14_">
	<line class="st0" x1="692.1" y1="963.4" x2="745" y2="945.8"/>
</g>
<g id="LWPOLYLINE_15_">
	<line class="st0" x1="705" y1="11.8" x2="1321.8" y2="11.8"/>
</g>
<g id="LWPOLYLINE_16_">
	<line class="st0" x1="1321.8" y1="716.8" x2="1321.8" y2="11.8"/>
</g>
<g id="LWPOLYLINE_17_">
	<line class="st0" x1="705" y1="716.8" x2="1321.8" y2="716.8"/>
</g>
<g id="LWPOLYLINE_18_">
	<line class="st0" x1="705" y1="716.8" x2="705" y2="11.8"/>
</g>
<g id="LWPOLYLINE_19_">
	<line class="st0" x1="1061.9" y1="597.8" x2="1079.5" y2="597.8"/>
</g>
<g id="LWPOLYLINE_20_">
	<line class="st0" x1="1070.7" y1="606.6" x2="1070.7" y2="589"/>
</g>
<g id="LWPOLYLINE_21_">
	<line class="st0" x1="960.5" y1="465.6" x2="978.2" y2="465.6"/>
</g>
<g id="LWPOLYLINE_22_">
	<line class="st0" x1="969.3" y1="474.4" x2="969.3" y2="456.8"/>
</g>
<g id="LWPOLYLINE_23_">
	<line class="st0" x1="1238.1" y1="672.7" x2="1273.4" y2="672.7"/>
</g>
<g id="LWPOLYLINE_24_">
	<line class="st0" x1="1255.7" y1="690.3" x2="1255.7" y2="655.1"/>
</g>
<g id="LWPOLYLINE_25_">
	<line class="st0" x1="1150" y1="672.7" x2="1185.2" y2="672.7"/>
</g>
<g id="LWPOLYLINE_26_">
	<line class="st0" x1="1167.6" y1="690.3" x2="1167.6" y2="655.1"/>
</g>
<g id="LWPOLYLINE_27_">
	<line class="st0" x1="1061.9" y1="672.7" x2="1097.1" y2="672.7"/>
</g>
<g id="LWPOLYLINE_28_">
	<line class="st0" x1="1079.5" y1="690.3" x2="1079.5" y2="655.1"/>
</g>
<g id="LWPOLYLINE_29_">
	<line class="st0" x1="973.7" y1="672.7" x2="1009" y2="672.7"/>
</g>
<g id="LWPOLYLINE_30_">
	<line class="st0" x1="991.4" y1="690.3" x2="991.4" y2="655.1"/>
</g>
<g id="LWPOLYLINE_31_">
	<line class="st0" x1="885.6" y1="672.7" x2="920.9" y2="672.7"/>
</g>
<g id="LWPOLYLINE_32_">
	<line class="st0" x1="903.2" y1="690.3" x2="903.2" y2="655.1"/>
</g>
<g id="LWPOLYLINE_33_">
	<line class="st0" x1="1209" y1="86.7" x2="1284.8" y2="86.7"/>
</g>
<g id="LWPOLYLINE_34_">
	<line class="st0" x1="1246.9" y1="124.6" x2="1246.9" y2="48.8"/>
</g>
<g id="LWPOLYLINE_35_">
	<line class="st0" x1="742" y1="641.8" x2="817.8" y2="641.8"/>
</g>
<g id="LWPOLYLINE_36_">
	<line class="st0" x1="779.9" y1="679.7" x2="779.9" y2="604"/>
</g>
<g id="LWPOLYLINE_37_">
	<line class="st0" x1="1235.9" y1="577.5" x2="1249.1" y2="577.5"/>
</g>
<g id="LWPOLYLINE_38_">
	<line class="st0" x1="1242.5" y1="584.1" x2="1242.5" y2="570.9"/>
</g>
<g id="LWPOLYLINE_39_">
	<line class="st0" x1="1280" y1="529" x2="1293.2" y2="529"/>
</g>
<g id="LWPOLYLINE_40_">
	<line class="st0" x1="1286.6" y1="535.7" x2="1286.6" y2="522.4"/>
</g>
<g id="LWPOLYLINE_41_">
	<line class="st0" x1="1191.9" y1="461.2" x2="1205.1" y2="461.2"/>
</g>
<g id="LWPOLYLINE_42_">
	<line class="st0" x1="1198.5" y1="467.8" x2="1198.5" y2="454.6"/>
</g>
<g id="LWPOLYLINE_43_">
	<line class="st0" x1="1156.6" y1="461.2" x2="1169.8" y2="461.2"/>
</g>
<g id="LWPOLYLINE_44_">
	<line class="st0" x1="1163.2" y1="467.8" x2="1163.2" y2="454.6"/>
</g>
<g id="LWPOLYLINE_45_">
	<line class="st0" x1="1125.8" y1="258.5" x2="1139" y2="258.5"/>
</g>
<g id="LWPOLYLINE_46_">
	<line class="st0" x1="1132.4" y1="265.1" x2="1132.4" y2="251.9"/>
</g>
<g id="LWPOLYLINE_47_">
	<line class="st0" x1="936.4" y1="311.5" x2="949.6" y2="311.5"/>
</g>
<g id="LWPOLYLINE_48_">
	<line class="st0" x1="943" y1="318.1" x2="943" y2="304.9"/>
</g>
<g id="LWPOLYLINE_49_">
	<line class="st0" x1="971.5" y1="267.3" x2="984.8" y2="267.3"/>
</g>
<g id="LWPOLYLINE_50_">
	<line class="st0" x1="978.2" y1="273.9" x2="978.2" y2="260.7"/>
</g>
<g id="LWPOLYLINE_51_">
	<line class="st0" x1="790.9" y1="267.3" x2="804.1" y2="267.3"/>
</g>
<g id="LWPOLYLINE_52_">
	<line class="st0" x1="797.5" y1="273.9" x2="797.5" y2="260.7"/>
</g>
<g id="LWPOLYLINE_53_">
	<line class="st0" x1="1121.4" y1="395.1" x2="1134.6" y2="395.1"/>
</g>
<g id="LWPOLYLINE_54_">
	<line class="st0" x1="1128" y1="401.7" x2="1128" y2="388.5"/>
</g>
<g id="LWPOLYLINE_55_">
	<line class="st0" x1="733.6" y1="245.3" x2="746.8" y2="245.3"/>
</g>
<g id="LWPOLYLINE_56_">
	<line class="st0" x1="740.2" y1="251.9" x2="740.2" y2="238.7"/>
</g>
<g id="LWPOLYLINE_57_">
	<line class="st0" x1="826.1" y1="236.5" x2="839.4" y2="236.5"/>
</g>
<g id="LWPOLYLINE_58_">
	<line class="st0" x1="832.7" y1="243.1" x2="832.7" y2="229.9"/>
</g>
<g id="LWPOLYLINE_59_">
	<line class="st0" x1="1033.2" y1="91.1" x2="1046.4" y2="91.1"/>
</g>
<g id="LWPOLYLINE_60_">
	<line class="st0" x1="1039.8" y1="97.7" x2="1039.8" y2="84.5"/>
</g>
<g id="LWPOLYLINE_61_">
	<line class="st0" x1="962.7" y1="496.4" x2="976" y2="496.4"/>
</g>
<g id="LWPOLYLINE_62_">
	<line class="st0" x1="969.3" y1="503.1" x2="969.3" y2="489.8"/>
</g>
<g id="LWPOLYLINE_63_">
	<line class="st0" x1="760" y1="368.7" x2="773.3" y2="368.7"/>
</g>
<g id="LWPOLYLINE_64_">
	<line class="st0" x1="766.7" y1="375.3" x2="766.7" y2="362.1"/>
</g>
<g id="LWPOLYLINE_65_">
	<line class="st0" x1="733.6" y1="377.5" x2="746.8" y2="377.5"/>
</g>
<g id="LWPOLYLINE_66_">
	<line class="st0" x1="740.2" y1="384.1" x2="740.2" y2="370.9"/>
</g>
<g id="LWPOLYLINE_67_">
	<line class="st0" x1="1086.1" y1="456.8" x2="1099.3" y2="456.8"/>
</g>
<g id="LWPOLYLINE_68_">
	<line class="st0" x1="1092.7" y1="463.4" x2="1092.7" y2="450.2"/>
</g>
<g id="LWPOLYLINE_69_">
	<line class="st0" x1="1280" y1="474.4" x2="1293.2" y2="474.4"/>
</g>
<g id="LWPOLYLINE_70_">
	<line class="st0" x1="1286.6" y1="481" x2="1286.6" y2="467.8"/>
</g>
<g id="LWPOLYLINE_71_">
	<line class="st0" x1="1045.3" y1="336.7" x2="1058.5" y2="336.7"/>
</g>
<g id="LWPOLYLINE_72_">
	<line class="st0" x1="1051.9" y1="343.3" x2="1051.9" y2="330.1"/>
</g>
<g id="LWPOLYLINE_73_">
	<line class="st0" x1="1045.3" y1="303.7" x2="1058.5" y2="303.7"/>
</g>
<g id="LWPOLYLINE_74_">
	<line class="st0" x1="1051.9" y1="310.3" x2="1051.9" y2="297.1"/>
</g>
<g id="LWPOLYLINE_75_">
	<line class="st0" x1="857" y1="236.5" x2="870.2" y2="236.5"/>
</g>
<g id="LWPOLYLINE_76_">
	<line class="st0" x1="863.6" y1="243.1" x2="863.6" y2="229.9"/>
</g>
<g id="LWPOLYLINE_77_">
	<line class="st0" x1="887.8" y1="236.5" x2="901" y2="236.5"/>
</g>
<g id="LWPOLYLINE_78_">
	<line class="st0" x1="894.4" y1="243.1" x2="894.4" y2="229.9"/>
</g>
<g id="LWPOLYLINE_79_">
	<line class="st0" x1="1116.9" y1="456.8" x2="1130.2" y2="456.8"/>
</g>
<g id="LWPOLYLINE_80_">
	<line class="st0" x1="1123.6" y1="463.4" x2="1123.6" y2="450.2"/>
</g>
<g id="LWPOLYLINE_81_">
	<line class="st0" x1="1108.1" y1="364.3" x2="1121.4" y2="364.3"/>
</g>
<g id="LWPOLYLINE_82_">
	<line class="st0" x1="1114.7" y1="370.9" x2="1114.7" y2="357.6"/>
</g>
<g id="LWPOLYLINE_83_">
	<line class="st0" x1="1090.5" y1="425.9" x2="1103.7" y2="425.9"/>
</g>
<g id="LWPOLYLINE_84_">
	<line class="st0" x1="1097.1" y1="432.6" x2="1097.1" y2="419.3"/>
</g>
<g id="LWPOLYLINE_85_">
	<line class="st0" x1="1090.5" y1="51.4" x2="1103.7" y2="51.4"/>
</g>
<g id="LWPOLYLINE_86_">
	<line class="st0" x1="1097.1" y1="58" x2="1097.1" y2="44.8"/>
</g>
<g id="LWPOLYLINE_87_">
	<line class="st0" x1="760" y1="315.8" x2="773.3" y2="315.8"/>
</g>
<g id="LWPOLYLINE_88_">
	<line class="st0" x1="766.7" y1="322.4" x2="766.7" y2="309.2"/>
</g>
<g id="LWPOLYLINE_89_">
	<line class="st0" x1="998" y1="91.1" x2="1011.2" y2="91.1"/>
</g>
<g id="LWPOLYLINE_90_">
	<line class="st0" x1="1004.6" y1="97.7" x2="1004.6" y2="84.5"/>
</g>
<g id="LWPOLYLINE_91_">
	<line class="st0" x1="1055.3" y1="430.4" x2="1068.5" y2="430.4"/>
</g>
<g id="LWPOLYLINE_92_">
	<line class="st0" x1="1061.9" y1="437" x2="1061.9" y2="423.7"/>
</g>
<g id="LWPOLYLINE_93_">
	<line class="st0" x1="1002.4" y1="430.4" x2="1015.6" y2="430.4"/>
</g>
<g id="LWPOLYLINE_94_">
	<line class="st0" x1="1009" y1="437" x2="1009" y2="423.7"/>
</g>
<g id="LWPOLYLINE_95_">
	<line class="st0" x1="733.6" y1="166" x2="746.8" y2="166"/>
</g>
<g id="LWPOLYLINE_96_">
	<line class="st0" x1="740.2" y1="172.6" x2="740.2" y2="159.4"/>
</g>
<g id="LWPOLYLINE_97_">
	<line class="st0" x1="1121.4" y1="425.9" x2="1134.6" y2="425.9"/>
</g>
<g id="LWPOLYLINE_98_">
	<line class="st0" x1="1128" y1="432.6" x2="1128" y2="419.3"/>
</g>
<g id="LWPOLYLINE_99_">
	<line class="st0" x1="1280" y1="448" x2="1293.2" y2="448"/>
</g>
<g id="LWPOLYLINE_100_">
	<line class="st0" x1="1286.6" y1="454.6" x2="1286.6" y2="441.4"/>
</g>
<g id="LWPOLYLINE_101_">
	<line class="st0" x1="1275.6" y1="179.2" x2="1288.8" y2="179.2"/>
</g>
<g id="LWPOLYLINE_102_">
	<line class="st0" x1="1282.2" y1="185.8" x2="1282.2" y2="172.6"/>
</g>
<g id="LWPOLYLINE_103_">
	<line class="st0" x1="1012.3" y1="303.7" x2="1025.6" y2="303.7"/>
</g>
<g id="LWPOLYLINE_104_">
	<line class="st0" x1="1019" y1="310.3" x2="1019" y2="297.1"/>
</g>
<g id="LWPOLYLINE_105_">
	<line class="st0" x1="1090.5" y1="395.1" x2="1103.7" y2="395.1"/>
</g>
<g id="LWPOLYLINE_106_">
	<line class="st0" x1="1097.1" y1="401.7" x2="1097.1" y2="388.5"/>
</g>
<g id="LWPOLYLINE_107_">
	<line class="st0" x1="1012.3" y1="336.7" x2="1025.6" y2="336.7"/>
</g>
<g id="LWPOLYLINE_108_">
	<line class="st0" x1="1019" y1="343.3" x2="1019" y2="330.1"/>
</g>
<g id="LWPOLYLINE_109_">
	<line class="st0" x1="940.7" y1="346.6" x2="953.9" y2="346.6"/>
</g>
<g id="LWPOLYLINE_110_">
	<line class="st0" x1="947.3" y1="353.2" x2="947.3" y2="340"/>
</g>
<g id="LWPOLYLINE_111_">
	<line class="st0" x1="760" y1="497.3" x2="773.3" y2="497.3"/>
</g>
<g id="LWPOLYLINE_112_">
	<line class="st0" x1="766.7" y1="503.9" x2="766.7" y2="490.7"/>
</g>
<g id="LWPOLYLINE_113_">
	<line class="st0" x1="918.7" y1="280.5" x2="931.9" y2="280.5"/>
</g>
<g id="LWPOLYLINE_114_">
	<line class="st0" x1="925.3" y1="287.2" x2="925.3" y2="273.9"/>
</g>
<g id="LWPOLYLINE_115_">
	<line class="st0" x1="931.9" y1="470" x2="945.1" y2="470"/>
</g>
<g id="LWPOLYLINE_116_">
	<line class="st0" x1="938.5" y1="476.6" x2="938.5" y2="463.4"/>
</g>
<g id="LWPOLYLINE_117_">
	<line class="st0" x1="839.4" y1="214.4" x2="852.6" y2="214.4"/>
</g>
<g id="LWPOLYLINE_118_">
	<line class="st0" x1="846" y1="221.1" x2="846" y2="207.8"/>
</g>
<g id="LWPOLYLINE_119_">
	<line class="st0" x1="874.6" y1="214.4" x2="887.8" y2="214.4"/>
</g>
<g id="LWPOLYLINE_120_">
	<line class="st0" x1="881.2" y1="221.1" x2="881.2" y2="207.8"/>
</g>
<g id="LWPOLYLINE_121_">
	<line class="st0" x1="1121.4" y1="337.8" x2="1134.6" y2="337.8"/>
</g>
<g id="LWPOLYLINE_122_">
	<line class="st0" x1="1128" y1="344.4" x2="1128" y2="331.2"/>
</g>
<g id="LWPOLYLINE_123_">
	<line class="st0" x1="1235.9" y1="529" x2="1249.1" y2="529"/>
</g>
<g id="LWPOLYLINE_124_">
	<line class="st0" x1="1242.5" y1="535.7" x2="1242.5" y2="522.4"/>
</g>
<g id="LWPOLYLINE_125_">
	<line class="st0" x1="1250.9" y1="391.6" x2="1264.1" y2="391.6"/>
</g>
<g id="LWPOLYLINE_126_">
	<line class="st0" x1="1257.5" y1="398.2" x2="1257.5" y2="385"/>
</g>
<g id="LWPOLYLINE_127_">
	<line class="st0" x1="733.6" y1="302.6" x2="746.8" y2="302.6"/>
</g>
<g id="LWPOLYLINE_128_">
	<line class="st0" x1="740.2" y1="309.2" x2="740.2" y2="296"/>
</g>
<g id="LWPOLYLINE_129_">
	<line class="st0" x1="931.9" y1="496.4" x2="945.1" y2="496.4"/>
</g>
<g id="LWPOLYLINE_130_">
	<line class="st0" x1="938.5" y1="503.1" x2="938.5" y2="489.8"/>
</g>
<g id="LWPOLYLINE_131_">
	<line class="st0" x1="786.5" y1="381.9" x2="799.7" y2="381.9"/>
</g>
<g id="LWPOLYLINE_132_">
	<line class="st0" x1="793.1" y1="388.5" x2="793.1" y2="375.3"/>
</g>
<g id="LWPOLYLINE_133_">
	<line class="st0" x1="755.6" y1="276.1" x2="768.9" y2="276.1"/>
</g>
<g id="LWPOLYLINE_134_">
	<line class="st0" x1="762.3" y1="282.7" x2="762.3" y2="269.5"/>
</g>
<g id="LWPOLYLINE_135_">
	<line class="st0" x1="733.6" y1="205.6" x2="746.8" y2="205.6"/>
</g>
<g id="LWPOLYLINE_136_">
	<line class="st0" x1="740.2" y1="212.2" x2="740.2" y2="199"/>
</g>
<g id="LWPOLYLINE_137_">
	<line class="st0" x1="733.6" y1="126.3" x2="746.8" y2="126.3"/>
</g>
<g id="LWPOLYLINE_138_">
	<line class="st0" x1="740.2" y1="132.9" x2="740.2" y2="119.7"/>
</g>
<g id="LWPOLYLINE_139_">
	<line class="st0" x1="733.6" y1="47" x2="746.8" y2="47"/>
</g>
<g id="LWPOLYLINE_140_">
	<line class="st0" x1="740.2" y1="53.6" x2="740.2" y2="40.4"/>
</g>
<g id="LWPOLYLINE_141_">
	<line class="st0" x1="733.6" y1="86.7" x2="746.8" y2="86.7"/>
</g>
<g id="LWPOLYLINE_142_">
	<line class="st0" x1="740.2" y1="93.3" x2="740.2" y2="80.1"/>
</g>
<g id="LWPOLYLINE_143_">
	<line class="st0" x1="940.7" y1="443.6" x2="953.9" y2="443.6"/>
</g>
<g id="LWPOLYLINE_144_">
	<line class="st0" x1="947.3" y1="450.2" x2="947.3" y2="437"/>
</g>
<g id="LWPOLYLINE_145_">
	<line class="st0" x1="1046.4" y1="51.4" x2="1059.7" y2="51.4"/>
</g>
<g id="LWPOLYLINE_146_">
	<line class="st0" x1="1053.1" y1="58" x2="1053.1" y2="44.8"/>
</g>
<g id="LWPOLYLINE_147_">
	<line class="st0" x1="1006.8" y1="51.4" x2="1020" y2="51.4"/>
</g>
<g id="LWPOLYLINE_148_">
	<line class="st0" x1="1013.4" y1="58" x2="1013.4" y2="44.8"/>
</g>
<g id="LWPOLYLINE_149_">
	<line class="st0" x1="1072.9" y1="77.9" x2="1086.1" y2="77.9"/>
</g>
<g id="LWPOLYLINE_150_">
	<line class="st0" x1="1079.5" y1="84.5" x2="1079.5" y2="71.2"/>
</g>
<g id="LWPOLYLINE_151_">
	<line class="st0" x1="812.9" y1="430.4" x2="826.1" y2="430.4"/>
</g>
<g id="LWPOLYLINE_152_">
	<line class="st0" x1="819.5" y1="437" x2="819.5" y2="423.7"/>
</g>
<g id="LWPOLYLINE_153_">
	<line class="st0" x1="795.3" y1="544.9" x2="808.5" y2="544.9"/>
</g>
<g id="LWPOLYLINE_154_">
	<line class="st0" x1="801.9" y1="551.5" x2="801.9" y2="538.3"/>
</g>
<g id="LWPOLYLINE_155_">
	<line class="st0" x1="795.3" y1="518.5" x2="808.5" y2="518.5"/>
</g>
<g id="LWPOLYLINE_156_">
	<line class="st0" x1="801.9" y1="525.1" x2="801.9" y2="511.9"/>
</g>
<g id="LWPOLYLINE_157_">
	<polyline class="st0" points="560.4,514.9 551.6,506.1 551.6,488.5 560.4,479.7 569.3,479.7 578.1,488.5 586.9,479.7 595.7,479.7 
		604.5,488.5 604.5,506.1 595.7,514.9 586.9,514.9 578.1,506.1 569.3,514.9 560.4,514.9 	"/>
</g>
<g id="LWPOLYLINE_158_">
	<line class="st0" x1="578.1" y1="506.1" x2="578.1" y2="488.5"/>
</g>
<g id="LWPOLYLINE_159_">
	<polyline class="st0" points="560.4,462.1 551.6,453.3 551.6,435.6 560.4,426.8 595.7,426.8 604.5,435.6 604.5,453.3 595.7,462.1 
		560.4,462.1 	"/>
</g>
<g id="LWPOLYLINE_160_">
	<polyline class="st0" points="560.4,409.2 551.6,400.4 551.6,382.8 560.4,374 595.7,374 604.5,382.8 604.5,400.4 595.7,409.2 
		560.4,409.2 	"/>
</g>
<g id="LWPOLYLINE_161_">
	<polyline class="st0" points="604.5,356.3 569.3,356.3 569.3,347.5 578.1,338.7 604.5,338.7 578.1,338.7 569.3,329.9 578.1,321.1 
		604.5,321.1 	"/>
</g>
<g id="LWPOLYLINE_162_">
	<polyline class="st0" points="604.5,303.5 604.5,285.8 604.5,294.6 569.3,294.6 569.3,303.5 	"/>
</g>
<g id="LWPOLYLINE_163_">
	<polyline class="st0" points="604.5,259.4 604.5,241.8 604.5,250.6 551.6,250.6 551.6,259.4 	"/>
</g>
<g id="LWPOLYLINE_164_">
	<polyline class="st0" points="849.8,942.3 885.1,942.3 885.1,951.1 849.8,986.3 849.8,995.2 	"/>
</g>
<g id="LWPOLYLINE_165_">
	<polyline class="st0" points="902.7,951.1 911.5,942.3 929.2,942.3 938,951.1 938,986.3 929.2,995.2 911.5,995.2 902.7,986.3 
		902.7,951.1 	"/>
</g>
<g id="LWPOLYLINE_166_">
	<polyline class="st0" points="955.6,951.1 964.4,942.3 982,942.3 990.8,951.1 990.8,986.3 982,995.2 964.4,995.2 955.6,986.3 
		955.6,951.1 	"/>
</g>
<g id="LWPOLYLINE_167_">
	<polyline class="st0" points="1008.5,995.2 1008.5,959.9 1017.3,959.9 1026.1,968.7 1026.1,995.2 1026.1,968.7 1034.9,959.9 
		1043.7,968.7 1043.7,995.2 	"/>
</g>
<g id="LWPOLYLINE_168_">
	<polyline class="st0" points="1061.3,995.2 1079,995.2 1070.2,995.2 1070.2,959.9 1061.3,959.9 	"/>
</g>
<g id="LWPOLYLINE_169_">
	<polyline class="st0" points="1105.4,995.2 1123,995.2 1114.2,995.2 1114.2,942.3 1105.4,942.3 	"/>
</g>
</svg>
