  0
SECTION
  2
HEADER
  9
$ACADVER
  1
AC1009
  9
$INSBASE
 10
0.0
 20
0.0
 30
0.0
  9
$EXTMIN
 10
7449.7527029734847019
 20
1012.8274959216729485
 30
0.0
  9
$EXTMAX
 10
7591.7027029734836105
 20
1376.827495921685113
 30
0.0
  9
$LIMMIN
 10
0.0
 20
0.0
  9
$LIMMAX
 10
12.0
 20
9.0
  9
$ORTHOMODE
 70
     0
  9
$REGENMODE
 70
     1
  9
$FILLMODE
 70
     1
  9
$QTEXTMODE
 70
     0
  9
$MIRRTEXT
 70
     1
  9
$DRAGMODE
 70
     2
  9
$LTSCALE
 40
10.0
  9
$OSMODE
 70
    37
  9
$ATTMODE
 70
     1
  9
$TEXTSIZE
 40
13.5133568035179294
  9
$TRACEWID
 40
0.05
  9
$TEXTSTYLE
  7
STANDARD
  9
$CLAYER
  8
DEFPOINTS
  9
$CELTYPE
  6
BYLAYER
  9
$CECOLOR
 62
   256
  9
$DIMSCALE
 40
1.0
  9
$DIMASZ
 40
0.18
  9
$DIMEXO
 40
0.0625
  9
$DIMDLI
 40
0.38
  9
$DIMRND
 40
0.0
  9
$DIMDLE
 40
0.0
  9
$DIMEXE
 40
0.18
  9
$DIMTP
 40
0.0
  9
$DIMTM
 40
0.0
  9
$DIMTXT
 40
26.3999120836404302
  9
$DIMCEN
 40
0.09
  9
$DIMTSZ
 40
0.0
  9
$DIMTOL
 70
     0
  9
$DIMLIM
 70
     0
  9
$DIMTIH
 70
     1
  9
$DIMTOH
 70
     1
  9
$DIMSE1
 70
     0
  9
$DIMSE2
 70
     0
  9
$DIMTAD
 70
     0
  9
$DIMZIN
 70
     0
  9
$DIMBLK
  1

  9
$DIMASO
 70
     1
  9
$DIMSHO
 70
     1
  9
$DIMPOST
  1

  9
$DIMAPOST
  1

  9
$DIMALT
 70
     0
  9
$DIMALTD
 70
     2
  9
$DIMALTF
 40
25.3999999999999986
  9
$DIMLFAC
 40
1.0
  9
$DIMTOFL
 70
     0
  9
$DIMTVP
 40
0.0
  9
$DIMTIX
 70
     0
  9
$DIMSOXD
 70
     0
  9
$DIMSAH
 70
     0
  9
$DIMBLK1
  1

  9
$DIMBLK2
  1

  9
$DIMSTYLE
  2
STANDARD
  9
$DIMCLRD
 70
     0
  9
$DIMCLRE
 70
     0
  9
$DIMCLRT
 70
     0
  9
$DIMTFAC
 40
1.0
  9
$DIMGAP
 40
0.09
  9
$LUNITS
 70
     2
  9
$LUPREC
 70
     8
  9
$SKETCHINC
 40
0.1
  9
$FILLETRAD
 40
4.0
  9
$AUNITS
 70
     0
  9
$AUPREC
 70
     0
  9
$MENU
  1
.
  9
$ELEVATION
 40
0.0
  9
$PELEVATION
 40
0.0
  9
$THICKNESS
 40
0.0
  9
$LIMCHECK
 70
     0
  9
$BLIPMODE
 70
     0
  9
$CHAMFERA
 40
0.0
  9
$CHAMFERB
 40
0.0
  9
$SKPOLY
 70
     0
  9
$TDCREATE
 40
2453809.646643518935889
  9
$TDUPDATE
 40
2458724.6631597219966352
  9
$TDINDWG
 40
30.3934076273000002
  9
$TDUSRTIMER
 40
30.3934068981000003
  9
$USRTIMER
 70
     1
  9
$ANGBASE
 50
0.0
  9
$ANGDIR
 70
     0
  9
$PDMODE
 70
     0
  9
$PDSIZE
 40
0.0
  9
$PLINEWID
 40
0.0
  9
$COORDS
 70
     1
  9
$SPLFRAME
 70
     0
  9
$SPLINETYPE
 70
     6
  9
$SPLINESEGS
 70
     8
  9
$ATTDIA
 70
     1
  9
$ATTREQ
 70
     1
  9
$HANDLING
 70
     1
  9
$HANDSEED
  5
3AC06
  9
$SURFTAB1
 70
     6
  9
$SURFTAB2
 70
     6
  9
$SURFTYPE
 70
     6
  9
$SURFU
 70
     6
  9
$SURFV
 70
     6
  9
$UCSNAME
  2

  9
$UCSORG
 10
0.0
 20
0.0
 30
0.0
  9
$UCSXDIR
 10
1.0
 20
0.0
 30
0.0
  9
$UCSYDIR
 10
0.0
 20
1.0
 30
0.0
  9
$PUCSNAME
  2

  9
$PUCSORG
 10
0.0
 20
0.0
 30
0.0
  9
$PUCSXDIR
 10
1.0
 20
0.0
 30
0.0
  9
$PUCSYDIR
 10
0.0
 20
1.0
 30
0.0
  9
$USERI1
 70
     0
  9
$USERI2
 70
     0
  9
$USERI3
 70
     0
  9
$USERI4
 70
     0
  9
$USERI5
 70
     0
  9
$USERR1
 40
0.0
  9
$USERR2
 40
0.0
  9
$USERR3
 40
0.0
  9
$USERR4
 40
0.0
  9
$USERR5
 40
0.0
  9
$WORLDVIEW
 70
     1
  9
$SHADEDGE
 70
     3
  9
$SHADEDIF
 70
    70
  9
$TILEMODE
 70
     1
  9
$MAXACTVP
 70
    64
  9
$PLIMCHECK
 70
     0
  9
$PEXTMIN
 10
1.0000000000000000E+20
 20
1.0000000000000000E+20
 30
1.0000000000000000E+20
  9
$PEXTMAX
 10
-1.0000000000000000E+20
 20
-1.0000000000000000E+20
 30
-1.0000000000000000E+20
  9
$PLIMMIN
 10
0.0
 20
0.0
  9
$PLIMMAX
 10
12.0
 20
9.0
  9
$UNITMODE
 70
     0
  9
$VISRETAIN
 70
     1
  9
$PLINEGEN
 70
     0
  9
$PSLTSCALE
 70
     1
  0
ENDSEC
  0
SECTION
  2
TABLES
  0
TABLE
  2
VPORT
 70
     1
  0
VPORT
  2
*ACTIVE
 70
     0
 10
0.0
 20
0.0
 11
1.0
 21
1.0
 12
197.9491527872687016
 22
175.156576770466387
 13
0.0
 23
0.0
 14
0.5
 24
0.5
 15
0.5
 25
0.5
 16
0.0
 26
-235.0865634957712018
 36
1143.4751323155480804
 17
7520.7468970042427827
 27
1194.8274954448479548
 37
0.0
 40
407.8244006884077066
 41
2.305925030229746
 42
50.0
 43
0.0
 44
0.0
 50
0.0
 51
0.0000000000000051
 71
     0
 72
   100
 73
     1
 74
     3
 75
     0
 76
     0
 77
     0
 78
     0
  0
ENDTAB
  0
TABLE
  2
LTYPE
 70
     1
  0
LTYPE
  2
CONTINUOUS
 70
     0
  3
Solid line
 72
    65
 73
     0
 40
0.0
  0
ENDTAB
  0
TABLE
  2
LAYER
 70
     4
  0
LAYER
  2
0
 70
     0
 62
     7
  6
CONTINUOUS
  0
LAYER
  2
DEFPOINTS
 70
     0
 62
     7
  6
CONTINUOUS
  0
LAYER
  2
A-DETL-___2
 70
     0
 62
     2
  6
CONTINUOUS
  0
ENDTAB
  0
TABLE
  2
STYLE
 70
     2
  0
STYLE
  2
STANDARD
 70
     0
 40
0.0
 41
1.0
 50
0.0
 71
     0
 42
13.5133568035179294
  3
txt
  4

  0
ENDTAB
  0
TABLE
  2
VIEW
 70
     0
  0
ENDTAB
  0
TABLE
  2
UCS
 70
     0
  0
ENDTAB
  0
TABLE
  2
APPID
 70
    29
  0
APPID
  2
ACAD
 70
     0
  0
APPID
  2
ACADANNOTATIVE
 70
     0
  0
APPID
  2
ACAECLAYERSTANDARD
 70
     0
  0
APPID
  2
RAK
 70
     0
  0
APPID
  2
ACAD_NAV_VCDISPLAY
 70
     0
  0
APPID
  2
ACAD_EXEMPT_FROM_CAD_STANDARDS
 70
     0
  0
APPID
  2
ACCMTRANSPARENCY
 70
     0
  0
APPID
  2
GRADIENTCOLOR1ACI
 70
     0
  0
APPID
  2
GRADIENTCOLOR2ACI
 70
     0
  0
APPID
  2
ACAD_PSEXT
 70
     0
  0
APPID
  2
ACDBBLOCKREPETAG
 70
     0
  0
APPID
  2
ACAD_DSTYLE_DIMJAG
 70
     0
  0
APPID
  2
ACAD_DSTYLE_DIMTALN
 70
     0
  0
APPID
  2
HATCHBACKGROUNDCOLOR
 70
     0
  0
APPID
  2
ACDBDYNAMICBLOCKGUID
 70
     0
  0
APPID
  2
IDW_INSPOINT
 70
     0
  0
APPID
  2
ACDBAPPSYNCWITHXREF_ASSOCM
 70
     0
  0
APPID
  2
ACAUTHENVIRON
 70
     0
  0
APPID
  2
ACDBDYNAMICBLOCKTRUENAME
 70
     0
  0
APPID
  2
REVIT
 70
     0
  0
APPID
  2
ACAD_DSTYLE_DIMJOGGED_JOGA
 70
     0
  0
APPID
  2
ACAD_DSTYLE_DIMBREAK
 70
     0
  0
APPID
  2
_APP0
 70
     0
  0
APPID
  2
ADE
 70
     0
  0
APPID
  2
TCAD
 70
     0
  0
APPID
  2
ACDBBLOCKREPBTAG
 70
     0
  0
APPID
  2
ACAD_STEPID
 70
     0
  0
APPID
  2
ACAD_ASSOCPERSSUBENTMANAGER
 70
     0
  0
APPID
  2
ACAD_MLEADERVER
 70
     0
  0
ENDTAB
  0
TABLE
  2
DIMSTYLE
 70
     2
  0
DIMSTYLE
  2
STANDARD
 70
     0
  3

  4

  5

  6

  7

 40
1.0
 41
0.18
 42
0.0625
 43
0.38
 44
0.18
 45
0.0
 46
0.0
 47
0.0
 48
0.0
140
0.18
141
0.09
142
0.0
143
25.3999999999999986
144
1.0
145
0.0
146
1.0
147
0.09
 71
     0
 72
     0
 73
     1
 74
     1
 75
     0
 76
     0
 77
     0
 78
     0
170
     0
171
     2
172
     0
173
     0
174
     0
175
     0
176
     0
177
     0
178
     0
  0
ENDTAB
  0
ENDSEC
  0
SECTION
  2
BLOCKS
  0
BLOCK
  8
0
  2
$MODEL_SPACE
 70
     0
 10
0.0
 20
0.0
 30
0.0
  3
$MODEL_SPACE
  1

  0
ENDBLK
  5
3AAC1
  8
0
  0
BLOCK
 67
     1
  8
0
  2
$PAPER_SPACE
 70
     0
 10
0.0
 20
0.0
 30
0.0
  3
$PAPER_SPACE
  1

  0
ENDBLK
  5
3AABD
 67
     1
  8
0
  0
BLOCK
  8
0
  2
3D_M10-FLAT0
 70
     0
 10
0.0
 20
0.0
 30
0.0
  3
3D_M10-FLAT0
  1

  0
ENDBLK
  5
1F8A7
  8
0
  0
BLOCK
  8
0
  2
3D_M10-FLAT1
 70
     0
 10
0.0
 20
0.0
 30
0.0
  3
3D_M10-FLAT1
  1

  0
ENDBLK
  5
1F8AC
  8
0
  0
BLOCK
  8
0
  2
PLATE_ONE
 70
     0
 10
0.0
 20
0.0
 30
0.0
  3
PLATE_ONE
  1

  0
CIRCLE
  5
398E4
  8
A-DETL-___2
 10
0.0
 20
-33.0000000000040927
 30
0.0
 40
12.0
  0
CIRCLE
  5
398E5
  8
A-DETL-___2
 10
-13.0
 20
-46.0000000000040927
 30
0.0
 40
1.6000000000000001
  0
CIRCLE
  5
398E6
  8
A-DETL-___2
 10
-13.0000000000009095
 20
-20.000000000004551
 30
0.0
 40
1.6000000000000001
  0
CIRCLE
  5
398E7
  8
A-DETL-___2
 10
12.9999999999990905
 20
-20.0000000000040892
 30
0.0
 40
1.6000000000000001
  0
CIRCLE
  5
398E8
  8
A-DETL-___2
 10
13.0000000000009095
 20
-46.0000000000054428
 30
0.0
 40
1.6000000000000001
  0
CIRCLE
  5
398E9
  8
A-DETL-___2
 10
40.0
 20
-33.0000000000040927
 30
0.0
 40
12.0
  0
CIRCLE
  5
398EA
  8
A-DETL-___2
 10
27.0
 20
-46.0000000000040927
 30
0.0
 40
1.6000000000000001
  0
CIRCLE
  5
398EB
  8
A-DETL-___2
 10
26.9999999999990905
 20
-20.000000000004551
 30
0.0
 40
1.6000000000000001
  0
CIRCLE
  5
398EC
  8
A-DETL-___2
 10
52.9999999999990905
 20
-20.0000000000040892
 30
0.0
 40
1.6000000000000001
  0
CIRCLE
  5
398ED
  8
A-DETL-___2
 10
53.0000000000008882
 20
-46.0000000000054428
 30
0.0
 40
1.6000000000000001
  0
CIRCLE
  5
398EE
  8
A-DETL-___2
 10
0.0
 20
-73.0000000000040927
 30
0.0
 40
12.0
  0
CIRCLE
  5
398EF
  8
A-DETL-___2
 10
-13.0
 20
-86.0000000000040927
 30
0.0
 40
1.6000000000000001
  0
CIRCLE
  5
398F0
  8
A-DETL-___2
 10
-13.0000000000009095
 20
-60.0000000000045404
 30
0.0
 40
1.6000000000000001
  0
CIRCLE
  5
398F1
  8
A-DETL-___2
 10
12.9999999999990905
 20
-60.0000000000040785
 30
0.0
 40
1.6000000000000001
  0
CIRCLE
  5
398F2
  8
A-DETL-___2
 10
13.0000000000009095
 20
-86.000000000005457
 30
0.0
 40
1.6000000000000001
  0
CIRCLE
  5
398F3
  8
A-DETL-___2
 10
40.0
 20
-73.0000000000040927
 30
0.0
 40
12.0
  0
CIRCLE
  5
398F4
  8
A-DETL-___2
 10
27.0
 20
-86.0000000000040927
 30
0.0
 40
1.6000000000000001
  0
CIRCLE
  5
398F5
  8
A-DETL-___2
 10
26.9999999999990905
 20
-60.0000000000045404
 30
0.0
 40
1.6000000000000001
  0
CIRCLE
  5
398F6
  8
A-DETL-___2
 10
52.9999999999990905
 20
-60.0000000000040785
 30
0.0
 40
1.6000000000000001
  0
CIRCLE
  5
398F7
  8
A-DETL-___2
 10
53.0000000000008882
 20
-86.000000000005457
 30
0.0
 40
1.6000000000000001
  0
CIRCLE
  5
398F8
  8
A-DETL-___2
 10
0.0
 20
-113.0000000000041069
 30
0.0
 40
12.0
  0
CIRCLE
  5
398F9
  8
A-DETL-___2
 10
-13.0
 20
-126.0000000000041069
 30
0.0
 40
1.6000000000000001
  0
CIRCLE
  5
398FA
  8
A-DETL-___2
 10
-13.0000000000009095
 20
-100.0000000000045048
 30
0.0
 40
1.6000000000000001
  0
CIRCLE
  5
398FB
  8
A-DETL-___2
 10
12.9999999999990905
 20
-100.0000000000041069
 30
0.0
 40
1.6000000000000001
  0
CIRCLE
  5
398FC
  8
A-DETL-___2
 10
13.0000000000009095
 20
-126.0000000000054001
 30
0.0
 40
1.6000000000000001
  0
CIRCLE
  5
398FD
  8
A-DETL-___2
 10
40.0
 20
-113.0000000000041069
 30
0.0
 40
12.0
  0
CIRCLE
  5
398FE
  8
A-DETL-___2
 10
27.0
 20
-126.0000000000041069
 30
0.0
 40
1.6000000000000001
  0
CIRCLE
  5
398FF
  8
A-DETL-___2
 10
26.9999999999990905
 20
-100.0000000000045048
 30
0.0
 40
1.6000000000000001
  0
CIRCLE
  5
39900
  8
A-DETL-___2
 10
52.9999999999990905
 20
-100.0000000000041069
 30
0.0
 40
1.6000000000000001
  0
CIRCLE
  5
39901
  8
A-DETL-___2
 10
53.0000000000008882
 20
-126.0000000000054001
 30
0.0
 40
1.6000000000000001
  0
CIRCLE
  5
39902
  8
A-DETL-___2
 10
80.0000000000008953
 20
-113.0000000000041069
 30
0.0
 40
12.0
  0
CIRCLE
  5
39903
  8
A-DETL-___2
 10
67.0000000000009095
 20
-126.0000000000041069
 30
0.0
 40
1.6000000000000001
  0
CIRCLE
  5
39904
  8
A-DETL-___2
 10
67.0
 20
-100.0000000000045048
 30
0.0
 40
1.6000000000000001
  0
CIRCLE
  5
39905
  8
A-DETL-___2
 10
93.0
 20
-100.0000000000041069
 30
0.0
 40
1.6000000000000001
  0
CIRCLE
  5
39906
  8
A-DETL-___2
 10
93.0000000000018048
 20
-126.0000000000054001
 30
0.0
 40
1.6000000000000001
  0
CIRCLE
  5
39907
  8
A-DETL-___2
 10
0.0
 20
-153.0000000000057128
 30
0.0
 40
12.0
  0
CIRCLE
  5
39908
  8
A-DETL-___2
 10
-13.0
 20
-166.0000000000057128
 30
0.0
 40
1.6000000000000001
  0
CIRCLE
  5
39909
  8
A-DETL-___2
 10
-13.0000000000009095
 20
-140.0000000000063096
 30
0.0
 40
1.6000000000000001
  0
CIRCLE
  5
3990A
  8
A-DETL-___2
 10
12.9999999999990905
 20
-140.0000000000054001
 30
0.0
 40
1.6000000000000001
  0
CIRCLE
  5
3990B
  8
A-DETL-___2
 10
13.0000000000009095
 20
-166.0000000000069917
 30
0.0
 40
1.6000000000000001
  0
CIRCLE
  5
3990C
  8
A-DETL-___2
 10
40.0
 20
-153.0000000000057128
 30
0.0
 40
12.0
  0
CIRCLE
  5
3990D
  8
A-DETL-___2
 10
27.0
 20
-166.0000000000057128
 30
0.0
 40
1.6000000000000001
  0
CIRCLE
  5
3990E
  8
A-DETL-___2
 10
26.9999999999990905
 20
-140.0000000000063096
 30
0.0
 40
1.6000000000000001
  0
CIRCLE
  5
3990F
  8
A-DETL-___2
 10
52.9999999999990905
 20
-140.0000000000054001
 30
0.0
 40
1.6000000000000001
  0
CIRCLE
  5
39910
  8
A-DETL-___2
 10
53.0000000000008882
 20
-166.0000000000069917
 30
0.0
 40
1.6000000000000001
  0
CIRCLE
  5
39911
  8
A-DETL-___2
 10
80.0000000000008953
 20
-153.0000000000057128
 30
0.0
 40
12.0
  0
CIRCLE
  5
39912
  8
A-DETL-___2
 10
67.0000000000009095
 20
-166.0000000000057128
 30
0.0
 40
1.6000000000000001
  0
CIRCLE
  5
39913
  8
A-DETL-___2
 10
67.0
 20
-140.0000000000063096
 30
0.0
 40
1.6000000000000001
  0
CIRCLE
  5
39914
  8
A-DETL-___2
 10
93.0
 20
-140.0000000000054001
 30
0.0
 40
1.6000000000000001
  0
CIRCLE
  5
39915
  8
A-DETL-___2
 10
93.0000000000018048
 20
-166.0000000000069917
 30
0.0
 40
1.6000000000000001
  0
POLYLINE
  5
39916
  8
A-DETL-___2
 66
     1
 10
0.0
 20
0.0
 30
0.0
 70
     1
  0
VERTEX
  5
3AB05
  8
A-DETL-___2
 10
-4.0
 20
-98.0000000000050164
 30
0.0
  0
VERTEX
  5
3AB06
  8
A-DETL-___2
 10
4.0
 20
-98.0000000000050164
 30
0.0
 42
0.4142135623730907
  0
VERTEX
  5
3AB07
  8
A-DETL-___2
 10
8.0
 20
-94.0000000000050164
 30
0.0
  0
VERTEX
  5
3AB08
  8
A-DETL-___2
 10
8.0
 20
-92.0000000000040643
 30
0.0
 42
0.4142135623730951
  0
VERTEX
  5
3AB09
  8
A-DETL-___2
 10
4.0
 20
-88.0000000000040927
 30
0.0
  0
VERTEX
  5
3AB0A
  8
A-DETL-___2
 10
-4.0
 20
-88.0000000000040927
 30
0.0
 42
0.4142135623730951
  0
VERTEX
  5
3AB0B
  8
A-DETL-___2
 10
-8.0
 20
-92.0000000000040643
 30
0.0
  0
VERTEX
  5
3AB0C
  8
A-DETL-___2
 10
-8.0
 20
-94.0000000000050164
 30
0.0
 42
0.4142135623730907
  0
SEQEND
  5
3AB0D
  8
A-DETL-___2
  0
POLYLINE
  5
39917
  8
A-DETL-___2
 66
     1
 10
0.0
 20
0.0
 30
0.0
 70
     1
  0
VERTEX
  5
3AB0E
  8
A-DETL-___2
 10
55.0
 20
-157.0000000000059117
 30
0.0
  0
VERTEX
  5
3AB0F
  8
A-DETL-___2
 10
55.0
 20
-149.0000000000059117
 30
0.0
 42
-0.4142135623730907
  0
VERTEX
  5
3AB10
  8
A-DETL-___2
 10
59.0
 20
-145.0000000000059117
 30
0.0
  0
VERTEX
  5
3AB11
  8
A-DETL-___2
 10
61.0
 20
-145.0000000000059117
 30
0.0
 42
-0.4142135623730951
  0
VERTEX
  5
3AB12
  8
A-DETL-___2
 10
65.0
 20
-149.0000000000063096
 30
0.0
  0
VERTEX
  5
3AB13
  8
A-DETL-___2
 10
65.0
 20
-157.0000000000063949
 30
0.0
 42
-0.4142135623730951
  0
VERTEX
  5
3AB14
  8
A-DETL-___2
 10
61.0
 20
-161.0000000000059117
 30
0.0
  0
VERTEX
  5
3AB15
  8
A-DETL-___2
 10
59.0
 20
-161.0000000000059117
 30
0.0
 42
-0.4142135623730907
  0
SEQEND
  5
3AB16
  8
A-DETL-___2
  0
POLYLINE
  5
39918
  8
A-DETL-___2
 66
     1
 10
0.0
 20
0.0
 30
0.0
 70
     1
  0
VERTEX
  5
3AB17
  8
A-DETL-___2
 10
14.9999999999990905
 20
-69.0000000000040785
 30
0.0
  0
VERTEX
  5
3AB18
  8
A-DETL-___2
 10
14.9999999999990905
 20
-77.0000000000040927
 30
0.0
 42
0.4142135623730907
  0
VERTEX
  5
3AB19
  8
A-DETL-___2
 10
18.9999999999990905
 20
-81.0000000000040927
 30
0.0
  0
VERTEX
  5
3AB1A
  8
A-DETL-___2
 10
20.9999999999990905
 20
-81.0000000000040927
 30
0.0
 42
0.4142135623730951
  0
VERTEX
  5
3AB1B
  8
A-DETL-___2
 10
24.9999999999990905
 20
-77.0000000000040927
 30
0.0
  0
VERTEX
  5
3AB1C
  8
A-DETL-___2
 10
24.9999999999990905
 20
-69.0000000000040785
 30
0.0
 42
0.4142135623730951
  0
VERTEX
  5
3AB1D
  8
A-DETL-___2
 10
20.9999999999990905
 20
-65.0000000000040785
 30
0.0
  0
VERTEX
  5
3AB1E
  8
A-DETL-___2
 10
18.9999999999990905
 20
-65.0000000000040785
 30
0.0
 42
0.4142135623730907
  0
SEQEND
  5
3AB1F
  8
A-DETL-___2
  0
POLYLINE
  5
39919
  8
A-DETL-___2
 66
     1
 10
0.0
 20
0.0
 30
0.0
 70
     1
  0
VERTEX
  5
3AB20
  8
A-DETL-___2
 10
15.0
 20
-109.0000000000041069
 30
0.0
  0
VERTEX
  5
3AB21
  8
A-DETL-___2
 10
15.0
 20
-117.0000000000041069
 30
0.0
 42
0.4142135623730907
  0
VERTEX
  5
3AB22
  8
A-DETL-___2
 10
19.0
 20
-121.0000000000041069
 30
0.0
  0
VERTEX
  5
3AB23
  8
A-DETL-___2
 10
21.0
 20
-121.0000000000041069
 30
0.0
 42
0.4142135623730951
  0
VERTEX
  5
3AB24
  8
A-DETL-___2
 10
25.0
 20
-117.0000000000041069
 30
0.0
  0
VERTEX
  5
3AB25
  8
A-DETL-___2
 10
25.0
 20
-109.0000000000041069
 30
0.0
 42
0.4142135623730951
  0
VERTEX
  5
3AB26
  8
A-DETL-___2
 10
21.0
 20
-105.0000000000041069
 30
0.0
  0
VERTEX
  5
3AB27
  8
A-DETL-___2
 10
19.0
 20
-105.0000000000041069
 30
0.0
 42
0.4142135623730907
  0
SEQEND
  5
3AB28
  8
A-DETL-___2
  0
POLYLINE
  5
3991A
  8
A-DETL-___2
 66
     1
 10
0.0
 20
0.0
 30
0.0
 70
     1
  0
VERTEX
  5
3AB29
  8
A-DETL-___2
 10
36.0
 20
-138.0000000000050022
 30
0.0
  0
VERTEX
  5
3AB2A
  8
A-DETL-___2
 10
44.0
 20
-138.0000000000050022
 30
0.0
 42
0.4142135623730907
  0
VERTEX
  5
3AB2B
  8
A-DETL-___2
 10
48.0
 20
-134.0000000000050022
 30
0.0
  0
VERTEX
  5
3AB2C
  8
A-DETL-___2
 10
48.0
 20
-132.0000000000040075
 30
0.0
 42
0.4142135623730951
  0
VERTEX
  5
3AB2D
  8
A-DETL-___2
 10
44.0
 20
-128.0000000000040075
 30
0.0
  0
VERTEX
  5
3AB2E
  8
A-DETL-___2
 10
36.0
 20
-128.0000000000040075
 30
0.0
 42
0.4142135623730951
  0
VERTEX
  5
3AB2F
  8
A-DETL-___2
 10
32.0
 20
-132.0000000000040075
 30
0.0
  0
VERTEX
  5
3AB30
  8
A-DETL-___2
 10
32.0
 20
-134.0000000000050022
 30
0.0
 42
0.4142135623730907
  0
SEQEND
  5
3AB31
  8
A-DETL-___2
  0
POLYLINE
  5
3991B
  8
A-DETL-___2
 66
     1
 10
0.0
 20
0.0
 30
0.0
 70
     1
  0
VERTEX
  5
3AB32
  8
A-DETL-___2
 10
76.0000000000009095
 20
-138.0000000000050022
 30
0.0
  0
VERTEX
  5
3AB33
  8
A-DETL-___2
 10
84.0000000000008953
 20
-138.0000000000050022
 30
0.0
 42
0.4142135623730907
  0
VERTEX
  5
3AB34
  8
A-DETL-___2
 10
88.0000000000009095
 20
-134.0000000000050022
 30
0.0
  0
VERTEX
  5
3AB35
  8
A-DETL-___2
 10
88.0000000000009095
 20
-132.0000000000040075
 30
0.0
 42
0.4142135623730951
  0
VERTEX
  5
3AB36
  8
A-DETL-___2
 10
84.0000000000008953
 20
-128.0000000000040075
 30
0.0
  0
VERTEX
  5
3AB37
  8
A-DETL-___2
 10
76.0000000000009095
 20
-128.0000000000040075
 30
0.0
 42
0.4142135623730951
  0
VERTEX
  5
3AB38
  8
A-DETL-___2
 10
72.0000000000009095
 20
-132.0000000000040075
 30
0.0
  0
VERTEX
  5
3AB39
  8
A-DETL-___2
 10
72.0000000000009095
 20
-134.0000000000050022
 30
0.0
 42
0.4142135623730907
  0
SEQEND
  5
3AB3A
  8
A-DETL-___2
  0
POLYLINE
  5
3991C
  8
A-DETL-___2
 66
     1
 10
0.0
 20
0.0
 30
0.0
 70
     1
  0
VERTEX
  5
3AB3B
  8
A-DETL-___2
 10
36.0
 20
-58.0000000000050022
 30
0.0
  0
VERTEX
  5
3AB3C
  8
A-DETL-___2
 10
44.0
 20
-58.0000000000050022
 30
0.0
 42
0.4142135623730907
  0
VERTEX
  5
3AB3D
  8
A-DETL-___2
 10
48.0
 20
-54.0000000000049809
 30
0.0
  0
VERTEX
  5
3AB3E
  8
A-DETL-___2
 10
48.0
 20
-52.0000000000040927
 30
0.0
 42
0.4142135623730951
  0
VERTEX
  5
3AB3F
  8
A-DETL-___2
 10
44.0
 20
-48.0000000000040927
 30
0.0
  0
VERTEX
  5
3AB40
  8
A-DETL-___2
 10
36.0
 20
-48.0000000000040927
 30
0.0
 42
0.4142135623730951
  0
VERTEX
  5
3AB41
  8
A-DETL-___2
 10
32.0
 20
-52.0000000000040927
 30
0.0
  0
VERTEX
  5
3AB42
  8
A-DETL-___2
 10
32.0
 20
-54.0000000000049809
 30
0.0
 42
0.4142135623730907
  0
SEQEND
  5
3AB43
  8
A-DETL-___2
  0
CIRCLE
  5
3991D
  8
A-DETL-___2
 10
0.0
 20
-53.0000000000045475
 30
0.0
 40
1.6000000000000001
  0
CIRCLE
  5
3991E
  8
A-DETL-___2
 10
0.0
 20
-133.0000000000044906
 30
0.0
 40
1.6000000000000001
  0
CIRCLE
  5
3991F
  8
A-DETL-___2
 10
40.0
 20
-93.0000000000045475
 30
0.0
 40
1.6000000000000001
  0
ARC
  5
39920
  8
A-DETL-___2
 10
80.0000000000008953
 20
-93.0000000000045475
 30
0.0
 40
1.6000000000000001
 50
181.790784659328807
 51
358.2092153406711077
  0
CIRCLE
  5
39921
  8
A-DETL-___2
 10
-0.000000000001819
 20
-193.0000000000067928
 30
0.0
 40
12.0
  0
CIRCLE
  5
39922
  8
A-DETL-___2
 10
-13.0000000000018208
 20
-206.0000000000067928
 30
0.0
 40
1.6000000000000001
  0
CIRCLE
  5
39923
  8
A-DETL-___2
 10
-13.0000000000027303
 20
-180.0000000000073044
 30
0.0
 40
1.6000000000000001
  0
CIRCLE
  5
39924
  8
A-DETL-___2
 10
12.9999999999972697
 20
-180.0000000000067928
 30
0.0
 40
1.6000000000000001
  0
CIRCLE
  5
39925
  8
A-DETL-___2
 10
12.9999999999990905
 20
-206.0000000000082139
 30
0.0
 40
1.6000000000000001
  0
CIRCLE
  5
39926
  8
A-DETL-___2
 10
39.9999999999981668
 20
-193.0000000000067928
 30
0.0
 40
12.0
  0
CIRCLE
  5
39927
  8
A-DETL-___2
 10
26.999999999998181
 20
-206.0000000000067928
 30
0.0
 40
1.6000000000000001
  0
CIRCLE
  5
39928
  8
A-DETL-___2
 10
26.9999999999972715
 20
-180.0000000000073044
 30
0.0
 40
1.6000000000000001
  0
CIRCLE
  5
39929
  8
A-DETL-___2
 10
52.9999999999972715
 20
-180.0000000000067928
 30
0.0
 40
1.6000000000000001
  0
CIRCLE
  5
3992A
  8
A-DETL-___2
 10
52.9999999999990905
 20
-206.0000000000082139
 30
0.0
 40
1.6000000000000001
  0
CIRCLE
  5
3992B
  8
A-DETL-___2
 10
-0.000000000001819
 20
-233.0000000000067928
 30
0.0
 40
12.0
  0
CIRCLE
  5
3992C
  8
A-DETL-___2
 10
-13.0000000000018208
 20
-246.0000000000067928
 30
0.0
 40
1.6000000000000001
  0
CIRCLE
  5
3992D
  8
A-DETL-___2
 10
-13.0000000000027303
 20
-220.0000000000073044
 30
0.0
 40
1.6000000000000001
  0
CIRCLE
  5
3992E
  8
A-DETL-___2
 10
12.9999999999972697
 20
-220.0000000000067928
 30
0.0
 40
1.6000000000000001
  0
CIRCLE
  5
3992F
  8
A-DETL-___2
 10
12.9999999999990905
 20
-246.0000000000082139
 30
0.0
 40
1.6000000000000001
  0
CIRCLE
  5
39930
  8
A-DETL-___2
 10
39.9999999999981668
 20
-233.0000000000067928
 30
0.0
 40
12.0
  0
CIRCLE
  5
39931
  8
A-DETL-___2
 10
26.999999999998181
 20
-246.0000000000067928
 30
0.0
 40
1.6000000000000001
  0
CIRCLE
  5
39932
  8
A-DETL-___2
 10
26.9999999999972715
 20
-220.0000000000073044
 30
0.0
 40
1.6000000000000001
  0
CIRCLE
  5
39933
  8
A-DETL-___2
 10
52.9999999999972715
 20
-220.0000000000067928
 30
0.0
 40
1.6000000000000001
  0
CIRCLE
  5
39934
  8
A-DETL-___2
 10
52.9999999999990905
 20
-246.0000000000082139
 30
0.0
 40
1.6000000000000001
  0
CIRCLE
  5
39935
  8
A-DETL-___2
 10
-0.000000000001819
 20
-273.0000000000067075
 30
0.0
 40
12.0
  0
CIRCLE
  5
39936
  8
A-DETL-___2
 10
-13.0000000000018208
 20
-286.0000000000068212
 30
0.0
 40
1.6000000000000001
  0
CIRCLE
  5
39937
  8
A-DETL-___2
 10
-13.0000000000027303
 20
-260.000000000007276
 30
0.0
 40
1.6000000000000001
  0
CIRCLE
  5
39938
  8
A-DETL-___2
 10
12.9999999999972697
 20
-260.0000000000068212
 30
0.0
 40
1.6000000000000001
  0
CIRCLE
  5
39939
  8
A-DETL-___2
 10
12.9999999999990905
 20
-286.0000000000080718
 30
0.0
 40
1.6000000000000001
  0
CIRCLE
  5
3993A
  8
A-DETL-___2
 10
39.9999999999981668
 20
-273.0000000000067075
 30
0.0
 40
12.0
  0
CIRCLE
  5
3993B
  8
A-DETL-___2
 10
26.999999999998181
 20
-286.0000000000068212
 30
0.0
 40
1.6000000000000001
  0
CIRCLE
  5
3993C
  8
A-DETL-___2
 10
26.9999999999972715
 20
-260.000000000007276
 30
0.0
 40
1.6000000000000001
  0
CIRCLE
  5
3993D
  8
A-DETL-___2
 10
52.9999999999972715
 20
-260.0000000000068212
 30
0.0
 40
1.6000000000000001
  0
CIRCLE
  5
3993E
  8
A-DETL-___2
 10
52.9999999999990905
 20
-286.0000000000080718
 30
0.0
 40
1.6000000000000001
  0
CIRCLE
  5
3993F
  8
A-DETL-___2
 10
-0.000000000001819
 20
-313.0000000000084128
 30
0.0
 40
12.0
  0
CIRCLE
  5
39940
  8
A-DETL-___2
 10
-13.0000000000018208
 20
-326.0000000000084128
 30
0.0
 40
1.6000000000000001
  0
CIRCLE
  5
39941
  8
A-DETL-___2
 10
-13.0000000000027303
 20
-300.0000000000090949
 30
0.0
 40
1.6000000000000001
  0
CIRCLE
  5
39942
  8
A-DETL-___2
 10
12.9999999999972697
 20
-300.0000000000081855
 30
0.0
 40
1.6000000000000001
  0
CIRCLE
  5
39943
  8
A-DETL-___2
 10
12.9999999999990905
 20
-326.0000000000097202
 30
0.0
 40
1.6000000000000001
  0
CIRCLE
  5
39944
  8
A-DETL-___2
 10
39.9999999999981668
 20
-313.0000000000084128
 30
0.0
 40
12.0
  0
CIRCLE
  5
39945
  8
A-DETL-___2
 10
26.999999999998181
 20
-326.0000000000084128
 30
0.0
 40
1.6000000000000001
  0
CIRCLE
  5
39946
  8
A-DETL-___2
 10
26.9999999999972715
 20
-300.0000000000090949
 30
0.0
 40
1.6000000000000001
  0
CIRCLE
  5
39947
  8
A-DETL-___2
 10
52.9999999999972715
 20
-300.0000000000081855
 30
0.0
 40
1.6000000000000001
  0
CIRCLE
  5
39948
  8
A-DETL-___2
 10
52.9999999999990905
 20
-326.0000000000097202
 30
0.0
 40
1.6000000000000001
  0
POLYLINE
  5
39949
  8
A-DETL-___2
 66
     1
 10
0.0
 20
0.0
 30
0.0
 70
     1
  0
VERTEX
  5
3AB44
  8
A-DETL-___2
 10
-4.0000000000018172
 20
-258.0000000000076739
 30
0.0
  0
VERTEX
  5
3AB45
  8
A-DETL-___2
 10
3.999999999998181
 20
-258.0000000000076739
 30
0.0
 42
0.4142135623730907
  0
VERTEX
  5
3AB46
  8
A-DETL-___2
 10
7.999999999998181
 20
-254.0000000000077023
 30
0.0
  0
VERTEX
  5
3AB47
  8
A-DETL-___2
 10
7.999999999998181
 20
-252.0000000000067075
 30
0.0
 42
0.4142135623730951
  0
VERTEX
  5
3AB48
  8
A-DETL-___2
 10
3.999999999998181
 20
-248.0000000000067075
 30
0.0
  0
VERTEX
  5
3AB49
  8
A-DETL-___2
 10
-4.0000000000018172
 20
-248.0000000000067075
 30
0.0
 42
0.4142135623730951
  0
VERTEX
  5
3AB4A
  8
A-DETL-___2
 10
-8.0000000000018172
 20
-252.0000000000067075
 30
0.0
  0
VERTEX
  5
3AB4B
  8
A-DETL-___2
 10
-8.0000000000018172
 20
-254.0000000000077023
 30
0.0
 42
0.4142135623730907
  0
SEQEND
  5
3AB4C
  8
A-DETL-___2
  0
POLYLINE
  5
3994A
  8
A-DETL-___2
 66
     1
 10
0.0
 20
0.0
 30
0.0
 70
     1
  0
VERTEX
  5
3AB4D
  8
A-DETL-___2
 10
14.9999999999972697
 20
-229.0000000000067928
 30
0.0
  0
VERTEX
  5
3AB4E
  8
A-DETL-___2
 10
14.9999999999972697
 20
-237.0000000000067928
 30
0.0
 42
0.4142135623730907
  0
VERTEX
  5
3AB4F
  8
A-DETL-___2
 10
18.9999999999972715
 20
-241.0000000000067928
 30
0.0
  0
VERTEX
  5
3AB50
  8
A-DETL-___2
 10
20.9999999999972715
 20
-241.0000000000067928
 30
0.0
 42
0.4142135623730951
  0
VERTEX
  5
3AB51
  8
A-DETL-___2
 10
24.9999999999972786
 20
-237.0000000000067928
 30
0.0
  0
VERTEX
  5
3AB52
  8
A-DETL-___2
 10
24.9999999999972786
 20
-229.0000000000067928
 30
0.0
 42
0.4142135623730951
  0
VERTEX
  5
3AB53
  8
A-DETL-___2
 10
20.9999999999972715
 20
-225.0000000000067928
 30
0.0
  0
VERTEX
  5
3AB54
  8
A-DETL-___2
 10
18.9999999999972715
 20
-225.0000000000067928
 30
0.0
 42
0.4142135623730907
  0
SEQEND
  5
3AB55
  8
A-DETL-___2
  0
POLYLINE
  5
3994B
  8
A-DETL-___2
 66
     1
 10
0.0
 20
0.0
 30
0.0
 70
     1
  0
VERTEX
  5
3AB56
  8
A-DETL-___2
 10
14.9999999999981792
 20
-269.0000000000068212
 30
0.0
  0
VERTEX
  5
3AB57
  8
A-DETL-___2
 10
14.9999999999981792
 20
-277.0000000000067075
 30
0.0
 42
0.4142135623730907
  0
VERTEX
  5
3AB58
  8
A-DETL-___2
 10
18.999999999998181
 20
-281.0000000000067075
 30
0.0
  0
VERTEX
  5
3AB59
  8
A-DETL-___2
 10
20.999999999998181
 20
-281.0000000000067075
 30
0.0
 42
0.4142135623730951
  0
VERTEX
  5
3AB5A
  8
A-DETL-___2
 10
24.999999999998181
 20
-277.0000000000067075
 30
0.0
  0
VERTEX
  5
3AB5B
  8
A-DETL-___2
 10
24.999999999998181
 20
-269.0000000000068212
 30
0.0
 42
0.4142135623730951
  0
VERTEX
  5
3AB5C
  8
A-DETL-___2
 10
20.999999999998181
 20
-265.0000000000068212
 30
0.0
  0
VERTEX
  5
3AB5D
  8
A-DETL-___2
 10
18.999999999998181
 20
-265.0000000000068212
 30
0.0
 42
0.4142135623730907
  0
SEQEND
  5
3AB5E
  8
A-DETL-___2
  0
POLYLINE
  5
3994C
  8
A-DETL-___2
 66
     1
 10
0.0
 20
0.0
 30
0.0
 70
     1
  0
VERTEX
  5
3AB5F
  8
A-DETL-___2
 10
35.999999999998181
 20
-298.0000000000076739
 30
0.0
  0
VERTEX
  5
3AB60
  8
A-DETL-___2
 10
43.9999999999981597
 20
-298.0000000000076739
 30
0.0
 42
0.4142135623730907
  0
VERTEX
  5
3AB61
  8
A-DETL-___2
 10
47.999999999998181
 20
-294.0000000000076739
 30
0.0
  0
VERTEX
  5
3AB62
  8
A-DETL-___2
 10
47.999999999998181
 20
-292.0000000000068212
 30
0.0
 42
0.4142135623730951
  0
VERTEX
  5
3AB63
  8
A-DETL-___2
 10
43.9999999999981597
 20
-288.0000000000068212
 30
0.0
  0
VERTEX
  5
3AB64
  8
A-DETL-___2
 10
35.999999999998181
 20
-288.0000000000068212
 30
0.0
 42
0.4142135623730951
  0
VERTEX
  5
3AB65
  8
A-DETL-___2
 10
31.999999999998181
 20
-292.0000000000068212
 30
0.0
  0
VERTEX
  5
3AB66
  8
A-DETL-___2
 10
31.999999999998181
 20
-294.0000000000076739
 30
0.0
 42
0.4142135623730907
  0
SEQEND
  5
3AB67
  8
A-DETL-___2
  0
POLYLINE
  5
3994D
  8
A-DETL-___2
 66
     1
 10
0.0
 20
0.0
 30
0.0
 70
     1
  0
VERTEX
  5
3AB68
  8
A-DETL-___2
 10
35.999999999998181
 20
-218.0000000000077023
 30
0.0
  0
VERTEX
  5
3AB69
  8
A-DETL-___2
 10
43.9999999999981597
 20
-218.0000000000077023
 30
0.0
 42
0.4142135623730907
  0
VERTEX
  5
3AB6A
  8
A-DETL-___2
 10
47.999999999998181
 20
-214.0000000000077023
 30
0.0
  0
VERTEX
  5
3AB6B
  8
A-DETL-___2
 10
47.999999999998181
 20
-212.0000000000067928
 30
0.0
 42
0.4142135623730951
  0
VERTEX
  5
3AB6C
  8
A-DETL-___2
 10
43.9999999999981597
 20
-208.0000000000067928
 30
0.0
  0
VERTEX
  5
3AB6D
  8
A-DETL-___2
 10
35.999999999998181
 20
-208.0000000000067928
 30
0.0
 42
0.4142135623730951
  0
VERTEX
  5
3AB6E
  8
A-DETL-___2
 10
31.999999999998181
 20
-212.0000000000067928
 30
0.0
  0
VERTEX
  5
3AB6F
  8
A-DETL-___2
 10
31.999999999998181
 20
-214.0000000000077023
 30
0.0
 42
0.4142135623730907
  0
SEQEND
  5
3AB70
  8
A-DETL-___2
  0
CIRCLE
  5
3994E
  8
A-DETL-___2
 10
-0.000000000001819
 20
-213.0000000000073044
 30
0.0
 40
1.6000000000000001
  0
CIRCLE
  5
3994F
  8
A-DETL-___2
 10
-0.000000000001819
 20
-293.000000000007276
 30
0.0
 40
1.6000000000000001
  0
CIRCLE
  5
39950
  8
A-DETL-___2
 10
39.9999999999981668
 20
-253.0000000000073044
 30
0.0
 40
1.6000000000000001
  0
POLYLINE
  5
39951
  8
A-DETL-___2
 66
     1
 10
0.0
 20
0.0
 30
0.0
  0
VERTEX
  5
3AB71
  8
A-DETL-___2
 10
59.9499999999989015
 20
-185.0000000000067928
 30
0.0
  0
VERTEX
  5
3AB72
  8
A-DETL-___2
 10
59.9499999999989015
 20
-172.9500000000059003
 30
0.0
  0
VERTEX
  5
3AB73
  8
A-DETL-___2
 10
99.9499999999998465
 20
-172.9493792418448095
 30
0.0
  0
VERTEX
  5
3AB74
  8
A-DETL-___2
 10
99.9499999999998465
 20
-121.0000000000045048
 30
0.0
  0
SEQEND
  5
3AB75
  8
A-DETL-___2
  0
POLYLINE
  5
39952
  8
A-DETL-___2
 66
     1
 10
0.0
 20
0.0
 30
0.0
  0
VERTEX
  5
3AB76
  8
A-DETL-___2
 10
99.9499999999998465
 20
-121.0000000000045048
 30
0.0
  0
VERTEX
  5
3AB77
  8
A-DETL-___2
 10
99.0000000000008953
 20
-121.0000000000045048
 30
0.0
 42
-0.4142135623730907
  0
VERTEX
  5
3AB78
  8
A-DETL-___2
 10
95.0000000000008811
 20
-117.0000000000045048
 30
0.0
  0
VERTEX
  5
3AB79
  8
A-DETL-___2
 10
95.0000000000008811
 20
-109.0000000000045048
 30
0.0
 42
-0.4142135623730907
  0
VERTEX
  5
3AB7A
  8
A-DETL-___2
 10
99.0000000000008953
 20
-105.0000000000045048
 30
0.0
  0
VERTEX
  5
3AB7B
  8
A-DETL-___2
 10
99.9499999999998465
 20
-105.0000000000045048
 30
0.0
  0
VERTEX
  5
3AB7C
  8
A-DETL-___2
 10
99.9499999999998465
 20
-93.0500000000047436
 30
0.0
  0
VERTEX
  5
3AB7D
  8
A-DETL-___2
 10
81.5992185591730959
 20
-93.0500000000047436
 30
0.0
  0
SEQEND
  5
3AB7E
  8
A-DETL-___2
  0
POLYLINE
  5
39953
  8
A-DETL-___2
 66
     1
 10
0.0
 20
0.0
 30
0.0
  0
VERTEX
  5
3AB7F
  8
A-DETL-___2
 10
78.4007814408287231
 20
-93.0500000000047436
 30
0.0
  0
VERTEX
  5
3AB80
  8
A-DETL-___2
 10
59.9499999999998181
 20
-93.0500000000047436
 30
0.0
  0
VERTEX
  5
3AB81
  8
A-DETL-___2
 10
59.9500000000007205
 20
-41.0000000000040927
 30
0.0
  0
VERTEX
  5
3AB82
  8
A-DETL-___2
 10
59.0
 20
-41.0000000000040927
 30
0.0
 42
-0.4142135623730907
  0
VERTEX
  5
3AB83
  8
A-DETL-___2
 10
55.0
 20
-37.0000000000040998
 30
0.0
  0
VERTEX
  5
3AB84
  8
A-DETL-___2
 10
55.0
 20
-29.0000000000040892
 30
0.0
 42
-0.4142135623730907
  0
VERTEX
  5
3AB85
  8
A-DETL-___2
 10
59.0
 20
-25.0000000000040892
 30
0.0
  0
VERTEX
  5
3AB86
  8
A-DETL-___2
 10
59.9500000000007205
 20
-25.0000000000040892
 30
0.0
  0
VERTEX
  5
3AB87
  8
A-DETL-___2
 10
59.9500000000007205
 20
-11.0000000000009095
 30
0.0
  0
VERTEX
  5
3AB88
  8
A-DETL-___2
 10
13.0
 20
-11.0000000000004405
 30
0.0
 42
-0.4142135623730925
  0
VERTEX
  5
3AB89
  8
A-DETL-___2
 10
9.0
 20
-7.0000000000004521
 30
0.0
  0
VERTEX
  5
3AB8A
  8
A-DETL-___2
 10
9.0
 20
0.0
 30
0.0
 42
0.9999999999999998
  0
VERTEX
  5
3AB8B
  8
A-DETL-___2
 10
-9.0
 20
0.0
 30
0.0
  0
VERTEX
  5
3AB8C
  8
A-DETL-___2
 10
-9.0
 20
-7.0
 30
0.0
 42
-0.4142135623730951
  0
VERTEX
  5
3AB8D
  8
A-DETL-___2
 10
-13.0
 20
-11.0
 30
0.0
  0
VERTEX
  5
3AB8E
  8
A-DETL-___2
 10
-18.0000000000009095
 20
-11.0
 30
0.0
 42
0.4142135623730951
  0
VERTEX
  5
3AB8F
  8
A-DETL-___2
 10
-22.0000000000009095
 20
-15.0
 30
0.0
  0
VERTEX
  5
3AB90
  8
A-DETL-___2
 10
-22.0000000000009095
 20
-60.000000000001819
 30
0.0
 42
-0.4142135623730951
  0
VERTEX
  5
3AB91
  8
A-DETL-___2
 10
-26.0000000000009095
 20
-64.000000000001819
 30
0.0
  0
VERTEX
  5
3AB92
  8
A-DETL-___2
 10
-32.9999999999990905
 20
-64.000000000001819
 30
0.0
 42
0.9999999999999998
  0
VERTEX
  5
3AB93
  8
A-DETL-___2
 10
-32.9999999999990905
 20
-82.000000000001819
 30
0.0
  0
VERTEX
  5
3AB94
  8
A-DETL-___2
 10
-26.0000000000009095
 20
-82.000000000001819
 30
0.0
 42
-0.4142135623730951
  0
VERTEX
  5
3AB95
  8
A-DETL-___2
 10
-22.0000000000009095
 20
-86.000000000001819
 30
0.0
  0
VERTEX
  5
3AB96
  8
A-DETL-___2
 10
-22.0000000000009095
 20
-140.0000000000017906
 30
0.0
 42
-0.4142135623730951
  0
VERTEX
  5
3AB97
  8
A-DETL-___2
 10
-26.0000000000009095
 20
-144.0000000000017906
 30
0.0
  0
VERTEX
  5
3AB98
  8
A-DETL-___2
 10
-32.9999999999990905
 20
-144.0000000000017906
 30
0.0
 42
0.9999999999999998
  0
VERTEX
  5
3AB99
  8
A-DETL-___2
 10
-32.9999999999990905
 20
-162.0000000000019895
 30
0.0
  0
VERTEX
  5
3AB9A
  8
A-DETL-___2
 10
-26.0000000000009095
 20
-162.0000000000019895
 30
0.0
 42
-0.4142135623730951
  0
VERTEX
  5
3AB9B
  8
A-DETL-___2
 10
-22.0000000000009095
 20
-166.0000000000019895
 30
0.0
  0
VERTEX
  5
3AB9C
  8
A-DETL-___2
 10
-22.0000000000009095
 20
-220.0000000000036948
 30
0.0
 42
-0.4142135623730951
  0
VERTEX
  5
3AB9D
  8
A-DETL-___2
 10
-26.0000000000009095
 20
-224.0000000000036948
 30
0.0
  0
VERTEX
  5
3AB9E
  8
A-DETL-___2
 10
-32.9999999999990905
 20
-224.0000000000036948
 30
0.0
 42
0.9999999999999998
  0
VERTEX
  5
3AB9F
  8
A-DETL-___2
 10
-32.9999999999990905
 20
-242.0000000000036096
 30
0.0
  0
VERTEX
  5
3ABA0
  8
A-DETL-___2
 10
-26.0000000000009095
 20
-242.0000000000036096
 30
0.0
 42
-0.4142135623730951
  0
VERTEX
  5
3ABA1
  8
A-DETL-___2
 10
-22.0000000000009095
 20
-246.0000000000036096
 30
0.0
  0
VERTEX
  5
3ABA2
  8
A-DETL-___2
 10
-22.0000000000009095
 20
-300.0000000000039222
 30
0.0
 42
-0.4142135623730951
  0
VERTEX
  5
3ABA3
  8
A-DETL-___2
 10
-26.0000000000009095
 20
-304.0000000000039222
 30
0.0
  0
VERTEX
  5
3ABA4
  8
A-DETL-___2
 10
-32.9999999999990905
 20
-304.0000000000039222
 30
0.0
 42
0.9999999999999998
  0
VERTEX
  5
3ABA5
  8
A-DETL-___2
 10
-32.9999999999990905
 20
-322.0000000000039222
 30
0.0
  0
VERTEX
  5
3ABA6
  8
A-DETL-___2
 10
-26.0000000000009095
 20
-322.0000000000039222
 30
0.0
 42
-0.4142135623730951
  0
VERTEX
  5
3ABA7
  8
A-DETL-___2
 10
-22.0000000000009095
 20
-326.0000000000039222
 30
0.0
  0
VERTEX
  5
3ABA8
  8
A-DETL-___2
 10
-22.0000000000009095
 20
-331.0000000000064233
 30
0.0
 42
0.4142135623730951
  0
VERTEX
  5
3ABA9
  8
A-DETL-___2
 10
-18.0000000000009095
 20
-335.0000000000064233
 30
0.0
  0
VERTEX
  5
3ABAA
  8
A-DETL-___2
 10
27.0
 20
-335.0000000000064233
 30
0.0
 42
-0.4142135623730951
  0
VERTEX
  5
3ABAB
  8
A-DETL-___2
 10
31.0
 20
-339.0000000000064233
 30
0.0
  0
VERTEX
  5
3ABAC
  8
A-DETL-___2
 10
31.0
 20
-346.0000000000118234
 30
0.0
 42
0.9999999999999998
  0
VERTEX
  5
3ABAD
  8
A-DETL-___2
 10
49.0
 20
-346.0000000000118234
 30
0.0
  0
VERTEX
  5
3ABAE
  8
A-DETL-___2
 10
49.0
 20
-339.0000000000064233
 30
0.0
 42
-0.4142135623730951
  0
VERTEX
  5
3ABAF
  8
A-DETL-___2
 10
53.0
 20
-335.0000000000064233
 30
0.0
  0
VERTEX
  5
3ABB0
  8
A-DETL-___2
 10
59.9499999999980133
 20
-335.0000000000064233
 30
0.0
  0
VERTEX
  5
3ABB1
  8
A-DETL-___2
 10
59.9499999999980133
 20
-321.000000000008697
 30
0.0
  0
VERTEX
  5
3ABB2
  8
A-DETL-___2
 10
58.999999999998181
 20
-321.000000000008697
 30
0.0
 42
-0.4142135623730907
  0
VERTEX
  5
3ABB3
  8
A-DETL-___2
 10
54.999999999998181
 20
-317.0000000000085834
 30
0.0
  0
VERTEX
  5
3ABB4
  8
A-DETL-___2
 10
54.999999999998181
 20
-309.0000000000085834
 30
0.0
 42
-0.4142135623730907
  0
VERTEX
  5
3ABB5
  8
A-DETL-___2
 10
58.999999999998181
 20
-305.0000000000085834
 30
0.0
  0
VERTEX
  5
3ABB6
  8
A-DETL-___2
 10
59.9499999999980133
 20
-305.0000000000085834
 30
0.0
  0
VERTEX
  5
3ABB7
  8
A-DETL-___2
 10
59.9499999999989015
 20
-201.0000000000067928
 30
0.0
  0
VERTEX
  5
3ABB8
  8
A-DETL-___2
 10
58.999999999998181
 20
-201.0000000000067928
 30
0.0
 42
-0.4142135623730907
  0
VERTEX
  5
3ABB9
  8
A-DETL-___2
 10
54.999999999998181
 20
-197.0000000000067928
 30
0.0
  0
VERTEX
  5
3ABBA
  8
A-DETL-___2
 10
54.999999999998181
 20
-189.0000000000067928
 30
0.0
 42
-0.4142135623730907
  0
VERTEX
  5
3ABBB
  8
A-DETL-___2
 10
58.999999999998181
 20
-185.0000000000067928
 30
0.0
  0
VERTEX
  5
3ABBC
  8
A-DETL-___2
 10
59.9499999999989015
 20
-185.0000000000067928
 30
0.0
  0
SEQEND
  5
3ABBD
  8
A-DETL-___2
  0
CIRCLE
  5
39954
  8
A-DETL-___2
 10
0.0
 20
0.0
 30
0.0
 40
4.5
  0
CIRCLE
  5
39955
  8
A-DETL-___2
 10
40.0
 20
-346.0000000000118234
 30
0.0
 40
4.5
  0
CIRCLE
  5
39956
  8
A-DETL-___2
 10
-32.9999999999990905
 20
-313.0000000000038085
 30
0.0
 40
4.5
  0
CIRCLE
  5
39957
  8
A-DETL-___2
 10
-32.9999999999990905
 20
-233.0000000000036096
 30
0.0
 40
4.5
  0
CIRCLE
  5
39958
  8
A-DETL-___2
 10
-32.9999999999990905
 20
-153.0000000000019895
 30
0.0
 40
4.5
  0
CIRCLE
  5
39959
  8
A-DETL-___2
 10
-32.9999999999990905
 20
-73.0000000000017906
 30
0.0
 40
4.5
  0
CIRCLE
  5
3995A
  8
A-DETL-___2
 10
0.0
 20
-53.0000000000045475
 30
0.0
 40
2.0
  0
POLYLINE
  5
3995B
  8
A-DETL-___2
 66
     1
 10
0.0
 20
0.0
 30
0.0
 70
     1
  0
VERTEX
  5
3ABBE
  8
A-DETL-___2
 10
20.0
 20
-28.000000000003201
 30
0.0
  0
VERTEX
  5
3ABBF
  8
A-DETL-___2
 10
15.66987298107688
 20
-35.5000000000045475
 30
0.0
  0
VERTEX
  5
3ABC0
  8
A-DETL-___2
 10
24.3301270189231182
 20
-35.5000000000045475
 30
0.0
  0
SEQEND
  5
3ABC1
  8
A-DETL-___2
  0
POLYLINE
  5
3995C
  8
A-DETL-___2
 66
     1
 10
0.0
 20
0.0
 30
0.0
 70
     1
  0
VERTEX
  5
3ABC2
  8
A-DETL-___2
 10
20.0000000054369593
 20
-187.5064383850543948
 30
0.0
  0
VERTEX
  5
3ABC3
  8
A-DETL-___2
 10
15.6698729865138304
 20
-195.0064383850557022
 30
0.0
  0
VERTEX
  5
3ABC4
  8
A-DETL-___2
 10
24.3301270243600811
 20
-195.0064383850557022
 30
0.0
  0
SEQEND
  5
3ABC5
  8
A-DETL-___2
  0
ENDBLK
  5
391D4
  8
0
  0
ENDSEC
  0
SECTION
  2
ENTITIES
  0
INSERT
  5
1F83B
  8
0
  2
3D_M10-FLAT0
 10
4866.9997079202821624
 20
-1332.8687121905888944
 30
0.0
  0
INSERT
  5
1F83D
  8
0
  2
3D_M10-FLAT1
 10
4869.5065341973759132
 20
-1332.8687121905888944
 30
0.0
  0
INSERT
  5
3983F
  8
DEFPOINTS
  2
PLATE_ONE
 10
7491.7527029734837924
 20
1367.827495921685113
 30
0.0
  0
ENDSEC
  0
EOF
