  0
SECTION
  2
HEADER
  9
$ACADVER
  1
AC1009
  9
$INSBASE
 10
0.0
 20
0.0
 30
0.0
  9
$EXTMIN
 10
7449.7527029734847019
 20
1010.4105692305779485
 30
0.0
  9
$EXTMAX
 10
7707.2457341390299916
 20
1376.827495921685113
 30
0.0
  9
$LIMMIN
 10
0.0
 20
0.0
  9
$LIMMAX
 10
12.0
 20
9.0
  9
$ORTHOMODE
 70
     0
  9
$REGENMODE
 70
     1
  9
$FILLMODE
 70
     1
  9
$QTEXTMODE
 70
     0
  9
$MIRRTEXT
 70
     1
  9
$DRAGMODE
 70
     2
  9
$LTSCALE
 40
10.0
  9
$OSMODE
 70
  1519
  9
$ATTMODE
 70
     1
  9
$TEXTSIZE
 40
13.5133568035179294
  9
$TRACEWID
 40
0.05
  9
$TEXTSTYLE
  7
STANDARD
  9
$CLAYER
  8
DEFPOINTS
  9
$CELTYPE
  6
BYLAYER
  9
$CECOLOR
 62
   256
  9
$DIMSCALE
 40
1.0
  9
$DIMASZ
 40
0.18
  9
$DIMEXO
 40
0.0625
  9
$DIMDLI
 40
0.38
  9
$DIMRND
 40
0.0
  9
$DIMDLE
 40
0.0
  9
$DIMEXE
 40
0.18
  9
$DIMTP
 40
0.0
  9
$DIMTM
 40
0.0
  9
$DIMTXT
 40
26.3999120836404302
  9
$DIMCEN
 40
0.09
  9
$DIMTSZ
 40
0.0
  9
$DIMTOL
 70
     0
  9
$DIMLIM
 70
     0
  9
$DIMTIH
 70
     1
  9
$DIMTOH
 70
     1
  9
$DIMSE1
 70
     0
  9
$DIMSE2
 70
     0
  9
$DIMTAD
 70
     0
  9
$DIMZIN
 70
     0
  9
$DIMBLK
  1

  9
$DIMASO
 70
     1
  9
$DIMSHO
 70
     1
  9
$DIMPOST
  1

  9
$DIMAPOST
  1

  9
$DIMALT
 70
     0
  9
$DIMALTD
 70
     2
  9
$DIMALTF
 40
25.3999999999999986
  9
$DIMLFAC
 40
1.0
  9
$DIMTOFL
 70
     0
  9
$DIMTVP
 40
0.0
  9
$DIMTIX
 70
     0
  9
$DIMSOXD
 70
     0
  9
$DIMSAH
 70
     0
  9
$DIMBLK1
  1

  9
$DIMBLK2
  1

  9
$DIMSTYLE
  2
STANDARD
  9
$DIMCLRD
 70
     0
  9
$DIMCLRE
 70
     0
  9
$DIMCLRT
 70
     0
  9
$DIMTFAC
 40
1.0
  9
$DIMGAP
 40
0.09
  9
$LUNITS
 70
     2
  9
$LUPREC
 70
     8
  9
$SKETCHINC
 40
0.1
  9
$FILLETRAD
 40
4.0
  9
$AUNITS
 70
     0
  9
$AUPREC
 70
     0
  9
$MENU
  1
.
  9
$ELEVATION
 40
0.0
  9
$PELEVATION
 40
0.0
  9
$THICKNESS
 40
0.0
  9
$LIMCHECK
 70
     0
  9
$BLIPMODE
 70
     0
  9
$CHAMFERA
 40
0.0
  9
$CHAMFERB
 40
0.0
  9
$SKPOLY
 70
     0
  9
$TDCREATE
 40
2453809.646643518935889
  9
$TDUPDATE
 40
2458724.4656828711740673
  9
$TDINDWG
 40
30.3882224420999982
  9
$TDUSRTIMER
 40
30.3882217130000001
  9
$USRTIMER
 70
     1
  9
$ANGBASE
 50
0.0
  9
$ANGDIR
 70
     0
  9
$PDMODE
 70
     0
  9
$PDSIZE
 40
0.0
  9
$PLINEWID
 40
0.0
  9
$COORDS
 70
     1
  9
$SPLFRAME
 70
     0
  9
$SPLINETYPE
 70
     6
  9
$SPLINESEGS
 70
     8
  9
$ATTDIA
 70
     1
  9
$ATTREQ
 70
     1
  9
$HANDLING
 70
     1
  9
$HANDSEED
  5
39E93
  9
$SURFTAB1
 70
     6
  9
$SURFTAB2
 70
     6
  9
$SURFTYPE
 70
     6
  9
$SURFU
 70
     6
  9
$SURFV
 70
     6
  9
$UCSNAME
  2

  9
$UCSORG
 10
0.0
 20
0.0
 30
0.0
  9
$UCSXDIR
 10
1.0
 20
0.0
 30
0.0
  9
$UCSYDIR
 10
0.0
 20
1.0
 30
0.0
  9
$PUCSNAME
  2

  9
$PUCSORG
 10
0.0
 20
0.0
 30
0.0
  9
$PUCSXDIR
 10
1.0
 20
0.0
 30
0.0
  9
$PUCSYDIR
 10
0.0
 20
1.0
 30
0.0
  9
$USERI1
 70
     0
  9
$USERI2
 70
     0
  9
$USERI3
 70
     0
  9
$USERI4
 70
     0
  9
$USERI5
 70
     0
  9
$USERR1
 40
0.0
  9
$USERR2
 40
0.0
  9
$USERR3
 40
0.0
  9
$USERR4
 40
0.0
  9
$USERR5
 40
0.0
  9
$WORLDVIEW
 70
     1
  9
$SHADEDGE
 70
     3
  9
$SHADEDIF
 70
    70
  9
$TILEMODE
 70
     1
  9
$MAXACTVP
 70
    64
  9
$PLIMCHECK
 70
     0
  9
$PEXTMIN
 10
1.0000000000000000E+20
 20
1.0000000000000000E+20
 30
1.0000000000000000E+20
  9
$PEXTMAX
 10
-1.0000000000000000E+20
 20
-1.0000000000000000E+20
 30
-1.0000000000000000E+20
  9
$PLIMMIN
 10
0.0
 20
0.0
  9
$PLIMMAX
 10
12.0
 20
9.0
  9
$UNITMODE
 70
     0
  9
$VISRETAIN
 70
     1
  9
$PLINEGEN
 70
     0
  9
$PSLTSCALE
 70
     1
  0
ENDSEC
  0
SECTION
  2
TABLES
  0
TABLE
  2
VPORT
 70
     1
  0
VPORT
  2
*ACTIVE
 70
     0
 10
0.0
 20
0.0
 11
1.0
 21
1.0
 12
3152.8194002631958028
 22
-467.0547303510829238
 13
0.0
 23
0.0
 14
0.5
 24
0.5
 15
0.5
 25
0.5
 16
-0.0000000000009095
 26
0.0
 36
3001.884201086361827
 17
5167.9538307525699565
 27
1462.7762417788960647
 37
-3780.9050346801059277
 40
2640.924446083606199
 41
1.2380952380952379
 42
50.0
 43
0.0
 44
0.0
 50
0.0
 51
0.0
 71
     0
 72
   100
 73
     1
 74
     3
 75
     0
 76
     0
 77
     0
 78
     0
  0
ENDTAB
  0
TABLE
  2
LTYPE
 70
     1
  0
LTYPE
  2
CONTINUOUS
 70
     0
  3
Solid line
 72
    65
 73
     0
 40
0.0
  0
ENDTAB
  0
TABLE
  2
LAYER
 70
     4
  0
LAYER
  2
0
 70
     0
 62
     7
  6
CONTINUOUS
  0
LAYER
  2
DEFPOINTS
 70
     0
 62
     7
  6
CONTINUOUS
  0
LAYER
  2
A-DETL-___4
 70
     0
 62
     4
  6
CONTINUOUS
  0
LAYER
  2
A-DETL-___2
 70
     0
 62
     2
  6
CONTINUOUS
  0
ENDTAB
  0
TABLE
  2
STYLE
 70
     1
  0
STYLE
  2
STANDARD
 70
     0
 40
0.0
 41
1.0
 50
0.0
 71
     0
 42
13.5133568035179294
  3
txt
  4

  0
ENDTAB
  0
TABLE
  2
VIEW
 70
     0
  0
ENDTAB
  0
TABLE
  2
UCS
 70
     0
  0
ENDTAB
  0
TABLE
  2
APPID
 70
    29
  0
APPID
  2
ACAD
 70
     0
  0
APPID
  2
ACAECLAYERSTANDARD
 70
     0
  0
APPID
  2
RAK
 70
     0
  0
APPID
  2
ACAD_NAV_VCDISPLAY
 70
     0
  0
APPID
  2
ACAD_EXEMPT_FROM_CAD_STANDARDS
 70
     0
  0
APPID
  2
ACCMTRANSPARENCY
 70
     0
  0
APPID
  2
GRADIENTCOLOR1ACI
 70
     0
  0
APPID
  2
GRADIENTCOLOR2ACI
 70
     0
  0
APPID
  2
ACAD_PSEXT
 70
     0
  0
APPID
  2
ACDBBLOCKREPETAG
 70
     0
  0
APPID
  2
ACADANNOTATIVE
 70
     0
  0
APPID
  2
ACAD_DSTYLE_DIMJAG
 70
     0
  0
APPID
  2
ACAD_DSTYLE_DIMTALN
 70
     0
  0
APPID
  2
HATCHBACKGROUNDCOLOR
 70
     0
  0
APPID
  2
ACDBDYNAMICBLOCKGUID
 70
     0
  0
APPID
  2
IDW_INSPOINT
 70
     0
  0
APPID
  2
ACDBAPPSYNCWITHXREF_ASSOCM
 70
     0
  0
APPID
  2
ACAUTHENVIRON
 70
     0
  0
APPID
  2
ACDBDYNAMICBLOCKTRUENAME
 70
     0
  0
APPID
  2
REVIT
 70
     0
  0
APPID
  2
ACAD_DSTYLE_DIMJOGGED_JOGA
 70
     0
  0
APPID
  2
ACAD_DSTYLE_DIMBREAK
 70
     0
  0
APPID
  2
_APP0
 70
     0
  0
APPID
  2
ADE
 70
     0
  0
APPID
  2
TCAD
 70
     0
  0
APPID
  2
ACDBBLOCKREPBTAG
 70
     0
  0
APPID
  2
ACAD_STEPID
 70
     0
  0
APPID
  2
ACAD_ASSOCPERSSUBENTMANAGER
 70
     0
  0
APPID
  2
ACAD_MLEADERVER
 70
     0
  0
ENDTAB
  0
TABLE
  2
DIMSTYLE
 70
     1
  0
DIMSTYLE
  2
STANDARD
 70
     0
  3

  4

  5

  6

  7

 40
1.0
 41
0.18
 42
0.0625
 43
0.38
 44
0.18
 45
0.0
 46
0.0
 47
0.0
 48
0.0
140
0.18
141
0.09
142
0.0
143
25.3999999999999986
144
1.0
145
0.0
146
1.0
147
0.09
 71
     0
 72
     0
 73
     1
 74
     1
 75
     0
 76
     0
 77
     0
 78
     0
170
     0
171
     2
172
     0
173
     0
174
     0
175
     0
176
     0
177
     0
178
     0
  0
ENDTAB
  0
ENDSEC
  0
SECTION
  2
BLOCKS
  0
BLOCK
  8
0
  2
$MODEL_SPACE
 70
     0
 10
0.0
 20
0.0
 30
0.0
  3
$MODEL_SPACE
  1

  0
ENDBLK
  5
21
  8
0
  0
BLOCK
 67
     1
  8
0
  2
$PAPER_SPACE
 70
     0
 10
0.0
 20
0.0
 30
0.0
  3
$PAPER_SPACE
  1

  0
ENDBLK
  5
1D
 67
     1
  8
0
  0
BLOCK
  8
0
  2
3D_M10-FLAT0
 70
     0
 10
0.0
 20
0.0
 30
0.0
  3
3D_M10-FLAT0
  1

  0
ENDBLK
  5
1F8A7
  8
0
  0
BLOCK
  8
0
  2
3D_M10-FLAT1
 70
     0
 10
0.0
 20
0.0
 30
0.0
  3
3D_M10-FLAT1
  1

  0
ENDBLK
  5
1F8AC
  8
0
  0
BLOCK
  8
0
  2
PLATE_ONE
 70
     0
 10
0.0
 20
0.0
 30
0.0
  3
PLATE_ONE
  1

  0
CIRCLE
  5
398E4
  8
A-DETL-___2
 10
0.0
 20
-33.0000000000040927
 30
0.0
 40
12.0
  0
CIRCLE
  5
398E5
  8
A-DETL-___2
 10
-13.0
 20
-46.0000000000040927
 30
0.0
 40
1.6000000000000001
  0
CIRCLE
  5
398E6
  8
A-DETL-___2
 10
-13.0000000000009095
 20
-20.000000000004551
 30
0.0
 40
1.6000000000000001
  0
CIRCLE
  5
398E7
  8
A-DETL-___2
 10
12.9999999999990905
 20
-20.0000000000040892
 30
0.0
 40
1.6000000000000001
  0
CIRCLE
  5
398E8
  8
A-DETL-___2
 10
13.0000000000009095
 20
-46.0000000000054499
 30
0.0
 40
1.6000000000000001
  0
CIRCLE
  5
398E9
  8
A-DETL-___2
 10
40.0
 20
-33.0000000000040927
 30
0.0
 40
12.0
  0
CIRCLE
  5
398EA
  8
A-DETL-___2
 10
27.0
 20
-46.0000000000040927
 30
0.0
 40
1.6000000000000001
  0
CIRCLE
  5
398EB
  8
A-DETL-___2
 10
26.9999999999990905
 20
-20.000000000004551
 30
0.0
 40
1.6000000000000001
  0
CIRCLE
  5
398EC
  8
A-DETL-___2
 10
52.9999999999990905
 20
-20.0000000000040892
 30
0.0
 40
1.6000000000000001
  0
CIRCLE
  5
398ED
  8
A-DETL-___2
 10
53.0000000000009095
 20
-46.0000000000054499
 30
0.0
 40
1.6000000000000001
  0
CIRCLE
  5
398EE
  8
A-DETL-___2
 10
0.0
 20
-73.0000000000040927
 30
0.0
 40
12.0
  0
CIRCLE
  5
398EF
  8
A-DETL-___2
 10
-13.0
 20
-86.0000000000040927
 30
0.0
 40
1.6000000000000001
  0
CIRCLE
  5
398F0
  8
A-DETL-___2
 10
-13.0000000000009095
 20
-60.0000000000045404
 30
0.0
 40
1.6000000000000001
  0
CIRCLE
  5
398F1
  8
A-DETL-___2
 10
12.9999999999990905
 20
-60.0000000000040927
 30
0.0
 40
1.6000000000000001
  0
CIRCLE
  5
398F2
  8
A-DETL-___2
 10
13.0000000000009095
 20
-86.000000000005457
 30
0.0
 40
1.6000000000000001
  0
CIRCLE
  5
398F3
  8
A-DETL-___2
 10
40.0
 20
-73.0000000000040927
 30
0.0
 40
12.0
  0
CIRCLE
  5
398F4
  8
A-DETL-___2
 10
27.0
 20
-86.0000000000040927
 30
0.0
 40
1.6000000000000001
  0
CIRCLE
  5
398F5
  8
A-DETL-___2
 10
26.9999999999990905
 20
-60.0000000000045404
 30
0.0
 40
1.6000000000000001
  0
CIRCLE
  5
398F6
  8
A-DETL-___2
 10
52.9999999999990905
 20
-60.0000000000040927
 30
0.0
 40
1.6000000000000001
  0
CIRCLE
  5
398F7
  8
A-DETL-___2
 10
53.0000000000009095
 20
-86.000000000005457
 30
0.0
 40
1.6000000000000001
  0
CIRCLE
  5
398F8
  8
A-DETL-___2
 10
0.0
 20
-113.0000000000041069
 30
0.0
 40
12.0
  0
CIRCLE
  5
398F9
  8
A-DETL-___2
 10
-13.0
 20
-126.0000000000041069
 30
0.0
 40
1.6000000000000001
  0
CIRCLE
  5
398FA
  8
A-DETL-___2
 10
-13.0000000000009095
 20
-100.0000000000045048
 30
0.0
 40
1.6000000000000001
  0
CIRCLE
  5
398FB
  8
A-DETL-___2
 10
12.9999999999990905
 20
-100.0000000000041069
 30
0.0
 40
1.6000000000000001
  0
CIRCLE
  5
398FC
  8
A-DETL-___2
 10
13.0000000000009095
 20
-126.0000000000054001
 30
0.0
 40
1.6000000000000001
  0
CIRCLE
  5
398FD
  8
A-DETL-___2
 10
40.0
 20
-113.0000000000041069
 30
0.0
 40
12.0
  0
CIRCLE
  5
398FE
  8
A-DETL-___2
 10
27.0
 20
-126.0000000000041069
 30
0.0
 40
1.6000000000000001
  0
CIRCLE
  5
398FF
  8
A-DETL-___2
 10
26.9999999999990905
 20
-100.0000000000045048
 30
0.0
 40
1.6000000000000001
  0
CIRCLE
  5
39900
  8
A-DETL-___2
 10
52.9999999999990905
 20
-100.0000000000041069
 30
0.0
 40
1.6000000000000001
  0
CIRCLE
  5
39901
  8
A-DETL-___2
 10
53.0000000000009095
 20
-126.0000000000054001
 30
0.0
 40
1.6000000000000001
  0
CIRCLE
  5
39902
  8
A-DETL-___2
 10
80.0000000000008953
 20
-113.0000000000041069
 30
0.0
 40
12.0
  0
CIRCLE
  5
39903
  8
A-DETL-___2
 10
67.0000000000009095
 20
-126.0000000000041069
 30
0.0
 40
1.6000000000000001
  0
CIRCLE
  5
39904
  8
A-DETL-___2
 10
67.0
 20
-100.0000000000045048
 30
0.0
 40
1.6000000000000001
  0
CIRCLE
  5
39905
  8
A-DETL-___2
 10
93.0
 20
-100.0000000000041069
 30
0.0
 40
1.6000000000000001
  0
CIRCLE
  5
39906
  8
A-DETL-___2
 10
93.0000000000018048
 20
-126.0000000000054001
 30
0.0
 40
1.6000000000000001
  0
CIRCLE
  5
39907
  8
A-DETL-___2
 10
0.0
 20
-153.0000000000057128
 30
0.0
 40
12.0
  0
CIRCLE
  5
39908
  8
A-DETL-___2
 10
-13.0
 20
-166.0000000000057128
 30
0.0
 40
1.6000000000000001
  0
CIRCLE
  5
39909
  8
A-DETL-___2
 10
-13.0000000000009095
 20
-140.0000000000063096
 30
0.0
 40
1.6000000000000001
  0
CIRCLE
  5
3990A
  8
A-DETL-___2
 10
12.9999999999990905
 20
-140.0000000000054001
 30
0.0
 40
1.6000000000000001
  0
CIRCLE
  5
3990B
  8
A-DETL-___2
 10
13.0000000000009095
 20
-166.0000000000069917
 30
0.0
 40
1.6000000000000001
  0
CIRCLE
  5
3990C
  8
A-DETL-___2
 10
40.0
 20
-153.0000000000057128
 30
0.0
 40
12.0
  0
CIRCLE
  5
3990D
  8
A-DETL-___2
 10
27.0
 20
-166.0000000000057128
 30
0.0
 40
1.6000000000000001
  0
CIRCLE
  5
3990E
  8
A-DETL-___2
 10
26.9999999999990905
 20
-140.0000000000063096
 30
0.0
 40
1.6000000000000001
  0
CIRCLE
  5
3990F
  8
A-DETL-___2
 10
52.9999999999990905
 20
-140.0000000000054001
 30
0.0
 40
1.6000000000000001
  0
CIRCLE
  5
39910
  8
A-DETL-___2
 10
53.0000000000009095
 20
-166.0000000000069917
 30
0.0
 40
1.6000000000000001
  0
CIRCLE
  5
39911
  8
A-DETL-___2
 10
80.0000000000008953
 20
-153.0000000000057128
 30
0.0
 40
12.0
  0
CIRCLE
  5
39912
  8
A-DETL-___2
 10
67.0000000000009095
 20
-166.0000000000057128
 30
0.0
 40
1.6000000000000001
  0
CIRCLE
  5
39913
  8
A-DETL-___2
 10
67.0
 20
-140.0000000000063096
 30
0.0
 40
1.6000000000000001
  0
CIRCLE
  5
39914
  8
A-DETL-___2
 10
93.0
 20
-140.0000000000054001
 30
0.0
 40
1.6000000000000001
  0
CIRCLE
  5
39915
  8
A-DETL-___2
 10
93.0000000000018048
 20
-166.0000000000069917
 30
0.0
 40
1.6000000000000001
  0
POLYLINE
  5
39916
  8
A-DETL-___2
 66
     1
 10
0.0
 20
0.0
 30
0.0
 70
     1
  0
VERTEX
  5
39DD2
  8
A-DETL-___2
 10
-4.0
 20
-98.0000000000050164
 30
0.0
  0
VERTEX
  5
39DD3
  8
A-DETL-___2
 10
4.0
 20
-98.0000000000050164
 30
0.0
 42
0.4142135623730907
  0
VERTEX
  5
39DD4
  8
A-DETL-___2
 10
8.0
 20
-94.0000000000050164
 30
0.0
  0
VERTEX
  5
39DD5
  8
A-DETL-___2
 10
8.0
 20
-92.0000000000040927
 30
0.0
 42
0.4142135623730951
  0
VERTEX
  5
39DD6
  8
A-DETL-___2
 10
4.0
 20
-88.0000000000040927
 30
0.0
  0
VERTEX
  5
39DD7
  8
A-DETL-___2
 10
-4.0
 20
-88.0000000000040927
 30
0.0
 42
0.4142135623730951
  0
VERTEX
  5
39DD8
  8
A-DETL-___2
 10
-8.0
 20
-92.0000000000040927
 30
0.0
  0
VERTEX
  5
39DD9
  8
A-DETL-___2
 10
-8.0
 20
-94.0000000000050164
 30
0.0
 42
0.4142135623730907
  0
SEQEND
  5
39DDA
  8
A-DETL-___2
  0
POLYLINE
  5
39917
  8
A-DETL-___2
 66
     1
 10
0.0
 20
0.0
 30
0.0
 70
     1
  0
VERTEX
  5
39DDB
  8
A-DETL-___2
 10
55.0
 20
-157.0000000000059117
 30
0.0
  0
VERTEX
  5
39DDC
  8
A-DETL-___2
 10
55.0
 20
-149.0000000000059117
 30
0.0
 42
-0.4142135623730907
  0
VERTEX
  5
39DDD
  8
A-DETL-___2
 10
59.0
 20
-145.0000000000059117
 30
0.0
  0
VERTEX
  5
39DDE
  8
A-DETL-___2
 10
61.0
 20
-145.0000000000059117
 30
0.0
 42
-0.4142135623730951
  0
VERTEX
  5
39DDF
  8
A-DETL-___2
 10
65.0
 20
-149.0000000000063096
 30
0.0
  0
VERTEX
  5
39DE0
  8
A-DETL-___2
 10
65.0
 20
-157.0000000000063949
 30
0.0
 42
-0.4142135623730951
  0
VERTEX
  5
39DE1
  8
A-DETL-___2
 10
61.0
 20
-161.0000000000059117
 30
0.0
  0
VERTEX
  5
39DE2
  8
A-DETL-___2
 10
59.0
 20
-161.0000000000059117
 30
0.0
 42
-0.4142135623730907
  0
SEQEND
  5
39DE3
  8
A-DETL-___2
  0
POLYLINE
  5
39918
  8
A-DETL-___2
 66
     1
 10
0.0
 20
0.0
 30
0.0
 70
     1
  0
VERTEX
  5
39DE4
  8
A-DETL-___2
 10
14.9999999999990905
 20
-69.0000000000040927
 30
0.0
  0
VERTEX
  5
39DE5
  8
A-DETL-___2
 10
14.9999999999990905
 20
-77.0000000000040927
 30
0.0
 42
0.4142135623730907
  0
VERTEX
  5
39DE6
  8
A-DETL-___2
 10
18.9999999999990905
 20
-81.0000000000040927
 30
0.0
  0
VERTEX
  5
39DE7
  8
A-DETL-___2
 10
20.9999999999990905
 20
-81.0000000000040927
 30
0.0
 42
0.4142135623730951
  0
VERTEX
  5
39DE8
  8
A-DETL-___2
 10
24.9999999999990905
 20
-77.0000000000040927
 30
0.0
  0
VERTEX
  5
39DE9
  8
A-DETL-___2
 10
24.9999999999990905
 20
-69.0000000000040927
 30
0.0
 42
0.4142135623730951
  0
VERTEX
  5
39DEA
  8
A-DETL-___2
 10
20.9999999999990905
 20
-65.0000000000040927
 30
0.0
  0
VERTEX
  5
39DEB
  8
A-DETL-___2
 10
18.9999999999990905
 20
-65.0000000000040927
 30
0.0
 42
0.4142135623730907
  0
SEQEND
  5
39DEC
  8
A-DETL-___2
  0
POLYLINE
  5
39919
  8
A-DETL-___2
 66
     1
 10
0.0
 20
0.0
 30
0.0
 70
     1
  0
VERTEX
  5
39DED
  8
A-DETL-___2
 10
15.0
 20
-109.0000000000041069
 30
0.0
  0
VERTEX
  5
39DEE
  8
A-DETL-___2
 10
15.0
 20
-117.0000000000041069
 30
0.0
 42
0.4142135623730907
  0
VERTEX
  5
39DEF
  8
A-DETL-___2
 10
19.0
 20
-121.0000000000041069
 30
0.0
  0
VERTEX
  5
39DF0
  8
A-DETL-___2
 10
21.0
 20
-121.0000000000041069
 30
0.0
 42
0.4142135623730951
  0
VERTEX
  5
39DF1
  8
A-DETL-___2
 10
25.0
 20
-117.0000000000041069
 30
0.0
  0
VERTEX
  5
39DF2
  8
A-DETL-___2
 10
25.0
 20
-109.0000000000041069
 30
0.0
 42
0.4142135623730951
  0
VERTEX
  5
39DF3
  8
A-DETL-___2
 10
21.0
 20
-105.0000000000041069
 30
0.0
  0
VERTEX
  5
39DF4
  8
A-DETL-___2
 10
19.0
 20
-105.0000000000041069
 30
0.0
 42
0.4142135623730907
  0
SEQEND
  5
39DF5
  8
A-DETL-___2
  0
POLYLINE
  5
3991A
  8
A-DETL-___2
 66
     1
 10
0.0
 20
0.0
 30
0.0
 70
     1
  0
VERTEX
  5
39DF6
  8
A-DETL-___2
 10
36.0
 20
-138.0000000000050022
 30
0.0
  0
VERTEX
  5
39DF7
  8
A-DETL-___2
 10
44.0
 20
-138.0000000000050022
 30
0.0
 42
0.4142135623730907
  0
VERTEX
  5
39DF8
  8
A-DETL-___2
 10
48.0
 20
-134.0000000000050022
 30
0.0
  0
VERTEX
  5
39DF9
  8
A-DETL-___2
 10
48.0
 20
-132.0000000000040927
 30
0.0
 42
0.4142135623730951
  0
VERTEX
  5
39DFA
  8
A-DETL-___2
 10
44.0
 20
-128.0000000000040927
 30
0.0
  0
VERTEX
  5
39DFB
  8
A-DETL-___2
 10
36.0
 20
-128.0000000000040927
 30
0.0
 42
0.4142135623730951
  0
VERTEX
  5
39DFC
  8
A-DETL-___2
 10
32.0
 20
-132.0000000000040927
 30
0.0
  0
VERTEX
  5
39DFD
  8
A-DETL-___2
 10
32.0
 20
-134.0000000000050022
 30
0.0
 42
0.4142135623730907
  0
SEQEND
  5
39DFE
  8
A-DETL-___2
  0
POLYLINE
  5
3991B
  8
A-DETL-___2
 66
     1
 10
0.0
 20
0.0
 30
0.0
 70
     1
  0
VERTEX
  5
39DFF
  8
A-DETL-___2
 10
76.0000000000009095
 20
-138.0000000000050022
 30
0.0
  0
VERTEX
  5
39E00
  8
A-DETL-___2
 10
84.0000000000008953
 20
-138.0000000000050022
 30
0.0
 42
0.4142135623730907
  0
VERTEX
  5
39E01
  8
A-DETL-___2
 10
88.0000000000009095
 20
-134.0000000000050022
 30
0.0
  0
VERTEX
  5
39E02
  8
A-DETL-___2
 10
88.0000000000009095
 20
-132.0000000000040927
 30
0.0
 42
0.4142135623730951
  0
VERTEX
  5
39E03
  8
A-DETL-___2
 10
84.0000000000008953
 20
-128.0000000000040927
 30
0.0
  0
VERTEX
  5
39E04
  8
A-DETL-___2
 10
76.0000000000009095
 20
-128.0000000000040927
 30
0.0
 42
0.4142135623730951
  0
VERTEX
  5
39E05
  8
A-DETL-___2
 10
72.0000000000009095
 20
-132.0000000000040927
 30
0.0
  0
VERTEX
  5
39E06
  8
A-DETL-___2
 10
72.0000000000009095
 20
-134.0000000000050022
 30
0.0
 42
0.4142135623730907
  0
SEQEND
  5
39E07
  8
A-DETL-___2
  0
POLYLINE
  5
3991C
  8
A-DETL-___2
 66
     1
 10
0.0
 20
0.0
 30
0.0
 70
     1
  0
VERTEX
  5
39E08
  8
A-DETL-___2
 10
36.0
 20
-58.0000000000050022
 30
0.0
  0
VERTEX
  5
39E09
  8
A-DETL-___2
 10
44.0
 20
-58.0000000000050022
 30
0.0
 42
0.4142135623730907
  0
VERTEX
  5
39E0A
  8
A-DETL-___2
 10
48.0
 20
-54.0000000000050022
 30
0.0
  0
VERTEX
  5
39E0B
  8
A-DETL-___2
 10
48.0
 20
-52.0000000000040927
 30
0.0
 42
0.4142135623730951
  0
VERTEX
  5
39E0C
  8
A-DETL-___2
 10
44.0
 20
-48.0000000000040927
 30
0.0
  0
VERTEX
  5
39E0D
  8
A-DETL-___2
 10
36.0
 20
-48.0000000000040927
 30
0.0
 42
0.4142135623730951
  0
VERTEX
  5
39E0E
  8
A-DETL-___2
 10
32.0
 20
-52.0000000000040927
 30
0.0
  0
VERTEX
  5
39E0F
  8
A-DETL-___2
 10
32.0
 20
-54.0000000000050022
 30
0.0
 42
0.4142135623730907
  0
SEQEND
  5
39E10
  8
A-DETL-___2
  0
CIRCLE
  5
3991D
  8
A-DETL-___2
 10
0.0
 20
-53.0000000000045475
 30
0.0
 40
1.6000000000000001
  0
CIRCLE
  5
3991E
  8
A-DETL-___2
 10
0.0
 20
-133.0000000000044906
 30
0.0
 40
1.6000000000000001
  0
CIRCLE
  5
3991F
  8
A-DETL-___2
 10
40.0
 20
-93.0000000000045475
 30
0.0
 40
1.6000000000000001
  0
ARC
  5
39920
  8
A-DETL-___2
 10
80.0000000000008953
 20
-93.0000000000045475
 30
0.0
 40
1.6000000000000001
 50
181.790784659328807
 51
358.2092153406711077
  0
CIRCLE
  5
39921
  8
A-DETL-___2
 10
-0.000000000001819
 20
-193.0000000000067928
 30
0.0
 40
12.0
  0
CIRCLE
  5
39922
  8
A-DETL-___2
 10
-13.0000000000018208
 20
-206.0000000000067928
 30
0.0
 40
1.6000000000000001
  0
CIRCLE
  5
39923
  8
A-DETL-___2
 10
-13.0000000000027303
 20
-180.0000000000073044
 30
0.0
 40
1.6000000000000001
  0
CIRCLE
  5
39924
  8
A-DETL-___2
 10
12.9999999999972697
 20
-180.0000000000067928
 30
0.0
 40
1.6000000000000001
  0
CIRCLE
  5
39925
  8
A-DETL-___2
 10
12.9999999999990905
 20
-206.0000000000082139
 30
0.0
 40
1.6000000000000001
  0
CIRCLE
  5
39926
  8
A-DETL-___2
 10
39.999999999998181
 20
-193.0000000000067928
 30
0.0
 40
12.0
  0
CIRCLE
  5
39927
  8
A-DETL-___2
 10
26.999999999998181
 20
-206.0000000000067928
 30
0.0
 40
1.6000000000000001
  0
CIRCLE
  5
39928
  8
A-DETL-___2
 10
26.9999999999972715
 20
-180.0000000000073044
 30
0.0
 40
1.6000000000000001
  0
CIRCLE
  5
39929
  8
A-DETL-___2
 10
52.9999999999972715
 20
-180.0000000000067928
 30
0.0
 40
1.6000000000000001
  0
CIRCLE
  5
3992A
  8
A-DETL-___2
 10
52.9999999999990905
 20
-206.0000000000082139
 30
0.0
 40
1.6000000000000001
  0
CIRCLE
  5
3992B
  8
A-DETL-___2
 10
-0.000000000001819
 20
-233.0000000000067928
 30
0.0
 40
12.0
  0
CIRCLE
  5
3992C
  8
A-DETL-___2
 10
-13.0000000000018208
 20
-246.0000000000067928
 30
0.0
 40
1.6000000000000001
  0
CIRCLE
  5
3992D
  8
A-DETL-___2
 10
-13.0000000000027303
 20
-220.0000000000073044
 30
0.0
 40
1.6000000000000001
  0
CIRCLE
  5
3992E
  8
A-DETL-___2
 10
12.9999999999972697
 20
-220.0000000000067928
 30
0.0
 40
1.6000000000000001
  0
CIRCLE
  5
3992F
  8
A-DETL-___2
 10
12.9999999999990905
 20
-246.0000000000082139
 30
0.0
 40
1.6000000000000001
  0
CIRCLE
  5
39930
  8
A-DETL-___2
 10
39.999999999998181
 20
-233.0000000000067928
 30
0.0
 40
12.0
  0
CIRCLE
  5
39931
  8
A-DETL-___2
 10
26.999999999998181
 20
-246.0000000000067928
 30
0.0
 40
1.6000000000000001
  0
CIRCLE
  5
39932
  8
A-DETL-___2
 10
26.9999999999972715
 20
-220.0000000000073044
 30
0.0
 40
1.6000000000000001
  0
CIRCLE
  5
39933
  8
A-DETL-___2
 10
52.9999999999972715
 20
-220.0000000000067928
 30
0.0
 40
1.6000000000000001
  0
CIRCLE
  5
39934
  8
A-DETL-___2
 10
52.9999999999990905
 20
-246.0000000000082139
 30
0.0
 40
1.6000000000000001
  0
CIRCLE
  5
39935
  8
A-DETL-___2
 10
-0.000000000001819
 20
-273.0000000000068212
 30
0.0
 40
12.0
  0
CIRCLE
  5
39936
  8
A-DETL-___2
 10
-13.0000000000018208
 20
-286.0000000000068212
 30
0.0
 40
1.6000000000000001
  0
CIRCLE
  5
39937
  8
A-DETL-___2
 10
-13.0000000000027303
 20
-260.000000000007276
 30
0.0
 40
1.6000000000000001
  0
CIRCLE
  5
39938
  8
A-DETL-___2
 10
12.9999999999972697
 20
-260.0000000000068212
 30
0.0
 40
1.6000000000000001
  0
CIRCLE
  5
39939
  8
A-DETL-___2
 10
12.9999999999990905
 20
-286.0000000000081855
 30
0.0
 40
1.6000000000000001
  0
CIRCLE
  5
3993A
  8
A-DETL-___2
 10
39.999999999998181
 20
-273.0000000000068212
 30
0.0
 40
12.0
  0
CIRCLE
  5
3993B
  8
A-DETL-___2
 10
26.999999999998181
 20
-286.0000000000068212
 30
0.0
 40
1.6000000000000001
  0
CIRCLE
  5
3993C
  8
A-DETL-___2
 10
26.9999999999972715
 20
-260.000000000007276
 30
0.0
 40
1.6000000000000001
  0
CIRCLE
  5
3993D
  8
A-DETL-___2
 10
52.9999999999972715
 20
-260.0000000000068212
 30
0.0
 40
1.6000000000000001
  0
CIRCLE
  5
3993E
  8
A-DETL-___2
 10
52.9999999999990905
 20
-286.0000000000081855
 30
0.0
 40
1.6000000000000001
  0
CIRCLE
  5
3993F
  8
A-DETL-___2
 10
-0.000000000001819
 20
-313.0000000000084128
 30
0.0
 40
12.0
  0
CIRCLE
  5
39940
  8
A-DETL-___2
 10
-13.0000000000018208
 20
-326.0000000000084128
 30
0.0
 40
1.6000000000000001
  0
CIRCLE
  5
39941
  8
A-DETL-___2
 10
-13.0000000000027303
 20
-300.0000000000090949
 30
0.0
 40
1.6000000000000001
  0
CIRCLE
  5
39942
  8
A-DETL-___2
 10
12.9999999999972697
 20
-300.0000000000081855
 30
0.0
 40
1.6000000000000001
  0
CIRCLE
  5
39943
  8
A-DETL-___2
 10
12.9999999999990905
 20
-326.0000000000097771
 30
0.0
 40
1.6000000000000001
  0
CIRCLE
  5
39944
  8
A-DETL-___2
 10
39.999999999998181
 20
-313.0000000000084128
 30
0.0
 40
12.0
  0
CIRCLE
  5
39945
  8
A-DETL-___2
 10
26.999999999998181
 20
-326.0000000000084128
 30
0.0
 40
1.6000000000000001
  0
CIRCLE
  5
39946
  8
A-DETL-___2
 10
26.9999999999972715
 20
-300.0000000000090949
 30
0.0
 40
1.6000000000000001
  0
CIRCLE
  5
39947
  8
A-DETL-___2
 10
52.9999999999972715
 20
-300.0000000000081855
 30
0.0
 40
1.6000000000000001
  0
CIRCLE
  5
39948
  8
A-DETL-___2
 10
52.9999999999990905
 20
-326.0000000000097771
 30
0.0
 40
1.6000000000000001
  0
POLYLINE
  5
39949
  8
A-DETL-___2
 66
     1
 10
0.0
 20
0.0
 30
0.0
 70
     1
  0
VERTEX
  5
39E11
  8
A-DETL-___2
 10
-4.0000000000018181
 20
-258.0000000000076739
 30
0.0
  0
VERTEX
  5
39E12
  8
A-DETL-___2
 10
3.999999999998181
 20
-258.0000000000076739
 30
0.0
 42
0.4142135623730907
  0
VERTEX
  5
39E13
  8
A-DETL-___2
 10
7.999999999998181
 20
-254.0000000000077023
 30
0.0
  0
VERTEX
  5
39E14
  8
A-DETL-___2
 10
7.999999999998181
 20
-252.0000000000067928
 30
0.0
 42
0.4142135623730951
  0
VERTEX
  5
39E15
  8
A-DETL-___2
 10
3.999999999998181
 20
-248.0000000000067928
 30
0.0
  0
VERTEX
  5
39E16
  8
A-DETL-___2
 10
-4.0000000000018181
 20
-248.0000000000067928
 30
0.0
 42
0.4142135623730951
  0
VERTEX
  5
39E17
  8
A-DETL-___2
 10
-8.0000000000018172
 20
-252.0000000000067928
 30
0.0
  0
VERTEX
  5
39E18
  8
A-DETL-___2
 10
-8.0000000000018172
 20
-254.0000000000077023
 30
0.0
 42
0.4142135623730907
  0
SEQEND
  5
39E19
  8
A-DETL-___2
  0
POLYLINE
  5
3994A
  8
A-DETL-___2
 66
     1
 10
0.0
 20
0.0
 30
0.0
 70
     1
  0
VERTEX
  5
39E1A
  8
A-DETL-___2
 10
14.9999999999972697
 20
-229.0000000000067928
 30
0.0
  0
VERTEX
  5
39E1B
  8
A-DETL-___2
 10
14.9999999999972697
 20
-237.0000000000067928
 30
0.0
 42
0.4142135623730907
  0
VERTEX
  5
39E1C
  8
A-DETL-___2
 10
18.9999999999972715
 20
-241.0000000000067928
 30
0.0
  0
VERTEX
  5
39E1D
  8
A-DETL-___2
 10
20.9999999999972715
 20
-241.0000000000067928
 30
0.0
 42
0.4142135623730951
  0
VERTEX
  5
39E1E
  8
A-DETL-___2
 10
24.9999999999972715
 20
-237.0000000000067928
 30
0.0
  0
VERTEX
  5
39E1F
  8
A-DETL-___2
 10
24.9999999999972715
 20
-229.0000000000067928
 30
0.0
 42
0.4142135623730951
  0
VERTEX
  5
39E20
  8
A-DETL-___2
 10
20.9999999999972715
 20
-225.0000000000067928
 30
0.0
  0
VERTEX
  5
39E21
  8
A-DETL-___2
 10
18.9999999999972715
 20
-225.0000000000067928
 30
0.0
 42
0.4142135623730907
  0
SEQEND
  5
39E22
  8
A-DETL-___2
  0
POLYLINE
  5
3994B
  8
A-DETL-___2
 66
     1
 10
0.0
 20
0.0
 30
0.0
 70
     1
  0
VERTEX
  5
39E23
  8
A-DETL-___2
 10
14.9999999999981792
 20
-269.0000000000068212
 30
0.0
  0
VERTEX
  5
39E24
  8
A-DETL-___2
 10
14.9999999999981792
 20
-277.0000000000068212
 30
0.0
 42
0.4142135623730907
  0
VERTEX
  5
39E25
  8
A-DETL-___2
 10
18.999999999998181
 20
-281.0000000000068212
 30
0.0
  0
VERTEX
  5
39E26
  8
A-DETL-___2
 10
20.999999999998181
 20
-281.0000000000068212
 30
0.0
 42
0.4142135623730951
  0
VERTEX
  5
39E27
  8
A-DETL-___2
 10
24.999999999998181
 20
-277.0000000000068212
 30
0.0
  0
VERTEX
  5
39E28
  8
A-DETL-___2
 10
24.999999999998181
 20
-269.0000000000068212
 30
0.0
 42
0.4142135623730951
  0
VERTEX
  5
39E29
  8
A-DETL-___2
 10
20.999999999998181
 20
-265.0000000000068212
 30
0.0
  0
VERTEX
  5
39E2A
  8
A-DETL-___2
 10
18.999999999998181
 20
-265.0000000000068212
 30
0.0
 42
0.4142135623730907
  0
SEQEND
  5
39E2B
  8
A-DETL-___2
  0
POLYLINE
  5
3994C
  8
A-DETL-___2
 66
     1
 10
0.0
 20
0.0
 30
0.0
 70
     1
  0
VERTEX
  5
39E2C
  8
A-DETL-___2
 10
35.999999999998181
 20
-298.0000000000076739
 30
0.0
  0
VERTEX
  5
39E2D
  8
A-DETL-___2
 10
43.999999999998181
 20
-298.0000000000076739
 30
0.0
 42
0.4142135623730907
  0
VERTEX
  5
39E2E
  8
A-DETL-___2
 10
47.999999999998181
 20
-294.0000000000076739
 30
0.0
  0
VERTEX
  5
39E2F
  8
A-DETL-___2
 10
47.999999999998181
 20
-292.0000000000068212
 30
0.0
 42
0.4142135623730951
  0
VERTEX
  5
39E30
  8
A-DETL-___2
 10
43.999999999998181
 20
-288.0000000000068212
 30
0.0
  0
VERTEX
  5
39E31
  8
A-DETL-___2
 10
35.999999999998181
 20
-288.0000000000068212
 30
0.0
 42
0.4142135623730951
  0
VERTEX
  5
39E32
  8
A-DETL-___2
 10
31.999999999998181
 20
-292.0000000000068212
 30
0.0
  0
VERTEX
  5
39E33
  8
A-DETL-___2
 10
31.999999999998181
 20
-294.0000000000076739
 30
0.0
 42
0.4142135623730907
  0
SEQEND
  5
39E34
  8
A-DETL-___2
  0
POLYLINE
  5
3994D
  8
A-DETL-___2
 66
     1
 10
0.0
 20
0.0
 30
0.0
 70
     1
  0
VERTEX
  5
39E35
  8
A-DETL-___2
 10
35.999999999998181
 20
-218.0000000000077023
 30
0.0
  0
VERTEX
  5
39E36
  8
A-DETL-___2
 10
43.999999999998181
 20
-218.0000000000077023
 30
0.0
 42
0.4142135623730907
  0
VERTEX
  5
39E37
  8
A-DETL-___2
 10
47.999999999998181
 20
-214.0000000000077023
 30
0.0
  0
VERTEX
  5
39E38
  8
A-DETL-___2
 10
47.999999999998181
 20
-212.0000000000067928
 30
0.0
 42
0.4142135623730951
  0
VERTEX
  5
39E39
  8
A-DETL-___2
 10
43.999999999998181
 20
-208.0000000000067928
 30
0.0
  0
VERTEX
  5
39E3A
  8
A-DETL-___2
 10
35.999999999998181
 20
-208.0000000000067928
 30
0.0
 42
0.4142135623730951
  0
VERTEX
  5
39E3B
  8
A-DETL-___2
 10
31.999999999998181
 20
-212.0000000000067928
 30
0.0
  0
VERTEX
  5
39E3C
  8
A-DETL-___2
 10
31.999999999998181
 20
-214.0000000000077023
 30
0.0
 42
0.4142135623730907
  0
SEQEND
  5
39E3D
  8
A-DETL-___2
  0
CIRCLE
  5
3994E
  8
A-DETL-___2
 10
-0.000000000001819
 20
-213.0000000000073044
 30
0.0
 40
1.6000000000000001
  0
CIRCLE
  5
3994F
  8
A-DETL-___2
 10
-0.000000000001819
 20
-293.000000000007276
 30
0.0
 40
1.6000000000000001
  0
CIRCLE
  5
39950
  8
A-DETL-___2
 10
39.999999999998181
 20
-253.0000000000073044
 30
0.0
 40
1.6000000000000001
  0
POLYLINE
  5
39951
  8
A-DETL-___2
 66
     1
 10
0.0
 20
0.0
 30
0.0
  0
VERTEX
  5
39E3E
  8
A-DETL-___2
 10
59.9499999999989015
 20
-185.0000000000067928
 30
0.0
  0
VERTEX
  5
39E3F
  8
A-DETL-___2
 10
59.9499999999989015
 20
-172.9500000000059003
 30
0.0
  0
VERTEX
  5
39E40
  8
A-DETL-___2
 10
99.9499999999998323
 20
-172.9493792418448095
 30
0.0
  0
VERTEX
  5
39E41
  8
A-DETL-___2
 10
99.9499999999998323
 20
-121.0000000000045048
 30
0.0
  0
SEQEND
  5
39E42
  8
A-DETL-___2
  0
POLYLINE
  5
39952
  8
A-DETL-___2
 66
     1
 10
0.0
 20
0.0
 30
0.0
  0
VERTEX
  5
39E43
  8
A-DETL-___2
 10
99.9499999999998323
 20
-121.0000000000045048
 30
0.0
  0
VERTEX
  5
39E44
  8
A-DETL-___2
 10
99.0000000000008953
 20
-121.0000000000045048
 30
0.0
 42
-0.4142135623730907
  0
VERTEX
  5
39E45
  8
A-DETL-___2
 10
95.0000000000008953
 20
-117.0000000000045048
 30
0.0
  0
VERTEX
  5
39E46
  8
A-DETL-___2
 10
95.0000000000008953
 20
-109.0000000000045048
 30
0.0
 42
-0.4142135623730907
  0
VERTEX
  5
39E47
  8
A-DETL-___2
 10
99.0000000000008953
 20
-105.0000000000045048
 30
0.0
  0
VERTEX
  5
39E48
  8
A-DETL-___2
 10
99.9499999999998323
 20
-105.0000000000045048
 30
0.0
  0
VERTEX
  5
39E49
  8
A-DETL-___2
 10
99.9499999999998323
 20
-93.0500000000047436
 30
0.0
  0
VERTEX
  5
39E4A
  8
A-DETL-___2
 10
81.5992185591730959
 20
-93.0500000000047436
 30
0.0
  0
SEQEND
  5
39E4B
  8
A-DETL-___2
  0
POLYLINE
  5
39953
  8
A-DETL-___2
 66
     1
 10
0.0
 20
0.0
 30
0.0
  0
VERTEX
  5
39E4C
  8
A-DETL-___2
 10
78.4007814408287231
 20
-93.0500000000047436
 30
0.0
  0
VERTEX
  5
39E4D
  8
A-DETL-___2
 10
59.9499999999998181
 20
-93.0500000000047436
 30
0.0
  0
VERTEX
  5
39E4E
  8
A-DETL-___2
 10
59.9500000000007205
 20
-41.0000000000040927
 30
0.0
  0
VERTEX
  5
39E4F
  8
A-DETL-___2
 10
59.0
 20
-41.0000000000040927
 30
0.0
 42
-0.4142135623730907
  0
VERTEX
  5
39E50
  8
A-DETL-___2
 10
55.0
 20
-37.0000000000040998
 30
0.0
  0
VERTEX
  5
39E51
  8
A-DETL-___2
 10
55.0
 20
-29.0000000000040892
 30
0.0
 42
-0.4142135623730907
  0
VERTEX
  5
39E52
  8
A-DETL-___2
 10
59.0
 20
-25.0000000000040892
 30
0.0
  0
VERTEX
  5
39E53
  8
A-DETL-___2
 10
59.9500000000007205
 20
-25.0000000000040892
 30
0.0
  0
VERTEX
  5
39E54
  8
A-DETL-___2
 10
59.9500000000007205
 20
-11.0000000000009095
 30
0.0
  0
VERTEX
  5
39E55
  8
A-DETL-___2
 10
13.0
 20
-11.0000000000004494
 30
0.0
 42
-0.4142135623730925
  0
VERTEX
  5
39E56
  8
A-DETL-___2
 10
9.0
 20
-7.0000000000004539
 30
0.0
  0
VERTEX
  5
39E57
  8
A-DETL-___2
 10
9.0
 20
0.0
 30
0.0
 42
0.9999999999999998
  0
VERTEX
  5
39E58
  8
A-DETL-___2
 10
-9.0
 20
0.0
 30
0.0
  0
VERTEX
  5
39E59
  8
A-DETL-___2
 10
-9.0
 20
-7.0
 30
0.0
 42
-0.4142135623730951
  0
VERTEX
  5
39E5A
  8
A-DETL-___2
 10
-13.0
 20
-11.0
 30
0.0
  0
VERTEX
  5
39E5B
  8
A-DETL-___2
 10
-18.0000000000009095
 20
-11.0
 30
0.0
 42
0.4142135623730951
  0
VERTEX
  5
39E5C
  8
A-DETL-___2
 10
-22.0000000000009095
 20
-15.0
 30
0.0
  0
VERTEX
  5
39E5D
  8
A-DETL-___2
 10
-22.0000000000009095
 20
-60.000000000001819
 30
0.0
 42
-0.4142135623730951
  0
VERTEX
  5
39E5E
  8
A-DETL-___2
 10
-26.0000000000009095
 20
-64.000000000001819
 30
0.0
  0
VERTEX
  5
39E5F
  8
A-DETL-___2
 10
-32.9999999999990905
 20
-64.000000000001819
 30
0.0
 42
0.9999999999999998
  0
VERTEX
  5
39E60
  8
A-DETL-___2
 10
-32.9999999999990905
 20
-82.000000000001819
 30
0.0
  0
VERTEX
  5
39E61
  8
A-DETL-___2
 10
-26.0000000000009095
 20
-82.000000000001819
 30
0.0
 42
-0.4142135623730951
  0
VERTEX
  5
39E62
  8
A-DETL-___2
 10
-22.0000000000009095
 20
-86.000000000001819
 30
0.0
  0
VERTEX
  5
39E63
  8
A-DETL-___2
 10
-22.0000000000009095
 20
-140.0000000000017906
 30
0.0
 42
-0.4142135623730951
  0
VERTEX
  5
39E64
  8
A-DETL-___2
 10
-26.0000000000009095
 20
-144.0000000000017906
 30
0.0
  0
VERTEX
  5
39E65
  8
A-DETL-___2
 10
-32.9999999999990905
 20
-144.0000000000017906
 30
0.0
 42
0.9999999999999998
  0
VERTEX
  5
39E66
  8
A-DETL-___2
 10
-32.9999999999990905
 20
-162.0000000000019895
 30
0.0
  0
VERTEX
  5
39E67
  8
A-DETL-___2
 10
-26.0000000000009095
 20
-162.0000000000019895
 30
0.0
 42
-0.4142135623730951
  0
VERTEX
  5
39E68
  8
A-DETL-___2
 10
-22.0000000000009095
 20
-166.0000000000019895
 30
0.0
  0
VERTEX
  5
39E69
  8
A-DETL-___2
 10
-22.0000000000009095
 20
-220.0000000000036948
 30
0.0
 42
-0.4142135623730951
  0
VERTEX
  5
39E6A
  8
A-DETL-___2
 10
-26.0000000000009095
 20
-224.0000000000036948
 30
0.0
  0
VERTEX
  5
39E6B
  8
A-DETL-___2
 10
-32.9999999999990905
 20
-224.0000000000036948
 30
0.0
 42
0.9999999999999998
  0
VERTEX
  5
39E6C
  8
A-DETL-___2
 10
-32.9999999999990905
 20
-242.0000000000036096
 30
0.0
  0
VERTEX
  5
39E6D
  8
A-DETL-___2
 10
-26.0000000000009095
 20
-242.0000000000036096
 30
0.0
 42
-0.4142135623730951
  0
VERTEX
  5
39E6E
  8
A-DETL-___2
 10
-22.0000000000009095
 20
-246.0000000000036096
 30
0.0
  0
VERTEX
  5
39E6F
  8
A-DETL-___2
 10
-22.0000000000009095
 20
-300.0000000000039222
 30
0.0
 42
-0.4142135623730951
  0
VERTEX
  5
39E70
  8
A-DETL-___2
 10
-26.0000000000009095
 20
-304.0000000000039222
 30
0.0
  0
VERTEX
  5
39E71
  8
A-DETL-___2
 10
-32.9999999999990905
 20
-304.0000000000039222
 30
0.0
 42
0.9999999999999998
  0
VERTEX
  5
39E72
  8
A-DETL-___2
 10
-32.9999999999990905
 20
-322.0000000000039222
 30
0.0
  0
VERTEX
  5
39E73
  8
A-DETL-___2
 10
-26.0000000000009095
 20
-322.0000000000039222
 30
0.0
 42
-0.4142135623730951
  0
VERTEX
  5
39E74
  8
A-DETL-___2
 10
-22.0000000000009095
 20
-326.0000000000039222
 30
0.0
  0
VERTEX
  5
39E75
  8
A-DETL-___2
 10
-22.0000000000009095
 20
-331.0000000000064233
 30
0.0
 42
0.4142135623730951
  0
VERTEX
  5
39E76
  8
A-DETL-___2
 10
-18.0000000000009095
 20
-335.0000000000064233
 30
0.0
  0
VERTEX
  5
39E77
  8
A-DETL-___2
 10
27.0
 20
-335.0000000000064233
 30
0.0
 42
-0.4142135623730951
  0
VERTEX
  5
39E78
  8
A-DETL-___2
 10
31.0
 20
-339.0000000000064233
 30
0.0
  0
VERTEX
  5
39E79
  8
A-DETL-___2
 10
31.0
 20
-346.0000000000118234
 30
0.0
 42
0.9999999999999998
  0
VERTEX
  5
39E7A
  8
A-DETL-___2
 10
49.0
 20
-346.0000000000118234
 30
0.0
  0
VERTEX
  5
39E7B
  8
A-DETL-___2
 10
49.0
 20
-339.0000000000064233
 30
0.0
 42
-0.4142135623730951
  0
VERTEX
  5
39E7C
  8
A-DETL-___2
 10
53.0
 20
-335.0000000000064233
 30
0.0
  0
VERTEX
  5
39E7D
  8
A-DETL-___2
 10
59.9499999999979991
 20
-335.0000000000064233
 30
0.0
  0
VERTEX
  5
39E7E
  8
A-DETL-___2
 10
59.9499999999979991
 20
-321.000000000008697
 30
0.0
  0
VERTEX
  5
39E7F
  8
A-DETL-___2
 10
58.999999999998181
 20
-321.000000000008697
 30
0.0
 42
-0.4142135623730907
  0
VERTEX
  5
39E80
  8
A-DETL-___2
 10
54.999999999998181
 20
-317.0000000000085834
 30
0.0
  0
VERTEX
  5
39E81
  8
A-DETL-___2
 10
54.999999999998181
 20
-309.0000000000085834
 30
0.0
 42
-0.4142135623730907
  0
VERTEX
  5
39E82
  8
A-DETL-___2
 10
58.999999999998181
 20
-305.0000000000085834
 30
0.0
  0
VERTEX
  5
39E83
  8
A-DETL-___2
 10
59.9499999999979991
 20
-305.0000000000085834
 30
0.0
  0
VERTEX
  5
39E84
  8
A-DETL-___2
 10
59.9499999999989015
 20
-201.0000000000067928
 30
0.0
  0
VERTEX
  5
39E85
  8
A-DETL-___2
 10
58.999999999998181
 20
-201.0000000000067928
 30
0.0
 42
-0.4142135623730907
  0
VERTEX
  5
39E86
  8
A-DETL-___2
 10
54.999999999998181
 20
-197.0000000000067928
 30
0.0
  0
VERTEX
  5
39E87
  8
A-DETL-___2
 10
54.999999999998181
 20
-189.0000000000067928
 30
0.0
 42
-0.4142135623730907
  0
VERTEX
  5
39E88
  8
A-DETL-___2
 10
58.999999999998181
 20
-185.0000000000067928
 30
0.0
  0
VERTEX
  5
39E89
  8
A-DETL-___2
 10
59.9499999999989015
 20
-185.0000000000067928
 30
0.0
  0
SEQEND
  5
39E8A
  8
A-DETL-___2
  0
CIRCLE
  5
39954
  8
A-DETL-___2
 10
0.0
 20
0.0
 30
0.0
 40
4.5
  0
CIRCLE
  5
39955
  8
A-DETL-___2
 10
40.0
 20
-346.0000000000118234
 30
0.0
 40
4.5
  0
CIRCLE
  5
39956
  8
A-DETL-___2
 10
-32.9999999999990905
 20
-313.0000000000038085
 30
0.0
 40
4.5
  0
CIRCLE
  5
39957
  8
A-DETL-___2
 10
-32.9999999999990905
 20
-233.0000000000036096
 30
0.0
 40
4.5
  0
CIRCLE
  5
39958
  8
A-DETL-___2
 10
-32.9999999999990905
 20
-153.0000000000019895
 30
0.0
 40
4.5
  0
CIRCLE
  5
39959
  8
A-DETL-___2
 10
-32.9999999999990905
 20
-73.0000000000018048
 30
0.0
 40
4.5
  0
CIRCLE
  5
3995A
  8
A-DETL-___2
 10
0.0
 20
-53.0000000000045475
 30
0.0
 40
2.0
  0
POLYLINE
  5
3995B
  8
A-DETL-___2
 66
     1
 10
0.0
 20
0.0
 30
0.0
 70
     1
  0
VERTEX
  5
39E8B
  8
A-DETL-___2
 10
20.0
 20
-28.0000000000031903
 30
0.0
  0
VERTEX
  5
39E8C
  8
A-DETL-___2
 10
15.66987298107688
 20
-35.5000000000045475
 30
0.0
  0
VERTEX
  5
39E8D
  8
A-DETL-___2
 10
24.3301270189231182
 20
-35.5000000000045475
 30
0.0
  0
SEQEND
  5
39E8E
  8
A-DETL-___2
  0
POLYLINE
  5
3995C
  8
A-DETL-___2
 66
     1
 10
0.0
 20
0.0
 30
0.0
 70
     1
  0
VERTEX
  5
39E8F
  8
A-DETL-___2
 10
20.0000000054369593
 20
-187.5064383850545084
 30
0.0
  0
VERTEX
  5
39E90
  8
A-DETL-___2
 10
15.6698729865138304
 20
-195.0064383850557874
 30
0.0
  0
VERTEX
  5
39E91
  8
A-DETL-___2
 10
24.3301270243600811
 20
-195.0064383850557874
 30
0.0
  0
SEQEND
  5
39E92
  8
A-DETL-___2
  0
ENDBLK
  5
391D4
  8
0
  0
BLOCK
  8
0
  2
PLATE_TWO
 70
     0
 10
0.0
 20
0.0
 30
0.0
  3
PLATE_TWO
  1

  0
CIRCLE
  5
3944B
  8
A-DETL-___2
 10
0.0
 20
-33.0000000000040927
 30
0.0
 40
12.0
  0
CIRCLE
  5
3944C
  8
A-DETL-___2
 10
-13.0
 20
-46.0000000000040927
 30
0.0
 40
1.6000000000000001
  0
CIRCLE
  5
3944D
  8
A-DETL-___2
 10
-13.0000000000009095
 20
-20.000000000004551
 30
0.0
 40
1.6000000000000001
  0
CIRCLE
  5
3944E
  8
A-DETL-___2
 10
12.9999999999990905
 20
-20.0000000000040892
 30
0.0
 40
1.6000000000000001
  0
CIRCLE
  5
3944F
  8
A-DETL-___2
 10
13.0000000000009095
 20
-46.0000000000054499
 30
0.0
 40
1.6000000000000001
  0
CIRCLE
  5
39450
  8
A-DETL-___2
 10
40.0000000000009095
 20
-33.0000000000040927
 30
0.0
 40
12.0
  0
CIRCLE
  5
39451
  8
A-DETL-___2
 10
27.0000000000009095
 20
-46.0000000000040927
 30
0.0
 40
1.6000000000000001
  0
CIRCLE
  5
39452
  8
A-DETL-___2
 10
27.0
 20
-20.000000000004551
 30
0.0
 40
1.6000000000000001
  0
CIRCLE
  5
39453
  8
A-DETL-___2
 10
53.0
 20
-20.0000000000040892
 30
0.0
 40
1.6000000000000001
  0
CIRCLE
  5
39454
  8
A-DETL-___2
 10
53.0000000000018119
 20
-46.0000000000054499
 30
0.0
 40
1.6000000000000001
  0
CIRCLE
  5
39455
  8
A-DETL-___2
 10
0.0
 20
-73.0000000000040927
 30
0.0
 40
12.0
  0
CIRCLE
  5
39456
  8
A-DETL-___2
 10
-13.0
 20
-86.0000000000040927
 30
0.0
 40
1.6000000000000001
  0
CIRCLE
  5
39457
  8
A-DETL-___2
 10
-13.0000000000009095
 20
-60.0000000000045404
 30
0.0
 40
1.6000000000000001
  0
CIRCLE
  5
39458
  8
A-DETL-___2
 10
12.9999999999990905
 20
-60.0000000000040927
 30
0.0
 40
1.6000000000000001
  0
CIRCLE
  5
39459
  8
A-DETL-___2
 10
13.0000000000009095
 20
-86.000000000005457
 30
0.0
 40
1.6000000000000001
  0
CIRCLE
  5
3945A
  8
A-DETL-___2
 10
40.0000000000009095
 20
-73.0000000000040927
 30
0.0
 40
12.0
  0
CIRCLE
  5
3945B
  8
A-DETL-___2
 10
27.0000000000009095
 20
-86.0000000000040927
 30
0.0
 40
1.6000000000000001
  0
CIRCLE
  5
3945C
  8
A-DETL-___2
 10
27.0
 20
-60.0000000000045404
 30
0.0
 40
1.6000000000000001
  0
CIRCLE
  5
3945D
  8
A-DETL-___2
 10
53.0
 20
-60.0000000000040927
 30
0.0
 40
1.6000000000000001
  0
CIRCLE
  5
3945E
  8
A-DETL-___2
 10
53.0000000000018119
 20
-86.000000000005457
 30
0.0
 40
1.6000000000000001
  0
CIRCLE
  5
3945F
  8
A-DETL-___2
 10
40.0000000000009095
 20
-113.0000000000041069
 30
0.0
 40
12.0
  0
CIRCLE
  5
39460
  8
A-DETL-___2
 10
27.0000000000009095
 20
-126.0000000000041069
 30
0.0
 40
1.6000000000000001
  0
CIRCLE
  5
39461
  8
A-DETL-___2
 10
27.0
 20
-100.0000000000045048
 30
0.0
 40
1.6000000000000001
  0
CIRCLE
  5
39462
  8
A-DETL-___2
 10
53.0
 20
-100.0000000000041069
 30
0.0
 40
1.6000000000000001
  0
CIRCLE
  5
39463
  8
A-DETL-___2
 10
53.0000000000018119
 20
-126.0000000000054001
 30
0.0
 40
1.6000000000000001
  0
CIRCLE
  5
39464
  8
A-DETL-___2
 10
40.0000000000009095
 20
-153.0000000000057128
 30
0.0
 40
12.0
  0
CIRCLE
  5
39465
  8
A-DETL-___2
 10
27.0000000000009095
 20
-166.0000000000057128
 30
0.0
 40
1.6000000000000001
  0
CIRCLE
  5
39466
  8
A-DETL-___2
 10
27.0
 20
-140.0000000000063096
 30
0.0
 40
1.6000000000000001
  0
CIRCLE
  5
39467
  8
A-DETL-___2
 10
53.0
 20
-140.0000000000054001
 30
0.0
 40
1.6000000000000001
  0
CIRCLE
  5
39468
  8
A-DETL-___2
 10
53.0000000000018119
 20
-166.0000000000069917
 30
0.0
 40
1.6000000000000001
  0
POLYLINE
  5
39469
  8
A-DETL-___2
 66
     1
 10
0.0
 20
0.0
 30
0.0
 70
     1
  0
VERTEX
  5
39B2D
  8
A-DETL-___2
 10
44.000000000001819
 20
-98.0000000000045475
 30
0.0
  0
VERTEX
  5
39B2E
  8
A-DETL-___2
 10
36.000000000001819
 20
-98.0000000000045475
 30
0.0
 42
-0.4142135623730907
  0
VERTEX
  5
39B2F
  8
A-DETL-___2
 10
32.000000000001819
 20
-94.0000000000045475
 30
0.0
  0
VERTEX
  5
39B30
  8
A-DETL-___2
 10
32.000000000001819
 20
-92.0000000000036238
 30
0.0
 42
-0.4142135623730951
  0
VERTEX
  5
39B31
  8
A-DETL-___2
 10
36.000000000001819
 20
-88.000000000003638
 30
0.0
  0
VERTEX
  5
39B32
  8
A-DETL-___2
 10
44.000000000001819
 20
-88.000000000003638
 30
0.0
 42
-0.4142135623730951
  0
VERTEX
  5
39B33
  8
A-DETL-___2
 10
48.0000000000018119
 20
-92.0000000000036238
 30
0.0
  0
VERTEX
  5
39B34
  8
A-DETL-___2
 10
48.0000000000018119
 20
-94.0000000000045475
 30
0.0
 42
-0.4142135623730907
  0
SEQEND
  5
39B35
  8
A-DETL-___2
  0
POLYLINE
  5
3946A
  8
A-DETL-___2
 66
     1
 10
0.0
 20
0.0
 30
0.0
 70
     1
  0
VERTEX
  5
39B36
  8
A-DETL-___2
 10
15.0
 20
-69.0000000000040927
 30
0.0
  0
VERTEX
  5
39B37
  8
A-DETL-___2
 10
15.0
 20
-77.0000000000040927
 30
0.0
 42
0.4142135623730907
  0
VERTEX
  5
39B38
  8
A-DETL-___2
 10
19.0
 20
-81.0000000000040927
 30
0.0
  0
VERTEX
  5
39B39
  8
A-DETL-___2
 10
21.0
 20
-81.0000000000040927
 30
0.0
 42
0.4142135623730951
  0
VERTEX
  5
39B3A
  8
A-DETL-___2
 10
25.0
 20
-77.0000000000040927
 30
0.0
  0
VERTEX
  5
39B3B
  8
A-DETL-___2
 10
25.0
 20
-69.0000000000040927
 30
0.0
 42
0.4142135623730951
  0
VERTEX
  5
39B3C
  8
A-DETL-___2
 10
21.0
 20
-65.0000000000040927
 30
0.0
  0
VERTEX
  5
39B3D
  8
A-DETL-___2
 10
19.0
 20
-65.0000000000040927
 30
0.0
 42
0.4142135623730907
  0
SEQEND
  5
39B3E
  8
A-DETL-___2
  0
POLYLINE
  5
3946B
  8
A-DETL-___2
 66
     1
 10
0.0
 20
0.0
 30
0.0
 70
     1
  0
VERTEX
  5
39B3F
  8
A-DETL-___2
 10
-4.0
 20
-58.0000000000050022
 30
0.0
  0
VERTEX
  5
39B40
  8
A-DETL-___2
 10
4.0
 20
-58.0000000000050022
 30
0.0
 42
0.4142135623730907
  0
VERTEX
  5
39B41
  8
A-DETL-___2
 10
8.0
 20
-54.0000000000050022
 30
0.0
  0
VERTEX
  5
39B42
  8
A-DETL-___2
 10
8.0
 20
-52.0000000000040927
 30
0.0
 42
0.4142135623730951
  0
VERTEX
  5
39B43
  8
A-DETL-___2
 10
4.0
 20
-48.0000000000040927
 30
0.0
  0
VERTEX
  5
39B44
  8
A-DETL-___2
 10
-4.0
 20
-48.0000000000040927
 30
0.0
 42
0.4142135623730951
  0
VERTEX
  5
39B45
  8
A-DETL-___2
 10
-8.0
 20
-52.0000000000040927
 30
0.0
  0
VERTEX
  5
39B46
  8
A-DETL-___2
 10
-8.0
 20
-54.0000000000050022
 30
0.0
 42
0.4142135623730907
  0
SEQEND
  5
39B47
  8
A-DETL-___2
  0
CIRCLE
  5
3946C
  8
A-DETL-___2
 10
40.0000000000009095
 20
-53.0000000000045475
 30
0.0
 40
1.6000000000000001
  0
CIRCLE
  5
3946D
  8
A-DETL-___2
 10
40.0000000000009095
 20
-133.0000000000044906
 30
0.0
 40
1.6000000000000001
  0
ARC
  5
3946E
  8
A-DETL-___2
 10
0.0
 20
-93.0000000000045475
 30
0.0
 40
1.6000000000000001
 50
1.790784659328885
 51
178.2092153406711077
  0
CIRCLE
  5
3946F
  8
A-DETL-___2
 10
80.0
 20
-33.000000000005457
 30
0.0
 40
12.0
  0
CIRCLE
  5
39470
  8
A-DETL-___2
 10
67.0
 20
-46.0000000000054499
 30
0.0
 40
1.6000000000000001
  0
CIRCLE
  5
39471
  8
A-DETL-___2
 10
66.9999999999990905
 20
-20.0000000000059117
 30
0.0
 40
1.6000000000000001
  0
CIRCLE
  5
39472
  8
A-DETL-___2
 10
92.9999999999991047
 20
-20.0000000000054605
 30
0.0
 40
1.6000000000000001
  0
CIRCLE
  5
39473
  8
A-DETL-___2
 10
93.0000000000009095
 20
-46.0000000000068212
 30
0.0
 40
1.6000000000000001
  0
CIRCLE
  5
39474
  8
A-DETL-___2
 10
120.0
 20
-33.000000000005457
 30
0.0
 40
12.0
  0
CIRCLE
  5
39475
  8
A-DETL-___2
 10
107.0
 20
-46.0000000000054499
 30
0.0
 40
1.6000000000000001
  0
CIRCLE
  5
39476
  8
A-DETL-___2
 10
106.9999999999991047
 20
-20.0000000000059117
 30
0.0
 40
1.6000000000000001
  0
CIRCLE
  5
39477
  8
A-DETL-___2
 10
132.9999999999990905
 20
-20.0000000000054605
 30
0.0
 40
1.6000000000000001
  0
CIRCLE
  5
39478
  8
A-DETL-___2
 10
133.0000000000009095
 20
-46.0000000000068212
 30
0.0
 40
1.6000000000000001
  0
CIRCLE
  5
39479
  8
A-DETL-___2
 10
160.0000000000009095
 20
-33.000000000005457
 30
0.0
 40
12.0
  0
CIRCLE
  5
3947A
  8
A-DETL-___2
 10
147.0000000000009095
 20
-46.0000000000054499
 30
0.0
 40
1.6000000000000001
  0
CIRCLE
  5
3947B
  8
A-DETL-___2
 10
147.0
 20
-20.0000000000059117
 30
0.0
 40
1.6000000000000001
  0
CIRCLE
  5
3947C
  8
A-DETL-___2
 10
173.0
 20
-20.0000000000054605
 30
0.0
 40
1.6000000000000001
  0
CIRCLE
  5
3947D
  8
A-DETL-___2
 10
173.0000000000017906
 20
-46.0000000000068212
 30
0.0
 40
1.6000000000000001
  0
CIRCLE
  5
3947E
  8
A-DETL-___2
 10
200.0000000000017906
 20
-33.000000000005457
 30
0.0
 40
12.0
  0
CIRCLE
  5
3947F
  8
A-DETL-___2
 10
187.0000000000017906
 20
-46.0000000000054499
 30
0.0
 40
1.6000000000000001
  0
CIRCLE
  5
39480
  8
A-DETL-___2
 10
187.0000000000009095
 20
-20.0000000000059117
 30
0.0
 40
1.6000000000000001
  0
CIRCLE
  5
39481
  8
A-DETL-___2
 10
213.0000000000009095
 20
-20.0000000000054605
 30
0.0
 40
1.6000000000000001
  0
CIRCLE
  5
39482
  8
A-DETL-___2
 10
213.0000000000027001
 20
-46.0000000000068212
 30
0.0
 40
1.6000000000000001
  0
CIRCLE
  5
39483
  8
A-DETL-___2
 10
80.0
 20
-73.000000000005457
 30
0.0
 40
12.0
  0
CIRCLE
  5
39484
  8
A-DETL-___2
 10
67.0
 20
-86.000000000005457
 30
0.0
 40
1.6000000000000001
  0
CIRCLE
  5
39485
  8
A-DETL-___2
 10
66.9999999999990905
 20
-60.0000000000059117
 30
0.0
 40
1.6000000000000001
  0
CIRCLE
  5
39486
  8
A-DETL-___2
 10
92.9999999999991047
 20
-60.000000000005457
 30
0.0
 40
1.6000000000000001
  0
CIRCLE
  5
39487
  8
A-DETL-___2
 10
93.0000000000009095
 20
-86.000000000006807
 30
0.0
 40
1.6000000000000001
  0
CIRCLE
  5
39488
  8
A-DETL-___2
 10
120.0
 20
-73.000000000005457
 30
0.0
 40
12.0
  0
CIRCLE
  5
39489
  8
A-DETL-___2
 10
107.0
 20
-86.000000000005457
 30
0.0
 40
1.6000000000000001
  0
CIRCLE
  5
3948A
  8
A-DETL-___2
 10
106.9999999999991047
 20
-60.0000000000059117
 30
0.0
 40
1.6000000000000001
  0
CIRCLE
  5
3948B
  8
A-DETL-___2
 10
132.9999999999990905
 20
-60.000000000005457
 30
0.0
 40
1.6000000000000001
  0
CIRCLE
  5
3948C
  8
A-DETL-___2
 10
133.0000000000009095
 20
-86.000000000006807
 30
0.0
 40
1.6000000000000001
  0
CIRCLE
  5
3948D
  8
A-DETL-___2
 10
160.0000000000009095
 20
-73.000000000005457
 30
0.0
 40
12.0
  0
CIRCLE
  5
3948E
  8
A-DETL-___2
 10
147.0000000000009095
 20
-86.000000000005457
 30
0.0
 40
1.6000000000000001
  0
CIRCLE
  5
3948F
  8
A-DETL-___2
 10
147.0
 20
-60.0000000000059117
 30
0.0
 40
1.6000000000000001
  0
CIRCLE
  5
39490
  8
A-DETL-___2
 10
173.0
 20
-60.000000000005457
 30
0.0
 40
1.6000000000000001
  0
CIRCLE
  5
39491
  8
A-DETL-___2
 10
173.0000000000017906
 20
-86.000000000006807
 30
0.0
 40
1.6000000000000001
  0
CIRCLE
  5
39492
  8
A-DETL-___2
 10
200.0000000000017906
 20
-73.000000000005457
 30
0.0
 40
12.0
  0
CIRCLE
  5
39493
  8
A-DETL-___2
 10
187.0000000000017906
 20
-86.000000000005457
 30
0.0
 40
1.6000000000000001
  0
CIRCLE
  5
39494
  8
A-DETL-___2
 10
187.0000000000009095
 20
-60.0000000000059117
 30
0.0
 40
1.6000000000000001
  0
CIRCLE
  5
39495
  8
A-DETL-___2
 10
213.0000000000009095
 20
-60.000000000005457
 30
0.0
 40
1.6000000000000001
  0
CIRCLE
  5
39496
  8
A-DETL-___2
 10
213.0000000000027001
 20
-86.000000000006807
 30
0.0
 40
1.6000000000000001
  0
CIRCLE
  5
39497
  8
A-DETL-___2
 10
80.0
 20
-113.0000000000054001
 30
0.0
 40
12.0
  0
CIRCLE
  5
39498
  8
A-DETL-___2
 10
67.0
 20
-126.0000000000054001
 30
0.0
 40
1.6000000000000001
  0
CIRCLE
  5
39499
  8
A-DETL-___2
 10
66.9999999999990905
 20
-100.0000000000058975
 30
0.0
 40
1.6000000000000001
  0
CIRCLE
  5
3949A
  8
A-DETL-___2
 10
92.9999999999991047
 20
-100.0000000000054001
 30
0.0
 40
1.6000000000000001
  0
CIRCLE
  5
3949B
  8
A-DETL-___2
 10
93.0000000000009095
 20
-126.000000000006807
 30
0.0
 40
1.6000000000000001
  0
CIRCLE
  5
3949C
  8
A-DETL-___2
 10
120.0
 20
-113.0000000000054001
 30
0.0
 40
12.0
  0
CIRCLE
  5
3949D
  8
A-DETL-___2
 10
107.0
 20
-126.0000000000054001
 30
0.0
 40
1.6000000000000001
  0
CIRCLE
  5
3949E
  8
A-DETL-___2
 10
106.9999999999991047
 20
-100.0000000000058975
 30
0.0
 40
1.6000000000000001
  0
CIRCLE
  5
3949F
  8
A-DETL-___2
 10
132.9999999999990905
 20
-100.0000000000054001
 30
0.0
 40
1.6000000000000001
  0
CIRCLE
  5
394A0
  8
A-DETL-___2
 10
133.0000000000009095
 20
-126.000000000006807
 30
0.0
 40
1.6000000000000001
  0
CIRCLE
  5
394A1
  8
A-DETL-___2
 10
160.0000000000009095
 20
-113.0000000000054001
 30
0.0
 40
12.0
  0
CIRCLE
  5
394A2
  8
A-DETL-___2
 10
147.0000000000009095
 20
-126.0000000000054001
 30
0.0
 40
1.6000000000000001
  0
CIRCLE
  5
394A3
  8
A-DETL-___2
 10
147.0
 20
-100.0000000000058975
 30
0.0
 40
1.6000000000000001
  0
CIRCLE
  5
394A4
  8
A-DETL-___2
 10
173.0
 20
-100.0000000000054001
 30
0.0
 40
1.6000000000000001
  0
CIRCLE
  5
394A5
  8
A-DETL-___2
 10
173.0000000000017906
 20
-126.000000000006807
 30
0.0
 40
1.6000000000000001
  0
CIRCLE
  5
394A6
  8
A-DETL-___2
 10
200.0000000000017906
 20
-113.0000000000054001
 30
0.0
 40
12.0
  0
CIRCLE
  5
394A7
  8
A-DETL-___2
 10
187.0000000000017906
 20
-126.0000000000054001
 30
0.0
 40
1.6000000000000001
  0
CIRCLE
  5
394A8
  8
A-DETL-___2
 10
187.0000000000009095
 20
-100.0000000000058975
 30
0.0
 40
1.6000000000000001
  0
CIRCLE
  5
394A9
  8
A-DETL-___2
 10
213.0000000000009095
 20
-100.0000000000054001
 30
0.0
 40
1.6000000000000001
  0
CIRCLE
  5
394AA
  8
A-DETL-___2
 10
213.0000000000027001
 20
-126.000000000006807
 30
0.0
 40
1.6000000000000001
  0
CIRCLE
  5
394AB
  8
A-DETL-___2
 10
80.0
 20
-153.0000000000069917
 30
0.0
 40
12.0
  0
CIRCLE
  5
394AC
  8
A-DETL-___2
 10
67.0
 20
-166.0000000000069917
 30
0.0
 40
1.6000000000000001
  0
CIRCLE
  5
394AD
  8
A-DETL-___2
 10
66.9999999999990905
 20
-140.0000000000077023
 30
0.0
 40
1.6000000000000001
  0
CIRCLE
  5
394AE
  8
A-DETL-___2
 10
92.9999999999991047
 20
-140.0000000000067928
 30
0.0
 40
1.6000000000000001
  0
CIRCLE
  5
394AF
  8
A-DETL-___2
 10
93.0000000000009095
 20
-166.0000000000084128
 30
0.0
 40
1.6000000000000001
  0
CIRCLE
  5
394B0
  8
A-DETL-___2
 10
120.0
 20
-153.0000000000069917
 30
0.0
 40
12.0
  0
CIRCLE
  5
394B1
  8
A-DETL-___2
 10
107.0
 20
-166.0000000000069917
 30
0.0
 40
1.6000000000000001
  0
CIRCLE
  5
394B2
  8
A-DETL-___2
 10
106.9999999999991047
 20
-140.0000000000077023
 30
0.0
 40
1.6000000000000001
  0
CIRCLE
  5
394B3
  8
A-DETL-___2
 10
132.9999999999990905
 20
-140.0000000000067928
 30
0.0
 40
1.6000000000000001
  0
CIRCLE
  5
394B4
  8
A-DETL-___2
 10
133.0000000000009095
 20
-166.0000000000084128
 30
0.0
 40
1.6000000000000001
  0
CIRCLE
  5
394B5
  8
A-DETL-___2
 10
160.0000000000009095
 20
-153.0000000000069917
 30
0.0
 40
12.0
  0
CIRCLE
  5
394B6
  8
A-DETL-___2
 10
147.0000000000009095
 20
-166.0000000000069917
 30
0.0
 40
1.6000000000000001
  0
CIRCLE
  5
394B7
  8
A-DETL-___2
 10
147.0
 20
-140.0000000000077023
 30
0.0
 40
1.6000000000000001
  0
CIRCLE
  5
394B8
  8
A-DETL-___2
 10
173.0
 20
-140.0000000000067928
 30
0.0
 40
1.6000000000000001
  0
CIRCLE
  5
394B9
  8
A-DETL-___2
 10
173.0000000000017906
 20
-166.0000000000084128
 30
0.0
 40
1.6000000000000001
  0
CIRCLE
  5
394BA
  8
A-DETL-___2
 10
200.0000000000017906
 20
-153.0000000000069917
 30
0.0
 40
12.0
  0
CIRCLE
  5
394BB
  8
A-DETL-___2
 10
187.0000000000017906
 20
-166.0000000000069917
 30
0.0
 40
1.6000000000000001
  0
CIRCLE
  5
394BC
  8
A-DETL-___2
 10
187.0000000000009095
 20
-140.0000000000077023
 30
0.0
 40
1.6000000000000001
  0
CIRCLE
  5
394BD
  8
A-DETL-___2
 10
213.0000000000009095
 20
-140.0000000000067928
 30
0.0
 40
1.6000000000000001
  0
CIRCLE
  5
394BE
  8
A-DETL-___2
 10
213.0000000000027001
 20
-166.0000000000084128
 30
0.0
 40
1.6000000000000001
  0
POLYLINE
  5
394BF
  8
A-DETL-___2
 66
     1
 10
0.0
 20
0.0
 30
0.0
 70
     1
  0
VERTEX
  5
39B48
  8
A-DETL-___2
 10
76.0
 20
-98.0000000000063665
 30
0.0
  0
VERTEX
  5
39B49
  8
A-DETL-___2
 10
84.0
 20
-98.0000000000063665
 30
0.0
 42
0.4142135623730907
  0
VERTEX
  5
39B4A
  8
A-DETL-___2
 10
88.0
 20
-94.0000000000063665
 30
0.0
  0
VERTEX
  5
39B4B
  8
A-DETL-___2
 10
88.0
 20
-92.000000000005457
 30
0.0
 42
0.4142135623730951
  0
VERTEX
  5
39B4C
  8
A-DETL-___2
 10
84.0
 20
-88.000000000005457
 30
0.0
  0
VERTEX
  5
39B4D
  8
A-DETL-___2
 10
76.0
 20
-88.000000000005457
 30
0.0
 42
0.4142135623730951
  0
VERTEX
  5
39B4E
  8
A-DETL-___2
 10
72.0
 20
-92.000000000005457
 30
0.0
  0
VERTEX
  5
39B4F
  8
A-DETL-___2
 10
72.0
 20
-94.0000000000063665
 30
0.0
 42
0.4142135623730907
  0
SEQEND
  5
39B50
  8
A-DETL-___2
  0
POLYLINE
  5
394C0
  8
A-DETL-___2
 66
     1
 10
0.0
 20
0.0
 30
0.0
 70
     1
  0
VERTEX
  5
39B51
  8
A-DETL-___2
 10
135.0
 20
-29.0000000000054605
 30
0.0
  0
VERTEX
  5
39B52
  8
A-DETL-___2
 10
135.0
 20
-37.000000000005457
 30
0.0
 42
0.4142135623730907
  0
VERTEX
  5
39B53
  8
A-DETL-___2
 10
139.0
 20
-41.0000000000054499
 30
0.0
  0
VERTEX
  5
39B54
  8
A-DETL-___2
 10
141.0
 20
-41.0000000000054499
 30
0.0
 42
0.4142135623730951
  0
VERTEX
  5
39B55
  8
A-DETL-___2
 10
145.0
 20
-37.000000000005457
 30
0.0
  0
VERTEX
  5
39B56
  8
A-DETL-___2
 10
145.0
 20
-29.0000000000054605
 30
0.0
 42
0.4142135623730951
  0
VERTEX
  5
39B57
  8
A-DETL-___2
 10
141.0
 20
-25.0000000000054605
 30
0.0
  0
VERTEX
  5
39B58
  8
A-DETL-___2
 10
139.0
 20
-25.0000000000054605
 30
0.0
 42
0.4142135623730907
  0
SEQEND
  5
39B59
  8
A-DETL-___2
  0
POLYLINE
  5
394C1
  8
A-DETL-___2
 66
     1
 10
0.0
 20
0.0
 30
0.0
 70
     1
  0
VERTEX
  5
39B5A
  8
A-DETL-___2
 10
135.0
 20
-157.0000000000073044
 30
0.0
  0
VERTEX
  5
39B5B
  8
A-DETL-___2
 10
135.0
 20
-149.0000000000073044
 30
0.0
 42
-0.4142135623730907
  0
VERTEX
  5
39B5C
  8
A-DETL-___2
 10
139.0
 20
-145.0000000000073044
 30
0.0
  0
VERTEX
  5
39B5D
  8
A-DETL-___2
 10
141.0
 20
-145.0000000000073044
 30
0.0
 42
-0.4142135623730951
  0
VERTEX
  5
39B5E
  8
A-DETL-___2
 10
145.0
 20
-149.0000000000077023
 30
0.0
  0
VERTEX
  5
39B5F
  8
A-DETL-___2
 10
145.0
 20
-157.0000000000077023
 30
0.0
 42
-0.4142135623730951
  0
VERTEX
  5
39B60
  8
A-DETL-___2
 10
141.0
 20
-161.0000000000071907
 30
0.0
  0
VERTEX
  5
39B61
  8
A-DETL-___2
 10
139.0
 20
-161.0000000000071907
 30
0.0
 42
-0.4142135623730907
  0
SEQEND
  5
39B62
  8
A-DETL-___2
  0
POLYLINE
  5
394C2
  8
A-DETL-___2
 66
     1
 10
0.0
 20
0.0
 30
0.0
 70
     1
  0
VERTEX
  5
39B63
  8
A-DETL-___2
 10
204.0000000000027001
 20
-98.0000000000059259
 30
0.0
  0
VERTEX
  5
39B64
  8
A-DETL-___2
 10
196.0000000000027001
 20
-98.0000000000059259
 30
0.0
 42
-0.4142135623730907
  0
VERTEX
  5
39B65
  8
A-DETL-___2
 10
192.0000000000027001
 20
-94.0000000000059117
 30
0.0
  0
VERTEX
  5
39B66
  8
A-DETL-___2
 10
192.0000000000027001
 20
-92.0000000000050022
 30
0.0
 42
-0.4142135623730951
  0
VERTEX
  5
39B67
  8
A-DETL-___2
 10
196.0000000000027001
 20
-88.000000000004988
 30
0.0
  0
VERTEX
  5
39B68
  8
A-DETL-___2
 10
204.0000000000027001
 20
-88.000000000004988
 30
0.0
 42
-0.4142135623730951
  0
VERTEX
  5
39B69
  8
A-DETL-___2
 10
208.0000000000027001
 20
-92.0000000000050022
 30
0.0
  0
VERTEX
  5
39B6A
  8
A-DETL-___2
 10
208.0000000000027001
 20
-94.0000000000059117
 30
0.0
 42
-0.4142135623730907
  0
SEQEND
  5
39B6B
  8
A-DETL-___2
  0
POLYLINE
  5
394C3
  8
A-DETL-___2
 66
     1
 10
0.0
 20
0.0
 30
0.0
 70
     1
  0
VERTEX
  5
39B6C
  8
A-DETL-___2
 10
94.9999999999990905
 20
-69.000000000005457
 30
0.0
  0
VERTEX
  5
39B6D
  8
A-DETL-___2
 10
94.9999999999990905
 20
-77.000000000005457
 30
0.0
 42
0.4142135623730907
  0
VERTEX
  5
39B6E
  8
A-DETL-___2
 10
98.9999999999990905
 20
-81.000000000005457
 30
0.0
  0
VERTEX
  5
39B6F
  8
A-DETL-___2
 10
100.9999999999991047
 20
-81.000000000005457
 30
0.0
 42
0.4142135623730951
  0
VERTEX
  5
39B70
  8
A-DETL-___2
 10
104.9999999999991047
 20
-77.000000000005457
 30
0.0
  0
VERTEX
  5
39B71
  8
A-DETL-___2
 10
104.9999999999991047
 20
-69.000000000005457
 30
0.0
 42
0.4142135623730951
  0
VERTEX
  5
39B72
  8
A-DETL-___2
 10
100.9999999999991047
 20
-65.000000000005457
 30
0.0
  0
VERTEX
  5
39B73
  8
A-DETL-___2
 10
98.9999999999990905
 20
-65.000000000005457
 30
0.0
 42
0.4142135623730907
  0
SEQEND
  5
39B74
  8
A-DETL-___2
  0
POLYLINE
  5
394C4
  8
A-DETL-___2
 66
     1
 10
0.0
 20
0.0
 30
0.0
 70
     1
  0
VERTEX
  5
39B75
  8
A-DETL-___2
 10
175.0000000000009095
 20
-117.0000000000058975
 30
0.0
  0
VERTEX
  5
39B76
  8
A-DETL-___2
 10
175.0000000000009095
 20
-109.0000000000058975
 30
0.0
 42
-0.4142135623730907
  0
VERTEX
  5
39B77
  8
A-DETL-___2
 10
179.0000000000009095
 20
-105.0000000000058975
 30
0.0
  0
VERTEX
  5
39B78
  8
A-DETL-___2
 10
181.0000000000009095
 20
-105.0000000000058975
 30
0.0
 42
-0.4142135623730951
  0
VERTEX
  5
39B79
  8
A-DETL-___2
 10
185.0000000000009095
 20
-109.0000000000058975
 30
0.0
  0
VERTEX
  5
39B7A
  8
A-DETL-___2
 10
185.0000000000009095
 20
-117.0000000000058975
 30
0.0
 42
-0.4142135623730951
  0
VERTEX
  5
39B7B
  8
A-DETL-___2
 10
181.0000000000009095
 20
-121.0000000000058975
 30
0.0
  0
VERTEX
  5
39B7C
  8
A-DETL-___2
 10
179.0000000000009095
 20
-121.0000000000058975
 30
0.0
 42
-0.4142135623730907
  0
SEQEND
  5
39B7D
  8
A-DETL-___2
  0
POLYLINE
  5
394C5
  8
A-DETL-___2
 66
     1
 10
0.0
 20
0.0
 30
0.0
 70
     1
  0
VERTEX
  5
39B7E
  8
A-DETL-___2
 10
175.0000000000009095
 20
-69.000000000005457
 30
0.0
  0
VERTEX
  5
39B7F
  8
A-DETL-___2
 10
175.0000000000009095
 20
-77.000000000005457
 30
0.0
 42
0.4142135623730907
  0
VERTEX
  5
39B80
  8
A-DETL-___2
 10
179.0000000000009095
 20
-81.000000000005457
 30
0.0
  0
VERTEX
  5
39B81
  8
A-DETL-___2
 10
181.0000000000009095
 20
-81.000000000005457
 30
0.0
 42
0.4142135623730951
  0
VERTEX
  5
39B82
  8
A-DETL-___2
 10
185.0000000000009095
 20
-77.000000000005457
 30
0.0
  0
VERTEX
  5
39B83
  8
A-DETL-___2
 10
185.0000000000009095
 20
-69.000000000005457
 30
0.0
 42
0.4142135623730951
  0
VERTEX
  5
39B84
  8
A-DETL-___2
 10
181.0000000000009095
 20
-65.000000000005457
 30
0.0
  0
VERTEX
  5
39B85
  8
A-DETL-___2
 10
179.0000000000009095
 20
-65.000000000005457
 30
0.0
 42
0.4142135623730907
  0
SEQEND
  5
39B86
  8
A-DETL-___2
  0
POLYLINE
  5
394C6
  8
A-DETL-___2
 66
     1
 10
0.0
 20
0.0
 30
0.0
 70
     1
  0
VERTEX
  5
39B87
  8
A-DETL-___2
 10
95.0
 20
-109.0000000000054001
 30
0.0
  0
VERTEX
  5
39B88
  8
A-DETL-___2
 10
95.0
 20
-117.0000000000054001
 30
0.0
 42
0.4142135623730907
  0
VERTEX
  5
39B89
  8
A-DETL-___2
 10
99.0
 20
-121.0000000000054001
 30
0.0
  0
VERTEX
  5
39B8A
  8
A-DETL-___2
 10
101.0
 20
-121.0000000000054001
 30
0.0
 42
0.4142135623730951
  0
VERTEX
  5
39B8B
  8
A-DETL-___2
 10
105.0
 20
-117.0000000000054001
 30
0.0
  0
VERTEX
  5
39B8C
  8
A-DETL-___2
 10
105.0
 20
-109.0000000000054001
 30
0.0
 42
0.4142135623730951
  0
VERTEX
  5
39B8D
  8
A-DETL-___2
 10
101.0
 20
-105.0000000000054001
 30
0.0
  0
VERTEX
  5
39B8E
  8
A-DETL-___2
 10
99.0
 20
-105.0000000000054001
 30
0.0
 42
0.4142135623730907
  0
SEQEND
  5
39B8F
  8
A-DETL-___2
  0
POLYLINE
  5
394C7
  8
A-DETL-___2
 66
     1
 10
0.0
 20
0.0
 30
0.0
 70
     1
  0
VERTEX
  5
39B90
  8
A-DETL-___2
 10
116.0
 20
-138.0000000000063096
 30
0.0
  0
VERTEX
  5
39B91
  8
A-DETL-___2
 10
124.0
 20
-138.0000000000063096
 30
0.0
 42
0.4142135623730907
  0
VERTEX
  5
39B92
  8
A-DETL-___2
 10
128.0
 20
-134.0000000000063096
 30
0.0
  0
VERTEX
  5
39B93
  8
A-DETL-___2
 10
128.0
 20
-132.0000000000054001
 30
0.0
 42
0.4142135623730951
  0
VERTEX
  5
39B94
  8
A-DETL-___2
 10
124.0
 20
-128.0000000000054001
 30
0.0
  0
VERTEX
  5
39B95
  8
A-DETL-___2
 10
116.0
 20
-128.0000000000054001
 30
0.0
 42
0.4142135623730951
  0
VERTEX
  5
39B96
  8
A-DETL-___2
 10
112.0
 20
-132.0000000000054001
 30
0.0
  0
VERTEX
  5
39B97
  8
A-DETL-___2
 10
112.0
 20
-134.0000000000063096
 30
0.0
 42
0.4142135623730907
  0
SEQEND
  5
39B98
  8
A-DETL-___2
  0
POLYLINE
  5
394C8
  8
A-DETL-___2
 66
     1
 10
0.0
 20
0.0
 30
0.0
 70
     1
  0
VERTEX
  5
39B99
  8
A-DETL-___2
 10
156.0000000000009095
 20
-138.0000000000063096
 30
0.0
  0
VERTEX
  5
39B9A
  8
A-DETL-___2
 10
164.0000000000009095
 20
-138.0000000000063096
 30
0.0
 42
0.4142135623730907
  0
VERTEX
  5
39B9B
  8
A-DETL-___2
 10
168.0000000000009095
 20
-134.0000000000063096
 30
0.0
  0
VERTEX
  5
39B9C
  8
A-DETL-___2
 10
168.0000000000009095
 20
-132.0000000000054001
 30
0.0
 42
0.4142135623730951
  0
VERTEX
  5
39B9D
  8
A-DETL-___2
 10
164.0000000000009095
 20
-128.0000000000054001
 30
0.0
  0
VERTEX
  5
39B9E
  8
A-DETL-___2
 10
156.0000000000009095
 20
-128.0000000000054001
 30
0.0
 42
0.4142135623730951
  0
VERTEX
  5
39B9F
  8
A-DETL-___2
 10
152.0000000000009095
 20
-132.0000000000054001
 30
0.0
  0
VERTEX
  5
39BA0
  8
A-DETL-___2
 10
152.0000000000009095
 20
-134.0000000000063096
 30
0.0
 42
0.4142135623730907
  0
SEQEND
  5
39BA1
  8
A-DETL-___2
  0
POLYLINE
  5
394C9
  8
A-DETL-___2
 66
     1
 10
0.0
 20
0.0
 30
0.0
 70
     1
  0
VERTEX
  5
39BA2
  8
A-DETL-___2
 10
156.0000000000009095
 20
-58.0000000000063594
 30
0.0
  0
VERTEX
  5
39BA3
  8
A-DETL-___2
 10
164.0000000000009095
 20
-58.0000000000063594
 30
0.0
 42
0.4142135623730907
  0
VERTEX
  5
39BA4
  8
A-DETL-___2
 10
168.0000000000009095
 20
-54.0000000000063665
 30
0.0
  0
VERTEX
  5
39BA5
  8
A-DETL-___2
 10
168.0000000000009095
 20
-52.000000000005457
 30
0.0
 42
0.4142135623730951
  0
VERTEX
  5
39BA6
  8
A-DETL-___2
 10
164.0000000000009095
 20
-48.000000000005457
 30
0.0
  0
VERTEX
  5
39BA7
  8
A-DETL-___2
 10
156.0000000000009095
 20
-48.000000000005457
 30
0.0
 42
0.4142135623730951
  0
VERTEX
  5
39BA8
  8
A-DETL-___2
 10
152.0000000000009095
 20
-52.000000000005457
 30
0.0
  0
VERTEX
  5
39BA9
  8
A-DETL-___2
 10
152.0000000000009095
 20
-54.0000000000063665
 30
0.0
 42
0.4142135623730907
  0
SEQEND
  5
39BAA
  8
A-DETL-___2
  0
POLYLINE
  5
394CA
  8
A-DETL-___2
 66
     1
 10
0.0
 20
0.0
 30
0.0
 70
     1
  0
VERTEX
  5
39BAB
  8
A-DETL-___2
 10
116.0
 20
-58.0000000000063594
 30
0.0
  0
VERTEX
  5
39BAC
  8
A-DETL-___2
 10
124.0
 20
-58.0000000000063594
 30
0.0
 42
0.4142135623730907
  0
VERTEX
  5
39BAD
  8
A-DETL-___2
 10
128.0
 20
-54.0000000000063665
 30
0.0
  0
VERTEX
  5
39BAE
  8
A-DETL-___2
 10
128.0
 20
-52.000000000005457
 30
0.0
 42
0.4142135623730951
  0
VERTEX
  5
39BAF
  8
A-DETL-___2
 10
124.0
 20
-48.000000000005457
 30
0.0
  0
VERTEX
  5
39BB0
  8
A-DETL-___2
 10
116.0
 20
-48.000000000005457
 30
0.0
 42
0.4142135623730951
  0
VERTEX
  5
39BB1
  8
A-DETL-___2
 10
112.0
 20
-52.000000000005457
 30
0.0
  0
VERTEX
  5
39BB2
  8
A-DETL-___2
 10
112.0
 20
-54.0000000000063665
 30
0.0
 42
0.4142135623730907
  0
SEQEND
  5
39BB3
  8
A-DETL-___2
  0
CIRCLE
  5
394CB
  8
A-DETL-___2
 10
80.0
 20
-53.0000000000059117
 30
0.0
 40
1.6000000000000001
  0
CIRCLE
  5
394CC
  8
A-DETL-___2
 10
80.0
 20
-133.0000000000059117
 30
0.0
 40
1.6000000000000001
  0
CIRCLE
  5
394CD
  8
A-DETL-___2
 10
200.0000000000017906
 20
-53.0000000000059117
 30
0.0
 40
1.6000000000000001
  0
CIRCLE
  5
394CE
  8
A-DETL-___2
 10
200.0000000000017906
 20
-133.0000000000059117
 30
0.0
 40
1.6000000000000001
  0
CIRCLE
  5
394CF
  8
A-DETL-___2
 10
120.0
 20
-93.0000000000059259
 30
0.0
 40
1.6000000000000001
  0
CIRCLE
  5
394D0
  8
A-DETL-___2
 10
160.0000000000009095
 20
-93.0000000000059259
 30
0.0
 40
1.6000000000000001
  0
CIRCLE
  5
394D1
  8
A-DETL-___2
 10
240.0000000000017906
 20
-33.0000000000072831
 30
0.0
 40
12.0
  0
CIRCLE
  5
394D2
  8
A-DETL-___2
 10
227.0000000000017906
 20
-46.0000000000072689
 30
0.0
 40
1.6000000000000001
  0
CIRCLE
  5
394D3
  8
A-DETL-___2
 10
227.0000000000009095
 20
-20.0000000000077307
 30
0.0
 40
1.6000000000000001
  0
CIRCLE
  5
394D4
  8
A-DETL-___2
 10
253.0000000000009095
 20
-20.0000000000072795
 30
0.0
 40
1.6000000000000001
  0
CIRCLE
  5
394D5
  8
A-DETL-___2
 10
253.0000000000027001
 20
-46.0000000000086331
 30
0.0
 40
1.6000000000000001
  0
CIRCLE
  5
394D6
  8
A-DETL-___2
 10
280.000000000001819
 20
-33.0000000000072831
 30
0.0
 40
12.0
  0
CIRCLE
  5
394D7
  8
A-DETL-___2
 10
267.000000000001819
 20
-46.0000000000072689
 30
0.0
 40
1.6000000000000001
  0
CIRCLE
  5
394D8
  8
A-DETL-___2
 10
267.0000000000009095
 20
-20.0000000000077307
 30
0.0
 40
1.6000000000000001
  0
CIRCLE
  5
394D9
  8
A-DETL-___2
 10
293.0000000000009095
 20
-20.0000000000072795
 30
0.0
 40
1.6000000000000001
  0
CIRCLE
  5
394DA
  8
A-DETL-___2
 10
293.0000000000026716
 20
-46.0000000000086331
 30
0.0
 40
1.6000000000000001
  0
CIRCLE
  5
394DB
  8
A-DETL-___2
 10
240.0000000000017906
 20
-73.000000000007276
 30
0.0
 40
12.0
  0
CIRCLE
  5
394DC
  8
A-DETL-___2
 10
227.0000000000017906
 20
-86.000000000007276
 30
0.0
 40
1.6000000000000001
  0
CIRCLE
  5
394DD
  8
A-DETL-___2
 10
227.0000000000009095
 20
-60.0000000000077307
 30
0.0
 40
1.6000000000000001
  0
CIRCLE
  5
394DE
  8
A-DETL-___2
 10
253.0000000000009095
 20
-60.0000000000072831
 30
0.0
 40
1.6000000000000001
  0
CIRCLE
  5
394DF
  8
A-DETL-___2
 10
253.0000000000027001
 20
-86.0000000000086402
 30
0.0
 40
1.6000000000000001
  0
CIRCLE
  5
394E0
  8
A-DETL-___2
 10
280.000000000001819
 20
-73.000000000007276
 30
0.0
 40
12.0
  0
CIRCLE
  5
394E1
  8
A-DETL-___2
 10
267.000000000001819
 20
-86.000000000007276
 30
0.0
 40
1.6000000000000001
  0
CIRCLE
  5
394E2
  8
A-DETL-___2
 10
267.0000000000009095
 20
-60.0000000000077307
 30
0.0
 40
1.6000000000000001
  0
CIRCLE
  5
394E3
  8
A-DETL-___2
 10
293.0000000000009095
 20
-60.0000000000072831
 30
0.0
 40
1.6000000000000001
  0
CIRCLE
  5
394E4
  8
A-DETL-___2
 10
293.0000000000026716
 20
-86.0000000000086402
 30
0.0
 40
1.6000000000000001
  0
CIRCLE
  5
394E5
  8
A-DETL-___2
 10
240.0000000000017906
 20
-113.0000000000072049
 30
0.0
 40
12.0
  0
CIRCLE
  5
394E6
  8
A-DETL-___2
 10
227.0000000000017906
 20
-126.0000000000073044
 30
0.0
 40
1.6000000000000001
  0
CIRCLE
  5
394E7
  8
A-DETL-___2
 10
227.0000000000009095
 20
-100.0000000000077023
 30
0.0
 40
1.6000000000000001
  0
CIRCLE
  5
394E8
  8
A-DETL-___2
 10
253.0000000000009095
 20
-100.0000000000073044
 30
0.0
 40
1.6000000000000001
  0
CIRCLE
  5
394E9
  8
A-DETL-___2
 10
253.0000000000027001
 20
-126.0000000000085976
 30
0.0
 40
1.6000000000000001
  0
CIRCLE
  5
394EA
  8
A-DETL-___2
 10
280.000000000001819
 20
-113.0000000000072049
 30
0.0
 40
12.0
  0
CIRCLE
  5
394EB
  8
A-DETL-___2
 10
267.000000000001819
 20
-126.0000000000073044
 30
0.0
 40
1.6000000000000001
  0
CIRCLE
  5
394EC
  8
A-DETL-___2
 10
267.0000000000009095
 20
-100.0000000000077023
 30
0.0
 40
1.6000000000000001
  0
CIRCLE
  5
394ED
  8
A-DETL-___2
 10
293.0000000000009095
 20
-100.0000000000073044
 30
0.0
 40
1.6000000000000001
  0
CIRCLE
  5
394EE
  8
A-DETL-___2
 10
293.0000000000026716
 20
-126.0000000000085976
 30
0.0
 40
1.6000000000000001
  0
CIRCLE
  5
394EF
  8
A-DETL-___2
 10
240.0000000000017906
 20
-153.0000000000088107
 30
0.0
 40
12.0
  0
CIRCLE
  5
394F0
  8
A-DETL-___2
 10
227.0000000000017906
 20
-166.0000000000088107
 30
0.0
 40
1.6000000000000001
  0
CIRCLE
  5
394F1
  8
A-DETL-___2
 10
227.0000000000009095
 20
-140.0000000000094929
 30
0.0
 40
1.6000000000000001
  0
CIRCLE
  5
394F2
  8
A-DETL-___2
 10
253.0000000000009095
 20
-140.0000000000086118
 30
0.0
 40
1.6000000000000001
  0
CIRCLE
  5
394F3
  8
A-DETL-___2
 10
253.0000000000027001
 20
-166.0000000000102034
 30
0.0
 40
1.6000000000000001
  0
CIRCLE
  5
394F4
  8
A-DETL-___2
 10
280.000000000001819
 20
-153.0000000000088107
 30
0.0
 40
12.0
  0
CIRCLE
  5
394F5
  8
A-DETL-___2
 10
267.000000000001819
 20
-166.0000000000088107
 30
0.0
 40
1.6000000000000001
  0
CIRCLE
  5
394F6
  8
A-DETL-___2
 10
267.0000000000009095
 20
-140.0000000000094929
 30
0.0
 40
1.6000000000000001
  0
CIRCLE
  5
394F7
  8
A-DETL-___2
 10
293.0000000000009095
 20
-140.0000000000086118
 30
0.0
 40
1.6000000000000001
  0
CIRCLE
  5
394F8
  8
A-DETL-___2
 10
293.0000000000026716
 20
-166.0000000000102034
 30
0.0
 40
1.6000000000000001
  0
POLYLINE
  5
394F9
  8
A-DETL-___2
 66
     1
 10
0.0
 20
0.0
 30
0.0
 70
     1
  0
VERTEX
  5
39BB4
  8
A-DETL-___2
 10
236.0000000000017906
 20
-98.0000000000081855
 30
0.0
  0
VERTEX
  5
39BB5
  8
A-DETL-___2
 10
244.0000000000017906
 20
-98.0000000000081855
 30
0.0
 42
0.4142135623730907
  0
VERTEX
  5
39BB6
  8
A-DETL-___2
 10
248.0000000000017906
 20
-94.0000000000081855
 30
0.0
  0
VERTEX
  5
39BB7
  8
A-DETL-___2
 10
248.0000000000017906
 20
-92.000000000007276
 30
0.0
 42
0.4142135623730951
  0
VERTEX
  5
39BB8
  8
A-DETL-___2
 10
244.0000000000017906
 20
-88.000000000007276
 30
0.0
  0
VERTEX
  5
39BB9
  8
A-DETL-___2
 10
236.0000000000017906
 20
-88.000000000007276
 30
0.0
 42
0.4142135623730951
  0
VERTEX
  5
39BBA
  8
A-DETL-___2
 10
232.0000000000017906
 20
-92.000000000007276
 30
0.0
  0
VERTEX
  5
39BBB
  8
A-DETL-___2
 10
232.0000000000017906
 20
-94.0000000000081855
 30
0.0
 42
0.4142135623730907
  0
SEQEND
  5
39BBC
  8
A-DETL-___2
  0
POLYLINE
  5
394FA
  8
A-DETL-___2
 66
     1
 10
0.0
 20
0.0
 30
0.0
 70
     1
  0
VERTEX
  5
39BBD
  8
A-DETL-___2
 10
255.0000000000009095
 20
-69.000000000007276
 30
0.0
  0
VERTEX
  5
39BBE
  8
A-DETL-___2
 10
255.0000000000009095
 20
-77.000000000007276
 30
0.0
 42
0.4142135623730907
  0
VERTEX
  5
39BBF
  8
A-DETL-___2
 10
259.0000000000009095
 20
-81.000000000007276
 30
0.0
  0
VERTEX
  5
39BC0
  8
A-DETL-___2
 10
261.0000000000009095
 20
-81.000000000007276
 30
0.0
 42
0.4142135623730951
  0
VERTEX
  5
39BC1
  8
A-DETL-___2
 10
265.0000000000009095
 20
-77.000000000007276
 30
0.0
  0
VERTEX
  5
39BC2
  8
A-DETL-___2
 10
265.0000000000009095
 20
-69.000000000007276
 30
0.0
 42
0.4142135623730951
  0
VERTEX
  5
39BC3
  8
A-DETL-___2
 10
261.0000000000009095
 20
-65.000000000007276
 30
0.0
  0
VERTEX
  5
39BC4
  8
A-DETL-___2
 10
259.0000000000009095
 20
-65.000000000007276
 30
0.0
 42
0.4142135623730907
  0
SEQEND
  5
39BC5
  8
A-DETL-___2
  0
POLYLINE
  5
394FB
  8
A-DETL-___2
 66
     1
 10
0.0
 20
0.0
 30
0.0
 70
     1
  0
VERTEX
  5
39BC6
  8
A-DETL-___2
 10
255.0000000000017906
 20
-109.0000000000072049
 30
0.0
  0
VERTEX
  5
39BC7
  8
A-DETL-___2
 10
255.0000000000017906
 20
-117.0000000000072049
 30
0.0
 42
0.4142135623730907
  0
VERTEX
  5
39BC8
  8
A-DETL-___2
 10
259.000000000001819
 20
-121.0000000000073044
 30
0.0
  0
VERTEX
  5
39BC9
  8
A-DETL-___2
 10
261.000000000001819
 20
-121.0000000000073044
 30
0.0
 42
0.4142135623730951
  0
VERTEX
  5
39BCA
  8
A-DETL-___2
 10
265.000000000001819
 20
-117.0000000000072049
 30
0.0
  0
VERTEX
  5
39BCB
  8
A-DETL-___2
 10
265.000000000001819
 20
-109.0000000000072049
 30
0.0
 42
0.4142135623730951
  0
VERTEX
  5
39BCC
  8
A-DETL-___2
 10
261.000000000001819
 20
-105.0000000000073044
 30
0.0
  0
VERTEX
  5
39BCD
  8
A-DETL-___2
 10
259.000000000001819
 20
-105.0000000000073044
 30
0.0
 42
0.4142135623730907
  0
SEQEND
  5
39BCE
  8
A-DETL-___2
  0
POLYLINE
  5
394FC
  8
A-DETL-___2
 66
     1
 10
0.0
 20
0.0
 30
0.0
 70
     1
  0
VERTEX
  5
39BCF
  8
A-DETL-___2
 10
276.000000000001819
 20
-138.0000000000082139
 30
0.0
  0
VERTEX
  5
39BD0
  8
A-DETL-___2
 10
284.000000000001819
 20
-138.0000000000082139
 30
0.0
 42
0.4142135623730907
  0
VERTEX
  5
39BD1
  8
A-DETL-___2
 10
288.000000000001819
 20
-134.0000000000082139
 30
0.0
  0
VERTEX
  5
39BD2
  8
A-DETL-___2
 10
288.000000000001819
 20
-132.0000000000073044
 30
0.0
 42
0.4142135623730951
  0
VERTEX
  5
39BD3
  8
A-DETL-___2
 10
284.000000000001819
 20
-128.0000000000073044
 30
0.0
  0
VERTEX
  5
39BD4
  8
A-DETL-___2
 10
276.000000000001819
 20
-128.0000000000073044
 30
0.0
 42
0.4142135623730951
  0
VERTEX
  5
39BD5
  8
A-DETL-___2
 10
272.000000000001819
 20
-132.0000000000073044
 30
0.0
  0
VERTEX
  5
39BD6
  8
A-DETL-___2
 10
272.000000000001819
 20
-134.0000000000082139
 30
0.0
 42
0.4142135623730907
  0
SEQEND
  5
39BD7
  8
A-DETL-___2
  0
POLYLINE
  5
394FD
  8
A-DETL-___2
 66
     1
 10
0.0
 20
0.0
 30
0.0
 70
     1
  0
VERTEX
  5
39BD8
  8
A-DETL-___2
 10
276.000000000001819
 20
-58.0000000000081783
 30
0.0
  0
VERTEX
  5
39BD9
  8
A-DETL-___2
 10
284.000000000001819
 20
-58.0000000000081783
 30
0.0
 42
0.4142135623730907
  0
VERTEX
  5
39BDA
  8
A-DETL-___2
 10
288.000000000001819
 20
-54.0000000000081926
 30
0.0
  0
VERTEX
  5
39BDB
  8
A-DETL-___2
 10
288.000000000001819
 20
-52.0000000000072689
 30
0.0
 42
0.4142135623730951
  0
VERTEX
  5
39BDC
  8
A-DETL-___2
 10
284.000000000001819
 20
-48.0000000000072831
 30
0.0
  0
VERTEX
  5
39BDD
  8
A-DETL-___2
 10
276.000000000001819
 20
-48.0000000000072831
 30
0.0
 42
0.4142135623730951
  0
VERTEX
  5
39BDE
  8
A-DETL-___2
 10
272.000000000001819
 20
-52.0000000000072689
 30
0.0
  0
VERTEX
  5
39BDF
  8
A-DETL-___2
 10
272.000000000001819
 20
-54.0000000000081926
 30
0.0
 42
0.4142135623730907
  0
SEQEND
  5
39BE0
  8
A-DETL-___2
  0
CIRCLE
  5
394FE
  8
A-DETL-___2
 10
240.0000000000017906
 20
-53.0000000000077307
 30
0.0
 40
1.6000000000000001
  0
CIRCLE
  5
394FF
  8
A-DETL-___2
 10
240.0000000000017906
 20
-133.0000000000077023
 30
0.0
 40
1.6000000000000001
  0
CIRCLE
  5
39500
  8
A-DETL-___2
 10
280.000000000001819
 20
-93.0000000000077307
 30
0.0
 40
1.6000000000000001
  0
CIRCLE
  5
39501
  8
A-DETL-___2
 10
-0.000000000001819
 20
-193.0000000000067928
 30
0.0
 40
12.0
  0
CIRCLE
  5
39502
  8
A-DETL-___2
 10
-13.0000000000018208
 20
-206.0000000000067928
 30
0.0
 40
1.6000000000000001
  0
CIRCLE
  5
39503
  8
A-DETL-___2
 10
-13.0000000000027303
 20
-180.0000000000073044
 30
0.0
 40
1.6000000000000001
  0
CIRCLE
  5
39504
  8
A-DETL-___2
 10
12.9999999999972697
 20
-180.0000000000067928
 30
0.0
 40
1.6000000000000001
  0
CIRCLE
  5
39505
  8
A-DETL-___2
 10
12.9999999999990905
 20
-206.0000000000082139
 30
0.0
 40
1.6000000000000001
  0
CIRCLE
  5
39506
  8
A-DETL-___2
 10
39.9999999999990905
 20
-193.0000000000067928
 30
0.0
 40
12.0
  0
CIRCLE
  5
39507
  8
A-DETL-___2
 10
26.9999999999990905
 20
-206.0000000000067928
 30
0.0
 40
1.6000000000000001
  0
CIRCLE
  5
39508
  8
A-DETL-___2
 10
26.999999999998181
 20
-180.0000000000073044
 30
0.0
 40
1.6000000000000001
  0
CIRCLE
  5
39509
  8
A-DETL-___2
 10
52.999999999998181
 20
-180.0000000000067928
 30
0.0
 40
1.6000000000000001
  0
CIRCLE
  5
3950A
  8
A-DETL-___2
 10
53.0
 20
-206.0000000000082139
 30
0.0
 40
1.6000000000000001
  0
CIRCLE
  5
3950B
  8
A-DETL-___2
 10
-0.000000000001819
 20
-233.0000000000067928
 30
0.0
 40
12.0
  0
CIRCLE
  5
3950C
  8
A-DETL-___2
 10
-13.0000000000018208
 20
-246.0000000000067928
 30
0.0
 40
1.6000000000000001
  0
CIRCLE
  5
3950D
  8
A-DETL-___2
 10
-13.0000000000027303
 20
-220.0000000000073044
 30
0.0
 40
1.6000000000000001
  0
CIRCLE
  5
3950E
  8
A-DETL-___2
 10
12.9999999999972697
 20
-220.0000000000067928
 30
0.0
 40
1.6000000000000001
  0
CIRCLE
  5
3950F
  8
A-DETL-___2
 10
12.9999999999990905
 20
-246.0000000000082139
 30
0.0
 40
1.6000000000000001
  0
CIRCLE
  5
39510
  8
A-DETL-___2
 10
39.9999999999990905
 20
-233.0000000000067928
 30
0.0
 40
12.0
  0
CIRCLE
  5
39511
  8
A-DETL-___2
 10
26.9999999999990905
 20
-246.0000000000067928
 30
0.0
 40
1.6000000000000001
  0
CIRCLE
  5
39512
  8
A-DETL-___2
 10
26.999999999998181
 20
-220.0000000000073044
 30
0.0
 40
1.6000000000000001
  0
CIRCLE
  5
39513
  8
A-DETL-___2
 10
52.999999999998181
 20
-220.0000000000067928
 30
0.0
 40
1.6000000000000001
  0
CIRCLE
  5
39514
  8
A-DETL-___2
 10
53.0
 20
-246.0000000000082139
 30
0.0
 40
1.6000000000000001
  0
CIRCLE
  5
39515
  8
A-DETL-___2
 10
-0.000000000001819
 20
-273.0000000000068212
 30
0.0
 40
12.0
  0
CIRCLE
  5
39516
  8
A-DETL-___2
 10
-13.0000000000018208
 20
-286.0000000000068212
 30
0.0
 40
1.6000000000000001
  0
CIRCLE
  5
39517
  8
A-DETL-___2
 10
-13.0000000000027303
 20
-260.000000000007276
 30
0.0
 40
1.6000000000000001
  0
CIRCLE
  5
39518
  8
A-DETL-___2
 10
12.9999999999972697
 20
-260.0000000000068212
 30
0.0
 40
1.6000000000000001
  0
CIRCLE
  5
39519
  8
A-DETL-___2
 10
12.9999999999990905
 20
-286.0000000000081855
 30
0.0
 40
1.6000000000000001
  0
CIRCLE
  5
3951A
  8
A-DETL-___2
 10
39.9999999999990905
 20
-273.0000000000068212
 30
0.0
 40
12.0
  0
CIRCLE
  5
3951B
  8
A-DETL-___2
 10
26.9999999999990905
 20
-286.0000000000068212
 30
0.0
 40
1.6000000000000001
  0
CIRCLE
  5
3951C
  8
A-DETL-___2
 10
26.999999999998181
 20
-260.000000000007276
 30
0.0
 40
1.6000000000000001
  0
CIRCLE
  5
3951D
  8
A-DETL-___2
 10
52.999999999998181
 20
-260.0000000000068212
 30
0.0
 40
1.6000000000000001
  0
CIRCLE
  5
3951E
  8
A-DETL-___2
 10
53.0
 20
-286.0000000000081855
 30
0.0
 40
1.6000000000000001
  0
CIRCLE
  5
3951F
  8
A-DETL-___2
 10
-0.000000000001819
 20
-313.0000000000084128
 30
0.0
 40
12.0
  0
CIRCLE
  5
39520
  8
A-DETL-___2
 10
-13.0000000000018208
 20
-326.0000000000084128
 30
0.0
 40
1.6000000000000001
  0
CIRCLE
  5
39521
  8
A-DETL-___2
 10
-13.0000000000027303
 20
-300.0000000000090949
 30
0.0
 40
1.6000000000000001
  0
CIRCLE
  5
39522
  8
A-DETL-___2
 10
12.9999999999972697
 20
-300.0000000000081855
 30
0.0
 40
1.6000000000000001
  0
CIRCLE
  5
39523
  8
A-DETL-___2
 10
12.9999999999990905
 20
-326.0000000000097771
 30
0.0
 40
1.6000000000000001
  0
CIRCLE
  5
39524
  8
A-DETL-___2
 10
39.9999999999990905
 20
-313.0000000000084128
 30
0.0
 40
12.0
  0
CIRCLE
  5
39525
  8
A-DETL-___2
 10
26.9999999999990905
 20
-326.0000000000084128
 30
0.0
 40
1.6000000000000001
  0
CIRCLE
  5
39526
  8
A-DETL-___2
 10
26.999999999998181
 20
-300.0000000000090949
 30
0.0
 40
1.6000000000000001
  0
CIRCLE
  5
39527
  8
A-DETL-___2
 10
52.999999999998181
 20
-300.0000000000081855
 30
0.0
 40
1.6000000000000001
  0
CIRCLE
  5
39528
  8
A-DETL-___2
 10
53.0
 20
-326.0000000000097771
 30
0.0
 40
1.6000000000000001
  0
POLYLINE
  5
39529
  8
A-DETL-___2
 66
     1
 10
0.0
 20
0.0
 30
0.0
 70
     1
  0
VERTEX
  5
39BE1
  8
A-DETL-___2
 10
44.0
 20
-258.000000000007276
 30
0.0
  0
VERTEX
  5
39BE2
  8
A-DETL-___2
 10
36.0
 20
-258.000000000007276
 30
0.0
 42
-0.4142135623730907
  0
VERTEX
  5
39BE3
  8
A-DETL-___2
 10
32.0
 20
-254.0000000000073044
 30
0.0
  0
VERTEX
  5
39BE4
  8
A-DETL-___2
 10
32.0
 20
-252.0000000000063096
 30
0.0
 42
-0.4142135623730951
  0
VERTEX
  5
39BE5
  8
A-DETL-___2
 10
36.0
 20
-248.0000000000063949
 30
0.0
  0
VERTEX
  5
39BE6
  8
A-DETL-___2
 10
44.0
 20
-248.0000000000063949
 30
0.0
 42
-0.4142135623730951
  0
VERTEX
  5
39BE7
  8
A-DETL-___2
 10
48.0
 20
-252.0000000000063096
 30
0.0
  0
VERTEX
  5
39BE8
  8
A-DETL-___2
 10
48.0
 20
-254.0000000000073044
 30
0.0
 42
-0.4142135623730907
  0
SEQEND
  5
39BE9
  8
A-DETL-___2
  0
POLYLINE
  5
3952A
  8
A-DETL-___2
 66
     1
 10
0.0
 20
0.0
 30
0.0
 70
     1
  0
VERTEX
  5
39BEA
  8
A-DETL-___2
 10
14.9999999999981792
 20
-277.000000000007276
 30
0.0
  0
VERTEX
  5
39BEB
  8
A-DETL-___2
 10
14.9999999999981792
 20
-269.000000000007276
 30
0.0
 42
-0.4142135623730907
  0
VERTEX
  5
39BEC
  8
A-DETL-___2
 10
18.999999999998181
 20
-265.000000000007276
 30
0.0
  0
VERTEX
  5
39BED
  8
A-DETL-___2
 10
20.999999999998181
 20
-265.000000000007276
 30
0.0
 42
-0.4142135623730951
  0
VERTEX
  5
39BEE
  8
A-DETL-___2
 10
24.999999999998181
 20
-269.000000000007276
 30
0.0
  0
VERTEX
  5
39BEF
  8
A-DETL-___2
 10
24.999999999998181
 20
-277.000000000007276
 30
0.0
 42
-0.4142135623730951
  0
VERTEX
  5
39BF0
  8
A-DETL-___2
 10
20.999999999998181
 20
-281.000000000007276
 30
0.0
  0
VERTEX
  5
39BF1
  8
A-DETL-___2
 10
18.999999999998181
 20
-281.000000000007276
 30
0.0
 42
-0.4142135623730907
  0
SEQEND
  5
39BF2
  8
A-DETL-___2
  0
POLYLINE
  5
3952B
  8
A-DETL-___2
 66
     1
 10
0.0
 20
0.0
 30
0.0
 70
     1
  0
VERTEX
  5
39BF3
  8
A-DETL-___2
 10
14.9999999999981792
 20
-229.0000000000067928
 30
0.0
  0
VERTEX
  5
39BF4
  8
A-DETL-___2
 10
14.9999999999981792
 20
-237.0000000000067928
 30
0.0
 42
0.4142135623730907
  0
VERTEX
  5
39BF5
  8
A-DETL-___2
 10
18.999999999998181
 20
-241.0000000000067928
 30
0.0
  0
VERTEX
  5
39BF6
  8
A-DETL-___2
 10
20.999999999998181
 20
-241.0000000000067928
 30
0.0
 42
0.4142135623730951
  0
VERTEX
  5
39BF7
  8
A-DETL-___2
 10
24.999999999998181
 20
-237.0000000000067928
 30
0.0
  0
VERTEX
  5
39BF8
  8
A-DETL-___2
 10
24.999999999998181
 20
-229.0000000000067928
 30
0.0
 42
0.4142135623730951
  0
VERTEX
  5
39BF9
  8
A-DETL-___2
 10
20.999999999998181
 20
-225.0000000000067928
 30
0.0
  0
VERTEX
  5
39BFA
  8
A-DETL-___2
 10
18.999999999998181
 20
-225.0000000000067928
 30
0.0
 42
0.4142135623730907
  0
SEQEND
  5
39BFB
  8
A-DETL-___2
  0
POLYLINE
  5
3952C
  8
A-DETL-___2
 66
     1
 10
0.0
 20
0.0
 30
0.0
 70
     1
  0
VERTEX
  5
39BFC
  8
A-DETL-___2
 10
-4.0000000000018181
 20
-298.0000000000076739
 30
0.0
  0
VERTEX
  5
39BFD
  8
A-DETL-___2
 10
3.999999999998181
 20
-298.0000000000076739
 30
0.0
 42
0.4142135623730907
  0
VERTEX
  5
39BFE
  8
A-DETL-___2
 10
7.999999999998181
 20
-294.0000000000076739
 30
0.0
  0
VERTEX
  5
39BFF
  8
A-DETL-___2
 10
7.999999999998181
 20
-292.0000000000068212
 30
0.0
 42
0.4142135623730951
  0
VERTEX
  5
39C00
  8
A-DETL-___2
 10
3.999999999998181
 20
-288.0000000000068212
 30
0.0
  0
VERTEX
  5
39C01
  8
A-DETL-___2
 10
-4.0000000000018181
 20
-288.0000000000068212
 30
0.0
 42
0.4142135623730951
  0
VERTEX
  5
39C02
  8
A-DETL-___2
 10
-8.0000000000018172
 20
-292.0000000000068212
 30
0.0
  0
VERTEX
  5
39C03
  8
A-DETL-___2
 10
-8.0000000000018172
 20
-294.0000000000076739
 30
0.0
 42
0.4142135623730907
  0
SEQEND
  5
39C04
  8
A-DETL-___2
  0
POLYLINE
  5
3952D
  8
A-DETL-___2
 66
     1
 10
0.0
 20
0.0
 30
0.0
 70
     1
  0
VERTEX
  5
39C05
  8
A-DETL-___2
 10
-4.0000000000018181
 20
-218.0000000000077023
 30
0.0
  0
VERTEX
  5
39C06
  8
A-DETL-___2
 10
3.999999999998181
 20
-218.0000000000077023
 30
0.0
 42
0.4142135623730907
  0
VERTEX
  5
39C07
  8
A-DETL-___2
 10
7.999999999998181
 20
-214.0000000000077023
 30
0.0
  0
VERTEX
  5
39C08
  8
A-DETL-___2
 10
7.999999999998181
 20
-212.0000000000067928
 30
0.0
 42
0.4142135623730951
  0
VERTEX
  5
39C09
  8
A-DETL-___2
 10
3.999999999998181
 20
-208.0000000000067928
 30
0.0
  0
VERTEX
  5
39C0A
  8
A-DETL-___2
 10
-4.0000000000018181
 20
-208.0000000000067928
 30
0.0
 42
0.4142135623730951
  0
VERTEX
  5
39C0B
  8
A-DETL-___2
 10
-8.0000000000018172
 20
-212.0000000000067928
 30
0.0
  0
VERTEX
  5
39C0C
  8
A-DETL-___2
 10
-8.0000000000018172
 20
-214.0000000000077023
 30
0.0
 42
0.4142135623730907
  0
SEQEND
  5
39C0D
  8
A-DETL-___2
  0
CIRCLE
  5
3952E
  8
A-DETL-___2
 10
39.9999999999990905
 20
-213.0000000000073044
 30
0.0
 40
1.6000000000000001
  0
CIRCLE
  5
3952F
  8
A-DETL-___2
 10
39.9999999999990905
 20
-293.000000000007276
 30
0.0
 40
1.6000000000000001
  0
CIRCLE
  5
39530
  8
A-DETL-___2
 10
-0.000000000001819
 20
-253.0000000000073044
 30
0.0
 40
1.6000000000000001
  0
CIRCLE
  5
39531
  8
A-DETL-___2
 10
79.9999999999990905
 20
-192.5064383944732072
 30
0.0
 40
12.0
  0
CIRCLE
  5
39532
  8
A-DETL-___2
 10
66.9999999999990905
 20
-205.5064383944732072
 30
0.0
 40
1.6000000000000001
  0
CIRCLE
  5
39533
  8
A-DETL-___2
 10
66.999999999998181
 20
-179.5064383944736051
 30
0.0
 40
1.6000000000000001
  0
CIRCLE
  5
39534
  8
A-DETL-___2
 10
92.9999999999981668
 20
-179.5064383944732072
 30
0.0
 40
1.6000000000000001
  0
CIRCLE
  5
39535
  8
A-DETL-___2
 10
93.0
 20
-205.5064383944744861
 30
0.0
 40
1.6000000000000001
  0
CIRCLE
  5
39536
  8
A-DETL-___2
 10
119.9999999999991047
 20
-192.5064383944732072
 30
0.0
 40
12.0
  0
CIRCLE
  5
39537
  8
A-DETL-___2
 10
106.9999999999991047
 20
-205.5064383944732072
 30
0.0
 40
1.6000000000000001
  0
CIRCLE
  5
39538
  8
A-DETL-___2
 10
106.9999999999981952
 20
-179.5064383944736051
 30
0.0
 40
1.6000000000000001
  0
CIRCLE
  5
39539
  8
A-DETL-___2
 10
132.9999999999982094
 20
-179.5064383944732072
 30
0.0
 40
1.6000000000000001
  0
CIRCLE
  5
3953A
  8
A-DETL-___2
 10
133.0
 20
-205.5064383944744861
 30
0.0
 40
1.6000000000000001
  0
CIRCLE
  5
3953B
  8
A-DETL-___2
 10
160.0
 20
-192.5064383944732072
 30
0.0
 40
12.0
  0
CIRCLE
  5
3953C
  8
A-DETL-___2
 10
147.0
 20
-205.5064383944732072
 30
0.0
 40
1.6000000000000001
  0
CIRCLE
  5
3953D
  8
A-DETL-___2
 10
146.9999999999990905
 20
-179.5064383944736051
 30
0.0
 40
1.6000000000000001
  0
CIRCLE
  5
3953E
  8
A-DETL-___2
 10
172.9999999999990905
 20
-179.5064383944732072
 30
0.0
 40
1.6000000000000001
  0
CIRCLE
  5
3953F
  8
A-DETL-___2
 10
173.0000000000009095
 20
-205.5064383944744861
 30
0.0
 40
1.6000000000000001
  0
CIRCLE
  5
39540
  8
A-DETL-___2
 10
200.0000000000009095
 20
-192.5064383944732072
 30
0.0
 40
12.0
  0
CIRCLE
  5
39541
  8
A-DETL-___2
 10
187.0000000000009095
 20
-205.5064383944732072
 30
0.0
 40
1.6000000000000001
  0
CIRCLE
  5
39542
  8
A-DETL-___2
 10
187.0
 20
-179.5064383944736051
 30
0.0
 40
1.6000000000000001
  0
CIRCLE
  5
39543
  8
A-DETL-___2
 10
213.0
 20
-179.5064383944732072
 30
0.0
 40
1.6000000000000001
  0
CIRCLE
  5
39544
  8
A-DETL-___2
 10
213.0000000000017906
 20
-205.5064383944744861
 30
0.0
 40
1.6000000000000001
  0
CIRCLE
  5
39545
  8
A-DETL-___2
 10
79.9999999999990905
 20
-232.5064383944732072
 30
0.0
 40
12.0
  0
CIRCLE
  5
39546
  8
A-DETL-___2
 10
66.9999999999990905
 20
-245.5064383944732072
 30
0.0
 40
1.6000000000000001
  0
CIRCLE
  5
39547
  8
A-DETL-___2
 10
66.999999999998181
 20
-219.5064383944736903
 30
0.0
 40
1.6000000000000001
  0
CIRCLE
  5
39548
  8
A-DETL-___2
 10
92.9999999999981668
 20
-219.5064383944732072
 30
0.0
 40
1.6000000000000001
  0
CIRCLE
  5
39549
  8
A-DETL-___2
 10
93.0
 20
-245.5064383944745998
 30
0.0
 40
1.6000000000000001
  0
CIRCLE
  5
3954A
  8
A-DETL-___2
 10
119.9999999999991047
 20
-232.5064383944732072
 30
0.0
 40
12.0
  0
CIRCLE
  5
3954B
  8
A-DETL-___2
 10
106.9999999999991047
 20
-245.5064383944732072
 30
0.0
 40
1.6000000000000001
  0
CIRCLE
  5
3954C
  8
A-DETL-___2
 10
106.9999999999981952
 20
-219.5064383944736903
 30
0.0
 40
1.6000000000000001
  0
CIRCLE
  5
3954D
  8
A-DETL-___2
 10
132.9999999999982094
 20
-219.5064383944732072
 30
0.0
 40
1.6000000000000001
  0
CIRCLE
  5
3954E
  8
A-DETL-___2
 10
133.0
 20
-245.5064383944745998
 30
0.0
 40
1.6000000000000001
  0
CIRCLE
  5
3954F
  8
A-DETL-___2
 10
160.0
 20
-232.5064383944732072
 30
0.0
 40
12.0
  0
CIRCLE
  5
39550
  8
A-DETL-___2
 10
147.0
 20
-245.5064383944732072
 30
0.0
 40
1.6000000000000001
  0
CIRCLE
  5
39551
  8
A-DETL-___2
 10
146.9999999999990905
 20
-219.5064383944736903
 30
0.0
 40
1.6000000000000001
  0
CIRCLE
  5
39552
  8
A-DETL-___2
 10
172.9999999999990905
 20
-219.5064383944732072
 30
0.0
 40
1.6000000000000001
  0
CIRCLE
  5
39553
  8
A-DETL-___2
 10
173.0000000000009095
 20
-245.5064383944745998
 30
0.0
 40
1.6000000000000001
  0
CIRCLE
  5
39554
  8
A-DETL-___2
 10
200.0000000000009095
 20
-232.5064383944732072
 30
0.0
 40
12.0
  0
CIRCLE
  5
39555
  8
A-DETL-___2
 10
187.0000000000009095
 20
-245.5064383944732072
 30
0.0
 40
1.6000000000000001
  0
CIRCLE
  5
39556
  8
A-DETL-___2
 10
187.0
 20
-219.5064383944736903
 30
0.0
 40
1.6000000000000001
  0
CIRCLE
  5
39557
  8
A-DETL-___2
 10
213.0
 20
-219.5064383944732072
 30
0.0
 40
1.6000000000000001
  0
CIRCLE
  5
39558
  8
A-DETL-___2
 10
213.0000000000017906
 20
-245.5064383944745998
 30
0.0
 40
1.6000000000000001
  0
CIRCLE
  5
39559
  8
A-DETL-___2
 10
79.9999999999990905
 20
-272.5064383944732072
 30
0.0
 40
12.0
  0
CIRCLE
  5
3955A
  8
A-DETL-___2
 10
66.9999999999990905
 20
-285.5064383944732072
 30
0.0
 40
1.6000000000000001
  0
CIRCLE
  5
3955B
  8
A-DETL-___2
 10
66.999999999998181
 20
-259.5064383944737187
 30
0.0
 40
1.6000000000000001
  0
CIRCLE
  5
3955C
  8
A-DETL-___2
 10
92.9999999999981668
 20
-259.5064383944732072
 30
0.0
 40
1.6000000000000001
  0
CIRCLE
  5
3955D
  8
A-DETL-___2
 10
93.0
 20
-285.5064383944746282
 30
0.0
 40
1.6000000000000001
  0
CIRCLE
  5
3955E
  8
A-DETL-___2
 10
119.9999999999991047
 20
-272.5064383944732072
 30
0.0
 40
12.0
  0
CIRCLE
  5
3955F
  8
A-DETL-___2
 10
106.9999999999991047
 20
-285.5064383944732072
 30
0.0
 40
1.6000000000000001
  0
CIRCLE
  5
39560
  8
A-DETL-___2
 10
106.9999999999981952
 20
-259.5064383944737187
 30
0.0
 40
1.6000000000000001
  0
CIRCLE
  5
39561
  8
A-DETL-___2
 10
132.9999999999982094
 20
-259.5064383944732072
 30
0.0
 40
1.6000000000000001
  0
CIRCLE
  5
39562
  8
A-DETL-___2
 10
133.0
 20
-285.5064383944746282
 30
0.0
 40
1.6000000000000001
  0
CIRCLE
  5
39563
  8
A-DETL-___2
 10
160.0
 20
-272.5064383944732072
 30
0.0
 40
12.0
  0
CIRCLE
  5
39564
  8
A-DETL-___2
 10
147.0
 20
-285.5064383944732072
 30
0.0
 40
1.6000000000000001
  0
CIRCLE
  5
39565
  8
A-DETL-___2
 10
146.9999999999990905
 20
-259.5064383944737187
 30
0.0
 40
1.6000000000000001
  0
CIRCLE
  5
39566
  8
A-DETL-___2
 10
172.9999999999990905
 20
-259.5064383944732072
 30
0.0
 40
1.6000000000000001
  0
CIRCLE
  5
39567
  8
A-DETL-___2
 10
173.0000000000009095
 20
-285.5064383944746282
 30
0.0
 40
1.6000000000000001
  0
CIRCLE
  5
39568
  8
A-DETL-___2
 10
200.0000000000009095
 20
-272.5064383944732072
 30
0.0
 40
12.0
  0
CIRCLE
  5
39569
  8
A-DETL-___2
 10
187.0000000000009095
 20
-285.5064383944732072
 30
0.0
 40
1.6000000000000001
  0
CIRCLE
  5
3956A
  8
A-DETL-___2
 10
187.0
 20
-259.5064383944737187
 30
0.0
 40
1.6000000000000001
  0
CIRCLE
  5
3956B
  8
A-DETL-___2
 10
213.0
 20
-259.5064383944732072
 30
0.0
 40
1.6000000000000001
  0
CIRCLE
  5
3956C
  8
A-DETL-___2
 10
213.0000000000017906
 20
-285.5064383944746282
 30
0.0
 40
1.6000000000000001
  0
CIRCLE
  5
3956D
  8
A-DETL-___2
 10
79.9999999999990905
 20
-312.5064383944747988
 30
0.0
 40
12.0
  0
CIRCLE
  5
3956E
  8
A-DETL-___2
 10
66.9999999999990905
 20
-325.5064383944747988
 30
0.0
 40
1.6000000000000001
  0
CIRCLE
  5
3956F
  8
A-DETL-___2
 10
66.999999999998181
 20
-299.5064383944754809
 30
0.0
 40
1.6000000000000001
  0
CIRCLE
  5
39570
  8
A-DETL-___2
 10
92.9999999999981668
 20
-299.5064383944746282
 30
0.0
 40
1.6000000000000001
  0
CIRCLE
  5
39571
  8
A-DETL-___2
 10
93.0
 20
-325.5064383944762199
 30
0.0
 40
1.6000000000000001
  0
CIRCLE
  5
39572
  8
A-DETL-___2
 10
119.9999999999991047
 20
-312.5064383944747988
 30
0.0
 40
12.0
  0
CIRCLE
  5
39573
  8
A-DETL-___2
 10
106.9999999999991047
 20
-325.5064383944747988
 30
0.0
 40
1.6000000000000001
  0
CIRCLE
  5
39574
  8
A-DETL-___2
 10
106.9999999999981952
 20
-299.5064383944754809
 30
0.0
 40
1.6000000000000001
  0
CIRCLE
  5
39575
  8
A-DETL-___2
 10
132.9999999999982094
 20
-299.5064383944746282
 30
0.0
 40
1.6000000000000001
  0
CIRCLE
  5
39576
  8
A-DETL-___2
 10
133.0
 20
-325.5064383944762199
 30
0.0
 40
1.6000000000000001
  0
CIRCLE
  5
39577
  8
A-DETL-___2
 10
160.0
 20
-312.5064383944747988
 30
0.0
 40
12.0
  0
CIRCLE
  5
39578
  8
A-DETL-___2
 10
147.0
 20
-325.5064383944747988
 30
0.0
 40
1.6000000000000001
  0
CIRCLE
  5
39579
  8
A-DETL-___2
 10
146.9999999999990905
 20
-299.5064383944754809
 30
0.0
 40
1.6000000000000001
  0
CIRCLE
  5
3957A
  8
A-DETL-___2
 10
172.9999999999990905
 20
-299.5064383944746282
 30
0.0
 40
1.6000000000000001
  0
CIRCLE
  5
3957B
  8
A-DETL-___2
 10
173.0000000000009095
 20
-325.5064383944762199
 30
0.0
 40
1.6000000000000001
  0
CIRCLE
  5
3957C
  8
A-DETL-___2
 10
200.0000000000009095
 20
-312.5064383944747988
 30
0.0
 40
12.0
  0
CIRCLE
  5
3957D
  8
A-DETL-___2
 10
187.0000000000009095
 20
-325.5064383944747988
 30
0.0
 40
1.6000000000000001
  0
CIRCLE
  5
3957E
  8
A-DETL-___2
 10
187.0
 20
-299.5064383944754809
 30
0.0
 40
1.6000000000000001
  0
CIRCLE
  5
3957F
  8
A-DETL-___2
 10
213.0
 20
-299.5064383944746282
 30
0.0
 40
1.6000000000000001
  0
CIRCLE
  5
39580
  8
A-DETL-___2
 10
213.0000000000017906
 20
-325.5064383944762199
 30
0.0
 40
1.6000000000000001
  0
POLYLINE
  5
39581
  8
A-DETL-___2
 66
     1
 10
0.0
 20
0.0
 30
0.0
 70
     1
  0
VERTEX
  5
39C0E
  8
A-DETL-___2
 10
75.9999999999990905
 20
-257.5064383944741166
 30
0.0
  0
VERTEX
  5
39C0F
  8
A-DETL-___2
 10
83.9999999999990905
 20
-257.5064383944741166
 30
0.0
 42
0.4142135623730907
  0
VERTEX
  5
39C10
  8
A-DETL-___2
 10
87.9999999999991047
 20
-253.5064383944740882
 30
0.0
  0
VERTEX
  5
39C11
  8
A-DETL-___2
 10
87.9999999999991047
 20
-251.5064383944732072
 30
0.0
 42
0.4142135623730951
  0
VERTEX
  5
39C12
  8
A-DETL-___2
 10
83.9999999999990905
 20
-247.5064383944732072
 30
0.0
  0
VERTEX
  5
39C13
  8
A-DETL-___2
 10
75.9999999999990905
 20
-247.5064383944732072
 30
0.0
 42
0.4142135623730951
  0
VERTEX
  5
39C14
  8
A-DETL-___2
 10
71.9999999999990905
 20
-251.5064383944732072
 30
0.0
  0
VERTEX
  5
39C15
  8
A-DETL-___2
 10
71.9999999999990905
 20
-253.5064383944740882
 30
0.0
 42
0.4142135623730907
  0
SEQEND
  5
39C16
  8
A-DETL-___2
  0
POLYLINE
  5
39582
  8
A-DETL-___2
 66
     1
 10
0.0
 20
0.0
 30
0.0
 70
     1
  0
VERTEX
  5
39C17
  8
A-DETL-___2
 10
134.9999999999990905
 20
-188.5064383944732072
 30
0.0
  0
VERTEX
  5
39C18
  8
A-DETL-___2
 10
134.9999999999990905
 20
-196.5064383944732072
 30
0.0
 42
0.4142135623730907
  0
VERTEX
  5
39C19
  8
A-DETL-___2
 10
138.9999999999990905
 20
-200.5064383944732072
 30
0.0
  0
VERTEX
  5
39C1A
  8
A-DETL-___2
 10
140.9999999999990905
 20
-200.5064383944732072
 30
0.0
 42
0.4142135623730951
  0
VERTEX
  5
39C1B
  8
A-DETL-___2
 10
144.9999999999990905
 20
-196.5064383944732072
 30
0.0
  0
VERTEX
  5
39C1C
  8
A-DETL-___2
 10
144.9999999999990905
 20
-188.5064383944732072
 30
0.0
 42
0.4142135623730951
  0
VERTEX
  5
39C1D
  8
A-DETL-___2
 10
140.9999999999990905
 20
-184.5064383944732072
 30
0.0
  0
VERTEX
  5
39C1E
  8
A-DETL-___2
 10
138.9999999999990905
 20
-184.5064383944732072
 30
0.0
 42
0.4142135623730907
  0
SEQEND
  5
39C1F
  8
A-DETL-___2
  0
POLYLINE
  5
39583
  8
A-DETL-___2
 66
     1
 10
0.0
 20
0.0
 30
0.0
 70
     1
  0
VERTEX
  5
39C20
  8
A-DETL-___2
 10
134.9999999999990905
 20
-316.5064383944750261
 30
0.0
  0
VERTEX
  5
39C21
  8
A-DETL-___2
 10
134.9999999999990905
 20
-308.5064383944750261
 30
0.0
 42
-0.4142135623730907
  0
VERTEX
  5
39C22
  8
A-DETL-___2
 10
138.9999999999990905
 20
-304.5064383944750261
 30
0.0
  0
VERTEX
  5
39C23
  8
A-DETL-___2
 10
140.9999999999990905
 20
-304.5064383944750261
 30
0.0
 42
-0.4142135623730951
  0
VERTEX
  5
39C24
  8
A-DETL-___2
 10
144.9999999999990905
 20
-308.5064383944754809
 30
0.0
  0
VERTEX
  5
39C25
  8
A-DETL-___2
 10
144.9999999999990905
 20
-316.5064383944754809
 30
0.0
 42
-0.4142135623730951
  0
VERTEX
  5
39C26
  8
A-DETL-___2
 10
140.9999999999990905
 20
-320.5064383944750261
 30
0.0
  0
VERTEX
  5
39C27
  8
A-DETL-___2
 10
138.9999999999990905
 20
-320.5064383944750261
 30
0.0
 42
-0.4142135623730907
  0
SEQEND
  5
39C28
  8
A-DETL-___2
  0
POLYLINE
  5
39584
  8
A-DETL-___2
 66
     1
 10
0.0
 20
0.0
 30
0.0
 70
     1
  0
VERTEX
  5
39C29
  8
A-DETL-___2
 10
204.0000000000017906
 20
-257.5064383944737187
 30
0.0
  0
VERTEX
  5
39C2A
  8
A-DETL-___2
 10
196.0000000000017906
 20
-257.5064383944737187
 30
0.0
 42
-0.4142135623730907
  0
VERTEX
  5
39C2B
  8
A-DETL-___2
 10
192.0000000000017906
 20
-253.5064383944736903
 30
0.0
  0
VERTEX
  5
39C2C
  8
A-DETL-___2
 10
192.0000000000017906
 20
-251.5064383944728093
 30
0.0
 42
-0.4142135623730951
  0
VERTEX
  5
39C2D
  8
A-DETL-___2
 10
196.0000000000017906
 20
-247.5064383944728093
 30
0.0
  0
VERTEX
  5
39C2E
  8
A-DETL-___2
 10
204.0000000000017906
 20
-247.5064383944728093
 30
0.0
 42
-0.4142135623730951
  0
VERTEX
  5
39C2F
  8
A-DETL-___2
 10
208.0000000000017906
 20
-251.5064383944728093
 30
0.0
  0
VERTEX
  5
39C30
  8
A-DETL-___2
 10
208.0000000000017906
 20
-253.5064383944736903
 30
0.0
 42
-0.4142135623730907
  0
SEQEND
  5
39C31
  8
A-DETL-___2
  0
POLYLINE
  5
39585
  8
A-DETL-___2
 66
     1
 10
0.0
 20
0.0
 30
0.0
 70
     1
  0
VERTEX
  5
39C32
  8
A-DETL-___2
 10
94.999999999998181
 20
-228.5064383944732072
 30
0.0
  0
VERTEX
  5
39C33
  8
A-DETL-___2
 10
94.999999999998181
 20
-236.5064383944732072
 30
0.0
 42
0.4142135623730907
  0
VERTEX
  5
39C34
  8
A-DETL-___2
 10
98.9999999999981952
 20
-240.5064383944732072
 30
0.0
  0
VERTEX
  5
39C35
  8
A-DETL-___2
 10
100.9999999999981952
 20
-240.5064383944732072
 30
0.0
 42
0.4142135623730951
  0
VERTEX
  5
39C36
  8
A-DETL-___2
 10
104.9999999999981952
 20
-236.5064383944732072
 30
0.0
  0
VERTEX
  5
39C37
  8
A-DETL-___2
 10
104.9999999999981952
 20
-228.5064383944732072
 30
0.0
 42
0.4142135623730951
  0
VERTEX
  5
39C38
  8
A-DETL-___2
 10
100.9999999999981952
 20
-224.5064383944732072
 30
0.0
  0
VERTEX
  5
39C39
  8
A-DETL-___2
 10
98.9999999999981952
 20
-224.5064383944732072
 30
0.0
 42
0.4142135623730907
  0
SEQEND
  5
39C3A
  8
A-DETL-___2
  0
POLYLINE
  5
39586
  8
A-DETL-___2
 66
     1
 10
0.0
 20
0.0
 30
0.0
 70
     1
  0
VERTEX
  5
39C3B
  8
A-DETL-___2
 10
175.0
 20
-276.5064383944737187
 30
0.0
  0
VERTEX
  5
39C3C
  8
A-DETL-___2
 10
175.0
 20
-268.5064383944737187
 30
0.0
 42
-0.4142135623730907
  0
VERTEX
  5
39C3D
  8
A-DETL-___2
 10
179.0
 20
-264.5064383944736051
 30
0.0
  0
VERTEX
  5
39C3E
  8
A-DETL-___2
 10
181.0
 20
-264.5064383944736051
 30
0.0
 42
-0.4142135623730951
  0
VERTEX
  5
39C3F
  8
A-DETL-___2
 10
185.0
 20
-268.5064383944737187
 30
0.0
  0
VERTEX
  5
39C40
  8
A-DETL-___2
 10
185.0
 20
-276.5064383944737187
 30
0.0
 42
-0.4142135623730951
  0
VERTEX
  5
39C41
  8
A-DETL-___2
 10
181.0
 20
-280.5064383944737187
 30
0.0
  0
VERTEX
  5
39C42
  8
A-DETL-___2
 10
179.0
 20
-280.5064383944737187
 30
0.0
 42
-0.4142135623730907
  0
SEQEND
  5
39C43
  8
A-DETL-___2
  0
POLYLINE
  5
39587
  8
A-DETL-___2
 66
     1
 10
0.0
 20
0.0
 30
0.0
 70
     1
  0
VERTEX
  5
39C44
  8
A-DETL-___2
 10
175.0
 20
-228.5064383944732072
 30
0.0
  0
VERTEX
  5
39C45
  8
A-DETL-___2
 10
175.0
 20
-236.5064383944732072
 30
0.0
 42
0.4142135623730907
  0
VERTEX
  5
39C46
  8
A-DETL-___2
 10
179.0
 20
-240.5064383944732072
 30
0.0
  0
VERTEX
  5
39C47
  8
A-DETL-___2
 10
181.0
 20
-240.5064383944732072
 30
0.0
 42
0.4142135623730951
  0
VERTEX
  5
39C48
  8
A-DETL-___2
 10
185.0
 20
-236.5064383944732072
 30
0.0
  0
VERTEX
  5
39C49
  8
A-DETL-___2
 10
185.0
 20
-228.5064383944732072
 30
0.0
 42
0.4142135623730951
  0
VERTEX
  5
39C4A
  8
A-DETL-___2
 10
181.0
 20
-224.5064383944732072
 30
0.0
  0
VERTEX
  5
39C4B
  8
A-DETL-___2
 10
179.0
 20
-224.5064383944732072
 30
0.0
 42
0.4142135623730907
  0
SEQEND
  5
39C4C
  8
A-DETL-___2
  0
POLYLINE
  5
39588
  8
A-DETL-___2
 66
     1
 10
0.0
 20
0.0
 30
0.0
 70
     1
  0
VERTEX
  5
39C4D
  8
A-DETL-___2
 10
94.9999999999990905
 20
-268.5064383944732072
 30
0.0
  0
VERTEX
  5
39C4E
  8
A-DETL-___2
 10
94.9999999999990905
 20
-276.5064383944732072
 30
0.0
 42
0.4142135623730907
  0
VERTEX
  5
39C4F
  8
A-DETL-___2
 10
98.9999999999990905
 20
-280.5064383944732072
 30
0.0
  0
VERTEX
  5
39C50
  8
A-DETL-___2
 10
100.9999999999991047
 20
-280.5064383944732072
 30
0.0
 42
0.4142135623730951
  0
VERTEX
  5
39C51
  8
A-DETL-___2
 10
104.9999999999991047
 20
-276.5064383944732072
 30
0.0
  0
VERTEX
  5
39C52
  8
A-DETL-___2
 10
104.9999999999991047
 20
-268.5064383944732072
 30
0.0
 42
0.4142135623730951
  0
VERTEX
  5
39C53
  8
A-DETL-___2
 10
100.9999999999991047
 20
-264.5064383944732072
 30
0.0
  0
VERTEX
  5
39C54
  8
A-DETL-___2
 10
98.9999999999990905
 20
-264.5064383944732072
 30
0.0
 42
0.4142135623730907
  0
SEQEND
  5
39C55
  8
A-DETL-___2
  0
POLYLINE
  5
39589
  8
A-DETL-___2
 66
     1
 10
0.0
 20
0.0
 30
0.0
 70
     1
  0
VERTEX
  5
39C56
  8
A-DETL-___2
 10
115.9999999999991047
 20
-297.5064383944741166
 30
0.0
  0
VERTEX
  5
39C57
  8
A-DETL-___2
 10
123.9999999999991047
 20
-297.5064383944741166
 30
0.0
 42
0.4142135623730907
  0
VERTEX
  5
39C58
  8
A-DETL-___2
 10
127.9999999999991047
 20
-293.5064383944741166
 30
0.0
  0
VERTEX
  5
39C59
  8
A-DETL-___2
 10
127.9999999999991047
 20
-291.5064383944732072
 30
0.0
 42
0.4142135623730951
  0
VERTEX
  5
39C5A
  8
A-DETL-___2
 10
123.9999999999991047
 20
-287.5064383944732072
 30
0.0
  0
VERTEX
  5
39C5B
  8
A-DETL-___2
 10
115.9999999999991047
 20
-287.5064383944732072
 30
0.0
 42
0.4142135623730951
  0
VERTEX
  5
39C5C
  8
A-DETL-___2
 10
111.9999999999991047
 20
-291.5064383944732072
 30
0.0
  0
VERTEX
  5
39C5D
  8
A-DETL-___2
 10
111.9999999999991047
 20
-293.5064383944741166
 30
0.0
 42
0.4142135623730907
  0
SEQEND
  5
39C5E
  8
A-DETL-___2
  0
POLYLINE
  5
3958A
  8
A-DETL-___2
 66
     1
 10
0.0
 20
0.0
 30
0.0
 70
     1
  0
VERTEX
  5
39C5F
  8
A-DETL-___2
 10
156.0
 20
-297.5064383944741166
 30
0.0
  0
VERTEX
  5
39C60
  8
A-DETL-___2
 10
164.0
 20
-297.5064383944741166
 30
0.0
 42
0.4142135623730907
  0
VERTEX
  5
39C61
  8
A-DETL-___2
 10
168.0
 20
-293.5064383944741166
 30
0.0
  0
VERTEX
  5
39C62
  8
A-DETL-___2
 10
168.0
 20
-291.5064383944732072
 30
0.0
 42
0.4142135623730951
  0
VERTEX
  5
39C63
  8
A-DETL-___2
 10
164.0
 20
-287.5064383944732072
 30
0.0
  0
VERTEX
  5
39C64
  8
A-DETL-___2
 10
156.0
 20
-287.5064383944732072
 30
0.0
 42
0.4142135623730951
  0
VERTEX
  5
39C65
  8
A-DETL-___2
 10
152.0
 20
-291.5064383944732072
 30
0.0
  0
VERTEX
  5
39C66
  8
A-DETL-___2
 10
152.0
 20
-293.5064383944741166
 30
0.0
 42
0.4142135623730907
  0
SEQEND
  5
39C67
  8
A-DETL-___2
  0
POLYLINE
  5
3958B
  8
A-DETL-___2
 66
     1
 10
0.0
 20
0.0
 30
0.0
 70
     1
  0
VERTEX
  5
39C68
  8
A-DETL-___2
 10
156.0
 20
-217.5064383944740882
 30
0.0
  0
VERTEX
  5
39C69
  8
A-DETL-___2
 10
164.0
 20
-217.5064383944740882
 30
0.0
 42
0.4142135623730907
  0
VERTEX
  5
39C6A
  8
A-DETL-___2
 10
168.0
 20
-213.5064383944740882
 30
0.0
  0
VERTEX
  5
39C6B
  8
A-DETL-___2
 10
168.0
 20
-211.5064383944732072
 30
0.0
 42
0.4142135623730951
  0
VERTEX
  5
39C6C
  8
A-DETL-___2
 10
164.0
 20
-207.5064383944732072
 30
0.0
  0
VERTEX
  5
39C6D
  8
A-DETL-___2
 10
156.0
 20
-207.5064383944732072
 30
0.0
 42
0.4142135623730951
  0
VERTEX
  5
39C6E
  8
A-DETL-___2
 10
152.0
 20
-211.5064383944732072
 30
0.0
  0
VERTEX
  5
39C6F
  8
A-DETL-___2
 10
152.0
 20
-213.5064383944740882
 30
0.0
 42
0.4142135623730907
  0
SEQEND
  5
39C70
  8
A-DETL-___2
  0
POLYLINE
  5
3958C
  8
A-DETL-___2
 66
     1
 10
0.0
 20
0.0
 30
0.0
 70
     1
  0
VERTEX
  5
39C71
  8
A-DETL-___2
 10
115.9999999999991047
 20
-217.5064383944740882
 30
0.0
  0
VERTEX
  5
39C72
  8
A-DETL-___2
 10
123.9999999999991047
 20
-217.5064383944740882
 30
0.0
 42
0.4142135623730907
  0
VERTEX
  5
39C73
  8
A-DETL-___2
 10
127.9999999999991047
 20
-213.5064383944740882
 30
0.0
  0
VERTEX
  5
39C74
  8
A-DETL-___2
 10
127.9999999999991047
 20
-211.5064383944732072
 30
0.0
 42
0.4142135623730951
  0
VERTEX
  5
39C75
  8
A-DETL-___2
 10
123.9999999999991047
 20
-207.5064383944732072
 30
0.0
  0
VERTEX
  5
39C76
  8
A-DETL-___2
 10
115.9999999999991047
 20
-207.5064383944732072
 30
0.0
 42
0.4142135623730951
  0
VERTEX
  5
39C77
  8
A-DETL-___2
 10
111.9999999999991047
 20
-211.5064383944732072
 30
0.0
  0
VERTEX
  5
39C78
  8
A-DETL-___2
 10
111.9999999999991047
 20
-213.5064383944740882
 30
0.0
 42
0.4142135623730907
  0
SEQEND
  5
39C79
  8
A-DETL-___2
  0
CIRCLE
  5
3958D
  8
A-DETL-___2
 10
79.9999999999990905
 20
-212.5064383944736051
 30
0.0
 40
1.6000000000000001
  0
CIRCLE
  5
3958E
  8
A-DETL-___2
 10
79.9999999999990905
 20
-292.5064383944737187
 30
0.0
 40
1.6000000000000001
  0
CIRCLE
  5
3958F
  8
A-DETL-___2
 10
200.0000000000009095
 20
-212.5064383944736051
 30
0.0
 40
1.6000000000000001
  0
CIRCLE
  5
39590
  8
A-DETL-___2
 10
200.0000000000009095
 20
-292.5064383944737187
 30
0.0
 40
1.6000000000000001
  0
CIRCLE
  5
39591
  8
A-DETL-___2
 10
119.9999999999991047
 20
-252.5064383944736903
 30
0.0
 40
1.6000000000000001
  0
CIRCLE
  5
39592
  8
A-DETL-___2
 10
160.0
 20
-252.5064383944736903
 30
0.0
 40
1.6000000000000001
  0
CIRCLE
  5
39593
  8
A-DETL-___2
 10
240.0000000000009095
 20
-193.0000000000061107
 30
0.0
 40
12.0
  0
CIRCLE
  5
39594
  8
A-DETL-___2
 10
227.0000000000009095
 20
-206.0000000000061107
 30
0.0
 40
1.6000000000000001
  0
CIRCLE
  5
39595
  8
A-DETL-___2
 10
227.0
 20
-180.0000000000065938
 30
0.0
 40
1.6000000000000001
  0
CIRCLE
  5
39596
  8
A-DETL-___2
 10
253.0
 20
-180.0000000000061107
 30
0.0
 40
1.6000000000000001
  0
CIRCLE
  5
39597
  8
A-DETL-___2
 10
253.0000000000017906
 20
-206.0000000000075033
 30
0.0
 40
1.6000000000000001
  0
CIRCLE
  5
39598
  8
A-DETL-___2
 10
280.0000000000009095
 20
-193.0000000000061107
 30
0.0
 40
12.0
  0
CIRCLE
  5
39599
  8
A-DETL-___2
 10
267.0000000000009095
 20
-206.0000000000061107
 30
0.0
 40
1.6000000000000001
  0
CIRCLE
  5
3959A
  8
A-DETL-___2
 10
267.0
 20
-180.0000000000065938
 30
0.0
 40
1.6000000000000001
  0
CIRCLE
  5
3959B
  8
A-DETL-___2
 10
293.0
 20
-180.0000000000061107
 30
0.0
 40
1.6000000000000001
  0
CIRCLE
  5
3959C
  8
A-DETL-___2
 10
293.000000000001819
 20
-206.0000000000075033
 30
0.0
 40
1.6000000000000001
  0
CIRCLE
  5
3959D
  8
A-DETL-___2
 10
320.000000000001819
 20
-193.0000000000061107
 30
0.0
 40
12.0
  0
CIRCLE
  5
3959E
  8
A-DETL-___2
 10
307.000000000001819
 20
-206.0000000000061107
 30
0.0
 40
1.6000000000000001
  0
CIRCLE
  5
3959F
  8
A-DETL-___2
 10
307.0000000000009095
 20
-180.0000000000065938
 30
0.0
 40
1.6000000000000001
  0
CIRCLE
  5
395A0
  8
A-DETL-___2
 10
333.0000000000009095
 20
-180.0000000000061107
 30
0.0
 40
1.6000000000000001
  0
CIRCLE
  5
395A1
  8
A-DETL-___2
 10
333.0000000000026716
 20
-206.0000000000075033
 30
0.0
 40
1.6000000000000001
  0
CIRCLE
  5
395A2
  8
A-DETL-___2
 10
240.0000000000009095
 20
-233.0000000000061107
 30
0.0
 40
12.0
  0
CIRCLE
  5
395A3
  8
A-DETL-___2
 10
227.0000000000009095
 20
-246.0000000000061107
 30
0.0
 40
1.6000000000000001
  0
CIRCLE
  5
395A4
  8
A-DETL-___2
 10
227.0
 20
-220.0000000000065938
 30
0.0
 40
1.6000000000000001
  0
CIRCLE
  5
395A5
  8
A-DETL-___2
 10
253.0
 20
-220.0000000000061107
 30
0.0
 40
1.6000000000000001
  0
CIRCLE
  5
395A6
  8
A-DETL-___2
 10
253.0000000000017906
 20
-246.0000000000075033
 30
0.0
 40
1.6000000000000001
  0
CIRCLE
  5
395A7
  8
A-DETL-___2
 10
280.0000000000009095
 20
-233.0000000000061107
 30
0.0
 40
12.0
  0
CIRCLE
  5
395A8
  8
A-DETL-___2
 10
267.0000000000009095
 20
-246.0000000000061107
 30
0.0
 40
1.6000000000000001
  0
CIRCLE
  5
395A9
  8
A-DETL-___2
 10
267.0
 20
-220.0000000000065938
 30
0.0
 40
1.6000000000000001
  0
CIRCLE
  5
395AA
  8
A-DETL-___2
 10
293.0
 20
-220.0000000000061107
 30
0.0
 40
1.6000000000000001
  0
CIRCLE
  5
395AB
  8
A-DETL-___2
 10
293.000000000001819
 20
-246.0000000000075033
 30
0.0
 40
1.6000000000000001
  0
CIRCLE
  5
395AC
  8
A-DETL-___2
 10
320.000000000001819
 20
-233.0000000000061107
 30
0.0
 40
12.0
  0
CIRCLE
  5
395AD
  8
A-DETL-___2
 10
307.000000000001819
 20
-246.0000000000061107
 30
0.0
 40
1.6000000000000001
  0
CIRCLE
  5
395AE
  8
A-DETL-___2
 10
307.0000000000009095
 20
-220.0000000000065938
 30
0.0
 40
1.6000000000000001
  0
CIRCLE
  5
395AF
  8
A-DETL-___2
 10
333.0000000000009095
 20
-220.0000000000061107
 30
0.0
 40
1.6000000000000001
  0
CIRCLE
  5
395B0
  8
A-DETL-___2
 10
333.0000000000026716
 20
-246.0000000000075033
 30
0.0
 40
1.6000000000000001
  0
CIRCLE
  5
395B1
  8
A-DETL-___2
 10
240.0000000000009095
 20
-273.0000000000060822
 30
0.0
 40
12.0
  0
CIRCLE
  5
395B2
  8
A-DETL-___2
 10
227.0000000000009095
 20
-286.0000000000060822
 30
0.0
 40
1.6000000000000001
  0
CIRCLE
  5
395B3
  8
A-DETL-___2
 10
227.0
 20
-260.0000000000065938
 30
0.0
 40
1.6000000000000001
  0
CIRCLE
  5
395B4
  8
A-DETL-___2
 10
253.0
 20
-260.0000000000060822
 30
0.0
 40
1.6000000000000001
  0
CIRCLE
  5
395B5
  8
A-DETL-___2
 10
253.0000000000017906
 20
-286.0000000000075033
 30
0.0
 40
1.6000000000000001
  0
CIRCLE
  5
395B6
  8
A-DETL-___2
 10
280.0000000000009095
 20
-273.0000000000060822
 30
0.0
 40
12.0
  0
CIRCLE
  5
395B7
  8
A-DETL-___2
 10
267.0000000000009095
 20
-286.0000000000060822
 30
0.0
 40
1.6000000000000001
  0
CIRCLE
  5
395B8
  8
A-DETL-___2
 10
267.0
 20
-260.0000000000065938
 30
0.0
 40
1.6000000000000001
  0
CIRCLE
  5
395B9
  8
A-DETL-___2
 10
293.0
 20
-260.0000000000060822
 30
0.0
 40
1.6000000000000001
  0
CIRCLE
  5
395BA
  8
A-DETL-___2
 10
293.000000000001819
 20
-286.0000000000075033
 30
0.0
 40
1.6000000000000001
  0
CIRCLE
  5
395BB
  8
A-DETL-___2
 10
240.0000000000009095
 20
-313.0000000000076739
 30
0.0
 40
12.0
  0
CIRCLE
  5
395BC
  8
A-DETL-___2
 10
227.0000000000009095
 20
-326.0000000000076739
 30
0.0
 40
1.6000000000000001
  0
CIRCLE
  5
395BD
  8
A-DETL-___2
 10
227.0
 20
-300.0000000000084128
 30
0.0
 40
1.6000000000000001
  0
CIRCLE
  5
395BE
  8
A-DETL-___2
 10
253.0
 20
-300.0000000000075033
 30
0.0
 40
1.6000000000000001
  0
CIRCLE
  5
395BF
  8
A-DETL-___2
 10
253.0000000000017906
 20
-326.0000000000090949
 30
0.0
 40
1.6000000000000001
  0
CIRCLE
  5
395C0
  8
A-DETL-___2
 10
280.0000000000009095
 20
-313.0000000000076739
 30
0.0
 40
12.0
  0
CIRCLE
  5
395C1
  8
A-DETL-___2
 10
267.0000000000009095
 20
-326.0000000000076739
 30
0.0
 40
1.6000000000000001
  0
CIRCLE
  5
395C2
  8
A-DETL-___2
 10
267.0
 20
-300.0000000000084128
 30
0.0
 40
1.6000000000000001
  0
CIRCLE
  5
395C3
  8
A-DETL-___2
 10
293.0
 20
-300.0000000000075033
 30
0.0
 40
1.6000000000000001
  0
CIRCLE
  5
395C4
  8
A-DETL-___2
 10
293.000000000001819
 20
-326.0000000000090949
 30
0.0
 40
1.6000000000000001
  0
POLYLINE
  5
395C5
  8
A-DETL-___2
 66
     1
 10
0.0
 20
0.0
 30
0.0
 70
     1
  0
VERTEX
  5
39C7A
  8
A-DETL-___2
 10
236.0000000000009095
 20
-258.0000000000071054
 30
0.0
  0
VERTEX
  5
39C7B
  8
A-DETL-___2
 10
244.0000000000009095
 20
-258.0000000000071054
 30
0.0
 42
0.4142135623730907
  0
VERTEX
  5
39C7C
  8
A-DETL-___2
 10
248.0000000000009095
 20
-254.0000000000071054
 30
0.0
  0
VERTEX
  5
39C7D
  8
A-DETL-___2
 10
248.0000000000009095
 20
-252.0000000000061107
 30
0.0
 42
0.4142135623730951
  0
VERTEX
  5
39C7E
  8
A-DETL-___2
 10
244.0000000000009095
 20
-248.0000000000061107
 30
0.0
  0
VERTEX
  5
39C7F
  8
A-DETL-___2
 10
236.0000000000009095
 20
-248.0000000000061107
 30
0.0
 42
0.4142135623730951
  0
VERTEX
  5
39C80
  8
A-DETL-___2
 10
232.0000000000009095
 20
-252.0000000000061107
 30
0.0
  0
VERTEX
  5
39C81
  8
A-DETL-___2
 10
232.0000000000009095
 20
-254.0000000000071054
 30
0.0
 42
0.4142135623730907
  0
SEQEND
  5
39C82
  8
A-DETL-___2
  0
POLYLINE
  5
395C6
  8
A-DETL-___2
 66
     1
 10
0.0
 20
0.0
 30
0.0
 70
     1
  0
VERTEX
  5
39C83
  8
A-DETL-___2
 10
295.0000000000009095
 20
-189.0000000000061107
 30
0.0
  0
VERTEX
  5
39C84
  8
A-DETL-___2
 10
295.0000000000009095
 20
-197.0000000000061107
 30
0.0
 42
0.4142135623730907
  0
VERTEX
  5
39C85
  8
A-DETL-___2
 10
299.0000000000009095
 20
-201.0000000000061107
 30
0.0
  0
VERTEX
  5
39C86
  8
A-DETL-___2
 10
301.0000000000009095
 20
-201.0000000000061107
 30
0.0
 42
0.4142135623730951
  0
VERTEX
  5
39C87
  8
A-DETL-___2
 10
305.0000000000009095
 20
-197.0000000000061107
 30
0.0
  0
VERTEX
  5
39C88
  8
A-DETL-___2
 10
305.0000000000009095
 20
-189.0000000000061107
 30
0.0
 42
0.4142135623730951
  0
VERTEX
  5
39C89
  8
A-DETL-___2
 10
301.0000000000009095
 20
-185.0000000000061107
 30
0.0
  0
VERTEX
  5
39C8A
  8
A-DETL-___2
 10
299.0000000000009095
 20
-185.0000000000061107
 30
0.0
 42
0.4142135623730907
  0
SEQEND
  5
39C8B
  8
A-DETL-___2
  0
POLYLINE
  5
395C7
  8
A-DETL-___2
 66
     1
 10
0.0
 20
0.0
 30
0.0
 70
     1
  0
VERTEX
  5
39C8C
  8
A-DETL-___2
 10
255.0
 20
-229.0000000000061107
 30
0.0
  0
VERTEX
  5
39C8D
  8
A-DETL-___2
 10
255.0
 20
-237.0000000000061107
 30
0.0
 42
0.4142135623730907
  0
VERTEX
  5
39C8E
  8
A-DETL-___2
 10
259.0
 20
-241.0000000000061107
 30
0.0
  0
VERTEX
  5
39C8F
  8
A-DETL-___2
 10
261.0
 20
-241.0000000000061107
 30
0.0
 42
0.4142135623730951
  0
VERTEX
  5
39C90
  8
A-DETL-___2
 10
265.0
 20
-237.0000000000061107
 30
0.0
  0
VERTEX
  5
39C91
  8
A-DETL-___2
 10
265.0
 20
-229.0000000000061107
 30
0.0
 42
0.4142135623730951
  0
VERTEX
  5
39C92
  8
A-DETL-___2
 10
261.0
 20
-225.0000000000061107
 30
0.0
  0
VERTEX
  5
39C93
  8
A-DETL-___2
 10
259.0
 20
-225.0000000000061107
 30
0.0
 42
0.4142135623730907
  0
SEQEND
  5
39C94
  8
A-DETL-___2
  0
POLYLINE
  5
395C8
  8
A-DETL-___2
 66
     1
 10
0.0
 20
0.0
 30
0.0
 70
     1
  0
VERTEX
  5
39C95
  8
A-DETL-___2
 10
255.0000000000009095
 20
-269.0000000000060822
 30
0.0
  0
VERTEX
  5
39C96
  8
A-DETL-___2
 10
255.0000000000009095
 20
-277.0000000000060822
 30
0.0
 42
0.4142135623730907
  0
VERTEX
  5
39C97
  8
A-DETL-___2
 10
259.0000000000009095
 20
-281.0000000000060822
 30
0.0
  0
VERTEX
  5
39C98
  8
A-DETL-___2
 10
261.0000000000009095
 20
-281.0000000000060822
 30
0.0
 42
0.4142135623730951
  0
VERTEX
  5
39C99
  8
A-DETL-___2
 10
265.0000000000009095
 20
-277.0000000000060822
 30
0.0
  0
VERTEX
  5
39C9A
  8
A-DETL-___2
 10
265.0000000000009095
 20
-269.0000000000060822
 30
0.0
 42
0.4142135623730951
  0
VERTEX
  5
39C9B
  8
A-DETL-___2
 10
261.0000000000009095
 20
-265.0000000000061959
 30
0.0
  0
VERTEX
  5
39C9C
  8
A-DETL-___2
 10
259.0000000000009095
 20
-265.0000000000061959
 30
0.0
 42
0.4142135623730907
  0
SEQEND
  5
39C9D
  8
A-DETL-___2
  0
POLYLINE
  5
395C9
  8
A-DETL-___2
 66
     1
 10
0.0
 20
0.0
 30
0.0
 70
     1
  0
VERTEX
  5
39C9E
  8
A-DETL-___2
 10
276.0000000000009095
 20
-298.0000000000071054
 30
0.0
  0
VERTEX
  5
39C9F
  8
A-DETL-___2
 10
284.0000000000009095
 20
-298.0000000000071054
 30
0.0
 42
0.4142135623730907
  0
VERTEX
  5
39CA0
  8
A-DETL-___2
 10
288.0000000000009095
 20
-294.0000000000069917
 30
0.0
  0
VERTEX
  5
39CA1
  8
A-DETL-___2
 10
288.0000000000009095
 20
-292.0000000000061959
 30
0.0
 42
0.4142135623730951
  0
VERTEX
  5
39CA2
  8
A-DETL-___2
 10
284.0000000000009095
 20
-288.0000000000061959
 30
0.0
  0
VERTEX
  5
39CA3
  8
A-DETL-___2
 10
276.0000000000009095
 20
-288.0000000000061959
 30
0.0
 42
0.4142135623730951
  0
VERTEX
  5
39CA4
  8
A-DETL-___2
 10
272.0000000000009095
 20
-292.0000000000061959
 30
0.0
  0
VERTEX
  5
39CA5
  8
A-DETL-___2
 10
272.0000000000009095
 20
-294.0000000000069917
 30
0.0
 42
0.4142135623730907
  0
SEQEND
  5
39CA6
  8
A-DETL-___2
  0
POLYLINE
  5
395CA
  8
A-DETL-___2
 66
     1
 10
0.0
 20
0.0
 30
0.0
 70
     1
  0
VERTEX
  5
39CA7
  8
A-DETL-___2
 10
316.000000000001819
 20
-218.0000000000069917
 30
0.0
  0
VERTEX
  5
39CA8
  8
A-DETL-___2
 10
324.000000000001819
 20
-218.0000000000069917
 30
0.0
 42
0.4142135623730907
  0
VERTEX
  5
39CA9
  8
A-DETL-___2
 10
328.000000000001819
 20
-214.0000000000071054
 30
0.0
  0
VERTEX
  5
39CAA
  8
A-DETL-___2
 10
328.000000000001819
 20
-212.0000000000061107
 30
0.0
 42
0.4142135623730951
  0
VERTEX
  5
39CAB
  8
A-DETL-___2
 10
324.000000000001819
 20
-208.0000000000061107
 30
0.0
  0
VERTEX
  5
39CAC
  8
A-DETL-___2
 10
316.000000000001819
 20
-208.0000000000061107
 30
0.0
 42
0.4142135623730951
  0
VERTEX
  5
39CAD
  8
A-DETL-___2
 10
312.000000000001819
 20
-212.0000000000061107
 30
0.0
  0
VERTEX
  5
39CAE
  8
A-DETL-___2
 10
312.000000000001819
 20
-214.0000000000071054
 30
0.0
 42
0.4142135623730907
  0
SEQEND
  5
39CAF
  8
A-DETL-___2
  0
POLYLINE
  5
395CB
  8
A-DETL-___2
 66
     1
 10
0.0
 20
0.0
 30
0.0
 70
     1
  0
VERTEX
  5
39CB0
  8
A-DETL-___2
 10
276.0000000000009095
 20
-218.0000000000069917
 30
0.0
  0
VERTEX
  5
39CB1
  8
A-DETL-___2
 10
284.0000000000009095
 20
-218.0000000000069917
 30
0.0
 42
0.4142135623730907
  0
VERTEX
  5
39CB2
  8
A-DETL-___2
 10
288.0000000000009095
 20
-214.0000000000071054
 30
0.0
  0
VERTEX
  5
39CB3
  8
A-DETL-___2
 10
288.0000000000009095
 20
-212.0000000000061107
 30
0.0
 42
0.4142135623730951
  0
VERTEX
  5
39CB4
  8
A-DETL-___2
 10
284.0000000000009095
 20
-208.0000000000061107
 30
0.0
  0
VERTEX
  5
39CB5
  8
A-DETL-___2
 10
276.0000000000009095
 20
-208.0000000000061107
 30
0.0
 42
0.4142135623730951
  0
VERTEX
  5
39CB6
  8
A-DETL-___2
 10
272.0000000000009095
 20
-212.0000000000061107
 30
0.0
  0
VERTEX
  5
39CB7
  8
A-DETL-___2
 10
272.0000000000009095
 20
-214.0000000000071054
 30
0.0
 42
0.4142135623730907
  0
SEQEND
  5
39CB8
  8
A-DETL-___2
  0
CIRCLE
  5
395CC
  8
A-DETL-___2
 10
240.0000000000009095
 20
-213.0000000000065938
 30
0.0
 40
1.6000000000000001
  0
CIRCLE
  5
395CD
  8
A-DETL-___2
 10
240.0000000000009095
 20
-293.0000000000065938
 30
0.0
 40
1.6000000000000001
  0
CIRCLE
  5
395CE
  8
A-DETL-___2
 10
280.0000000000009095
 20
-253.0000000000065938
 30
0.0
 40
1.6000000000000001
  0
POLYLINE
  5
395CF
  8
A-DETL-___2
 66
     1
 10
0.0
 20
0.0
 30
0.0
  0
VERTEX
  5
39CB9
  8
A-DETL-___2
 10
-19.9500000000025501
 20
-305.0000000000085834
 30
0.0
  0
VERTEX
  5
39CBA
  8
A-DETL-___2
 10
-19.0000000000027285
 20
-305.0000000000085834
 30
0.0
 42
-0.4142135623730951
  0
VERTEX
  5
39CBB
  8
A-DETL-___2
 10
-15.0000000000027303
 20
-309.0000000000090949
 30
0.0
  0
VERTEX
  5
39CBC
  8
A-DETL-___2
 10
-15.0000000000027303
 20
-317.0000000000090949
 30
0.0
 42
-0.4142135623730951
  0
VERTEX
  5
39CBD
  8
A-DETL-___2
 10
-19.0000000000027285
 20
-321.000000000008697
 30
0.0
  0
VERTEX
  5
39CBE
  8
A-DETL-___2
 10
-19.9500000000025501
 20
-321.000000000008697
 30
0.0
  0
VERTEX
  5
39CBF
  8
A-DETL-___2
 10
-19.9500000000025501
 20
-335.0000000000064233
 30
0.0
  0
VERTEX
  5
39CC0
  8
A-DETL-___2
 10
27.0
 20
-335.0000000000064233
 30
0.0
 42
-0.4142135623730951
  0
VERTEX
  5
39CC1
  8
A-DETL-___2
 10
31.0
 20
-339.0000000000064233
 30
0.0
  0
VERTEX
  5
39CC2
  8
A-DETL-___2
 10
31.0
 20
-346.0000000000118234
 30
0.0
 42
0.9999999999999998
  0
VERTEX
  5
39CC3
  8
A-DETL-___2
 10
49.0
 20
-346.0000000000118234
 30
0.0
  0
VERTEX
  5
39CC4
  8
A-DETL-___2
 10
49.0
 20
-339.0000000000064233
 30
0.0
 42
-0.4142135623730951
  0
VERTEX
  5
39CC5
  8
A-DETL-___2
 10
53.0
 20
-335.0000000000064233
 30
0.0
  0
VERTEX
  5
39CC6
  8
A-DETL-___2
 10
107.0
 20
-335.0000000000064233
 30
0.0
 42
-0.4142135623730951
  0
VERTEX
  5
39CC7
  8
A-DETL-___2
 10
111.0
 20
-339.0000000000064233
 30
0.0
  0
VERTEX
  5
39CC8
  8
A-DETL-___2
 10
111.0
 20
-346.000000000010516
 30
0.0
 42
0.9999999999999998
  0
VERTEX
  5
39CC9
  8
A-DETL-___2
 10
129.0
 20
-346.000000000010516
 30
0.0
  0
VERTEX
  5
39CCA
  8
A-DETL-___2
 10
129.0
 20
-339.0000000000064233
 30
0.0
 42
-0.4142135623730951
  0
VERTEX
  5
39CCB
  8
A-DETL-___2
 10
133.0
 20
-335.0000000000064233
 30
0.0
  0
VERTEX
  5
39CCC
  8
A-DETL-___2
 10
187.0000000000009095
 20
-335.0000000000064233
 30
0.0
 42
-0.4142135623730951
  0
VERTEX
  5
39CCD
  8
A-DETL-___2
 10
191.0000000000009095
 20
-339.0000000000064233
 30
0.0
  0
VERTEX
  5
39CCE
  8
A-DETL-___2
 10
191.0000000000009095
 20
-346.000000000010516
 30
0.0
 42
0.9999999999999998
  0
VERTEX
  5
39CCF
  8
A-DETL-___2
 10
209.0000000000009095
 20
-346.000000000010516
 30
0.0
  0
VERTEX
  5
39CD0
  8
A-DETL-___2
 10
209.0000000000009095
 20
-339.0000000000064233
 30
0.0
 42
-0.4142135623730951
  0
VERTEX
  5
39CD1
  8
A-DETL-___2
 10
213.0000000000009095
 20
-335.0000000000064233
 30
0.0
  0
VERTEX
  5
39CD2
  8
A-DETL-___2
 10
267.000000000001819
 20
-335.0000000000064233
 30
0.0
 42
-0.4142135623730951
  0
VERTEX
  5
39CD3
  8
A-DETL-___2
 10
271.000000000001819
 20
-339.0000000000064233
 30
0.0
  0
VERTEX
  5
39CD4
  8
A-DETL-___2
 10
271.000000000001819
 20
-346.000000000008697
 30
0.0
 42
0.9999999999999998
  0
VERTEX
  5
39CD5
  8
A-DETL-___2
 10
289.000000000001819
 20
-346.000000000008697
 30
0.0
  0
VERTEX
  5
39CD6
  8
A-DETL-___2
 10
289.000000000001819
 20
-339.0000000000064233
 30
0.0
 42
-0.4142135623730951
  0
VERTEX
  5
39CD7
  8
A-DETL-___2
 10
293.000000000001819
 20
-335.0000000000064233
 30
0.0
  0
VERTEX
  5
39CD8
  8
A-DETL-___2
 10
299.9500000000033992
 20
-335.0000000000064233
 30
0.0
  0
VERTEX
  5
39CD9
  8
A-DETL-___2
 10
299.9500000000033992
 20
-321.0000000000079012
 30
0.0
  0
VERTEX
  5
39CDA
  8
A-DETL-___2
 10
299.0000000000009095
 20
-321.0000000000079012
 30
0.0
 42
-0.4142135623730907
  0
VERTEX
  5
39CDB
  8
A-DETL-___2
 10
295.0000000000009095
 20
-317.0000000000080149
 30
0.0
  0
VERTEX
  5
39CDC
  8
A-DETL-___2
 10
295.0000000000009095
 20
-309.0000000000080149
 30
0.0
 42
-0.4142135623730907
  0
VERTEX
  5
39CDD
  8
A-DETL-___2
 10
299.0000000000009095
 20
-305.0000000000080149
 30
0.0
  0
VERTEX
  5
39CDE
  8
A-DETL-___2
 10
299.9500000000033992
 20
-305.0000000000080149
 30
0.0
  0
VERTEX
  5
39CDF
  8
A-DETL-___2
 10
299.9500000000033992
 20
-252.950000000006213
 30
0.0
  0
VERTEX
  5
39CE0
  8
A-DETL-___2
 10
318.4007814408296895
 20
-252.950000000006213
 30
0.0
 42
-0.9692233691948764
  0
VERTEX
  5
39CE1
  8
A-DETL-___2
 10
321.5992185591740053
 20
-252.950000000006213
 30
0.0
  0
VERTEX
  5
39CE2
  8
A-DETL-___2
 10
339.9500000000024897
 20
-252.950000000006213
 30
0.0
  0
VERTEX
  5
39CE3
  8
A-DETL-___2
 10
339.9500000000024897
 20
-241.0000000000061107
 30
0.0
  0
VERTEX
  5
39CE4
  8
A-DETL-___2
 10
339.000000000001819
 20
-241.0000000000061107
 30
0.0
 42
-0.4142135623730907
  0
VERTEX
  5
39CE5
  8
A-DETL-___2
 10
335.000000000001819
 20
-237.0000000000061107
 30
0.0
  0
VERTEX
  5
39CE6
  8
A-DETL-___2
 10
335.000000000001819
 20
-229.0000000000061107
 30
0.0
 42
-0.4142135623730907
  0
VERTEX
  5
39CE7
  8
A-DETL-___2
 10
339.000000000001819
 20
-225.0000000000061107
 30
0.0
  0
VERTEX
  5
39CE8
  8
A-DETL-___2
 10
339.9500000000024897
 20
-225.0000000000061107
 30
0.0
  0
SEQEND
  5
39CE9
  8
A-DETL-___2
  0
POLYLINE
  5
395D0
  8
A-DETL-___2
 66
     1
 10
0.0
 20
0.0
 30
0.0
  0
VERTEX
  5
39CEA
  8
A-DETL-___2
 10
339.9500000000024897
 20
-225.0000000000059117
 30
0.0
  0
VERTEX
  5
39CEB
  8
A-DETL-___2
 10
339.9500000000024897
 20
-173.0500000000056104
 30
0.0
  0
VERTEX
  5
39CEC
  8
A-DETL-___2
 10
299.9500000000033992
 20
-173.0500000000056104
 30
0.0
  0
VERTEX
  5
39CED
  8
A-DETL-___2
 10
299.9500000000033992
 20
-161.0000000000090949
 30
0.0
  0
VERTEX
  5
39CEE
  8
A-DETL-___2
 10
299.000000000001819
 20
-161.0000000000090949
 30
0.0
 42
-0.4142135623730907
  0
VERTEX
  5
39CEF
  8
A-DETL-___2
 10
295.000000000001819
 20
-157.0000000000090949
 30
0.0
  0
VERTEX
  5
39CF0
  8
A-DETL-___2
 10
295.000000000001819
 20
-149.0000000000090949
 30
0.0
 42
-0.4142135623730907
  0
VERTEX
  5
39CF1
  8
A-DETL-___2
 10
299.000000000001819
 20
-145.0000000000090949
 30
0.0
  0
VERTEX
  5
39CF2
  8
A-DETL-___2
 10
299.9500000000033992
 20
-145.0000000000090949
 30
0.0
  0
VERTEX
  5
39CF3
  8
A-DETL-___2
 10
299.9500000000033992
 20
-41.0000000000072689
 30
0.0
  0
VERTEX
  5
39CF4
  8
A-DETL-___2
 10
299.000000000001819
 20
-41.0000000000072689
 30
0.0
 42
-0.4142135623730907
  0
VERTEX
  5
39CF5
  8
A-DETL-___2
 10
295.000000000001819
 20
-37.0000000000072831
 30
0.0
  0
VERTEX
  5
39CF6
  8
A-DETL-___2
 10
295.000000000001819
 20
-29.0000000000072795
 30
0.0
 42
-0.4142135623730907
  0
VERTEX
  5
39CF7
  8
A-DETL-___2
 10
299.000000000001819
 20
-25.0000000000072795
 30
0.0
  0
VERTEX
  5
39CF8
  8
A-DETL-___2
 10
299.9500000000033992
 20
-25.0000000000072795
 30
0.0
  0
VERTEX
  5
39CF9
  8
A-DETL-___2
 10
299.9500000000033992
 20
-11.0000000000040892
 30
0.0
  0
VERTEX
  5
39CFA
  8
A-DETL-___2
 10
253.0000000000017906
 20
-11.0000000000036398
 30
0.0
 42
-0.4142135623730925
  0
VERTEX
  5
39CFB
  8
A-DETL-___2
 10
249.0000000000017906
 20
-7.0000000000036371
 30
0.0
  0
VERTEX
  5
39CFC
  8
A-DETL-___2
 10
249.0000000000017906
 20
-0.0000000000031832
 30
0.0
 42
0.9999999999999998
  0
VERTEX
  5
39CFD
  8
A-DETL-___2
 10
231.0000000000017906
 20
-0.0000000000031832
 30
0.0
  0
VERTEX
  5
39CFE
  8
A-DETL-___2
 10
231.0000000000017906
 20
-7.0000000000031832
 30
0.0
 42
-0.4142135623730971
  0
VERTEX
  5
39CFF
  8
A-DETL-___2
 10
227.0000000000017906
 20
-11.0000000000031797
 30
0.0
  0
VERTEX
  5
39D00
  8
A-DETL-___2
 10
173.0000000000009095
 20
-11.0000000000027303
 30
0.0
 42
-0.4142135623730927
  0
VERTEX
  5
39D01
  8
A-DETL-___2
 10
169.0000000000009095
 20
-7.0000000000027276
 30
0.0
  0
VERTEX
  5
39D02
  8
A-DETL-___2
 10
169.0000000000009095
 20
-0.0000000000013642
 30
0.0
 42
0.9999999999999998
  0
VERTEX
  5
39D03
  8
A-DETL-___2
 10
151.0000000000009095
 20
-0.0000000000013642
 30
0.0
  0
VERTEX
  5
39D04
  8
A-DETL-___2
 10
151.0000000000009095
 20
-7.0000000000027276
 30
0.0
 42
-0.4142135623730971
  0
VERTEX
  5
39D05
  8
A-DETL-___2
 10
147.0000000000009095
 20
-11.0000000000027303
 30
0.0
  0
VERTEX
  5
39D06
  8
A-DETL-___2
 10
93.0
 20
-11.0000000000022702
 30
0.0
 42
-0.4142135623730927
  0
VERTEX
  5
39D07
  8
A-DETL-___2
 10
89.0
 20
-7.0000000000022728
 30
0.0
  0
VERTEX
  5
39D08
  8
A-DETL-___2
 10
89.0
 20
-0.0000000000013642
 30
0.0
 42
0.9999999999999998
  0
VERTEX
  5
39D09
  8
A-DETL-___2
 10
71.0
 20
-0.0000000000013642
 30
0.0
  0
VERTEX
  5
39D0A
  8
A-DETL-___2
 10
71.0
 20
-7.0000000000018181
 30
0.0
 42
-0.4142135623730971
  0
VERTEX
  5
39D0B
  8
A-DETL-___2
 10
67.0
 20
-11.0000000000018208
 30
0.0
  0
VERTEX
  5
39D0C
  8
A-DETL-___2
 10
13.0
 20
-11.0000000000013607
 30
0.0
 42
-0.4142135623730927
  0
VERTEX
  5
39D0D
  8
A-DETL-___2
 10
9.0
 20
-7.0000000000013642
 30
0.0
  0
VERTEX
  5
39D0E
  8
A-DETL-___2
 10
9.0
 20
0.0
 30
0.0
 42
0.9999999999999998
  0
VERTEX
  5
39D0F
  8
A-DETL-___2
 10
-9.0
 20
0.0
 30
0.0
  0
VERTEX
  5
39D10
  8
A-DETL-___2
 10
-9.0
 20
-7.0000000000009086
 30
0.0
 42
-0.4142135623730951
  0
VERTEX
  5
39D11
  8
A-DETL-___2
 10
-13.0
 20
-11.0000000000009095
 30
0.0
  0
VERTEX
  5
39D12
  8
A-DETL-___2
 10
-19.9499999999998217
 20
-11.0000000000009095
 30
0.0
  0
VERTEX
  5
39D13
  8
A-DETL-___2
 10
-19.9499999999998217
 20
-25.0000000000040892
 30
0.0
  0
VERTEX
  5
39D14
  8
A-DETL-___2
 10
-19.0000000000009095
 20
-25.0000000000040892
 30
0.0
 42
-0.4142135623730951
  0
VERTEX
  5
39D15
  8
A-DETL-___2
 10
-15.0000000000009095
 20
-29.0000000000040892
 30
0.0
  0
VERTEX
  5
39D16
  8
A-DETL-___2
 10
-15.0000000000009095
 20
-37.0000000000040998
 30
0.0
 42
-0.4142135623730951
  0
VERTEX
  5
39D17
  8
A-DETL-___2
 10
-19.0000000000009095
 20
-41.0000000000040927
 30
0.0
  0
VERTEX
  5
39D18
  8
A-DETL-___2
 10
-19.9499999999998217
 20
-41.0000000000040927
 30
0.0
  0
VERTEX
  5
39D19
  8
A-DETL-___2
 10
-19.9500000000007311
 20
-92.9500000000043656
 30
0.0
  0
VERTEX
  5
39D1A
  8
A-DETL-___2
 10
-1.5992185591721859
 20
-92.9500000000043656
 30
0.0
  0
SEQEND
  5
39D1B
  8
A-DETL-___2
  0
POLYLINE
  5
395D1
  8
A-DETL-___2
 66
     1
 10
0.0
 20
0.0
 30
0.0
  0
VERTEX
  5
39D1C
  8
A-DETL-___2
 10
1.5992185591721859
 20
-92.9500000000043656
 30
0.0
  0
VERTEX
  5
39D1D
  8
A-DETL-___2
 10
20.0499999999992689
 20
-92.9500000000043656
 30
0.0
  0
VERTEX
  5
39D1E
  8
A-DETL-___2
 10
20.0499999999992689
 20
-105.0000000000045048
 30
0.0
  0
SEQEND
  5
39D1F
  8
A-DETL-___2
  0
POLYLINE
  5
395D2
  8
A-DETL-___2
 66
     1
 10
0.0
 20
0.0
 30
0.0
  0
VERTEX
  5
39D20
  8
A-DETL-___2
 10
20.0499999999992689
 20
-105.0000000000045048
 30
0.0
  0
VERTEX
  5
39D21
  8
A-DETL-___2
 10
21.0
 20
-105.0000000000045048
 30
0.0
 42
-0.4142135623730951
  0
VERTEX
  5
39D22
  8
A-DETL-___2
 10
25.0
 20
-109.0000000000045048
 30
0.0
  0
VERTEX
  5
39D23
  8
A-DETL-___2
 10
25.0
 20
-117.0000000000045048
 30
0.0
 42
-0.4142135623730951
  0
VERTEX
  5
39D24
  8
A-DETL-___2
 10
21.0
 20
-121.0000000000045048
 30
0.0
  0
VERTEX
  5
39D25
  8
A-DETL-___2
 10
20.0499999999992689
 20
-121.0000000000045048
 30
0.0
  0
VERTEX
  5
39D26
  8
A-DETL-___2
 10
20.0499999999992689
 20
-173.0506207581647118
 30
0.0
  0
VERTEX
  5
39D27
  8
A-DETL-___2
 10
-19.9500000000016406
 20
-173.0506207581647118
 30
0.0
  0
VERTEX
  5
39D28
  8
A-DETL-___2
 10
-19.9500000000016406
 20
-185.0000000000067928
 30
0.0
  0
VERTEX
  5
39D29
  8
A-DETL-___2
 10
-19.0000000000027285
 20
-185.0000000000067928
 30
0.0
 42
-0.4142135623730951
  0
VERTEX
  5
39D2A
  8
A-DETL-___2
 10
-15.0000000000027303
 20
-189.0000000000067928
 30
0.0
  0
VERTEX
  5
39D2B
  8
A-DETL-___2
 10
-15.0000000000027303
 20
-197.0000000000067928
 30
0.0
 42
-0.4142135623730951
  0
VERTEX
  5
39D2C
  8
A-DETL-___2
 10
-19.0000000000027285
 20
-201.0000000000067928
 30
0.0
  0
VERTEX
  5
39D2D
  8
A-DETL-___2
 10
-19.9500000000016406
 20
-201.0000000000067928
 30
0.0
  0
SEQEND
  5
39D2E
  8
A-DETL-___2
  0
POLYLINE
  5
395D3
  8
A-DETL-___2
 66
     1
 10
0.0
 20
0.0
 30
0.0
  0
VERTEX
  5
39D2F
  8
A-DETL-___2
 10
-19.9500000000016406
 20
-201.0000000000063949
 30
0.0
  0
VERTEX
  5
39D30
  8
A-DETL-___2
 10
-19.9500000000025501
 20
-305.0000000000085834
 30
0.0
  0
SEQEND
  5
39D31
  8
A-DETL-___2
  0
CIRCLE
  5
395D4
  8
A-DETL-___2
 10
0.0
 20
0.0
 30
0.0
 40
4.5
  0
CIRCLE
  5
395D5
  8
A-DETL-___2
 10
80.0
 20
-0.0000000000013642
 30
0.0
 40
4.5
  0
CIRCLE
  5
395D6
  8
A-DETL-___2
 10
160.0000000000009095
 20
-0.0000000000013642
 30
0.0
 40
4.5
  0
CIRCLE
  5
395D7
  8
A-DETL-___2
 10
240.0000000000017906
 20
-0.0000000000031832
 30
0.0
 40
4.5
  0
CIRCLE
  5
395D8
  8
A-DETL-___2
 10
40.0
 20
-346.0000000000118234
 30
0.0
 40
4.5
  0
CIRCLE
  5
395D9
  8
A-DETL-___2
 10
120.0
 20
-346.000000000010516
 30
0.0
 40
4.5
  0
CIRCLE
  5
395DA
  8
A-DETL-___2
 10
200.0000000000009095
 20
-346.000000000010516
 30
0.0
 40
4.5
  0
CIRCLE
  5
395DB
  8
A-DETL-___2
 10
280.000000000001819
 20
-346.000000000008697
 30
0.0
 40
4.5
  0
POLYLINE
  5
395DC
  8
A-DETL-___2
 66
     1
 10
0.0
 20
0.0
 30
0.0
 70
     1
  0
VERTEX
  5
39D32
  8
A-DETL-___2
 10
100.0000000054388067
 20
-27.9999999974415914
 30
0.0
  0
VERTEX
  5
39D33
  8
A-DETL-___2
 10
95.6698729865156565
 20
-35.4999999974429628
 30
0.0
  0
VERTEX
  5
39D34
  8
A-DETL-___2
 10
104.3301270243619001
 20
-35.4999999974429628
 30
0.0
  0
SEQEND
  5
39D35
  8
A-DETL-___2
  0
POLYLINE
  5
395DD
  8
A-DETL-___2
 66
     1
 10
0.0
 20
0.0
 30
0.0
 70
     1
  0
VERTEX
  5
39D36
  8
A-DETL-___2
 10
260.0000000054415068
 20
-28.0000000000059117
 30
0.0
  0
VERTEX
  5
39D37
  8
A-DETL-___2
 10
255.6698729865184134
 20
-35.5000000000072831
 30
0.0
  0
VERTEX
  5
39D38
  8
A-DETL-___2
 10
264.3301270243645718
 20
-35.5000000000072831
 30
0.0
  0
SEQEND
  5
39D39
  8
A-DETL-___2
  0
POLYLINE
  5
395DE
  8
A-DETL-___2
 66
     1
 10
0.0
 20
0.0
 30
0.0
 70
     1
  0
VERTEX
  5
39D3A
  8
A-DETL-___2
 10
260.0000000054396878
 20
-187.9999999974423019
 30
0.0
  0
VERTEX
  5
39D3B
  8
A-DETL-___2
 10
255.6698729865165092
 20
-195.4999999974436093
 30
0.0
  0
VERTEX
  5
39D3C
  8
A-DETL-___2
 10
264.3301270243628096
 20
-195.4999999974436093
 30
0.0
  0
SEQEND
  5
39D3D
  8
A-DETL-___2
  0
POLYLINE
  5
395DF
  8
A-DETL-___2
 66
     1
 10
0.0
 20
0.0
 30
0.0
 70
     1
  0
VERTEX
  5
39D3E
  8
A-DETL-___2
 10
100.0000000054377978
 20
-187.5064383919093132
 30
0.0
  0
VERTEX
  5
39D3F
  8
A-DETL-___2
 10
95.669872986514747
 20
-195.0064383919107058
 30
0.0
  0
VERTEX
  5
39D40
  8
A-DETL-___2
 10
104.3301270243610048
 20
-195.0064383919107058
 30
0.0
  0
SEQEND
  5
39D41
  8
A-DETL-___2
  0
ENDBLK
  5
39253
  8
0
  0
BLOCK
  8
0
  2
PLATE_3
 70
     0
 10
0.0
 20
0.0
 30
0.0
  3
PLATE_3
  1

  0
CIRCLE
  5
39781
  8
A-DETL-___2
 10
0.0
 20
-33.0000000000040927
 30
0.0
 40
12.0
  0
CIRCLE
  5
39782
  8
A-DETL-___2
 10
-13.0
 20
-46.0000000000040927
 30
0.0
 40
1.6000000000000001
  0
CIRCLE
  5
39783
  8
A-DETL-___2
 10
-13.0000000000009095
 20
-20.000000000004551
 30
0.0
 40
1.6000000000000001
  0
CIRCLE
  5
39784
  8
A-DETL-___2
 10
12.9999999999990905
 20
-20.0000000000040892
 30
0.0
 40
1.6000000000000001
  0
CIRCLE
  5
39785
  8
A-DETL-___2
 10
13.0000000000009095
 20
-46.0000000000054499
 30
0.0
 40
1.6000000000000001
  0
CIRCLE
  5
39786
  8
A-DETL-___2
 10
40.0000000000009095
 20
-33.0000000000040927
 30
0.0
 40
12.0
  0
CIRCLE
  5
39787
  8
A-DETL-___2
 10
27.0000000000009095
 20
-46.0000000000040927
 30
0.0
 40
1.6000000000000001
  0
CIRCLE
  5
39788
  8
A-DETL-___2
 10
27.0
 20
-20.000000000004551
 30
0.0
 40
1.6000000000000001
  0
CIRCLE
  5
39789
  8
A-DETL-___2
 10
53.0
 20
-20.0000000000040892
 30
0.0
 40
1.6000000000000001
  0
CIRCLE
  5
3978A
  8
A-DETL-___2
 10
53.0000000000018119
 20
-46.0000000000054499
 30
0.0
 40
1.6000000000000001
  0
CIRCLE
  5
3978B
  8
A-DETL-___2
 10
0.0
 20
-73.0000000000040927
 30
0.0
 40
12.0
  0
CIRCLE
  5
3978C
  8
A-DETL-___2
 10
-13.0
 20
-86.0000000000040927
 30
0.0
 40
1.6000000000000001
  0
CIRCLE
  5
3978D
  8
A-DETL-___2
 10
-13.0000000000009095
 20
-60.0000000000045404
 30
0.0
 40
1.6000000000000001
  0
CIRCLE
  5
3978E
  8
A-DETL-___2
 10
12.9999999999990905
 20
-60.0000000000040927
 30
0.0
 40
1.6000000000000001
  0
CIRCLE
  5
3978F
  8
A-DETL-___2
 10
13.0000000000009095
 20
-86.000000000005457
 30
0.0
 40
1.6000000000000001
  0
CIRCLE
  5
39790
  8
A-DETL-___2
 10
40.0000000000009095
 20
-73.0000000000040927
 30
0.0
 40
12.0
  0
CIRCLE
  5
39791
  8
A-DETL-___2
 10
27.0000000000009095
 20
-86.0000000000040927
 30
0.0
 40
1.6000000000000001
  0
CIRCLE
  5
39792
  8
A-DETL-___2
 10
27.0
 20
-60.0000000000045404
 30
0.0
 40
1.6000000000000001
  0
CIRCLE
  5
39793
  8
A-DETL-___2
 10
53.0
 20
-60.0000000000040927
 30
0.0
 40
1.6000000000000001
  0
CIRCLE
  5
39794
  8
A-DETL-___2
 10
53.0000000000018119
 20
-86.000000000005457
 30
0.0
 40
1.6000000000000001
  0
CIRCLE
  5
39795
  8
A-DETL-___2
 10
0.0
 20
-113.0000000000041069
 30
0.0
 40
12.0
  0
CIRCLE
  5
39796
  8
A-DETL-___2
 10
-13.0
 20
-126.0000000000041069
 30
0.0
 40
1.6000000000000001
  0
CIRCLE
  5
39797
  8
A-DETL-___2
 10
-13.0000000000009095
 20
-100.0000000000045048
 30
0.0
 40
1.6000000000000001
  0
CIRCLE
  5
39798
  8
A-DETL-___2
 10
12.9999999999990905
 20
-100.0000000000041069
 30
0.0
 40
1.6000000000000001
  0
CIRCLE
  5
39799
  8
A-DETL-___2
 10
13.0000000000009095
 20
-126.0000000000054001
 30
0.0
 40
1.6000000000000001
  0
CIRCLE
  5
3979A
  8
A-DETL-___2
 10
40.0000000000009095
 20
-113.0000000000041069
 30
0.0
 40
12.0
  0
CIRCLE
  5
3979B
  8
A-DETL-___2
 10
27.0000000000009095
 20
-126.0000000000041069
 30
0.0
 40
1.6000000000000001
  0
CIRCLE
  5
3979C
  8
A-DETL-___2
 10
27.0
 20
-100.0000000000045048
 30
0.0
 40
1.6000000000000001
  0
CIRCLE
  5
3979D
  8
A-DETL-___2
 10
53.0
 20
-100.0000000000041069
 30
0.0
 40
1.6000000000000001
  0
CIRCLE
  5
3979E
  8
A-DETL-___2
 10
53.0000000000018119
 20
-126.0000000000054001
 30
0.0
 40
1.6000000000000001
  0
CIRCLE
  5
3979F
  8
A-DETL-___2
 10
0.0
 20
-153.0000000000057128
 30
0.0
 40
12.0
  0
CIRCLE
  5
397A0
  8
A-DETL-___2
 10
-13.0
 20
-166.0000000000057128
 30
0.0
 40
1.6000000000000001
  0
CIRCLE
  5
397A1
  8
A-DETL-___2
 10
-13.0000000000009095
 20
-140.0000000000063096
 30
0.0
 40
1.6000000000000001
  0
CIRCLE
  5
397A2
  8
A-DETL-___2
 10
12.9999999999990905
 20
-140.0000000000054001
 30
0.0
 40
1.6000000000000001
  0
CIRCLE
  5
397A3
  8
A-DETL-___2
 10
13.0000000000009095
 20
-166.0000000000069917
 30
0.0
 40
1.6000000000000001
  0
CIRCLE
  5
397A4
  8
A-DETL-___2
 10
40.0000000000009095
 20
-153.0000000000057128
 30
0.0
 40
12.0
  0
CIRCLE
  5
397A5
  8
A-DETL-___2
 10
27.0000000000009095
 20
-166.0000000000057128
 30
0.0
 40
1.6000000000000001
  0
CIRCLE
  5
397A6
  8
A-DETL-___2
 10
27.0
 20
-140.0000000000063096
 30
0.0
 40
1.6000000000000001
  0
CIRCLE
  5
397A7
  8
A-DETL-___2
 10
53.0
 20
-140.0000000000054001
 30
0.0
 40
1.6000000000000001
  0
CIRCLE
  5
397A8
  8
A-DETL-___2
 10
53.0000000000018119
 20
-166.0000000000069917
 30
0.0
 40
1.6000000000000001
  0
POLYLINE
  5
397A9
  8
A-DETL-___2
 66
     1
 10
0.0
 20
0.0
 30
0.0
 70
     1
  0
VERTEX
  5
39D42
  8
A-DETL-___2
 10
44.000000000001819
 20
-98.0000000000045475
 30
0.0
  0
VERTEX
  5
39D43
  8
A-DETL-___2
 10
36.000000000001819
 20
-98.0000000000045475
 30
0.0
 42
-0.4142135623730907
  0
VERTEX
  5
39D44
  8
A-DETL-___2
 10
32.000000000001819
 20
-94.0000000000045475
 30
0.0
  0
VERTEX
  5
39D45
  8
A-DETL-___2
 10
32.000000000001819
 20
-92.0000000000036238
 30
0.0
 42
-0.4142135623730951
  0
VERTEX
  5
39D46
  8
A-DETL-___2
 10
36.000000000001819
 20
-88.000000000003638
 30
0.0
  0
VERTEX
  5
39D47
  8
A-DETL-___2
 10
44.000000000001819
 20
-88.000000000003638
 30
0.0
 42
-0.4142135623730951
  0
VERTEX
  5
39D48
  8
A-DETL-___2
 10
48.0000000000018119
 20
-92.0000000000036238
 30
0.0
  0
VERTEX
  5
39D49
  8
A-DETL-___2
 10
48.0000000000018119
 20
-94.0000000000045475
 30
0.0
 42
-0.4142135623730907
  0
SEQEND
  5
39D4A
  8
A-DETL-___2
  0
POLYLINE
  5
397AA
  8
A-DETL-___2
 66
     1
 10
0.0
 20
0.0
 30
0.0
 70
     1
  0
VERTEX
  5
39D4B
  8
A-DETL-___2
 10
15.0
 20
-117.0000000000045048
 30
0.0
  0
VERTEX
  5
39D4C
  8
A-DETL-___2
 10
15.0
 20
-109.0000000000045048
 30
0.0
 42
-0.4142135623730907
  0
VERTEX
  5
39D4D
  8
A-DETL-___2
 10
19.0
 20
-105.0000000000045048
 30
0.0
  0
VERTEX
  5
39D4E
  8
A-DETL-___2
 10
21.0
 20
-105.0000000000045048
 30
0.0
 42
-0.4142135623730951
  0
VERTEX
  5
39D4F
  8
A-DETL-___2
 10
25.0
 20
-109.0000000000045048
 30
0.0
  0
VERTEX
  5
39D50
  8
A-DETL-___2
 10
25.0
 20
-117.0000000000045048
 30
0.0
 42
-0.4142135623730951
  0
VERTEX
  5
39D51
  8
A-DETL-___2
 10
21.0
 20
-121.0000000000045048
 30
0.0
  0
VERTEX
  5
39D52
  8
A-DETL-___2
 10
19.0
 20
-121.0000000000045048
 30
0.0
 42
-0.4142135623730907
  0
SEQEND
  5
39D53
  8
A-DETL-___2
  0
POLYLINE
  5
397AB
  8
A-DETL-___2
 66
     1
 10
0.0
 20
0.0
 30
0.0
 70
     1
  0
VERTEX
  5
39D54
  8
A-DETL-___2
 10
15.0
 20
-69.0000000000040927
 30
0.0
  0
VERTEX
  5
39D55
  8
A-DETL-___2
 10
15.0
 20
-77.0000000000040927
 30
0.0
 42
0.4142135623730907
  0
VERTEX
  5
39D56
  8
A-DETL-___2
 10
19.0
 20
-81.0000000000040927
 30
0.0
  0
VERTEX
  5
39D57
  8
A-DETL-___2
 10
21.0
 20
-81.0000000000040927
 30
0.0
 42
0.4142135623730951
  0
VERTEX
  5
39D58
  8
A-DETL-___2
 10
25.0
 20
-77.0000000000040927
 30
0.0
  0
VERTEX
  5
39D59
  8
A-DETL-___2
 10
25.0
 20
-69.0000000000040927
 30
0.0
 42
0.4142135623730951
  0
VERTEX
  5
39D5A
  8
A-DETL-___2
 10
21.0
 20
-65.0000000000040927
 30
0.0
  0
VERTEX
  5
39D5B
  8
A-DETL-___2
 10
19.0
 20
-65.0000000000040927
 30
0.0
 42
0.4142135623730907
  0
SEQEND
  5
39D5C
  8
A-DETL-___2
  0
POLYLINE
  5
397AC
  8
A-DETL-___2
 66
     1
 10
0.0
 20
0.0
 30
0.0
 70
     1
  0
VERTEX
  5
39D5D
  8
A-DETL-___2
 10
-4.0
 20
-138.0000000000050022
 30
0.0
  0
VERTEX
  5
39D5E
  8
A-DETL-___2
 10
4.0
 20
-138.0000000000050022
 30
0.0
 42
0.4142135623730907
  0
VERTEX
  5
39D5F
  8
A-DETL-___2
 10
8.0
 20
-134.0000000000050022
 30
0.0
  0
VERTEX
  5
39D60
  8
A-DETL-___2
 10
8.0
 20
-132.0000000000040927
 30
0.0
 42
0.4142135623730951
  0
VERTEX
  5
39D61
  8
A-DETL-___2
 10
4.0
 20
-128.0000000000040927
 30
0.0
  0
VERTEX
  5
39D62
  8
A-DETL-___2
 10
-4.0
 20
-128.0000000000040927
 30
0.0
 42
0.4142135623730951
  0
VERTEX
  5
39D63
  8
A-DETL-___2
 10
-8.0
 20
-132.0000000000040927
 30
0.0
  0
VERTEX
  5
39D64
  8
A-DETL-___2
 10
-8.0
 20
-134.0000000000050022
 30
0.0
 42
0.4142135623730907
  0
SEQEND
  5
39D65
  8
A-DETL-___2
  0
POLYLINE
  5
397AD
  8
A-DETL-___2
 66
     1
 10
0.0
 20
0.0
 30
0.0
 70
     1
  0
VERTEX
  5
39D66
  8
A-DETL-___2
 10
-4.0
 20
-58.0000000000050022
 30
0.0
  0
VERTEX
  5
39D67
  8
A-DETL-___2
 10
4.0
 20
-58.0000000000050022
 30
0.0
 42
0.4142135623730907
  0
VERTEX
  5
39D68
  8
A-DETL-___2
 10
8.0
 20
-54.0000000000050022
 30
0.0
  0
VERTEX
  5
39D69
  8
A-DETL-___2
 10
8.0
 20
-52.0000000000040927
 30
0.0
 42
0.4142135623730951
  0
VERTEX
  5
39D6A
  8
A-DETL-___2
 10
4.0
 20
-48.0000000000040927
 30
0.0
  0
VERTEX
  5
39D6B
  8
A-DETL-___2
 10
-4.0
 20
-48.0000000000040927
 30
0.0
 42
0.4142135623730951
  0
VERTEX
  5
39D6C
  8
A-DETL-___2
 10
-8.0
 20
-52.0000000000040927
 30
0.0
  0
VERTEX
  5
39D6D
  8
A-DETL-___2
 10
-8.0
 20
-54.0000000000050022
 30
0.0
 42
0.4142135623730907
  0
SEQEND
  5
39D6E
  8
A-DETL-___2
  0
CIRCLE
  5
397AE
  8
A-DETL-___2
 10
40.0000000000009095
 20
-53.0000000000045475
 30
0.0
 40
1.6000000000000001
  0
CIRCLE
  5
397AF
  8
A-DETL-___2
 10
40.0000000000009095
 20
-133.0000000000044906
 30
0.0
 40
1.6000000000000001
  0
CIRCLE
  5
397B0
  8
A-DETL-___2
 10
0.0
 20
-93.0000000000045475
 30
0.0
 40
1.6000000000000001
  0
CIRCLE
  5
397B1
  8
A-DETL-___2
 10
40.0
 20
-193.000000000002899
 30
0.0
 40
12.0
  0
CIRCLE
  5
397B2
  8
A-DETL-___2
 10
27.0
 20
-206.0000000000030127
 30
0.0
 40
1.6000000000000001
  0
CIRCLE
  5
397B3
  8
A-DETL-___2
 10
26.9999999999990905
 20
-180.0000000000034106
 30
0.0
 40
1.6000000000000001
  0
CIRCLE
  5
397B4
  8
A-DETL-___2
 10
52.9999999999990905
 20
-180.000000000002899
 30
0.0
 40
1.6000000000000001
  0
CIRCLE
  5
397B5
  8
A-DETL-___2
 10
53.0000000000009095
 20
-206.0000000000042917
 30
0.0
 40
1.6000000000000001
  0
CIRCLE
  5
397B6
  8
A-DETL-___2
 10
40.0
 20
-233.0000000000030127
 30
0.0
 40
12.0
  0
CIRCLE
  5
397B7
  8
A-DETL-___2
 10
27.0
 20
-246.0000000000030127
 30
0.0
 40
1.6000000000000001
  0
CIRCLE
  5
397B8
  8
A-DETL-___2
 10
26.9999999999990905
 20
-220.0000000000034106
 30
0.0
 40
1.6000000000000001
  0
CIRCLE
  5
397B9
  8
A-DETL-___2
 10
52.9999999999990905
 20
-220.000000000002899
 30
0.0
 40
1.6000000000000001
  0
CIRCLE
  5
397BA
  8
A-DETL-___2
 10
53.0000000000009095
 20
-246.0000000000042917
 30
0.0
 40
1.6000000000000001
  0
CIRCLE
  5
397BB
  8
A-DETL-___2
 10
-0.0000000000009095
 20
-273.0000000000030127
 30
0.0
 40
12.0
  0
CIRCLE
  5
397BC
  8
A-DETL-___2
 10
-13.0000000000009095
 20
-286.000000000002899
 30
0.0
 40
1.6000000000000001
  0
CIRCLE
  5
397BD
  8
A-DETL-___2
 10
-13.0000000000018208
 20
-260.0000000000034106
 30
0.0
 40
1.6000000000000001
  0
CIRCLE
  5
397BE
  8
A-DETL-___2
 10
12.9999999999981792
 20
-260.000000000002899
 30
0.0
 40
1.6000000000000001
  0
CIRCLE
  5
397BF
  8
A-DETL-___2
 10
13.0
 20
-286.0000000000043201
 30
0.0
 40
1.6000000000000001
  0
CIRCLE
  5
397C0
  8
A-DETL-___2
 10
40.0
 20
-273.0000000000030127
 30
0.0
 40
12.0
  0
CIRCLE
  5
397C1
  8
A-DETL-___2
 10
27.0
 20
-286.000000000002899
 30
0.0
 40
1.6000000000000001
  0
CIRCLE
  5
397C2
  8
A-DETL-___2
 10
26.9999999999990905
 20
-260.0000000000034106
 30
0.0
 40
1.6000000000000001
  0
CIRCLE
  5
397C3
  8
A-DETL-___2
 10
52.9999999999990905
 20
-260.000000000002899
 30
0.0
 40
1.6000000000000001
  0
CIRCLE
  5
397C4
  8
A-DETL-___2
 10
53.0000000000009095
 20
-286.0000000000043201
 30
0.0
 40
1.6000000000000001
  0
CIRCLE
  5
397C5
  8
A-DETL-___2
 10
-0.0000000000009095
 20
-313.0000000000046043
 30
0.0
 40
12.0
  0
CIRCLE
  5
397C6
  8
A-DETL-___2
 10
-13.0000000000009095
 20
-326.0000000000044906
 30
0.0
 40
1.6000000000000001
  0
CIRCLE
  5
397C7
  8
A-DETL-___2
 10
-13.0000000000018208
 20
-300.0000000000051728
 30
0.0
 40
1.6000000000000001
  0
CIRCLE
  5
397C8
  8
A-DETL-___2
 10
12.9999999999981792
 20
-300.0000000000043201
 30
0.0
 40
1.6000000000000001
  0
CIRCLE
  5
397C9
  8
A-DETL-___2
 10
13.0
 20
-326.0000000000059117
 30
0.0
 40
1.6000000000000001
  0
CIRCLE
  5
397CA
  8
A-DETL-___2
 10
40.0
 20
-313.0000000000046043
 30
0.0
 40
12.0
  0
CIRCLE
  5
397CB
  8
A-DETL-___2
 10
27.0
 20
-326.0000000000044906
 30
0.0
 40
1.6000000000000001
  0
CIRCLE
  5
397CC
  8
A-DETL-___2
 10
26.9999999999990905
 20
-300.0000000000051728
 30
0.0
 40
1.6000000000000001
  0
CIRCLE
  5
397CD
  8
A-DETL-___2
 10
52.9999999999990905
 20
-300.0000000000043201
 30
0.0
 40
1.6000000000000001
  0
CIRCLE
  5
397CE
  8
A-DETL-___2
 10
53.0000000000009095
 20
-326.0000000000059117
 30
0.0
 40
1.6000000000000001
  0
POLYLINE
  5
397CF
  8
A-DETL-___2
 66
     1
 10
0.0
 20
0.0
 30
0.0
 70
     1
  0
VERTEX
  5
39D6F
  8
A-DETL-___2
 10
44.0000000000009024
 20
-258.0000000000034106
 30
0.0
  0
VERTEX
  5
39D70
  8
A-DETL-___2
 10
36.0000000000009095
 20
-258.0000000000034106
 30
0.0
 42
-0.4142135623730907
  0
VERTEX
  5
39D71
  8
A-DETL-___2
 10
32.0000000000009095
 20
-254.0000000000034106
 30
0.0
  0
VERTEX
  5
39D72
  8
A-DETL-___2
 10
32.0000000000009095
 20
-252.0000000000025011
 30
0.0
 42
-0.4142135623730951
  0
VERTEX
  5
39D73
  8
A-DETL-___2
 10
36.0000000000009095
 20
-248.0000000000025011
 30
0.0
  0
VERTEX
  5
39D74
  8
A-DETL-___2
 10
44.0000000000009024
 20
-248.0000000000025011
 30
0.0
 42
-0.4142135623730951
  0
VERTEX
  5
39D75
  8
A-DETL-___2
 10
48.0000000000009095
 20
-252.0000000000025011
 30
0.0
  0
VERTEX
  5
39D76
  8
A-DETL-___2
 10
48.0000000000009095
 20
-254.0000000000034106
 30
0.0
 42
-0.4142135623730907
  0
SEQEND
  5
39D77
  8
A-DETL-___2
  0
POLYLINE
  5
397D0
  8
A-DETL-___2
 66
     1
 10
0.0
 20
0.0
 30
0.0
 70
     1
  0
VERTEX
  5
39D78
  8
A-DETL-___2
 10
14.9999999999990905
 20
-277.0000000000034106
 30
0.0
  0
VERTEX
  5
39D79
  8
A-DETL-___2
 10
14.9999999999990905
 20
-269.0000000000034106
 30
0.0
 42
-0.4142135623730907
  0
VERTEX
  5
39D7A
  8
A-DETL-___2
 10
18.9999999999990905
 20
-265.0000000000034106
 30
0.0
  0
VERTEX
  5
39D7B
  8
A-DETL-___2
 10
20.9999999999990905
 20
-265.0000000000034106
 30
0.0
 42
-0.4142135623730951
  0
VERTEX
  5
39D7C
  8
A-DETL-___2
 10
24.9999999999990905
 20
-269.0000000000034106
 30
0.0
  0
VERTEX
  5
39D7D
  8
A-DETL-___2
 10
24.9999999999990905
 20
-277.0000000000034106
 30
0.0
 42
-0.4142135623730951
  0
VERTEX
  5
39D7E
  8
A-DETL-___2
 10
20.9999999999990905
 20
-281.0000000000034106
 30
0.0
  0
VERTEX
  5
39D7F
  8
A-DETL-___2
 10
18.9999999999990905
 20
-281.0000000000034106
 30
0.0
 42
-0.4142135623730907
  0
SEQEND
  5
39D80
  8
A-DETL-___2
  0
POLYLINE
  5
397D1
  8
A-DETL-___2
 66
     1
 10
0.0
 20
0.0
 30
0.0
 70
     1
  0
VERTEX
  5
39D81
  8
A-DETL-___2
 10
-4.0000000000009086
 20
-298.0000000000039222
 30
0.0
  0
VERTEX
  5
39D82
  8
A-DETL-___2
 10
3.9999999999990901
 20
-298.0000000000039222
 30
0.0
 42
0.4142135623730907
  0
VERTEX
  5
39D83
  8
A-DETL-___2
 10
7.9999999999990896
 20
-294.0000000000038085
 30
0.0
  0
VERTEX
  5
39D84
  8
A-DETL-___2
 10
7.9999999999990896
 20
-292.0000000000030127
 30
0.0
 42
0.4142135623730951
  0
VERTEX
  5
39D85
  8
A-DETL-___2
 10
3.9999999999990901
 20
-288.0000000000030127
 30
0.0
  0
VERTEX
  5
39D86
  8
A-DETL-___2
 10
-4.0000000000009086
 20
-288.0000000000030127
 30
0.0
 42
0.4142135623730951
  0
VERTEX
  5
39D87
  8
A-DETL-___2
 10
-8.0000000000009095
 20
-292.0000000000030127
 30
0.0
  0
VERTEX
  5
39D88
  8
A-DETL-___2
 10
-8.0000000000009095
 20
-294.0000000000038085
 30
0.0
 42
0.4142135623730907
  0
SEQEND
  5
39D89
  8
A-DETL-___2
  0
CIRCLE
  5
397D2
  8
A-DETL-___2
 10
40.0
 20
-213.0000000000034106
 30
0.0
 40
1.6000000000000001
  0
CIRCLE
  5
397D3
  8
A-DETL-___2
 10
40.0
 20
-293.0000000000034106
 30
0.0
 40
1.6000000000000001
  0
POLYLINE
  5
397D4
  8
A-DETL-___2
 66
     1
 10
0.0
 20
0.0
 30
0.0
 70
     1
  0
VERTEX
  5
39D8A
  8
A-DETL-___2
 10
1.599218559171276
 20
-253.0500000000029104
 30
0.0
 42
-0.9692233691954273
  0
VERTEX
  5
39D8B
  8
A-DETL-___2
 10
-1.599218559173095
 20
-253.0500000000029104
 30
0.0
  0
VERTEX
  5
39D8C
  8
A-DETL-___2
 10
-19.9499999999989086
 20
-253.0500000000029104
 30
0.0
  0
VERTEX
  5
39D8D
  8
A-DETL-___2
 10
-19.9499999999989086
 20
-305.0000000000047748
 30
0.0
  0
VERTEX
  5
39D8E
  8
A-DETL-___2
 10
-19.000000000001819
 20
-305.0000000000047748
 30
0.0
 42
-0.4142135623730951
  0
VERTEX
  5
39D8F
  8
A-DETL-___2
 10
-15.0000000000018208
 20
-309.0000000000051728
 30
0.0
  0
VERTEX
  5
39D90
  8
A-DETL-___2
 10
-15.0000000000018208
 20
-317.0000000000051728
 30
0.0
 42
-0.4142135623730951
  0
VERTEX
  5
39D91
  8
A-DETL-___2
 10
-19.000000000001819
 20
-321.0000000000047748
 30
0.0
  0
VERTEX
  5
39D92
  8
A-DETL-___2
 10
-19.9499999999989086
 20
-321.0000000000047748
 30
0.0
  0
VERTEX
  5
39D93
  8
A-DETL-___2
 10
-19.9499999999989086
 20
-335.0000000000031832
 30
0.0
  0
VERTEX
  5
39D94
  8
A-DETL-___2
 10
27.0
 20
-335.0000000000031832
 30
0.0
 42
-0.4142135623730951
  0
VERTEX
  5
39D95
  8
A-DETL-___2
 10
31.0
 20
-339.0000000000031832
 30
0.0
  0
VERTEX
  5
39D96
  8
A-DETL-___2
 10
31.0
 20
-346.0000000000055138
 30
0.0
 42
0.9999999999999998
  0
VERTEX
  5
39D97
  8
A-DETL-___2
 10
49.0
 20
-346.0000000000055138
 30
0.0
  0
VERTEX
  5
39D98
  8
A-DETL-___2
 10
49.0
 20
-339.0000000000031832
 30
0.0
 42
-0.4142135623730951
  0
VERTEX
  5
39D99
  8
A-DETL-___2
 10
53.0
 20
-335.0000000000031832
 30
0.0
  0
VERTEX
  5
39D9A
  8
A-DETL-___2
 10
58.0000000000009095
 20
-335.0000000000031832
 30
0.0
 42
0.4142135623730951
  0
VERTEX
  5
39D9B
  8
A-DETL-___2
 10
62.0000000000009095
 20
-331.0000000000031832
 30
0.0
  0
VERTEX
  5
39D9C
  8
A-DETL-___2
 10
62.0000000000009095
 20
-285.99999999999892
 30
0.0
 42
-0.4142135623730951
  0
VERTEX
  5
39D9D
  8
A-DETL-___2
 10
66.0000000000009095
 20
-281.99999999999892
 30
0.0
  0
VERTEX
  5
39D9E
  8
A-DETL-___2
 10
72.9999999999936335
 20
-281.99999999999892
 30
0.0
 42
0.9999999999999998
  0
VERTEX
  5
39D9F
  8
A-DETL-___2
 10
72.9999999999936335
 20
-263.99999999999892
 30
0.0
  0
VERTEX
  5
39DA0
  8
A-DETL-___2
 10
66.0000000000009095
 20
-263.99999999999892
 30
0.0
 42
-0.4142135623730951
  0
VERTEX
  5
39DA1
  8
A-DETL-___2
 10
62.0000000000009095
 20
-259.9999999999988063
 30
0.0
  0
VERTEX
  5
39DA2
  8
A-DETL-___2
 10
62.0000000000009095
 20
-205.9999999999988063
 30
0.0
 42
-0.4142135623730951
  0
VERTEX
  5
39DA3
  8
A-DETL-___2
 10
66.0000000000009095
 20
-201.9999999999988063
 30
0.0
  0
VERTEX
  5
39DA4
  8
A-DETL-___2
 10
72.9999999999936335
 20
-201.9999999999988063
 30
0.0
 42
0.9999999999999998
  0
VERTEX
  5
39DA5
  8
A-DETL-___2
 10
72.9999999999936335
 20
-183.9999999999988916
 30
0.0
  0
VERTEX
  5
39DA6
  8
A-DETL-___2
 10
62.0000000000009095
 20
-183.9999999999988916
 30
0.0
  0
VERTEX
  5
39DA7
  8
A-DETL-___2
 10
62.0000000000009095
 20
-126.0
 30
0.0
 42
-0.4142135623730951
  0
VERTEX
  5
39DA8
  8
A-DETL-___2
 10
66.0000000000009095
 20
-122.0
 30
0.0
  0
VERTEX
  5
39DA9
  8
A-DETL-___2
 10
72.999999999994543
 20
-122.0
 30
0.0
 42
0.9999999999999998
  0
VERTEX
  5
39DAA
  8
A-DETL-___2
 10
72.999999999994543
 20
-104.0
 30
0.0
  0
VERTEX
  5
39DAB
  8
A-DETL-___2
 10
66.0000000000009095
 20
-104.0
 30
0.0
 42
-0.4142135623730951
  0
VERTEX
  5
39DAC
  8
A-DETL-___2
 10
62.0000000000009095
 20
-100.0
 30
0.0
  0
VERTEX
  5
39DAD
  8
A-DETL-___2
 10
62.0000000000009095
 20
-46.0
 30
0.0
 42
-0.4142135623730951
  0
VERTEX
  5
39DAE
  8
A-DETL-___2
 10
66.0000000000009095
 20
-42.0
 30
0.0
  0
VERTEX
  5
39DAF
  8
A-DETL-___2
 10
72.999999999994543
 20
-42.0
 30
0.0
 42
0.9999999999999998
  0
VERTEX
  5
39DB0
  8
A-DETL-___2
 10
72.999999999994543
 20
-24.0
 30
0.0
  0
VERTEX
  5
39DB1
  8
A-DETL-___2
 10
66.0000000000009095
 20
-24.0
 30
0.0
 42
-0.4142135623730951
  0
VERTEX
  5
39DB2
  8
A-DETL-___2
 10
62.0000000000009095
 20
-20.0
 30
0.0
  0
VERTEX
  5
39DB3
  8
A-DETL-___2
 10
62.0000000000009095
 20
-15.0000000000013607
 30
0.0
 42
0.4142135623730925
  0
VERTEX
  5
39DB4
  8
A-DETL-___2
 10
58.0000000000009095
 20
-11.0000000000013607
 30
0.0
  0
VERTEX
  5
39DB5
  8
A-DETL-___2
 10
13.0
 20
-11.0000000000009095
 30
0.0
 42
-0.4142135623730925
  0
VERTEX
  5
39DB6
  8
A-DETL-___2
 10
9.0
 20
-7.0000000000009086
 30
0.0
  0
VERTEX
  5
39DB7
  8
A-DETL-___2
 10
9.0
 20
0.0
 30
0.0
 42
0.9999999999999998
  0
VERTEX
  5
39DB8
  8
A-DETL-___2
 10
-9.0
 20
0.0
 30
0.0
  0
VERTEX
  5
39DB9
  8
A-DETL-___2
 10
-9.0
 20
-7.0000000000009086
 30
0.0
 42
-0.4142135623730951
  0
VERTEX
  5
39DBA
  8
A-DETL-___2
 10
-13.0
 20
-11.0000000000009095
 30
0.0
  0
VERTEX
  5
39DBB
  8
A-DETL-___2
 10
-19.9499999999989086
 20
-11.0000000000009095
 30
0.0
  0
VERTEX
  5
39DBC
  8
A-DETL-___2
 10
-19.9499999999989086
 20
-25.0000000000040892
 30
0.0
  0
VERTEX
  5
39DBD
  8
A-DETL-___2
 10
-19.0000000000009095
 20
-25.0000000000040892
 30
0.0
 42
-0.4142135623730951
  0
VERTEX
  5
39DBE
  8
A-DETL-___2
 10
-15.0000000000009095
 20
-29.0000000000040892
 30
0.0
  0
VERTEX
  5
39DBF
  8
A-DETL-___2
 10
-15.0000000000009095
 20
-37.0000000000040998
 30
0.0
 42
-0.4142135623730951
  0
VERTEX
  5
39DC0
  8
A-DETL-___2
 10
-19.0000000000009095
 20
-41.0000000000040927
 30
0.0
  0
VERTEX
  5
39DC1
  8
A-DETL-___2
 10
-19.9499999999989086
 20
-41.0000000000040927
 30
0.0
  0
VERTEX
  5
39DC2
  8
A-DETL-___2
 10
-19.9499999999989086
 20
-145.0000000000059117
 30
0.0
  0
VERTEX
  5
39DC3
  8
A-DETL-___2
 10
-19.0000000000009095
 20
-145.0000000000059117
 30
0.0
 42
-0.4142135623730951
  0
VERTEX
  5
39DC4
  8
A-DETL-___2
 10
-15.0000000000009095
 20
-149.0000000000063096
 30
0.0
  0
VERTEX
  5
39DC5
  8
A-DETL-___2
 10
-15.0000000000009095
 20
-157.0000000000063949
 30
0.0
 42
-0.4142135623730951
  0
VERTEX
  5
39DC6
  8
A-DETL-___2
 10
-19.0000000000009095
 20
-161.0000000000059117
 30
0.0
  0
VERTEX
  5
39DC7
  8
A-DETL-___2
 10
-19.9499999999989086
 20
-161.0000000000059117
 30
0.0
  0
VERTEX
  5
39DC8
  8
A-DETL-___2
 10
-19.9499999999989086
 20
-172.9500000000024897
 30
0.0
  0
VERTEX
  5
39DC9
  8
A-DETL-___2
 10
20.0500000000001783
 20
-172.9500000000024897
 30
0.0
  0
VERTEX
  5
39DCA
  8
A-DETL-___2
 10
20.0500000000001783
 20
-225.0000000000030127
 30
0.0
  0
VERTEX
  5
39DCB
  8
A-DETL-___2
 10
20.9999999999990905
 20
-225.0000000000030127
 30
0.0
 42
-0.4142135623730951
  0
VERTEX
  5
39DCC
  8
A-DETL-___2
 10
24.9999999999990905
 20
-229.0000000000030127
 30
0.0
  0
VERTEX
  5
39DCD
  8
A-DETL-___2
 10
24.9999999999990905
 20
-237.000000000002899
 30
0.0
 42
-0.4142135623730951
  0
VERTEX
  5
39DCE
  8
A-DETL-___2
 10
20.9999999999990905
 20
-241.000000000002899
 30
0.0
  0
VERTEX
  5
39DCF
  8
A-DETL-___2
 10
20.0500000000001783
 20
-241.000000000002899
 30
0.0
  0
VERTEX
  5
39DD0
  8
A-DETL-___2
 10
20.0500000000001783
 20
-253.0500000000029104
 30
0.0
  0
SEQEND
  5
39DD1
  8
A-DETL-___2
  0
CIRCLE
  5
397D5
  8
A-DETL-___2
 10
0.0
 20
0.0
 30
0.0
 40
4.5
  0
CIRCLE
  5
397D6
  8
A-DETL-___2
 10
40.0
 20
-346.0000000000055138
 30
0.0
 40
4.5
  0
CIRCLE
  5
397D7
  8
A-DETL-___2
 10
72.999999999994543
 20
-33.0
 30
0.0
 40
4.5
  0
CIRCLE
  5
397D8
  8
A-DETL-___2
 10
72.999999999994543
 20
-113.0
 30
0.0
 40
4.5
  0
CIRCLE
  5
397D9
  8
A-DETL-___2
 10
72.9999999999936335
 20
-192.9999999999988063
 30
0.0
 40
4.5
  0
CIRCLE
  5
397DA
  8
A-DETL-___2
 10
72.9999999999936335
 20
-272.99999999999892
 30
0.0
 40
4.5
  0
ENDBLK
  5
393EC
  8
0
  0
ENDSEC
  0
SECTION
  2
ENTITIES
  0
INSERT
  5
1F83B
  8
0
  2
3D_M10-FLAT0
 10
4866.9997079202821624
 20
-1332.8687121905888944
 30
0.0
  0
INSERT
  5
1F83D
  8
0
  2
3D_M10-FLAT1
 10
4869.5065341973759132
 20
-1332.8687121905888944
 30
0.0
  0
INSERT
  5
39447
  8
DEFPOINTS
  2
PLATE_3
 10
7625.2457341390354486
 20
1365.4105692305840876
 30
0.0
  0
INSERT
  5
3983F
  8
DEFPOINTS
  2
PLATE_ONE
 10
7491.7527029734837924
 20
1367.827495921685113
 30
0.0
  0
ENDSEC
  0
EOF
